<svg xmlns="http://www.w3.org/2000/svg" viewBox="0 0 588.09 238.72"><title>logo</title><g id="Camada_2" data-name="Camada 2"><g id="Layer_1" data-name="Layer 1"><path d="M358.49,67.22A29.09,29.09,0,0,0,368.6,45.41a26.38,26.38,0,0,0-26.66-26.67c-13.52,0-25.22,9-39.55,23.78l-1-1.07C278.75,16.48,263.8,0,245.5,0a26.38,26.38,0,0,0-26.67,26.66,29.11,29.11,0,0,0,10.11,21.82,29.09,29.09,0,0,0-10.11,21.81A26.37,26.37,0,0,0,245.5,97c13.51,0,25.22-9,39.54-23.77l1,1.07c22.66,25,37.62,41.45,55.92,41.45A26.38,26.38,0,0,0,368.6,89,29.11,29.11,0,0,0,358.49,67.22Zm-91.94,12c-8,6.55-14.52,9.47-21.05,9.47a18.07,18.07,0,0,1-18.36-18.35,20.68,20.68,0,0,1,7.2-15.5l1.37-1.17,6.93-5.14-6.93-5.15-1.37-1.17a20.66,20.66,0,0,1-7.2-15.5A18.07,18.07,0,0,1,245.5,8.31c6.53,0,13,2.92,21.05,9.48C274.92,24.63,284.34,35,295.23,47l0,0,1.31,1.45-1.31,1.44,0,0C284.34,62,274.93,72.32,266.55,79.17ZM355,102.1a18.3,18.3,0,0,1-13.06,5.29c-6.54,0-13-2.92-21.06-9.48C312.51,91.07,303.1,80.7,292.2,68.7l0,0-1.31-1.45,1.31-1.44,0,0c10.9-12,20.31-22.37,28.68-29.22,8-6.55,14.52-9.47,21.06-9.47a18.05,18.05,0,0,1,18.35,18.35,20.68,20.68,0,0,1-7.2,15.5l-1.37,1.17-6.93,5.14,6.93,5.15,1.37,1.17a20.66,20.66,0,0,1,7.2,15.5A18.3,18.3,0,0,1,355,102.1Z" fill="#ca4975"/><circle cx="302.39" cy="15.29" r="6.21" fill="#ca4975"/><path d="M42.59,153.16,29.65,197.72A4.5,4.5,0,0,1,25.3,201,4.38,4.38,0,0,1,21.08,198L.42,141.36a5.55,5.55,0,0,1-.42-2,4.44,4.44,0,0,1,4.5-4.49,4.37,4.37,0,0,1,4.21,2.95L25,184.37l13.35-46.52a4.49,4.49,0,0,1,8.43,0l13.35,46.52,16.31-46.52a4.37,4.37,0,0,1,4.21-2.95,4.44,4.44,0,0,1,4.5,4.49,5.55,5.55,0,0,1-.42,2L64.09,198A4.38,4.38,0,0,1,59.87,201a4.5,4.5,0,0,1-4.35-3.23Z" fill="#ca4975"/><path d="M149.39,167.78c0,23.05-11.24,33.87-29.52,33.87s-29.51-10.82-29.51-33.87,11.38-33.73,29.51-33.73C138.15,134.05,149.39,144.73,149.39,167.78Zm-9.14,0c0-17.71-7.45-25.58-20.38-25.58s-20.38,7.87-20.38,25.58c0,18,7.45,25.72,20.38,25.72S140.25,185.77,140.25,167.78Z" fill="#ca4975"/><path d="M210.65,118a4.62,4.62,0,0,0-4.49,4.5v74a4.52,4.52,0,0,0,4.49,4.5,4.63,4.63,0,0,0,4.5-4.5v-74A4.53,4.53,0,0,0,210.65,118Z" fill="#ca4975"/><path d="M280.08,143.19V122.48a4.5,4.5,0,1,1,9,0V174c0,18.55-11.52,27.68-27.54,27.68-18.13,0-28.81-10.82-28.81-33.87s10.11-33.73,28.24-33.73C270,134.05,276.85,138.69,280.08,143.19Zm0,11.38s-5.34-12.37-18.55-12.37c-12.79,0-19.82,8.3-19.82,25.58,0,17.57,6.89,25.72,19.82,25.72,10.82,0,18.55-6.18,18.55-19.53Z" fill="#ca4975"/><path d="M171,142.13c6.64-5.88,11.66-7.8,21.36-7.8a4.36,4.36,0,0,1,0,8.72c-12.94,0-19.54,9-19.54,21.92v31.48a4.5,4.5,0,0,1-9,0V156.64C164.41,148.29,171,142.13,171,142.13Z" fill="#ca4975"/><path d="M426.59,115.7a4.63,4.63,0,0,0-4.5,4.5v76.25a4.52,4.52,0,0,0,4.49,4.5,4.63,4.63,0,0,0,4.5-4.5V120.2A4.52,4.52,0,0,0,426.59,115.7Z" fill="#ca4975"/><path d="M327.81,134.05c12.51,0,19.4,6.61,21.65,9.7a4.19,4.19,0,0,1,1,2.67,4,4,0,0,1-4.08,4.08,4.2,4.2,0,0,1-3.37-1.69c-2.11-2.39-5.9-6.61-15.18-6.61-12.93,0-19.81,8.3-19.81,25.58,0,17.57,6.88,25.72,19.81,25.72,8.15,0,13.07-3.65,16.31-6a4.19,4.19,0,0,1,2.67-1,4.07,4.07,0,0,1,4.07,4.07,4.36,4.36,0,0,1-1.82,3.51,32.08,32.08,0,0,1-21.23,7.59c-18.13,0-28.95-10.82-28.95-33.87S309.68,134.05,327.81,134.05Z" fill="#ca4975"/><path d="M415.31,167.78c0,23.05-11.25,33.87-29.52,33.87s-29.51-10.82-29.51-33.87,11.38-33.73,29.51-33.73S415.31,144.73,415.31,167.78Zm-9.14,0c0-17.71-7.45-25.58-20.38-25.58s-20.38,7.87-20.38,25.58c0,18,7.45,25.72,20.38,25.72S406.17,185.77,406.17,167.78Z" fill="#ca4975"/><path d="M498.3,167.78c0,23.05-11.25,33.87-29.52,33.87s-29.51-10.82-29.51-33.87,11.38-33.73,29.51-33.73S498.3,144.73,498.3,167.78Zm-9.14,0c0-17.71-7.45-25.58-20.38-25.58s-20.38,7.87-20.38,25.58c0,18,7.45,25.72,20.38,25.72S489.16,185.77,489.16,167.78Z" fill="#ca4975"/><path d="M512.69,142.13c6.64-5.88,11.66-7.8,21.35-7.8a4.36,4.36,0,1,1,0,8.72c-12.93,0-19.53,9-19.53,21.92v31.48a4.5,4.5,0,1,1-9,0V156.64C506.07,148.29,512.69,142.13,512.69,142.13Z" fill="#ca4975"/><path d="M551.13,151.2c0,14.76,37,9.27,37,31.76,0,12.79-10.54,18.55-23.89,18.55-11.53,0-20.38-5.48-24-10.12a4.19,4.19,0,0,1-1-2.67,4.08,4.08,0,0,1,4.08-4.07,4.33,4.33,0,0,1,3.09,1.4c4.36,4.36,10,6.89,17.85,6.89s14.89-2.67,14.89-10c0-14.47-37-8.71-37-31.76,0-11.67,9.56-17,21.51-17,9.55,0,17,3.23,21.36,9a4.26,4.26,0,0,1,1,2.67,4.07,4.07,0,0,1-4.07,4.07,4,4,0,0,1-3-1.26c-3.79-3.66-8-5.9-15.31-5.9C557.31,142.77,551.13,144.73,551.13,151.2Z" fill="#ca4975"/><path d="M161.43,217.25c0-.78.38-1.08,1-1.08s1,.3,1,1.08a1,1,0,0,1-2.06,0Zm1.89,15.39a.86.86,0,1,1-1.72,0v-11a.86.86,0,0,1,1.72,0Z" fill="#ca4975"/><path d="M173.42,233l-4.59-10.9a.94.94,0,0,1-.08-.38.84.84,0,0,1,.86-.86.81.81,0,0,1,.81.56l3.81,9.32,3.8-9.32a.82.82,0,0,1,.81-.56.85.85,0,0,1,.87.86,1.15,1.15,0,0,1-.08.38L175,233a.88.88,0,0,1-1.62,0Z" fill="#ca4975"/><path d="M201.19,220.65c4.32,0,5.15,3.43,5.15,5.27,0,.78,0,1.73-1.08,1.73h-7.88c0,2.67,1.54,4.4,4.08,4.4a5,5,0,0,0,3.24-1.16.74.74,0,0,1,.48-.17.79.79,0,0,1,.78.79.82.82,0,0,1-.29.62,6.05,6.05,0,0,1-4.21,1.51c-3.6,0-5.84-2-5.84-6.51C195.62,223,197.68,220.65,201.19,220.65Zm0,1.57c-2.35,0-3.65,1.51-3.81,3.91h7.26C204.64,224.19,204,222.22,201.19,222.22Z" fill="#ca4975"/><path d="M223.22,222.22a5.24,5.24,0,0,1,4.09-1.57c3.51,0,5.64,2.06,5.64,6.48s-2.13,6.51-5.64,6.51a4.29,4.29,0,0,1-3.67-1.89v6.1a.87.87,0,1,1-1.73,0V225.61A6,6,0,0,1,223.22,222.22Zm4.09,9.85c2.48,0,3.89-1.56,3.89-4.94s-1.46-4.91-3.95-4.91c-2,0-3.67,1.4-3.67,4.91S225.2,232.07,227.31,232.07Z" fill="#ca4975"/><path d="M240.26,223.65a.88.88,0,0,1-.7.38.79.79,0,0,1-.79-.78.84.84,0,0,1,.14-.46,5,5,0,0,1,4.48-2.14c3.13,0,4.86,1.84,4.86,4.59v4.4c0,2.86-3.78,4-5.53,4-2.86,0-4.67-1.38-4.67-3.86s1.81-3.81,4.72-3.81h3.81v-.73a2.86,2.86,0,0,0-3.19-3A3.75,3.75,0,0,0,240.26,223.65Zm6.32,5v-1.14h-3.81c-1.75,0-3,.73-3,2.3,0,1.4,1,2.29,3.08,2.29A3.43,3.43,0,0,0,246.58,228.62Z" fill="#ca4975"/><path d="M293,224c0,2.83,7.1,1.78,7.1,6.1,0,2.46-2,3.56-4.59,3.56a6.06,6.06,0,0,1-4.61-1.94.77.77,0,0,1-.19-.51.78.78,0,0,1,.78-.79.88.88,0,0,1,.6.27,4.54,4.54,0,0,0,3.42,1.33c1.54,0,2.87-.52,2.87-1.92,0-2.78-7.1-1.67-7.1-6.1,0-2.24,1.83-3.27,4.13-3.27a4.93,4.93,0,0,1,4.1,1.73.83.83,0,0,1,.19.51.78.78,0,0,1-.78.78.74.74,0,0,1-.57-.24,3.84,3.84,0,0,0-2.94-1.13C294.15,222.33,293,222.71,293,224Z" fill="#ca4975"/><path d="M311,220.65c4.32,0,5.16,3.43,5.16,5.27,0,.78,0,1.73-1.08,1.73h-7.88c0,2.67,1.54,4.4,4.07,4.4a5,5,0,0,0,3.24-1.16.77.77,0,0,1,.49-.17.79.79,0,0,1,.78.79.82.82,0,0,1-.29.62,6.06,6.06,0,0,1-4.22,1.51c-3.59,0-5.83-2-5.83-6.51C305.4,223,307.45,220.65,311,220.65Zm0,1.57c-2.34,0-3.64,1.51-3.8,3.91h7.26C314.42,224.19,313.75,222.22,311,222.22Z" fill="#ca4975"/><path d="M361.84,225.43v7.21a.87.87,0,0,1-1.73,0v-6.86c0-2.13-.75-3.59-3.37-3.59-2.33,0-3.38,1.25-3.38,3.24v7.21a.87.87,0,0,1-1.73,0v-6.86c0-2.13-.67-3.59-3.32-3.59S345,223.7,345,226v6.67a.86.86,0,0,1-1.72,0V225c0-3.6,3.48-4.36,5.23-4.36,2.22,0,3.65.81,4.29,1.89a4.34,4.34,0,0,1,3.95-1.89C360.89,220.65,361.84,223.14,361.84,225.43Z" fill="#ca4975"/><path d="M373.06,220.65c4.32,0,5.16,3.43,5.16,5.27,0,.78,0,1.73-1.09,1.73h-7.88c0,2.67,1.54,4.4,4.08,4.4a5,5,0,0,0,3.24-1.16.74.74,0,0,1,.48-.17.79.79,0,0,1,.79.79.82.82,0,0,1-.3.62,6.05,6.05,0,0,1-4.21,1.51c-3.59,0-5.83-2-5.83-6.51C367.5,223,369.55,220.65,373.06,220.65Zm0,1.57c-2.35,0-3.65,1.51-3.81,3.91h7.27C376.52,224.19,375.84,222.22,373.06,222.22Z" fill="#ca4975"/><path d="M394.41,225.43v7.21a.87.87,0,0,1-1.73,0v-6.86c0-2.13-.62-3.59-3.24-3.59s-3.59,1.62-3.59,3.78v6.67a.87.87,0,0,1-1.73,0v-7c0-4.14,3.57-4.95,5.32-4.95C393.6,220.65,394.41,223.14,394.41,225.43Z" fill="#ca4975"/><path d="M419.66,225.43v7.21a.87.87,0,0,1-1.73,0v-6.86c0-2.13-.62-3.59-3.24-3.59s-3.59,1.62-3.59,3.78v6.67a.86.86,0,0,1-1.72,0v-7c0-4.14,3.56-4.95,5.31-4.95C418.85,220.65,419.66,223.14,419.66,225.43Z" fill="#ca4975"/><path d="M400.69,217.25c0-.78.38-1.08,1-1.08s1,.3,1,1.08a1,1,0,1,1-2.05,0Zm1.89,15.39a.87.87,0,0,1-1.73,0v-11a.87.87,0,0,1,1.73,0Z" fill="#ca4975"/><path d="M154.36,232.64a.86.86,0,0,1-1.72,0V215a.86.86,0,1,1,1.72,0Z" fill="#ca4975"/><path d="M186.5,222.25a5.27,5.27,0,0,1,4.09-1.49.84.84,0,0,1,0,1.67c-2.48,0-3.74,1.72-3.74,4.19v6a.86.86,0,0,1-1.72,0V225A4.73,4.73,0,0,1,186.5,222.25Z" fill="#ca4975"/><path d="M256.1,222.25a5.26,5.26,0,0,1,4.08-1.49.84.84,0,0,1,0,1.67c-2.47,0-3.74,1.72-3.74,4.19v6a.86.86,0,1,1-1.72,0V225A4.71,4.71,0,0,1,256.1,222.25Z" fill="#ca4975"/><path d="M323.39,222.25a5.27,5.27,0,0,1,4.09-1.49.84.84,0,0,1,0,1.67c-2.48,0-3.74,1.72-3.74,4.19v6a.86.86,0,0,1-1.72,0V225A4.73,4.73,0,0,1,323.39,222.25Z" fill="#ca4975"/><path d="M267.46,223.65a.88.88,0,0,1-.7.38.79.79,0,0,1-.79-.78.84.84,0,0,1,.14-.46,5,5,0,0,1,4.48-2.14c3.13,0,4.86,1.84,4.86,4.59v4.4c0,2.86-3.78,4-5.53,4-2.86,0-4.67-1.38-4.67-3.86S267.06,226,270,226h3.81v-.73a2.86,2.86,0,0,0-3.19-3A3.75,3.75,0,0,0,267.46,223.65Zm6.32,5v-1.14H270c-1.75,0-3,.73-3,2.3,0,1.4,1,2.29,3.08,2.29A3.43,3.43,0,0,0,273.78,228.62Z" fill="#ca4975"/><path d="M427.46,223.65a.88.88,0,0,1-.7.38.78.78,0,0,1-.78-.78.83.83,0,0,1,.13-.46,5,5,0,0,1,4.48-2.14c3.14,0,4.86,1.84,4.86,4.59v4.4c0,2.86-3.78,4-5.53,4-2.86,0-4.67-1.38-4.67-3.86S427.06,226,430,226h3.81v-.73a2.86,2.86,0,0,0-3.19-3A3.75,3.75,0,0,0,427.46,223.65Zm6.32,5v-1.14H430c-1.75,0-3,.73-3,2.3,0,1.4,1,2.29,3.08,2.29A3.43,3.43,0,0,0,433.78,228.62Z" fill="#ca4975"/></g></g></svg>