<svg xmlns="http://www.w3.org/2000/svg" viewBox="0 0 106.9 168.18"><title>z-brasil</title><g id="Camada_2" data-name="Camada 2"><g id="Capa_1" data-name="Capa 1"><path d="M3.33,17.72a.93.93,0,0,1-1.86,0V.93A.92.92,0,0,1,2.4,0h8.79a.85.85,0,0,1,0,1.7H3.33V8.52h6a.85.85,0,1,1,0,1.69h-6Z" fill="#fff"/><path d="M18,5.61c4.38,0,5.23,3.48,5.23,5.34,0,.8,0,1.76-1.1,1.76h-8c0,2.71,1.56,4.46,4.13,4.46A5,5,0,0,0,21.52,16a.74.74,0,0,1,.49-.16.79.79,0,0,1,.8.79.8.8,0,0,1-.31.63,6.09,6.09,0,0,1-4.27,1.53c-3.64,0-5.91-2-5.91-6.6C12.32,8,14.4,5.61,18,5.61ZM18,7.2c-2.38,0-3.7,1.53-3.86,4h7.36C21.46,9.2,20.78,7.2,18,7.2Z" fill="#fff"/><path d="M24.88,2.16c0-.79.39-1.09,1-1.09s1,.3,1,1.09a1,1,0,0,1-2.09,0ZM26.8,17.77a.88.88,0,1,1-1.75,0V6.65a.88.88,0,0,1,1.75,0Z" fill="#fff"/><path d="M30.81,3.12a.91.91,0,0,1,.87-.88.89.89,0,0,1,.88.88V6h1.78a.82.82,0,0,1,0,1.64H32.56V15.2A1.58,1.58,0,0,0,34.15,17a.83.83,0,1,1,0,1.65,3.16,3.16,0,0,1-3.34-3.45V7.64H29.74a.82.82,0,1,1,0-1.64h1.07Z" fill="#fff"/><path d="M48.66,12.18c0,4.5-2.19,6.6-5.75,6.6s-5.75-2.1-5.75-6.6,2.22-6.57,5.75-6.57S48.66,7.69,48.66,12.18Zm-1.78,0c0-3.45-1.45-5-4-5s-4,1.53-4,5,1.45,5,4,5S46.88,15.69,46.88,12.18Z" fill="#fff"/><path d="M67.9,10.46v7.31a.88.88,0,0,1-1.76,0v-7c0-2.16-.63-3.64-3.28-3.64S59.21,8.82,59.21,11v6.76a.88.88,0,1,1-1.75,0V6.65a.88.88,0,0,1,1.75,0v.88a4,4,0,0,1,3.65-1.92C67.07,5.61,67.9,8.13,67.9,10.46Z" fill="#fff"/><path d="M80.33,12.18c0,4.5-2.19,6.6-5.75,6.6s-5.75-2.1-5.75-6.6,2.22-6.57,5.75-6.57S80.33,7.69,80.33,12.18Zm-1.77,0c0-3.45-1.46-5-4-5s-4,1.53-4,5,1.46,5,4,5S78.56,15.69,78.56,12.18Z" fill="#fff"/><path d="M1.85,59.65A1.86,1.86,0,0,1,0,57.81V24.91a1.87,1.87,0,0,1,1.85-1.85h9.24c7.67,0,11.09,3.81,11.09,9.68a7.53,7.53,0,0,1-5.27,7.39c3.91,1,7,3.81,7,9.08,0,6.31-4,10.44-11.15,10.44ZM3.7,39.05H11c4.84,0,7.39-2.5,7.39-6.31S16.09,26.43,11,26.43H3.7Zm0,17.23h9c5,0,7.45-2.66,7.45-7.07s-2.83-7-7.45-7h-9Z" fill="#fff"/><path d="M32.48,38.67c1.09-2.5,3.8-4.35,7.56-4.35a1.69,1.69,0,0,1,0,3.37c-5,0-7.56,3.48-7.56,8.48V58.35a1.74,1.74,0,0,1-3.48,0V36.27a1.74,1.74,0,1,1,3.48,0Z" fill="#fff"/><path d="M47.58,40.24a1.78,1.78,0,0,1-1.42.76,1.57,1.57,0,0,1-1.57-1.57,1.75,1.75,0,0,1,.27-.93c1.52-2.39,4.46-4.29,9-4.29,6.31,0,9.79,3.7,9.79,9.24V58.4a1.69,1.69,0,1,1-3.37,0V56.45c-1.36,2.55-4.51,3.91-7.77,3.91-5.77,0-9.41-2.77-9.41-7.77,0-4.79,3.64-7.67,9.51-7.67H60.3V43.45c0-3.7-2.45-6-6.42-6A7.51,7.51,0,0,0,47.58,40.24Zm12.72,10V48H52.63c-3.53,0-6,1.47-6,4.63,0,2.82,2,4.62,6.2,4.62C56.66,57.21,60.3,54.87,60.3,50.25Z" fill="#fff"/><path d="M90,27.36c0-1.58.76-2.18,2.07-2.18s2.07.6,2.07,2.18a2.07,2.07,0,0,1-4.14,0Zm3.81,31a1.74,1.74,0,1,1-3.48,0V36.27a1.74,1.74,0,1,1,3.48,0Z" fill="#fff"/><path d="M103.09,22.68V53.73c0,2.17.71,3.1,2.17,3.1a1.63,1.63,0,1,1,0,3.26c-3.64,0-5.65-2.18-5.65-6.36v-31a1.79,1.79,0,0,1,1.74-1.74A1.75,1.75,0,0,1,103.09,22.68Z" fill="#fff"/><path d="M71.89,41.18c0,5.45,13.65,3.42,13.65,11.73,0,4.72-3.89,6.85-8.82,6.85A11.65,11.65,0,0,1,67.84,56a1.53,1.53,0,0,1-.36-1A1.51,1.51,0,0,1,69,53.53a1.64,1.64,0,0,1,1.15.52,8.76,8.76,0,0,0,6.59,2.54c3,0,5.5-1,5.5-3.68,0-5.35-13.65-3.22-13.65-11.73,0-4.31,3.53-6.28,7.94-6.28,3.53,0,6.28,1.19,7.89,3.32a1.56,1.56,0,0,1,.36,1,1.51,1.51,0,0,1-1.5,1.51,1.45,1.45,0,0,1-1.09-.47,7.37,7.37,0,0,0-5.66-2.18C74.17,38.06,71.89,38.79,71.89,41.18Z" fill="#fff"/><path d="M105.37,116.76c-19.35-10.48-29.9-26.19-33-40.39H57.12C43.81,88.49,24.29,101.23.52,116.49V124c23.33,10.58,35.59,28.4,38.61,44.14H53c12.33-11.51,30.34-23.54,52.35-37.71Zm-75.25,5.52a25.57,25.57,0,0,1,49.19-9.79c-22.09,1.09-38.86,13.28-46.87,20.44A25.43,25.43,0,0,1,30.12,122.28Zm25.56,25.57a25.52,25.52,0,0,1-20-9.68c7.17-6.51,23.78-19.11,45.31-19.73a25.63,25.63,0,0,1-25.29,29.41Z" fill="#f0c931"/><path d="M.52,83.69v32.8c23.77-15.26,43.29-28,56.6-40.12H7.83A7.31,7.31,0,0,0,.52,83.69Z" fill="#64a53f"/><path d="M.52,124v36.82a7.31,7.31,0,0,0,7.31,7.32h31.3C36.11,152.44,23.85,134.62.52,124Z" fill="#64a53f"/><path d="M105.37,116.76V83.69a7.31,7.31,0,0,0-7.31-7.32H72.38C75.47,90.57,86,106.28,105.37,116.76Z" fill="#64a53f"/><path d="M105.37,160.86V130.47c-22,14.17-40,26.2-52.35,37.71h45A7.31,7.31,0,0,0,105.37,160.86Z" fill="#64a53f"/><path d="M55.68,96.71a25.58,25.58,0,0,0-23.24,36.22c8-7.16,24.78-19.35,46.87-20.44A25.56,25.56,0,0,0,55.68,96.71Z" fill="#5268d3"/><path d="M55.68,147.85A25.63,25.63,0,0,0,81,118.44c-21.53.62-38.14,13.22-45.31,19.73A25.52,25.52,0,0,0,55.68,147.85Z" fill="#5268d3"/></g></g></svg>