<svg xmlns="http://www.w3.org/2000/svg" viewBox="0 0 25.01 31"><title>z-cart</title><g id="z-cart"><path d="M24.51,26.43,22.79,7.09A.83.83,0,0,0,22,6.33H3.05a.84.84,0,0,0-.83.76L.51,26.43s0,.05,0,.08a4.27,4.27,0,0,0,4.5,4H20a4.27,4.27,0,0,0,4.5-4ZM20,28.84H5a2.63,2.63,0,0,1-2.84-2.3L3.8,8H21.21l1.65,18.54A2.66,2.66,0,0,1,20,28.84Z" fill="#e6427b" stroke="#e3457b" stroke-miterlimit="10"/><path d="M6.57,10.51a.83.83,0,0,0,1.66,0V8h0V6.33a4.27,4.27,0,0,1,8.54,0v4.18a.82.82,0,0,0,.82.83.83.83,0,0,0,.83-.83V6.33a5.93,5.93,0,0,0-11.85,0v4.18Z" fill="#9ad7d8" stroke="#9cd7d7" stroke-miterlimit="10"/></g></svg>