<svg xmlns="http://www.w3.org/2000/svg" viewBox="0 0 279.7 69.68"><title>z-desigual</title><g id="Camada_2" data-name="Camada 2"><g id="Capa_1" data-name="Capa 1"><path d="M33.15.57v21.3q-5.37-5.52-14-5.53A18.29,18.29,0,0,0,5.68,22.1,20,20,0,0,0,0,36.74c0,.09,0,.18,0,.28s0,.19,0,.28A20,20,0,0,0,5.68,51.94,18.29,18.29,0,0,0,19.15,57.7a19,19,0,0,0,14-5.45v4.36h8.18V0H33.15ZM29.34,46.31A12.41,12.41,0,0,1,20.47,50a12.08,12.08,0,0,1-8.95-3.62A13,13,0,0,1,8,37a13,13,0,0,1,3.57-9.29,12,12,0,0,1,9-3.66,12.37,12.37,0,0,1,8.87,3.7A12.61,12.61,0,0,1,33.14,37a12.59,12.59,0,0,1-3.8,9.29" fill="#262424"/><path d="M168.84,20.1q-4.59-4.82-13.31-4.82a18.64,18.64,0,0,0-13.27,5.37,17.55,17.55,0,0,0-5.64,13.23,17.76,17.76,0,0,0,5.68,13.31,18.54,18.54,0,0,0,13.23,5.45q8.73,0,13.31-4.83V50.3q0,5.61-3.31,8.83a12,12,0,0,1-8.83,3.23,14,14,0,0,1-7.2-1.63,15.54,15.54,0,0,1-5-5.21l-6.61,4.9q5,9.26,18.83,9.26,9.18,0,14.59-4.82t5.41-13.39V16.29h-7.86ZM165.3,42.32a11.91,11.91,0,0,1-8.44,3.31A12.54,12.54,0,0,1,148,42.36a11,11,0,0,1-3.54-8.48A11,11,0,0,1,148,25.36a12.6,12.6,0,0,1,8.84-3.23,12,12,0,0,1,8.44,3.27,11,11,0,0,1,3.54,8.48,11,11,0,0,1-3.54,8.44" fill="#262424"/><path d="M212.35,34.11q0,7.08-3,10.74a10.34,10.34,0,0,1-8.41,3.66,8.46,8.46,0,0,1-6.73-2.92,11.25,11.25,0,0,1-2.53-7.66V16.29h-8.09V39.56q0,7.32,4.24,11.87A14.6,14.6,0,0,0,199,56q8.42,0,13.31-5.83v4.74h8.1V16.29h-8.1Z" fill="#262424"/><path d="M108.21,33.1l-9.18-2c-3.12-.73-4.67-2.18-4.67-4.36a4.49,4.49,0,0,1,1.75-3.62,7.83,7.83,0,0,1,5.1-1.44,9.88,9.88,0,0,1,6,1.71A6.82,6.82,0,0,1,110,28l7.71-1.63a13.07,13.07,0,0,0-5.41-8.06,18.26,18.26,0,0,0-10.86-3.07q-6.93,0-11.09,3.39a10.82,10.82,0,0,0-4.16,8.83q0,8.17,10.5,10.51l8.41,1.71q5.2,1.17,5.21,4.59A4.33,4.33,0,0,1,108.25,48a9.8,9.8,0,0,1-5.56,1.4A12.35,12.35,0,0,1,96,47.73a6.35,6.35,0,0,1-3-4.9v0H84.9a16.12,16.12,0,0,0,1,5.35,11.14,11.14,0,0,0,4.45,4.9A21.68,21.68,0,0,0,102,56q7.39,0,11.83-3.27a10.74,10.74,0,0,0,4.44-9.18,9.17,9.17,0,0,0-2.65-6.73,14.19,14.19,0,0,0-7.39-3.7" fill="#262424"/><path d="M64.47,15.2a19.48,19.48,0,0,0-14.21,5.72q-5.79,5.71-5.8,14.75t5.8,14.63A19.15,19.15,0,0,0,64.15,56a20.92,20.92,0,0,0,11.41-3.07,18.14,18.14,0,0,0,7.2-9.07l.31-1H75.21C73,46.91,69.28,49,64.15,49a11.06,11.06,0,0,1-7.78-3.12,12.71,12.71,0,0,1-3.89-8.32H83.77v-2.8a20,20,0,0,0-5.88-14A18.41,18.41,0,0,0,64.47,15.2M52.71,31.78A10.74,10.74,0,0,1,57,24.85a12.47,12.47,0,0,1,7.48-2.49,10.83,10.83,0,0,1,7.08,2.41,11.69,11.69,0,0,1,3.89,7Z" fill="#262424"/><path d="M127.59,3.37a5.07,5.07,0,0,0-3.73,1.48,4.87,4.87,0,0,0-1.48,3.58A4.7,4.7,0,0,0,123.86,12a5.17,5.17,0,0,0,3.73,1.4,5.05,5.05,0,0,0,3.7-1.4,4.78,4.78,0,0,0,1.44-3.58,4.87,4.87,0,0,0-1.48-3.58,5,5,0,0,0-3.66-1.48" fill="#262424"/><rect x="123.54" y="16.29" width="8.09" height="38.6" fill="#262424"/><rect x="271.6" y="3.37" width="8.09" height="51.52" fill="#262424"/><path d="M266,54.89V16.29h-8.09v4.44q-5.29-5.54-14-5.53A18.29,18.29,0,0,0,230.41,21a20,20,0,0,0-5.68,14.63q0,9,5.64,14.67A18.3,18.3,0,0,0,243.88,56q8.72,0,14-5.52v4.43Zm-11.91-9.77a12.33,12.33,0,0,1-8.87,3.7,12.16,12.16,0,0,1-9-3.62,13.08,13.08,0,0,1-3.58-9.61A13.1,13.1,0,0,1,236.17,26a12.19,12.19,0,0,1,9-3.62,12.33,12.33,0,0,1,8.87,3.7,12.69,12.69,0,0,1,3.82,9.53,12.69,12.69,0,0,1-3.82,9.53" fill="#262424"/></g></g></svg>