<svg xmlns="http://www.w3.org/2000/svg" viewBox="0 0 70.47 50"><title>z-ecofriendly</title><g id="Camada_2" data-name="Camada 2"><g id="Capa_1" data-name="Capa 1"><path d="M51.64,19.5A7.38,7.38,0,0,0,54.2,14a6.68,6.68,0,0,0-6.75-6.77c-3.43,0-6.39,2.29-10,6L37.18,13C31.44,6.62,27.65,2.44,23,2.44A6.69,6.69,0,0,0,16.26,9.2a7.42,7.42,0,0,0,2.56,5.54,7.4,7.4,0,0,0-2.56,5.54A6.69,6.69,0,0,0,23,27c3.42,0,6.39-2.28,10-6l.24.27C39,27.62,42.81,31.8,47.45,31.8A6.68,6.68,0,0,0,54.2,25a7.36,7.36,0,0,0-2.56-5.53m-23.29,3c-2,1.66-3.68,2.4-5.33,2.4a4.58,4.58,0,0,1-4.65-4.65,5.26,5.26,0,0,1,1.82-3.94l.35-.3,1.75-1.3-1.75-1.31-.35-.29A5.26,5.26,0,0,1,18.37,9.2,4.59,4.59,0,0,1,23,4.54c1.65,0,3.3.75,5.33,2.41a78.5,78.5,0,0,1,7.27,7.41h0l.34.37-.34.37h0a77.56,77.56,0,0,1-7.27,7.42m22.41,5.82a4.66,4.66,0,0,1-3.31,1.34c-1.66,0-3.3-.74-5.34-2.4a77.62,77.62,0,0,1-7.26-7.42h0l-.33-.36.33-.37h0a78.55,78.55,0,0,1,7.26-7.41c2-1.67,3.68-2.41,5.34-2.41A4.59,4.59,0,0,1,52.1,14a5.23,5.23,0,0,1-1.83,3.93l-.34.3L48.17,19.5l1.76,1.3.34.3A5.27,5.27,0,0,1,52.1,25a4.67,4.67,0,0,1-1.34,3.32" fill="#e3457b"/><path d="M36.53,6.88a2.09,2.09,0,0,1-1.63.6h0a4.8,4.8,0,0,1-2.08-.69,9.61,9.61,0,0,1-3-3.5,1,1,0,0,1,.81-1.43c.39,0,.81,0,1.24,0a7.64,7.64,0,0,1,3.31.74,5.15,5.15,0,0,1,1.54,1.24A4.11,4.11,0,0,0,37,6.09,9.34,9.34,0,0,0,33,3.69a.09.09,0,0,0-.06.16A7.88,7.88,0,0,1,36.53,6.88ZM43.82,7a6.72,6.72,0,0,1-3,.7,3,3,0,0,1-2.37-1.19A13.53,13.53,0,0,1,44.21,2.7a.08.08,0,0,0,0-.15A12.6,12.6,0,0,0,38,5.8h0c-.79-1.74-.1-3.38,1.88-4.6A7.76,7.76,0,0,1,42.16.27,12.44,12.44,0,0,1,45.66,0c1,0,1.86.15,2.63.26A1,1,0,0,1,49,1.75C47.79,3.52,45.85,6.09,43.82,7Z" fill="#e3457b"/><path d="M.54,43.53A.54.54,0,0,1,0,43V33.38a.54.54,0,0,1,.54-.54h5.1a.5.5,0,0,1,.49.5.49.49,0,0,1-.49.49H1.08v3.83H4.57a.49.49,0,1,1,0,1H1.08v3.91H5.81a.49.49,0,1,1,0,1Z" fill="#e3457b"/><path d="M10.23,36.1a3,3,0,0,1,2.45,1.09.51.51,0,0,1,.11.31.45.45,0,0,1-.46.46.49.49,0,0,1-.38-.19A2,2,0,0,0,10.23,37C8.77,37,8,38,8,39.91s.78,2.91,2.24,2.91a2.91,2.91,0,0,0,1.85-.69.53.53,0,0,1,.3-.11.47.47,0,0,1,.46.46.49.49,0,0,1-.21.4,3.6,3.6,0,0,1-2.4.86c-2,0-3.27-1.22-3.27-3.83S8.19,36.1,10.23,36.1Z" fill="#e3457b"/><path d="M20.17,39.91c0,2.61-1.27,3.83-3.34,3.83s-3.33-1.22-3.33-3.83,1.28-3.81,3.33-3.81S20.17,37.31,20.17,39.91Zm-1,0c0-2-.84-2.89-2.3-2.89s-2.3.89-2.3,2.89.84,2.91,2.3,2.91S19.13,41.94,19.13,39.91Z" fill="#e3457b"/><path d="M28,32.42H22.92a1,1,0,0,0-1,1v9.74a1,1,0,0,0,1.93,0V39.19H27a.92.92,0,1,0,0-1.83H23.88V34.25H28a.92.92,0,1,0,0-1.83Z" fill="#e3457b"/><path d="M32.69,35.71a3,3,0,0,0-1.88.6.91.91,0,0,0-.84-.54.92.92,0,0,0-.93.93v6.45a.93.93,0,0,0,1.86,0V39.59c0-.76.23-2.05,1.79-2.05a.92.92,0,0,0,0-1.83Z" fill="#e3457b"/><path d="M35.29,35.77a.92.92,0,0,0-.93.93v6.45a.93.93,0,0,0,1.86,0V36.7A.92.92,0,0,0,35.29,35.77Z" fill="#e3457b"/><path d="M35.29,33a1,1,0,0,0-1,1.06,1,1,0,1,0,1-1.06Z" fill="#e3457b"/><path d="M44.13,39.2a3.28,3.28,0,0,0-3.46-3.52c-2.31,0-3.69,1.58-3.69,4.23s1.36,4.25,3.85,4.25a4,4,0,0,0,2.78-1,.93.93,0,0,0,.3-.67A.89.89,0,0,0,43,41.6a.91.91,0,0,0-.54.18,2.46,2.46,0,0,1-1.65.6,1.83,1.83,0,0,1-1.95-1.74h4.19C44.13,40.64,44.13,39.63,44.13,39.2Zm-3.46-1.76a1.42,1.42,0,0,1,1.59,1.46H38.91A1.65,1.65,0,0,1,40.67,37.44Z" fill="#e3457b"/><path d="M48.34,35.68a3.14,3.14,0,0,0-1.82.55.91.91,0,0,0-.8-.46.92.92,0,0,0-.94.93v6.45a.94.94,0,0,0,1.87,0V39.23c0-1.23.53-1.8,1.69-1.8s1.48.42,1.48,1.69v4a.93.93,0,0,0,1.86,0V38.91C51.68,36.79,50.53,35.68,48.34,35.68Z" fill="#e3457b"/><path d="M58.62,31.8a.92.92,0,0,0-.93.93v3.44A3.19,3.19,0,0,0,56,35.68c-1.65,0-3.61.73-3.61,4.23,0,2.74,1.31,4.25,3.68,4.25a3.28,3.28,0,0,0,3.53-3.55V32.73A.92.92,0,0,0,58.62,31.8Zm-.93,8.81c0,1.47-.91,1.78-1.67,1.78s-1.82-.28-1.82-2.48,1-2.47,1.82-2.47a1.93,1.93,0,0,1,1.67,1.08Z" fill="#e3457b"/><path d="M63.19,43.18a.91.91,0,0,0-.9-.9c-.11,0-.22,0-.22-.48V32.73a.93.93,0,0,0-.93-.93,1,1,0,0,0-.93.93V41.8c0,1.45.76,2.28,2.08,2.28A.9.9,0,0,0,63.19,43.18Z" fill="#e3457b"/><path d="M69.53,35.77a.89.89,0,0,0-.86.6l-1.85,4.52L65,36.37a.9.9,0,0,0-.87-.6.92.92,0,0,0-.93.93.94.94,0,0,0,.07.36l2.6,6.17c-.64,1.57-.94,2.12-1.94,2.12a.9.9,0,0,0,0,1.8c2,0,2.82-1.32,3.36-2.61l3.13-7.45v0a1,1,0,0,0,.07-.35A.92.92,0,0,0,69.53,35.77Z" fill="#e3457b"/><path d="M18.26,47.78h-.61a.17.17,0,0,0-.17.16v1.87a.17.17,0,1,0,.34,0V49.1h.44a.61.61,0,0,0,.64-.67A.6.6,0,0,0,18.26,47.78Zm0,1h-.41v-.69h.41a.35.35,0,0,1,0,.69Z" fill="#e3457b"/><path d="M23.08,49.05a.62.62,0,0,0,.49-.63.63.63,0,0,0-.65-.64h-.6a.16.16,0,0,0-.17.16v1.87a.16.16,0,0,0,.17.17.16.16,0,0,0,.16-.17v-.74h.21l.6.83a.19.19,0,0,0,.15.08.16.16,0,0,0,.16-.17.17.17,0,0,0,0-.1Zm-.6-.3v-.66h.44a.33.33,0,0,1,0,.66Z" fill="#e3457b"/><path d="M27.76,47.73c-.65,0-1,.41-1,1.14s.36,1.13,1,1.13,1-.4,1-1.13S28.42,47.73,27.76,47.73Zm0,2c-.44,0-.67-.27-.67-.81s.23-.82.67-.82.68.27.68.82S28.21,49.68,27.76,49.68Z" fill="#e3457b"/><path d="M32.67,47.78h-.43a.16.16,0,0,0-.16.16v1.85a.17.17,0,0,0,.16.17h.43c.68,0,1-.36,1-1.09S33.35,47.78,32.67,47.78Zm0,1.86h-.26V48.09h.26c.47,0,.67.23.67.78S33.14,49.64,32.67,49.64Z" fill="#e3457b"/><path d="M38.36,47.75a.18.18,0,0,0-.17.17v1.35c0,.19,0,.41-.44.41s-.44-.22-.44-.41V47.92a.17.17,0,0,0-.34,0v1.35c0,.33.14.73.78.73s.78-.25.78-.73V47.92A.18.18,0,0,0,38.36,47.75Z" fill="#e3457b"/><path d="M42.83,48.05a.6.6,0,0,1,.48.23.17.17,0,0,0,.13.07.17.17,0,0,0,.16-.17.19.19,0,0,0,0-.1.91.91,0,0,0-.74-.35c-.66,0-1,.41-1,1.14s.35,1.13,1,1.13a.93.93,0,0,0,.74-.35.17.17,0,0,0,0-.1.16.16,0,0,0-.16-.16.17.17,0,0,0-.13.07.58.58,0,0,1-.48.22c-.47,0-.68-.25-.68-.81S42.38,48.05,42.83,48.05Z" fill="#e3457b"/><path d="M48.18,47.78h-1.3a.16.16,0,1,0,0,.32h.48v1.71a.17.17,0,0,0,.34,0V48.1h.48a.16.16,0,1,0,0-.32Z" fill="#e3457b"/><path d="M52.28,48.66c-.28-.1-.45-.17-.45-.34s.14-.27.38-.27a.51.51,0,0,1,.44.22.18.18,0,0,0,.13.06.16.16,0,0,0,.16-.16.2.2,0,0,0,0-.09.84.84,0,0,0-.71-.35c-.53,0-.71.32-.71.59,0,.43.35.54.67.65s.48.17.48.37-.16.34-.46.34a.54.54,0,0,1-.49-.26.16.16,0,0,0-.14-.08.17.17,0,0,0-.16.17.24.24,0,0,0,0,.08.85.85,0,0,0,.77.41c.5,0,.79-.24.79-.66S52.6,48.76,52.28,48.66Z" fill="#e3457b"/></g></g></svg>