<svg xmlns="http://www.w3.org/2000/svg" viewBox="0 0 30.04 30"><title>z-help</title><g id="Camada_2" data-name="Camada 2"><g id="Capa_1" data-name="Capa 1"><path d="M30,16.18a5.17,5.17,0,0,0-2.23-3.94,6.05,6.05,0,0,0-1.66-.64l-.53-.12A8.82,8.82,0,0,0,24,11.32h-1.4a1.84,1.84,0,0,0-1.84,1.84V24.81a.38.38,0,0,1-.39.39h-3A3,3,0,0,0,12,27a3,3,0,0,0,5.27,1.84h3a4.06,4.06,0,0,0,4-3.4h.45A5.19,5.19,0,0,0,30,20.3V17h0ZM26.32,20.3a1.51,1.51,0,0,1-1.51,1.5h-.39V15h.38a1.52,1.52,0,0,1,1.51,1.51Z" fill="#c64478"/><path d="M7.42,11.32H6.7a10.62,10.62,0,0,0-1.59.11,8.24,8.24,0,0,0-2.87.81A5.2,5.2,0,0,0,0,16.51V20.3a5.18,5.18,0,0,0,5.19,5.18H7.42a1.84,1.84,0,0,0,1.84-1.84V13.16A1.84,1.84,0,0,0,7.42,11.32ZM5.58,21.8H5.19a1.51,1.51,0,0,1-1.51-1.5V16.51A1.52,1.52,0,0,1,5.19,15h.39Z" fill="#c64478"/><path d="M25.82,6h0A12.77,12.77,0,0,0,2.24,12.24,9.65,9.65,0,0,1,6,11.32,9.08,9.08,0,0,1,22.38,7.47a10.12,10.12,0,0,1,1.15,2.16A10.78,10.78,0,0,1,24,11.32a8.55,8.55,0,0,1,3.78.92A12.68,12.68,0,0,0,26,6.32Z" fill="#b6dadd"/></g></g></svg>