<svg xmlns="http://www.w3.org/2000/svg" viewBox="0 0 30 30"><title>z-helper-m</title><g id="Camada_2" data-name="Camada 2"><g id="Capa_1" data-name="Capa 1"><path d="M15,0A15,15,0,0,0,4.61,25.81a.79.79,0,0,0,.21.28l.36.31a15,15,0,0,0,7.46,3.41l.59.08c.21,0,.43.05.64.06s.63,0,1,.05H15A15,15,0,0,0,15,0Zm0,27.41H15v.78l-.05-.78h-.25l-.43,0H14l-.52-.06-.24,0-.53-.08-.19,0c-.22,0-.43-.1-.65-.15l-.32-.09-.34-.1-.36-.13-.27-.1-.39-.15-.06,0c-.3-.13-.6-.27-.89-.43l-.19-.09-.39-.23a1.18,1.18,0,0,0-.19-.11l-.27-.17h0a12.64,12.64,0,0,1-2.15-1.78h0a12.41,12.41,0,0,1,9-21h0A12.4,12.4,0,0,1,27.41,15h0c0,.21,0,.42,0,.62A12.41,12.41,0,0,1,15,27.41Z" fill="#e3457b"/><path d="M25.21,14.73h0a3.18,3.18,0,0,0-1.59-2.55,8.42,8.42,0,0,0-1.17-4.24h0A8.63,8.63,0,0,0,20,5.26,8.58,8.58,0,0,0,6.46,12.18a3.18,3.18,0,0,0-1.59,2.75v2.7a3.18,3.18,0,0,0,3.18,3.18H9.64a.79.79,0,0,0,.79-.79V12.55a.79.79,0,0,0-.79-.8H8.07A7,7,0,0,1,20.72,8.18h0l.06.09,0,0,.05.07,0,0,0,.06,0,0,0,.05,0,.06,0,0,0,.06,0,.06,0,.06,0,.06,0,.05a.56.56,0,0,0,.05.08v0c.12.24.23.49.33.74h0a7.08,7.08,0,0,1,.41,1.9H20.45a.8.8,0,0,0-.8.8v8.3a.79.79,0,0,1-.79.8H16.44v0a1.61,1.61,0,0,0-1.4-.82A1.59,1.59,0,1,0,15,24a1.61,1.61,0,0,0,1.4-.82v0h2.42a2.39,2.39,0,0,0,2.38-2.39v0H22a3.18,3.18,0,0,0,3.18-3.18v-2.7A1.34,1.34,0,0,0,25.21,14.73ZM8.84,13.34v5.88H8.05a1.59,1.59,0,0,1-1.59-1.59v-2.7a1.59,1.59,0,0,1,1.59-1.59Zm14.79,4.29A1.59,1.59,0,0,1,22,19.22h-.8V14.73h0V13.34H22a1.59,1.59,0,0,1,1.59,1.59Z" fill="#e3457b"/><path d="M15,24.55a2.11,2.11,0,1,1,1.65-3.42h2.17a.29.29,0,0,0,.28-.28v-8.3a1.32,1.32,0,0,1,1.31-1.32h1a6.22,6.22,0,0,0-.31-1.2,5.37,5.37,0,0,0-.31-.69l0-.08.43-.3-.45.25,0-.05-.05-.09.42-.31L20.65,9l.41-.33L20.62,9l-.1-.15.41-.32-.44.27-.18-.27A6.48,6.48,0,0,0,8.65,11.23h1A1.32,1.32,0,0,1,11,12.55V20a1.31,1.31,0,0,1-1.31,1.31H8.05a3.7,3.7,0,0,1-3.7-3.7v-2.7a3.73,3.73,0,0,1,1.6-3,9.11,9.11,0,0,1,16.8-4.47h0l.16.25a9.07,9.07,0,0,1,1.23,4.22,3.68,3.68,0,0,1,1.59,2.81l0,.55h0v2.38a3.7,3.7,0,0,1-3.7,3.7h-.32a2.9,2.9,0,0,1-2.86,2.42H16.69A2.1,2.1,0,0,1,15,24.55Zm0-3.18A1.07,1.07,0,1,0,16,23l.29-.52L16,21.92A1.08,1.08,0,0,0,15,21.37ZM17,22.72h1.91a1.87,1.87,0,0,0,1.87-1.87v-.52l.51,0H22a2.66,2.66,0,0,0,2.66-2.66V14.77l0-.17a2.64,2.64,0,0,0-1.31-2l-.25-.15v-.3a8,8,0,0,0-1-3.84L22,8.2a8.06,8.06,0,0,0-15,4v.3l-.25.15a2.67,2.67,0,0,0-1.33,2.3v2.7a2.66,2.66,0,0,0,2.66,2.66H9.64A.28.28,0,0,0,9.92,20V12.55a.28.28,0,0,0-.28-.28H7.51l0-.56A7.52,7.52,0,0,1,21.14,7.88l.48.75-.42.31.45-.25.08.15a7.08,7.08,0,0,1,.36.82,7.39,7.39,0,0,1,.45,2.05l0,.56H20.45a.28.28,0,0,0-.28.28v8.3a1.31,1.31,0,0,1-1.31,1.31H17Zm5.09-3H20.73V12.82H22a2.12,2.12,0,0,1,2.11,2.11v2.7A2.12,2.12,0,0,1,22,19.74Zm-.28-1H22a1.08,1.08,0,0,0,1.07-1.08v-2.7A1.07,1.07,0,0,0,22,13.86h-.28Zm-12.4,1H8.05a2.12,2.12,0,0,1-2.11-2.11v-2.7a2.12,2.12,0,0,1,2.11-2.11H9.36ZM8.05,13.86A1.07,1.07,0,0,0,7,14.93v2.7a1.08,1.08,0,0,0,1.07,1.08h.28V13.86Z" fill="#e3457b"/></g></g></svg>