<svg xmlns="http://www.w3.org/2000/svg" viewBox="0 0 123.18 50"><title>z-logo</title><g id="Camada_2" data-name="Camada 2"><g id="Capa_1" data-name="Capa 1"><path d="M75.09,14.08A6.1,6.1,0,0,0,77.2,9.51a5.52,5.52,0,0,0-5.58-5.58c-2.83,0-5.28,1.88-8.28,5l-.21-.23C58.39,3.45,55.25,0,51.42,0a5.52,5.52,0,0,0-5.58,5.58A6.09,6.09,0,0,0,48,10.15a6.12,6.12,0,0,0-2.11,4.57,5.52,5.52,0,0,0,5.58,5.59c2.83,0,5.28-1.89,8.28-5l.21.22c4.74,5.23,7.88,8.68,11.71,8.68a5.52,5.52,0,0,0,5.58-5.58A6.1,6.1,0,0,0,75.09,14.08Zm-19.26,2.5c-1.68,1.37-3,2-4.41,2a3.77,3.77,0,0,1-3.84-3.85,4.32,4.32,0,0,1,1.5-3.24l.29-.25,1.45-1.08L49.37,9.08l-.29-.25a4.34,4.34,0,0,1-1.5-3.25,3.77,3.77,0,0,1,3.84-3.84,7,7,0,0,1,4.41,2,63.94,63.94,0,0,1,6,6.11h0l.28.3-.28.31h0A63,63,0,0,1,55.83,16.58Zm18.53,4.81a3.86,3.86,0,0,1-2.74,1.1,7,7,0,0,1-4.41-2,66.7,66.7,0,0,1-6-6.12h0l-.28-.3.28-.3h0a65.43,65.43,0,0,1,6-6.12,7,7,0,0,1,4.41-2,3.76,3.76,0,0,1,3.84,3.84A4.34,4.34,0,0,1,74,12.76l-.29.24-1.45,1.08,1.45,1.08.29.24a4.34,4.34,0,0,1,1.5,3.25A3.86,3.86,0,0,1,74.36,21.39Z" fill="#c94875"/><circle cx="63.34" cy="3.2" r="1.3" fill="#c94875"/><path d="M8.92,32.08,6.21,41.41a.94.94,0,0,1-.91.68.92.92,0,0,1-.88-.62L.09,29.61A1.17,1.17,0,0,1,0,29.2a.93.93,0,0,1,.94-.95.94.94,0,0,1,.89.62l3.41,9.75L8,28.87a.89.89,0,0,1,.88-.62.9.9,0,0,1,.88.62l2.8,9.75L16,28.87a.94.94,0,0,1,1.83.33,1.17,1.17,0,0,1-.09.41L13.42,41.47a.92.92,0,0,1-.88.62.94.94,0,0,1-.91-.68Z" fill="#c94875"/><path d="M31.29,35.14c0,4.83-2.35,7.1-6.18,7.1s-6.18-2.27-6.18-7.1,2.38-7.06,6.18-7.06S31.29,30.31,31.29,35.14Zm-1.91,0c0-3.71-1.56-5.35-4.27-5.35s-4.27,1.64-4.27,5.35,1.56,5.39,4.27,5.39S29.38,38.91,29.38,35.14Z" fill="#c94875"/><path d="M44.12,24.71a1,1,0,0,0-.94.94v15.5a1,1,0,0,0,.94.94,1,1,0,0,0,.94-.94V25.65A1,1,0,0,0,44.12,24.71Z" fill="#c94875"/><path d="M58.66,30V25.65a.95.95,0,0,1,1.89,0V36.44c0,3.88-2.42,5.8-5.77,5.8-3.8,0-6-2.27-6-7.1s2.12-7.06,5.92-7.06A5,5,0,0,1,58.66,30Zm0,2.39a4.44,4.44,0,0,0-3.88-2.59c-2.68,0-4.15,1.73-4.15,5.35s1.44,5.39,4.15,5.39c2.26,0,3.88-1.3,3.88-4.09Z" fill="#c94875"/><path d="M35.82,29.77a5.74,5.74,0,0,1,4.47-1.63.91.91,0,1,1,0,1.82c-2.7,0-4.09,1.89-4.09,4.59v6.6a.94.94,0,1,1-1.88,0V32.81A5.17,5.17,0,0,1,35.82,29.77Z" fill="#c94875"/><path d="M89.35,24.23a1,1,0,0,0-.94.95v16a1,1,0,0,0,.94.94,1,1,0,0,0,.94-.94v-16A1,1,0,0,0,89.35,24.23Z" fill="#c94875"/><path d="M68.66,28.08a5.57,5.57,0,0,1,4.54,2,.9.9,0,0,1,.2.56.83.83,0,0,1-.85.85.89.89,0,0,1-.71-.35,3.77,3.77,0,0,0-3.18-1.38c-2.71,0-4.15,1.73-4.15,5.35s1.44,5.39,4.15,5.39a5.38,5.38,0,0,0,3.42-1.27.9.9,0,0,1,.56-.2.85.85,0,0,1,.85.85.93.93,0,0,1-.38.74,6.72,6.72,0,0,1-4.45,1.59c-3.8,0-6.06-2.27-6.06-7.1S64.86,28.08,68.66,28.08Z" fill="#c94875"/><path d="M87,35.14c0,4.83-2.36,7.1-6.18,7.1s-6.19-2.27-6.19-7.1,2.39-7.06,6.19-7.06S87,30.31,87,35.14Zm-1.92,0c0-3.71-1.56-5.35-4.26-5.35s-4.27,1.64-4.27,5.35,1.56,5.39,4.27,5.39S85.07,38.91,85.07,35.14Z" fill="#c94875"/><path d="M104.37,35.14c0,4.83-2.35,7.1-6.18,7.1S92,40,92,35.14s2.38-7.06,6.18-7.06S104.37,30.31,104.37,35.14Zm-1.91,0c0-3.71-1.56-5.35-4.27-5.35s-4.27,1.64-4.27,5.35,1.56,5.39,4.27,5.39S102.46,38.91,102.46,35.14Z" fill="#c94875"/><path d="M107.38,29.77a5.78,5.78,0,0,1,4.48-1.63.91.91,0,0,1,0,1.82c-2.71,0-4.09,1.89-4.09,4.59v6.6a.95.95,0,0,1-1.89,0V32.81A5.17,5.17,0,0,1,107.38,29.77Z" fill="#c94875"/><path d="M115.44,31.67c0,3.09,7.74,1.94,7.74,6.65,0,2.68-2.21,3.89-5,3.89a6.61,6.61,0,0,1-5-2.12.89.89,0,0,1-.21-.56.86.86,0,0,1,.86-.85.9.9,0,0,1,.65.29,5,5,0,0,0,3.73,1.44c1.68,0,3.12-.56,3.12-2.09,0-3-7.74-1.82-7.74-6.65,0-2.44,2-3.56,4.51-3.56A5.35,5.35,0,0,1,122.53,30a.91.91,0,0,1,.21.56.86.86,0,0,1-.86.85.87.87,0,0,1-.62-.26,4.14,4.14,0,0,0-3.2-1.24C116.73,29.9,115.44,30.31,115.44,31.67Z" fill="#c94875"/><path d="M33.81,45.5a.19.19,0,0,1,.22-.22c.13,0,.21.06.21.22a.2.2,0,0,1-.21.22A.2.2,0,0,1,33.81,45.5Zm.4,3.23a.18.18,0,0,1-.36,0v-2.3a.18.18,0,0,1,.36,0Z" fill="#c94875"/><path d="M36.32,48.8l-1-2.29s0,0,0-.08a.18.18,0,0,1,.19-.18.18.18,0,0,1,.17.12l.79,2,.8-2a.17.17,0,0,1,.17-.12.18.18,0,0,1,.18.18.15.15,0,0,1,0,.08l-1,2.29a.18.18,0,0,1-.17.11A.2.2,0,0,1,36.32,48.8Z" fill="#c94875"/><path d="M42.14,46.22a1,1,0,0,1,1.08,1.1c0,.16,0,.36-.23.36H41.34a.83.83,0,0,0,.86.92,1,1,0,0,0,.67-.24.2.2,0,0,1,.11,0,.16.16,0,0,1,.16.16.18.18,0,0,1-.06.13,1.25,1.25,0,0,1-.88.32c-.76,0-1.23-.42-1.23-1.37S41.4,46.22,42.14,46.22Zm0,.32a.78.78,0,0,0-.8.82h1.52C42.86,47,42.72,46.54,42.14,46.54Z" fill="#c94875"/><path d="M46.75,46.55a1.08,1.08,0,0,1,.86-.33c.74,0,1.18.43,1.18,1.35s-.44,1.37-1.18,1.37a.91.91,0,0,1-.77-.4v1.28a.18.18,0,0,1-.36,0V47.26A1.24,1.24,0,0,1,46.75,46.55Zm.86,2.06c.52,0,.82-.33.82-1s-.31-1-.83-1-.77.3-.77,1S47.17,48.61,47.61,48.61Z" fill="#c94875"/><path d="M50.32,46.84a.15.15,0,0,1-.14.08.17.17,0,0,1-.17-.16.17.17,0,0,1,0-.1,1,1,0,0,1,.94-.44.91.91,0,0,1,1,1v.92c0,.6-.79.84-1.16.84-.6,0-1-.29-1-.81s.38-.8,1-.8h.8v-.15a.6.6,0,0,0-.67-.62A.81.81,0,0,0,50.32,46.84Zm1.33,1v-.24h-.8c-.37,0-.62.15-.62.48s.2.48.64.48A.72.72,0,0,0,51.65,47.89Z" fill="#c94875"/><path d="M61.36,46.91c0,.59,1.49.37,1.49,1.27,0,.52-.42.75-1,.75a1.26,1.26,0,0,1-1-.41.14.14,0,0,1,0-.1.18.18,0,0,1,.17-.17.15.15,0,0,1,.12.06,1,1,0,0,0,.72.28c.32,0,.6-.11.6-.41,0-.58-1.49-.35-1.49-1.27,0-.47.39-.69.87-.69a1.05,1.05,0,0,1,.86.36.29.29,0,0,1,0,.11.17.17,0,0,1-.16.17.19.19,0,0,1-.12,0,.78.78,0,0,0-.61-.24C61.61,46.57,61.36,46.65,61.36,46.91Z" fill="#c94875"/><path d="M65.13,46.22a1,1,0,0,1,1.08,1.1c0,.16,0,.36-.22.36H64.34a.82.82,0,0,0,.85.92,1,1,0,0,0,.68-.24.15.15,0,0,1,.1,0,.16.16,0,0,1,.16.16.15.15,0,0,1-.06.13,1.22,1.22,0,0,1-.88.32c-.75,0-1.22-.42-1.22-1.37S64.4,46.22,65.13,46.22Zm0,.32a.76.76,0,0,0-.79.82h1.52C65.86,47,65.72,46.54,65.13,46.54Z" fill="#c94875"/><path d="M75.79,47.22v1.51a.18.18,0,1,1-.36,0V47.29c0-.45-.16-.75-.71-.75a.62.62,0,0,0-.71.68v1.51a.18.18,0,1,1-.36,0V47.29c0-.45-.14-.75-.69-.75s-.7.32-.7.79v1.4a.18.18,0,1,1-.36,0v-1.6c0-.75.73-.91,1.1-.91a1,1,0,0,1,.89.39.92.92,0,0,1,.83-.39C75.59,46.22,75.79,46.74,75.79,47.22Z" fill="#c94875"/><path d="M78.14,46.22a1,1,0,0,1,1.08,1.1c0,.16,0,.36-.23.36H77.34a.83.83,0,0,0,.86.92,1,1,0,0,0,.67-.24.2.2,0,0,1,.11,0,.16.16,0,0,1,.16.16.18.18,0,0,1-.06.13,1.25,1.25,0,0,1-.88.32c-.76,0-1.23-.42-1.23-1.37S77.4,46.22,78.14,46.22Zm0,.32a.78.78,0,0,0-.8.82h1.52C78.86,47,78.72,46.54,78.14,46.54Z" fill="#c94875"/><path d="M82.61,47.22v1.51a.18.18,0,1,1-.36,0V47.29c0-.45-.13-.75-.68-.75s-.75.34-.75.79v1.4a.18.18,0,0,1-.18.18.17.17,0,0,1-.18-.18V47.25a1,1,0,0,1,1.11-1C82.44,46.22,82.61,46.74,82.61,47.22Z" fill="#c94875"/><path d="M87.9,47.22v1.51a.18.18,0,0,1-.36,0V47.29c0-.45-.13-.75-.68-.75s-.75.34-.75.79v1.4a.18.18,0,0,1-.18.18.17.17,0,0,1-.18-.18V47.25a1,1,0,0,1,1.11-1C87.73,46.22,87.9,46.74,87.9,47.22Z" fill="#c94875"/><path d="M83.93,45.5c0-.16.08-.22.21-.22a.19.19,0,0,1,.22.22.2.2,0,0,1-.22.22A.2.2,0,0,1,83.93,45.5Zm.39,3.23a.18.18,0,1,1-.36,0v-2.3a.18.18,0,1,1,.36,0Z" fill="#c94875"/><path d="M32.33,48.73a.18.18,0,0,1-.36,0V45a.18.18,0,1,1,.36,0Z" fill="#c94875"/><path d="M39.06,46.55a1.13,1.13,0,0,1,.86-.31.18.18,0,0,1,.17.17.18.18,0,0,1-.17.18c-.52,0-.78.36-.78.88v1.26a.18.18,0,0,1-.18.18.17.17,0,0,1-.18-.18v-1.6A1,1,0,0,1,39.06,46.55Z" fill="#c94875"/><path d="M53.64,46.55a1.13,1.13,0,0,1,.86-.31.18.18,0,0,1,.17.17.18.18,0,0,1-.17.18.77.77,0,0,0-.79.88v1.26a.18.18,0,0,1-.36,0v-1.6A1,1,0,0,1,53.64,46.55Z" fill="#c94875"/><path d="M67.74,46.55a1.09,1.09,0,0,1,.85-.31.18.18,0,0,1,.18.17.18.18,0,0,1-.18.18c-.52,0-.78.36-.78.88v1.26a.18.18,0,1,1-.36,0v-1.6A1,1,0,0,1,67.74,46.55Z" fill="#c94875"/><path d="M56,46.84a.17.17,0,0,1-.15.08.16.16,0,0,1-.16-.16.17.17,0,0,1,0-.1,1,1,0,0,1,.94-.44.91.91,0,0,1,1,1v.92c0,.6-.79.84-1.15.84-.6,0-1-.29-1-.81s.38-.8,1-.8h.79v-.15a.59.59,0,0,0-.66-.62A.81.81,0,0,0,56,46.84Zm1.32,1v-.24h-.79c-.37,0-.63.15-.63.48s.21.48.65.48A.72.72,0,0,0,57.34,47.89Z" fill="#c94875"/><path d="M89.53,46.84a.15.15,0,0,1-.14.08.17.17,0,0,1-.17-.16.17.17,0,0,1,0-.1,1,1,0,0,1,.94-.44.91.91,0,0,1,1,1v.92c0,.6-.79.84-1.16.84-.6,0-1-.29-1-.81s.38-.8,1-.8h.8v-.15a.6.6,0,0,0-.67-.62A.81.81,0,0,0,89.53,46.84Zm1.33,1v-.24h-.8c-.37,0-.62.15-.62.48s.2.48.64.48A.72.72,0,0,0,90.86,47.89Z" fill="#c94875"/></g></g></svg>