<svg xmlns="http://www.w3.org/2000/svg" viewBox="0 0 145.82 50"><title>z-logo-mobile</title><g id="Camada_2" data-name="Camada 2"><g id="Capa_1" data-name="Capa 1"><path d="M88.89,16.67a7.22,7.22,0,0,0,2.5-5.41,6.54,6.54,0,0,0-6.61-6.61c-3.35,0-6.25,2.23-9.8,5.89l-.24-.26C69.12,4.09,65.41,0,60.87,0a6.54,6.54,0,0,0-6.61,6.61A7.2,7.2,0,0,0,56.77,12a7.2,7.2,0,0,0-2.51,5.41A6.54,6.54,0,0,0,60.87,24c3.35,0,6.25-2.23,9.81-5.9l.24.27c5.62,6.19,9.33,10.28,13.86,10.28a6.54,6.54,0,0,0,6.61-6.61A7.22,7.22,0,0,0,88.89,16.67Zm-22.8,3c-2,1.62-3.6,2.35-5.22,2.35a4.47,4.47,0,0,1-4.55-4.55,5.13,5.13,0,0,1,1.78-3.84l.35-.29L60.16,12l-1.71-1.28-.35-.29a5.13,5.13,0,0,1-1.78-3.84,4.47,4.47,0,0,1,4.55-4.55c1.62,0,3.23.73,5.22,2.35a76,76,0,0,1,7.11,7.24h0l.33.36-.33.36h0A76,76,0,0,1,66.09,19.63ZM88,25.32a4.54,4.54,0,0,1-3.24,1.31c-1.62,0-3.23-.73-5.22-2.35A76.31,76.31,0,0,1,72.45,17h0l-.32-.36.32-.36h0a77.25,77.25,0,0,1,7.11-7.24c2-1.63,3.6-2.35,5.22-2.35a4.47,4.47,0,0,1,4.55,4.55,5.1,5.1,0,0,1-1.78,3.84l-.34.29-1.72,1.28,1.72,1.27.34.29a5.14,5.14,0,0,1,1.78,3.85A4.53,4.53,0,0,1,88,25.32Z" fill="#e3457b"/><circle cx="74.98" cy="3.79" r="1.54" fill="#e3457b"/><path d="M10.56,38,7.35,49a1.12,1.12,0,0,1-1.08.81,1.07,1.07,0,0,1-1-.74L.1,35.05a1.34,1.34,0,0,1-.1-.49,1.1,1.1,0,0,1,1.11-1.11,1.09,1.09,0,0,1,1.05.73l4,11.53L9.51,34.18a1.07,1.07,0,0,1,1.05-.73,1,1,0,0,1,1,.73l3.31,11.53L19,34.18a1.08,1.08,0,0,1,1-.73,1.1,1.1,0,0,1,1.12,1.11,1.37,1.37,0,0,1-.11.49l-5.12,14a1.08,1.08,0,0,1-1,.74A1.11,1.11,0,0,1,13.77,49Z" fill="#e3457b"/><path d="M37,41.6c0,5.72-2.79,8.4-7.32,8.4s-7.32-2.68-7.32-8.4,2.83-8.36,7.32-8.36S37,35.89,37,41.6Zm-2.26,0c0-4.39-1.85-6.34-5.06-6.34s-5,2-5,6.34,1.85,6.38,5,6.38S34.78,46.06,34.78,41.6Z" fill="#e3457b"/><path d="M52.23,29.25a1.15,1.15,0,0,0-1.11,1.12V48.71a1.12,1.12,0,0,0,1.11,1.12,1.16,1.16,0,0,0,1.12-1.12V30.37A1.13,1.13,0,0,0,52.23,29.25Z" fill="#e3457b"/><path d="M69.45,35.5V30.37a1.12,1.12,0,1,1,2.23,0V43.14c0,4.59-2.86,6.86-6.83,6.86-4.5,0-7.15-2.68-7.15-8.4s2.51-8.36,7-8.36A5.93,5.93,0,0,1,69.45,35.5Zm0,2.83a5.29,5.29,0,0,0-4.6-3.07c-3.18,0-4.92,2.06-4.92,6.34S61.64,48,64.85,48c2.68,0,4.6-1.53,4.6-4.84Z" fill="#e3457b"/><path d="M42.4,35.24a6.81,6.81,0,0,1,5.3-1.93,1.08,1.08,0,0,1,0,2.16c-3.21,0-4.84,2.23-4.84,5.43v7.81a1.12,1.12,0,1,1-2.23,0V38.84A6.06,6.06,0,0,1,42.4,35.24Z" fill="#e3457b"/><path d="M105.77,28.69a1.14,1.14,0,0,0-1.11,1.11V48.71a1.12,1.12,0,0,0,1.11,1.12,1.16,1.16,0,0,0,1.12-1.12V29.8A1.12,1.12,0,0,0,105.77,28.69Z" fill="#e3457b"/><path d="M81.28,33.24a6.6,6.6,0,0,1,5.37,2.4,1.08,1.08,0,0,1,.24.66,1,1,0,0,1-1,1,1,1,0,0,1-.83-.42,4.46,4.46,0,0,0-3.77-1.64c-3.2,0-4.91,2.06-4.91,6.34S78.08,48,81.28,48a6.36,6.36,0,0,0,4-1.5,1.08,1.08,0,0,1,.67-.24,1,1,0,0,1,1,1,1.1,1.1,0,0,1-.46.87A7.92,7.92,0,0,1,81.28,50c-4.49,0-7.18-2.68-7.18-8.4S76.79,33.24,81.28,33.24Z" fill="#e3457b"/><path d="M103,41.6c0,5.72-2.79,8.4-7.32,8.4s-7.32-2.68-7.32-8.4,2.82-8.36,7.32-8.36S103,35.89,103,41.6Zm-2.27,0c0-4.39-1.85-6.34-5-6.34s-5.06,2-5.06,6.34S92.45,48,95.66,48,100.71,46.06,100.71,41.6Z" fill="#e3457b"/><path d="M123.55,41.6c0,5.72-2.78,8.4-7.32,8.4s-7.31-2.68-7.31-8.4,2.82-8.36,7.31-8.36S123.55,35.89,123.55,41.6Zm-2.26,0c0-4.39-1.85-6.34-5.06-6.34s-5,2-5,6.34S113,48,116.23,48,121.29,46.06,121.29,41.6Z" fill="#e3457b"/><path d="M127.12,35.24a6.8,6.8,0,0,1,5.3-1.93,1.08,1.08,0,1,1,0,2.16c-3.21,0-4.85,2.23-4.85,5.43v7.81a1.12,1.12,0,1,1-2.23,0V38.84A6.11,6.11,0,0,1,127.12,35.24Z" fill="#e3457b"/><path d="M136.65,37.49c0,3.66,9.17,2.3,9.17,7.88,0,3.17-2.62,4.6-5.93,4.6a7.86,7.86,0,0,1-6-2.51,1.08,1.08,0,0,1-.24-.67,1,1,0,0,1,1-1,1.07,1.07,0,0,1,.77.35,5.89,5.89,0,0,0,4.42,1.71c2,0,3.7-.66,3.7-2.47,0-3.59-9.17-2.17-9.17-7.88,0-2.89,2.37-4.22,5.33-4.22a6.36,6.36,0,0,1,5.3,2.23,1,1,0,0,1,.24.67,1,1,0,0,1-1,1,1,1,0,0,1-.73-.32,5,5,0,0,0-3.8-1.46C138.19,35.4,136.65,35.89,136.65,37.49Z" fill="#e3457b"/></g></g></svg>