<svg xmlns="http://www.w3.org/2000/svg" viewBox="0 0 30 30"><title>z-order-m</title><g id="Camada_2" data-name="Camada 2"><g id="Capa_1" data-name="Capa 1"><path d="M15,0A15,15,0,0,0,4.61,25.81a.79.79,0,0,0,.21.28l.36.31a15,15,0,0,0,7.46,3.41l.59.08c.21,0,.43.05.64.06s.63,0,1,.05H15A15,15,0,0,0,15,0ZM27.41,15c0,.21,0,.42,0,.62A12.41,12.41,0,0,1,15,27.41H15v.78l-.05-.78h-.25l-.43,0H14l-.53-.06a2,2,0,0,1-.24,0l-.52-.08-.2,0c-.22,0-.43-.09-.65-.15l-.32-.09-.34-.1-.36-.13-.27-.1-.39-.15-.06,0c-.3-.13-.6-.27-.89-.43l-.19-.09-.39-.23a1.18,1.18,0,0,0-.19-.11l-.27-.17h0a12.64,12.64,0,0,1-2.15-1.78h0a12.41,12.41,0,0,1,9-21h0A12.4,12.4,0,0,1,27.41,15Z" fill="#e3457b"/><path d="M22.14,9h-11a1.3,1.3,0,0,0,0,2.59h11a1.3,1.3,0,1,0,0-2.59Z" fill="#e3457b"/><path d="M22.14,13.7h-11a1.3,1.3,0,0,0,0,2.6h11a1.3,1.3,0,0,0,0-2.6Z" fill="#e3457b"/><path d="M22.14,18.41h-11a1.3,1.3,0,0,0,0,2.59h11a1.3,1.3,0,1,0,0-2.59Z" fill="#e3457b"/><path d="M7.83,9a1.27,1.27,0,0,0-1.27,1.27v.06a1.27,1.27,0,0,0,2.54,0v-.06A1.27,1.27,0,0,0,7.83,9Z" fill="#e3457b"/><path d="M7.83,13.7A1.27,1.27,0,0,0,6.56,15V15A1.27,1.27,0,0,0,9.1,15V15A1.27,1.27,0,0,0,7.83,13.7Z" fill="#e3457b"/><path d="M7.83,18.41a1.26,1.26,0,0,0-1.27,1.26v.06a1.27,1.27,0,1,0,2.54,0v-.06A1.26,1.26,0,0,0,7.83,18.41Z" fill="#e3457b"/></g></g></svg>