<svg xmlns="http://www.w3.org/2000/svg" viewBox="0 0 23.86 31"><title>z-user</title><g id="Camada_2" data-name="Camada 2"><g id="Capa_1" data-name="Capa 1"><g id="z-user"><path d="M23,25a5,5,0,0,0-1.44-1.19L16.7,20.86l-.15-.1H13.92a.36.36,0,0,1-.35-.31,2.38,2.38,0,0,0,.83,1.95,5,5,0,0,0,.77.56l.11.08,4.52,2.74a14.42,14.42,0,0,1-7.61,2.12h-.52a14.48,14.48,0,0,1-7.62-2.12L8.57,23,8.69,23a4.89,4.89,0,0,0,.74-.54,2.4,2.4,0,0,0,.85-2,.34.34,0,0,1-.35.33H7.31l-.15.1L2.32,23.79A4.88,4.88,0,0,0,.87,25a1.31,1.31,0,0,0-.3,1,1.27,1.27,0,0,0,.49.88A16.87,16.87,0,0,0,11.67,30.5h.52A16.91,16.91,0,0,0,22.8,26.84,1.31,1.31,0,0,0,23,25Z" fill="#acd5d9" stroke="#9cd7d7" stroke-miterlimit="10"/><path d="M1.33,20.31a3.82,3.82,0,0,0,2.3.45h6.3a.34.34,0,0,0,.35-.33s0,0,0,0a2.24,2.24,0,0,0-2.24-2.24H3.56a22.83,22.83,0,0,0,3-9.34,8.55,8.55,0,0,1,.6-2.71,4.78,4.78,0,0,1,4.73-3,4.79,4.79,0,0,1,4.73,3,8.75,8.75,0,0,1,.6,2.66,22.86,22.86,0,0,0,3,9.39H15.8a2.24,2.24,0,0,0-2.24,2.24s0,0,0,.05a.36.36,0,0,0,.35.31h6.31a3.82,3.82,0,0,0,2.3-.45,1.18,1.18,0,0,0,.25-.19,1.78,1.78,0,0,0,.58-1.24,2,2,0,0,0-.21-1,.41.41,0,0,0,0-.09,21.93,21.93,0,0,1-3.26-9.26A10.92,10.92,0,0,0,19,5,7.36,7.36,0,0,0,11.93.5,7.36,7.36,0,0,0,4.84,5,11.23,11.23,0,0,0,4,8.59,21.81,21.81,0,0,1,.76,17.81l-.06.1a2.07,2.07,0,0,0-.2,1,1.74,1.74,0,0,0,.58,1.24A1,1,0,0,0,1.33,20.31Z" fill="#c64478" stroke="#e3457b" stroke-miterlimit="10"/></g></g></g></svg>