<svg xmlns="http://www.w3.org/2000/svg" viewBox="0 0 30 30"><title>z-user-m</title><g id="Camada_2" data-name="Camada 2"><g id="Capa_1" data-name="Capa 1"><path d="M15,.78A14.21,14.21,0,0,0,.78,15a14,14,0,0,0,4.6,10.45l0,.05.36.31a14.57,14.57,0,0,0,7.09,3.26,2.12,2.12,0,0,0,.56.05c.21,0,.42.05.63.05s.62,0,.93,0h.2A14.22,14.22,0,0,0,15,.78ZM15,28.19h-.16a3.26,3.26,0,0,1-.72-.05,13.3,13.3,0,0,1-7.29-2.85,1.91,1.91,0,0,1,.67-.46l4.71-2A2.23,2.23,0,0,0,13,21.72a.86.86,0,0,0-.05-.88.91.91,0,0,0-.77-.41H8.9a7.55,7.55,0,0,1-2-.46,1.48,1.48,0,0,0-.26-.11.22.22,0,0,0,0-.15c1.19-1.66,3.16-5,3.21-8.49,0-.2.16-4.81,4.81-4.86a4.87,4.87,0,0,1,4.71,3A8.17,8.17,0,0,1,20,11.84a18,18,0,0,0,2.74,7.82.65.65,0,0,1,0,.31.43.43,0,0,1-.15.25,2.22,2.22,0,0,1-1.25.21H18a1,1,0,0,0-.83.57,1,1,0,0,0,.26,1c.36.31.52.36.57.42l3.93,2.38a2.93,2.93,0,0,1,.88.72A12.46,12.46,0,0,1,15,28.19Zm8.69-3.26a3.94,3.94,0,0,0-1.19-1l-3.93-2.38a.19.19,0,0,1-.11-.05h2.85a3,3,0,0,0,1.91-.37,1.3,1.3,0,0,0,.62-.88,1.47,1.47,0,0,0-.15-1.13,16.49,16.49,0,0,1-2.59-7.35,7.91,7.91,0,0,0-.62-2.84,5.86,5.86,0,0,0-5.64-3.62C9.16,5.38,9,11.12,9,11.17c0,3.36-2.12,6.67-3,7.92a1,1,0,0,0-.21,1,1.31,1.31,0,0,0,.83.83,9.25,9.25,0,0,0,2.32.57H12c-.1.15-.21.36-.26.41L7,23.9H7a4.19,4.19,0,0,0-1,.72A13,13,0,0,1,1.81,15a13.19,13.19,0,1,1,21.83,9.93Z" fill="#e3457b"/><path d="M15.1,30h-.2a4.58,4.58,0,0,1-.53,0c-.27,0-.54,0-.81,0a7.18,7.18,0,0,1-.94-.09A15.22,15.22,0,0,1,5.19,26.4l-.37-.31a.78.78,0,0,1-.21-.3A15,15,0,1,1,15.1,30ZM8.19,25.36a12.52,12.52,0,0,0,5.94,2l.13,0a4,4,0,0,0,.53,0H15a11.65,11.65,0,0,0,6.55-2h0l-3.94-2.39-.08,0a5.1,5.1,0,0,1-.6-.44,1.71,1.71,0,0,1-.5-1.78l.06-.14a1.75,1.75,0,0,1,1.52-1h3.57a1.27,1.27,0,0,0,.34,0,18.42,18.42,0,0,1-2.62-7.76,6.82,6.82,0,0,0-.5-2.21,4.1,4.1,0,0,0-4-2.55c-4,0-4,3.92-4,4.09a16.16,16.16,0,0,1-2.87,8.23c.49.12,1,.18,1.1.2h3.22a1.69,1.69,0,0,1,1.44.79,1.65,1.65,0,0,1,.08,1.62,3,3,0,0,1-1.14,1.41l-.08,0Zm13-3.11,1.63,1a4.87,4.87,0,0,1,.83.6A12.19,12.19,0,0,0,27.41,15,12.41,12.41,0,0,0,2.59,15,12.16,12.16,0,0,0,6,23.58c.19-.14.38-.25.56-.36a1.06,1.06,0,0,1,.25-.09l2.08-.89H8.84a9.43,9.43,0,0,1-2.62-.63,2.07,2.07,0,0,1-1.28-1.33,1.78,1.78,0,0,1,.33-1.64c.3-.41,2.85-3.91,2.9-7.48,0-1.69,1.22-6.56,6.61-6.66a6.65,6.65,0,0,1,6.36,4.09,8.61,8.61,0,0,1,.69,3.11,15.86,15.86,0,0,0,2.47,7,2.26,2.26,0,0,1,.25,1.71,2.1,2.1,0,0,1-.95,1.36A3.89,3.89,0,0,1,21.22,22.25ZM17.4,23Z" fill="#e3457b"/></g></g></svg>