<?xml version="1.0" standalone="no"?>
<!DOCTYPE svg PUBLIC "-//W3C//DTD SVG 1.1//EN" "http://www.w3.org/Graphics/SVG/1.1/DTD/svg11.dtd" >
<svg>
<metadata>
Created by FontForge 20090622 at Tue Sep 17 15:06:00 2019
 By deploy user
Copyright &#194;&#169; 2016 by Alberto Romanos. All rights reserved.
</metadata>
<defs>
<font id="BwSurcoDEMO-BlackItalic" horiz-adv-x="0" >
  <font-face 
    font-family="Bw Surco DEMO Black"
    font-weight="900"
    font-style="italic"
    font-stretch="normal"
    units-per-em="1000"
    panose-1="0 0 10 0 0 0 0 0 0 0"
    ascent="770"
    descent="-230"
    x-height="512"
    cap-height="720"
    bbox="-719 -252 1220 1078"
    underline-thickness="50"
    underline-position="-50"
    slope="-8"
    unicode-range="U+000D-U+FB02"
  />
<missing-glyph horiz-adv-x="1274" 
d="M1214 369l-368 -372q-7 -7 -17 -7q-20 0 -20 23v324l-339 -340q-7 -7 -17 -7q-20 0 -20 23v324l-340 -340q-7 -7 -17 -7q-17 0 -17 18q0 10 5 15l342 341h-324q-23 0 -23 19q0 8 7 16l340 342h-327q-20 0 -20 19v1q0 19 20 19h370q23 0 23 -20q0 -9 -8 -17l-341 -340h330
q8 0 14 -6t6 -14v-327l339 338q9 8 17 8q18 0 18 -22v-324l340 338q8 8 16 8q7 0 12 -5.5t5 -13.5q0 -7 -6 -14z" />
    <glyph glyph-name="fi" unicode="fi" horiz-adv-x="701" 
d="M608 576q-46 0 -72.5 23.5t-26.5 64.5q0 52 30 85t85 33q46 0 72 -23.5t26 -64.5q0 -53 -29.5 -85.5t-84.5 -32.5zM692 512l-56 -399q-3 -24 -3 -36q0 -36 13 -53q-73 -34 -128 -34q-84 0 -84 84q0 9 1 18l37 272h-172l-54 -389q-12 -87 -62 -136t-128 -78l-59 140
q21 6 33 26.5t19 69.5l52 367h-65l23 148h63l13 95q12 84 67 128.5t145 44.5q77 0 132 -22l-42 -142q-18 7 -37 7q-30 0 -49 -17t-23 -43l-7 -51h371z" />
    <glyph glyph-name="fl" unicode="fl" horiz-adv-x="737" 
d="M700 154l15 -129q-60 -35 -133 -35q-75 0 -114.5 38.5t-39.5 109.5q0 12 1 23l29 203h-158l-54 -389q-12 -87 -62 -136t-128 -78l-59 140q21 6 33 26.5t19 69.5l52 367h-65l23 148h63l13 95q12 84 67 128.5t145 44.5q68 0 123 -25l-42 -141q-14 9 -40 9
q-25 0 -40.5 -16.5t-19.5 -43.5l-7 -51h158l34 240q75 28 120 28q70 0 70 -66q0 -5 -1 -13l-71 -518q-1 -8 -1 -13q0 -23 29 -23q25 0 41 7z" />
    <glyph glyph-name="f_f" unicode="ff" horiz-adv-x="745" 
d="M742 623q-28 0 -48 -17t-24 -43l-7 -51h108l-23 -148h-106l-54 -389q-12 -87 -62 -136t-128 -78l-59 140q21 6 33 26.5t19 69.5l52 367h-143l-54 -389q-12 -87 -62 -136t-128 -78l-59 140q21 6 33 26.5t19 69.5l52 367h-65l23 148h63l13 95q12 84 67 128.5t145 44.5
q68 0 123 -25l-42 -141q-14 9 -40 9q-25 0 -40.5 -16.5t-19.5 -43.5l-7 -51h143l13 95q12 84 67 128.5t145 44.5q88 0 154 -34l-41 -141q-27 18 -60 18z" />
    <glyph glyph-name="f_f_i" unicode="ffi" horiz-adv-x="1043" 
d="M950 576q-46 0 -72.5 23.5t-26.5 64.5q0 52 30 85t85 33q46 0 72 -23.5t26 -64.5q0 -53 -29.5 -85.5t-84.5 -32.5zM1034 512l-56 -399q-3 -24 -3 -36q0 -36 13 -53q-73 -34 -128 -34q-84 0 -84 84q0 9 1 18l37 272h-171l-55 -389q-12 -87 -61.5 -136t-127.5 -78l-60 140
q21 7 33.5 27t19.5 69l51 367h-143l-54 -389q-12 -87 -62 -136t-128 -78l-59 140q21 6 33 26.5t19 69.5l52 367h-65l23 148h63l13 95q12 84 67 128.5t145 44.5q68 0 123 -25l-42 -141q-14 9 -40 9q-25 0 -40.5 -16.5t-19.5 -43.5l-7 -51h143l13 95q12 84 67 128.5t145 44.5
q77 0 132 -22l-41 -142q-18 7 -38 7q-27 0 -47 -17t-24 -43l-7 -51h370z" />
    <glyph glyph-name="f_f_l" unicode="ffl" horiz-adv-x="1079" 
d="M1042 154l15 -129q-60 -35 -133 -35q-75 0 -114.5 38.5t-39.5 109.5q0 12 1 23l29 203h-158l-54 -389q-12 -87 -62 -136t-128 -78l-59 140q21 6 33 26.5t19 69.5l52 367h-143l-54 -389q-12 -87 -62 -136t-128 -78l-59 140q21 6 33 26.5t19 69.5l52 367h-65l23 148h63
l13 95q12 84 67 128.5t145 44.5q68 0 123 -25l-42 -141q-14 9 -40 9q-25 0 -40.5 -16.5t-19.5 -43.5l-7 -51h143l13 95q12 84 67 128.5t145 44.5q68 0 123 -25l-42 -141q-14 9 -40 9q-25 0 -40.5 -16.5t-19.5 -43.5l-7 -51h158l34 240q75 28 120 28q70 0 70 -66q0 -5 -1 -13
l-71 -518q-1 -8 -1 -13q0 -23 29 -23q25 0 41 7z" />
    <glyph glyph-name=".notdef" horiz-adv-x="1274" 
d="M1214 369l-368 -372q-7 -7 -17 -7q-20 0 -20 23v324l-339 -340q-7 -7 -17 -7q-20 0 -20 23v324l-340 -340q-7 -7 -17 -7q-17 0 -17 18q0 10 5 15l342 341h-324q-23 0 -23 19q0 8 7 16l340 342h-327q-20 0 -20 19v1q0 19 20 19h370q23 0 23 -20q0 -9 -8 -17l-341 -340h330
q8 0 14 -6t6 -14v-327l339 338q9 8 17 8q18 0 18 -22v-324l340 338q8 8 16 8q7 0 12 -5.5t5 -13.5q0 -7 -6 -14z" />
    <glyph glyph-name=".null" 
 />
    <glyph glyph-name="nonmarkingreturn" horiz-adv-x="333" 
 />
    <glyph glyph-name="CR" unicode="&#xd;" horiz-adv-x="179" 
 />
    <glyph glyph-name="space" unicode=" " horiz-adv-x="179" 
 />
    <glyph glyph-name="exclam" unicode="!" horiz-adv-x="305" 
d="M254 277l64 443h-203l-57 -443h196zM123 -10q-51 0 -78.5 26.5t-27.5 72.5q0 58 32.5 92t90.5 34q50 0 78.5 -26.5t28.5 -72.5q0 -58 -33 -92t-91 -34z" />
    <glyph glyph-name="quotedbl" unicode="&#x22;" horiz-adv-x="469" 
d="M105 770h179l-59 -272h-141zM330 770h179l-59 -272h-141z" />
    <glyph glyph-name="numbersign" unicode="#" horiz-adv-x="703" 
d="M670 356h-66l-23 -94h73l-41 -148h-68l-28 -114h-189l27 114h-86l-27 -114h-189l28 114h-73l40 148h69l22 94h-74l38 148h72l29 118h192l-28 -118h84l28 118h189l-29 -118h70zM300 257h91l25 103h-89z" />
    <glyph glyph-name="dollar" unicode="$" horiz-adv-x="502" 
d="M467 215q0 -99 -64 -159.5t-167 -65.5l-14 -100h-40l14 101q-121 8 -198 72l56 108q74 -49 160 -53l18 126q-99 44 -134.5 83t-35.5 98q0 92 62 147.5t163 59.5l12 88h40l-13 -89q106 -8 178 -71l-69 -89q-65 32 -126 36l-15 -107q95 -45 134 -86t39 -99zM223 458
q0 -30 32 -47l14 96q-22 -5 -34 -18.5t-12 -30.5zM255 119q51 12 51 64q0 19 -7.5 29t-28.5 18z" />
    <glyph glyph-name="percent" unicode="%" horiz-adv-x="702" 
d="M189 311q-64 0 -99.5 35.5t-35.5 101.5q0 79 43.5 131.5t119.5 52.5q64 0 99 -35t35 -99q0 -83 -42.5 -135t-119.5 -52zM88 54l446 578l96 -63l-449 -579zM194 413q16 0 24.5 26t8.5 55q0 35 -18 35q-12 0 -22 -25t-10 -54q0 -37 17 -37zM501 -10q-64 0 -99.5 35.5
t-35.5 100.5q0 80 43.5 132.5t119.5 52.5q64 0 99 -35.5t35 -98.5q0 -83 -42.5 -135t-119.5 -52zM507 92q16 0 24.5 25.5t8.5 55.5q0 34 -18 34q-12 0 -22 -25t-10 -54q0 -36 17 -36z" />
    <glyph glyph-name="ampersand" unicode="&#x26;" horiz-adv-x="701" 
d="M682 397q-46 -137 -123 -232l112 -124q-21 -21 -61.5 -36t-73.5 -15q-37 0 -74 12t-57 35q-91 -47 -195 -47q-93 0 -144 44t-51 123q0 127 128 251q-19 48 -19 93q0 109 76 169t197 60q52 0 112 -22.5t114 -65.5l-87 -129q-64 55 -117 55q-34 0 -58 -20t-24 -52
q0 -61 131 -222q36 65 65 167zM200 183q0 -27 16.5 -42t47.5 -15q26 0 57 14l-92 121q-29 -37 -29 -78z" />
    <glyph glyph-name="quotesingle" unicode="'" horiz-adv-x="244" 
d="M105 770h179l-59 -272h-141z" />
    <glyph glyph-name="parenleft" unicode="(" horiz-adv-x="351" 
d="M276 -159q-40 113 -40 270t42.5 327t115.5 283l-149 59q-104 -129 -165 -307t-61 -353q0 -208 78 -360z" />
    <glyph glyph-name="parenright" unicode=")" horiz-adv-x="351" 
d="M79 699q40 -113 40 -270t-42.5 -327t-115.5 -283l149 -59q104 129 165 307t61 353q0 208 -78 360z" />
    <glyph glyph-name="asterisk" unicode="*" horiz-adv-x="365" 
d="M388 606l-86 -18l46 -68l-103 -68l-26 74l-51 -77l-82 67l69 66l-79 19l50 110l68 -37l2 96h114l-24 -94l83 38z" />
    <glyph glyph-name="plus" unicode="+" horiz-adv-x="473" 
d="M454 326l-20 -148h-110l-22 -151h-197l21 151h-109l20 148h109l21 151h200l-22 -151h109z" />
    <glyph glyph-name="comma" unicode="," horiz-adv-x="288" 
d="M131 215q50 0 77 -35t27 -96q0 -98 -60 -161t-158 -80l-23 48q123 25 157 113q-38 -14 -66 -14q-78 0 -78 92q0 62 34 97.5t90 35.5z" />
    <glyph glyph-name="hyphen" unicode="-" horiz-adv-x="419" 
d="M57 343h330l-24 -166h-331z" />
    <glyph glyph-name="period" unicode="." horiz-adv-x="285" 
d="M113 -10q-51 0 -78.5 26.5t-27.5 72.5q0 58 32.5 92t90.5 34q50 0 78.5 -26.5t28.5 -72.5q0 -58 -33 -92t-91 -34z" />
    <glyph glyph-name="slash" unicode="/" horiz-adv-x="397" 
d="M318 780l121 -48l-339 -852l-121 48z" />
    <glyph glyph-name="zero" unicode="0" horiz-adv-x="600" 
d="M271 -10q-115 0 -176 67t-61 190q0 168 82 276.5t229 108.5q114 0 175.5 -66t61.5 -185q0 -169 -82.5 -280t-228.5 -111zM285 147q42 0 68.5 75.5t26.5 159.5q0 45 -12.5 69.5t-34.5 24.5q-25 0 -44.5 -23.5t-30.5 -60.5t-16.5 -77t-5.5 -77q0 -91 49 -91z" />
    <glyph glyph-name="one" unicode="1" horiz-adv-x="425" 
d="M427 622l-91 -622h-200l55 403l-104 -52l-58 153l235 118h163z" />
    <glyph glyph-name="two" unicode="2" horiz-adv-x="552" 
d="M323 210q-85 -47 -101 -62h287l-23 -148h-496l15 106q9 68 61.5 118t136.5 98q4 3 19 11t20.5 11.5l18.5 11.5t18.5 12.5t15.5 12t14.5 13l10 12.5t7.5 14.5t2 14.5q0 41 -50 41q-57 0 -140 -62l-62 136q122 82 242 82q101 0 157 -48t56 -133q0 -35 -11.5 -65.5
t-27.5 -52t-47 -45.5t-55.5 -39t-67.5 -39z" />
    <glyph glyph-name="three" unicode="3" horiz-adv-x="534" 
d="M528 622l-17 -120l-154 -176q67 -31 98.5 -83t31.5 -110q0 -119 -83.5 -186t-219.5 -67q-110 0 -219 66l88 127q65 -36 139 -36q42 0 67.5 23.5t25.5 60.5q0 93 -194 127l184 226h-198l23 148h428z" />
    <glyph glyph-name="four" unicode="4" horiz-adv-x="590" 
d="M564 148l-20 -148h-86l-16 -110h-200l17 110h-276l18 133l296 499l176 -50l-271 -434h86l17 90l198 81l-24 -171h85z" />
    <glyph glyph-name="five" unicode="5" horiz-adv-x="563" 
d="M529 474h-212l-32 -109l38 -4q98 -11 151 -62t53 -136q0 -130 -84.5 -206.5t-222.5 -76.5q-66 0 -136.5 23t-117.5 63l89 126q71 -55 160 -55q51 0 82 29.5t31 74.5q0 32 -19.5 51t-55.5 21l-209 11l105 398h403z" />
    <glyph glyph-name="six" unicode="6" horiz-adv-x="580" 
d="M373 475q87 0 132.5 -52t45.5 -145q0 -136 -78 -212t-212 -76q-109 0 -166 72t-57 204q0 130 39 233t122.5 167t200.5 64q102 0 202 -62l-72 -131q-43 36 -107 36q-125 0 -168 -131q53 33 118 33zM276 147q35 0 53 36.5t18 83.5q0 73 -45 73q-33 0 -69 -24q-2 -38 -2 -56
q0 -59 9 -86t36 -27z" />
    <glyph glyph-name="seven" unicode="7" horiz-adv-x="512" 
d="M546 622l-17 -122l-333 -639l-182 60l289 553h-255l23 148h475z" />
    <glyph glyph-name="eight" unicode="8" horiz-adv-x="590" 
d="M493 375q64 -52 64 -142q0 -116 -80 -179.5t-211 -63.5q-117 0 -181.5 50t-64.5 140q0 138 113 204q-47 45 -47 120q0 106 74 166t193 60q108 0 167 -47t59 -133q0 -114 -86 -175zM341 573q-23 0 -40.5 -22.5t-17.5 -54.5q0 -54 37 -54q26 0 42.5 25t16.5 52q0 54 -38 54
zM281 147q36 0 57 30t21 65q0 32 -14.5 49.5t-38.5 17.5q-37 0 -59 -32.5t-22 -69.5q0 -28 15 -44t41 -16z" />
    <glyph glyph-name="nine" unicode="9" horiz-adv-x="579" 
d="M335 632q109 0 165 -73.5t56 -209.5q0 -132 -38.5 -236t-122 -168.5t-201.5 -64.5q-103 0 -202 62l71 131q43 -36 117 -36q117 0 160 132q-54 -34 -120 -34q-85 0 -131 53t-46 147q0 138 78.5 217.5t213.5 79.5zM292 270q32 0 70 26q2 40 2 61q0 61 -9.5 90t-34.5 29
q-36 0 -54 -39.5t-18 -88.5q0 -78 44 -78z" />
    <glyph glyph-name="colon" unicode=":" horiz-adv-x="302" 
d="M164 297q-51 0 -78.5 26.5t-27.5 72.5q0 58 32.5 92t90.5 34q50 0 78.5 -26.5t28.5 -72.5q0 -58 -33 -92t-91 -34zM120 -10q-51 0 -78.5 26.5t-27.5 72.5q0 58 32.5 92t90.5 34q50 0 78.5 -26.5t28.5 -72.5q0 -58 -33 -92t-91 -34z" />
    <glyph glyph-name="semicolon" unicode=";" horiz-adv-x="303" 
d="M164 297q-51 0 -78.5 26.5t-27.5 72.5q0 58 32.5 92t90.5 34q50 0 78.5 -26.5t28.5 -72.5q0 -58 -33 -92t-91 -34zM137 215q50 0 77 -35t27 -96q0 -98 -60 -161t-158 -80l-23 48q123 25 157 113q-38 -14 -66 -14q-78 0 -78 92q0 62 34 97.5t90 35.5z" />
    <glyph glyph-name="less" unicode="&#x3c;" horiz-adv-x="486" 
d="M477 498l-23 -157l-253 -88l227 -88l-23 -157l-389 177l7 48l11 87z" />
    <glyph glyph-name="equal" unicode="=" horiz-adv-x="514" 
d="M72 431h417l-21 -148h-417zM44 221h417l-21 -148h-417z" />
    <glyph glyph-name="greater" unicode="&#x3e;" horiz-adv-x="488" 
d="M471 320l-12 -92h-1l-6 -43l-443 -177l23 157l255 88l-231 88l23 157z" />
    <glyph glyph-name="question" unicode="?" horiz-adv-x="511" 
d="M77 648q55 41 115.5 61.5t106.5 20.5q106 0 165 -47.5t59 -129.5q0 -49 -18 -89t-44 -65.5t-69 -55.5q-36 -25 -54 -41t-19 -30l-191 11q13 97 115 172q62 45 62 78q0 35 -40 35q-49 0 -130 -61zM190 -10q-51 0 -78.5 26.5t-27.5 72.5q0 58 32.5 92t90.5 34
q50 0 78.5 -26.5t28.5 -72.5q0 -58 -33 -92t-91 -34z" />
    <glyph glyph-name="at" unicode="@" horiz-adv-x="1036" 
d="M759 466l-28 -201q-1 -8 -1 -14q0 -48 28 -48q33 0 51.5 61t18.5 123q0 118 -66 182t-186 64q-164 0 -262 -128.5t-98 -324.5q0 -130 64.5 -201.5t182.5 -71.5q134 0 269 64l52 -141q-62 -32 -155 -51t-174 -19q-206 0 -318 108.5t-112 304.5q0 276 150.5 441.5
t405.5 165.5q209 0 323.5 -101t114.5 -284q0 -157 -68 -248t-198 -91q-135 0 -182 91q-24 -43 -67 -67t-86 -24q-63 0 -97.5 43.5t-34.5 120.5q0 124 72 194.5t197 70.5q106 0 204 -19zM493 203q22 0 39.5 24t22.5 60l7 51h-13q-33 0 -58.5 -27t-25.5 -70q0 -38 28 -38z" />
    <glyph glyph-name="A" unicode="A" horiz-adv-x="667" 
d="M429 0l-22 134h-206l-54 -134h-196l336 705q50 25 106 25q107 0 130 -117l122 -613h-216zM264 292h118l-30 231z" />
    <glyph glyph-name="B" unicode="B" horiz-adv-x="641" 
d="M525 376q87 -46 87 -145q0 -113 -95.5 -177t-244.5 -64q-125 0 -250 10l101 720q143 10 255 10q120 0 185 -43t65 -123q0 -122 -103 -188zM404 524q0 48 -56 48q-22 0 -36 -1l-18 -125h24q43 0 64.5 20.5t21.5 57.5zM300 148q42 0 66.5 22.5t24.5 54.5q0 29 -15 46
t-42 17h-62l-20 -139q18 -1 48 -1z" />
    <glyph glyph-name="C" unicode="C" horiz-adv-x="613" 
d="M587 79q-50 -41 -120.5 -65t-142.5 -24q-137 0 -210.5 83.5t-73.5 221.5q0 118 40.5 216t121 158.5t186.5 60.5q186 0 245 -167l-198 -64q-10 35 -24.5 52t-37.5 17q-53 0 -85.5 -88t-32.5 -183q0 -74 27 -109.5t67 -35.5q77 0 174 74z" />
    <glyph glyph-name="D" unicode="D" horiz-adv-x="681" 
d="M335 730q161 0 248.5 -80t87.5 -226q0 -198 -114 -316t-309 -118q-145 0 -227 10l101 720q85 10 213 10zM266 148q91 0 141.5 80t50.5 192q0 73 -33 112.5t-96 39.5q-12 0 -19 -1l-59 -423h15z" />
    <glyph glyph-name="E" unicode="E" horiz-adv-x="570" 
d="M569 562h-259l-16 -116h228l-24 -158h-227l-18 -130h272l-24 -158h-479l101 720h470z" />
    <glyph glyph-name="F" unicode="F" horiz-adv-x="529" 
d="M545 562h-235l-22 -158h190l-24 -157h-188l-35 -247h-209l101 720h447z" />
    <glyph glyph-name="G" unicode="G" horiz-adv-x="685" 
d="M620 113q-3 -24 -3 -36q0 -34 10 -53q-73 -34 -128 -34q-85 0 -85 84q0 9 1 19q-64 -103 -164 -103q-105 0 -159 76.5t-54 205.5q0 194 96.5 326t262.5 132q186 0 246 -167l-199 -64q-12 36 -27 52.5t-40 16.5q-30 0 -55 -29.5t-39.5 -74t-22 -91t-7.5 -87.5
q0 -134 72 -134q39 0 65.5 26.5t41.5 94.5h-79l22 158h288z" />
    <glyph glyph-name="H" unicode="H" horiz-adv-x="720" 
d="M630 730q42 0 65 -21t23 -60q0 -8 -1 -16l-90 -633h-206l42 285h-197l-40 -285h-207l102 699q62 31 108 31q42 0 64.5 -21t22.5 -60q0 -8 -1 -16l-27 -190h198l37 256q60 31 107 31z" />
    <glyph glyph-name="I" unicode="I" horiz-adv-x="318" 
d="M225 0h-206l102 699q60 31 107 31q42 0 65 -21t23 -60q0 -8 -1 -16z" />
    <glyph glyph-name="J" unicode="J" horiz-adv-x="413" 
d="M147 211q-9 -59 -63 -59q-38 0 -56 15l-55 -148q58 -29 139 -29q97 0 161 52.5t77 141.5l64 449q1 8 1 14q0 38 -23.5 60.5t-65.5 22.5q-46 0 -110 -31z" />
    <glyph glyph-name="K" unicode="K" horiz-adv-x="658" 
d="M316 649q0 -8 -1 -16l-90 -633h-206l102 699q60 31 107 31q42 0 65 -21t23 -60zM669 698l-179 -288l151 -384q-50 -36 -122 -36q-64 0 -95 16t-42 49l-103 309l208 366z" />
    <glyph glyph-name="L" unicode="L" horiz-adv-x="531" 
d="M248 164h260l-24 -164h-465l102 699q60 31 107 31q42 0 65 -21t23 -60q0 -8 -1 -16z" />
    <glyph glyph-name="M" unicode="M" horiz-adv-x="893" 
d="M737 730q59 0 83.5 -26t23.5 -93l-11 -611h-213l24 370l-148 -370h-184l-58 360l-73 -360h-188l168 705q48 25 99 25q118 0 131 -86l66 -428l184 488q48 26 96 26z" />
    <glyph glyph-name="N" unicode="N" horiz-adv-x="724" 
d="M534 720h198l-101 -720h-163l-203 362l-47 -362h-197l100 699q42 31 96 31q67 0 102 -64l171 -309z" />
    <glyph glyph-name="O" unicode="O" horiz-adv-x="745" 
d="M344 -10q-145 0 -225 78t-80 219q0 197 104.5 320t287.5 123q145 0 224.5 -78.5t79.5 -221.5q0 -195 -104.5 -317.5t-286.5 -122.5zM364 152q51 0 87.5 43t52 103t15.5 127q0 69 -26.5 106t-77.5 37q-75 0 -117 -83t-42 -188q0 -70 28 -107.5t80 -37.5z" />
    <glyph glyph-name="P" unicode="P" horiz-adv-x="620" 
d="M392 730q120 0 185 -49t65 -141q0 -131 -93 -209.5t-241 -78.5q-27 0 -43 1l-35 -253h-209l101 720q105 10 270 10zM328 410q46 0 69 29.5t23 74.5q0 27 -15.5 42.5t-44.5 15.5q-30 0 -50 -1l-22 -161h40z" />
    <glyph glyph-name="Q" unicode="Q" horiz-adv-x="745" 
d="M735 430q0 -162 -74 -276.5t-207 -149.5q6 -46 46.5 -68t101.5 -22l-107 -136q-91 5 -152.5 55t-83.5 131l-10 36q-101 23 -155.5 97t-54.5 190q0 197 104.5 320t287.5 123q145 0 224.5 -78.5t79.5 -221.5zM364 152q51 0 87.5 43t52 103t15.5 127q0 69 -26.5 106
t-77.5 37q-75 0 -117 -83t-42 -188q0 -70 28 -107.5t80 -37.5z" />
    <glyph glyph-name="R" unicode="R" horiz-adv-x="653" 
d="M526 345q75 -44 75 -137q0 -19 -2 -36l-8 -59q-4 -32 -4 -36q0 -33 11 -53q-78 -34 -133 -34q-42 0 -64.5 22t-22.5 62q0 9 1 18l8 60q2 12 2 21q0 39 -20.5 62t-50.5 23h-50l-37 -258h-209l101 720q100 10 261 10q124 0 191.5 -46t67.5 -131q0 -137 -117 -208zM421 516
q0 56 -62 56q-28 0 -47 -1l-22 -155h24q53 0 80 28t27 72z" />
    <glyph glyph-name="S" unicode="S" horiz-adv-x="570" 
d="M349 730q131 0 228 -76l-103 -131q-49 45 -119 45q-27 0 -46 -12t-19 -29q0 -20 20.5 -34.5t61.5 -29.5q34 -13 60.5 -27.5t54 -39t42.5 -62t15 -85.5q0 -120 -86.5 -189.5t-226.5 -69.5q-142 0 -234 84l68 137q61 -59 173 -59q88 0 88 51q0 16 -11.5 29t-25 20t-39.5 17
q-27 11 -47.5 20.5t-46 28.5t-42 41t-28 56.5t-11.5 76.5q0 112 72.5 175t201.5 63z" />
    <glyph glyph-name="T" unicode="T" horiz-adv-x="544" 
d="M592 720l-24 -158h-150l-79 -562h-209l79 562h-149l24 158h508z" />
    <glyph glyph-name="U" unicode="U" horiz-adv-x="686" 
d="M446 291l61 408q52 31 101 31q38 0 59 -21.5t21 -59.5q0 -8 -1 -16l-49 -369q-17 -132 -101.5 -203t-224.5 -71q-127 0 -195.5 62t-68.5 174q0 32 3 49l65 424q60 31 110 31q41 0 63 -21.5t22 -61.5q0 -7 -1 -14l-48 -353q-4 -32 -4 -39q0 -89 73 -89q94 0 115 139z" />
    <glyph glyph-name="V" unicode="V" horiz-adv-x="673" 
d="M550 730l186 -32l-328 -698h-209l-144 701q41 29 104 29q58 0 88.5 -22t43.5 -83l36 -168l29 -215l78 214z" />
    <glyph glyph-name="W" unicode="W" horiz-adv-x="944" 
d="M818 730l185 -32l-277 -698h-215l-7 284l2 246l-65 -246l-82 -284h-205l-96 701q40 29 101 29q63 0 95 -21.5t36 -83.5l18 -259l3 -179l47 193l89 321q43 29 110 29q51 0 85 -34t32 -82l-8 -274l-1 -149l47 163z" />
    <glyph glyph-name="X" unicode="X" horiz-adv-x="651" 
d="M297 204l-133 -204h-210l267 373l-141 328q41 29 108 29t100 -16.5t50 -57.5l45 -105l112 179l201 -32l-232 -325l161 -354q-44 -29 -105 -29q-79 0 -115.5 18t-51.5 56z" />
    <glyph glyph-name="Y" unicode="Y" horiz-adv-x="613" 
d="M677 698l-259 -408l-42 -290h-209l41 279l-149 422q43 29 114 29q118 0 138 -74l24 -92l20 -113l56 124l73 155z" />
    <glyph glyph-name="Z" unicode="Z" horiz-adv-x="584" 
d="M539 496l-198 -251l-80 -87h277l-24 -158h-528l19 133l257 309l103 120h-279l24 158h489q13 -34 13 -66q0 -66 -73 -158z" />
    <glyph glyph-name="bracketleft" unicode="[" horiz-adv-x="382" 
d="M403 612h-94l-94 -684h96l-24 -158h-303l139 1000h303z" />
    <glyph glyph-name="backslash" unicode="\" horiz-adv-x="399" 
d="M222 780l106 -881l-130 -19l-107 881z" />
    <glyph glyph-name="bracketright" unicode="]" horiz-adv-x="382" 
d="M402 770l-139 -1000h-303l23 158h94l94 684h-96l24 158h303z" />
    <glyph glyph-name="asciicircum" unicode="^" horiz-adv-x="473" 
d="M462 353h-156l-24 189l-76 -189h-165l183 367h159z" />
    <glyph glyph-name="underscore" unicode="_" horiz-adv-x="605" 
d="M1 -9h531l-16 -101h-531z" />
    <glyph glyph-name="grave" unicode="`" horiz-adv-x="274" 
d="M133 820l212 -166l-39 -92l-246 103z" />
    <glyph glyph-name="a" unicode="a" horiz-adv-x="572" 
d="M506 113q-3 -24 -3 -36q0 -36 13 -53q-73 -34 -129 -34q-33 0 -55 23t-22 63v5q-30 -50 -64.5 -70.5t-82.5 -20.5q-53 0 -100 45.5t-47 128.5q0 157 87.5 257.5t237.5 100.5q106 0 224 -10zM264 146q26 0 43 43.5t37 167.5l3 19h-24q-47 0 -72.5 -47.5t-25.5 -112.5
q0 -70 39 -70z" />
    <glyph glyph-name="b" unicode="b" horiz-adv-x="571" 
d="M408 522q53 0 100 -45.5t47 -128.5q0 -157 -87.5 -257.5t-237.5 -100.5q-106 0 -224 10l109 752q75 28 120 28q69 0 69 -66q0 -5 -1 -13l-37 -262q29 45 62.5 64t79.5 19zM248 136q47 0 72.5 47.5t25.5 112.5q0 70 -39 70q-26 0 -44 -44t-38 -167l-3 -19h26z" />
    <glyph glyph-name="c" unicode="c" horiz-adv-x="481" 
d="M447 46q-81 -56 -195 -56q-111 0 -170.5 59t-59.5 164q0 133 77 221t193 88q26 0 52.5 -7t54.5 -24t47.5 -52t23.5 -84l-147 -46q0 29 -7 43t-26 14q-22 0 -38 -25t-22.5 -56.5t-6.5 -63.5q0 -36 18 -55t50 -19q60 0 110 42z" />
    <glyph glyph-name="d" unicode="d" horiz-adv-x="574" 
d="M595 701l-87 -588q-3 -24 -3 -36q0 -36 13 -53q-73 -34 -129 -34q-33 0 -55 23t-22 63v9q-31 -52 -65.5 -73.5t-83.5 -21.5q-53 0 -100 45.5t-47 128.5q0 157 87.5 257.5t237.5 100.5h28l34 230q75 28 122 28q34 0 52.5 -17.5t18.5 -48.5q0 -5 -1 -13zM264 146
q26 0 44 44t38 167l3 19h-26q-47 0 -72.5 -47.5t-25.5 -112.5q0 -70 39 -70z" />
    <glyph glyph-name="e" unicode="e" horiz-adv-x="512" 
d="M273 138q67 0 129 39l59 -127q-96 -60 -212 -60q-110 0 -169 56.5t-59 159.5q0 140 79 228t214 88q90 0 138 -40.5t48 -112.5q0 -98 -73.5 -142t-190.5 -44q-19 0 -29 1q3 -24 18 -35t48 -11zM282 370q-49 0 -67 -81h14q32 0 55.5 14t23.5 41q0 26 -26 26z" />
    <glyph glyph-name="f" unicode="f" horiz-adv-x="403" 
d="M400 623q-28 0 -48 -17t-24 -43l-7 -51h108l-23 -148h-106l-54 -389q-12 -87 -62 -136t-128 -78l-59 140q21 6 33 26.5t19 69.5l52 367h-65l23 148h63l13 95q12 84 67 128.5t145 44.5q88 0 154 -34l-41 -141q-27 18 -60 18z" />
    <glyph glyph-name="g" unicode="g" horiz-adv-x="574" 
d="M341 522q106 0 226 -10l-75 -530q-15 -104 -89 -163t-191 -59q-128 0 -224 60l107 130q62 -42 120 -42q45 0 58 20t21 76l9 66q-28 -44 -61 -62t-79 -18q-53 0 -100 45.5t-47 128.5q0 157 87.5 257.5t237.5 100.5zM264 146q26 0 43 43.5t37 167.5l3 19h-24
q-47 0 -72.5 -47.5t-25.5 -112.5q0 -70 39 -70z" />
    <glyph glyph-name="h" unicode="h" horiz-adv-x="575" 
d="M543 332l-32 -219q-3 -24 -3 -36q0 -34 13 -53q-73 -34 -127 -34q-84 0 -84 84q0 9 1 18l31 202q3 20 3 31q0 41 -30 41q-35 0 -55.5 -57.5t-41.5 -208.5l-14 -100h-198l109 752q75 28 120 28q69 0 69 -66q0 -5 -1 -13l-39 -278q33 55 70 77t84 22q62 0 95.5 -38
t33.5 -107q0 -17 -4 -45z" />
    <glyph glyph-name="i" unicode="i" horiz-adv-x="286" 
d="M193 576q-46 0 -72.5 23.5t-26.5 64.5q0 52 30 85t85 33q46 0 72 -23.5t26 -64.5q0 -53 -29.5 -85.5t-84.5 -32.5zM277 512l-56 -399q-3 -24 -3 -36q0 -36 13 -53q-73 -34 -128 -34q-84 0 -84 84q0 9 1 18l57 420h200z" />
    <glyph glyph-name="j" unicode="j" horiz-adv-x="287" 
d="M195 576q-46 0 -72.5 23.5t-26.5 64.5q0 52 30 85t85 33q46 0 72 -23.5t26 -64.5q0 -53 -29.5 -85.5t-84.5 -32.5zM13 -239q167 61 189 214l79 537h-202l-72 -515q-12 -83 -54 -96z" />
    <glyph glyph-name="k" unicode="k" horiz-adv-x="595" 
d="M304 714q0 -5 -1 -13l-99 -701h-198l109 752q75 28 120 28q69 0 69 -66zM593 494l-145 -201l131 -278q-55 -25 -126 -25q-98 0 -122 62l-84 217l165 253z" />
    <glyph glyph-name="l" unicode="l" horiz-adv-x="334" 
d="M179 -10q-75 0 -114.5 38.5t-39.5 109.5q0 12 1 23l84 591q75 28 120 28q70 0 70 -66q0 -5 -1 -13l-71 -518q-1 -8 -1 -13q0 -23 29 -23q25 0 41 7l15 -129q-60 -35 -133 -35z" />
    <glyph glyph-name="m" unicode="m" horiz-adv-x="798" 
d="M765 321l-33 -208q-3 -24 -3 -36q0 -36 13 -53q-73 -34 -128 -34q-84 0 -84 84q0 9 1 18l29 206q3 24 3 42q0 26 -14 26q-22 0 -33 -42.5t-33 -185.5l-6 -38l-15 -100h-197l41 298q3 24 3 39q0 29 -12 29q-24 0 -37 -48.5t-35 -194.5l-3 -23l-15 -100h-200l70 498
q59 24 105 24q39 0 58.5 -26.5t19.5 -68.5v-8q31 58 64.5 80.5t77.5 22.5q81 0 104 -84q32 48 66.5 66t82.5 18q55 0 84.5 -40t29.5 -113q0 -23 -4 -48z" />
    <glyph glyph-name="n" unicode="n" horiz-adv-x="578" 
d="M546 332l-31 -219q-4 -28 -4 -36q0 -34 13 -53q-73 -34 -127 -34q-84 0 -84 84q0 9 1 18l31 202q3 20 3 31q0 41 -30 41q-34 0 -53.5 -56t-42.5 -210l-15 -100h-200l70 498q59 24 105 24q39 0 58.5 -26.5t19.5 -68.5v-17q35 63 73 87.5t88 24.5q62 0 95.5 -38t33.5 -107
q0 -17 -4 -45z" />
    <glyph glyph-name="o" unicode="o" horiz-adv-x="576" 
d="M259 -10q-115 0 -176 58.5t-61 163.5q0 143 79 226.5t219 83.5q113 0 173.5 -59t60.5 -166q0 -142 -78.5 -224.5t-216.5 -82.5zM277 147q36 0 56.5 45t20.5 101q0 73 -56 73q-36 0 -56 -46t-20 -100q0 -73 55 -73z" />
    <glyph glyph-name="p" unicode="p" horiz-adv-x="571" 
d="M408 522q53 0 100 -45.5t47 -128.5q0 -157 -87.5 -257.5t-237.5 -100.5h-26l-30 -220h-200l102 724q77 28 123 28q29 0 44.5 -21t15.5 -58v-16q31 52 65.5 73.5t83.5 21.5zM248 136q47 0 72.5 47.5t25.5 112.5q0 70 -39 70q-26 0 -43.5 -44t-37.5 -167l-3 -19h25z" />
    <glyph glyph-name="q" unicode="q" horiz-adv-x="570" 
d="M341 522q104 0 221 -10l-103 -742h-200l41 296q-28 -41 -60.5 -58.5t-76.5 -17.5q-53 0 -100 45.5t-47 128.5q0 157 87.5 257.5t237.5 100.5zM264 146q25 0 41.5 43.5t36.5 167.5l3 19h-22q-47 0 -72.5 -47.5t-25.5 -112.5q0 -70 39 -70z" />
    <glyph glyph-name="r" unicode="r" horiz-adv-x="406" 
d="M370 522q41 0 77 -19l-76 -170q-20 16 -50 16q-40 0 -59 -54t-42 -211l-12 -84h-200l68 498q57 24 105 24q38 0 57.5 -25t20.5 -66q24 50 50.5 70.5t60.5 20.5z" />
    <glyph glyph-name="s" unicode="s" horiz-adv-x="472" 
d="M270 522q122 0 202 -72l-80 -100q-60 36 -114 36q-17 0 -29 -6t-12 -17q0 -14 43 -30q37 -14 58 -23.5t48 -28t39.5 -43.5t12.5 -59q0 -90 -67 -139.5t-169 -49.5q-130 0 -211 73l62 117q34 -27 76.5 -39t68.5 -12q43 0 43 23q0 20 -58 39q-28 9 -49 19t-43.5 26.5
t-34.5 40.5t-12 55q0 89 62.5 139.5t163.5 50.5z" />
    <glyph glyph-name="t" unicode="t" horiz-adv-x="422" 
d="M292 364l-21 -168q-1 -7 -1 -14q0 -35 33 -35q39 0 69 17l12 -144q-69 -30 -146 -30q-83 0 -128 39.5t-45 111.5q0 15 3 33l25 190h-64l21 148h71l15 109q66 26 108 26q37 0 57 -21.5t20 -56.5q0 -5 -1 -12l-6 -45h116l-20 -148h-118z" />
    <glyph glyph-name="u" unicode="u" horiz-adv-x="563" 
d="M547 443l-49 -330q-3 -24 -3 -36q0 -36 13 -53q-73 -34 -129 -34q-33 0 -55 23t-22 63v17q-62 -103 -154 -103q-124 0 -124 142q0 24 3 49l45 313q75 28 123 28q71 0 71 -66q0 -5 -1 -13l-35 -225q-3 -19 -3 -30v-3q0 -11 0.5 -17.5t7 -13.5t18.5 -7q32 0 47.5 41
t34.5 171l20 135q77 28 122 28q34 0 52.5 -17.5t18.5 -48.5q0 -5 -1 -13z" />
    <glyph glyph-name="v" unicode="v" horiz-adv-x="538" 
d="M361 522l188 -28q-35 -250 -217 -494h-213l-83 498q53 24 124 24q43 0 69.5 -23t27.5 -72l3 -150l-3 -113q75 177 104 358z" />
    <glyph glyph-name="w" unicode="w" horiz-adv-x="803" 
d="M642 522l173 -28q-35 -251 -216 -494h-191l-10 226q-35 -115 -94 -226h-184l-87 498q51 24 117 24q45 0 74 -23t32 -72l9 -155l-4 -111q70 172 93 337q38 24 85 24q37 0 62.5 -23.5t26.5 -71.5l5 -146l-4 -118q82 182 113 359z" />
    <glyph glyph-name="x" unicode="x" horiz-adv-x="533" 
d="M231 120l-78 -120h-201l211 269l-110 229q66 24 121 24q48 0 74 -15t40 -48l17 -41l66 104l180 -28l-175 -234l130 -245q-57 -25 -108 -25q-57 0 -88.5 15t-47.5 49z" />
    <glyph glyph-name="y" unicode="y" horiz-adv-x="541" 
d="M367 522l187 -28q-10 -76 -49.5 -183.5t-98 -218.5t-141 -204.5t-166.5 -129.5l-72 136q78 33 138 112q-56 18 -65 81l-60 411q53 24 115 24q45 0 75 -23t31 -72l2 -162l-4 -123q57 131 108 380z" />
    <glyph glyph-name="z" unicode="z" horiz-adv-x="484" 
d="M290 202l-60 -54h217l-24 -148h-434l18 135l176 180l52 49h-184l25 148h387q14 -37 14 -71q0 -35 -11 -58t-48 -58z" />
    <glyph glyph-name="braceleft" unicode="{" horiz-adv-x="349" 
d="M308 780l67 -140q-43 -13 -55 -96l-21 -152q-9 -69 -77 -117q48 -33 48 -92q0 -7 -2 -21l-19 -153q-1 -11 -1 -26q0 -67 36 -79l-127 -144q-129 53 -129 171q0 15 3 34l25 163q1 7 1 14q0 22 -11 35.5t-30 13.5l23 162q46 0 52 43l24 170q22 153 193 214z" />
    <glyph glyph-name="bar" unicode="|" horiz-adv-x="242" 
d="M123 770h139l-139 -1000h-139z" />
    <glyph glyph-name="braceright" unicode="}" horiz-adv-x="351" 
d="M47 -240l-67 140q43 13 55 96l21 152q9 69 77 117q-48 33 -48 92q0 7 2 21l19 153q1 11 1 26q0 67 -36 79l127 144q129 -53 129 -171q0 -15 -3 -34l-25 -163q-1 -7 -1 -14q0 -22 11 -35.5t30 -13.5l-23 -162q-46 0 -52 -43l-24 -170q-22 -153 -193 -214z" />
    <glyph glyph-name="asciitilde" unicode="~" horiz-adv-x="547" 
d="M64 143l-41 74q23 53 66.5 86.5t86.5 33.5q52 0 142 -27q54 -18 80 -18q27 0 51 16.5t35 40.5l37 -75q-31 -59 -75.5 -89t-91.5 -30q-52 0 -132 29q-49 19 -71 19q-53 0 -87 -60z" />
    <glyph glyph-name="uni00A0" unicode="&#xa0;" horiz-adv-x="179" 
 />
    <glyph glyph-name="exclamdown" unicode="&#xa1;" horiz-adv-x="296" 
d="M159 297q-51 0 -78.5 26.5t-27.5 72.5q0 58 32.5 92t90.5 34q50 0 78.5 -26.5t28.5 -71.5q0 -59 -33 -93t-91 -34zM242 235h-193l-68 -465h204z" />
    <glyph glyph-name="cent" unicode="&#xa2;" horiz-adv-x="511" 
d="M411 189l46 -143q-78 -54 -191 -56l-9 -62h-37l9 63q-96 9 -146.5 67t-50.5 155q0 133 76.5 221t192.5 88l9 62h38l-9 -65q54 -10 94.5 -48.5t46.5 -115.5l-143 -45q0 41 -20 52l-29 -214q4 -1 13 -1q60 0 110 42zM227 221q0 -41 24 -63l29 207q-26 -15 -39.5 -57.5
t-13.5 -86.5z" />
    <glyph glyph-name="sterling" unicode="&#xa3;" horiz-adv-x="519" 
d="M401 476q-42 0 -58.5 -17.5t-20.5 -50.5l-4 -28h122l-18 -135h-126q-12 -58 -38 -97h204l-21 -148h-437l18 139h13q21 0 39.5 29t27.5 77h-62l18 135h63l9 72q11 87 72.5 133.5t160.5 46.5q105 0 165 -45l-31 -137q-40 26 -96 26z" />
    <glyph glyph-name="currency" unicode="&#xa4;" horiz-adv-x="593" 
d="M531 364q0 -59 -23 -107l47 -61l-138 -124l-61 72q-29 -7 -67 -7q-46 0 -85 11l-72 -75l-109 123l69 69q-5 23 -5 45q0 62 21 108l-48 60l140 124l56 -72q31 7 72 7q44 0 82 -11l76 75l108 -123l-68 -67q5 -25 5 -47zM297 267q35 0 56.5 26.5t21.5 61.5q0 52 -55 52
q-37 0 -58 -26t-21 -63q0 -51 56 -51z" />
    <glyph glyph-name="yen" unicode="&#xa5;" horiz-adv-x="588" 
d="M612 601l-209 -333h75l-19 -134h-83l-19 -134h-200l19 134h-84l18 134h75l-114 336q17 12 50 20t61 8q112 0 127 -70l26 -125l94 195z" />
    <glyph glyph-name="brokenbar" unicode="&#xa6;" horiz-adv-x="246" 
d="M125 770h139l-56 -400h-139zM42 170h139l-56 -400h-139z" />
    <glyph glyph-name="section" unicode="&#xa7;" horiz-adv-x="623" 
d="M405 512q30 -10 52 -19t49.5 -26t45 -36.5t30 -49.5t12.5 -66q0 -109 -76 -187q37 -40 37 -97q0 -125 -92.5 -198t-236.5 -73q-152 0 -257 84l80 137q70 -59 196 -59q40 0 65.5 14t25.5 39q0 23 -22 36.5t-68 28.5q-34 11 -55 19.5t-51 26t-47 37t-30 50.5t-13 70
q0 112 73 187q-31 41 -31 100q0 118 79.5 184t211.5 66q141 0 246 -76l-100 -131q-68 45 -148 45q-30 0 -52 -10.5t-22 -27.5q0 -22 21 -35.5t77 -32.5zM245 291q0 -18 17.5 -34t38 -25t60.5 -23l18 -6q21 19 21 48q0 35 -30.5 59t-79.5 33l-16 3q-29 -31 -29 -55z" />
    <glyph glyph-name="dieresis" unicode="&#xa8;" horiz-adv-x="544" 
d="M205 576q-46 0 -72.5 23.5t-26.5 64.5q0 52 30 85t85 33q46 0 72 -23.5t26 -64.5q0 -53 -29.5 -85.5t-84.5 -32.5zM443 576q-46 0 -72.5 23.5t-26.5 64.5q0 52 30 85t85 33q46 0 72 -23.5t26 -64.5q0 -53 -29.5 -85.5t-84.5 -32.5z" />
    <glyph glyph-name="copyright" unicode="&#xa9;" horiz-adv-x="853" 
d="M396 -10q-168 0 -261.5 82.5t-93.5 230.5q0 196 119.5 311.5t322.5 115.5q170 0 264 -83t94 -234q0 -194 -121.5 -308.5t-323.5 -114.5zM418 118q119 0 191 78.5t72 200.5q0 98 -58.5 151.5t-163.5 53.5q-119 0 -189 -78.5t-70 -200.5q0 -98 57 -151.5t161 -53.5z
M576 216q-62 -53 -152 -53q-82 0 -127.5 44.5t-45.5 125.5q0 98 59 163.5t145 65.5q21 0 41.5 -5.5t43 -19t38 -41.5t17.5 -67l-115 -37q1 41 -24 41q-19 0 -29 -30.5t-10 -61.5q0 -48 41 -48q22 0 46 9t37 21z" />
    <glyph glyph-name="ordfeminine" unicode="&#xaa;" horiz-adv-x="444" 
d="M404 352q-2 -18 -2 -28q0 -25 9 -39q-61 -27 -101 -27q-26 0 -43 16t-18 45q-36 -61 -100 -61q-35 0 -69 32t-34 89q0 111 63 182t172 71q71 0 164 -7zM225 380q16 0 25.5 27.5t21.5 111.5h-6q-32 0 -47.5 -29t-15.5 -71q0 -39 22 -39z" />
    <glyph glyph-name="guillemotleft" unicode="&#xab;" horiz-adv-x="605" 
d="M20 250l189 262l132 -85l-114 -177l65 -177l-157 -85zM282 250l189 262l132 -85l-114 -177l65 -177l-157 -85z" />
    <glyph glyph-name="logicalnot" unicode="&#xac;" horiz-adv-x="503" 
d="M476 408l-23 -148h-1l-21 -152h-200l22 152h-216l23 148h416z" />
    <glyph glyph-name="uni00AD" unicode="&#xad;" horiz-adv-x="419" 
d="M57 343h330l-24 -166h-331z" />
    <glyph glyph-name="registered" unicode="&#xae;" horiz-adv-x="521" 
d="M317 730q103 0 159.5 -45t56.5 -126q0 -94 -71 -151.5t-180 -57.5q-101 0 -158.5 44.5t-57.5 121.5q0 93 70.5 153.5t180.5 60.5zM293 401q80 0 129.5 43.5t49.5 113.5q0 57 -43.5 89t-119.5 32q-80 0 -130 -43t-50 -112q0 -59 43.5 -91t120.5 -32zM397 594
q0 -35 -37 -59q25 -11 25 -36q0 -4 -0.5 -11.5t-0.5 -11.5q0 -10 3 -20q-22 -17 -51 -17q-25 0 -25 24q0 2 1 10.5t1 11.5q0 8 -5 14t-12 6h-12l-9 -62h-71l27 194q25 3 84 3q82 0 82 -46zM320 578q0 10 -15 10h-10l-4 -35q29 3 29 25z" />
    <glyph glyph-name="macron" unicode="&#xaf;" horiz-adv-x="318" 
d="M84 747h292l-21 -143h-292z" />
    <glyph glyph-name="degree" unicode="&#xb0;" horiz-adv-x="339" 
d="M211 492q-65 0 -100.5 33t-35.5 90q0 75 43.5 120t116.5 45q64 0 99.5 -33t35.5 -92q0 -71 -44 -117t-115 -46zM217 583q21 0 34 21t13 47q0 38 -36 38q-21 0 -34 -19t-13 -45q0 -19 9.5 -30.5t26.5 -11.5z" />
    <glyph glyph-name="plusminus" unicode="&#xb1;" horiz-adv-x="525" 
d="M386 433h125l-21 -148h-124l-12 -83h-197l11 83h-128l21 148h126l11 84h200zM19 0l21 148h417l-21 -148h-417z" />
    <glyph glyph-name="uni00B2" unicode="&#xb2;" horiz-adv-x="354" 
d="M260 499q-58 -36 -67 -49q-2 -3 -3 -6h167l-16 -106h-312l9 61q20 113 133 182l10 6.5t10.5 6t9.5 5.5t9 6.5l7.5 6.5t6.5 7l4.5 6.5t3.5 7.5t1 8q0 26 -31 26q-29 0 -75 -27l-35 87q78 49 148 49q67 0 104.5 -32t37.5 -90q0 -28 -9 -51t-29 -42.5t-36.5 -31t-47.5 -30.5
z" />
    <glyph glyph-name="uni00B3" unicode="&#xb3;" horiz-adv-x="343" 
d="M372 770l-14 -86l-72 -80q69 -32 69 -110t-54.5 -120t-144.5 -42q-65 0 -128 37l52 91q30 -19 75 -19q23 0 38 12t15 31q0 50 -118 64l94 116h-98l16 106h270z" />
    <glyph glyph-name="acute" unicode="&#xb4;" horiz-adv-x="275" 
d="M265 820l73 -155l-246 -103l-39 92z" />
    <glyph glyph-name="paragraph" unicode="&#xb6;" horiz-adv-x="700" 
d="M703 770l-139 -1000h-153l118 852h-114l-118 -852h-153l83 596q-75 0 -119 45.5t-44 124.5q0 106 58.5 170t160.5 64h420z" />
    <glyph glyph-name="periodcentered" unicode="&#xb7;" horiz-adv-x="289" 
d="M137 155q-51 0 -78.5 26.5t-27.5 72.5q0 58 32.5 92t90.5 34q50 0 78.5 -26.5t28.5 -72.5q0 -58 -33 -92t-91 -34z" />
    <glyph glyph-name="cedilla" unicode="&#xb8;" horiz-adv-x="231" 
d="M118 -32q48 -25 48 -88q0 -57 -38.5 -88.5t-100.5 -31.5q-51 0 -91 26l37 65q23 -14 52 -14q15 0 25 10t10 26q0 44 -80 56l78 96l89 -25z" />
    <glyph glyph-name="uni00B9" unicode="&#xb9;" horiz-adv-x="287" 
d="M324 770l-61 -432h-142l39 270l-64 -29l-36 115l153 76h111z" />
    <glyph glyph-name="ordmasculine" unicode="&#xba;" horiz-adv-x="432" 
d="M222 258q-84 0 -128 41.5t-44 116.5q0 100 57 158t156 58q83 0 127 -41.5t44 -118.5q0 -102 -55.5 -158t-156.5 -56zM237 380q18 0 29 26.5t11 62.5q0 41 -31 41q-18 0 -28.5 -25.5t-10.5 -61.5q0 -43 30 -43z" />
    <glyph glyph-name="guillemotright" unicode="&#xbb;" horiz-adv-x="604" 
d="M321 250l-187 -262l-134 85l115 177l-65 177l157 85zM583 250l-187 -262l-134 85l115 177l-65 177l157 85z" />
    <glyph glyph-name="onequarter" unicode="&#xbc;" horiz-adv-x="898" 
d="M637 730l102 -64l-501 -676l-104 64zM256 288h-142l39 270l-64 -29l-36 115l153 76h111zM823 182h50l-14 -106h-51l-11 -76h-142l11 76h-156l13 92l165 270l126 -35l-149 -221h34l5 23l129 48z" />
    <glyph glyph-name="onehalf" unicode="&#xbd;" horiz-adv-x="911" 
d="M637 730l102 -64l-501 -676l-104 64zM256 288h-142l39 270l-64 -29l-36 115l153 76h111zM770 161q-58 -36 -67 -49q-2 -3 -3 -6h167l-16 -106h-312l9 61q20 113 133 182l10 6.5t10.5 6t9.5 5.5t9 6.5l7.5 6.5t6.5 7l4.5 6.5t3.5 7.5t1 8q0 26 -31 26q-29 0 -75 -27
l-35 87q78 49 148 49q67 0 104.5 -32t37.5 -90q0 -28 -9 -51t-29 -42.5t-36.5 -31t-47.5 -30.5z" />
    <glyph glyph-name="threequarters" unicode="&#xbe;" horiz-adv-x="954" 
d="M693 730l102 -64l-501 -676l-104 64zM348 444q0 -78 -54.5 -120t-144.5 -42q-65 0 -128 37l52 91q30 -19 75 -19q23 0 38 12t15 31q0 50 -118 64l94 116h-98l16 106h270l-14 -86l-72 -80q69 -32 69 -110zM879 182h50l-14 -106h-51l-11 -76h-142l11 76h-156l13 92l165 270
l126 -35l-149 -221h34l5 23l129 48z" />
    <glyph glyph-name="questiondown" unicode="&#xbf;" horiz-adv-x="504" 
d="M322 522q51 0 78.5 -26t27.5 -72q0 -58 -32.5 -92.5t-90.5 -34.5q-50 0 -78.5 27t-28.5 72q0 59 33 92.5t91 33.5zM428 -158q-55 -41 -115.5 -61.5t-106.5 -20.5q-106 0 -165 47.5t-59 129.5q0 37 9 66.5t31.5 56.5t38.5 42t52 45q30 25 41.5 35.5t24.5 27.5t14 31
l190 -11q-14 -116 -121 -195q-21 -15 -32 -24.5t-20.5 -24t-9.5 -29.5q0 -35 40 -35q49 0 130 61z" />
    <glyph glyph-name="Agrave" unicode="&#xc0;" horiz-adv-x="667" 
d="M326 1028l212 -166l-39 -92l-246 103zM429 0l-22 134h-206l-54 -134h-196l336 705q50 25 106 25q107 0 130 -117l122 -613h-216zM264 292h118l-30 231z" />
    <glyph glyph-name="Aacute" unicode="&#xc1;" horiz-adv-x="667" 
d="M525 1028l73 -155l-246 -103l-39 92zM429 0l-22 134h-206l-54 -134h-196l336 705q50 25 106 25q107 0 130 -117l122 -613h-216zM264 292h118l-30 231z" />
    <glyph glyph-name="Acircumflex" unicode="&#xc2;" horiz-adv-x="667" 
d="M422 846l-150 -76l-39 92l212 156l172 -156l-66 -92zM523 613l122 -613h-216l-22 134h-206l-54 -134h-196l336 705q50 25 106 25q107 0 130 -117zM264 292h118l-30 231z" />
    <glyph glyph-name="Atilde" unicode="&#xc3;" horiz-adv-x="667" 
d="M271 792l-43 69q22 49 61 81t77 32q33 0 86 -23q34 -15 46 -15q50 0 78 38l41 -69q-70 -113 -152 -113q-34 0 -80 24q-30 15 -42 15q-41 0 -72 -39zM429 0l-22 134h-206l-54 -134h-196l336 705q50 25 106 25q107 0 130 -117l122 -613h-216zM264 292h118l-30 231z" />
    <glyph glyph-name="Adieresis" unicode="&#xc4;" horiz-adv-x="667" 
d="M298 784q-46 0 -72.5 23.5t-26.5 64.5q0 52 30 85t85 33q46 0 72 -23.5t26 -64.5q0 -53 -29.5 -85.5t-84.5 -32.5zM536 784q-46 0 -72.5 23.5t-26.5 64.5q0 52 30 85t85 33q46 0 72 -23.5t26 -64.5q0 -53 -29.5 -85.5t-84.5 -32.5zM429 0l-22 134h-206l-54 -134h-196
l336 705q50 25 106 25q107 0 130 -117l122 -613h-216zM264 292h118l-30 231z" />
    <glyph glyph-name="Aring" unicode="&#xc5;" horiz-adv-x="667" 
d="M416 766q-60 0 -93.5 29t-33.5 82q0 66 40.5 106t107.5 40q59 0 92 -30t33 -83q0 -66 -39.5 -105t-106.5 -39zM422 849q19 0 30.5 17.5t11.5 38.5q0 17 -9 26t-22 9q-19 0 -31 -17.5t-12 -41.5q0 -32 32 -32zM429 0l-22 134h-206l-54 -134h-196l336 705q50 25 106 25
q107 0 130 -117l122 -613h-216zM264 292h118l-30 231z" />
    <glyph glyph-name="AE" unicode="&#xc6;" horiz-adv-x="947" 
d="M947 562h-330l2 -116h279l-22 -158h-255l2 -130h280l-25 -158h-444v134h-210l-75 -134h-200l441 720h579zM313 292h122l4 236z" />
    <glyph glyph-name="Ccedilla" unicode="&#xc7;" horiz-adv-x="613" 
d="M587 79q-47 -38 -113 -62t-134 -27l-20 -22q48 -25 48 -88q0 -57 -38.5 -88.5t-100.5 -31.5q-51 0 -91 26l37 65q23 -14 52 -14q15 0 25 10t10 26q0 44 -80 56l58 71q-97 24 -148.5 102t-51.5 193q0 118 40.5 216t121 158.5t186.5 60.5q186 0 245 -167l-198 -64
q-10 35 -24.5 52t-37.5 17q-53 0 -85.5 -88t-32.5 -183q0 -74 27 -109.5t67 -35.5q77 0 174 74z" />
    <glyph glyph-name="Egrave" unicode="&#xc8;" horiz-adv-x="570" 
d="M505 862l-39 -92l-246 103l73 155zM569 562h-259l-16 -116h228l-24 -158h-227l-18 -130h272l-24 -158h-479l101 720h470z" />
    <glyph glyph-name="Eacute" unicode="&#xc9;" horiz-adv-x="570" 
d="M565 873l-246 -103l-39 92l212 166zM569 562h-259l-16 -116h228l-24 -158h-227l-18 -130h272l-24 -158h-479l101 720h470z" />
    <glyph glyph-name="Ecircumflex" unicode="&#xca;" horiz-adv-x="570" 
d="M389 846l-150 -76l-39 92l212 156l172 -156l-66 -92zM569 562h-259l-16 -116h228l-24 -158h-227l-18 -130h272l-24 -158h-479l101 720h470z" />
    <glyph glyph-name="Edieresis" unicode="&#xcb;" horiz-adv-x="570" 
d="M265 784q-46 0 -72.5 23.5t-26.5 64.5q0 52 30 85t85 33q46 0 72 -23.5t26 -64.5q0 -53 -29.5 -85.5t-84.5 -32.5zM503 784q-46 0 -72.5 23.5t-26.5 64.5q0 52 30 85t85 33q46 0 72 -23.5t26 -64.5q0 -53 -29.5 -85.5t-84.5 -32.5zM593 720l-24 -158h-259l-16 -116h228
l-24 -158h-227l-18 -130h272l-24 -158h-479l101 720h470z" />
    <glyph glyph-name="Igrave" unicode="&#xcc;" horiz-adv-x="318" 
d="M151 1028l212 -166l-39 -92l-246 103zM225 0h-206l102 699q60 31 107 31q42 0 65 -21t23 -60q0 -8 -1 -16z" />
    <glyph glyph-name="Iacute" unicode="&#xcd;" horiz-adv-x="318" 
d="M350 1028l73 -155l-246 -103l-39 92zM225 0h-206l102 699q60 31 107 31q42 0 65 -21t23 -60q0 -8 -1 -16z" />
    <glyph glyph-name="Icircumflex" unicode="&#xce;" horiz-adv-x="318" 
d="M270 1018l172 -156l-66 -92l-129 76l-150 -76l-39 92zM228 730q42 0 65 -21t23 -60q0 -8 -1 -16l-90 -633h-206l102 699q60 31 107 31z" />
    <glyph glyph-name="Idieresis" unicode="&#xcf;" horiz-adv-x="318" 
d="M123 784q-46 0 -72.5 23.5t-26.5 64.5q0 52 30 85t85 33q46 0 72 -23.5t26 -64.5q0 -53 -29.5 -85.5t-84.5 -32.5zM361 784q-46 0 -72.5 23.5t-26.5 64.5q0 52 30 85t85 33q46 0 72 -23.5t26 -64.5q0 -53 -29.5 -85.5t-84.5 -32.5zM225 0h-206l102 699q60 31 107 31
q42 0 65 -21t23 -60q0 -8 -1 -16z" />
    <glyph glyph-name="Eth" unicode="&#xd0;" horiz-adv-x="681" 
d="M335 730q161 0 248.5 -80t87.5 -226q0 -198 -114 -316t-309 -118q-145 0 -227 10l41 291h-50l21 149h50l39 280q85 10 213 10zM266 148q91 0 141.5 80t50.5 192q0 73 -33 112.5t-96 39.5q-12 0 -19 -1l-18 -131h122l-21 -149h-122l-20 -143h15z" />
    <glyph glyph-name="Ntilde" unicode="&#xd1;" horiz-adv-x="724" 
d="M299 792l-43 69q22 49 61 81t77 32q33 0 86 -23q34 -15 46 -15q50 0 78 38l41 -69q-70 -113 -152 -113q-34 0 -80 24q-30 15 -42 15q-41 0 -72 -39zM534 720h198l-101 -720h-163l-203 362l-47 -362h-197l100 699q42 31 96 31q67 0 102 -64l171 -309z" />
    <glyph glyph-name="Ograve" unicode="&#xd2;" horiz-adv-x="745" 
d="M363 1028l212 -166l-39 -92l-246 103zM344 -10q-145 0 -225 78t-80 219q0 197 104.5 320t287.5 123q145 0 224.5 -78.5t79.5 -221.5q0 -195 -104.5 -317.5t-286.5 -122.5zM364 152q51 0 87.5 43t52 103t15.5 127q0 69 -26.5 106t-77.5 37q-75 0 -117 -83t-42 -188
q0 -70 28 -107.5t80 -37.5z" />
    <glyph glyph-name="Oacute" unicode="&#xd3;" horiz-adv-x="745" 
d="M562 1028l73 -155l-246 -103l-39 92zM344 -10q-145 0 -225 78t-80 219q0 197 104.5 320t287.5 123q145 0 224.5 -78.5t79.5 -221.5q0 -195 -104.5 -317.5t-286.5 -122.5zM364 152q51 0 87.5 43t52 103t15.5 127q0 69 -26.5 106t-77.5 37q-75 0 -117 -83t-42 -188
q0 -70 28 -107.5t80 -37.5z" />
    <glyph glyph-name="Ocircumflex" unicode="&#xd4;" horiz-adv-x="745" 
d="M459 846l-150 -76l-39 92l212 156l172 -156l-66 -92zM431 730q145 0 224.5 -78.5t79.5 -221.5q0 -195 -104.5 -317.5t-286.5 -122.5q-145 0 -225 78t-80 219q0 197 104.5 320t287.5 123zM364 152q51 0 87.5 43t52 103t15.5 127q0 69 -26.5 106t-77.5 37q-75 0 -117 -83
t-42 -188q0 -70 28 -107.5t80 -37.5z" />
    <glyph glyph-name="Otilde" unicode="&#xd5;" horiz-adv-x="745" 
d="M308 792l-43 69q22 49 61 81t77 32q33 0 86 -23q34 -15 46 -15q49 0 78 38l41 -69q-70 -113 -152 -113q-34 0 -80 24q-30 15 -42 15q-41 0 -72 -39zM344 -10q-145 0 -225 78t-80 219q0 197 104.5 320t287.5 123q145 0 224.5 -78.5t79.5 -221.5q0 -195 -104.5 -317.5
t-286.5 -122.5zM364 152q51 0 87.5 43t52 103t15.5 127q0 69 -26.5 106t-77.5 37q-75 0 -117 -83t-42 -188q0 -70 28 -107.5t80 -37.5z" />
    <glyph glyph-name="Odieresis" unicode="&#xd6;" horiz-adv-x="745" 
d="M335 784q-46 0 -72.5 23.5t-26.5 64.5q0 52 30 85t85 33q46 0 72 -23.5t26 -64.5q0 -53 -29.5 -85.5t-84.5 -32.5zM573 784q-46 0 -72.5 23.5t-26.5 64.5q0 52 30 85t85 33q46 0 72 -23.5t26 -64.5q0 -53 -29.5 -85.5t-84.5 -32.5zM344 -10q-145 0 -225 78t-80 219
q0 197 104.5 320t287.5 123q145 0 224.5 -78.5t79.5 -221.5q0 -195 -104.5 -317.5t-286.5 -122.5zM364 152q51 0 87.5 43t52 103t15.5 127q0 69 -26.5 106t-77.5 37q-75 0 -117 -83t-42 -188q0 -70 28 -107.5t80 -37.5z" />
    <glyph glyph-name="multiply" unicode="&#xd7;" horiz-adv-x="493" 
d="M480 365l-108 -105l81 -106l-146 -130l-77 98l-101 -98l-115 130l109 105l-82 106l150 130l75 -98l102 98z" />
    <glyph glyph-name="Oslash" unicode="&#xd8;" horiz-adv-x="745" 
d="M750 648l-50 -57q35 -67 35 -161q0 -195 -104.5 -317.5t-286.5 -122.5q-86 0 -147 27l-43 -49l-130 104l50 57q-35 65 -35 158q0 197 104.5 320t287.5 123q84 0 149 -28l44 50zM415 568q-72 0 -116 -72t-49 -168l205 233q-17 7 -40 7zM364 152q72 0 115 71.5t48 168.5
l-205 -232q19 -8 42 -8z" />
    <glyph glyph-name="Ugrave" unicode="&#xd9;" horiz-adv-x="686" 
d="M333 1028l212 -166l-39 -92l-246 103zM446 291l61 408q52 31 101 31q38 0 59 -21.5t21 -59.5q0 -8 -1 -16l-49 -369q-17 -132 -101.5 -203t-224.5 -71q-127 0 -195.5 62t-68.5 174q0 32 3 49l65 424q60 31 110 31q41 0 63 -21.5t22 -61.5q0 -7 -1 -14l-48 -353
q-4 -32 -4 -39q0 -89 73 -89q94 0 115 139z" />
    <glyph glyph-name="Uacute" unicode="&#xda;" horiz-adv-x="686" 
d="M532 1028l73 -155l-246 -103l-39 92zM446 291l61 408q52 31 101 31q38 0 59 -21.5t21 -59.5q0 -8 -1 -16l-49 -369q-17 -132 -101.5 -203t-224.5 -71q-127 0 -195.5 62t-68.5 174q0 32 3 49l65 424q60 31 110 31q41 0 63 -21.5t22 -61.5q0 -7 -1 -14l-48 -353
q-4 -32 -4 -39q0 -89 73 -89q94 0 115 139z" />
    <glyph glyph-name="Ucircumflex" unicode="&#xdb;" horiz-adv-x="686" 
d="M429 846l-150 -76l-39 92l212 156l172 -156l-66 -92zM608 730q38 0 59 -21.5t21 -59.5q0 -8 -1 -16l-49 -369q-17 -132 -101.5 -203t-224.5 -71q-127 0 -195.5 62t-68.5 174q0 32 3 49l65 424q60 31 110 31q41 0 63 -21.5t22 -61.5q0 -7 -1 -14l-48 -353q-4 -32 -4 -39
q0 -89 73 -89q94 0 115 139l61 408q52 31 101 31z" />
    <glyph glyph-name="Udieresis" unicode="&#xdc;" horiz-adv-x="686" 
d="M305 784q-46 0 -72.5 23.5t-26.5 64.5q0 52 30 85t85 33q46 0 72 -23.5t26 -64.5q0 -53 -29.5 -85.5t-84.5 -32.5zM543 784q-46 0 -72.5 23.5t-26.5 64.5q0 52 30 85t85 33q46 0 72 -23.5t26 -64.5q0 -53 -29.5 -85.5t-84.5 -32.5zM446 291l61 408q52 31 101 31
q38 0 59 -21.5t21 -59.5q0 -8 -1 -16l-49 -369q-17 -132 -101.5 -203t-224.5 -71q-127 0 -195.5 62t-68.5 174q0 32 3 49l65 424q60 31 110 31q41 0 63 -21.5t22 -61.5q0 -7 -1 -14l-48 -353q-4 -32 -4 -39q0 -89 73 -89q94 0 115 139z" />
    <glyph glyph-name="Yacute" unicode="&#xdd;" horiz-adv-x="613" 
d="M496 1028l73 -155l-246 -103l-39 92zM677 698l-259 -408l-42 -290h-209l41 279l-149 422q43 29 114 29q118 0 138 -74l24 -92l20 -113l56 124l73 155z" />
    <glyph glyph-name="Thorn" unicode="&#xde;" horiz-adv-x="620" 
d="M373 604q120 0 185 -49t65 -141q0 -131 -93 -209.5t-241 -78.5q-29 0 -45 1l-18 -127h-207l102 699q62 31 108 31q42 0 64.5 -21t22.5 -60q0 -8 -1 -16l-4 -30q25 1 62 1zM309 284q46 0 69 29.5t23 74.5q0 27 -15.5 43t-44.5 16q-31 0 -52 -1l-23 -162h43z" />
    <glyph glyph-name="germandbls" unicode="&#xdf;" horiz-adv-x="617" 
d="M369 -10q-70 0 -123 35l54 132q11 -10 33 -10q52 0 52 69q0 29 -18 67.5t-78 116.5q72 92 72 176q0 47 -30 47q-18 0 -30.5 -14t-15.5 -36l-80 -573h-198l86 612q11 81 78 124.5t174 43.5q105 0 161.5 -47.5t56.5 -133.5q0 -99 -76 -180q49 -49 74 -95.5t25 -114.5
q0 -101 -57.5 -160t-159.5 -59z" />
    <glyph glyph-name="agrave" unicode="&#xe0;" horiz-adv-x="572" 
d="M243 820l212 -166l-39 -92l-246 103zM506 113q-3 -24 -3 -36q0 -36 13 -53q-73 -34 -129 -34q-33 0 -55 23t-22 63v5q-30 -50 -64.5 -70.5t-82.5 -20.5q-53 0 -100 45.5t-47 128.5q0 157 87.5 257.5t237.5 100.5q106 0 224 -10zM264 146q26 0 43 43.5t37 167.5l3 19h-24
q-47 0 -72.5 -47.5t-25.5 -112.5q0 -70 39 -70z" />
    <glyph glyph-name="aacute" unicode="&#xe1;" horiz-adv-x="572" 
d="M442 820l73 -155l-246 -103l-39 92zM506 113q-3 -24 -3 -36q0 -36 13 -53q-73 -34 -129 -34q-33 0 -55 23t-22 63v5q-30 -50 -64.5 -70.5t-82.5 -20.5q-53 0 -100 45.5t-47 128.5q0 157 87.5 257.5t237.5 100.5q106 0 224 -10zM264 146q26 0 43 43.5t37 167.5l3 19h-24
q-47 0 -72.5 -47.5t-25.5 -112.5q0 -70 39 -70z" />
    <glyph glyph-name="acircumflex" unicode="&#xe2;" horiz-adv-x="572" 
d="M339 638l-150 -76l-39 92l212 156l172 -156l-66 -92zM506 113q-3 -24 -3 -36q0 -36 13 -53q-73 -34 -129 -34q-33 0 -55 23t-22 63v5q-30 -50 -64.5 -70.5t-82.5 -20.5q-53 0 -100 45.5t-47 128.5q0 157 87.5 257.5t237.5 100.5q106 0 224 -10zM344 357l3 19h-24
q-47 0 -72.5 -47.5t-25.5 -112.5q0 -70 39 -70q26 0 43 43.5t37 167.5z" />
    <glyph glyph-name="atilde" unicode="&#xe3;" horiz-adv-x="572" 
d="M188 584l-43 69q22 49 61 81t77 32q33 0 86 -23q34 -15 46 -15q50 0 78 38l41 -69q-70 -113 -152 -113q-34 0 -80 24q-30 15 -42 15q-41 0 -72 -39zM506 113q-3 -24 -3 -36q0 -36 13 -53q-73 -34 -129 -34q-33 0 -55 23t-22 63v5q-30 -50 -64.5 -70.5t-82.5 -20.5
q-53 0 -100 45.5t-47 128.5q0 157 87.5 257.5t237.5 100.5q106 0 224 -10zM264 146q26 0 43 43.5t37 167.5l3 19h-24q-47 0 -72.5 -47.5t-25.5 -112.5q0 -70 39 -70z" />
    <glyph glyph-name="adieresis" unicode="&#xe4;" horiz-adv-x="572" 
d="M215 576q-46 0 -72.5 23.5t-26.5 64.5q0 52 30 85t85 33q46 0 72 -23.5t26 -64.5q0 -53 -29.5 -85.5t-84.5 -32.5zM453 576q-46 0 -72.5 23.5t-26.5 64.5q0 52 30 85t85 33q46 0 72 -23.5t26 -64.5q0 -53 -29.5 -85.5t-84.5 -32.5zM506 113q-3 -24 -3 -36q0 -36 13 -53
q-73 -34 -129 -34q-33 0 -55 23t-22 63v5q-30 -50 -64.5 -70.5t-82.5 -20.5q-53 0 -100 45.5t-47 128.5q0 157 87.5 257.5t237.5 100.5q106 0 224 -10zM264 146q26 0 43 43.5t37 167.5l3 19h-24q-47 0 -72.5 -47.5t-25.5 -112.5q0 -70 39 -70z" />
    <glyph glyph-name="aring" unicode="&#xe5;" horiz-adv-x="572" 
d="M333 558q-60 0 -93.5 29t-33.5 82q0 66 40.5 106t107.5 40q59 0 92 -30t33 -83q0 -66 -39.5 -105t-106.5 -39zM339 641q19 0 30.5 17.5t11.5 38.5q0 17 -9 26t-22 9q-19 0 -31 -17.5t-12 -41.5q0 -32 32 -32zM506 113q-3 -24 -3 -36q0 -36 13 -53q-73 -34 -129 -34
q-33 0 -55 23t-22 63v5q-30 -50 -64.5 -70.5t-82.5 -20.5q-53 0 -100 45.5t-47 128.5q0 157 87.5 257.5t237.5 100.5q106 0 224 -10zM264 146q26 0 43 43.5t37 167.5l3 19h-24q-47 0 -72.5 -47.5t-25.5 -112.5q0 -70 39 -70z" />
    <glyph glyph-name="ae" unicode="&#xe6;" horiz-adv-x="775" 
d="M536 138q67 0 129 39l59 -127q-96 -60 -212 -60q-129 0 -175 102q-23 -50 -67.5 -76t-87.5 -26q-85 0 -131.5 39t-46.5 108q0 92 70.5 137t192.5 45h20q1 7 1 20q0 36 -51 36q-54 0 -120 -33l-53 120q108 60 225 60q85 0 124 -61q66 61 164 61q90 0 138 -40.5t48 -112.5
q0 -98 -73.5 -142t-190.5 -44q-19 0 -29 1q3 -24 18 -35t48 -11zM545 370q-49 0 -67 -81h14q32 0 55.5 14t23.5 41q0 26 -26 26zM215 136q47 0 63 78q-41 0 -67 -13.5t-26 -34.5q0 -30 30 -30z" />
    <glyph glyph-name="ccedilla" unicode="&#xe7;" horiz-adv-x="481" 
d="M447 46q-75 -52 -186 -56l-20 -22q48 -25 48 -88q0 -57 -38.5 -88.5t-100.5 -31.5q-51 0 -91 26l37 65q23 -14 52 -14q15 0 25 10t10 26q0 44 -80 56l59 73q-140 43 -140 211q0 133 77 221t193 88q26 0 52.5 -7t54.5 -24t47.5 -52t23.5 -84l-147 -46q0 29 -7 43t-26 14
q-22 0 -38 -25t-22.5 -56.5t-6.5 -63.5q0 -36 18 -55t50 -19q60 0 110 42z" />
    <glyph glyph-name="egrave" unicode="&#xe8;" horiz-adv-x="512" 
d="M238 820l212 -166l-39 -92l-246 103zM273 138q67 0 129 39l59 -127q-96 -60 -212 -60q-110 0 -169 56.5t-59 159.5q0 140 79 228t214 88q90 0 138 -40.5t48 -112.5q0 -98 -73.5 -142t-190.5 -44q-19 0 -29 1q3 -24 18 -35t48 -11zM282 370q-49 0 -67 -81h14q32 0 55.5 14
t23.5 41q0 26 -26 26z" />
    <glyph glyph-name="eacute" unicode="&#xe9;" horiz-adv-x="512" 
d="M437 820l73 -155l-246 -103l-39 92zM273 138q67 0 129 39l59 -127q-96 -60 -212 -60q-110 0 -169 56.5t-59 159.5q0 140 79 228t214 88q90 0 138 -40.5t48 -112.5q0 -98 -73.5 -142t-190.5 -44q-19 0 -29 1q3 -24 18 -35t48 -11zM282 370q-49 0 -67 -81h14q32 0 55.5 14
t23.5 41q0 26 -26 26z" />
    <glyph glyph-name="ecircumflex" unicode="&#xea;" horiz-adv-x="512" 
d="M334 638l-150 -76l-39 92l212 156l172 -156l-66 -92zM500 369q0 -98 -73.5 -142t-190.5 -44q-19 0 -29 1q3 -24 18 -35t48 -11q67 0 129 39l59 -127q-96 -60 -212 -60q-110 0 -169 56.5t-59 159.5q0 140 79 228t214 88q90 0 138 -40.5t48 -112.5zM215 289h14
q32 0 55.5 14t23.5 41q0 26 -26 26q-49 0 -67 -81z" />
    <glyph glyph-name="edieresis" unicode="&#xeb;" horiz-adv-x="512" 
d="M210 576q-46 0 -72.5 23.5t-26.5 64.5q0 52 30 85t85 33q46 0 72 -23.5t26 -64.5q0 -53 -29.5 -85.5t-84.5 -32.5zM448 576q-46 0 -72.5 23.5t-26.5 64.5q0 52 30 85t85 33q46 0 72 -23.5t26 -64.5q0 -53 -29.5 -85.5t-84.5 -32.5zM273 138q67 0 129 39l59 -127
q-96 -60 -212 -60q-110 0 -169 56.5t-59 159.5q0 140 79 228t214 88q90 0 138 -40.5t48 -112.5q0 -98 -73.5 -142t-190.5 -44q-19 0 -29 1q3 -24 18 -35t48 -11zM282 370q-49 0 -67 -81h14q32 0 55.5 14t23.5 41q0 26 -26 26z" />
    <glyph glyph-name="igrave" unicode="&#xec;" horiz-adv-x="286" 
d="M99 820l212 -166l-39 -92l-246 103zM276 512l-54 -399q-3 -24 -3 -36q0 -36 13 -53q-73 -34 -130 -34q-82 0 -82 84q0 9 1 18l55 420h200z" />
    <glyph glyph-name="iacute" unicode="&#xed;" horiz-adv-x="286" 
d="M298 820l73 -155l-246 -103l-39 92zM276 512l-54 -399q-3 -24 -3 -36q0 -36 13 -53q-73 -34 -130 -34q-82 0 -82 84q0 9 1 18l55 420h200z" />
    <glyph glyph-name="icircumflex" unicode="&#xee;" horiz-adv-x="286" 
d="M218 810l172 -156l-66 -92l-129 76l-150 -76l-39 92zM276 512l-54 -399q-3 -24 -3 -36q0 -36 13 -53q-73 -34 -130 -34q-82 0 -82 84q0 9 1 18l55 420h200z" />
    <glyph glyph-name="idieresis" unicode="&#xef;" horiz-adv-x="286" 
d="M71 576q-46 0 -72.5 23.5t-26.5 64.5q0 52 30 85t85 33q46 0 72 -23.5t26 -64.5q0 -53 -29.5 -85.5t-84.5 -32.5zM309 576q-46 0 -72.5 23.5t-26.5 64.5q0 52 30 85t85 33q46 0 72 -23.5t26 -64.5q0 -53 -29.5 -85.5t-84.5 -32.5zM276 512l-54 -399q-3 -24 -3 -36
q0 -36 13 -53q-73 -34 -130 -34q-82 0 -82 84q0 9 1 18l55 420h200z" />
    <glyph glyph-name="eth" unicode="&#xf0;" horiz-adv-x="582" 
d="M454 646q113 -95 113 -260q0 -176 -78.5 -286t-228.5 -110q-115 0 -177 56.5t-62 158.5q0 127 66.5 211t183.5 84q73 0 121 -27q-16 63 -76 100l-167 -87l-40 89l92 48q-34 11 -80 24l50 131q116 -34 189 -72l140 74l41 -89zM278 147q36 0 55.5 40.5t19.5 91.5
q0 64 -57 64q-34 0 -54.5 -41t-20.5 -88q0 -32 15 -49.5t42 -17.5z" />
    <glyph glyph-name="ntilde" unicode="&#xf1;" horiz-adv-x="578" 
d="M218 584l-43 69q22 49 61 81t77 32q33 0 86 -23q34 -15 46 -15q50 0 78 38l41 -69q-70 -113 -152 -113q-34 0 -80 24q-30 15 -42 15q-41 0 -72 -39zM546 332l-31 -219q-4 -28 -4 -36q0 -34 13 -53q-73 -34 -127 -34q-84 0 -84 84q0 9 1 18l31 202q3 20 3 31q0 41 -30 41
q-34 0 -53.5 -56t-42.5 -210l-15 -100h-200l70 498q59 24 105 24q39 0 58.5 -26.5t19.5 -68.5v-17q35 63 73 87.5t88 24.5q62 0 95.5 -38t33.5 -107q0 -17 -4 -45z" />
    <glyph glyph-name="ograve" unicode="&#xf2;" horiz-adv-x="576" 
d="M252 820l212 -166l-39 -92l-246 103zM259 -10q-115 0 -176 58.5t-61 163.5q0 143 79 226.5t219 83.5q113 0 173.5 -59t60.5 -166q0 -142 -78.5 -224.5t-216.5 -82.5zM277 147q36 0 56.5 45t20.5 101q0 73 -56 73q-36 0 -56 -46t-20 -100q0 -73 55 -73z" />
    <glyph glyph-name="oacute" unicode="&#xf3;" horiz-adv-x="576" 
d="M451 820l73 -155l-246 -103l-39 92zM259 -10q-115 0 -176 58.5t-61 163.5q0 143 79 226.5t219 83.5q113 0 173.5 -59t60.5 -166q0 -142 -78.5 -224.5t-216.5 -82.5zM277 147q36 0 56.5 45t20.5 101q0 73 -56 73q-36 0 -56 -46t-20 -100q0 -73 55 -73z" />
    <glyph glyph-name="ocircumflex" unicode="&#xf4;" horiz-adv-x="576" 
d="M348 638l-150 -76l-39 92l212 156l172 -156l-66 -92zM320 522q113 0 173.5 -59t60.5 -166q0 -142 -78.5 -224.5t-216.5 -82.5q-115 0 -176 58.5t-61 163.5q0 143 79 226.5t219 83.5zM277 147q36 0 56.5 45t20.5 101q0 73 -56 73q-36 0 -56 -46t-20 -100q0 -73 55 -73z
" />
    <glyph glyph-name="otilde" unicode="&#xf5;" horiz-adv-x="576" 
d="M197 584l-43 69q22 49 61 81t77 32q33 0 86 -23q34 -15 46 -15q50 0 78 38l41 -69q-70 -113 -152 -113q-34 0 -80 24q-30 15 -42 15q-41 0 -72 -39zM259 -10q-115 0 -176 58.5t-61 163.5q0 143 79 226.5t219 83.5q113 0 173.5 -59t60.5 -166q0 -142 -78.5 -224.5
t-216.5 -82.5zM277 147q36 0 56.5 45t20.5 101q0 73 -56 73q-36 0 -56 -46t-20 -100q0 -73 55 -73z" />
    <glyph glyph-name="odieresis" unicode="&#xf6;" horiz-adv-x="576" 
d="M224 576q-46 0 -72.5 23.5t-26.5 64.5q0 52 30 85t85 33q46 0 72 -23.5t26 -64.5q0 -53 -29.5 -85.5t-84.5 -32.5zM462 576q-46 0 -72.5 23.5t-26.5 64.5q0 52 30 85t85 33q46 0 72 -23.5t26 -64.5q0 -53 -29.5 -85.5t-84.5 -32.5zM259 -10q-115 0 -176 58.5t-61 163.5
q0 143 79 226.5t219 83.5q113 0 173.5 -59t60.5 -166q0 -142 -78.5 -224.5t-216.5 -82.5zM277 147q36 0 56.5 45t20.5 101q0 73 -56 73q-36 0 -56 -46t-20 -100q0 -73 55 -73z" />
    <glyph glyph-name="divide" unicode="&#xf7;" horiz-adv-x="465" 
d="M254 351q-46 0 -72.5 23.5t-26.5 64.5q0 52 30 85t85 33q46 0 72 -23.5t26 -64.5q0 -52 -30 -85t-84 -33zM34 326h417l-21 -148h-417zM195 -53q-46 0 -72.5 23.5t-26.5 64.5q0 52 30 85t85 33q46 0 72 -23.5t26 -64.5q0 -52 -30 -85t-84 -33z" />
    <glyph glyph-name="oslash" unicode="&#xf8;" horiz-adv-x="576" 
d="M516 437q38 -55 38 -140q0 -142 -78.5 -224.5t-216.5 -82.5q-82 0 -136 30l-28 -30l-59 51l27 29q-41 56 -41 142q0 143 79 226.5t219 83.5q80 0 133 -29l27 29l64 -55zM298 366q-35 0 -56.5 -39t-24.5 -89l112 120q-14 8 -31 8zM277 147q33 0 55 36.5t26 85.5l-109 -115
q11 -7 28 -7z" />
    <glyph glyph-name="ugrave" unicode="&#xf9;" horiz-adv-x="563" 
d="M237 820l212 -166l-39 -92l-246 103zM547 443l-49 -330q-3 -24 -3 -36q0 -36 13 -53q-73 -34 -129 -34q-33 0 -55 23t-22 63v17q-62 -103 -154 -103q-124 0 -124 142q0 24 3 49l45 313q75 28 123 28q71 0 71 -66q0 -5 -1 -13l-35 -225q-3 -19 -3 -30v-3q0 -11 0.5 -17.5
t7 -13.5t18.5 -7q32 0 47.5 41t34.5 171l20 135q77 28 122 28q34 0 52.5 -17.5t18.5 -48.5q0 -5 -1 -13z" />
    <glyph glyph-name="uacute" unicode="&#xfa;" horiz-adv-x="563" 
d="M436 820l73 -155l-246 -103l-39 92zM547 443l-49 -330q-3 -24 -3 -36q0 -36 13 -53q-73 -34 -129 -34q-33 0 -55 23t-22 63v17q-62 -103 -154 -103q-124 0 -124 142q0 24 3 49l45 313q75 28 123 28q71 0 71 -66q0 -5 -1 -13l-35 -225q-3 -19 -3 -30v-3q0 -11 0.5 -17.5
t7 -13.5t18.5 -7q32 0 47.5 41t34.5 171l20 135q77 28 122 28q34 0 52.5 -17.5t18.5 -48.5q0 -5 -1 -13z" />
    <glyph glyph-name="ucircumflex" unicode="&#xfb;" horiz-adv-x="563" 
d="M333 638l-150 -76l-39 92l212 156l172 -156l-66 -92zM547 443l-49 -330q-3 -24 -3 -36q0 -36 13 -53q-73 -34 -129 -34q-33 0 -55 23t-22 63v17q-62 -103 -154 -103q-124 0 -124 142q0 24 3 49l45 313q75 28 123 28q71 0 71 -66q0 -5 -1 -13l-35 -225q-3 -19 -3 -30v-3
q0 -11 0.5 -17.5t7 -13.5t18.5 -7q32 0 47.5 41t34.5 171l20 135q77 28 122 28q34 0 52.5 -17.5t18.5 -48.5q0 -5 -1 -13z" />
    <glyph glyph-name="udieresis" unicode="&#xfc;" horiz-adv-x="563" 
d="M209 576q-46 0 -72.5 23.5t-26.5 64.5q0 52 30 85t85 33q46 0 72 -23.5t26 -64.5q0 -53 -29.5 -85.5t-84.5 -32.5zM447 576q-46 0 -72.5 23.5t-26.5 64.5q0 52 30 85t85 33q46 0 72 -23.5t26 -64.5q0 -53 -29.5 -85.5t-84.5 -32.5zM547 443l-49 -330q-3 -24 -3 -36
q0 -36 13 -53q-73 -34 -129 -34q-33 0 -55 23t-22 63v17q-62 -103 -154 -103q-124 0 -124 142q0 24 3 49l45 313q75 28 123 28q71 0 71 -66q0 -5 -1 -13l-35 -225q-3 -19 -3 -30v-3q0 -11 0.5 -17.5t7 -13.5t18.5 -7q32 0 47.5 41t34.5 171l20 135q77 28 122 28
q34 0 52.5 -17.5t18.5 -48.5q0 -5 -1 -13z" />
    <glyph glyph-name="yacute" unicode="&#xfd;" horiz-adv-x="541" 
d="M426 820l73 -155l-246 -103l-39 92zM367 522l187 -28q-10 -76 -49.5 -183.5t-98 -218.5t-141 -204.5t-166.5 -129.5l-72 136q78 33 138 112q-56 18 -65 81l-60 411q53 24 115 24q45 0 75 -23t31 -72l2 -162l-4 -123q57 131 108 380z" />
    <glyph glyph-name="thorn" unicode="&#xfe;" horiz-adv-x="569" 
d="M406 522q53 0 100 -45.5t47 -128.5q0 -157 -87.5 -257.5t-237.5 -100.5h-27l-31 -220h-198l143 982q75 28 120 28q34 0 52 -17.5t18 -48.5q0 -5 -1 -13l-37 -258q52 79 139 79zM246 136q47 0 72.5 47.5t25.5 112.5q0 70 -39 70q-26 0 -43.5 -44t-37.5 -167l-3 -19h25z
" />
    <glyph glyph-name="ydieresis" unicode="&#xff;" horiz-adv-x="541" 
d="M199 576q-46 0 -72.5 23.5t-26.5 64.5q0 52 30 85t85 33q46 0 72 -23.5t26 -64.5q0 -53 -29.5 -85.5t-84.5 -32.5zM437 576q-46 0 -72.5 23.5t-26.5 64.5q0 52 30 85t85 33q46 0 72 -23.5t26 -64.5q0 -53 -29.5 -85.5t-84.5 -32.5zM367 522l187 -28q-10 -76 -49.5 -183.5
t-98 -218.5t-141 -204.5t-166.5 -129.5l-72 136q78 33 138 112q-56 18 -65 81l-60 411q53 24 115 24q45 0 75 -23t31 -72l2 -162l-4 -123q57 131 108 380z" />
    <glyph glyph-name="Amacron" unicode="&#x100;" horiz-adv-x="667" 
d="M289 955h292l-21 -143h-292zM429 0l-22 134h-206l-54 -134h-196l336 705q50 25 106 25q107 0 130 -117l122 -613h-216zM264 292h118l-30 231z" />
    <glyph glyph-name="amacron" unicode="&#x101;" horiz-adv-x="572" 
d="M206 747h292l-21 -143h-292zM506 113q-3 -24 -3 -36q0 -36 13 -53q-73 -34 -129 -34q-33 0 -55 23t-22 63v5q-30 -50 -64.5 -70.5t-82.5 -20.5q-53 0 -100 45.5t-47 128.5q0 157 87.5 257.5t237.5 100.5q106 0 224 -10zM264 146q26 0 43 43.5t37 167.5l3 19h-24
q-47 0 -72.5 -47.5t-25.5 -112.5q0 -70 39 -70z" />
    <glyph glyph-name="Abreve" unicode="&#x102;" horiz-adv-x="667" 
d="M610 943q-12 -80 -62 -124t-127 -44t-119 37t-42 104q0 11 2 27h131q-1 -7 -1 -13q0 -42 34 -42q52 0 52 55h132zM429 0l-22 134h-206l-54 -134h-196l336 705q50 25 106 25q107 0 130 -117l122 -613h-216zM264 292h118l-30 231z" />
    <glyph glyph-name="abreve" unicode="&#x103;" horiz-adv-x="572" 
d="M527 735q-12 -80 -62 -124t-127 -44t-119 37t-42 104q0 11 2 27h131q-1 -7 -1 -13q0 -42 34 -42q52 0 52 55h132zM506 113q-3 -24 -3 -36q0 -36 13 -53q-73 -34 -129 -34q-33 0 -55 23t-22 63v5q-30 -50 -64.5 -70.5t-82.5 -20.5q-53 0 -100 45.5t-47 128.5
q0 157 87.5 257.5t237.5 100.5q106 0 224 -10zM264 146q26 0 43 43.5t37 167.5l3 19h-24q-47 0 -72.5 -47.5t-25.5 -112.5q0 -70 39 -70z" />
    <glyph glyph-name="Aogonek" unicode="&#x104;" horiz-adv-x="667" 
d="M554 -163q21 0 55 17l16 -69q-53 -25 -106 -25q-45 0 -69.5 23.5t-24.5 64.5q0 44 30 78t88 74h-114l-22 134h-206l-54 -134h-196l336 705q50 25 106 25q107 0 130 -117l122 -613q-119 -93 -119 -139q0 -24 28 -24zM264 292h118l-30 231z" />
    <glyph glyph-name="aogonek" unicode="&#x105;" horiz-adv-x="572" 
d="M516 24q-120 -106 -120 -163q0 -24 28 -24q21 0 55 17l16 -69q-53 -25 -106 -25q-45 0 -69.5 23.5t-24.5 64.5q0 71 83 142q-30 3 -49 26t-19 60v5q-30 -50 -64.5 -70.5t-82.5 -20.5q-53 0 -100 45.5t-47 128.5q0 157 87.5 257.5t237.5 100.5q106 0 224 -10l-59 -399
q-3 -24 -3 -36q0 -36 13 -53zM344 357l3 19h-24q-47 0 -72.5 -47.5t-25.5 -112.5q0 -70 39 -70q26 0 43 43.5t37 167.5z" />
    <glyph glyph-name="Cacute" unicode="&#x106;" horiz-adv-x="613" 
d="M520 1028l73 -155l-246 -103l-39 92zM587 79q-50 -41 -120.5 -65t-142.5 -24q-137 0 -210.5 83.5t-73.5 221.5q0 118 40.5 216t121 158.5t186.5 60.5q186 0 245 -167l-198 -64q-10 35 -24.5 52t-37.5 17q-53 0 -85.5 -88t-32.5 -183q0 -74 27 -109.5t67 -35.5
q77 0 174 74z" />
    <glyph glyph-name="cacute" unicode="&#x107;" horiz-adv-x="481" 
d="M423 820l73 -155l-246 -103l-39 92zM447 46q-81 -56 -195 -56q-111 0 -170.5 59t-59.5 164q0 133 77 221t193 88q26 0 52.5 -7t54.5 -24t47.5 -52t23.5 -84l-147 -46q0 29 -7 43t-26 14q-22 0 -38 -25t-22.5 -56.5t-6.5 -63.5q0 -36 18 -55t50 -19q60 0 110 42z" />
    <glyph glyph-name="Cdotaccent" unicode="&#x10a;" horiz-adv-x="613" 
d="M411 784q-46 0 -72.5 23.5t-26.5 64.5q0 52 30 85t85 33q46 0 72 -23.5t26 -64.5q0 -53 -29.5 -85.5t-84.5 -32.5zM587 79q-50 -41 -120.5 -65t-142.5 -24q-137 0 -210.5 83.5t-73.5 221.5q0 118 40.5 216t121 158.5t186.5 60.5q186 0 245 -167l-198 -64q-10 35 -24.5 52
t-37.5 17q-53 0 -85.5 -88t-32.5 -183q0 -74 27 -109.5t67 -35.5q77 0 174 74z" />
    <glyph glyph-name="cdotaccent" unicode="&#x10b;" horiz-adv-x="481" 
d="M314 576q-46 0 -72.5 23.5t-26.5 64.5q0 52 30 85t85 33q46 0 72 -23.5t26 -64.5q0 -53 -29.5 -85.5t-84.5 -32.5zM447 46q-81 -56 -195 -56q-111 0 -170.5 59t-59.5 164q0 133 77 221t193 88q26 0 52.5 -7t54.5 -24t47.5 -52t23.5 -84l-147 -46q0 29 -7 43t-26 14
q-22 0 -38 -25t-22.5 -56.5t-6.5 -63.5q0 -36 18 -55t50 -19q60 0 110 42z" />
    <glyph glyph-name="Ccaron" unicode="&#x10c;" horiz-adv-x="613" 
d="M612 936l-212 -156l-172 156l66 92l129 -76l150 76zM349 152q77 0 174 74l64 -147q-50 -41 -120.5 -65t-142.5 -24q-137 0 -210.5 83.5t-73.5 221.5q0 118 40.5 216t121 158.5t186.5 60.5q186 0 245 -167l-198 -64q-10 35 -24.5 52t-37.5 17q-53 0 -85.5 -88t-32.5 -183
q0 -74 27 -109.5t67 -35.5z" />
    <glyph glyph-name="ccaron" unicode="&#x10d;" horiz-adv-x="481" 
d="M515 728l-212 -156l-172 156l66 92l129 -76l150 76zM290 366q-22 0 -38 -25t-22.5 -56.5t-6.5 -63.5q0 -36 18 -55t50 -19q60 0 110 42l46 -143q-81 -56 -195 -56q-111 0 -170.5 59t-59.5 164q0 133 77 221t193 88q26 0 52.5 -7t54.5 -24t47.5 -52t23.5 -84l-147 -46
q0 29 -7 43t-26 14z" />
    <glyph glyph-name="Dcaron" unicode="&#x10e;" horiz-adv-x="681" 
d="M597 936l-212 -156l-172 156l66 92l129 -76l150 76zM335 730q161 0 248.5 -80t87.5 -226q0 -198 -114 -316t-309 -118q-145 0 -227 10l101 720q85 10 213 10zM266 148q91 0 141.5 80t50.5 192q0 73 -33 112.5t-96 39.5q-12 0 -19 -1l-59 -423h15z" />
    <glyph glyph-name="dcaron" unicode="&#x10f;" horiz-adv-x="592" 
d="M595 701l-87 -588q-3 -24 -3 -36q0 -36 13 -53q-73 -34 -129 -34q-33 0 -55 23t-22 63v9q-31 -52 -65.5 -73.5t-83.5 -21.5q-53 0 -100 45.5t-47 128.5q0 157 87.5 257.5t237.5 100.5h28l34 230q75 28 122 28q34 0 52.5 -17.5t18.5 -48.5q0 -5 -1 -13zM662 780l169 -49
l-111 -191l-103 26zM264 146q26 0 44 44t38 167l3 19h-26q-47 0 -72.5 -47.5t-25.5 -112.5q0 -70 39 -70z" />
    <glyph glyph-name="Dcroat" unicode="&#x110;" horiz-adv-x="681" 
d="M335 730q161 0 248.5 -80t87.5 -226q0 -198 -114 -316t-309 -118q-145 0 -227 10l41 291h-50l21 149h50l39 280q85 10 213 10zM266 148q91 0 141.5 80t50.5 192q0 73 -33 112.5t-96 39.5q-12 0 -19 -1l-18 -131h122l-21 -149h-122l-20 -143h15z" />
    <glyph glyph-name="dcroat" unicode="&#x111;" horiz-adv-x="574" 
d="M576 570l-68 -457q-3 -24 -3 -36q0 -36 13 -53q-73 -34 -129 -34q-33 0 -55 23t-22 63v9q-31 -52 -65.5 -73.5t-83.5 -21.5q-53 0 -100 45.5t-47 128.5q0 157 87.5 257.5t237.5 100.5h28l7 48h-142l21 149h143l5 33q75 28 122 28q33 0 51 -16t20 -45h40l-21 -149h-39z
M346 357l3 19h-26q-47 0 -72.5 -47.5t-25.5 -112.5q0 -70 39 -70q26 0 44 44t38 167z" />
    <glyph glyph-name="Emacron" unicode="&#x112;" horiz-adv-x="570" 
d="M548 955l-21 -143h-292l21 143h292zM569 562h-259l-16 -116h228l-24 -158h-227l-18 -130h272l-24 -158h-479l101 720h470z" />
    <glyph glyph-name="emacron" unicode="&#x113;" horiz-adv-x="512" 
d="M201 747h292l-21 -143h-292zM273 138q67 0 129 39l59 -127q-96 -60 -212 -60q-110 0 -169 56.5t-59 159.5q0 140 79 228t214 88q90 0 138 -40.5t48 -112.5q0 -98 -73.5 -142t-190.5 -44q-19 0 -29 1q3 -24 18 -35t48 -11zM282 370q-49 0 -67 -81h14q32 0 55.5 14t23.5 41
q0 26 -26 26z" />
    <glyph glyph-name="Edotaccent" unicode="&#x116;" horiz-adv-x="570" 
d="M383 784q-46 0 -72.5 23.5t-26.5 64.5q0 52 30 85t85 33q46 0 72 -23.5t26 -64.5q0 -53 -29.5 -85.5t-84.5 -32.5zM569 562h-259l-16 -116h228l-24 -158h-227l-18 -130h272l-24 -158h-479l101 720h470z" />
    <glyph glyph-name="edotaccent" unicode="&#x117;" horiz-adv-x="512" 
d="M328 576q-46 0 -72.5 23.5t-26.5 64.5q0 52 30 85t85 33q46 0 72 -23.5t26 -64.5q0 -53 -29.5 -85.5t-84.5 -32.5zM273 138q67 0 129 39l59 -127q-96 -60 -212 -60q-110 0 -169 56.5t-59 159.5q0 140 79 228t214 88q90 0 138 -40.5t48 -112.5q0 -98 -73.5 -142
t-190.5 -44q-19 0 -29 1q3 -24 18 -35t48 -11zM282 370q-49 0 -67 -81h14q32 0 55.5 14t23.5 41q0 26 -26 26z" />
    <glyph glyph-name="Eogonek" unicode="&#x118;" horiz-adv-x="570" 
d="M569 562h-259l-16 -116h228l-24 -158h-227l-18 -130h272l-24 -158q-119 -93 -119 -139q0 -24 28 -24q21 0 55 17l16 -69q-53 -25 -106 -25q-45 0 -69.5 23.5t-24.5 64.5q0 44 30 78t88 74h-377l101 720h470z" />
    <glyph glyph-name="eogonek" unicode="&#x119;" horiz-adv-x="513" 
d="M461 50q-187 -126 -187 -189q0 -24 28 -24q21 0 55 17l16 -69q-53 -25 -106 -25q-45 0 -69.5 23.5t-24.5 64.5q0 74 90 142h-14q-110 0 -169 56.5t-59 159.5q0 140 79 228t214 88q90 0 138 -40.5t48 -112.5q0 -98 -73.5 -142t-190.5 -44q-19 0 -29 1q3 -24 18 -35t48 -11
q67 0 129 39zM282 370q-49 0 -67 -81h14q32 0 55.5 14t23.5 41q0 26 -26 26z" />
    <glyph glyph-name="Ecaron" unicode="&#x11a;" horiz-adv-x="570" 
d="M584 936l-212 -156l-172 156l66 92l129 -76l150 76zM569 562h-259l-16 -116h228l-24 -158h-227l-18 -130h272l-24 -158h-479l101 720h470z" />
    <glyph glyph-name="ecaron" unicode="&#x11b;" horiz-adv-x="512" 
d="M529 728l-212 -156l-172 156l66 92l129 -76l150 76zM500 369q0 -98 -73.5 -142t-190.5 -44q-19 0 -29 1q3 -24 18 -35t48 -11q67 0 129 39l59 -127q-96 -60 -212 -60q-110 0 -169 56.5t-59 159.5q0 140 79 228t214 88q90 0 138 -40.5t48 -112.5zM215 289h14q32 0 55.5 14
t23.5 41q0 26 -26 26q-49 0 -67 -81z" />
    <glyph glyph-name="Gbreve" unicode="&#x11e;" horiz-adv-x="685" 
d="M614 943q-12 -80 -62 -124t-127 -44t-119 37t-42 104q0 11 2 27h131q-1 -7 -1 -13q0 -42 34 -42q52 0 52 55h132zM620 113q-3 -24 -3 -36q0 -34 10 -53q-73 -34 -128 -34q-85 0 -85 84q0 9 1 19q-64 -103 -164 -103q-105 0 -159 76.5t-54 205.5q0 194 96.5 326t262.5 132
q186 0 246 -167l-199 -64q-12 36 -27 52.5t-40 16.5q-30 0 -55 -29.5t-39.5 -74t-22 -91t-7.5 -87.5q0 -134 72 -134q39 0 65.5 26.5t41.5 94.5h-79l22 158h288z" />
    <glyph glyph-name="gbreve" unicode="&#x11f;" horiz-adv-x="574" 
d="M548 735q-12 -80 -62 -124t-127 -44t-119 37t-42 104q0 11 2 27h131q-1 -7 -1 -13q0 -42 34 -42q52 0 52 55h132zM341 522q106 0 226 -10l-75 -530q-15 -104 -89 -163t-191 -59q-128 0 -224 60l107 130q62 -42 120 -42q45 0 58 20t21 76l9 66q-28 -44 -61 -62t-79 -18
q-53 0 -100 45.5t-47 128.5q0 157 87.5 257.5t237.5 100.5zM264 146q26 0 43 43.5t37 167.5l3 19h-24q-47 0 -72.5 -47.5t-25.5 -112.5q0 -70 39 -70z" />
    <glyph glyph-name="Gdotaccent" unicode="&#x120;" horiz-adv-x="685" 
d="M420 784q-46 0 -72.5 23.5t-26.5 64.5q0 52 30 85t85 33q46 0 72 -23.5t26 -64.5q0 -53 -29.5 -85.5t-84.5 -32.5zM620 113q-3 -24 -3 -36q0 -34 10 -53q-73 -34 -128 -34q-85 0 -85 84q0 9 1 19q-64 -103 -164 -103q-105 0 -159 76.5t-54 205.5q0 194 96.5 326
t262.5 132q186 0 246 -167l-199 -64q-12 36 -27 52.5t-40 16.5q-30 0 -55 -29.5t-39.5 -74t-22 -91t-7.5 -87.5q0 -134 72 -134q39 0 65.5 26.5t41.5 94.5h-79l22 158h288z" />
    <glyph glyph-name="gdotaccent" unicode="&#x121;" horiz-adv-x="574" 
d="M354 576q-46 0 -72.5 23.5t-26.5 64.5q0 52 30 85t85 33q46 0 72 -23.5t26 -64.5q0 -53 -29.5 -85.5t-84.5 -32.5zM341 522q106 0 226 -10l-75 -530q-15 -104 -89 -163t-191 -59q-128 0 -224 60l107 130q62 -42 120 -42q45 0 58 20t21 76l9 66q-28 -44 -61 -62t-79 -18
q-53 0 -100 45.5t-47 128.5q0 157 87.5 257.5t237.5 100.5zM264 146q26 0 43 43.5t37 167.5l3 19h-24q-47 0 -72.5 -47.5t-25.5 -112.5q0 -70 39 -70z" />
    <glyph glyph-name="Gcommaaccent" unicode="&#x122;" horiz-adv-x="685" 
d="M620 113q-3 -24 -3 -36q0 -34 10 -53q-73 -34 -128 -34q-85 0 -85 84q0 9 1 19q-64 -103 -164 -103q-105 0 -159 76.5t-54 205.5q0 194 96.5 326t262.5 132q186 0 246 -167l-199 -64q-12 36 -27 52.5t-40 16.5q-30 0 -55 -29.5t-39.5 -74t-22 -91t-7.5 -87.5
q0 -134 72 -134q39 0 65.5 26.5t41.5 94.5h-79l22 158h288zM288 -43q44 0 68.5 -23t24.5 -60q0 -56 -45 -85.5t-120 -29.5l-14 28q84 2 111 35q-24 -8 -50 -8q-31 0 -49.5 16t-18.5 46q0 81 93 81z" />
    <glyph glyph-name="gcommaaccent" unicode="&#x123;" horiz-adv-x="574" 
d="M386 737q62 0 62 -68q0 -45 -25 -69t-69 -24q-41 0 -64.5 24t-23.5 62q0 60 48 105.5t118 41.5l13 -28q-80 -3 -107 -52q26 8 48 8zM341 522q106 0 226 -10l-75 -530q-15 -104 -89 -163t-191 -59q-128 0 -224 60l107 130q62 -42 120 -42q45 0 58 20t21 76l9 66
q-28 -44 -61 -62t-79 -18q-53 0 -100 45.5t-47 128.5q0 157 87.5 257.5t237.5 100.5zM264 146q26 0 43 43.5t37 167.5l3 19h-24q-47 0 -72.5 -47.5t-25.5 -112.5q0 -70 39 -70z" />
    <glyph glyph-name="Hbar" unicode="&#x126;" horiz-adv-x="720" 
d="M771 663l-23 -149h-48l-73 -514h-206l42 285h-197l-40 -285h-207l75 514h-51l23 149h50l5 36q62 31 108 31q78 0 86 -67h203l5 36q60 31 107 31q79 0 87 -67h54zM488 441l10 75h-202l-10 -75h202z" />
    <glyph glyph-name="hbar" unicode="&#x127;" horiz-adv-x="575" 
d="M543 332l-32 -219q-3 -24 -3 -36q0 -34 13 -53q-73 -34 -127 -34q-84 0 -84 84q0 9 1 18l31 202q3 20 3 31q0 41 -30 41q-35 0 -55.5 -57.5t-41.5 -208.5l-14 -100h-198l83 570h-41l21 149h41l5 33q75 28 120 28q66 0 69 -61h146l-21 -149h-144l-21 -147q33 55 70 77
t84 22q62 0 95.5 -38t33.5 -107q0 -17 -4 -45z" />
    <glyph glyph-name="Imacron" unicode="&#x12a;" horiz-adv-x="318" 
d="M114 955h292l-21 -143h-292zM225 0h-206l102 699q60 31 107 31q42 0 65 -21t23 -60q0 -8 -1 -16z" />
    <glyph glyph-name="imacron" unicode="&#x12b;" horiz-adv-x="286" 
d="M62 747h292l-21 -143h-292zM276 512l-54 -399q-3 -24 -3 -36q0 -36 13 -53q-73 -34 -130 -34q-82 0 -82 84q0 9 1 18l55 420h200z" />
    <glyph glyph-name="Iogonek" unicode="&#x12e;" horiz-adv-x="318" 
d="M228 730q42 0 65 -21t23 -60q0 -8 -1 -16l-90 -633q-119 -93 -119 -139q0 -24 28 -24q21 0 55 17l16 -69q-53 -25 -106 -25q-45 0 -69.5 23.5t-24.5 64.5q0 44 30 78t88 74h-104l102 699q60 31 107 31z" />
    <glyph glyph-name="iogonek" unicode="&#x12f;" horiz-adv-x="286" 
d="M193 576q-46 0 -72.5 23.5t-26.5 64.5q0 52 30 85t85 33q46 0 72 -23.5t26 -64.5q0 -53 -29.5 -85.5t-84.5 -32.5zM277 512l-56 -399q-3 -24 -3 -36q0 -36 13 -53q-148 -111 -148 -163q0 -24 28 -24q21 0 56 17l15 -69q-53 -25 -106 -25q-44 0 -69 24t-25 64t25.5 74
t73.5 70q-62 10 -62 82q0 9 1 18l57 420h200z" />
    <glyph glyph-name="Idotaccent" unicode="&#x130;" horiz-adv-x="318" 
d="M241 784q-46 0 -72.5 23.5t-26.5 64.5q0 52 30 85t85 33q46 0 72 -23.5t26 -64.5q0 -53 -29.5 -85.5t-84.5 -32.5zM225 0h-206l102 699q60 31 107 31q42 0 65 -21t23 -60q0 -8 -1 -16z" />
    <glyph glyph-name="dotlessi" unicode="&#x131;" horiz-adv-x="286" 
d="M276 512l-54 -399q-3 -24 -3 -36q0 -36 13 -53q-73 -34 -130 -34q-82 0 -82 84q0 9 1 18l55 420h200z" />
    <glyph glyph-name="Kcommaaccent" unicode="&#x136;" horiz-adv-x="658" 
d="M316 649q0 -8 -1 -16l-90 -633h-206l102 699q60 31 107 31q42 0 65 -21t23 -60zM669 698l-179 -288l151 -384q-50 -36 -122 -36q-64 0 -95 16t-42 49l-103 309l208 366zM299 -43q44 0 68.5 -23t24.5 -60q0 -56 -45 -85.5t-120 -29.5l-14 28q84 2 111 35q-24 -8 -50 -8
q-31 0 -49.5 16t-18.5 46q0 81 93 81z" />
    <glyph glyph-name="kcommaaccent" unicode="&#x137;" horiz-adv-x="595" 
d="M304 714q0 -5 -1 -13l-99 -701h-198l109 752q75 28 120 28q69 0 69 -66zM593 494l-145 -201l131 -278q-55 -25 -126 -25q-98 0 -122 62l-84 217l165 253zM256 -43q44 0 68.5 -23t24.5 -60q0 -56 -45 -85.5t-120 -29.5l-14 28q84 2 111 35q-24 -8 -50 -8q-31 0 -49.5 16
t-18.5 46q0 81 93 81z" />
    <glyph glyph-name="Lacute" unicode="&#x139;" horiz-adv-x="531" 
d="M423 873l-246 -103l-39 92l212 166zM248 164h260l-24 -164h-465l102 699q60 31 107 31q42 0 65 -21t23 -60q0 -8 -1 -16z" />
    <glyph glyph-name="lacute" unicode="&#x13a;" horiz-adv-x="334" 
d="M334 1078l73 -155l-246 -103l-39 92zM179 -10q-75 0 -114.5 38.5t-39.5 109.5q0 12 1 23l84 591q75 28 120 28q70 0 70 -66q0 -5 -1 -13l-71 -518q-1 -8 -1 -13q0 -23 29 -23q25 0 41 7l15 -129q-60 -35 -133 -35z" />
    <glyph glyph-name="Lcommaaccent" unicode="&#x13b;" horiz-adv-x="531" 
d="M248 164h260l-24 -164h-465l102 699q60 31 107 31q42 0 65 -21t23 -60q0 -8 -1 -16zM235 -43q44 0 68.5 -23t24.5 -60q0 -56 -45 -85.5t-120 -29.5l-14 28q84 2 111 35q-24 -8 -50 -8q-31 0 -49.5 16t-18.5 46q0 81 93 81z" />
    <glyph glyph-name="lcommaaccent" unicode="&#x13c;" horiz-adv-x="334" 
d="M179 -10q-75 0 -114.5 38.5t-39.5 109.5q0 12 1 23l84 591q75 28 120 28q70 0 70 -66q0 -5 -1 -13l-71 -518q-1 -8 -1 -13q0 -23 29 -23q25 0 41 7l15 -129q-60 -35 -133 -35zM107 -43q44 0 68.5 -23t24.5 -60q0 -56 -45 -85.5t-120 -29.5l-14 28q84 2 111 35
q-24 -8 -50 -8q-31 0 -49.5 16t-18.5 46q0 81 93 81z" />
    <glyph glyph-name="Lcaron" unicode="&#x13d;" horiz-adv-x="548" 
d="M315 633l-67 -469h260l-24 -164h-465l102 699q60 31 107 31q42 0 65 -21t23 -60q0 -8 -1 -16zM593 681l-111 -191l-103 26l45 214z" />
    <glyph glyph-name="lcaron" unicode="&#x13e;" horiz-adv-x="351" 
d="M179 -10q-75 0 -114.5 38.5t-39.5 109.5q0 12 1 23l84 591q75 28 120 28q70 0 70 -66q0 -5 -1 -13l-71 -518q-1 -8 -1 -13q0 -23 29 -23q25 0 41 7l15 -129q-60 -35 -133 -35zM362 780l169 -49l-111 -191l-103 26z" />
    <glyph glyph-name="Lslash" unicode="&#x141;" horiz-adv-x="540" 
d="M257 164h260l-24 -164h-465l38 262l-54 -19l20 136l54 18l44 302q60 31 107 31q42 0 65 -21t23 -60q0 -8 -1 -16l-25 -173l167 62l-19 -135l-167 -63z" />
    <glyph glyph-name="lslash" unicode="&#x142;" horiz-adv-x="385" 
d="M287 348l-23 -165q-1 -8 -1 -13q0 -23 29 -23q25 0 41 7l15 -129q-60 -35 -133 -35q-75 0 -114.5 38.5t-39.5 109.5q0 12 1 23l15 105l-51 -23l18 136l52 24l50 349q75 28 120 28q70 0 70 -66q0 -5 -1 -13l-30 -217l84 38l-18 -135z" />
    <glyph glyph-name="Nacute" unicode="&#x143;" horiz-adv-x="724" 
d="M553 1028l73 -155l-246 -103l-39 92zM534 720h198l-101 -720h-163l-203 362l-47 -362h-197l100 699q42 31 96 31q67 0 102 -64l171 -309z" />
    <glyph glyph-name="nacute" unicode="&#x144;" horiz-adv-x="578" 
d="M472 820l73 -155l-246 -103l-39 92zM546 332l-31 -219q-4 -28 -4 -36q0 -34 13 -53q-73 -34 -127 -34q-84 0 -84 84q0 9 1 18l31 202q3 20 3 31q0 41 -30 41q-34 0 -53.5 -56t-42.5 -210l-15 -100h-200l70 498q59 24 105 24q39 0 58.5 -26.5t19.5 -68.5v-17
q35 63 73 87.5t88 24.5q62 0 95.5 -38t33.5 -107q0 -17 -4 -45z" />
    <glyph glyph-name="Ncommaaccent" unicode="&#x145;" horiz-adv-x="724" 
d="M534 720h198l-101 -720h-163l-203 362l-47 -362h-197l100 699q42 31 96 31q67 0 102 -64l171 -309zM311 -43q44 0 68.5 -23t24.5 -60q0 -56 -45 -85.5t-120 -29.5l-14 28q84 2 111 35q-24 -8 -50 -8q-31 0 -49.5 16t-18.5 46q0 81 93 81z" />
    <glyph glyph-name="ncommaaccent" unicode="&#x146;" horiz-adv-x="578" 
d="M546 332l-31 -219q-4 -28 -4 -36q0 -34 13 -53q-73 -34 -127 -34q-84 0 -84 84q0 9 1 18l31 202q3 20 3 31q0 41 -30 41q-34 0 -53.5 -56t-42.5 -210l-15 -100h-200l70 498q59 24 105 24q39 0 58.5 -26.5t19.5 -68.5v-17q35 63 73 87.5t88 24.5q62 0 95.5 -38t33.5 -107
q0 -17 -4 -45zM216 -43q44 0 68.5 -23t24.5 -60q0 -56 -45 -85.5t-120 -29.5l-14 28q84 2 111 35q-24 -8 -50 -8q-31 0 -49.5 16t-18.5 46q0 81 93 81z" />
    <glyph glyph-name="Ncaron" unicode="&#x147;" horiz-adv-x="724" 
d="M645 936l-212 -156l-172 156l66 92l129 -76l150 76zM534 720h198l-101 -720h-163l-203 362l-47 -362h-197l100 699q42 31 96 31q67 0 102 -64l171 -309z" />
    <glyph glyph-name="ncaron" unicode="&#x148;" horiz-adv-x="578" 
d="M564 728l-212 -156l-172 156l66 92l129 -76l150 76zM421 522q62 0 95.5 -38t33.5 -107q0 -17 -4 -45l-31 -219q-4 -28 -4 -36q0 -34 13 -53q-73 -34 -127 -34q-84 0 -84 84q0 9 1 18l31 202q3 20 3 31q0 41 -30 41q-34 0 -53.5 -56t-42.5 -210l-15 -100h-200l70 498
q59 24 105 24q39 0 58.5 -26.5t19.5 -68.5v-17q35 63 73 87.5t88 24.5z" />
    <glyph glyph-name="Eng" unicode="&#x14a;" horiz-adv-x="724" 
d="M537 720h195l-109 -778q-13 -89 -77 -141.5t-161 -52.5q-81 0 -139 29l55 147q25 -15 70 -15q27 0 46 15.5t23 44.5l8 66l-183 327l-47 -362h-197l100 699q42 31 96 31q67 0 102 -64l171 -309z" />
    <glyph glyph-name="eng" unicode="&#x14b;" horiz-adv-x="574" 
d="M420 522q62 0 95.5 -38t33.5 -107q0 -17 -4 -45l-50 -368q-12 -86 -59 -131t-128 -74l-77 144q24 7 44 34t26 71l43 286q3 20 3 31q0 41 -30 41q-34 0 -54 -57.5t-42 -208.5l-14 -100h-200l70 498q57 24 105 24q39 0 58.5 -26.5t19.5 -68.5v-16q34 62 72 86.5t88 24.5z
" />
    <glyph glyph-name="Omacron" unicode="&#x14c;" horiz-adv-x="745" 
d="M326 955h292l-21 -143h-292zM344 -10q-145 0 -225 78t-80 219q0 197 104.5 320t287.5 123q145 0 224.5 -78.5t79.5 -221.5q0 -195 -104.5 -317.5t-286.5 -122.5zM364 152q51 0 87.5 43t52 103t15.5 127q0 69 -26.5 106t-77.5 37q-75 0 -117 -83t-42 -188q0 -70 28 -107.5
t80 -37.5z" />
    <glyph glyph-name="omacron" unicode="&#x14d;" horiz-adv-x="576" 
d="M215 747h292l-21 -143h-292zM259 -10q-115 0 -176 58.5t-61 163.5q0 143 79 226.5t219 83.5q113 0 173.5 -59t60.5 -166q0 -142 -78.5 -224.5t-216.5 -82.5zM277 147q36 0 56.5 45t20.5 101q0 73 -56 73q-36 0 -56 -46t-20 -100q0 -73 55 -73z" />
    <glyph glyph-name="Ohungarumlaut" unicode="&#x150;" horiz-adv-x="745" 
d="M423 1036l114 -123l-224 -164l-63 76zM664 1036l114 -123l-222 -164l-65 76zM344 -10q-145 0 -225 78t-80 219q0 197 104.5 320t287.5 123q145 0 224.5 -78.5t79.5 -221.5q0 -195 -104.5 -317.5t-286.5 -122.5zM364 152q51 0 87.5 43t52 103t15.5 127q0 69 -26.5 106
t-77.5 37q-75 0 -117 -83t-42 -188q0 -70 28 -107.5t80 -37.5z" />
    <glyph glyph-name="ohungarumlaut" unicode="&#x151;" horiz-adv-x="576" 
d="M312 828l114 -123l-224 -164l-63 76zM553 828l114 -123l-222 -164l-65 76zM259 -10q-115 0 -176 58.5t-61 163.5q0 143 79 226.5t219 83.5q113 0 173.5 -59t60.5 -166q0 -142 -78.5 -224.5t-216.5 -82.5zM277 147q36 0 56.5 45t20.5 101q0 73 -56 73q-36 0 -56 -46
t-20 -100q0 -73 55 -73z" />
    <glyph glyph-name="OE" unicode="&#x152;" horiz-adv-x="978" 
d="M975 562h-240l-16 -116h210l-24 -158h-209l-18 -130h255l-23 -158h-463l7 48q-73 -58 -170 -58q-117 0 -180.5 74t-63.5 208q0 123 35.5 224.5t112 167.5t182.5 66q108 0 170 -68l8 58h451zM349 152q49 0 86 46t53 108t16 126q0 66 -26.5 101t-76.5 35q-47 0 -81.5 -44
t-49 -104.5t-14.5 -126.5q0 -67 24.5 -104t68.5 -37z" />
    <glyph glyph-name="oe" unicode="&#x153;" horiz-adv-x="822" 
d="M583 138q67 0 129 39l59 -127q-96 -60 -212 -60q-97 0 -147 58q-66 -58 -163 -58q-109 0 -168 58.5t-59 163.5q0 143 76 226.5t212 83.5q97 0 146 -64q67 64 168 64q90 0 138 -40.5t48 -112.5q0 -98 -73.5 -142t-190.5 -44q-19 0 -29 1q3 -24 18 -35t48 -11zM592 370
q-49 0 -67 -81h14q32 0 55.5 14t23.5 41q0 26 -26 26zM266 147q32 0 50 45t18 101q0 73 -46 73q-31 0 -48.5 -46t-17.5 -100q0 -73 44 -73z" />
    <glyph glyph-name="Racute" unicode="&#x154;" horiz-adv-x="653" 
d="M489 1028l73 -155l-246 -103l-39 92zM526 345q75 -44 75 -137q0 -19 -2 -36l-8 -59q-4 -32 -4 -36q0 -33 11 -53q-78 -34 -133 -34q-42 0 -64.5 22t-22.5 62q0 9 1 18l8 60q2 12 2 21q0 39 -20.5 62t-50.5 23h-50l-37 -258h-209l101 720q100 10 261 10q124 0 191.5 -46
t67.5 -131q0 -137 -117 -208zM421 516q0 56 -62 56q-28 0 -47 -1l-22 -155h24q53 0 80 28t27 72z" />
    <glyph glyph-name="racute" unicode="&#x155;" horiz-adv-x="406" 
d="M384 820l73 -155l-246 -103l-39 92zM370 522q41 0 77 -19l-76 -170q-20 16 -50 16q-40 0 -59 -54t-42 -211l-12 -84h-200l68 498q57 24 105 24q38 0 57.5 -25t20.5 -66q24 50 50.5 70.5t60.5 20.5z" />
    <glyph glyph-name="Rcommaaccent" unicode="&#x156;" horiz-adv-x="653" 
d="M526 345q75 -44 75 -137q0 -19 -2 -36l-8 -59q-4 -32 -4 -36q0 -33 11 -53q-78 -34 -133 -34q-42 0 -64.5 22t-22.5 62q0 9 1 18l8 60q2 12 2 21q0 39 -20.5 62t-50.5 23h-50l-37 -258h-209l101 720q100 10 261 10q124 0 191.5 -46t67.5 -131q0 -137 -117 -208zM421 516
q0 56 -62 56q-28 0 -47 -1l-22 -155h24q53 0 80 28t27 72zM274 -43q44 0 68.5 -23t24.5 -60q0 -56 -45 -85.5t-120 -29.5l-14 28q84 2 111 35q-24 -8 -50 -8q-31 0 -49.5 16t-18.5 46q0 81 93 81z" />
    <glyph glyph-name="rcommaaccent" unicode="&#x157;" horiz-adv-x="406" 
d="M370 522q41 0 77 -19l-76 -170q-20 16 -50 16q-40 0 -59 -54t-42 -211l-12 -84h-200l68 498q57 24 105 24q38 0 57.5 -25t20.5 -66q24 50 50.5 70.5t60.5 20.5zM88 -43q44 0 68.5 -23t24.5 -60q0 -56 -45 -85.5t-120 -29.5l-14 28q84 2 111 35q-24 -8 -50 -8
q-31 0 -49.5 16t-18.5 46q0 81 93 81z" />
    <glyph glyph-name="Rcaron" unicode="&#x158;" horiz-adv-x="653" 
d="M581 936l-212 -156l-172 156l66 92l129 -76l150 76zM526 345q75 -44 75 -137q0 -19 -2 -36l-8 -59q-4 -32 -4 -36q0 -33 11 -53q-78 -34 -133 -34q-42 0 -64.5 22t-22.5 62q0 9 1 18l8 60q2 12 2 21q0 39 -20.5 62t-50.5 23h-50l-37 -258h-209l101 720q100 10 261 10
q124 0 191.5 -46t67.5 -131q0 -137 -117 -208zM314 416q53 0 80 28t27 72q0 56 -62 56q-28 0 -47 -1l-22 -155h24z" />
    <glyph glyph-name="rcaron" unicode="&#x159;" horiz-adv-x="406" 
d="M476 728l-212 -156l-172 156l66 92l129 -76l150 76zM259 431q24 50 50.5 70.5t60.5 20.5q41 0 77 -19l-76 -170q-20 16 -50 16q-40 0 -59 -54t-42 -211l-12 -84h-200l68 498q57 24 105 24q38 0 57.5 -25t20.5 -66z" />
    <glyph glyph-name="Sacute" unicode="&#x15a;" horiz-adv-x="570" 
d="M469 1028l73 -155l-246 -103l-39 92zM349 730q131 0 228 -76l-103 -131q-49 45 -119 45q-27 0 -46 -12t-19 -29q0 -20 20.5 -34.5t61.5 -29.5q34 -13 60.5 -27.5t54 -39t42.5 -62t15 -85.5q0 -120 -86.5 -189.5t-226.5 -69.5q-142 0 -234 84l68 137q61 -59 173 -59
q88 0 88 51q0 16 -11.5 29t-25 20t-39.5 17q-27 11 -47.5 20.5t-46 28.5t-42 41t-28 56.5t-11.5 76.5q0 112 72.5 175t201.5 63z" />
    <glyph glyph-name="sacute" unicode="&#x15b;" horiz-adv-x="472" 
d="M394 820l73 -155l-246 -103l-39 92zM270 522q122 0 202 -72l-80 -100q-60 36 -114 36q-17 0 -29 -6t-12 -17q0 -14 43 -30q37 -14 58 -23.5t48 -28t39.5 -43.5t12.5 -59q0 -90 -67 -139.5t-169 -49.5q-130 0 -211 73l62 117q34 -27 76.5 -39t68.5 -12q43 0 43 23
q0 20 -58 39q-28 9 -49 19t-43.5 26.5t-34.5 40.5t-12 55q0 89 62.5 139.5t163.5 50.5z" />
    <glyph glyph-name="Scedilla" unicode="&#x15e;" horiz-adv-x="570" 
d="M372 463q34 -13 60.5 -27.5t54 -39t42.5 -62t15 -85.5q0 -107 -70 -174.5t-187 -81.5l-23 -25q48 -25 48 -88q0 -57 -38.5 -88.5t-100.5 -31.5q-51 0 -91 26l37 65q23 -14 52 -14q15 0 25 10t10 26q0 44 -80 56l52 64q-106 15 -181 81l68 137q61 -59 173 -59q88 0 88 51
q0 16 -11.5 29t-25 20t-39.5 17q-27 11 -47.5 20.5t-46 28.5t-42 41t-28 56.5t-11.5 76.5q0 112 72.5 175t201.5 63q131 0 228 -76l-103 -131q-49 45 -119 45q-27 0 -46 -12t-19 -29q0 -20 20.5 -34.5t61.5 -29.5z" />
    <glyph glyph-name="scedilla" unicode="&#x15f;" horiz-adv-x="472" 
d="M280 333q37 -14 58 -23.5t48 -28t39.5 -43.5t12.5 -59q0 -82 -57 -131t-147 -57l-21 -23q48 -25 48 -88q0 -57 -38.5 -88.5t-100.5 -31.5q-51 0 -91 26l37 65q23 -14 52 -14q15 0 25 10t10 26q0 44 -80 56l55 67q-82 16 -139 67l62 117q34 -27 76.5 -39t68.5 -12
q43 0 43 23q0 20 -58 39q-28 9 -49 19t-43.5 26.5t-34.5 40.5t-12 55q0 89 62.5 139.5t163.5 50.5q122 0 202 -72l-80 -100q-60 36 -114 36q-17 0 -29 -6t-12 -17q0 -14 43 -30z" />
    <glyph glyph-name="Scaron" unicode="&#x160;" horiz-adv-x="570" 
d="M561 936l-212 -156l-172 156l66 92l129 -76l150 76zM372 463q34 -13 60.5 -27.5t54 -39t42.5 -62t15 -85.5q0 -120 -86.5 -189.5t-226.5 -69.5q-142 0 -234 84l68 137q61 -59 173 -59q88 0 88 51q0 16 -11.5 29t-25 20t-39.5 17q-27 11 -47.5 20.5t-46 28.5t-42 41
t-28 56.5t-11.5 76.5q0 112 72.5 175t201.5 63q131 0 228 -76l-103 -131q-49 45 -119 45q-27 0 -46 -12t-19 -29q0 -20 20.5 -34.5t61.5 -29.5z" />
    <glyph glyph-name="scaron" unicode="&#x161;" horiz-adv-x="472" 
d="M486 728l-212 -156l-172 156l66 92l129 -76l150 76zM278 386q-17 0 -29 -6t-12 -17q0 -14 43 -30q37 -14 58 -23.5t48 -28t39.5 -43.5t12.5 -59q0 -90 -67 -139.5t-169 -49.5q-130 0 -211 73l62 117q34 -27 76.5 -39t68.5 -12q43 0 43 23q0 20 -58 39q-28 9 -49 19
t-43.5 26.5t-34.5 40.5t-12 55q0 89 62.5 139.5t163.5 50.5q122 0 202 -72l-80 -100q-60 36 -114 36z" />
    <glyph glyph-name="uni0162" unicode="&#x162;" horiz-adv-x="544" 
d="M592 720l-24 -158h-150l-79 -562h-46l-29 -32q48 -25 48 -88q0 -57 -38.5 -88.5t-100.5 -31.5q-51 0 -91 26l37 65q23 -14 52 -14q15 0 25 10t10 26q0 44 -80 56l58 71h-54l79 562h-149l24 158h508z" />
    <glyph glyph-name="uni0163" unicode="&#x163;" horiz-adv-x="422" 
d="M292 364l-21 -168q-1 -7 -1 -14q0 -35 33 -35q39 0 69 17l12 -144q-69 -30 -146 -30h-13l-20 -22q48 -25 48 -88q0 -57 -38.5 -88.5t-100.5 -31.5q-51 0 -91 26l37 65q23 -14 52 -14q15 0 25 10t10 26q0 44 -80 56l68 83q-70 38 -70 129q0 15 3 33l25 190h-64l21 148h71
l15 109q66 26 108 26q37 0 57 -21.5t20 -56.5q0 -5 -1 -12l-6 -45h116l-20 -148h-118z" />
    <glyph glyph-name="Tcaron" unicode="&#x164;" horiz-adv-x="544" 
d="M552 936l-212 -156l-172 156l66 92l129 -76l150 76zM592 720l-24 -158h-150l-79 -562h-209l79 562h-149l24 158h508z" />
    <glyph glyph-name="tcaron" unicode="&#x165;" horiz-adv-x="422" 
d="M392 780l169 -49l-111 -191l-103 26zM320 557l-6 -45h116l-20 -148h-118l-21 -168q-1 -7 -1 -14q0 -35 33 -35q39 0 69 17l12 -144q-69 -30 -146 -30q-83 0 -128 39.5t-45 111.5q0 15 3 33l25 190h-64l21 148h71l15 109q66 26 108 26q37 0 57 -21.5t20 -56.5q0 -5 -1 -12
z" />
    <glyph glyph-name="Tbar" unicode="&#x166;" horiz-adv-x="544" 
d="M568 562h-150l-18 -127h86l-21 -149h-86l-40 -286h-209l40 286h-86l21 149h86l18 127h-149l24 158h508z" />
    <glyph glyph-name="tbar" unicode="&#x167;" horiz-adv-x="422" 
d="M410 364h-118l-4 -29h120l-21 -149h-117v-4q0 -35 33 -35q39 0 69 17l12 -144q-69 -30 -146 -30q-83 0 -128 39.5t-45 111.5q0 15 3 33l2 12h-64l21 149h62l4 29h-64l21 148h71l15 109q66 26 108 26q37 0 57 -21.5t20 -56.5q0 -5 -1 -12l-6 -45h116z" />
    <glyph glyph-name="Umacron" unicode="&#x16a;" horiz-adv-x="686" 
d="M296 955h292l-21 -143h-292zM446 291l61 408q52 31 101 31q38 0 59 -21.5t21 -59.5q0 -8 -1 -16l-49 -369q-17 -132 -101.5 -203t-224.5 -71q-127 0 -195.5 62t-68.5 174q0 32 3 49l65 424q60 31 110 31q41 0 63 -21.5t22 -61.5q0 -7 -1 -14l-48 -353q-4 -32 -4 -39
q0 -89 73 -89q94 0 115 139z" />
    <glyph glyph-name="umacron" unicode="&#x16b;" horiz-adv-x="563" 
d="M200 747h292l-21 -143h-292zM547 443l-49 -330q-3 -24 -3 -36q0 -36 13 -53q-73 -34 -129 -34q-33 0 -55 23t-22 63v17q-62 -103 -154 -103q-124 0 -124 142q0 24 3 49l45 313q75 28 123 28q71 0 71 -66q0 -5 -1 -13l-35 -225q-3 -19 -3 -30v-3q0 -11 0.5 -17.5t7 -13.5
t18.5 -7q32 0 47.5 41t34.5 171l20 135q77 28 122 28q34 0 52.5 -17.5t18.5 -48.5q0 -5 -1 -13z" />
    <glyph glyph-name="Uring" unicode="&#x16e;" horiz-adv-x="686" 
d="M423 766q-60 0 -93.5 29t-33.5 82q0 66 40.5 106t107.5 40q59 0 92 -30t33 -83q0 -66 -39.5 -105t-106.5 -39zM429 849q19 0 30.5 17.5t11.5 38.5q0 17 -9 26t-22 9q-19 0 -31 -17.5t-12 -41.5q0 -32 32 -32zM446 291l61 408q52 31 101 31q38 0 59 -21.5t21 -59.5
q0 -8 -1 -16l-49 -369q-17 -132 -101.5 -203t-224.5 -71q-127 0 -195.5 62t-68.5 174q0 32 3 49l65 424q60 31 110 31q41 0 63 -21.5t22 -61.5q0 -7 -1 -14l-48 -353q-4 -32 -4 -39q0 -89 73 -89q94 0 115 139z" />
    <glyph glyph-name="uring" unicode="&#x16f;" horiz-adv-x="563" 
d="M327 558q-60 0 -93.5 29t-33.5 82q0 66 40.5 106t107.5 40q59 0 92 -30t33 -83q0 -66 -39.5 -105t-106.5 -39zM333 641q19 0 30.5 17.5t11.5 38.5q0 17 -9 26t-22 9q-19 0 -31 -17.5t-12 -41.5q0 -32 32 -32zM547 443l-49 -330q-3 -24 -3 -36q0 -36 13 -53
q-73 -34 -129 -34q-33 0 -55 23t-22 63v17q-62 -103 -154 -103q-124 0 -124 142q0 24 3 49l45 313q75 28 123 28q71 0 71 -66q0 -5 -1 -13l-35 -225q-3 -19 -3 -30v-3q0 -11 0.5 -17.5t7 -13.5t18.5 -7q32 0 47.5 41t34.5 171l20 135q77 28 122 28q34 0 52.5 -17.5
t18.5 -48.5q0 -5 -1 -13z" />
    <glyph glyph-name="Uhungarumlaut" unicode="&#x170;" horiz-adv-x="686" 
d="M393 1036l114 -123l-224 -164l-63 76zM634 1036l114 -123l-222 -164l-65 76zM446 291l61 408q52 31 101 31q38 0 59 -21.5t21 -59.5q0 -8 -1 -16l-49 -369q-17 -132 -101.5 -203t-224.5 -71q-127 0 -195.5 62t-68.5 174q0 32 3 49l65 424q60 31 110 31q41 0 63 -21.5
t22 -61.5q0 -7 -1 -14l-48 -353q-4 -32 -4 -39q0 -89 73 -89q94 0 115 139z" />
    <glyph glyph-name="uhungarumlaut" unicode="&#x171;" horiz-adv-x="563" 
d="M297 828l114 -123l-224 -164l-63 76zM538 828l114 -123l-222 -164l-65 76zM547 443l-49 -330q-3 -24 -3 -36q0 -36 13 -53q-73 -34 -129 -34q-33 0 -55 23t-22 63v17q-62 -103 -154 -103q-124 0 -124 142q0 24 3 49l45 313q75 28 123 28q71 0 71 -66q0 -5 -1 -13
l-35 -225q-3 -19 -3 -30v-3q0 -11 0.5 -17.5t7 -13.5t18.5 -7q32 0 47.5 41t34.5 171l20 135q77 28 122 28q34 0 52.5 -17.5t18.5 -48.5q0 -5 -1 -13z" />
    <glyph glyph-name="Uogonek" unicode="&#x172;" horiz-adv-x="686" 
d="M608 730q38 0 59 -21.5t21 -59.5q0 -8 -1 -16l-49 -369q-23 -167 -150 -235q-90 -47 -143.5 -92.5t-53.5 -75.5q0 -24 28 -24q21 0 55 17l16 -69q-53 -25 -106 -25q-45 0 -69.5 23.5t-24.5 64.5q0 73 113 142q-122 2 -188.5 64.5t-66.5 171.5q0 32 3 49l65 424
q60 31 110 31q41 0 63 -21.5t22 -61.5q0 -7 -1 -14l-48 -353q-4 -32 -4 -39q0 -89 73 -89q94 0 115 139l61 408q52 31 101 31z" />
    <glyph glyph-name="uogonek" unicode="&#x173;" horiz-adv-x="563" 
d="M547 443l-49 -330q-3 -24 -3 -36q0 -36 13 -53q-120 -106 -120 -163q0 -24 28 -24q21 0 55 17l16 -69q-53 -25 -106 -25q-45 0 -69.5 23.5t-24.5 64.5q0 71 83 142q-30 3 -49 26t-19 60v17q-62 -103 -154 -103q-124 0 -124 142q0 24 3 49l45 313q75 28 123 28
q71 0 71 -66q0 -5 -1 -13l-35 -225q-3 -19 -3 -30v-3q0 -11 0.5 -17.5t7 -13.5t18.5 -7q32 0 47.5 41t34.5 171l20 135q77 28 122 28q34 0 52.5 -17.5t18.5 -48.5q0 -5 -1 -13z" />
    <glyph glyph-name="Wcircumflex" unicode="&#x174;" horiz-adv-x="944" 
d="M555 846l-150 -76l-39 92l212 156l172 -156l-66 -92zM818 730l185 -32l-277 -698h-215l-7 284l2 246l-65 -246l-82 -284h-205l-96 701q40 29 101 29q63 0 95 -21.5t36 -83.5l18 -259l3 -179l47 193l89 321q43 29 110 29q51 0 85 -34t32 -82l-8 -274l-1 -149l47 163z" />
    <glyph glyph-name="wcircumflex" unicode="&#x175;" horiz-adv-x="803" 
d="M450 638l-150 -76l-39 92l212 156l172 -156l-66 -92zM642 522l173 -28q-35 -251 -216 -494h-191l-10 226q-35 -115 -94 -226h-184l-87 498q51 24 117 24q45 0 74 -23t32 -72l9 -155l-4 -111q70 172 93 337q38 24 85 24q37 0 62.5 -23.5t26.5 -71.5l5 -146l-4 -118
q82 182 113 359z" />
    <glyph glyph-name="Ycircumflex" unicode="&#x176;" horiz-adv-x="613" 
d="M393 846l-150 -76l-39 92l212 156l172 -156l-66 -92zM484 730l193 -32l-259 -408l-42 -290h-209l41 279l-149 422q43 29 114 29q118 0 138 -74l24 -92l20 -113l56 124z" />
    <glyph glyph-name="ycircumflex" unicode="&#x177;" horiz-adv-x="541" 
d="M323 638l-150 -76l-39 92l212 156l172 -156l-66 -92zM367 522l187 -28q-10 -76 -49.5 -183.5t-98 -218.5t-141 -204.5t-166.5 -129.5l-72 136q78 33 138 112q-56 18 -65 81l-60 411q53 24 115 24q45 0 75 -23t31 -72l2 -162l-4 -123q57 131 108 380z" />
    <glyph glyph-name="Ydieresis" unicode="&#x178;" horiz-adv-x="613" 
d="M269 784q-46 0 -72.5 23.5t-26.5 64.5q0 52 30 85t85 33q46 0 72 -23.5t26 -64.5q0 -53 -29.5 -85.5t-84.5 -32.5zM507 784q-46 0 -72.5 23.5t-26.5 64.5q0 52 30 85t85 33q46 0 72 -23.5t26 -64.5q0 -53 -29.5 -85.5t-84.5 -32.5zM677 698l-259 -408l-42 -290h-209
l41 279l-149 422q43 29 114 29q118 0 138 -74l24 -92l20 -113l56 124l73 155z" />
    <glyph glyph-name="Zacute" unicode="&#x179;" horiz-adv-x="584" 
d="M476 1028l73 -155l-246 -103l-39 92zM539 496l-198 -251l-80 -87h277l-24 -158h-528l19 133l257 309l103 120h-279l24 158h489q13 -34 13 -66q0 -66 -73 -158z" />
    <glyph glyph-name="zacute" unicode="&#x17a;" horiz-adv-x="484" 
d="M405 820l73 -155l-246 -103l-39 92zM290 202l-60 -54h217l-24 -148h-434l18 135l176 180l52 49h-184l25 148h387q14 -37 14 -71q0 -35 -11 -58t-48 -58z" />
    <glyph glyph-name="Zdotaccent" unicode="&#x17b;" horiz-adv-x="584" 
d="M367 784q-46 0 -72.5 23.5t-26.5 64.5q0 52 30 85t85 33q46 0 72 -23.5t26 -64.5q0 -53 -29.5 -85.5t-84.5 -32.5zM539 496l-198 -251l-80 -87h277l-24 -158h-528l19 133l257 309l103 120h-279l24 158h489q13 -34 13 -66q0 -66 -73 -158z" />
    <glyph glyph-name="zdotaccent" unicode="&#x17c;" horiz-adv-x="484" 
d="M296 576q-46 0 -72.5 23.5t-26.5 64.5q0 52 30 85t85 33q46 0 72 -23.5t26 -64.5q0 -53 -29.5 -85.5t-84.5 -32.5zM290 202l-60 -54h217l-24 -148h-434l18 135l176 180l52 49h-184l25 148h387q14 -37 14 -71q0 -35 -11 -58t-48 -58z" />
    <glyph glyph-name="Zcaron" unicode="&#x17d;" horiz-adv-x="584" 
d="M568 936l-212 -156l-172 156l66 92l129 -76l150 76zM539 496l-198 -251l-80 -87h277l-24 -158h-528l19 133l257 309l103 120h-279l24 158h489q13 -34 13 -66q0 -66 -73 -158z" />
    <glyph glyph-name="zcaron" unicode="&#x17e;" horiz-adv-x="484" 
d="M497 728l-212 -156l-172 156l66 92l129 -76l150 76zM418 325l-128 -123l-60 -54h217l-24 -148h-434l18 135l176 180l52 49h-184l25 148h387q14 -37 14 -71q0 -35 -11 -58t-48 -58z" />
    <glyph glyph-name="uni018F" unicode="&#x18f;" horiz-adv-x="660" 
d="M349 730q144 0 223 -75.5t79 -213.5q0 -199 -101.5 -325t-278.5 -126q-117 0 -182 53.5t-65 149.5q0 137 94 208t249 71q33 0 73 -5q-11 101 -113 101q-100 0 -175 -59l-71 140q121 81 268 81zM291 152q51 0 86 50.5t52 127.5q-30 3 -57 3q-61 0 -96.5 -33.5t-35.5 -90.5
q0 -26 13.5 -41.5t37.5 -15.5z" />
    <glyph glyph-name="florin" unicode="&#x192;" horiz-adv-x="557" 
d="M468 780q82 0 156 -37l-55 -135q-33 15 -74 15q-56 0 -76 -67l-42 -144h88l-23 -148h-109l-90 -307q-25 -85 -75 -128.5t-131 -71.5l-62 149q24 8 49.5 36t37.5 72l72 250h-59l23 148h78l58 201q24 83 84 125t150 42z" />
    <glyph glyph-name="Scommaaccent" unicode="&#x218;" horiz-adv-x="570" 
d="M349 730q131 0 228 -76l-103 -131q-49 45 -119 45q-27 0 -46 -12t-19 -29q0 -20 20.5 -34.5t61.5 -29.5q34 -13 60.5 -27.5t54 -39t42.5 -62t15 -85.5q0 -120 -86.5 -189.5t-226.5 -69.5q-142 0 -234 84l68 137q61 -59 173 -59q88 0 88 51q0 16 -11.5 29t-25 20t-39.5 17
q-27 11 -47.5 20.5t-46 28.5t-42 41t-28 56.5t-11.5 76.5q0 112 72.5 175t201.5 63zM229 -43q44 0 68.5 -23t24.5 -60q0 -56 -45 -85.5t-120 -29.5l-14 28q84 2 111 35q-24 -8 -50 -8q-31 0 -49.5 16t-18.5 46q0 81 93 81z" />
    <glyph glyph-name="scommaaccent" unicode="&#x219;" horiz-adv-x="472" 
d="M270 522q122 0 202 -72l-80 -100q-60 36 -114 36q-17 0 -29 -6t-12 -17q0 -14 43 -30q37 -14 58 -23.5t48 -28t39.5 -43.5t12.5 -59q0 -90 -67 -139.5t-169 -49.5q-130 0 -211 73l62 117q34 -27 76.5 -39t68.5 -12q43 0 43 23q0 20 -58 39q-28 9 -49 19t-43.5 26.5
t-34.5 40.5t-12 55q0 89 62.5 139.5t163.5 50.5zM178 -43q44 0 68.5 -23t24.5 -60q0 -56 -45 -85.5t-120 -29.5l-14 28q84 2 111 35q-24 -8 -50 -8q-31 0 -49.5 16t-18.5 46q0 81 93 81z" />
    <glyph glyph-name="uni021A" unicode="&#x21a;" horiz-adv-x="544" 
d="M592 720l-24 -158h-150l-79 -562h-209l79 562h-149l24 158h508zM218 -43q44 0 68.5 -23t24.5 -60q0 -56 -45 -85.5t-120 -29.5l-14 28q84 2 111 35q-24 -8 -50 -8q-31 0 -49.5 16t-18.5 46q0 81 93 81z" />
    <glyph glyph-name="uni021B" unicode="&#x21b;" horiz-adv-x="422" 
d="M292 364l-21 -168q-1 -7 -1 -14q0 -35 33 -35q39 0 69 17l12 -144q-69 -30 -146 -30q-83 0 -128 39.5t-45 111.5q0 15 3 33l25 190h-64l21 148h71l15 109q66 26 108 26q37 0 57 -21.5t20 -56.5q0 -5 -1 -12l-6 -45h116l-20 -148h-118zM170 -43q44 0 68.5 -23t24.5 -60
q0 -56 -45 -85.5t-120 -29.5l-14 28q84 2 111 35q-24 -8 -50 -8q-31 0 -49.5 16t-18.5 46q0 81 93 81z" />
    <glyph glyph-name="uni0259" unicode="&#x259;" horiz-adv-x="548" 
d="M270 522q123 0 190.5 -57.5t67.5 -161.5q0 -142 -86.5 -227.5t-229.5 -85.5q-96 0 -148.5 41t-52.5 115q0 95 77.5 139t204.5 44q31 0 46 -1q-11 47 -89 47q-70 0 -131 -42l-69 129q100 60 220 60zM236 143q68 0 94 80q-10 1 -29 1q-38 0 -67.5 -17t-29.5 -42
q0 -22 32 -22z" />
    <glyph glyph-name="circumflex" unicode="&#x2c6;" horiz-adv-x="374" 
d="M436 654l-66 -92l-129 76l-150 -76l-39 92l212 156z" />
    <glyph glyph-name="caron" unicode="&#x2c7;" horiz-adv-x="404" 
d="M426 820l39 -92l-212 -156l-172 156l66 92l129 -76z" />
    <glyph glyph-name="breve" unicode="&#x2d8;" horiz-adv-x="357" 
d="M420 735q-12 -80 -62 -124t-127 -44t-119 37t-42 104q0 11 2 27h131q-1 -7 -1 -13q0 -42 34 -42q52 0 52 55h132z" />
    <glyph glyph-name="dotaccent" unicode="&#x2d9;" horiz-adv-x="293" 
d="M198 576q-46 0 -72.5 23.5t-26.5 64.5q0 52 30 85t85 33q46 0 72 -23.5t26 -64.5q0 -53 -29.5 -85.5t-84.5 -32.5z" />
    <glyph glyph-name="ring" unicode="&#x2da;" horiz-adv-x="256" 
d="M179 558q-60 0 -93.5 29t-33.5 82q0 66 40.5 106t107.5 40q59 0 92 -30t33 -83q0 -66 -39.5 -105t-106.5 -39zM185 641q19 0 30.5 17.5t11.5 38.5q0 17 -9 26t-22 9q-19 0 -31 -17.5t-12 -41.5q0 -32 32 -32z" />
    <glyph glyph-name="ogonek" unicode="&#x2db;" horiz-adv-x="196" 
d="M143 -215q-53 -25 -106 -25q-45 0 -69.5 23.5t-24.5 64.5q0 17 4 33t16 31.5l20.5 26t30 27l32 24t38.5 26l38 25.5l41 -41q-119 -93 -119 -139q0 -24 28 -24q21 0 55 17z" />
    <glyph glyph-name="tilde" unicode="&#x2dc;" horiz-adv-x="435" 
d="M122 565l-43 69q22 49 61 81t77 32q33 0 86 -23q34 -15 46 -15q50 0 78 38l41 -69q-70 -113 -152 -113q-34 0 -80 24q-30 15 -42 15q-41 0 -72 -39z" />
    <glyph glyph-name="hungarumlaut" unicode="&#x2dd;" horiz-adv-x="532" 
d="M233 828l114 -123l-224 -164l-63 76zM474 828l114 -123l-222 -164l-65 76z" />
    <glyph glyph-name="gravecomb" unicode="&#x300;" 
d="M-141 820l212 -166l-39 -92l-246 103z" />
    <glyph glyph-name="acutecomb" unicode="&#x301;" 
d="M-29 820l73 -155l-246 -103l-39 92z" />
    <glyph glyph-name="uni0302" unicode="&#x302;" 
d="M46 654l-66 -92l-129 76l-150 -76l-39 92l212 156z" />
    <glyph glyph-name="tildecomb" unicode="&#x303;" 
d="M-327 584l-43 69q22 49 61 81t77 32q33 0 86 -23q34 -15 46 -15q50 0 78 38l41 -69q-70 -113 -152 -113q-34 0 -80 24q-30 15 -42 15q-41 0 -72 -39z" />
    <glyph glyph-name="uni0304" unicode="&#x304;" 
d="M-247 747h292l-21 -143h-292z" />
    <glyph glyph-name="uni0306" unicode="&#x306;" 
d="M48 735q-12 -80 -62 -124t-127 -44t-119 37t-42 104q0 11 2 27h131q-1 -7 -1 -13q0 -42 34 -42q52 0 52 55h132z" />
    <glyph glyph-name="uni0307" unicode="&#x307;" 
d="M-95 576q-46 0 -72.5 23.5t-26.5 64.5q0 52 30 85t85 33q46 0 72 -23.5t26 -64.5q0 -53 -29.5 -85.5t-84.5 -32.5z" />
    <glyph glyph-name="uni0308" unicode="&#x308;" 
d="M-339 576q-46 0 -72.5 23.5t-26.5 64.5q0 52 30 85t85 33q46 0 72 -23.5t26 -64.5q0 -53 -29.5 -85.5t-84.5 -32.5zM-101 576q-46 0 -72.5 23.5t-26.5 64.5q0 52 30 85t85 33q46 0 72 -23.5t26 -64.5q0 -53 -29.5 -85.5t-84.5 -32.5z" />
    <glyph glyph-name="uni030A" unicode="&#x30a;" 
d="M-91 558q-60 0 -93.5 29t-33.5 82q0 66 40.5 106t107.5 40q59 0 92 -30t33 -83q0 -66 -39.5 -105t-106.5 -39zM-85 641q19 0 30.5 17.5t11.5 38.5q0 17 -9 26t-22 9q-19 0 -31 -17.5t-12 -41.5q0 -32 32 -32z" />
    <glyph glyph-name="uni030B" unicode="&#x30b;" 
d="M-325 828l114 -123l-224 -164l-63 76zM-84 828l114 -123l-222 -164l-65 76z" />
    <glyph glyph-name="uni030C" unicode="&#x30c;" 
d="M18 820l39 -92l-212 -156l-172 156l66 92l129 -76z" />
    <glyph glyph-name="uni0312" unicode="&#x312;" 
d="M-13 737q62 0 62 -68q0 -45 -25 -69t-69 -24q-41 0 -64.5 24t-23.5 62q0 60 48 105.5t118 41.5l13 -28q-80 -3 -107 -52q26 8 48 8z" />
    <glyph glyph-name="uni0326" unicode="&#x326;" 
d="M-113 -43q44 0 68.5 -23t24.5 -60q0 -56 -45 -85.5t-120 -29.5l-14 28q84 2 111 35q-24 -8 -50 -8q-31 0 -49.5 16t-18.5 46q0 81 93 81z" />
    <glyph glyph-name="uni0327" unicode="&#x327;" 
d="M-137 -32q48 -25 48 -88q0 -57 -38.5 -88.5t-100.5 -31.5q-51 0 -91 26l37 65q23 -14 52 -14q15 0 25 10t10 26q0 44 -80 56l78 96l89 -25z" />
    <glyph glyph-name="uni0328" unicode="&#x328;" 
d="M-73 -215q-53 -25 -106 -25q-45 0 -69.5 23.5t-24.5 64.5q0 17 4 33t16 31.5l20.5 26t30 27l32 24t38.5 26l38 25.5l41 -41q-119 -93 -119 -139q0 -24 28 -24q21 0 55 17z" />
    <glyph glyph-name="uni0335" unicode="&#x335;" 
d="M-375 436h381l-21 -149h-381z" />
    <glyph glyph-name="uni0336" unicode="&#x336;" 
d="M-696 436l-23 -149h705l23 149h-705z" />
    <glyph glyph-name="uni0337" unicode="&#x337;" 
d="M31 522l64 -55l-449 -477l-59 51z" />
    <glyph glyph-name="uni0338" unicode="&#x338;" 
d="M13 752l126 -104l-596 -680l-130 104z" />
    <glyph glyph-name="uni0394" unicode="&#x394;" horiz-adv-x="738" 
d="M558 613l122 -613h-694l336 705q50 25 106 25q107 0 130 -117zM248 158h188l-57 312z" />
    <glyph glyph-name="uni03A9" unicode="&#x3a9;" horiz-adv-x="782" 
d="M773 440q0 -93 -40.5 -167.5t-112.5 -120.5l95 3l-22 -155h-297l22 145q64 25 98 106.5t34 166.5q0 69 -30.5 109.5t-84.5 40.5q-53 0 -95 -40.5t-63 -102t-21 -127.5q0 -115 80 -153l-22 -145h-296l22 155l111 -4q-101 76 -101 218q0 161 112 261t287 100
q147 0 235.5 -79.5t88.5 -210.5z" />
    <glyph glyph-name="uni03BC" unicode="&#x3bc;" horiz-adv-x="585" 
d="M371 512h200l-72 -494q-77 -28 -123 -28q-53 0 -58 65q-49 -65 -103 -65l-31 -220h-200l104 742h201l-41 -287q-3 -21 -3 -35q0 -24 6 -33.5t22 -9.5q21 0 37 25t26 95z" />
    <glyph glyph-name="pi" unicode="&#x3c0;" horiz-adv-x="669" 
d="M691 512l-21 -148h-80l-51 -364h-200l51 364h-79l-51 -364h-200l51 364h-82l21 148h641z" />
    <glyph glyph-name="uni0400" unicode="&#x400;" horiz-adv-x="570" 
d="M505 862l-39 -92l-246 103l73 155zM569 562h-259l-16 -116h228l-24 -158h-227l-18 -130h272l-24 -158h-479l101 720h470z" />
    <glyph glyph-name="uni0401" unicode="&#x401;" horiz-adv-x="570" 
d="M265 784q-46 0 -72.5 23.5t-26.5 64.5q0 52 30 85t85 33q46 0 72 -23.5t26 -64.5q0 -53 -29.5 -85.5t-84.5 -32.5zM503 784q-46 0 -72.5 23.5t-26.5 64.5q0 52 30 85t85 33q46 0 72 -23.5t26 -64.5q0 -53 -29.5 -85.5t-84.5 -32.5zM593 720l-24 -158h-259l-16 -116h228
l-24 -158h-227l-18 -130h272l-24 -158h-479l101 720h470z" />
    <glyph glyph-name="uni0402" unicode="&#x402;" horiz-adv-x="732" 
d="M562 525q76 0 116.5 -48t40.5 -137q0 -158 -87 -254t-242 -96l33 162q24 0 53 42t29 94q0 75 -50 75q-83 0 -113 -207l-22 -156h-209l79 562h-129l22 158h505l-21 -158h-168l-20 -141q80 104 183 104z" />
    <glyph glyph-name="uni0403" unicode="&#x403;" horiz-adv-x="507" 
d="M516 873l-246 -103l-39 92l212 166zM561 720l-24 -158h-227l-79 -562h-209l101 720h438z" />
    <glyph glyph-name="uni0404" unicode="&#x404;" horiz-adv-x="616" 
d="M349 152q77 0 174 74l64 -147q-50 -41 -120.5 -65t-142.5 -24q-137 0 -210.5 83.5t-73.5 221.5q0 118 40.5 216t121 158.5t186.5 60.5q186 0 245 -167l-198 -64q-10 35 -24.5 52t-37.5 17q-62 0 -98 -124h205l-22 -158h-203q2 -68 29 -101t65 -33z" />
    <glyph glyph-name="uni0405" unicode="&#x405;" horiz-adv-x="570" 
d="M349 730q131 0 228 -76l-103 -131q-49 45 -119 45q-27 0 -46 -12t-19 -29q0 -20 20.5 -34.5t61.5 -29.5q34 -13 60.5 -27.5t54 -39t42.5 -62t15 -85.5q0 -120 -86.5 -189.5t-226.5 -69.5q-142 0 -234 84l68 137q61 -59 173 -59q88 0 88 51q0 16 -11.5 29t-25 20t-39.5 17
q-27 11 -47.5 20.5t-46 28.5t-42 41t-28 56.5t-11.5 76.5q0 112 72.5 175t201.5 63z" />
    <glyph glyph-name="uni0406" unicode="&#x406;" horiz-adv-x="318" 
d="M225 0h-206l102 699q60 31 107 31q42 0 65 -21t23 -60q0 -8 -1 -16z" />
    <glyph glyph-name="uni0407" unicode="&#x407;" horiz-adv-x="318" 
d="M123 784q-46 0 -72.5 23.5t-26.5 64.5q0 52 30 85t85 33q46 0 72 -23.5t26 -64.5q0 -53 -29.5 -85.5t-84.5 -32.5zM361 784q-46 0 -72.5 23.5t-26.5 64.5q0 52 30 85t85 33q46 0 72 -23.5t26 -64.5q0 -53 -29.5 -85.5t-84.5 -32.5zM225 0h-206l102 699q60 31 107 31
q42 0 65 -21t23 -60q0 -8 -1 -16z" />
    <glyph glyph-name="uni0408" unicode="&#x408;" horiz-adv-x="413" 
d="M147 211q-9 -59 -63 -59q-38 0 -56 15l-55 -148q58 -29 139 -29q97 0 161 52.5t77 141.5l64 449q1 8 1 14q0 38 -23.5 60.5t-65.5 22.5q-46 0 -110 -31z" />
    <glyph glyph-name="uni0409" unicode="&#x409;" horiz-adv-x="1028" 
d="M760 446q120 0 185 -49.5t65 -142.5q0 -128 -96 -196t-257 -68q-113 0 -228 10l79 562h-166l-55 -294q-21 -116 -78 -179t-155 -99l-64 143q50 18 75 52t38 106l81 429h555l-39 -275q20 1 60 1zM687 148q51 0 77.5 24t26.5 63q0 25 -18.5 39t-51.5 14q-28 0 -43 -1
l-19 -139h28z" />
    <glyph glyph-name="uni040A" unicode="&#x40a;" horiz-adv-x="1021" 
d="M753 446q119 0 184.5 -49.5t65.5 -142.5q0 -128 -96.5 -196t-257.5 -68q-113 0 -228 10l42 285h-197l-40 -285h-207l102 699q62 31 108 31q42 0 64.5 -21t22.5 -60q0 -8 -1 -16l-27 -190h198l37 256q60 31 107 31h1q42 0 64.5 -21t22.5 -60q0 -8 -1 -16l-26 -188
q20 1 62 1zM680 148q51 0 77 24t26 63q0 25 -18.5 39t-51.5 14q-30 0 -45 -1l-19 -139h31z" />
    <glyph glyph-name="uni040B" unicode="&#x40b;" horiz-adv-x="759" 
d="M727 309l-25 -196q-3 -24 -3 -36q0 -35 11 -53q-78 -34 -133 -34q-42 0 -65 22t-23 62q0 9 1 18l25 184q3 21 3 37q0 8 -1.5 17t-13.5 21t-33 12q-49 0 -80.5 -47.5t-47.5 -159.5l-22 -156h-209l79 562h-129l22 158h505l-21 -158h-168l-21 -148q85 111 198 111
q76 0 116.5 -39t40.5 -112q0 -19 -6 -65z" />
    <glyph glyph-name="uni040C" unicode="&#x40c;" horiz-adv-x="658" 
d="M541 1028l73 -155l-246 -103l-39 92zM316 649q0 -8 -1 -16l-90 -633h-206l102 699q60 31 107 31q42 0 65 -21t23 -60zM669 698l-179 -288l151 -384q-50 -36 -122 -36q-64 0 -95 16t-42 49l-103 309l208 366z" />
    <glyph glyph-name="uni040D" unicode="&#x40d;" horiz-adv-x="721" 
d="M565 862l-39 -92l-246 103l73 155zM631 730q42 0 65 -21t23 -60q0 -8 -1 -16l-90 -633h-206l48 327l-228 -219l-15 -108h-207l102 699q62 31 108 31q42 0 64.5 -21t22.5 -60q0 -8 -1 -16l-37 -262l229 220l16 108q60 31 107 31z" />
    <glyph glyph-name="uni040E" unicode="&#x40e;" horiz-adv-x="431" 
d="M505 943q-12 -80 -62 -124t-127 -44t-119 37t-42 104q0 11 2 27h131q-1 -7 -1 -13q0 -42 34 -42q52 0 52 55h132zM389 730l184 -32l-257 -513q-42 -84 -114 -139.5t-134 -57.5l-74 140q32 1 73.5 32t68.5 79l8 14q-24 21 -35 64l-97 384q46 29 100 29q65 0 100.5 -22
t46.5 -83l14 -74l7 -114l38 115z" />
    <glyph glyph-name="uni040F" unicode="&#x40f;" horiz-adv-x="693" 
d="M603 730q42 0 65 -21t23 -60q0 -8 -1 -16l-90 -633h-181l-13 -89q-65 -31 -116 -31q-40 0 -63.5 22.5t-23.5 60.5q0 7 2 20l3 17h-188l102 699q62 31 108 31q42 0 64.5 -21t22.5 -60q0 -8 -1 -16l-67 -475h168l79 541q60 31 107 31z" />
    <glyph glyph-name="uni0410" unicode="&#x410;" horiz-adv-x="667" 
d="M429 0l-22 134h-206l-54 -134h-196l336 705q50 25 106 25q107 0 130 -117l122 -613h-216zM264 292h118l-30 231z" />
    <glyph glyph-name="uni0411" unicode="&#x411;" horiz-adv-x="622" 
d="M354 446q119 0 184.5 -49.5t65.5 -142.5q0 -128 -96.5 -196t-257.5 -68q-113 0 -228 10l101 720h483l-24 -158h-272l-17 -117q20 1 61 1zM281 148q51 0 77 24t26 63q0 25 -18.5 39t-51.5 14q-28 0 -43 -1l-19 -139h29z" />
    <glyph glyph-name="uni0412" unicode="&#x412;" horiz-adv-x="641" 
d="M525 376q87 -46 87 -145q0 -113 -95.5 -177t-244.5 -64q-125 0 -250 10l101 720q143 10 255 10q120 0 185 -43t65 -123q0 -122 -103 -188zM404 524q0 48 -56 48q-22 0 -36 -1l-18 -125h24q43 0 64.5 20.5t21.5 57.5zM300 148q42 0 66.5 22.5t24.5 54.5q0 29 -15 46
t-42 17h-62l-20 -139q18 -1 48 -1z" />
    <glyph glyph-name="uni0413" unicode="&#x413;" horiz-adv-x="507" 
d="M561 720l-24 -158h-227l-79 -562h-209l101 720h438z" />
    <glyph glyph-name="uni0414" unicode="&#x414;" horiz-adv-x="797" 
d="M668 153h101l-36 -242q-65 -31 -116 -31q-40 0 -63.5 22.5t-23.5 60.5q0 9 2 21l3 16h-367l-22 -89q-57 -31 -103 -31q-35 0 -54.5 22.5t-19.5 60.5q0 6 1 14l24 167q59 16 92 69t53 167l59 340h550zM240 158h220l57 404h-161l-36 -204q-23 -127 -80 -200z" />
    <glyph glyph-name="uni0415" unicode="&#x415;" horiz-adv-x="570" 
d="M569 562h-259l-16 -116h228l-24 -158h-227l-18 -130h272l-24 -158h-479l101 720h470z" />
    <glyph glyph-name="uni0416" unicode="&#x416;" horiz-adv-x="917" 
d="M313 667l58 -305l-170 -362h-225l199 375l-74 318q49 37 114 37q45 0 68 -14.5t30 -48.5zM623 649q0 -8 -1 -16l-90 -633h-206l102 699q60 31 107 31q42 0 65 -21t23 -60zM935 698l-148 -317l85 -355q-56 -36 -119 -36q-56 0 -79.5 16.5t-31.5 59.5l-52 298l154 366z" />
    <glyph glyph-name="uni0417" unicode="&#x417;" horiz-adv-x="591" 
d="M91 661q118 69 252 69q107 0 166 -44.5t59 -124.5q0 -69 -36.5 -117.5t-101.5 -61.5q61 -10 95.5 -49t34.5 -101q0 -119 -91 -180.5t-235 -61.5q-152 0 -256 105l85 119q59 -62 159 -62q56 0 89.5 23t33.5 66q0 62 -76 62h-94l20 137h54q41 0 68 22t27 52q0 26 -17 40
t-47 14q-74 0 -147 -45z" />
    <glyph glyph-name="uni0418" unicode="&#x418;" horiz-adv-x="721" 
d="M631 730q42 0 65 -21t23 -60q0 -8 -1 -16l-90 -633h-206l48 327l-228 -219l-15 -108h-207l102 699q62 31 108 31q42 0 64.5 -21t22.5 -60q0 -8 -1 -16l-37 -262l229 220l16 108q60 31 107 31z" />
    <glyph glyph-name="uni0419" unicode="&#x419;" horiz-adv-x="721" 
d="M448 775q-77 0 -119 37t-42 104q0 11 2 27h131q-1 -7 -1 -13q0 -42 34 -42q52 0 52 55h132q-12 -80 -62 -124t-127 -44zM631 730q42 0 65 -21t23 -60q0 -8 -1 -16l-90 -633h-206l48 327l-228 -219l-15 -108h-207l102 699q62 31 108 31q42 0 64.5 -21t22.5 -60
q0 -8 -1 -16l-37 -262l229 220l16 108q60 31 107 31z" />
    <glyph glyph-name="uni041A" unicode="&#x41a;" horiz-adv-x="658" 
d="M316 649q0 -8 -1 -16l-90 -633h-206l102 699q60 31 107 31q42 0 65 -21t23 -60zM669 698l-179 -288l151 -384q-50 -36 -122 -36q-64 0 -95 16t-42 49l-103 309l208 366z" />
    <glyph glyph-name="uni041B" unicode="&#x41b;" horiz-adv-x="732" 
d="M739 720l-101 -720h-209l79 562h-166l-55 -294q-21 -116 -78 -179t-155 -99l-64 143q50 18 75 52t38 106l81 429h555z" />
    <glyph glyph-name="uni041C" unicode="&#x41c;" horiz-adv-x="893" 
d="M737 730q59 0 83.5 -26t23.5 -93l-11 -611h-213l24 370l-148 -370h-184l-58 360l-73 -360h-188l168 705q48 25 99 25q118 0 131 -86l66 -428l184 488q48 26 96 26z" />
    <glyph glyph-name="uni041D" unicode="&#x41d;" horiz-adv-x="720" 
d="M630 730q42 0 65 -21t23 -60q0 -8 -1 -16l-90 -633h-206l42 285h-197l-40 -285h-207l102 699q62 31 108 31q42 0 64.5 -21t22.5 -60q0 -8 -1 -16l-27 -190h198l37 256q60 31 107 31z" />
    <glyph glyph-name="uni041E" unicode="&#x41e;" horiz-adv-x="745" 
d="M344 -10q-145 0 -225 78t-80 219q0 197 104.5 320t287.5 123q145 0 224.5 -78.5t79.5 -221.5q0 -195 -104.5 -317.5t-286.5 -122.5zM364 152q51 0 87.5 43t52 103t15.5 127q0 69 -26.5 106t-77.5 37q-75 0 -117 -83t-42 -188q0 -70 28 -107.5t80 -37.5z" />
    <glyph glyph-name="uni041F" unicode="&#x41f;" horiz-adv-x="717" 
d="M724 720l-101 -720h-209l79 562h-183l-79 -562h-209l101 720h601z" />
    <glyph glyph-name="uni0420" unicode="&#x420;" horiz-adv-x="620" 
d="M392 730q120 0 185 -49t65 -141q0 -131 -93 -209.5t-241 -78.5q-27 0 -43 1l-35 -253h-209l101 720q105 10 270 10zM328 410q46 0 69 29.5t23 74.5q0 27 -15.5 42.5t-44.5 15.5q-30 0 -50 -1l-22 -161h40z" />
    <glyph glyph-name="uni0421" unicode="&#x421;" horiz-adv-x="613" 
d="M587 79q-50 -41 -120.5 -65t-142.5 -24q-137 0 -210.5 83.5t-73.5 221.5q0 118 40.5 216t121 158.5t186.5 60.5q186 0 245 -167l-198 -64q-10 35 -24.5 52t-37.5 17q-53 0 -85.5 -88t-32.5 -183q0 -74 27 -109.5t67 -35.5q77 0 174 74z" />
    <glyph glyph-name="uni0422" unicode="&#x422;" horiz-adv-x="544" 
d="M592 720l-24 -158h-150l-79 -562h-209l79 562h-149l24 158h508z" />
    <glyph glyph-name="uni0423" unicode="&#x423;" horiz-adv-x="431" 
d="M389 730l184 -32l-257 -513q-42 -84 -114 -139.5t-134 -57.5l-74 140q32 1 73.5 32t68.5 79l8 14q-24 21 -35 64l-97 384q46 29 100 29q65 0 100.5 -22t46.5 -83l14 -74l7 -114l38 115z" />
    <glyph glyph-name="uni0424" unicode="&#x424;" horiz-adv-x="797" 
d="M797 425q0 -147 -88 -245t-234 -108l-10 -72h-206l10 72q-116 7 -177 65.5t-61 162.5q0 148 87.5 244t235.5 104l7 51q60 31 107 31q88 0 88 -82q117 -7 179 -64.5t62 -158.5zM241 321q0 -72 52 -88l37 254q-44 -13 -66.5 -62t-22.5 -104zM498 234q43 14 66 62.5
t23 100.5q0 74 -53 90z" />
    <glyph glyph-name="uni0425" unicode="&#x425;" horiz-adv-x="651" 
d="M297 204l-133 -204h-210l267 373l-141 328q41 29 108 29t100 -16.5t50 -57.5l45 -105l112 179l201 -32l-232 -325l161 -354q-44 -29 -105 -29q-79 0 -115.5 18t-51.5 56z" />
    <glyph glyph-name="uni0426" unicode="&#x426;" horiz-adv-x="751" 
d="M622 153h103l-36 -242q-65 -31 -116 -31q-40 0 -63.5 22.5t-23.5 60.5q0 6 1 14l4 23h-471l102 699q62 31 108 31q42 0 64.5 -21t22.5 -60q0 -8 -1 -16l-67 -475h168l79 541q60 31 107 31q42 0 65 -21t23 -60q0 -8 -1 -16z" />
    <glyph glyph-name="uni0427" unicode="&#x427;" horiz-adv-x="659" 
d="M457 720h209l-101 -720h-209l42 298q-83 -103 -189 -103q-74 0 -112.5 44t-38.5 128q0 16 6 64l38 268q62 31 108 31q42 0 64.5 -21t22.5 -60q0 -8 -1 -16l-18 -152q-4 -34 -4 -60q0 -64 43 -64q88 0 118 207z" />
    <glyph glyph-name="uni0428" unicode="&#x428;" horiz-adv-x="995" 
d="M905 730q42 0 65 -21t23 -60q0 -8 -1 -16l-90 -633h-882l102 699q62 31 108 31q42 0 64.5 -21t22.5 -60q0 -8 -1 -16l-67 -475h132l79 541q60 31 107 31q42 0 65 -21t23 -60q0 -8 -1 -16l-68 -475h133l79 541q60 31 107 31z" />
    <glyph glyph-name="uni0429" unicode="&#x429;" horiz-adv-x="1053" 
d="M924 153h102l-36 -242q-65 -31 -116 -31q-40 0 -63.5 22.5t-23.5 60.5q0 6 1 14l4 23h-772l102 699q62 31 108 31q42 0 64.5 -21t22.5 -60q0 -8 -1 -16l-67 -475h132l79 541q60 31 107 31q42 0 65 -21t23 -60q0 -8 -1 -16l-68 -475h133l79 541q60 31 107 31q42 0 65 -21
t23 -60q0 -8 -1 -16z" />
    <glyph glyph-name="uni042A" unicode="&#x42a;" horiz-adv-x="720" 
d="M452 446q120 0 185 -49.5t65 -142.5q0 -128 -96 -196t-257 -68q-113 0 -228 10l79 562h-147l24 158h354l-39 -275q20 1 60 1zM379 148q51 0 77.5 24t26.5 63q0 25 -18.5 39t-51.5 14q-28 0 -43 -1l-19 -139h28z" />
    <glyph glyph-name="uni042B" unicode="&#x42b;" horiz-adv-x="938" 
d="M352 446q119 0 184.5 -49.5t65.5 -142.5q0 -128 -96.5 -196t-257.5 -68q-113 0 -228 10l102 699q62 31 108 31q42 0 64.5 -21t22.5 -60q0 -8 -1 -16l-26 -188q20 1 62 1zM845 0h-206l102 699q60 31 107 31q42 0 65 -21t23 -60q0 -8 -1 -16zM279 148q51 0 77 24t26 63
q0 25 -18.5 39t-51.5 14q-30 0 -45 -1l-19 -139h31z" />
    <glyph glyph-name="uni042C" unicode="&#x42c;" horiz-adv-x="620" 
d="M352 446q119 0 184.5 -49.5t65.5 -142.5q0 -128 -96.5 -196t-257.5 -68q-113 0 -228 10l102 699q62 31 108 31q42 0 64.5 -21t22.5 -60q0 -8 -1 -16l-26 -188q20 1 62 1zM279 148q51 0 77 24t26 63q0 25 -18.5 39t-51.5 14q-30 0 -45 -1l-19 -139h31z" />
    <glyph glyph-name="uni042D" unicode="&#x42d;" horiz-adv-x="617" 
d="M344 730q125 0 194 -82t69 -218q0 -188 -101.5 -314t-270.5 -126q-79 0 -145 26t-103 70l92 133q36 -33 79 -50t78 -17q102 0 138 134h-206l22 158h202q0 64 -18 94t-42 30q-48 0 -82 -80l-182 86q102 156 276 156z" />
    <glyph glyph-name="uni042E" unicode="&#x42e;" horiz-adv-x="951" 
d="M663 730q134 0 206 -77.5t72 -218.5q0 -193 -96.5 -318.5t-267.5 -125.5q-127 0 -196.5 77.5t-69.5 219.5h-44l-40 -287h-207l102 699q62 31 108 31q42 0 64.5 -21t22.5 -60q0 -8 -1 -16l-26 -188h41q34 130 119.5 207.5t212.5 77.5zM593 152q41 0 72.5 46t46 110
t14.5 130q0 62 -20.5 96t-58.5 34q-33 0 -59 -28t-41 -72t-23 -92t-8 -94q0 -62 20.5 -96t56.5 -34z" />
    <glyph glyph-name="uni042F" unicode="&#x42f;" horiz-adv-x="652" 
d="M428 730q123 0 232 -10l-101 -720h-209l40 283q-14 -2 -36 -4l-179 -279h-215l213 315q-87 49 -87 148q0 123 96 195t246 72zM378 418q20 0 31 1l21 150h-32q-43 0 -67 -23.5t-24 -65.5q0 -62 71 -62z" />
    <glyph glyph-name="uni0430" unicode="&#x430;" horiz-adv-x="572" 
d="M506 113q-3 -24 -3 -36q0 -36 13 -53q-73 -34 -129 -34q-33 0 -55 23t-22 63v5q-30 -50 -64.5 -70.5t-82.5 -20.5q-53 0 -100 45.5t-47 128.5q0 157 87.5 257.5t237.5 100.5q106 0 224 -10zM264 146q26 0 43 43.5t37 167.5l3 19h-24q-47 0 -72.5 -47.5t-25.5 -112.5
q0 -70 39 -70z" />
    <glyph glyph-name="uni0431" unicode="&#x431;" horiz-adv-x="582" 
d="M379 584q-52 -9 -84.5 -34.5t-54.5 -87.5q58 60 151 60q82 0 126 -55t44 -155q0 -148 -78 -235t-221 -87q-111 0 -171 63.5t-60 178.5q0 32 5 72q53 413 344 451l171 22q32 -41 32 -91q0 -66 -105 -84zM307 366q-38 0 -59 -45t-21 -101q0 -73 53 -73q38 0 58.5 46.5
t20.5 99.5q0 73 -52 73z" />
    <glyph glyph-name="uni0432" unicode="&#x432;" horiz-adv-x="521" 
d="M408 261q75 -32 75 -100q0 -78 -75.5 -124.5t-192.5 -46.5q-95 0 -148 39t-53 105q0 11 3 34l32 191q13 78 77 120.5t175 42.5q94 0 147.5 -33t53.5 -93q0 -90 -94 -135zM286 386q-32 0 -41 -44l-7 -37h5q36 0 53 15.5t17 37.5q0 28 -27 28zM242 124q46 0 46 43
q0 19 -15.5 32t-40.5 13h-13l-5 -22q-4 -20 -4 -33q0 -33 32 -33z" />
    <glyph glyph-name="uni0433" unicode="&#x433;" horiz-adv-x="468" 
d="M258 522q92 0 143.5 -36.5t51.5 -100.5q0 -31 -10.5 -56.5t-24.5 -42t-40 -33t-45.5 -25.5t-52.5 -23q-21 -9 -28.5 -12t-22.5 -11t-20.5 -15t-5.5 -15q0 -16 26 -16q31 0 77 11t84 32l38 -122q-96 -67 -222 -67q-98 0 -150 37t-52 104q0 62 46.5 103t129.5 79
q60 27 69 38q4 6 4 12q0 16 -30 16q-54 0 -112 -40l-63 118q103 65 210 65z" />
    <glyph glyph-name="uni0434" unicode="&#x434;" horiz-adv-x="582" 
d="M165 780q402 -23 402 -384q0 -117 -32 -206.5t-103 -144.5t-173 -55q-115 0 -175.5 59t-60.5 166q0 131 60 219t167 88q85 0 132 -45q-13 44 -37.5 75.5t-59 49.5t-71.5 26.5t-85 12.5zM273 147q39 0 60.5 45.5t21.5 101.5q0 72 -50 72q-39 0 -60.5 -46t-21.5 -102
q0 -71 50 -71z" />
    <glyph glyph-name="uni0435" unicode="&#x435;" horiz-adv-x="512" 
d="M273 138q67 0 129 39l59 -127q-96 -60 -212 -60q-110 0 -169 56.5t-59 159.5q0 140 79 228t214 88q90 0 138 -40.5t48 -112.5q0 -98 -73.5 -142t-190.5 -44q-19 0 -29 1q3 -24 18 -35t48 -11zM282 370q-49 0 -67 -81h14q32 0 55.5 14t23.5 41q0 26 -26 26z" />
    <glyph glyph-name="uni0436" unicode="&#x436;" horiz-adv-x="815" 
d="M264 461l45 -193l-139 -268h-207l160 286l-71 212q47 24 106 24q91 0 106 -61zM536 456q0 -5 -1 -13l-63 -443h-198l72 494q75 28 120 28q34 0 52 -17.5t18 -48.5zM816 494l-112 -197l82 -282q-50 -25 -104 -25q-109 0 -122 64l-46 215l130 253z" />
    <glyph glyph-name="uni0437" unicode="&#x437;" horiz-adv-x="452" 
d="M58 476q92 46 192 46q82 0 126.5 -33.5t44.5 -93.5q0 -94 -111 -124q49 -8 77.5 -40t28.5 -73q0 -82 -69 -125t-177 -43q-48 0 -104 22t-89 57l77 105q37 -36 100 -36q66 0 66 38q0 25 -50 25h-48l16 121h43q36 0 36 26q0 27 -39 27q-41 0 -81 -26z" />
    <glyph glyph-name="uni0438" unicode="&#x438;" horiz-adv-x="563" 
d="M547 443l-49 -330q-3 -24 -3 -36q0 -36 13 -53q-73 -34 -129 -34q-33 0 -55 23t-22 63v17q-62 -103 -154 -103q-124 0 -124 142q0 24 3 49l45 313q75 28 123 28q71 0 71 -66q0 -5 -1 -13l-35 -225q-3 -19 -3 -30v-3q0 -11 0.5 -17.5t7 -13.5t18.5 -7q32 0 47.5 41
t34.5 171l20 135q77 28 122 28q34 0 52.5 -17.5t18.5 -48.5q0 -5 -1 -13z" />
    <glyph glyph-name="uni0439" unicode="&#x439;" horiz-adv-x="563" 
d="M521 735q-12 -80 -62 -124t-127 -44t-119 37t-42 104q0 11 2 27h131q-1 -7 -1 -13q0 -42 34 -42q52 0 52 55h132zM547 443l-49 -330q-3 -24 -3 -36q0 -36 13 -53q-73 -34 -129 -34q-33 0 -55 23t-22 63v17q-62 -103 -154 -103q-124 0 -124 142q0 24 3 49l45 313
q75 28 123 28q71 0 71 -66q0 -5 -1 -13l-35 -225q-3 -19 -3 -30v-3q0 -11 0.5 -17.5t7 -13.5t18.5 -7q32 0 47.5 41t34.5 171l20 135q77 28 122 28q34 0 52.5 -17.5t18.5 -48.5q0 -5 -1 -13z" />
    <glyph glyph-name="uni043A" unicode="&#x43a;" horiz-adv-x="593" 
d="M268 456q0 -5 -1 -13l-63 -443h-198l72 494q75 28 120 28q34 0 52 -17.5t18 -48.5zM593 494l-145 -201l131 -278q-55 -25 -126 -25q-98 0 -122 62l-84 217l165 253z" />
    <glyph glyph-name="uni043B" unicode="&#x43b;" horiz-adv-x="554" 
d="M547 512l-72 -512h-200l52 367h-58l-33 -162q-18 -87 -64 -136.5t-119 -76.5l-63 137q59 14 76 98l57 285h424z" />
    <glyph glyph-name="uni043C" unicode="&#x43c;" horiz-adv-x="673" 
d="M526 522q53 0 75.5 -23t21.5 -82l-6 -417h-198l15 250l-85 -250h-140l-15 253l-56 -253h-151l119 498q42 24 90 24q118 0 127 -74l24 -201l86 251q44 24 93 24z" />
    <glyph glyph-name="uni043D" unicode="&#x43d;" horiz-adv-x="559" 
d="M474 522q34 0 52 -17.5t18 -48.5q0 -5 -1 -13l-63 -443h-194l25 185h-81l-27 -185h-197l72 494q75 28 120 28q34 0 52 -17.5t18 -48.5q0 -5 -1 -13l-16 -109h81l22 160q75 28 120 28z" />
    <glyph glyph-name="uni043E" unicode="&#x43e;" horiz-adv-x="576" 
d="M259 -10q-115 0 -176 58.5t-61 163.5q0 143 79 226.5t219 83.5q113 0 173.5 -59t60.5 -166q0 -142 -78.5 -224.5t-216.5 -82.5zM277 147q36 0 56.5 45t20.5 101q0 73 -56 73q-36 0 -56 -46t-20 -100q0 -73 55 -73z" />
    <glyph glyph-name="uni043F" unicode="&#x43f;" horiz-adv-x="578" 
d="M546 332l-31 -219q-4 -28 -4 -36q0 -34 13 -53q-73 -34 -127 -34q-84 0 -84 84q0 9 1 18l31 202q3 20 3 31q0 41 -30 41q-34 0 -53.5 -56t-42.5 -210l-15 -100h-200l70 498q59 24 105 24q39 0 58.5 -26.5t19.5 -68.5v-17q35 63 73 87.5t88 24.5q62 0 95.5 -38t33.5 -107
q0 -17 -4 -45z" />
    <glyph glyph-name="uni0440" unicode="&#x440;" horiz-adv-x="571" 
d="M408 522q53 0 100 -45.5t47 -128.5q0 -157 -87.5 -257.5t-237.5 -100.5h-26l-30 -220h-200l102 724q77 28 123 28q29 0 44.5 -21t15.5 -58v-16q31 52 65.5 73.5t83.5 21.5zM248 136q47 0 72.5 47.5t25.5 112.5q0 70 -39 70q-26 0 -43.5 -44t-37.5 -167l-3 -19h25z" />
    <glyph glyph-name="uni0441" unicode="&#x441;" horiz-adv-x="481" 
d="M447 46q-81 -56 -195 -56q-111 0 -170.5 59t-59.5 164q0 133 77 221t193 88q26 0 52.5 -7t54.5 -24t47.5 -52t23.5 -84l-147 -46q0 29 -7 43t-26 14q-22 0 -38 -25t-22.5 -56.5t-6.5 -63.5q0 -36 18 -55t50 -19q60 0 110 42z" />
    <glyph glyph-name="uni0442" unicode="&#x442;" horiz-adv-x="798" 
d="M765 321l-33 -208q-3 -24 -3 -36q0 -36 13 -53q-73 -34 -128 -34q-84 0 -84 84q0 9 1 18l29 206q3 24 3 42q0 26 -14 26q-22 0 -33 -42.5t-33 -185.5l-6 -38l-15 -100h-197l41 298q3 24 3 39q0 29 -12 29q-24 0 -37 -48.5t-35 -194.5l-3 -23l-15 -100h-200l70 498
q59 24 105 24q39 0 58.5 -26.5t19.5 -68.5v-8q31 58 64.5 80.5t77.5 22.5q81 0 104 -84q32 48 66.5 66t82.5 18q55 0 84.5 -40t29.5 -113q0 -23 -4 -48z" />
    <glyph glyph-name="uni0443" unicode="&#x443;" horiz-adv-x="541" 
d="M367 522l187 -28q-10 -76 -49.5 -183.5t-98 -218.5t-141 -204.5t-166.5 -129.5l-72 136q78 33 138 112q-56 18 -65 81l-60 411q53 24 115 24q45 0 75 -23t31 -72l2 -162l-4 -123q57 131 108 380z" />
    <glyph glyph-name="uni0444" unicode="&#x444;" horiz-adv-x="786" 
d="M651 522q55 0 87 -44t32 -125q0 -100 -36 -181.5t-107 -131.5t-166 -50h-5l-31 -220h-199l42 298q-57 -78 -133 -78q-55 0 -86.5 43.5t-31.5 123.5q0 158 82 261.5t225 103.5h8l32 230q77 28 122 28q33 0 51.5 -17.5t18.5 -48.5q0 -5 -1 -13l-36 -258q55 79 132 79z
M246 147q26 0 35.5 34.5t26.5 164.5l4 31h-5q-42 0 -65.5 -53t-23.5 -112q0 -34 5.5 -49.5t22.5 -15.5zM481 136q28 0 48.5 28.5t28.5 64.5t8 73q0 64 -27 64q-24 0 -33.5 -35t-26.5 -165l-4 -30h6z" />
    <glyph glyph-name="uni0445" unicode="&#x445;" horiz-adv-x="533" 
d="M231 120l-78 -120h-201l211 269l-110 229q66 24 121 24q48 0 74 -15t40 -48l17 -41l66 104l180 -28l-175 -234l130 -245q-57 -25 -108 -25q-57 0 -88.5 15t-47.5 49z" />
    <glyph glyph-name="uni0446" unicode="&#x446;" horiz-adv-x="617" 
d="M501 146h92l-36 -238q-73 -28 -123 -28q-33 0 -50.5 21t-17.5 57q0 10 2 28l2 14h-364l72 494q75 28 120 28q34 0 52 -17.5t18 -48.5q0 -5 -1 -13l-42 -295h79l50 346q75 28 120 28q34 0 52 -17.5t18 -48.5q0 -5 -1 -13z" />
    <glyph glyph-name="uni0447" unicode="&#x447;" horiz-adv-x="539" 
d="M333 512h200l-75 -512h-200l33 227q-69 -104 -156 -104q-49 0 -77 31t-28 89q0 25 3 47l33 204q71 28 121 28q70 0 70 -66q0 -5 -1 -13l-18 -122q-2 -13 -2 -21q0 -20 24 -20t36.5 36t29.5 148z" />
    <glyph glyph-name="uni0448" unicode="&#x448;" horiz-adv-x="784" 
d="M699 522q34 0 52 -17.5t18 -48.5q0 -5 -1 -13l-63 -443h-699l72 494q75 28 120 28q34 0 52 -17.5t18 -48.5q0 -5 -1 -13l-42 -295h54l50 346q75 28 120 28q34 0 52 -17.5t18 -48.5q0 -5 -1 -13l-42 -295h53l50 346q75 28 120 28z" />
    <glyph glyph-name="uni0449" unicode="&#x449;" horiz-adv-x="843" 
d="M726 146h93l-36 -238q-73 -28 -123 -28q-33 0 -50.5 21t-17.5 57q0 12 2 27l2 15h-590l72 494q75 28 120 28q34 0 52 -17.5t18 -48.5q0 -5 -1 -13l-42 -295h54l50 346q75 28 120 28q34 0 52 -17.5t18 -48.5q0 -5 -1 -13l-42 -295h53l50 346q75 28 120 28q34 0 52 -17.5
t18 -48.5q0 -5 -1 -13z" />
    <glyph glyph-name="uni044A" unicode="&#x44a;" horiz-adv-x="559" 
d="M346 371q92 0 141.5 -39.5t49.5 -112.5q0 -103 -74 -166t-190 -63q-187 0 -187 152q0 17 2 34l27 191h-88l19 145h293l-23 -141h30zM307 123q47 0 47 69q0 46 -45 46h-16l-9 -57q-3 -18 -3 -28q0 -30 26 -30z" />
    <glyph glyph-name="uni044B" unicode="&#x44b;" horiz-adv-x="761" 
d="M285 371q92 0 141.5 -39.5t49.5 -112.5q0 -103 -74 -166t-190 -63q-187 0 -187 152q0 17 2 34l45 318q77 28 124 28q71 0 71 -66q0 -6 -1 -13l-12 -72h31zM484 0l72 494q75 28 120 28q34 0 52 -17.5t18 -48.5q0 -5 -1 -13l-63 -443h-198zM246 123q47 0 47 69q0 46 -45 46
h-16l-9 -57q-3 -18 -3 -28q0 -30 26 -30z" />
    <glyph glyph-name="uni044C" unicode="&#x44c;" horiz-adv-x="496" 
d="M285 371q92 0 141.5 -39.5t49.5 -112.5q0 -103 -74 -166t-190 -63q-187 0 -187 152q0 17 2 34l45 318q77 28 124 28q71 0 71 -66q0 -6 -1 -13l-12 -72h31zM246 123q47 0 47 69q0 46 -45 46h-16l-9 -57q-3 -18 -3 -28q0 -30 26 -30z" />
    <glyph glyph-name="uni044D" unicode="&#x44d;" horiz-adv-x="485" 
d="M227 522q104 0 170.5 -62.5t66.5 -170.5q0 -130 -80.5 -214.5t-212.5 -84.5q-117 0 -189 63l71 128q31 -34 101 -34q57 0 87 52h-85l18 117h86q-14 50 -68 50q-44 0 -95 -41l-51 134q92 63 181 63z" />
    <glyph glyph-name="uni044E" unicode="&#x44e;" horiz-adv-x="765" 
d="M528 522q103 0 159 -58t56 -163q0 -137 -73 -224t-201 -87q-87 0 -138 48t-59 136h-43l-25 -174h-198l72 494q75 28 120 28q34 0 52 -17.5t18 -48.5q0 -5 -1 -13l-16 -112h35q26 89 88 140t154 51zM489 147q24 0 38 48t14 110q0 61 -31 61q-25 0 -39.5 -48t-14.5 -109
q0 -62 33 -62z" />
    <glyph glyph-name="uni044F" unicode="&#x44f;" horiz-adv-x="536" 
d="M333 522q85 0 197 -10l-72 -512h-200l23 162h-25l-87 -162h-198l126 220q-38 40 -38 103q0 93 77 146t197 53zM299 389q-30 0 -47 -16t-17 -42q0 -19 13.5 -30t37.5 -11h14l14 99h-15z" />
    <glyph glyph-name="uni0450" unicode="&#x450;" horiz-adv-x="512" 
d="M238 820l212 -166l-39 -92l-246 103zM273 138q67 0 129 39l59 -127q-96 -60 -212 -60q-110 0 -169 56.5t-59 159.5q0 140 79 228t214 88q90 0 138 -40.5t48 -112.5q0 -98 -73.5 -142t-190.5 -44q-19 0 -29 1q3 -24 18 -35t48 -11zM282 370q-49 0 -67 -81h14q32 0 55.5 14
t23.5 41q0 26 -26 26z" />
    <glyph glyph-name="uni0451" unicode="&#x451;" horiz-adv-x="512" 
d="M210 576q-46 0 -72.5 23.5t-26.5 64.5q0 52 30 85t85 33q46 0 72 -23.5t26 -64.5q0 -53 -29.5 -85.5t-84.5 -32.5zM448 576q-46 0 -72.5 23.5t-26.5 64.5q0 52 30 85t85 33q46 0 72 -23.5t26 -64.5q0 -53 -29.5 -85.5t-84.5 -32.5zM273 138q67 0 129 39l59 -127
q-96 -60 -212 -60q-110 0 -169 56.5t-59 159.5q0 140 79 228t214 88q90 0 138 -40.5t48 -112.5q0 -98 -73.5 -142t-190.5 -44q-19 0 -29 1q3 -24 18 -35t48 -11zM282 370q-49 0 -67 -81h14q32 0 55.5 14t23.5 41q0 26 -26 26z" />
    <glyph glyph-name="uni0452" unicode="&#x452;" horiz-adv-x="570" 
d="M417 522q62 0 95.5 -38t33.5 -107q0 -17 -4 -45l-51 -357q-22 -153 -189 -214l-60 140q42 13 54 96l45 297q3 20 3 31q0 41 -30 41q-34 0 -54 -57.5t-42 -208.5l-14 -100h-198l83 570h-41l21 149h41l5 33q75 28 120 28q66 0 69 -61h146l-21 -149h-145l-20 -145
q33 54 69.5 75.5t83.5 21.5z" />
    <glyph glyph-name="uni0453" unicode="&#x453;" horiz-adv-x="468" 
d="M399 820l73 -155l-246 -103l-39 92zM258 522q92 0 143.5 -36.5t51.5 -100.5q0 -31 -10.5 -56.5t-24.5 -42t-40 -33t-45.5 -25.5t-52.5 -23q-21 -9 -28.5 -12t-22.5 -11t-20.5 -15t-5.5 -15q0 -16 26 -16q31 0 77 11t84 32l38 -122q-96 -67 -222 -67q-98 0 -150 37
t-52 104q0 62 46.5 103t129.5 79q60 27 69 38q4 6 4 12q0 16 -30 16q-54 0 -112 -40l-63 118q103 65 210 65z" />
    <glyph glyph-name="uni0454" unicode="&#x454;" horiz-adv-x="482" 
d="M302 147q28 0 57 11.5t43 28.5l45 -141q-81 -56 -195 -56q-109 0 -170 59.5t-61 165.5q0 136 83 221.5t210 85.5q89 0 173 -70l-77 -121q-38 35 -75 35q-56 0 -89 -50h81l-16 -117h-86q15 -52 77 -52z" />
    <glyph glyph-name="uni0455" unicode="&#x455;" horiz-adv-x="472" 
d="M270 522q122 0 202 -72l-80 -100q-60 36 -114 36q-17 0 -29 -6t-12 -17q0 -14 43 -30q37 -14 58 -23.5t48 -28t39.5 -43.5t12.5 -59q0 -90 -67 -139.5t-169 -49.5q-130 0 -211 73l62 117q34 -27 76.5 -39t68.5 -12q43 0 43 23q0 20 -58 39q-28 9 -49 19t-43.5 26.5
t-34.5 40.5t-12 55q0 89 62.5 139.5t163.5 50.5z" />
    <glyph glyph-name="uni0456" unicode="&#x456;" horiz-adv-x="286" 
d="M193 576q-46 0 -72.5 23.5t-26.5 64.5q0 52 30 85t85 33q46 0 72 -23.5t26 -64.5q0 -53 -29.5 -85.5t-84.5 -32.5zM277 512l-56 -399q-3 -24 -3 -36q0 -36 13 -53q-73 -34 -128 -34q-84 0 -84 84q0 9 1 18l57 420h200z" />
    <glyph glyph-name="uni0457" unicode="&#x457;" horiz-adv-x="286" 
d="M71 576q-46 0 -72.5 23.5t-26.5 64.5q0 52 30 85t85 33q46 0 72 -23.5t26 -64.5q0 -53 -29.5 -85.5t-84.5 -32.5zM309 576q-46 0 -72.5 23.5t-26.5 64.5q0 52 30 85t85 33q46 0 72 -23.5t26 -64.5q0 -53 -29.5 -85.5t-84.5 -32.5zM276 512l-54 -399q-3 -24 -3 -36
q0 -36 13 -53q-73 -34 -130 -34q-82 0 -82 84q0 9 1 18l55 420h200z" />
    <glyph glyph-name="uni0458" unicode="&#x458;" horiz-adv-x="287" 
d="M195 576q-46 0 -72.5 23.5t-26.5 64.5q0 52 30 85t85 33q46 0 72 -23.5t26 -64.5q0 -53 -29.5 -85.5t-84.5 -32.5zM13 -239q167 61 189 214l79 537h-202l-72 -515q-12 -83 -54 -96z" />
    <glyph glyph-name="uni0459" unicode="&#x459;" horiz-adv-x="768" 
d="M558 371q92 0 141.5 -39.5t49.5 -112.5q0 -103 -74 -166t-190 -63q-187 0 -187 152q0 17 2 34l27 191h-57l-33 -162q-18 -87 -64.5 -137.5t-119.5 -77.5l-61 131q57 25 74 106l57 285h428l-23 -141h30zM519 123q47 0 47 69q0 46 -45 46h-16l-9 -57q-3 -18 -3 -28
q0 -30 26 -30z" />
    <glyph glyph-name="uni045A" unicode="&#x45a;" horiz-adv-x="778" 
d="M568 371q92 0 141.5 -39.5t49.5 -112.5q0 -103 -74 -166t-190 -63q-187 0 -187 152q0 17 2 34l1 9h-81l-26 -185h-198l72 494q75 28 120 28q34 0 52 -17.5t18 -48.5q0 -5 -1 -13l-16 -109h81l23 160q77 28 124 28q71 0 71 -66q0 -6 -1 -13l-12 -72h31zM529 123
q47 0 47 69q0 46 -45 46h-16l-9 -57q-3 -18 -3 -28q0 -30 26 -30z" />
    <glyph glyph-name="uni045B" unicode="&#x45b;" horiz-adv-x="575" 
d="M543 332l-32 -219q-3 -24 -3 -36q0 -34 13 -53q-73 -34 -127 -34q-84 0 -84 84q0 9 1 18l31 202q3 20 3 31q0 41 -30 41q-35 0 -55.5 -57.5t-41.5 -208.5l-14 -100h-198l83 570h-41l21 149h41l5 33q75 28 120 28q66 0 69 -61h146l-21 -149h-144l-21 -147q33 55 70 77
t84 22q62 0 95.5 -38t33.5 -107q0 -17 -4 -45z" />
    <glyph glyph-name="uni045C" unicode="&#x45c;" horiz-adv-x="593" 
d="M472 820l73 -155l-246 -103l-39 92zM268 456q0 -5 -1 -13l-63 -443h-198l72 494q75 28 120 28q34 0 52 -17.5t18 -48.5zM593 494l-145 -201l131 -278q-55 -25 -126 -25q-98 0 -122 62l-84 217l165 253z" />
    <glyph glyph-name="uni045D" unicode="&#x45d;" horiz-adv-x="563" 
d="M237 820l212 -166l-39 -92l-246 103zM547 443l-49 -330q-3 -24 -3 -36q0 -36 13 -53q-73 -34 -129 -34q-33 0 -55 23t-22 63v17q-62 -103 -154 -103q-124 0 -124 142q0 24 3 49l45 313q75 28 123 28q71 0 71 -66q0 -5 -1 -13l-35 -225q-3 -19 -3 -30v-3q0 -11 0.5 -17.5
t7 -13.5t18.5 -7q32 0 47.5 41t34.5 171l20 135q77 28 122 28q34 0 52.5 -17.5t18.5 -48.5q0 -5 -1 -13z" />
    <glyph glyph-name="uni045E" unicode="&#x45e;" horiz-adv-x="541" 
d="M511 735q-12 -80 -62 -124t-127 -44t-119 37t-42 104q0 11 2 27h131q-1 -7 -1 -13q0 -42 34 -42q52 0 52 55h132zM367 522l187 -28q-10 -76 -49.5 -183.5t-98 -218.5t-141 -204.5t-166.5 -129.5l-72 136q78 33 138 112q-56 18 -65 81l-60 411q53 24 115 24q45 0 75 -23
t31 -72l2 -162l-4 -123q57 131 108 380z" />
    <glyph glyph-name="uni045F" unicode="&#x45f;" horiz-adv-x="559" 
d="M474 522q34 0 52 -17.5t18 -48.5q0 -5 -1 -13l-63 -443h-136l-14 -92q-73 -28 -123 -28q-33 0 -50.5 21t-17.5 57q0 15 1 24l2 18h-136l72 494q75 28 120 28q34 0 52 -17.5t18 -48.5q0 -5 -1 -13l-42 -295h79l50 346q75 28 120 28z" />
    <glyph glyph-name="uni0490" unicode="&#x490;" horiz-adv-x="507" 
d="M478 840q42 0 64.5 -21t22.5 -60q0 -8 -1 -16l-27 -181h-227l-79 -562h-209l101 720h233l15 89q60 31 107 31z" />
    <glyph glyph-name="uni0491" unicode="&#x491;" horiz-adv-x="426" 
d="M388 632q69 0 69 -66q0 -5 -1 -13l-27 -189h-171l-51 -364h-200l72 512h175l14 92q75 28 120 28z" />
    <glyph glyph-name="Wgrave" unicode="&#x1e80;" horiz-adv-x="944" 
d="M459 1028l212 -166l-39 -92l-246 103zM818 730l185 -32l-277 -698h-215l-7 284l2 246l-65 -246l-82 -284h-205l-96 701q40 29 101 29q63 0 95 -21.5t36 -83.5l18 -259l3 -179l47 193l89 321q43 29 110 29q51 0 85 -34t32 -82l-8 -274l-1 -149l47 163z" />
    <glyph glyph-name="wgrave" unicode="&#x1e81;" horiz-adv-x="803" 
d="M354 820l212 -166l-39 -92l-246 103zM642 522l173 -28q-35 -251 -216 -494h-191l-10 226q-35 -115 -94 -226h-184l-87 498q51 24 117 24q45 0 74 -23t32 -72l9 -155l-4 -111q70 172 93 337q38 24 85 24q37 0 62.5 -23.5t26.5 -71.5l5 -146l-4 -118q82 182 113 359z" />
    <glyph glyph-name="Wacute" unicode="&#x1e82;" horiz-adv-x="944" 
d="M658 1028l73 -155l-246 -103l-39 92zM818 730l185 -32l-277 -698h-215l-7 284l2 246l-65 -246l-82 -284h-205l-96 701q40 29 101 29q63 0 95 -21.5t36 -83.5l18 -259l3 -179l47 193l89 321q43 29 110 29q51 0 85 -34t32 -82l-8 -274l-1 -149l47 163z" />
    <glyph glyph-name="wacute" unicode="&#x1e83;" horiz-adv-x="803" 
d="M553 820l73 -155l-246 -103l-39 92zM642 522l173 -28q-35 -251 -216 -494h-191l-10 226q-35 -115 -94 -226h-184l-87 498q51 24 117 24q45 0 74 -23t32 -72l9 -155l-4 -111q70 172 93 337q38 24 85 24q37 0 62.5 -23.5t26.5 -71.5l5 -146l-4 -118q82 182 113 359z" />
    <glyph glyph-name="Wdieresis" unicode="&#x1e84;" horiz-adv-x="944" 
d="M431 784q-46 0 -72.5 23.5t-26.5 64.5q0 52 30 85t85 33q46 0 72 -23.5t26 -64.5q0 -53 -29.5 -85.5t-84.5 -32.5zM669 784q-46 0 -72.5 23.5t-26.5 64.5q0 52 30 85t85 33q46 0 72 -23.5t26 -64.5q0 -53 -29.5 -85.5t-84.5 -32.5zM818 730l185 -32l-277 -698h-215
l-7 284l2 246l-65 -246l-82 -284h-205l-96 701q40 29 101 29q63 0 95 -21.5t36 -83.5l18 -259l3 -179l47 193l89 321q43 29 110 29q51 0 85 -34t32 -82l-8 -274l-1 -149l47 163z" />
    <glyph glyph-name="wdieresis" unicode="&#x1e85;" horiz-adv-x="803" 
d="M326 576q-46 0 -72.5 23.5t-26.5 64.5q0 52 30 85t85 33q46 0 72 -23.5t26 -64.5q0 -53 -29.5 -85.5t-84.5 -32.5zM564 576q-46 0 -72.5 23.5t-26.5 64.5q0 52 30 85t85 33q46 0 72 -23.5t26 -64.5q0 -53 -29.5 -85.5t-84.5 -32.5zM642 522l173 -28q-35 -251 -216 -494
h-191l-10 226q-35 -115 -94 -226h-184l-87 498q51 24 117 24q45 0 74 -23t32 -72l9 -155l-4 -111q70 172 93 337q38 24 85 24q37 0 62.5 -23.5t26.5 -71.5l5 -146l-4 -118q82 182 113 359z" />
    <glyph glyph-name="uni1E9E" unicode="&#x1e9e;" horiz-adv-x="696" 
d="M573 411q91 -82 91 -191q0 -107 -65.5 -168.5t-172.5 -61.5q-102 0 -175 52l60 129q8 -6 27.5 -12.5t36.5 -6.5q33 0 53 20t20 46q0 30 -23.5 57.5t-93.5 67.5l125 212q-23 13 -59 13q-49 0 -80.5 -32t-39.5 -84l-64 -452h-198l69 478q18 122 100 187t215 65
q86 0 167.5 -40t119.5 -104z" />
    <glyph glyph-name="Ygrave" unicode="&#x1ef2;" horiz-adv-x="613" 
d="M297 1028l212 -166l-39 -92l-246 103zM677 698l-259 -408l-42 -290h-209l41 279l-149 422q43 29 114 29q118 0 138 -74l24 -92l20 -113l56 124l73 155z" />
    <glyph glyph-name="ygrave" unicode="&#x1ef3;" horiz-adv-x="541" 
d="M227 820l212 -166l-39 -92l-246 103zM367 522l187 -28q-10 -76 -49.5 -183.5t-98 -218.5t-141 -204.5t-166.5 -129.5l-72 136q78 33 138 112q-56 18 -65 81l-60 411q53 24 115 24q45 0 75 -23t31 -72l2 -162l-4 -123q57 131 108 380z" />
    <glyph glyph-name="endash" unicode="&#x2013;" horiz-adv-x="588" 
d="M57 343h499l-25 -166h-499z" />
    <glyph glyph-name="emdash" unicode="&#x2014;" horiz-adv-x="848" 
d="M58 343h758l-27 -166h-756z" />
    <glyph glyph-name="quoteleft" unicode="&#x2018;" horiz-adv-x="283" 
d="M163 359q-50 0 -77 35t-27 96q0 98 60 161t158 80l23 -48q-123 -25 -157 -113q38 14 66 14q78 0 78 -92q0 -62 -34 -97.5t-90 -35.5z" />
    <glyph glyph-name="quoteright" unicode="&#x2019;" horiz-adv-x="283" 
d="M202 730q50 0 77 -35t27 -96q0 -98 -60 -161t-158 -80l-23 48q123 25 157 113q-38 -14 -66 -14q-78 0 -78 92q0 62 34 97.5t90 35.5z" />
    <glyph glyph-name="quotesinglbase" unicode="&#x201a;" horiz-adv-x="288" 
d="M131 215q50 0 77 -35t27 -96q0 -98 -60 -161t-158 -80l-23 48q123 25 157 113q-38 -14 -66 -14q-78 0 -78 92q0 62 34 97.5t90 35.5z" />
    <glyph glyph-name="quotedblleft" unicode="&#x201c;" horiz-adv-x="549" 
d="M163 359q-50 0 -77 35t-27 96q0 98 60 161t158 80l23 -48q-123 -25 -157 -113q38 14 66 14q78 0 78 -92q0 -62 -34 -97.5t-90 -35.5zM429 359q-50 0 -77 35t-27 96q0 98 60 161t158 80l23 -48q-123 -25 -157 -113q38 14 66 14q78 0 78 -92q0 -62 -34 -97.5t-90 -35.5z
" />
    <glyph glyph-name="quotedblright" unicode="&#x201d;" horiz-adv-x="549" 
d="M202 730q50 0 77 -35t27 -96q0 -98 -60 -161t-158 -80l-23 48q123 25 157 113q-38 -14 -66 -14q-78 0 -78 92q0 62 34 97.5t90 35.5zM468 730q50 0 77 -35t27 -96q0 -98 -60 -161t-158 -80l-23 48q123 25 157 113q-38 -14 -66 -14q-78 0 -78 92q0 62 34 97.5t90 35.5z
" />
    <glyph glyph-name="quotedblbase" unicode="&#x201e;" horiz-adv-x="554" 
d="M131 215q50 0 77 -35t27 -96q0 -98 -60 -161t-158 -80l-23 48q123 25 157 113q-38 -14 -66 -14q-78 0 -78 92q0 62 34 97.5t90 35.5zM397 215q50 0 77 -35t27 -96q0 -98 -60 -161t-158 -80l-23 48q123 25 157 113q-38 -14 -66 -14q-78 0 -78 92q0 62 34 97.5t90 35.5z
" />
    <glyph glyph-name="dagger" unicode="&#x2020;" horiz-adv-x="514" 
d="M512 512l-22 -157h-112l-81 -585h-209l81 585h-117l22 157h117l36 258h208l-36 -258h113z" />
    <glyph glyph-name="daggerdbl" unicode="&#x2021;" horiz-adv-x="514" 
d="M491 355h-112l-20 -143h112l-22 -157h-112l-39 -285h-209l40 285h-118l22 157h117l20 143h-117l22 157h117l36 258h208l-36 -258h113z" />
    <glyph glyph-name="bullet" unicode="&#x2022;" horiz-adv-x="394" 
d="M191 152q-68 0 -103 32t-35 90q0 74 42 119.5t117 45.5q68 0 103.5 -32t35.5 -90q0 -74 -42 -119.5t-118 -45.5z" />
    <glyph glyph-name="ellipsis" unicode="&#x2026;" horiz-adv-x="804" 
d="M113 -10q-51 0 -78.5 26.5t-27.5 72.5q0 58 32.5 92t90.5 34q50 0 78.5 -26.5t28.5 -72.5q0 -58 -33 -92t-91 -34zM373 -10q-51 0 -78.5 26.5t-27.5 72.5q0 58 32.5 92t90.5 34q50 0 78.5 -26.5t28.5 -72.5q0 -58 -33 -92t-91 -34zM632 -10q-51 0 -78.5 26.5t-27.5 72.5
q0 58 32.5 92t90.5 34q50 0 78.5 -26.5t28.5 -72.5q0 -58 -33 -92t-91 -34z" />
    <glyph glyph-name="perthousand" unicode="&#x2030;" horiz-adv-x="1011" 
d="M189 311q-64 0 -99.5 35.5t-35.5 101.5q0 79 43.5 131.5t119.5 52.5q64 0 99 -35t35 -99q0 -83 -42.5 -135t-119.5 -52zM88 54l446 578l96 -63l-449 -579zM194 413q16 0 24.5 26t8.5 55q0 35 -18 35q-12 0 -22 -25t-10 -54q0 -37 17 -37zM501 -10q-64 0 -99.5 35.5
t-35.5 100.5q0 80 43.5 132.5t119.5 52.5q64 0 99 -35.5t35 -98.5q0 -83 -42.5 -135t-119.5 -52zM812 -10q-64 0 -99.5 35.5t-35.5 100.5q0 80 43.5 132.5t119.5 52.5q64 0 99 -35.5t35 -98.5q0 -83 -42.5 -135t-119.5 -52zM507 92q16 0 24.5 25.5t8.5 55.5q0 34 -18 34
q-12 0 -22 -25t-10 -54q0 -36 17 -36zM818 92q16 0 24.5 25.5t8.5 55.5q0 34 -18 34q-12 0 -22 -25t-10 -54q0 -36 17 -36z" />
    <glyph glyph-name="guilsinglleft" unicode="&#x2039;" horiz-adv-x="343" 
d="M20 250l189 262l132 -85l-114 -177l65 -177l-157 -85z" />
    <glyph glyph-name="guilsinglright" unicode="&#x203a;" horiz-adv-x="342" 
d="M321 250l-187 -262l-134 85l115 177l-65 177l157 85z" />
    <glyph glyph-name="fraction" unicode="&#x2044;" horiz-adv-x="270" 
d="M-153 54l503 676l102 -64l-501 -676z" />
    <glyph glyph-name="uni2070" unicode="&#x2070;" horiz-adv-x="404" 
d="M220 332q-76 0 -117.5 45.5t-41.5 129.5q0 115 54.5 192t154.5 77q75 0 116 -46.5t41 -131.5q0 -115 -54 -190.5t-153 -75.5zM230 441q24 0 38 57.5t14 112.5q0 56 -25 56q-24 0 -38 -56t-14 -109q0 -61 25 -61z" />
    <glyph glyph-name="uni2074" unicode="&#x2074;" horiz-adv-x="376" 
d="M399 520l-14 -106h-51l-11 -76h-142l11 76h-156l13 92l165 270l126 -35l-149 -221h34l5 23l129 48l-10 -71h50z" />
    <glyph glyph-name="uni2075" unicode="&#x2075;" horiz-adv-x="370" 
d="M386 499q0 -79 -54.5 -123t-145.5 -44q-41 0 -86.5 15t-71.5 39l59 86q46 -31 96 -31q25 0 41 12t16 29q0 30 -36 33l-134 10l64 245h254l-14 -106h-121l-14 -46q147 -12 147 -119z" />
    <glyph glyph-name="uni2076" unicode="&#x2076;" horiz-adv-x="380" 
d="M279 625q56 0 84.5 -30.5t28.5 -88.5q0 -83 -50 -128.5t-137 -45.5q-71 0 -108 44.5t-37 126.5q0 122 60 197.5t170 75.5q62 0 129 -39l-48 -91q-32 21 -71 21q-56 0 -82 -55q25 13 61 13zM219 441q27 0 27 57q0 36 -19 36q-14 0 -27 -4q-1 -13 -1 -38q0 -51 20 -51z" />
    <glyph glyph-name="uni2077" unicode="&#x2077;" horiz-adv-x="325" 
d="M383 770l-13 -90l-192 -359l-131 41l161 302h-135l14 106h296z" />
    <glyph glyph-name="uni2078" unicode="&#x2078;" horiz-adv-x="384" 
d="M355 563q38 -30 38 -85q0 -71 -51 -108.5t-134 -37.5q-76 0 -117.5 31t-41.5 87q0 79 67 118q-27 27 -27 73q0 65 46.5 100t122.5 35q70 0 109 -29t39 -80q0 -69 -51 -104zM251 668q-12 0 -19 -12t-7 -24q0 -22 18 -22q12 0 19 11t7 23q0 24 -18 24zM217 441q36 0 36 47
q0 30 -23 30q-18 0 -27 -14t-9 -34q0 -29 23 -29z" />
    <glyph glyph-name="uni2079" unicode="&#x2079;" horiz-adv-x="380" 
d="M257 776q69 0 107.5 -47t38.5 -130q0 -122 -60 -194.5t-172 -72.5q-61 0 -126 39l49 91q24 -21 71 -21q67 0 87 65q-27 -17 -66 -17q-55 0 -84.5 31t-29.5 86q0 79 49.5 124.5t135.5 45.5zM235 580q14 0 29 4v26q0 57 -22 57q-25 0 -25 -54q0 -33 18 -33z" />
    <glyph glyph-name="uni2080" unicode="&#x2080;" horiz-adv-x="404" 
d="M157 -116q-76 0 -117.5 45.5t-41.5 129.5q0 115 54.5 192t154.5 77q75 0 116 -46.5t41 -131.5q0 -115 -54 -190.5t-153 -75.5zM167 -7q24 0 38 57.5t14 112.5q0 56 -25 56q-24 0 -38 -56t-14 -109q0 -61 25 -61z" />
    <glyph glyph-name="uni2081" unicode="&#x2081;" horiz-adv-x="287" 
d="M261 322l-61 -432h-142l39 270l-64 -29l-36 115l153 76h111z" />
    <glyph glyph-name="uni2082" unicode="&#x2082;" horiz-adv-x="354" 
d="M197 51q-65 -39 -70 -55h167l-16 -106h-312l9 61q20 113 133 182l10 6.5t10.5 6t9.5 5.5t9 6.5l7.5 6.5t6.5 7l4.5 6.5t3.5 7.5t1 8q0 26 -31 26q-29 0 -75 -27l-35 87q78 49 148 49q67 0 104.5 -32t37.5 -90q0 -28 -9 -51t-29 -42.5t-36.5 -31t-47.5 -30.5z" />
    <glyph glyph-name="uni2083" unicode="&#x2083;" horiz-adv-x="343" 
d="M309 322l-14 -86l-72 -80q69 -32 69 -110t-54.5 -120t-144.5 -42q-65 0 -128 37l52 91q30 -19 75 -19q23 0 38 12t15 31q0 50 -118 64l94 116h-98l16 106h270z" />
    <glyph glyph-name="uni2084" unicode="&#x2084;" horiz-adv-x="376" 
d="M336 72l-14 -106h-51l-11 -76h-142l11 76h-156l13 92l165 270l126 -35l-149 -221h34l5 23l129 48l-10 -71h50z" />
    <glyph glyph-name="uni2085" unicode="&#x2085;" horiz-adv-x="370" 
d="M323 51q0 -79 -54.5 -123t-145.5 -44q-41 0 -86.5 15t-71.5 39l59 86q46 -31 96 -31q25 0 41 12t16 29q0 30 -36 33l-134 10l64 245h254l-14 -106h-121l-14 -46q147 -12 147 -119z" />
    <glyph glyph-name="uni2086" unicode="&#x2086;" horiz-adv-x="380" 
d="M216 177q56 0 84.5 -30.5t28.5 -88.5q0 -83 -50 -128.5t-137 -45.5q-71 0 -108 44.5t-37 126.5q0 122 60 197.5t170 75.5q61 0 129 -39l-48 -91q-32 21 -71 21q-56 0 -82 -55q25 13 61 13zM156 -7q27 0 27 57q0 36 -19 36q-14 0 -27 -4q-1 -13 -1 -38q0 -51 20 -51z" />
    <glyph glyph-name="uni2087" unicode="&#x2087;" horiz-adv-x="325" 
d="M320 322l-13 -90l-192 -359l-131 41l161 302h-135l14 106h296z" />
    <glyph glyph-name="uni2088" unicode="&#x2088;" horiz-adv-x="384" 
d="M292 115q38 -30 38 -85q0 -71 -51 -108.5t-134 -37.5q-76 0 -117.5 31t-41.5 87q0 79 67 118q-27 27 -27 73q0 65 46.5 100t122.5 35q70 0 109 -29t39 -80q0 -69 -51 -104zM188 220q-12 0 -19 -12t-7 -24q0 -22 18 -22q12 0 19 11t7 23q0 24 -18 24zM154 -7q36 0 36 47
q0 30 -23 30q-18 0 -27 -14t-9 -34q0 -29 23 -29z" />
    <glyph glyph-name="uni2089" unicode="&#x2089;" horiz-adv-x="380" 
d="M194 328q69 0 107.5 -47t38.5 -130q0 -122 -60 -194.5t-172 -72.5q-62 0 -126 39l49 91q24 -21 71 -21q68 0 87 65q-27 -17 -66 -17q-55 0 -84.5 31t-29.5 86q0 79 49.5 124.5t135.5 45.5zM172 132q14 0 29 4v26q0 57 -22 57q-25 0 -25 -54q0 -33 18 -33z" />
    <glyph glyph-name="Euro" unicode="&#x20ac;" horiz-adv-x="573" 
d="M371 147q54 0 96 26l47 -140q-74 -43 -178 -43q-116 0 -179 65t-66 185h-67l23 145h60q30 114 107.5 180.5t194.5 66.5q40 0 88.5 -13t84.5 -35l-74 -135q-48 27 -96 27q-62 0 -95 -87h151l-81 -149h-95q2 -45 23 -69t56 -24z" />
    <glyph glyph-name="uni20B9" unicode="&#x20b9;" horiz-adv-x="523" 
d="M527 508h-64q13 -22 15 -50h42l-16 -110h-58q-29 -42 -83 -72q80 -34 80 -107q0 -7 -2 -21l-7 -41q-3 -20 -3 -43q0 -27 6 -39q-68 -35 -122 -35q-41 0 -63 20.5t-22 55.5q0 10 1 19l7 44q1 7 1 14q0 26 -15 41.5t-37 15.5h-146l16 108h128q49 0 65 40h-189l16 110h181
q-10 37 -54 37h-120l18 127h443z" />
    <glyph glyph-name="uni20BD" unicode="&#x20bd;" horiz-adv-x="600" 
d="M306 256h-10l-4 -31h115l-16 -115h-115l-16 -110h-200l16 110h-51l16 115h51l4 31h-50l18 124h50l34 242q100 10 251 10q98 0 151.5 -41t53.5 -116q0 -105 -84 -162t-214 -57zM329 485l-15 -105h18q29 0 50 18t21 53t-42 35q-19 0 -32 -1z" />
    <glyph glyph-name="trademark" unicode="&#x2122;" horiz-adv-x="753" 
d="M684 725q30 0 42 -15.5t11 -54.5l-7 -295h-116l5 145l-67 -145h-85l-35 149l-35 -149h-97l84 352q15 13 43 13q54 0 67 -50l47 -177l99 212q20 15 44 15zM339 629h-72l-38 -269h-119l38 269h-69l13 91h260z" />
    <glyph glyph-name="oneeighth" unicode="&#x215b;" horiz-adv-x="941" 
d="M637 730l102 -64l-501 -676l-104 64zM256 288h-142l39 270l-64 -29l-36 115l153 76h111zM865 225q38 -30 38 -85q0 -71 -51 -108.5t-134 -37.5q-76 0 -117.5 31t-41.5 87q0 79 67 118q-27 27 -27 73q0 65 46.5 100t122.5 35q70 0 109 -29t39 -80q0 -69 -51 -104zM761 330
q-12 0 -19 -12t-7 -24q0 -22 18 -22q12 0 19 11t7 23q0 24 -18 24zM727 103q36 0 36 47q0 30 -23 30q-18 0 -27 -14t-9 -34q0 -29 23 -29z" />
    <glyph glyph-name="threeeighths" unicode="&#x215c;" horiz-adv-x="997" 
d="M693 730l102 -64l-501 -676l-104 64zM348 444q0 -78 -54.5 -120t-144.5 -42q-65 0 -128 37l52 91q30 -19 75 -19q23 0 38 12t15 31q0 50 -118 64l94 116h-98l16 106h270l-14 -86l-72 -80q69 -32 69 -110zM921 225q38 -30 38 -85q0 -71 -51 -108.5t-134 -37.5
q-76 0 -117.5 31t-41.5 87q0 79 67 118q-27 27 -27 73q0 65 46.5 100t122.5 35q70 0 109 -29t39 -80q0 -69 -51 -104zM817 330q-12 0 -19 -12t-7 -24q0 -22 18 -22q12 0 19 11t7 23q0 24 -18 24zM783 103q36 0 36 47q0 30 -23 30q-18 0 -27 -14t-9 -34q0 -29 23 -29z" />
    <glyph glyph-name="fiveeighths" unicode="&#x215d;" horiz-adv-x="1024" 
d="M720 730l102 -64l-501 -676l-104 64zM379 449q0 -79 -54.5 -123t-145.5 -44q-41 0 -86.5 15t-71.5 39l59 86q46 -31 96 -31q25 0 41 12t16 29q0 30 -36 33l-134 10l64 245h254l-14 -106h-121l-14 -46q147 -12 147 -119zM948 225q38 -30 38 -85q0 -71 -51 -108.5
t-134 -37.5q-76 0 -117.5 31t-41.5 87q0 79 67 118q-27 27 -27 73q0 65 46.5 100t122.5 35q70 0 109 -29t39 -80q0 -69 -51 -104zM844 330q-12 0 -19 -12t-7 -24q0 -22 18 -22q12 0 19 11t7 23q0 24 -18 24zM810 103q36 0 36 47q0 30 -23 30q-18 0 -27 -14t-9 -34
q0 -29 23 -29z" />
    <glyph glyph-name="seveneighths" unicode="&#x215e;" horiz-adv-x="936" 
d="M632 730l102 -64l-501 -676l-104 64zM171 271l-131 41l161 302h-135l14 106h296l-13 -90zM860 225q38 -30 38 -85q0 -71 -51 -108.5t-134 -37.5q-76 0 -117.5 31t-41.5 87q0 79 67 118q-27 27 -27 73q0 65 46.5 100t122.5 35q70 0 109 -29t39 -80q0 -69 -51 -104z
M756 330q-12 0 -19 -12t-7 -24q0 -22 18 -22q12 0 19 11t7 23q0 24 -18 24zM722 103q36 0 36 47q0 30 -23 30q-18 0 -27 -14t-9 -34q0 -29 23 -29z" />
    <glyph glyph-name="partialdiff" unicode="&#x2202;" horiz-adv-x="656" 
d="M346 750q141 0 222.5 -87t81.5 -232q0 -184 -108.5 -312.5t-277.5 -128.5q-116 0 -182 57t-66 153q0 92 59 158.5t150.5 99.5t207.5 40q-21 90 -93 90q-79 0 -131 -75l-107 104q52 71 118.5 102t125.5 31zM287 152q51 0 88 53.5t53 132.5q-82 -1 -139 -37.5t-57 -97.5
q0 -24 14.5 -37.5t40.5 -13.5z" />
    <glyph glyph-name="emptyset" unicode="&#x2205;" horiz-adv-x="535" 
d="M527 454l-47 -44q23 -46 23 -110q0 -138 -69 -223.5t-192 -85.5q-97 0 -152 53l-46 -43l-38 43l50 47q-25 47 -25 116q0 136 72 219.5t194 83.5q97 0 149 -52l42 39zM101 198q0 -34 7 -58l288 271q-35 37 -102 37q-86 0 -139.5 -73t-53.5 -177zM432 304q0 32 -7 54
l-289 -271q35 -37 101 -37q89 0 142 73.5t53 180.5z" />
    <glyph glyph-name="product" unicode="&#x220f;" horiz-adv-x="737" 
d="M781 770l-28 -184h-57l-113 -816h-200l113 816h-162l-113 -816h-200l113 816h-60l27 184h680z" />
    <glyph glyph-name="summation" unicode="&#x2211;" horiz-adv-x="700" 
d="M627 -72l-22 -158h-645l16 123l243 380l-125 374l16 123h624l-22 -158h-396l129 -339l-230 -345h412z" />
    <glyph glyph-name="minus" unicode="&#x2212;" horiz-adv-x="511" 
d="M57 326h417l-21 -148h-417z" />
    <glyph glyph-name="radical" unicode="&#x221a;" horiz-adv-x="733" 
d="M601 770h207l-366 -784q-50 -106 -152 -106q-49 0 -110 27l-46 230h-143l22 158h307l13 -157z" />
    <glyph glyph-name="infinity" unicode="&#x221e;" horiz-adv-x="746" 
d="M537 454q87 0 133 -44.5t46 -124.5q0 -109 -59 -173t-161 -64q-94 0 -139 58q-55 -58 -149 -58q-86 0 -132.5 45t-46.5 124q0 108 59 172.5t161 64.5q95 0 138 -59q57 59 150 59zM246 205q15 0 23 22t8 44q0 26 -17 26t-25.5 -21.5t-8.5 -43.5q0 -27 20 -27zM486 205
q17 0 25 21.5t8 44.5q0 26 -19 26q-15 0 -23.5 -22t-8.5 -43q0 -27 18 -27z" />
    <glyph glyph-name="integral" unicode="&#x222b;" horiz-adv-x="328" 
d="M290 781l76 -144q-21 -7 -39.5 -34t-23.5 -71l-80 -568q-13 -86 -59 -131t-123 -74l-75 144q21 7 40.5 34t25.5 71l76 568q11 85 57.5 130.5t124.5 74.5z" />
    <glyph glyph-name="approxequal" unicode="&#x2248;" horiz-adv-x="571" 
d="M76 248l-41 74q23 53 66.5 86.5t86.5 33.5q52 0 142 -27q54 -18 80 -18q27 0 51 16.5t35 40.5l37 -75q-31 -59 -75.5 -89t-91.5 -30q-52 0 -132 29q-49 19 -71 19q-53 0 -87 -60zM76 38l-41 74q23 53 66.5 86.5t86.5 33.5q52 0 142 -27q54 -18 80 -18q27 0 51 16.5
t35 40.5l37 -75q-31 -59 -75.5 -89t-91.5 -30q-52 0 -132 29q-49 19 -71 19q-53 0 -87 -60z" />
    <glyph glyph-name="notequal" unicode="&#x2260;" horiz-adv-x="514" 
d="M468 283h-175l-25 -62h193l-21 -148h-232l-30 -73h-65l30 73h-120l21 148h158l25 62h-176l21 148h215l33 81h66l-33 -81h136z" />
    <glyph glyph-name="lessequal" unicode="&#x2264;" horiz-adv-x="502" 
d="M494 517l-25 -147l-187 -32l184 -31l-22 -148l-404 111l12 93h1l6 43zM5 0l22 148h416l-23 -148h-415z" />
    <glyph glyph-name="greaterequal" unicode="&#x2265;" horiz-adv-x="501" 
d="M483 406l-6 -41l-14 -95l-429 -111l21 148l187 31l-182 32l19 147zM10 0l22 148h416l-23 -148h-415z" />
    <glyph glyph-name="lozenge" unicode="&#x25ca;" horiz-adv-x="514" 
d="M19 256l273 266l203 -266l-273 -266zM210 256l34 -48l50 48l-35 52z" />
    <glyph glyph-name="i.loclTRK" horiz-adv-x="286" 
d="M196 576q-46 0 -72.5 23.5t-26.5 64.5q0 52 30 85t85 33q46 0 72 -23.5t26 -64.5q0 -53 -29.5 -85.5t-84.5 -32.5zM276 512l-54 -399q-3 -24 -3 -36q0 -36 13 -53q-73 -34 -130 -34q-82 0 -82 84q0 9 1 18l55 420h200z" />
    <glyph glyph-name="j.ss01" horiz-adv-x="293" 
d="M201 576q-46 0 -72.5 23.5t-26.5 64.5q0 52 30 85t85 33q46 0 72 -23.5t26 -64.5q0 -53 -29.5 -85.5t-84.5 -32.5zM-17 -240q93 0 151.5 49t70.5 135l82 568h-202l-74 -546q-7 -49 -48 -49q-29 0 -53 12l-56 -139q57 -30 129 -30z" />
    <glyph glyph-name="y.ss01" horiz-adv-x="564" 
d="M478 522q33 0 51.5 -17.5t18.5 -48.5q0 -5 -1 -13l-64 -461q-14 -104 -88 -163t-192 -59q-128 0 -224 60l107 130q62 -42 120 -42q24 0 38 4.5t22 19.5t11 28t8 44l8 53q-60 -67 -132 -67q-136 0 -136 142q0 24 3 49l45 313q75 28 123 28q71 0 71 -66q0 -5 -1 -13
l-35 -225q-3 -16 -3 -30q0 -12 1 -18.5t9 -14.5t25 -8q26 0 38 23.5t23 101.5l32 222q75 28 122 28z" />
    <glyph glyph-name="yacute.ss01" horiz-adv-x="564" 
d="M441 820l73 -155l-246 -103l-39 92zM478 522q33 0 51.5 -17.5t18.5 -48.5q0 -5 -1 -13l-64 -461q-14 -104 -88 -163t-192 -59q-128 0 -224 60l107 130q62 -42 120 -42q24 0 38 4.5t22 19.5t11 28t8 44l8 53q-60 -67 -132 -67q-136 0 -136 142q0 24 3 49l45 313
q75 28 123 28q71 0 71 -66q0 -5 -1 -13l-35 -225q-3 -16 -3 -30q0 -12 1 -18.5t9 -14.5t25 -8q26 0 38 23.5t23 101.5l32 222q75 28 122 28z" />
    <glyph glyph-name="ycircumflex.ss01" horiz-adv-x="564" 
d="M338 638l-150 -76l-39 92l212 156l172 -156l-66 -92zM478 522q33 0 51.5 -17.5t18.5 -48.5q0 -5 -1 -13l-64 -461q-14 -104 -88 -163t-192 -59q-128 0 -224 60l107 130q62 -42 120 -42q24 0 38 4.5t22 19.5t11 28t8 44l8 53q-60 -67 -132 -67q-136 0 -136 142q0 24 3 49
l45 313q75 28 123 28q71 0 71 -66q0 -5 -1 -13l-35 -225q-3 -16 -3 -30q0 -12 1 -18.5t9 -14.5t25 -8q26 0 38 23.5t23 101.5l32 222q75 28 122 28z" />
    <glyph glyph-name="ydieresis.ss01" horiz-adv-x="564" 
d="M214 576q-46 0 -72.5 23.5t-26.5 64.5q0 52 30 85t85 33q46 0 72 -23.5t26 -64.5q0 -53 -29.5 -85.5t-84.5 -32.5zM452 576q-46 0 -72.5 23.5t-26.5 64.5q0 52 30 85t85 33q46 0 72 -23.5t26 -64.5q0 -53 -29.5 -85.5t-84.5 -32.5zM478 522q33 0 51.5 -17.5t18.5 -48.5
q0 -5 -1 -13l-64 -461q-14 -104 -88 -163t-192 -59q-128 0 -224 60l107 130q62 -42 120 -42q24 0 38 4.5t22 19.5t11 28t8 44l8 53q-60 -67 -132 -67q-136 0 -136 142q0 24 3 49l45 313q75 28 123 28q71 0 71 -66q0 -5 -1 -13l-35 -225q-3 -16 -3 -30q0 -12 1 -18.5t9 -14.5
t25 -8q26 0 38 23.5t23 101.5l32 222q75 28 122 28z" />
    <glyph glyph-name="ygrave.ss01" horiz-adv-x="564" 
d="M242 820l212 -166l-39 -92l-246 103zM478 522q33 0 51.5 -17.5t18.5 -48.5q0 -5 -1 -13l-64 -461q-14 -104 -88 -163t-192 -59q-128 0 -224 60l107 130q62 -42 120 -42q24 0 38 4.5t22 19.5t11 28t8 44l8 53q-60 -67 -132 -67q-136 0 -136 142q0 24 3 49l45 313
q75 28 123 28q71 0 71 -66q0 -5 -1 -13l-35 -225q-3 -16 -3 -30q0 -12 1 -18.5t9 -14.5t25 -8q26 0 38 23.5t23 101.5l32 222q75 28 122 28z" />
    <glyph glyph-name="f_b" horiz-adv-x="974" 
d="M811 522q53 0 100 -45.5t47 -128.5q0 -157 -87.5 -257.5t-237.5 -100.5q-106 0 -224 10l53 364h-162l-54 -389q-12 -87 -62 -136t-128 -78l-59 140q21 6 33 26.5t19 69.5l52 367h-65l23 148h63l13 95q12 84 67 128.5t145 44.5q68 0 123 -25l-42 -141q-14 9 -40 9
q-25 0 -40.5 -16.5t-19.5 -43.5l-7 -51h162l35 240q75 28 120 28q69 0 69 -66q0 -5 -1 -13l-37 -262q29 45 62.5 64t79.5 19zM651 136q47 0 72.5 47.5t25.5 112.5q0 70 -39 70q-26 0 -44 -44t-38 -167l-3 -19h26z" />
    <glyph glyph-name="f_f_j" horiz-adv-x="1042" 
d="M950 576q-46 0 -72.5 23.5t-26.5 64.5q0 52 30 85t85 33q46 0 72 -23.5t26 -64.5q0 -53 -29.5 -85.5t-84.5 -32.5zM1036 512l-79 -537q-22 -153 -189 -214l-60 140q42 13 54 96l51 367h-170l-55 -389q-12 -87 -61.5 -136t-127.5 -78l-60 140q21 7 33.5 27t19.5 69l51 367
h-143l-54 -389q-12 -87 -62 -136t-128 -78l-59 140q21 6 33 26.5t19 69.5l52 367h-65l23 148h63l13 95q12 84 67 128.5t145 44.5q68 0 123 -25l-42 -141q-14 9 -40 9q-25 0 -40.5 -16.5t-19.5 -43.5l-7 -51h143l13 95q12 84 67 128.5t145 44.5q77 0 132 -22l-41 -142
q-18 7 -38 7q-27 0 -47 -17t-24 -43l-7 -51h372z" />
    <glyph glyph-name="f_f_j.ss01" horiz-adv-x="1042" 
d="M950 576q-46 0 -72.5 23.5t-26.5 64.5q0 52 30 85t85 33q46 0 72 -23.5t26 -64.5q0 -53 -29.5 -85.5t-84.5 -32.5zM1036 512l-82 -568q-12 -86 -70.5 -135t-151.5 -49q-72 0 -129 30l56 139q24 -12 53 -12q41 0 48 49l54 398h-171l-55 -389q-12 -87 -61.5 -136
t-127.5 -78l-60 140q21 7 33.5 27t19.5 69l51 367h-143l-54 -389q-12 -87 -62 -136t-128 -78l-59 140q21 6 33 26.5t19 69.5l52 367h-65l23 148h63l13 95q12 84 67 128.5t145 44.5q68 0 123 -25l-42 -141q-14 9 -40 9q-25 0 -40.5 -16.5t-19.5 -43.5l-7 -51h143l13 95
q12 84 67 128.5t145 44.5q77 0 132 -22l-41 -142q-18 7 -38 7q-27 0 -47 -17t-24 -43l-7 -51h372z" />
    <glyph glyph-name="f_f_t" horiz-adv-x="1181" 
d="M1031 364l-21 -168q-1 -7 -1 -14q0 -35 33 -35q39 0 69 17l12 -144q-69 -30 -146 -30q-83 0 -128 39.5t-45 111.5q0 15 3 33l25 190h-189l-54 -389q-12 -87 -62 -136t-128 -78l-59 140q21 6 33 26.5t19 69.5l52 367h-144l-54 -389q-12 -87 -62 -136t-128 -78l-59 140
q21 6 33 26.5t19 69.5l52 367h-65l23 148h63l13 95q12 84 67 128.5t145 44.5q68 0 123 -25l-42 -141q-14 9 -40 9q-25 0 -40.5 -16.5t-19.5 -43.5l-7 -51h144l13 95q12 84 67 128.5t145 44.5q88 0 154 -34l-41 -141q-27 18 -60 18q-28 0 -48 -17t-24 -43l-7 -51h196l15 109
q66 26 108 26q37 0 57 -21.5t20 -56.5q0 -5 -1 -12l-6 -45h116l-20 -148h-118z" />
    <glyph glyph-name="f_h" horiz-adv-x="978" 
d="M946 332l-32 -219q-3 -24 -3 -36q0 -34 13 -53q-73 -34 -127 -34q-84 0 -84 84q0 9 1 18l31 202q3 20 3 31q0 41 -30 41q-35 0 -55.5 -57.5t-41.5 -208.5l-14 -100h-198l53 364h-162l-54 -389q-12 -87 -62 -136t-128 -78l-59 140q21 6 33 26.5t19 69.5l52 367h-65l23 148
h63l13 95q12 84 67 128.5t145 44.5q68 0 123 -25l-42 -141q-14 9 -40 9q-25 0 -40.5 -16.5t-19.5 -43.5l-7 -51h162l35 240q75 28 120 28q69 0 69 -66q0 -5 -1 -13l-39 -278q33 55 70 77t84 22q62 0 95.5 -38t33.5 -107q0 -17 -4 -45z" />
    <glyph glyph-name="f_iacute" horiz-adv-x="702" 
d="M787 665l-246 -103l-39 92l212 166zM692 512l-54 -399q-3 -24 -3 -36q0 -36 13 -53q-73 -34 -130 -34q-82 0 -82 84q0 9 1 18l36 272h-173l-54 -389q-12 -87 -62 -136t-128 -78l-59 140q21 6 33 26.5t19 69.5l52 367h-65l23 148h63l13 95q12 84 67 128.5t145 44.5
q77 0 132 -22l-42 -142q-18 7 -37 7q-30 0 -49 -17t-23 -43l-7 -51h371z" />
    <glyph glyph-name="f_j" horiz-adv-x="700" 
d="M608 576q-46 0 -72.5 23.5t-26.5 64.5q0 52 30 85t85 33q46 0 72 -23.5t26 -64.5q0 -53 -29.5 -85.5t-84.5 -32.5zM694 512l-79 -537q-22 -153 -189 -214l-60 140q42 13 54 96l51 367h-171l-54 -389q-12 -87 -62 -136t-128 -78l-59 140q21 6 33 26.5t19 69.5l52 367h-65
l23 148h63l13 95q12 84 67 128.5t145 44.5q77 0 132 -22l-42 -142q-18 7 -37 7q-30 0 -49 -17t-23 -43l-7 -51h373z" />
    <glyph glyph-name="f_j.ss01" horiz-adv-x="700" 
d="M608 576q-46 0 -72.5 23.5t-26.5 64.5q0 52 30 85t85 33q46 0 72 -23.5t26 -64.5q0 -53 -29.5 -85.5t-84.5 -32.5zM694 512l-82 -568q-12 -86 -70.5 -135t-151.5 -49q-72 0 -129 30l56 139q24 -12 53 -12q41 0 48 49l54 398h-172l-54 -389q-12 -87 -62 -136t-128 -78
l-59 140q21 6 33 26.5t19 69.5l52 367h-65l23 148h63l13 95q12 84 67 128.5t145 44.5q77 0 132 -22l-42 -142q-18 7 -37 7q-30 0 -49 -17t-23 -43l-7 -51h373z" />
    <glyph glyph-name="f_k" horiz-adv-x="998" 
d="M707 714q0 -5 -1 -13l-99 -701h-198l53 364h-162l-54 -389q-12 -87 -62 -136t-128 -78l-59 140q21 6 33 26.5t19 69.5l52 367h-65l23 148h63l13 95q12 84 67 128.5t145 44.5q68 0 123 -25l-42 -141q-14 9 -40 9q-25 0 -40.5 -16.5t-19.5 -43.5l-7 -51h162l35 240
q75 28 120 28q69 0 69 -66zM996 494l-145 -201l131 -278q-55 -25 -126 -25q-98 0 -122 62l-84 217l165 253z" />
    <glyph glyph-name="f_t" horiz-adv-x="818" 
d="M688 364l-21 -168q-1 -7 -1 -14q0 -35 33 -35q39 0 69 17l12 -144q-69 -30 -146 -30q-83 0 -128 39.5t-45 111.5q0 15 3 33l25 190h-189l-54 -389q-12 -87 -62 -136t-128 -78l-59 140q21 6 33 26.5t19 69.5l52 367h-65l23 148h63l13 95q12 84 67 128.5t145 44.5
q88 0 154 -34l-41 -141q-27 18 -60 18q-28 0 -48 -17t-24 -43l-7 -51h196l15 109q66 26 108 26q37 0 57 -21.5t20 -56.5q0 -5 -1 -12l-6 -45h116l-20 -148h-118z" />
    <glyph glyph-name="t_t" horiz-adv-x="804" 
d="M674 364l-21 -168q-1 -7 -1 -14q0 -35 33 -35q39 0 69 17l12 -144q-69 -30 -146 -30q-83 0 -128 39.5t-45 111.5q0 15 3 33l25 190h-183l-21 -168q-1 -7 -1 -14q0 -35 33 -35q39 0 69 17l12 -144q-69 -30 -146 -30q-83 0 -128 39.5t-45 111.5q0 15 3 33l25 190h-64
l21 148h71l15 109q66 26 108 26q37 0 57 -21.5t20 -56.5q0 -5 -1 -12l-6 -45h189l15 109q66 26 108 26q37 0 57 -21.5t20 -56.5q0 -5 -1 -12l-6 -45h116l-20 -148h-118z" />
    <glyph glyph-name="ordfeminine.case" horiz-adv-x="444" 
d="M418 450q-2 -18 -2 -28q0 -25 9 -39q-61 -27 -101 -27q-26 0 -43 16t-18 45q-36 -61 -100 -61q-35 0 -69 32t-34 89q0 111 63 182t172 71q71 0 164 -7zM239 478q16 0 25.5 27.5t21.5 111.5h-6q-32 0 -47.5 -29t-15.5 -71q0 -39 22 -39z" />
    <glyph glyph-name="ordfeminine.lf" horiz-adv-x="444" 
d="M418 450q-2 -18 -2 -28q0 -25 9 -39q-61 -27 -101 -27q-26 0 -43 16t-18 45q-36 -61 -100 -61q-35 0 -69 32t-34 89q0 111 63 182t172 71q71 0 164 -7zM239 478q16 0 25.5 27.5t21.5 111.5h-6q-32 0 -47.5 -29t-15.5 -71q0 -39 22 -39z" />
    <glyph glyph-name="ordmasculine.case" horiz-adv-x="432" 
d="M236 356q-84 0 -128 41.5t-44 116.5q0 100 57 158t156 58q83 0 127 -41.5t44 -118.5q0 -102 -55.5 -158t-156.5 -56zM251 478q18 0 29 26.5t11 62.5q0 41 -31 41q-18 0 -28.5 -25.5t-10.5 -61.5q0 -43 30 -43z" />
    <glyph glyph-name="ordmasculine.lf" horiz-adv-x="432" 
d="M236 356q-84 0 -128 41.5t-44 116.5q0 100 57 158t156 58q83 0 127 -41.5t44 -118.5q0 -102 -55.5 -158t-156.5 -56zM251 478q18 0 29 26.5t11 62.5q0 41 -31 41q-18 0 -28.5 -25.5t-10.5 -61.5q0 -43 30 -43z" />
    <glyph glyph-name="uni0414.loclBGR" horiz-adv-x="739" 
d="M645 153h72l-36 -242q-65 -31 -116 -31q-40 0 -63.5 22.5t-23.5 60.5q0 7 1 14l4 23h-315l-21 -89q-59 -31 -104 -31q-35 0 -54.5 22.5t-19.5 60.5q0 6 1 14l26 176h59l262 552q50 25 106 25q107 0 130 -117zM241 158h193l-56 343z" />
    <glyph glyph-name="uni041B.loclBGR" horiz-adv-x="667" 
d="M645 0h-216l-81 503l-201 -503h-196l336 705q50 25 106 25q107 0 130 -117z" />
    <glyph glyph-name="uni0424.loclBGR" horiz-adv-x="815" 
d="M805 425q0 -171 -88 -285t-243 -142l-15 -108h-206l16 111q-112 25 -171 100t-59 193q0 172 88.5 286t244.5 142l12 87q60 31 107 31q42 0 65 -21t23 -60q0 -8 -1 -16l-3 -24q111 -25 170.5 -100.5t59.5 -193.5zM500 184q51 35 78.5 99.5t27.5 138.5q0 87 -56 122z
M241 301q0 -87 53 -123l51 357q-50 -34 -77 -96.5t-27 -137.5z" />
    <glyph glyph-name="uni0431.loclSRB" horiz-adv-x="574" 
d="M374 584q-97 -18 -97 -52q0 -6 4.5 -11.5t16 -11l20 -9.5t27.5 -11q34 -13 53.5 -21.5t52 -29t51 -42.5t33 -58t14.5 -79q0 -127 -78 -198t-213 -71q-117 0 -180 51t-63 143q0 138 142 224q-73 45 -73 127q0 94 72.5 141t218.5 72l171 29q31 -40 31 -91
q0 -35 -30.5 -55.5t-73.5 -28.5zM272 147q36 0 55.5 32t19.5 76q0 48 -40 80q-87 -53 -87 -132q0 -56 52 -56z" />
    <glyph glyph-name="uni0432.loclBGR" horiz-adv-x="563" 
d="M437 402q101 -43 101 -149q0 -117 -85 -190t-215 -73q-100 0 -156.5 41t-56.5 115q0 19 2 31l59 416q13 88 84 137.5t187 49.5q102 0 158.5 -43.5t56.5 -121.5q0 -73 -35.5 -127.5t-99.5 -85.5zM329 634q-34 0 -41 -45l-19 -132h17q40 0 60 35.5t20 90.5q0 51 -37 51z
M270 136q62 0 62 110q0 41 -16.5 65.5t-44.5 24.5h-19l-20 -143q-1 -10 -1 -19q0 -20 8.5 -29t30.5 -9z" />
    <glyph glyph-name="uni0432.ss01" horiz-adv-x="520" 
d="M419 267q65 -29 65 -87q0 -89 -78 -139.5t-194 -50.5q-119 0 -205 10l72 512q85 10 235 10q90 0 138.5 -32t48.5 -93q0 -84 -82 -130zM313 355q0 29 -42 29h-14l-12 -81h13q55 0 55 52zM232 129q67 0 67 51q0 35 -41 35h-25l-13 -86h12z" />
    <glyph glyph-name="uni0433.loclBGR" horiz-adv-x="468" 
d="M258 522q92 0 143.5 -36.5t51.5 -100.5q0 -31 -10.5 -56.5t-24.5 -42t-40 -33t-45.5 -25.5t-52.5 -23q-21 -9 -28.5 -12t-22.5 -11t-20.5 -15t-5.5 -15q0 -16 26 -16q31 0 77 11t84 32l38 -122q-96 -67 -222 -67q-98 0 -150 37t-52 104q0 62 46.5 103t129.5 79
q60 27 69 38q4 6 4 12q0 16 -30 16q-54 0 -112 -40l-63 118q103 65 210 65z" />
    <glyph glyph-name="uni0433.loclSRB" horiz-adv-x="286" 
d="M62 747h292l-21 -143h-292zM276 512l-54 -399q-3 -24 -3 -36q0 -36 13 -53q-73 -34 -130 -34q-82 0 -82 84q0 9 1 18l55 420h200z" />
    <glyph glyph-name="uni0433.ss01" horiz-adv-x="426" 
d="M450 512l-21 -148h-171l-51 -364h-200l72 512h371z" />
    <glyph glyph-name="uni0453.ss01" horiz-adv-x="426" 
d="M448 665l-246 -103l-39 92l212 166zM450 512l-21 -148h-171l-51 -364h-200l72 512h371z" />
    <glyph glyph-name="uni0434.loclBGR" horiz-adv-x="574" 
d="M341 522q106 0 226 -10l-75 -530q-15 -104 -89 -163t-191 -59q-128 0 -224 60l107 130q62 -42 120 -42q45 0 58 20t21 76l9 66q-28 -44 -61 -62t-79 -18q-53 0 -100 45.5t-47 128.5q0 157 87.5 257.5t237.5 100.5zM264 146q26 0 43 43.5t37 167.5l3 19h-24
q-47 0 -72.5 -47.5t-25.5 -112.5q0 -70 39 -70z" />
    <glyph glyph-name="uni0434.loclSRB" horiz-adv-x="574" 
d="M341 522q106 0 226 -10l-75 -530q-15 -104 -89 -163t-191 -59q-128 0 -224 60l107 130q62 -42 120 -42q45 0 58 20t21 76l9 66q-28 -44 -61 -62t-79 -18q-53 0 -100 45.5t-47 128.5q0 157 87.5 257.5t237.5 100.5zM264 146q26 0 43 43.5t37 167.5l3 19h-24
q-47 0 -72.5 -47.5t-25.5 -112.5q0 -70 39 -70z" />
    <glyph glyph-name="uni0434.ss01" horiz-adv-x="638" 
d="M523 146h90l-36 -238q-73 -28 -125 -28q-33 0 -49.5 21t-16.5 57q0 12 2 27l2 15h-221l-21 -92q-67 -28 -115 -28q-28 0 -42 21t-14 57q0 15 1 24l22 154q48 21 73 54t40 107l43 215h418zM219 145h107l32 222h-60l-18 -92q-14 -75 -61 -130z" />
    <glyph glyph-name="uni0436.loclBGR" horiz-adv-x="815" 
d="M572 714q0 -5 -1 -13l-99 -701h-198l109 752q75 28 120 28q69 0 69 -66zM264 461l45 -193l-139 -268h-207l160 286l-71 212q47 24 106 24q91 0 106 -61zM816 494l-112 -197l82 -282q-50 -25 -104 -25q-109 0 -122 64l-46 215l130 253z" />
    <glyph glyph-name="uni0437.loclBGR" horiz-adv-x="488" 
d="M47 452q108 70 220 70q89 0 138 -44t49 -124q0 -72 -35.5 -121.5t-100.5 -69.5q57 -10 89 -53t32 -104q0 -117 -80 -181.5t-204 -64.5q-59 0 -120.5 30t-97.5 81l81 109q58 -68 125 -68q46 0 72.5 26t26.5 70q0 81 -90 81h-41l22 127h32q40 0 62 25t22 67q0 31 -15 47.5
t-40 16.5q-50 0 -109 -51z" />
    <glyph glyph-name="uni0438.loclBGR" horiz-adv-x="563" 
d="M547 443l-49 -330q-3 -24 -3 -36q0 -36 13 -53q-73 -34 -129 -34q-33 0 -55 23t-22 63v17q-62 -103 -154 -103q-124 0 -124 142q0 24 3 49l45 313q75 28 123 28q71 0 71 -66q0 -5 -1 -13l-35 -225q-3 -19 -3 -30v-3q0 -11 0.5 -17.5t7 -13.5t18.5 -7q32 0 47.5 41
t34.5 171l20 135q77 28 122 28q34 0 52.5 -17.5t18.5 -48.5q0 -5 -1 -13z" />
    <glyph glyph-name="uni0438.ss01" horiz-adv-x="559" 
d="M474 522q34 0 52 -17.5t18 -48.5q0 -5 -1 -13l-63 -443h-198l28 194l-90 -78l-16 -116h-198l72 494q75 28 120 28q34 0 52 -17.5t18 -48.5q0 -5 -1 -13l-18 -126l91 78l14 99q75 28 120 28z" />
    <glyph glyph-name="uni0439.loclBGR" horiz-adv-x="563" 
d="M521 735q-12 -80 -62 -124t-127 -44t-119 37t-42 104q0 11 2 27h131q-1 -7 -1 -13q0 -42 34 -42q52 0 52 55h132zM547 443l-49 -330q-3 -24 -3 -36q0 -36 13 -53q-73 -34 -129 -34q-33 0 -55 23t-22 63v17q-62 -103 -154 -103q-124 0 -124 142q0 24 3 49l45 313
q75 28 123 28q71 0 71 -66q0 -5 -1 -13l-35 -225q-3 -19 -3 -30v-3q0 -11 0.5 -17.5t7 -13.5t18.5 -7q32 0 47.5 41t34.5 171l20 135q77 28 122 28q34 0 52.5 -17.5t18.5 -48.5q0 -5 -1 -13z" />
    <glyph glyph-name="uni0439.ss01" horiz-adv-x="559" 
d="M339 567q-77 0 -119 37t-42 104q0 11 2 27h131q-1 -7 -1 -13q0 -42 34 -42q52 0 52 55h132q-12 -80 -62 -124t-127 -44zM474 522q34 0 52 -17.5t18 -48.5q0 -5 -1 -13l-63 -443h-198l28 194l-90 -78l-16 -116h-198l72 494q75 28 120 28q34 0 52 -17.5t18 -48.5
q0 -5 -1 -13l-18 -126l91 78l14 99q75 28 120 28z" />
    <glyph glyph-name="uni045D.loclBGR" horiz-adv-x="563" 
d="M237 820l212 -166l-39 -92l-246 103zM547 443l-49 -330q-3 -24 -3 -36q0 -36 13 -53q-73 -34 -129 -34q-33 0 -55 23t-22 63v17q-62 -103 -154 -103q-124 0 -124 142q0 24 3 49l45 313q75 28 123 28q71 0 71 -66q0 -5 -1 -13l-35 -225q-3 -19 -3 -30v-3q0 -11 0.5 -17.5
t7 -13.5t18.5 -7q32 0 47.5 41t34.5 171l20 135q77 28 122 28q34 0 52.5 -17.5t18.5 -48.5q0 -5 -1 -13z" />
    <glyph glyph-name="uni045D.ss01" horiz-adv-x="559" 
d="M456 654l-39 -92l-246 103l73 155zM474 522q34 0 52 -17.5t18 -48.5q0 -5 -1 -13l-63 -443h-198l28 194l-90 -78l-16 -116h-198l72 494q75 28 120 28q34 0 52 -17.5t18 -48.5q0 -5 -1 -13l-18 -126l91 78l14 99q75 28 120 28z" />
    <glyph glyph-name="uni043A.loclBGR" horiz-adv-x="595" 
d="M304 714q0 -5 -1 -13l-99 -701h-198l109 752q75 28 120 28q69 0 69 -66zM593 494l-145 -201l131 -278q-55 -25 -126 -25q-98 0 -122 62l-84 217l165 253z" />
    <glyph glyph-name="uni043B.loclBGR" horiz-adv-x="511" 
d="M481 0h-214l-16 287l-100 -287h-190l216 499q34 23 109 23q113 0 126 -81z" />
    <glyph glyph-name="uni043F.loclBGR" horiz-adv-x="578" 
d="M546 332l-31 -219q-4 -28 -4 -36q0 -34 13 -53q-73 -34 -127 -34q-84 0 -84 84q0 9 1 18l31 202q3 20 3 31q0 41 -30 41q-34 0 -53.5 -56t-42.5 -210l-15 -100h-200l70 498q59 24 105 24q39 0 58.5 -26.5t19.5 -68.5v-17q35 63 73 87.5t88 24.5q62 0 95.5 -38t33.5 -107
q0 -17 -4 -45z" />
    <glyph glyph-name="uni043F.loclSRB" horiz-adv-x="563" 
d="M200 747h292l-21 -143h-292zM547 443l-49 -330q-3 -24 -3 -36q0 -36 13 -53q-73 -34 -129 -34q-33 0 -55 23t-22 63v17q-62 -103 -154 -103q-124 0 -124 142q0 24 3 49l45 313q75 28 123 28q71 0 71 -66q0 -5 -1 -13l-35 -225q-3 -19 -3 -30v-3q0 -11 0.5 -17.5t7 -13.5
t18.5 -7q32 0 47.5 41t34.5 171l20 135q77 28 122 28q34 0 52.5 -17.5t18.5 -48.5q0 -5 -1 -13z" />
    <glyph glyph-name="uni043F.ss01" horiz-adv-x="571" 
d="M564 512l-72 -512h-200l51 364h-85l-51 -364h-200l72 512h485z" />
    <glyph glyph-name="uni0442.loclBGR" horiz-adv-x="798" 
d="M765 321l-33 -208q-3 -24 -3 -36q0 -36 13 -53q-73 -34 -128 -34q-84 0 -84 84q0 9 1 18l29 206q3 24 3 42q0 26 -14 26q-22 0 -33 -42.5t-33 -185.5l-6 -38l-15 -100h-197l41 298q3 24 3 39q0 29 -12 29q-24 0 -37 -48.5t-35 -194.5l-3 -23l-15 -100h-200l70 498
q59 24 105 24q39 0 58.5 -26.5t19.5 -68.5v-8q31 58 64.5 80.5t77.5 22.5q81 0 104 -84q32 48 66.5 66t82.5 18q55 0 84.5 -40t29.5 -113q0 -23 -4 -48z" />
    <glyph glyph-name="uni0442.loclSRB" horiz-adv-x="791" 
d="M230 747h452l-21 -143h-452zM775 443l-48 -330q-4 -24 -4 -36q0 -34 13 -53q-73 -34 -129 -34q-33 0 -54.5 23t-21.5 63v27q-57 -113 -138 -113q-44 0 -73.5 32t-36.5 87q-33 -66 -67.5 -92.5t-77.5 -26.5q-50 0 -81 41.5t-31 111.5q0 25 3 49l44 302q75 28 123 28
q71 0 71 -66q0 -5 -1 -13l-34 -229q-3 -24 -3 -39q0 -28 17 -28t30.5 44.5t29.5 160.5l20 142q75 28 123 28q70 0 70 -66q0 -5 -1 -13l-30 -229q-3 -24 -3 -38q0 -17 2.5 -23t11.5 -6q19 0 31.5 42.5t31.5 162.5l22 142q75 28 122 28q33 0 51.5 -17.5t18.5 -48.5
q0 -5 -1 -13z" />
    <glyph glyph-name="uni0442.ss01" horiz-adv-x="445" 
d="M468 512l-21 -148h-111l-51 -364h-200l51 364h-108l21 148h419z" />
    <glyph glyph-name="uni0443.ss01" horiz-adv-x="564" 
d="M478 522q33 0 51.5 -17.5t18.5 -48.5q0 -5 -1 -13l-64 -461q-14 -104 -88 -163t-192 -59q-128 0 -224 60l107 130q62 -42 120 -42q24 0 38 4.5t22 19.5t11 28t8 44l8 53q-60 -67 -132 -67q-136 0 -136 142q0 24 3 49l45 313q75 28 123 28q71 0 71 -66q0 -5 -1 -13
l-35 -225q-3 -16 -3 -30q0 -12 1 -18.5t9 -14.5t25 -8q26 0 38 23.5t23 101.5l32 222q75 28 122 28z" />
    <glyph glyph-name="uni045E.ss01" horiz-adv-x="564" 
d="M526 735q-12 -80 -62 -124t-127 -44t-119 37t-42 104q0 11 2 27h131q-1 -7 -1 -13q0 -42 34 -42q52 0 52 55h132zM478 522q33 0 51.5 -17.5t18.5 -48.5q0 -5 -1 -13l-64 -461q-14 -104 -88 -163t-192 -59q-128 0 -224 60l107 130q62 -42 120 -42q24 0 38 4.5t22 19.5
t11 28t8 44l8 53q-60 -67 -132 -67q-136 0 -136 142q0 24 3 49l45 313q75 28 123 28q71 0 71 -66q0 -5 -1 -13l-35 -225q-3 -16 -3 -30q0 -12 1 -18.5t9 -14.5t25 -8q26 0 38 23.5t23 101.5l32 222q75 28 122 28z" />
    <glyph glyph-name="uni0446.loclBGR" horiz-adv-x="620" 
d="M503 146h93l-36 -238q-73 -28 -123 -28q-33 0 -50.5 21t-17.5 57q0 15 1 24l1 8q-30 3 -49.5 25.5t-19.5 60.5v17q-62 -103 -154 -103q-124 0 -124 142q0 24 3 49l45 313q75 28 123 28q71 0 71 -66q0 -5 -1 -13l-35 -225q-3 -19 -3 -30v-3q0 -11 0.5 -17.5t7 -13.5
t18.5 -7q32 0 47.5 41t34.5 171l20 135q77 28 122 28q34 0 52.5 -17.5t18.5 -48.5q0 -5 -1 -13z" />
    <glyph glyph-name="uni0448.loclBGR" horiz-adv-x="791" 
d="M775 443l-48 -330q-4 -24 -4 -36q0 -34 13 -53q-73 -34 -129 -34q-33 0 -54.5 23t-21.5 63v27q-57 -113 -138 -113q-44 0 -73.5 32t-36.5 87q-33 -66 -67.5 -92.5t-77.5 -26.5q-50 0 -81 41.5t-31 111.5q0 25 3 49l44 302q75 28 123 28q71 0 71 -66q0 -5 -1 -13l-34 -229
q-3 -24 -3 -39q0 -28 17 -28t30.5 44.5t29.5 160.5l20 142q75 28 123 28q70 0 70 -66q0 -5 -1 -13l-30 -229q-3 -24 -3 -38q0 -17 2.5 -23t11.5 -6q19 0 31.5 42.5t31.5 162.5l22 142q75 28 122 28q33 0 51.5 -17.5t18.5 -48.5q0 -5 -1 -13z" />
    <glyph glyph-name="uni0449.loclBGR" horiz-adv-x="850" 
d="M732 146h94l-36 -238q-73 -28 -123 -28q-33 0 -50.5 21t-17.5 57q0 15 1 24l1 8q-30 2 -50 25t-20 61v27q-57 -113 -138 -113q-44 0 -73.5 32t-36.5 87q-33 -66 -67.5 -92.5t-77.5 -26.5q-50 0 -81 41.5t-31 111.5q0 25 3 49l44 302q75 28 123 28q71 0 71 -66
q0 -5 -1 -13l-34 -229q-3 -24 -3 -39q0 -28 17 -28t30.5 44.5t29.5 160.5l20 142q75 28 123 28q70 0 70 -66q0 -5 -1 -13l-30 -229q-3 -24 -3 -38q0 -17 2.5 -23t11.5 -6q19 0 31.5 42.5t31.5 162.5l22 142q75 28 122 28q33 0 51.5 -17.5t18.5 -48.5q0 -5 -1 -13z" />
    <glyph glyph-name="uni044C.loclBGR" horiz-adv-x="496" 
d="M285 371q92 0 141.5 -39.5t49.5 -112.5q0 -103 -74 -166t-190 -63q-187 0 -187 152q0 17 2 34l45 318q77 28 124 28q71 0 71 -66q0 -6 -1 -13l-12 -72h31zM246 123q47 0 47 69q0 46 -45 46h-16l-9 -57q-3 -18 -3 -28q0 -30 26 -30z" />
    <glyph glyph-name="uni044C.ss01" horiz-adv-x="500" 
d="M271 371q100 0 154.5 -39.5t54.5 -112.5q0 -105 -79 -167t-203 -62q-78 0 -190 10l70 494q75 28 120 28q32 0 49 -17.5t17 -48.5q0 -5 -1 -13l-10 -72h18zM294 198q0 19 -14.5 31.5t-35.5 12.5h-10l-17 -119q38 0 57.5 20t19.5 55z" />
    <glyph glyph-name="uni044A.loclBGR" horiz-adv-x="559" 
d="M346 371q92 0 141.5 -39.5t49.5 -112.5q0 -103 -74 -166t-190 -63q-187 0 -187 152q0 17 2 34l27 191h-88l19 145h293l-23 -141h30zM307 123q47 0 47 69q0 46 -45 46h-16l-9 -57q-3 -18 -3 -28q0 -30 26 -30z" />
    <glyph glyph-name="uni044A.ss01" horiz-adv-x="559" 
d="M331 371q100 0 154.5 -39.5t54.5 -112.5q0 -105 -79 -167t-203 -62q-78 0 -190 10l52 367h-91l18 145h285l-20 -141h19zM354 198q0 19 -14.5 31.5t-35.5 12.5h-10l-17 -119q38 0 57.5 20t19.5 55z" />
    <glyph glyph-name="uni044B.ss01" horiz-adv-x="766" 
d="M271 371q100 0 154.5 -39.5t54.5 -112.5q0 -105 -79 -167t-203 -62q-78 0 -190 10l70 494q75 28 120 28q32 0 49 -17.5t17 -48.5q0 -5 -1 -13l-10 -72h18zM489 0l72 494q75 28 120 28q34 0 52 -17.5t18 -48.5q0 -5 -1 -13l-63 -443h-198zM294 198q0 19 -14.5 31.5
t-35.5 12.5h-10l-17 -119q38 0 57.5 20t19.5 55z" />
    <glyph glyph-name="uni0459.ss01" horiz-adv-x="767" 
d="M540 371q100 0 154.5 -39.5t54.5 -112.5q0 -105 -79 -167t-203 -62q-78 0 -192 10l52 367h-58l-33 -162q-18 -87 -64 -136.5t-119 -76.5l-63 137q59 14 76 98l57 285h424l-20 -141h13zM490 123q36 1 54.5 22t18.5 53q0 19 -14.5 31.5t-35.5 12.5h-6z" />
    <glyph glyph-name="uni045A.ss01" horiz-adv-x="778" 
d="M551 371q100 0 154.5 -39.5t54.5 -112.5q0 -105 -79 -167t-203 -62q-78 0 -192 10l25 185h-81l-27 -185h-197l72 494q75 28 120 28q34 0 52 -17.5t18 -48.5q0 -5 -1 -13l-16 -109h81l22 160q75 28 120 28q34 0 52 -17.5t18 -48.5q0 -5 -1 -13l-10 -72h18zM501 123
q36 0 54.5 21.5t18.5 53.5q0 19 -14.5 31.5t-35.5 12.5h-10l-17 -119h4z" />
    <glyph glyph-name="uni0458.ss01" horiz-adv-x="293" 
d="M201 576q-46 0 -72.5 23.5t-26.5 64.5q0 52 30 85t85 33q46 0 72 -23.5t26 -64.5q0 -53 -29.5 -85.5t-84.5 -32.5zM-17 -240q93 0 151.5 49t70.5 135l82 568h-202l-74 -546q-7 -49 -48 -49q-29 0 -53 12l-56 -139q57 -30 129 -30z" />
    <glyph glyph-name="uni044E.loclBGR" horiz-adv-x="765" 
d="M528 522q103 0 159 -58t56 -163q0 -137 -73 -224t-201 -87q-87 0 -138 48t-59 136h-43l-25 -174h-198l109 752q75 28 120 28q69 0 69 -66q0 -5 -1 -13l-52 -370h35q26 89 88 140t154 51zM489 147q24 0 38 48t14 110q0 61 -31 61q-25 0 -39.5 -48t-14.5 -109q0 -62 33 -62
z" />
    <glyph glyph-name="zero.case" horiz-adv-x="642" 
d="M292 -10q-121 0 -186 75t-65 212q0 123 37 224t115 165t185 64q120 0 186 -76t66 -214q0 -123 -36.5 -223t-115 -163.5t-186.5 -63.5zM308 152q51 0 79.5 100.5t28.5 204.5q0 111 -53 111q-34 0 -60 -54t-37 -120t-11 -125q0 -56 14 -86.5t39 -30.5z" />
    <glyph glyph-name="one.case" horiz-adv-x="439" 
d="M446 720l-101 -720h-209l66 480l-108 -50l-51 172l239 118h164z" />
    <glyph glyph-name="two.case" horiz-adv-x="556" 
d="M353 270q-87 -56 -107 -78q-17 -18 -20 -34h283l-22 -158h-499l15 94q9 56 31 103t55 83.5t62.5 60.5t69.5 51l44.5 30t32.5 26t28.5 34t7.5 35q0 51 -56 51q-57 0 -132 -50l-53 130q122 82 240 82q105 0 163 -50.5t58 -141.5q0 -48 -15 -87.5t-47.5 -73t-61 -55
t-77.5 -52.5z" />
    <glyph glyph-name="three.case" horiz-adv-x="545" 
d="M543 720l-17 -129l-138 -149q125 -56 125 -188q0 -125 -87 -194.5t-229 -69.5q-116 0 -210 61l78 137q61 -36 129 -36q43 0 72.5 25t29.5 63q0 45 -46.5 74t-155.5 44l169 204h-173l21 158h432z" />
    <glyph glyph-name="four.case" horiz-adv-x="592" 
d="M582 294l-22 -158h-87l-19 -136h-209l21 136h-266l19 136l282 458l184 -50l-253 -386h64l15 77l206 77l-22 -154h87z" />
    <glyph glyph-name="five.case" horiz-adv-x="584" 
d="M335 466q107 -9 167 -61.5t60 -138.5q0 -129 -88.5 -202.5t-234.5 -73.5q-67 0 -137 23.5t-115 62.5l89 131q82 -55 159 -55q49 0 80 24.5t31 62.5q0 62 -72 67l-215 13l104 401h405l-22 -158h-207l-28 -94z" />
    <glyph glyph-name="six.case" horiz-adv-x="603" 
d="M385 475q91 0 139 -52t48 -145q0 -135 -80.5 -211.5t-218.5 -76.5q-114 0 -173.5 72.5t-59.5 208.5q0 130 41 232t126.5 164.5t204.5 62.5q101 0 203 -62l-73 -138q-46 38 -118 38q-109 0 -152 -123q48 30 113 30zM287 152q36 0 53 35t17 79q0 69 -44 69q-32 0 -66 -24
q-2 -36 -2 -55q0 -104 42 -104z" />
    <glyph glyph-name="seven.case" horiz-adv-x="511" 
d="M559 720l-19 -132l-327 -617l-194 60l283 531h-240l22 158h475z" />
    <glyph glyph-name="eight.case" horiz-adv-x="610" 
d="M508 375q66 -51 66 -142q0 -117 -82 -180t-216 -63q-121 0 -187.5 50t-66.5 140q0 137 115 203q-47 45 -47 120q0 109 74 168t199 59q111 0 172.5 -46.5t61.5 -129.5q0 -119 -89 -179zM350 568q-24 0 -37.5 -26t-13.5 -54q0 -21 9 -32t23 -11q24 0 37 25.5t13 52.5
q0 45 -31 45zM292 152q33 0 51.5 27.5t18.5 61.5q0 65 -48 65q-33 0 -53 -30.5t-20 -65.5q0 -27 13.5 -42.5t37.5 -15.5z" />
    <glyph glyph-name="nine.case" horiz-adv-x="603" 
d="M356 730q112 0 173.5 -76t61.5 -215q0 -200 -95 -324.5t-271 -124.5q-109 0 -209 62l72 138q44 -38 120 -38q122 0 158 136q-51 -33 -117 -33q-91 0 -140 51t-49 142q0 130 79.5 206t216.5 76zM318 395q31 0 63 22q1 12 1 38q0 113 -49 113q-29 0 -44 -33.5t-15 -75.5
q0 -30 12 -47t32 -17z" />
    <glyph glyph-name="zero.lf" horiz-adv-x="642" 
d="M292 -10q-121 0 -186 75t-65 212q0 123 37 224t115 165t185 64q120 0 186 -76t66 -214q0 -123 -36.5 -223t-115 -163.5t-186.5 -63.5zM308 152q51 0 79.5 100.5t28.5 204.5q0 111 -53 111q-34 0 -60 -54t-37 -120t-11 -125q0 -56 14 -86.5t39 -30.5z" />
    <glyph glyph-name="one.lf" horiz-adv-x="439" 
d="M446 720l-101 -720h-209l66 480l-108 -50l-51 172l239 118h164z" />
    <glyph glyph-name="two.lf" horiz-adv-x="556" 
d="M353 270q-87 -56 -107 -78q-17 -18 -20 -34h283l-22 -158h-499l15 94q9 56 31 103t55 83.5t62.5 60.5t69.5 51l44.5 30t32.5 26t28.5 34t7.5 35q0 51 -56 51q-57 0 -132 -50l-53 130q122 82 240 82q105 0 163 -50.5t58 -141.5q0 -48 -15 -87.5t-47.5 -73t-61 -55
t-77.5 -52.5z" />
    <glyph glyph-name="three.lf" horiz-adv-x="545" 
d="M543 720l-17 -129l-138 -149q125 -56 125 -188q0 -125 -87 -194.5t-229 -69.5q-116 0 -210 61l78 137q61 -36 129 -36q43 0 72.5 25t29.5 63q0 45 -46.5 74t-155.5 44l169 204h-173l21 158h432z" />
    <glyph glyph-name="four.lf" horiz-adv-x="592" 
d="M582 294l-22 -158h-87l-19 -136h-209l21 136h-266l19 136l282 458l184 -50l-253 -386h64l15 77l206 77l-22 -154h87z" />
    <glyph glyph-name="five.lf" horiz-adv-x="584" 
d="M335 466q107 -9 167 -61.5t60 -138.5q0 -129 -88.5 -202.5t-234.5 -73.5q-67 0 -137 23.5t-115 62.5l89 131q82 -55 159 -55q49 0 80 24.5t31 62.5q0 62 -72 67l-215 13l104 401h405l-22 -158h-207l-28 -94z" />
    <glyph glyph-name="six.lf" horiz-adv-x="603" 
d="M385 475q91 0 139 -52t48 -145q0 -135 -80.5 -211.5t-218.5 -76.5q-114 0 -173.5 72.5t-59.5 208.5q0 130 41 232t126.5 164.5t204.5 62.5q101 0 203 -62l-73 -138q-46 38 -118 38q-109 0 -152 -123q48 30 113 30zM287 152q36 0 53 35t17 79q0 69 -44 69q-32 0 -66 -24
q-2 -36 -2 -55q0 -104 42 -104z" />
    <glyph glyph-name="seven.lf" horiz-adv-x="511" 
d="M559 720l-19 -132l-327 -617l-194 60l283 531h-240l22 158h475z" />
    <glyph glyph-name="eight.lf" horiz-adv-x="610" 
d="M508 375q66 -51 66 -142q0 -117 -82 -180t-216 -63q-121 0 -187.5 50t-66.5 140q0 137 115 203q-47 45 -47 120q0 109 74 168t199 59q111 0 172.5 -46.5t61.5 -129.5q0 -119 -89 -179zM350 568q-24 0 -37.5 -26t-13.5 -54q0 -21 9 -32t23 -11q24 0 37 25.5t13 52.5
q0 45 -31 45zM292 152q33 0 51.5 27.5t18.5 61.5q0 65 -48 65q-33 0 -53 -30.5t-20 -65.5q0 -27 13.5 -42.5t37.5 -15.5z" />
    <glyph glyph-name="nine.lf" horiz-adv-x="603" 
d="M356 730q112 0 173.5 -76t61.5 -215q0 -200 -95 -324.5t-271 -124.5q-109 0 -209 62l72 138q44 -38 120 -38q122 0 158 136q-51 -33 -117 -33q-91 0 -140 51t-49 142q0 130 79.5 206t216.5 76zM318 395q31 0 63 22q1 12 1 38q0 113 -49 113q-29 0 -44 -33.5t-15 -75.5
q0 -30 12 -47t32 -17z" />
    <glyph glyph-name="zero.osf" horiz-adv-x="600" 
d="M271 -10q-115 0 -176 67t-61 190q0 168 82 276.5t229 108.5q114 0 175.5 -66t61.5 -185q0 -169 -82.5 -280t-228.5 -111zM285 147q42 0 68.5 75.5t26.5 159.5q0 45 -12.5 69.5t-34.5 24.5q-25 0 -44.5 -23.5t-30.5 -60.5t-16.5 -77t-5.5 -77q0 -91 49 -91z" />
    <glyph glyph-name="one.osf" horiz-adv-x="425" 
d="M427 622l-91 -622h-200l55 403l-104 -52l-58 153l235 118h163z" />
    <glyph glyph-name="two.osf" horiz-adv-x="552" 
d="M323 210q-85 -47 -101 -62h287l-23 -148h-496l15 106q9 68 61.5 118t136.5 98q4 3 19 11t20.5 11.5l18.5 11.5t18.5 12.5t15.5 12t14.5 13l10 12.5t7.5 14.5t2 14.5q0 41 -50 41q-57 0 -140 -62l-62 136q122 82 242 82q101 0 157 -48t56 -133q0 -35 -11.5 -65.5
t-27.5 -52t-47 -45.5t-55.5 -39t-67.5 -39z" />
    <glyph glyph-name="three.osf" horiz-adv-x="534" 
d="M528 622l-17 -120l-154 -176q67 -31 98.5 -83t31.5 -110q0 -119 -83.5 -186t-219.5 -67q-110 0 -219 66l88 127q65 -36 139 -36q42 0 67.5 23.5t25.5 60.5q0 93 -194 127l184 226h-198l23 148h428z" />
    <glyph glyph-name="four.osf" horiz-adv-x="590" 
d="M564 148l-20 -148h-86l-16 -110h-200l17 110h-276l18 133l296 499l176 -50l-271 -434h86l17 90l198 81l-24 -171h85z" />
    <glyph glyph-name="five.osf" horiz-adv-x="563" 
d="M529 474h-212l-32 -109l38 -4q98 -11 151 -62t53 -136q0 -130 -84.5 -206.5t-222.5 -76.5q-66 0 -136.5 23t-117.5 63l89 126q71 -55 160 -55q51 0 82 29.5t31 74.5q0 32 -19.5 51t-55.5 21l-209 11l105 398h403z" />
    <glyph glyph-name="six.osf" horiz-adv-x="580" 
d="M373 475q87 0 132.5 -52t45.5 -145q0 -136 -78 -212t-212 -76q-109 0 -166 72t-57 204q0 130 39 233t122.5 167t200.5 64q102 0 202 -62l-72 -131q-43 36 -107 36q-125 0 -168 -131q53 33 118 33zM276 147q35 0 53 36.5t18 83.5q0 73 -45 73q-33 0 -69 -24q-2 -38 -2 -56
q0 -59 9 -86t36 -27z" />
    <glyph glyph-name="seven.osf" horiz-adv-x="512" 
d="M546 622l-17 -122l-333 -639l-182 60l289 553h-255l23 148h475z" />
    <glyph glyph-name="eight.osf" horiz-adv-x="590" 
d="M493 375q64 -52 64 -142q0 -116 -80 -179.5t-211 -63.5q-117 0 -181.5 50t-64.5 140q0 138 113 204q-47 45 -47 120q0 106 74 166t193 60q108 0 167 -47t59 -133q0 -114 -86 -175zM341 573q-23 0 -40.5 -22.5t-17.5 -54.5q0 -54 37 -54q26 0 42.5 25t16.5 52q0 54 -38 54
zM281 147q36 0 57 30t21 65q0 32 -14.5 49.5t-38.5 17.5q-37 0 -59 -32.5t-22 -69.5q0 -28 15 -44t41 -16z" />
    <glyph glyph-name="nine.osf" horiz-adv-x="579" 
d="M335 632q109 0 165 -73.5t56 -209.5q0 -132 -38.5 -236t-122 -168.5t-201.5 -64.5q-103 0 -202 62l71 131q43 -36 117 -36q117 0 160 132q-54 -34 -120 -34q-85 0 -131 53t-46 147q0 138 78.5 217.5t213.5 79.5zM292 270q32 0 70 26q2 40 2 61q0 61 -9.5 90t-34.5 29
q-36 0 -54 -39.5t-18 -88.5q0 -78 44 -78z" />
    <glyph glyph-name="zero.dnom" horiz-adv-x="404" 
d="M172 -6q-76 0 -117.5 45.5t-41.5 129.5q0 115 54.5 192t154.5 77q75 0 116 -46.5t41 -131.5q0 -115 -54 -190.5t-153 -75.5zM182 103q24 0 38 57.5t14 112.5q0 56 -25 56q-24 0 -38 -56t-14 -109q0 -61 25 -61z" />
    <glyph glyph-name="one.dnom" horiz-adv-x="287" 
d="M277 432l-61 -432h-142l39 270l-64 -29l-36 115l153 76h111z" />
    <glyph glyph-name="two.dnom" horiz-adv-x="354" 
d="M213 161q-58 -36 -67 -49q-2 -3 -3 -6h167l-16 -106h-312l9 61q20 113 133 182l10 6.5t10.5 6t9.5 5.5t9 6.5l7.5 6.5t6.5 7l4.5 6.5t3.5 7.5t1 8q0 26 -31 26q-29 0 -75 -27l-35 87q78 49 148 49q67 0 104.5 -32t37.5 -90q0 -28 -9 -51t-29 -42.5t-36.5 -31t-47.5 -30.5
z" />
    <glyph glyph-name="three.dnom" horiz-adv-x="343" 
d="M324 432l-14 -86l-72 -80q69 -32 69 -110t-54.5 -120t-144.5 -42q-65 0 -128 37l52 91q30 -19 75 -19q23 0 38 12t15 31q0 50 -118 64l94 116h-98l16 106h270z" />
    <glyph glyph-name="four.dnom" horiz-adv-x="376" 
d="M351 182l-14 -106h-51l-11 -76h-142l11 76h-156l13 92l165 270l126 -35l-149 -221h34l5 23l129 48l-10 -71h50z" />
    <glyph glyph-name="five.dnom" horiz-adv-x="370" 
d="M338 161q0 -79 -54.5 -123t-145.5 -44q-41 0 -86.5 15t-71.5 39l59 86q46 -31 96 -31q25 0 41 12t16 29q0 30 -36 33l-134 10l64 245h254l-14 -106h-121l-14 -46q147 -12 147 -119z" />
    <glyph glyph-name="six.dnom" horiz-adv-x="380" 
d="M231 287q56 0 84.5 -30.5t28.5 -88.5q0 -83 -50 -128.5t-137 -45.5q-71 0 -108 44.5t-37 126.5q0 122 60 197.5t170 75.5q62 0 129 -39l-48 -91q-32 21 -71 21q-56 0 -82 -55q25 13 61 13zM171 103q27 0 27 57q0 36 -19 36q-14 0 -27 -4q-1 -13 -1 -38q0 -51 20 -51z" />
    <glyph glyph-name="seven.dnom" horiz-adv-x="325" 
d="M336 432l-13 -90l-192 -359l-131 41l161 302h-135l14 106h296z" />
    <glyph glyph-name="eight.dnom" horiz-adv-x="384" 
d="M308 225q38 -30 38 -85q0 -71 -51 -108.5t-134 -37.5q-76 0 -117.5 31t-41.5 87q0 79 67 118q-27 27 -27 73q0 65 46.5 100t122.5 35q70 0 109 -29t39 -80q0 -69 -51 -104zM204 330q-12 0 -19 -12t-7 -24q0 -22 18 -22q12 0 19 11t7 23q0 24 -18 24zM170 103q36 0 36 47
q0 30 -23 30q-18 0 -27 -14t-9 -34q0 -29 23 -29z" />
    <glyph glyph-name="nine.dnom" horiz-adv-x="380" 
d="M209 438q69 0 107.5 -47t38.5 -130q0 -122 -60 -194.5t-172 -72.5q-61 0 -126 39l49 91q24 -21 71 -21q67 0 87 65q-27 -17 -66 -17q-55 0 -84.5 31t-29.5 86q0 79 49.5 124.5t135.5 45.5zM187 242q14 0 29 4v26q0 57 -22 57q-25 0 -25 -54q0 -33 18 -33z" />
    <glyph glyph-name="zero.numr" horiz-adv-x="404" 
d="M213 282q-76 0 -117.5 45.5t-41.5 129.5q0 115 54.5 192t154.5 77q75 0 116 -46.5t41 -131.5q0 -115 -54 -190.5t-153 -75.5zM223 391q24 0 38 57.5t14 112.5q0 56 -25 56q-24 0 -38 -56t-14 -109q0 -61 25 -61z" />
    <glyph glyph-name="one.numr" horiz-adv-x="287" 
d="M317 720l-61 -432h-142l39 270l-64 -29l-36 115l153 76h111z" />
    <glyph glyph-name="two.numr" horiz-adv-x="354" 
d="M253 449q-58 -36 -67 -49q-2 -3 -3 -6h167l-16 -106h-312l9 61q20 113 133 182l10 6.5t10.5 6t9.5 5.5t9 6.5l7.5 6.5t6.5 7l4.5 6.5t3.5 7.5t1 8q0 26 -31 26q-29 0 -75 -27l-35 87q78 49 148 49q67 0 104.5 -32t37.5 -90q0 -28 -9 -51t-29 -42.5t-36.5 -31t-47.5 -30.5
z" />
    <glyph glyph-name="three.numr" horiz-adv-x="343" 
d="M365 720l-14 -86l-72 -80q69 -32 69 -110t-54.5 -120t-144.5 -42q-65 0 -128 37l52 91q30 -19 75 -19q23 0 38 12t15 31q0 50 -118 64l94 116h-98l16 106h270z" />
    <glyph glyph-name="four.numr" horiz-adv-x="376" 
d="M392 470l-14 -106h-51l-11 -76h-142l11 76h-156l13 92l165 270l126 -35l-149 -221h34l5 23l129 48l-10 -71h50z" />
    <glyph glyph-name="five.numr" horiz-adv-x="370" 
d="M379 449q0 -79 -54.5 -123t-145.5 -44q-41 0 -86.5 15t-71.5 39l59 86q46 -31 96 -31q25 0 41 12t16 29q0 30 -36 33l-134 10l64 245h254l-14 -106h-121l-14 -46q147 -12 147 -119z" />
    <glyph glyph-name="six.numr" horiz-adv-x="380" 
d="M272 575q56 0 84.5 -30.5t28.5 -88.5q0 -83 -50 -128.5t-137 -45.5q-71 0 -108 44.5t-37 126.5q0 122 60 197.5t170 75.5q61 0 129 -39l-48 -91q-32 21 -71 21q-56 0 -82 -55q25 13 61 13zM212 391q27 0 27 57q0 36 -19 36q-14 0 -27 -4q-1 -13 -1 -38q0 -51 20 -51z" />
    <glyph glyph-name="seven.numr" horiz-adv-x="325" 
d="M376 720l-13 -90l-192 -359l-131 41l161 302h-135l14 106h296z" />
    <glyph glyph-name="eight.numr" horiz-adv-x="384" 
d="M348 513q38 -30 38 -85q0 -71 -51 -108.5t-134 -37.5q-76 0 -117.5 31t-41.5 87q0 79 67 118q-27 27 -27 73q0 65 46.5 100t122.5 35q70 0 109 -29t39 -80q0 -69 -51 -104zM244 618q-12 0 -19 -12t-7 -24q0 -22 18 -22q12 0 19 11t7 23q0 24 -18 24zM210 391q36 0 36 47
q0 30 -23 30q-18 0 -27 -14t-9 -34q0 -29 23 -29z" />
    <glyph glyph-name="nine.numr" horiz-adv-x="380" 
d="M250 726q69 0 107.5 -47t38.5 -130q0 -122 -60 -194.5t-172 -72.5q-61 0 -126 39l49 91q24 -21 71 -21q68 0 87 65q-27 -17 -66 -17q-55 0 -84.5 31t-29.5 86q0 79 49.5 124.5t135.5 45.5zM228 530q14 0 29 4v26q0 57 -22 57q-25 0 -25 -54q0 -33 18 -33z" />
    <glyph glyph-name="backslash.case" horiz-adv-x="360" 
d="M216 730l87 -721l-130 -19l-88 721z" />
    <glyph glyph-name="exclamdown.case" horiz-adv-x="314" 
d="M199 505q-51 0 -78.5 26.5t-27.5 72.5q0 58 32.5 92t90.5 34q50 0 78.5 -26.5t28.5 -72.5q0 -58 -33 -92t-91 -34zM280 443h-195l-64 -443h204z" />
    <glyph glyph-name="numbersign.case" horiz-adv-x="791" 
d="M768 430h-77l-32 -131h84l-41 -155h-80l-35 -144h-206l34 144h-115l-38 -144h-206l36 144h-81l43 155h77l33 131h-84l41 154h81l34 136h206l-34 -136h114l35 136h204l-33 -136h81zM331 294h125l33 140h-122z" />
    <glyph glyph-name="questiondown.case" horiz-adv-x="511" 
d="M350 730q51 0 78.5 -26.5t27.5 -72.5q0 -58 -32.5 -92t-90.5 -34q-50 0 -78.5 26.5t-28.5 72.5q0 58 33 92t91 34zM463 72q-55 -41 -115.5 -61.5t-106.5 -20.5q-106 0 -165 47.5t-59 129.5q0 70 32 115t99 95q59 44 68 58q4 7 5 13l190 -11q-12 -97 -114 -172
q-23 -16 -32.5 -24t-19.5 -23t-10 -31q0 -35 40 -35q49 0 130 61z" />
    <glyph glyph-name="slash.case" horiz-adv-x="353" 
d="M268 730l121 -48l-275 -692l-121 48z" />
    <glyph glyph-name="numbersign.lf" horiz-adv-x="791" 
d="M768 430h-77l-32 -131h84l-41 -155h-80l-35 -144h-206l34 144h-115l-38 -144h-206l36 144h-81l43 155h77l33 131h-84l41 154h81l34 136h206l-34 -136h114l35 136h204l-33 -136h81zM331 294h125l33 140h-122z" />
    <glyph glyph-name="braceleft.case" horiz-adv-x="359" 
d="M313 780l68 -140q-43 -13 -55 -96l-9 -62q-11 -71 -77 -117q49 -35 49 -94q0 -5 -2 -19l-8 -63q-2 -16 -2 -27q0 -65 37 -78l-127 -144q-61 26 -93.5 66t-32.5 111q0 14 1 28l7 69q2 16 2 22q0 20 -10.5 32.5t-29.5 12.5l23 162q53 0 57 43l9 80q17 151 193 214z" />
    <glyph glyph-name="braceright.case" horiz-adv-x="359" 
d="M75 -60l-68 140q43 13 55 96l9 62q11 71 77 117q-49 35 -49 94q0 5 2 19l8 63q2 16 2 27q0 65 -37 78l127 144q61 -26 93.5 -66t32.5 -111q0 -14 -1 -28l-7 -69q-2 -16 -2 -22q0 -20 10.5 -32.5t29.5 -12.5l-23 -162q-53 0 -57 -43l-9 -80q-17 -151 -193 -214z" />
    <glyph glyph-name="bracketleft.case" horiz-adv-x="398" 
d="M412 612h-95l-71 -504h95l-22 -158h-304l115 820h304z" />
    <glyph glyph-name="bracketright.case" horiz-adv-x="398" 
d="M412 770l-115 -820h-304l22 158h95l71 504h-95l22 158h304z" />
    <glyph glyph-name="parenleft.case" horiz-adv-x="354" 
d="M300 21q-43 87 -43 234q0 131 35.5 254.5t102.5 211.5l-150 59q-96 -101 -152 -241.5t-56 -282.5q0 -182 86 -316z" />
    <glyph glyph-name="parenright.case" horiz-adv-x="354" 
d="M83 699q43 -87 43 -234q0 -131 -35.5 -254.5t-102.5 -211.5l150 -59q96 101 152 241.5t56 282.5q0 182 -86 316z" />
    <glyph glyph-name="emdash.case" horiz-adv-x="852" 
d="M74 443h758l-27 -166h-756z" />
    <glyph glyph-name="endash.case" horiz-adv-x="594" 
d="M74 443h499l-25 -166h-499z" />
    <glyph glyph-name="hyphen.case" horiz-adv-x="425" 
d="M74 443h330l-24 -166h-331z" />
    <glyph glyph-name="uni00AD.case" horiz-adv-x="425" 
d="M74 443h330l-24 -166h-331z" />
    <glyph glyph-name="guillemotleft.case" horiz-adv-x="617" 
d="M38 350l189 262l132 -85l-114 -177l65 -177l-157 -85zM300 350l189 262l132 -85l-114 -177l65 -177l-157 -85z" />
    <glyph glyph-name="guillemotright.case" horiz-adv-x="618" 
d="M343 350l-187 -262l-134 85l115 177l-65 177l157 85zM605 350l-187 -262l-134 85l115 177l-65 177l157 85z" />
    <glyph glyph-name="guilsinglleft.case" horiz-adv-x="355" 
d="M38 350l189 262l132 -85l-114 -177l65 -177l-157 -85z" />
    <glyph glyph-name="guilsinglright.case" horiz-adv-x="356" 
d="M343 350l-187 -262l-134 85l115 177l-65 177l157 85z" />
    <glyph glyph-name="dollar.case" horiz-adv-x="580" 
d="M553 269q0 -115 -68 -187t-185 -88l-15 -106h-85l15 103q-55 4 -116 27t-99 56l80 137q67 -52 158 -58l16 114q-95 38 -138.5 88t-43.5 123q0 110 66.5 176t181.5 75l14 101h85l-15 -103q102 -14 177 -73l-103 -131q-40 32 -97 41l-12 -87q100 -40 142 -86t42 -122z
M245 532q0 -21 42 -35l10 72q-52 -5 -52 -37zM323 154q57 11 57 52q0 25 -44 42z" />
    <glyph glyph-name="Euro.case" horiz-adv-x="699" 
d="M439 152q65 0 136 56l75 -140q-53 -39 -114.5 -58.5t-105.5 -19.5q-129 0 -208.5 60.5t-98.5 171.5h-95l18 112h72q1 13 5 39h-69l18 112h78q44 115 138 180t228 65q113 0 198 -59l-92 -127q-58 24 -112 24q-78 0 -126 -75h204l-85 -120h-162l-4 -31h151l-84 -120h-59
q23 -70 94 -70z" />
    <glyph glyph-name="uni20BD.case" horiz-adv-x="691" 
d="M356 252h-28l-5 -36h126l-17 -120h-126l-13 -96h-209l13 96h-76l17 120h76l5 36h-76l22 158h77l43 310q105 10 269 10q120 0 185 -49t65 -141q0 -130 -97.5 -209t-250.5 -79zM373 571l-22 -161h35q48 0 72 28.5t24 75.5q0 58 -70 58q-23 0 -39 -1z" />
    <glyph glyph-name="uni20B9.case" horiz-adv-x="603" 
d="M623 601h-78q15 -23 18 -49h54l-17 -120h-63q-35 -61 -111 -99q98 -37 98 -125q0 -19 -2 -36l-8 -59q-4 -32 -4 -36q0 -33 11 -53q-78 -34 -133 -34q-42 0 -64.5 22t-22.5 62q0 9 1 18l8 60q2 12 2 21q0 39 -20.5 62t-50.5 23h-196l17 120h188q61 0 82 54h-263l17 120
h252q-16 49 -78 49h-168l17 119h531z" />
    <glyph glyph-name="sterling.case" horiz-adv-x="588" 
d="M462 568q-100 0 -114 -86l-5 -31h173l-22 -165h-175l-3 -19q-9 -60 -34 -103h256l-23 -164h-514l21 156h17q25 0 44 30.5t27 80.5l3 19h-67l22 165h68l10 75q13 99 83.5 151.5t184.5 52.5q124 0 204 -45l-41 -143q-18 10 -52.5 18t-62.5 8z" />
    <glyph glyph-name="yen.case" horiz-adv-x="660" 
d="M700 698l-246 -387h107l-22 -165h-119l-21 -146h-209l21 146h-120l22 165h107l-138 390q43 29 114 29q118 0 138 -74l24 -92l20 -113l56 124l73 155z" />
    <glyph glyph-name="dollar.lf" horiz-adv-x="580" 
d="M553 269q0 -115 -68 -187t-185 -88l-15 -106h-85l15 103q-55 4 -116 27t-99 56l80 137q67 -52 158 -58l16 114q-95 38 -138.5 88t-43.5 123q0 110 66.5 176t181.5 75l14 101h85l-15 -103q102 -14 177 -73l-103 -131q-40 32 -97 41l-12 -87q100 -40 142 -86t42 -122z
M245 532q0 -21 42 -35l10 72q-52 -5 -52 -37zM323 154q57 11 57 52q0 25 -44 42z" />
    <glyph glyph-name="Euro.lf" horiz-adv-x="699" 
d="M439 152q65 0 136 56l75 -140q-53 -39 -114.5 -58.5t-105.5 -19.5q-129 0 -208.5 60.5t-98.5 171.5h-95l18 112h72q1 13 5 39h-69l18 112h78q44 115 138 180t228 65q113 0 198 -59l-92 -127q-58 24 -112 24q-78 0 -126 -75h204l-85 -120h-162l-4 -31h151l-84 -120h-59
q23 -70 94 -70z" />
    <glyph glyph-name="uni20BD.lf" horiz-adv-x="691" 
d="M356 252h-28l-5 -36h126l-17 -120h-126l-13 -96h-209l13 96h-76l17 120h76l5 36h-76l22 158h77l43 310q105 10 269 10q120 0 185 -49t65 -141q0 -130 -97.5 -209t-250.5 -79zM373 571l-22 -161h35q48 0 72 28.5t24 75.5q0 58 -70 58q-23 0 -39 -1z" />
    <glyph glyph-name="uni20B9.lf" horiz-adv-x="603" 
d="M623 601h-78q15 -23 18 -49h54l-17 -120h-63q-35 -61 -111 -99q98 -37 98 -125q0 -19 -2 -36l-8 -59q-4 -32 -4 -36q0 -33 11 -53q-78 -34 -133 -34q-42 0 -64.5 22t-22.5 62q0 9 1 18l8 60q2 12 2 21q0 39 -20.5 62t-50.5 23h-196l17 120h188q61 0 82 54h-263l17 120
h252q-16 49 -78 49h-168l17 119h531z" />
    <glyph glyph-name="sterling.lf" horiz-adv-x="588" 
d="M462 568q-100 0 -114 -86l-5 -31h173l-22 -165h-175l-3 -19q-9 -60 -34 -103h256l-23 -164h-514l21 156h17q25 0 44 30.5t27 80.5l3 19h-67l22 165h68l10 75q13 99 83.5 151.5t184.5 52.5q124 0 204 -45l-41 -143q-18 10 -52.5 18t-62.5 8z" />
    <glyph glyph-name="yen.lf" horiz-adv-x="660" 
d="M700 698l-246 -387h107l-22 -165h-119l-21 -146h-209l21 146h-120l22 165h107l-138 390q43 29 114 29q118 0 138 -74l24 -92l20 -113l56 124l73 155z" />
    <glyph glyph-name="divide.case" horiz-adv-x="471" 
d="M271 451q-46 0 -72.5 23.5t-26.5 64.5q0 52 30 85t85 33q46 0 72 -23.5t26 -64.5q0 -52 -30 -85t-84 -33zM51 426h417l-21 -148h-417zM212 47q-46 0 -72.5 23.5t-26.5 64.5q0 52 30 85t85 33q46 0 72 -23.5t26 -64.5q0 -52 -30 -85t-84 -33z" />
    <glyph glyph-name="equal.case" horiz-adv-x="513" 
d="M86 531h417l-21 -148h-417zM58 321h417l-21 -148h-417z" />
    <glyph glyph-name="greater.case" horiz-adv-x="500" 
d="M495 420l-12 -92h-1l-6 -43l-443 -177l23 157l255 88l-231 88l23 157z" />
    <glyph glyph-name="greaterequal.case" horiz-adv-x="516" 
d="M506 506l-6 -41l-14 -95l-429 -111l21 148l187 31l-182 32l19 147zM33 100l22 148h416l-23 -148h-415z" />
    <glyph glyph-name="less.case" horiz-adv-x="498" 
d="M493 598l-23 -157l-253 -88l227 -88l-23 -157l-389 177l7 48l11 87z" />
    <glyph glyph-name="lessequal.case" horiz-adv-x="519" 
d="M515 617l-25 -147l-187 -32l184 -31l-22 -148l-404 111l12 93h1l6 43zM26 100l22 148h416l-23 -148h-415z" />
    <glyph glyph-name="logicalnot.case" horiz-adv-x="495" 
d="M483 508l-23 -148h-1l-21 -152h-200l22 152h-216l23 148h416z" />
    <glyph glyph-name="minus.case" horiz-adv-x="512" 
d="M71 426h417l-21 -148h-417z" />
    <glyph glyph-name="multiply.case" horiz-adv-x="503" 
d="M499 465l-108 -105l81 -106l-146 -130l-77 98l-101 -98l-115 130l109 105l-82 106l150 130l75 -98l102 98z" />
    <glyph glyph-name="notequal.case" horiz-adv-x="513" 
d="M482 383h-175l-25 -62h193l-21 -148h-232l-30 -73h-65l30 73h-120l21 148h158l25 62h-176l21 148h215l33 81h66l-33 -81h136z" />
    <glyph glyph-name="percent.case" horiz-adv-x="769" 
d="M205 360q-67 0 -104 40t-37 112q0 93 46 155.5t129 62.5q69 0 107 -40.5t38 -112.5q0 -94 -47 -155.5t-132 -61.5zM94 54l503 676l102 -64l-502 -676zM216 469q17 0 25.5 37t8.5 76t-16 39q-34 0 -34 -114q0 -38 16 -38zM556 -10q-67 0 -104 40t-37 112q0 93 46 155.5
t129 62.5q69 0 107 -40.5t38 -112.5q0 -94 -47 -155.5t-132 -61.5zM567 99q17 0 25.5 37t8.5 76t-16 39q-34 0 -34 -114q0 -38 16 -38z" />
    <glyph glyph-name="perthousand.case" horiz-adv-x="1105" 
d="M205 360q-67 0 -104 40t-37 112q0 93 46 155.5t129 62.5q69 0 107 -40.5t38 -112.5q0 -94 -47 -155.5t-132 -61.5zM94 54l503 676l102 -64l-502 -676zM216 469q17 0 25.5 37t8.5 76t-16 39q-34 0 -34 -114q0 -38 16 -38zM556 -10q-67 0 -104 40t-37 112q0 93 46 155.5
t129 62.5q69 0 107 -40.5t38 -112.5q0 -94 -47 -155.5t-132 -61.5zM892 -10q-67 0 -104 40t-37 112q0 93 46 155.5t129 62.5q69 0 107 -40.5t38 -112.5q0 -94 -47 -155.5t-132 -61.5zM567 99q17 0 25.5 37t8.5 76t-16 39q-34 0 -34 -114q0 -38 16 -38zM903 99q17 0 25.5 37
t8.5 76t-16 39q-34 0 -34 -114q0 -38 16 -38z" />
    <glyph glyph-name="plus.case" horiz-adv-x="481" 
d="M472 426l-20 -148h-110l-22 -151h-197l21 151h-109l20 148h109l21 151h200l-22 -151h109z" />
    <glyph glyph-name="plusminus.case" horiz-adv-x="538" 
d="M407 533h125l-21 -148h-124l-12 -83h-197l11 83h-128l21 148h126l11 84h200zM40 100l21 148h417l-21 -148h-417z" />
    <glyph glyph-name="brevecombcy" 
d="M48 735q-12 -80 -62 -124t-127 -44t-119 37t-42 104q0 11 2 27h131q-1 -7 -1 -13q0 -42 34 -42q52 0 52 55h132z" />
    <glyph glyph-name="brevecy" horiz-adv-x="387" 
d="M420 735q-12 -80 -62 -124t-127 -44t-119 37t-42 104q0 11 2 27h131q-1 -7 -1 -13q0 -42 34 -42q52 0 52 55h132z" />
    </font>
</defs>
</svg>
