<?xml version="1.0" standalone="no"?>
<!DOCTYPE svg PUBLIC "-//W3C//DTD SVG 1.1//EN" "http://www.w3.org/Graphics/SVG/1.1/DTD/svg11.dtd" >
<svg>
<metadata>
Created by FontForge 20090622 at Tue Sep 17 15:05:20 2019
 By deploy user
Copyright &#194;&#169; 2016 by Alberto Romanos. All rights reserved.
</metadata>
<defs>
<font id="BwSurcoDEMO-Black" horiz-adv-x="556" >
  <font-face 
    font-family="Bw Surco DEMO Black"
    font-weight="900"
    font-stretch="normal"
    units-per-em="1000"
    panose-1="0 0 10 0 0 0 0 0 0 0"
    ascent="770"
    descent="-230"
    x-height="512"
    cap-height="720"
    bbox="-796 -241 1230 1078"
    underline-thickness="50"
    underline-position="-50"
    unicode-range="U+000D-U+FB02"
  />
<missing-glyph horiz-adv-x="1274" 
d="M1214 369l-368 -372q-7 -7 -17 -7q-20 0 -20 23v324l-339 -340q-7 -7 -17 -7q-20 0 -20 23v324l-340 -340q-7 -7 -17 -7q-17 0 -17 18q0 10 5 15l342 341h-324q-23 0 -23 19q0 8 7 16l340 342h-327q-20 0 -20 19v1q0 19 20 19h370q23 0 23 -20q0 -9 -8 -17l-341 -340h330
q8 0 14 -6t6 -14v-327l339 338q9 8 17 8q18 0 18 -22v-324l340 338q8 8 16 8q7 0 12 -5.5t5 -13.5q0 -7 -6 -14z" />
    <glyph glyph-name="fi" unicode="fi" horiz-adv-x="746" 
d="M597 576q-51 0 -79.5 27.5t-28.5 76.5q0 48 28.5 75t79.5 27q50 0 78.5 -27t28.5 -75q0 -49 -28.5 -76.5t-78.5 -27.5zM698 512v-512h-200v364h-200v-364h-200v364h-71v148h71v89q0 85 55.5 132t155.5 47q70 0 137 -16l-25 -147q-25 6 -61 6q-28 0 -45 -15t-17 -40v-56
h400z" />
    <glyph glyph-name="fl" unicode="fl" horiz-adv-x="784" 
d="M765 154l25 -126q-60 -38 -134 -38q-84 0 -130 48t-46 135v191h-182v-364h-200v364h-71v148h71v89q0 85 55.5 132t155.5 47q63 0 119 -16l-24 -146q-18 5 -44 5q-28 0 -45 -15t-17 -40v-56h182v241q65 27 110 27q42 0 66 -24t24 -61v-508q0 -40 41 -40q27 0 44 7z" />
    <glyph glyph-name="f_f" unicode="ff" horiz-adv-x="806" 
d="M731 623q-29 0 -46 -15t-17 -40v-56h127v-148h-127v-364h-200v364h-170v-364h-200v364h-71v148h71v89q0 85 55.5 132t155.5 47q63 0 119 -16l-24 -146q-18 5 -44 5q-28 0 -45 -15t-17 -40v-56h170v89q0 85 55.5 132t155.5 47q90 0 162 -31l-25 -146q-37 20 -85 20z" />
    <glyph glyph-name="f_f_i" unicode="ffi" horiz-adv-x="1117" 
d="M968 576q-51 0 -79.5 27.5t-28.5 76.5q0 48 28.5 75t79.5 27q50 0 78.5 -27t28.5 -75q0 -49 -28.5 -76.5t-78.5 -27.5zM1069 512v-512h-200v364h-200v-364h-200v364h-171v-364h-200v364h-71v148h71v89q0 85 55.5 132t155.5 47q63 0 119 -16l-24 -146q-18 5 -44 5
q-28 0 -45 -15t-17 -40v-56h171v89q0 85 55.5 132t155.5 47q70 0 137 -16l-25 -147q-26 6 -61 6q-28 0 -45 -15t-17 -40v-56h400z" />
    <glyph glyph-name="f_f_l" unicode="ffl" horiz-adv-x="1154" 
d="M1135 154l25 -126q-60 -38 -134 -38q-84 0 -130 48t-46 135v191h-182v-364h-200v364h-170v-364h-200v364h-71v148h71v89q0 85 55.5 132t155.5 47q63 0 119 -16l-24 -146q-18 5 -44 5q-28 0 -45 -15t-17 -40v-56h170v89q0 85 55.5 132t155.5 47q63 0 119 -16l-24 -146
q-18 5 -44 5q-28 0 -45 -15t-17 -40v-56h182v241q65 27 110 27q42 0 66 -24t24 -61v-508q0 -40 41 -40q27 0 44 7z" />
    <glyph glyph-name=".notdef" horiz-adv-x="1274" 
d="M1214 369l-368 -372q-7 -7 -17 -7q-20 0 -20 23v324l-339 -340q-7 -7 -17 -7q-20 0 -20 23v324l-340 -340q-7 -7 -17 -7q-17 0 -17 18q0 10 5 15l342 341h-324q-23 0 -23 19q0 8 7 16l340 342h-327q-20 0 -20 19v1q0 19 20 19h370q23 0 23 -20q0 -9 -8 -17l-341 -340h330
q8 0 14 -6t6 -14v-327l339 338q9 8 17 8q18 0 18 -22v-324l340 338q8 8 16 8q7 0 12 -5.5t5 -13.5q0 -7 -6 -14z" />
    <glyph glyph-name=".null" horiz-adv-x="0" 
 />
    <glyph glyph-name="nonmarkingreturn" horiz-adv-x="333" 
 />
    <glyph glyph-name="CR" unicode="&#xd;" horiz-adv-x="199" 
 />
    <glyph glyph-name="space" unicode=" " horiz-adv-x="199" 
 />
    <glyph glyph-name="exclam" unicode="!" horiz-adv-x="319" 
d="M257 277l5 443h-204l5 -443h194zM160 -10q-55 0 -86 30t-31 83q0 52 31 82t86 30q54 0 85 -30t31 -82q0 -53 -31 -83t-85 -30z" />
    <glyph glyph-name="quotedbl" unicode="&#x22;" horiz-adv-x="480" 
d="M37 770h182l-22 -272h-141zM262 770h182l-22 -272h-141z" />
    <glyph glyph-name="numbersign" unicode="#" horiz-adv-x="756" 
d="M706 356h-79l-11 -94h83l-18 -148h-81l-13 -114h-191l12 114h-106l-12 -114h-191l13 114h-80l17 148h79l11 94h-82l17 148h82l13 118h191l-14 -118h108l12 118h191l-13 -118h80zM316 257h110l12 103h-110z" />
    <glyph glyph-name="dollar" unicode="$" horiz-adv-x="546" 
d="M517 194q0 -89 -57 -142.5t-158 -60.5v-101h-43v100q-144 6 -228 70l46 114q84 -54 182 -56v122q-127 45 -169 86t-42 111q0 85 56.5 137t154.5 57v89h43v-89q116 -5 199 -67l-62 -94q-72 33 -137 37v-105q117 -37 166 -84t49 -124zM220 460q0 -35 39 -51v97
q-39 -11 -39 -46zM302 119q44 9 44 51q0 22 -10.5 35t-33.5 23v-109z" />
    <glyph glyph-name="percent" unicode="%" horiz-adv-x="759" 
d="M186 311q-74 0 -115.5 42t-41.5 118t41.5 118.5t115.5 42.5t116 -42.5t42 -118.5t-41.5 -118t-116.5 -42zM122 54l411 578l103 -63l-411 -579zM187 413q28 0 28 58t-28 58q-29 0 -29 -58t29 -58zM573 -10q-74 0 -115.5 42t-41.5 117q0 76 41.5 119t115.5 43t116 -43
t42 -119q0 -75 -41.5 -117t-116.5 -42zM574 92q28 0 28 57q0 58 -28 58q-29 0 -29 -58q0 -57 29 -57z" />
    <glyph glyph-name="ampersand" unicode="&#x26;" horiz-adv-x="756" 
d="M612 171l141 -121q-19 -24 -58.5 -42t-75.5 -18q-93 0 -140 44l-9 9q-94 -53 -213 -53q-107 0 -167.5 51.5t-60.5 143.5q0 106 105 219q-37 63 -37 121q0 92 72 148.5t197 56.5q56 0 123 -21.5t128 -63.5l-73 -135q-80 58 -151 58q-80 0 -80 -61q0 -59 188 -235
q33 64 56 164l154 -33q-30 -135 -99 -232zM298 135q35 0 65 9l-121 123q-20 -30 -20 -66q0 -66 76 -66z" />
    <glyph glyph-name="quotesingle" unicode="'" horiz-adv-x="255" 
d="M37 770h182l-22 -272h-141z" />
    <glyph glyph-name="parenleft" unicode="(" horiz-adv-x="368" 
d="M347 -170q-50 87 -74.5 207t-24.5 237q0 116 24 232.5t75 203.5l-163 70q-76 -105 -114 -238.5t-38 -271.5t38 -271.5t114 -238.5z" />
    <glyph glyph-name="parenright" unicode=")" horiz-adv-x="368" 
d="M21 -170l163 -70q76 105 114 238.5t38 271.5t-38 271.5t-114 238.5l-163 -70q51 -87 75 -203.5t24 -232.5q0 -117 -24.5 -237t-74.5 -207z" />
    <glyph glyph-name="asterisk" unicode="*" horiz-adv-x="395" 
d="M366 606l-92 -19l63 -67l-92 -68l-44 78l-45 -81l-94 67l61 66l-92 19l33 110l88 -40l-11 99h114l-10 -94l84 38z" />
    <glyph glyph-name="plus" unicode="+" horiz-adv-x="510" 
d="M480 326v-148h-127v-151h-197l-1 151h-125v148h125l-1 151h200v-151h126z" />
    <glyph glyph-name="comma" unicode="," horiz-adv-x="300" 
d="M150 215q55 0 86 -41.5t31 -113.5q0 -85 -48.5 -145.5t-140.5 -70.5l-24 44q60 13 90 40.5t40 72.5q-30 -11 -62 -11q-43 0 -66 28t-23 79q0 55 31 86.5t86 31.5z" />
    <glyph glyph-name="hyphen" unicode="-" horiz-adv-x="450" 
d="M49 343h352v-166h-352v166z" />
    <glyph glyph-name="period" unicode="." horiz-adv-x="297" 
d="M149 -10q-55 0 -86 30t-31 83q0 52 31 82t86 30q54 0 85 -30t31 -82q0 -53 -31 -83t-85 -30z" />
    <glyph glyph-name="slash" unicode="/" horiz-adv-x="428" 
d="M276 780l127 -39l-250 -861l-128 39z" />
    <glyph glyph-name="zero" unicode="0" horiz-adv-x="650" 
d="M325 -10q-139 0 -215.5 84.5t-76.5 236.5t76.5 236.5t215.5 84.5q138 0 215 -84.5t77 -236.5t-77 -236.5t-215 -84.5zM325 147q41 0 64.5 43.5t23.5 120.5q0 78 -23.5 121.5t-64.5 43.5q-42 0 -65.5 -43.5t-23.5 -121.5q0 -77 23.5 -120.5t65.5 -43.5z" />
    <glyph glyph-name="one" unicode="1" horiz-adv-x="443" 
d="M386 622v-622h-200v407l-111 -56l-79 153l227 118h163z" />
    <glyph glyph-name="two" unicode="2" horiz-adv-x="595" 
d="M232 148h331v-148h-536v100q0 29 12.5 56.5t27.5 46.5t46 42t49 34t55 32q43 24 64.5 38t41.5 35.5t20 42.5q0 49 -77 49q-68 0 -149 -59l-73 130q120 85 253 85q117 0 183 -52.5t66 -146.5q0 -40 -19 -74.5t-56.5 -63.5t-67 -47t-75.5 -41q-81 -42 -96 -59z" />
    <glyph glyph-name="three" unicode="3" horiz-adv-x="578" 
d="M372 330q176 -60 176 -220q0 -109 -78.5 -169.5t-219.5 -60.5q-123 0 -241 62l74 134q3 -2 15.5 -7.5t15.5 -7t13.5 -6t15 -5.5t14 -4t16 -4l16 -2.5t19 -2t20.5 -0.5q55 0 86 22.5t31 60.5q0 94 -243 126l170 228h-218v148h461v-120z" />
    <glyph glyph-name="four" unicode="4" horiz-adv-x="637" 
d="M624 148v-148h-96v-110h-200v110h-309v133l256 499l180 -50l-230 -434h108v99l195 72v-171h96z" />
    <glyph glyph-name="five" unicode="5" horiz-adv-x="608" 
d="M326 361q124 -12 192 -73t68 -162q0 -117 -79 -181.5t-222 -64.5q-69 0 -147 22t-132 61l77 132q89 -58 191 -58q52 0 81.5 23t29.5 65q0 38 -30 61.5t-83 26.5l-216 11l48 398h434v-148h-241l-18 -108z" />
    <glyph glyph-name="six" unicode="6" horiz-adv-x="630" 
d="M351 475q116 0 181 -63.5t65 -174.5q0 -116 -74 -181.5t-207 -65.5q-134 0 -208.5 94.5t-74.5 265.5q0 179 90 279.5t248 100.5q111 0 218 -59l-57 -144q-57 46 -134 46q-56 0 -96 -31t-58 -89q47 22 107 22zM325 147q31 0 50 22t19 61q0 51 -23 80.5t-62 29.5
q-41 0 -78 -25q4 -79 29 -123.5t65 -44.5z" />
    <glyph glyph-name="seven" unicode="7" horiz-adv-x="552" 
d="M534 622v-122l-277 -639l-186 60l246 553h-298v148h515z" />
    <glyph glyph-name="eight" unicode="8" horiz-adv-x="638" 
d="M514 379q93 -59 93 -172q0 -102 -76.5 -159.5t-211.5 -57.5t-211.5 57.5t-76.5 159.5q0 113 93 172q-69 54 -69 147q0 96 70 150t194 54t194 -54t70 -150q0 -93 -69 -147zM319 573q-29 0 -46 -17.5t-17 -48.5t17 -48t46 -17t46 17.5t17 47.5q0 31 -17 48.5t-46 17.5z
M319 147q39 0 61.5 21.5t22.5 57.5q0 38 -22.5 60.5t-61.5 22.5q-40 0 -62.5 -22.5t-22.5 -60.5q0 -36 22.5 -57.5t62.5 -21.5z" />
    <glyph glyph-name="nine" unicode="9" horiz-adv-x="630" 
d="M314 632q134 0 208.5 -97.5t74.5 -274.5q0 -179 -90 -279.5t-248 -100.5q-113 0 -218 59l57 144q57 -46 134 -46q56 0 96 31t58 89q-47 -22 -107 -22q-116 0 -181 65t-65 179q0 113 75 183t206 70zM236 386q0 -53 23 -84.5t62 -31.5q36 0 78 26q-4 85 -29 132.5t-65 47.5
q-32 0 -50.5 -24t-18.5 -66z" />
    <glyph glyph-name="colon" unicode=":" horiz-adv-x="315" 
d="M158 297q-55 0 -86 30t-31 83q0 52 31 82t86 30q54 0 85 -30t31 -82q0 -53 -31 -83t-85 -30zM158 -10q-55 0 -86 30t-31 83q0 52 31 82t86 30q54 0 85 -30t31 -82q0 -53 -31 -83t-85 -30z" />
    <glyph glyph-name="semicolon" unicode=";" horiz-adv-x="316" 
d="M158 297q-55 0 -86 30t-31 83q0 52 31 82t86 30q54 0 85 -30t31 -82q0 -53 -31 -83t-85 -30zM158 215q55 0 86 -41.5t31 -113.5q0 -85 -48.5 -145.5t-140.5 -70.5l-24 44q60 13 90 40.5t40 72.5q-30 -11 -62 -11q-43 0 -66 28t-23 79q0 55 31 86.5t86 31.5z" />
    <glyph glyph-name="less" unicode="&#x3c;" horiz-adv-x="527" 
d="M478 498v-157l-272 -88l272 -88v-157l-450 177v135z" />
    <glyph glyph-name="equal" unicode="=" horiz-adv-x="552" 
d="M51 431h450v-148h-450v148zM51 221h450v-148h-450v148z" />
    <glyph glyph-name="greater" unicode="&#x3e;" horiz-adv-x="527" 
d="M49 498l450 -178v-135l-450 -177v157l272 88l-272 88v157z" />
    <glyph glyph-name="question" unicode="?" horiz-adv-x="543" 
d="M24 645q52 42 116 63.5t118 21.5q119 0 187.5 -54.5t68.5 -144.5q0 -33 -10.5 -61.5t-33.5 -53t-38 -37.5t-44 -35q-22 -16 -32 -24.5t-19.5 -20.5t-9.5 -22h-194q0 33 9 60.5t28.5 49.5t33 34t38.5 31l29 23.5t18 20t9 24.5q0 48 -72 48q-58 0 -129 -58zM231 -10
q-55 0 -86 30t-31 83q0 52 31 82t86 30q54 0 85 -30t31 -82q0 -53 -31 -83t-85 -30z" />
    <glyph glyph-name="at" unicode="@" horiz-adv-x="1126" 
d="M555 485q119 0 237 -20v-195q0 -29 13.5 -45.5t37.5 -16.5t37.5 29.5t13.5 81.5q0 146 -88 227.5t-245 81.5q-156 0 -244 -95t-88 -263t88 -263t244 -95q144 0 280 61l67 -140q-65 -33 -161.5 -53t-185.5 -20q-250 0 -390 134.5t-140 375.5t140 375.5t390 134.5
q251 0 391 -122t140 -339q0 -124 -66 -193.5t-183 -69.5q-148 0 -207 91q-21 -43 -65.5 -67t-93.5 -24q-82 0 -127.5 54t-45.5 150q0 106 66.5 165.5t184.5 59.5zM545 198q26 0 41.5 22t15.5 60v53h-26q-35 0 -57 -20t-22 -56q0 -28 13 -43.5t35 -15.5z" />
    <glyph glyph-name="A" unicode="A" horiz-adv-x="713" 
d="M508 0l-44 134h-238l-44 -134h-197l262 703q54 27 109 27q99 0 143 -112l229 -618h-220zM279 292h132l-66 220z" />
    <glyph glyph-name="B" unicode="B" horiz-adv-x="686" 
d="M547 374q112 -54 112 -170q0 -102 -84 -158t-234 -56q-137 0 -277 10v720q143 10 257 10q145 0 226.5 -54.5t81.5 -150.5q0 -97 -82 -151zM322 572q-30 0 -49 -1v-125h49q90 0 90 64q0 62 -90 62zM342 148q47 0 73.5 18.5t26.5 51.5q0 34 -26.5 52t-73.5 18h-69v-139
q27 -1 69 -1z" />
    <glyph glyph-name="C" unicode="C" horiz-adv-x="664" 
d="M658 82q-45 -43 -119 -67.5t-157 -24.5q-164 0 -257 103t-93 267q0 163 87.5 266.5t240.5 103.5q192 0 280 -162l-192 -75q-34 75 -87 75q-47 0 -80 -50t-33 -158q0 -109 45 -158.5t113 -49.5q87 0 173 71z" />
    <glyph glyph-name="D" unicode="D" horiz-adv-x="737" 
d="M298 730q193 0 300.5 -97.5t107.5 -272.5t-107.5 -272.5t-300.5 -97.5q-139 0 -234 10v720q90 10 234 10zM297 148q92 0 142 56t50 156t-50 156t-142 56q-15 0 -24 -1v-422q9 -1 24 -1z" />
    <glyph glyph-name="E" unicode="E" horiz-adv-x="613" 
d="M273 158h303v-158h-512v720h501v-158h-292v-116h257v-158h-257v-130z" />
    <glyph glyph-name="F" unicode="F" horiz-adv-x="567" 
d="M540 562h-267v-158h215v-157h-215v-247h-209v720h476v-158z" />
    <glyph glyph-name="G" unicode="G" horiz-adv-x="734" 
d="M380 431h312v-414q-54 -27 -98 -27q-38 0 -64.5 19.5t-35.5 51.5q-30 -40 -73 -55.5t-110 -15.5q-131 0 -204.5 103t-73.5 267q0 163 90 266.5t248 103.5q192 0 280 -162l-192 -75q-37 75 -94 75q-47 0 -81.5 -50t-34.5 -158t36 -158t87 -50q56 0 83 25t28 96h-103v158z
" />
    <glyph glyph-name="H" unicode="H" horiz-adv-x="783" 
d="M610 730q51 0 81 -29t30 -73v-628h-209v285h-239v-285h-209v703q54 27 98 27q51 0 81 -29t30 -73v-185h239v260q54 27 98 27z" />
    <glyph glyph-name="I" unicode="I" horiz-adv-x="335" 
d="M273 0h-209v703q54 27 98 27q51 0 81 -29t30 -73v-628z" />
    <glyph glyph-name="J" unicode="J" horiz-adv-x="439" 
d="M172 217q0 -30 -14 -47.5t-41 -17.5q-45 0 -83 20l-25 -151q71 -31 157 -31q101 0 158 50t57 139v449q0 44 -30 73t-81 29q-44 0 -98 -27v-486z" />
    <glyph glyph-name="K" unicode="K" horiz-adv-x="709" 
d="M162 730q51 0 81 -29t30 -73v-628h-209v703q54 27 98 27zM489 391l237 -369q-40 -32 -109 -32q-67 0 -100 16t-55 52l-184 306l189 366l191 -32z" />
    <glyph glyph-name="L" unicode="L" horiz-adv-x="569" 
d="M273 164h283v-164h-492v703q54 27 98 27q51 0 81 -29t30 -73v-464z" />
    <glyph glyph-name="M" unicode="M" horiz-adv-x="968" 
d="M940 0h-213l-34 387l-125 -387h-187l-132 393l-29 -393h-189l80 703q50 27 101 27q118 0 144 -80l144 -435l145 485q43 30 98 30t81.5 -24t35.5 -90z" />
    <glyph glyph-name="N" unicode="N" horiz-adv-x="785" 
d="M523 720h198v-720h-165l-300 381l6 -381h-198v703q37 27 86 27q38 0 66 -16t55 -53l258 -328z" />
    <glyph glyph-name="O" unicode="O" horiz-adv-x="808" 
d="M405 -10q-176 0 -274.5 97.5t-98.5 272.5t98.5 272.5t274.5 97.5q175 0 273 -97.5t98 -272.5t-98 -272.5t-273 -97.5zM404 152q73 0 114 55t41 153t-41 153t-114 55t-114.5 -55.5t-41.5 -152.5t41.5 -152.5t114.5 -55.5z" />
    <glyph glyph-name="P" unicode="P" horiz-adv-x="666" 
d="M340 730q146 0 228 -62.5t82 -173.5q0 -114 -82 -178t-229 -64q-42 0 -66 1v-253h-209v720q113 10 276 10zM338 410q47 0 71.5 22t24.5 62q0 36 -25 57t-70 21q-40 0 -66 -1v-160q23 -1 65 -1z" />
    <glyph glyph-name="Q" unicode="Q" horiz-adv-x="808" 
d="M521 3q18 -44 63 -66.5t105 -22.5l-89 -136q-98 5 -170 52t-106 128l-17 41q-132 26 -203.5 119.5t-71.5 241.5q0 175 98.5 272.5t274.5 97.5q175 0 273 -97.5t98 -272.5q0 -142 -66.5 -234.5t-188.5 -122.5zM404 568q-73 0 -114.5 -55.5t-41.5 -152.5t41.5 -152.5
t114.5 -55.5t114 55t41 153t-41 153t-114 55z" />
    <glyph glyph-name="R" unicode="R" horiz-adv-x="700" 
d="M658 108q10 -59 22 -91q-67 -27 -119 -27q-94 0 -111 107l-10 61q-14 100 -92 100h-75v-258h-209v720q110 10 266 10q151 0 235.5 -58t84.5 -162q0 -116 -104 -173q84 -54 103 -171zM329 572q-34 0 -56 -1v-155h55q106 0 106 79q0 77 -105 77z" />
    <glyph glyph-name="S" unicode="S" horiz-adv-x="614" 
d="M315 730q140 0 248 -73l-87 -138q-73 49 -155 49q-30 0 -46.5 -9.5t-16.5 -25.5q0 -26 56 -48q13 -5 57 -20q37 -12 60 -21.5t55.5 -28.5t51 -40.5t32.5 -56t14 -76.5q0 -120 -79.5 -186t-221.5 -66q-151 0 -261 81l64 143q83 -62 210 -62q36 0 56 12t20 33q0 13 -7 23
t-26 19.5t-30 13.5t-43 14q-28 9 -43 14.5t-42 17.5t-42.5 23.5t-35.5 30t-31 39t-18.5 49.5t-7.5 63q0 109 70.5 167.5t198.5 58.5z" />
    <glyph glyph-name="T" unicode="T" horiz-adv-x="589" 
d="M570 720v-158h-171v-562h-209v562h-171v158h551z" />
    <glyph glyph-name="U" unicode="U" horiz-adv-x="748" 
d="M494 285v418q54 27 96 27q47 0 74.5 -28.5t27.5 -73.5v-358q0 -133 -84 -206.5t-234 -73.5t-233.5 73.5t-83.5 206.5v433q54 27 98 27q51 0 81 -29t30 -73v-343q0 -63 28.5 -98t79.5 -35q57 0 88.5 35t31.5 98z" />
    <glyph glyph-name="V" unicode="V" horiz-adv-x="719" 
d="M537 730l185 -32l-256 -698h-210l-262 698q40 32 106 32q55 0 85.5 -19.5t53.5 -80.5l87 -235l56 -187l52 191z" />
    <glyph glyph-name="W" unicode="W" horiz-adv-x="1027" 
d="M838 730l187 -32l-200 -698h-219l-58 284l-37 213l-34 -213l-56 -284h-213l-211 698q39 32 104 32q59 0 91 -19t48 -81l68 -264l32 -159l25 173l62 318q42 32 113 32q48 0 84 -31t44 -80l45 -279l20 -137l27 151z" />
    <glyph glyph-name="X" unicode="X" horiz-adv-x="693" 
d="M329 211l-125 -211h-215l235 373l-206 325q40 32 110 32q65 0 102 -15t59 -53l71 -125l111 193l204 -32l-206 -325l230 -351q-39 -32 -104 -32q-77 0 -114 15t-60 53z" />
    <glyph glyph-name="Y" unicode="Y" horiz-adv-x="656" 
d="M658 698l-225 -425v-273h-209v270l-228 428q42 32 115 32q60 0 93.5 -15t49.5 -53l60 -138l34 -88l32 92l86 202z" />
    <glyph glyph-name="Z" unicode="Z" horiz-adv-x="630" 
d="M331 230l-59 -72h323v-158h-572v133l264 356l56 73h-295v158h531q25 -41 25 -81q0 -24 -12.5 -48t-44.5 -68z" />
    <glyph glyph-name="bracketleft" unicode="[" horiz-adv-x="400" 
d="M369 612h-103v-684h103v-158h-312v1000h312v-158z" />
    <glyph glyph-name="backslash" unicode="\" horiz-adv-x="428" 
d="M152 780l251 -861l-128 -39l-250 861z" />
    <glyph glyph-name="bracketright" unicode="]" horiz-adv-x="400" 
d="M343 770v-1000h-312v158h103v684h-103v158h312z" />
    <glyph glyph-name="asciicircum" unicode="^" horiz-adv-x="506" 
d="M478 353h-162l-63 207l-63 -207h-162l145 367h160z" />
    <glyph glyph-name="underscore" unicode="_" horiz-adv-x="657" 
d="M41 -9h575v-101h-575v101z" />
    <glyph glyph-name="grave" unicode="`" horiz-adv-x="274" 
d="M72 820l205 -166l-52 -92l-247 103z" />
    <glyph glyph-name="a" unicode="a" 
d="M277 522q112 0 174 -51t62 -145v-309q-65 -27 -110 -27q-30 0 -50.5 19t-28.5 51q-49 -70 -139 -70q-77 0 -122 42.5t-45 115.5q0 84 69 130t197 46h28q-4 26 -19 38.5t-51 12.5q-60 0 -122 -39l-79 123q110 63 236 63zM242 134q71 0 71 81h-23q-40 0 -62 -12.5
t-22 -34.5q0 -34 36 -34z" />
    <glyph glyph-name="b" unicode="b" horiz-adv-x="618" 
d="M397 522q86 0 139.5 -65t53.5 -178q0 -137 -77.5 -213t-215.5 -76q-119 0 -249 10v753q65 27 110 27q42 0 66 -24t24 -61v-233q53 60 149 60zM276 136q51 0 81 37.5t30 105.5q0 41 -17.5 64t-50.5 23q-40 0 -55.5 -26.5t-15.5 -104.5v-99h28z" />
    <glyph glyph-name="c" unicode="c" horiz-adv-x="525" 
d="M516 49q-85 -59 -209 -59q-131 0 -205.5 70.5t-74.5 196.5q0 121 75 193t186 72q28 0 55.5 -6.5t60 -22t58 -49.5t36.5 -83l-142 -58q-12 63 -57 63q-33 0 -51 -28.5t-18 -80.5q0 -51 25.5 -80.5t69.5 -29.5q71 0 130 39z" />
    <glyph glyph-name="d" unicode="d" horiz-adv-x="617" 
d="M479 780q42 0 66 -24t24 -61v-678q-65 -27 -110 -27q-31 0 -51.5 20t-27.5 53q-55 -73 -160 -73q-86 0 -139.5 65t-53.5 178q0 137 77.5 213t215.5 76q30 0 49 -1v232q65 27 110 27zM369 277v99h-28q-51 0 -81 -37.5t-30 -105.5q0 -41 17.5 -64t50.5 -23q40 0 55.5 26.5
t15.5 104.5z" />
    <glyph glyph-name="e" unicode="e" 
d="M316 138q73 0 132 38l79 -123q-104 -63 -226 -63q-129 0 -201.5 68t-72.5 189q0 129 75 202t208 73q103 0 160 -46.5t57 -127.5q0 -77 -70.5 -121t-195.5 -44q-21 0 -32 1q18 -46 87 -46zM292 370q-26 0 -44 -20.5t-25 -57.5q12 -1 35 -1q76 0 76 46q0 33 -42 33z" />
    <glyph glyph-name="f" unicode="f" horiz-adv-x="436" 
d="M361 623q-29 0 -46 -15t-17 -40v-56h127v-148h-127v-364h-200v364h-71v148h71v89q0 85 55.5 132t155.5 47q90 0 162 -31l-25 -146q-37 20 -85 20z" />
    <glyph glyph-name="g" unicode="g" horiz-adv-x="617" 
d="M320 522q119 0 249 -10v-536q0 -103 -67 -159.5t-189 -56.5q-136 0 -256 63l79 123q74 -38 142 -38q56 0 73.5 24t17.5 78v40q-53 -60 -149 -60q-86 0 -139.5 65t-53.5 178q0 137 77.5 213t215.5 76zM369 277v99h-28q-51 0 -81 -37.5t-30 -105.5q0 -41 17.5 -64t50.5 -23
q40 0 55.5 26.5t15.5 104.5z" />
    <glyph glyph-name="h" unicode="h" horiz-adv-x="620" 
d="M391 522q88 0 136.5 -51t48.5 -145v-326h-200v293q0 73 -52 73q-40 0 -58 -27.5t-18 -103.5v-235h-200v753q65 27 110 27q42 0 66 -24t24 -61v-239q53 66 143 66z" />
    <glyph glyph-name="i" unicode="i" horiz-adv-x="296" 
d="M147 576q-51 0 -79.5 27.5t-28.5 76.5q0 48 28.5 75t79.5 27q50 0 78.5 -27t28.5 -75q0 -49 -28.5 -76.5t-78.5 -27.5zM48 512v-512h200v512h-200z" />
    <glyph glyph-name="j" unicode="j" horiz-adv-x="296" 
d="M148 576q-51 0 -79.5 27.5t-28.5 76.5q0 48 28.5 75t79.5 27q50 0 78.5 -27t28.5 -75q0 -49 -28.5 -76.5t-78.5 -27.5zM85 -240q77 28 120 76t43 133v543h-200v-510q0 -85 -51 -100z" />
    <glyph glyph-name="k" unicode="k" horiz-adv-x="629" 
d="M158 780q42 0 66 -24t24 -61v-695h-200v753q65 27 110 27zM455 289l192 -271q-55 -28 -125 -28q-98 0 -134 58l-137 221l161 253l182 -28z" />
    <glyph glyph-name="l" unicode="l" horiz-adv-x="348" 
d="M220 -10q-84 0 -130 48t-46 135v580q65 27 110 27q42 0 66 -24t24 -61v-508q0 -40 41 -40q27 0 44 7l25 -126q-60 -38 -134 -38z" />
    <glyph glyph-name="m" unicode="m" horiz-adv-x="867" 
d="M658 522q78 0 121.5 -51.5t43.5 -144.5v-326h-200v293q0 73 -34 73q-27 0 -40 -28t-13 -103v-235h-200v293q0 73 -35 73q-27 0 -40 -28t-13 -103v-235h-200v495q65 27 110 27q63 0 80 -73q49 73 133 73q90 0 133 -66q56 66 154 66z" />
    <glyph glyph-name="n" unicode="n" horiz-adv-x="620" 
d="M391 522q88 0 136.5 -51t48.5 -145v-326h-200v293q0 73 -52 73q-40 0 -58 -27.5t-18 -103.5v-235h-200v495q65 27 110 27q32 0 53.5 -21.5t27.5 -56.5q55 78 152 78z" />
    <glyph glyph-name="o" unicode="o" horiz-adv-x="627" 
d="M313 -10q-135 0 -210.5 70.5t-75.5 195.5t75.5 195.5t210.5 70.5q136 0 211.5 -70.5t75.5 -195.5t-75.5 -195.5t-211.5 -70.5zM314 147q38 0 60.5 29t22.5 80t-22.5 80.5t-60.5 29.5t-60.5 -29.5t-22.5 -80.5t22.5 -80t60.5 -29z" />
    <glyph glyph-name="p" unicode="p" horiz-adv-x="618" 
d="M397 522q86 0 139.5 -65t53.5 -178q0 -137 -77.5 -213t-215.5 -76q-30 0 -49 1v-221h-200v725q65 27 110 27q31 0 51.5 -19.5t27.5 -53.5q55 73 160 73zM276 136q51 0 81 37.5t30 105.5q0 41 -17.5 64t-50.5 23q-40 0 -55.5 -26.5t-15.5 -104.5v-99h28z" />
    <glyph glyph-name="q" unicode="q" horiz-adv-x="617" 
d="M320 522q119 0 249 -10v-742h-200v280q-53 -60 -149 -60q-86 0 -139.5 65t-53.5 178q0 137 77.5 213t215.5 76zM369 277v99h-28q-51 0 -81 -37.5t-30 -105.5q0 -41 17.5 -64t50.5 -23q40 0 55.5 26.5t15.5 104.5z" />
    <glyph glyph-name="r" unicode="r" horiz-adv-x="437" 
d="M363 522q41 0 82 -18l-58 -174q-29 19 -62 19q-40 0 -58.5 -32.5t-18.5 -121.5v-195h-200v495q65 27 110 27q33 0 54 -21.5t27 -57.5q46 79 124 79z" />
    <glyph glyph-name="s" unicode="s" horiz-adv-x="514" 
d="M262 522q128 0 219 -68l-69 -105q-72 37 -139 37q-41 0 -41 -16t66 -34q41 -11 70 -23t58.5 -31.5t45 -49t15.5 -68.5q0 -81 -62 -127.5t-171 -46.5q-146 0 -233 70l51 123q41 -28 89.5 -41t83.5 -13q48 0 48 20q0 11 -17 18t-59 18q-7 2 -10 3q-169 45 -169 159
q0 82 60.5 128.5t163.5 46.5z" />
    <glyph glyph-name="t" unicode="t" horiz-adv-x="459" 
d="M419 167l25 -146q-68 -31 -152 -31q-96 0 -148.5 47t-52.5 132v195h-71v148h78v108q65 27 110 27q39 0 61 -24t22 -60v-51h138v-148h-138v-163q0 -25 15 -39.5t40 -14.5q42 0 73 20z" />
    <glyph glyph-name="u" unicode="u" horiz-adv-x="607" 
d="M471 522q42 0 66 -23.5t24 -60.5v-421q-65 -27 -110 -27q-31 0 -52 20.5t-28 55.5q-52 -76 -143 -76q-88 0 -136.5 51.5t-48.5 144.5v309q65 27 110 27q42 0 66 -23.5t24 -60.5v-218q0 -73 52 -73q35 0 50.5 27t15.5 103v218q65 27 110 27z" />
    <glyph glyph-name="v" unicode="v" horiz-adv-x="564" 
d="M368 522l188 -28l-167 -494h-214l-168 494q52 28 123 28q91 0 110 -89l33 -160l18 -112l18 97z" />
    <glyph glyph-name="w" unicode="w" horiz-adv-x="855" 
d="M675 522l173 -28l-163 -494h-198l-52 222l-8 55l-8 -48l-48 -229h-199l-167 494q50 28 116 28q98 0 117 -89l29 -134l23 -149l32 158l38 185q34 29 84 29q81 0 99 -89l28 -140l21 -132l29 137z" />
    <glyph glyph-name="x" unicode="x" horiz-adv-x="567" 
d="M273 138l-81 -138h-203l180 263l-147 231q60 28 121 28q86 0 121 -58l36 -59l68 117l182 -28l-150 -229l170 -247q-46 -28 -106 -28q-109 0 -141 58z" />
    <glyph glyph-name="y" unicode="y" horiz-adv-x="568" 
d="M373 522l188 -28l-184 -533q-30 -87 -88.5 -143t-116.5 -58l-80 127q35 1 76 35t49 82l1 6q-47 18 -65 72l-142 412q56 28 116 28q98 0 117 -89l20 -98l36 -173l34 173z" />
    <glyph glyph-name="z" unicode="z" horiz-adv-x="523" 
d="M252 148h244v-148h-469v135l121 125l106 104h-212v148h422q26 -45 26 -78q0 -29 -9.5 -51.5t-39.5 -51.5l-131 -126z" />
    <glyph glyph-name="braceleft" unicode="{" horiz-adv-x="371" 
d="M296 2q0 -85 52 -100l-97 -142q-77 28 -120 76t-43 133v172q0 22 -16.5 35.5t-44.5 13.5v162q28 0 44.5 13t16.5 35v171q0 85 43 133t120 76l97 -142q-52 -15 -52 -100v-153q0 -73 -64 -114q64 -43 64 -115v-154z" />
    <glyph glyph-name="bar" unicode="|" horiz-adv-x="255" 
d="M57 770h141v-1000h-141v1000z" />
    <glyph glyph-name="braceright" unicode="}" horiz-adv-x="371" 
d="M283 400q0 -22 16.5 -35t44.5 -13v-162q-28 0 -44.5 -13.5t-16.5 -35.5v-172q0 -85 -43 -133t-120 -76l-97 142q52 15 52 100v154q0 72 64 115q-64 41 -64 114v153q0 85 -52 100l97 142q77 -28 120 -76t43 -133v-171z" />
    <glyph glyph-name="asciitilde" unicode="~" horiz-adv-x="598" 
d="M82 148l-49 64q16 54 60 89.5t93 35.5q54 0 138 -22.5t115 -22.5q49 0 80 52l46 -65q-27 -61 -71 -92.5t-96 -31.5q-53 0 -129.5 24t-106.5 24q-47 0 -80 -55z" />
    <glyph glyph-name="uni00A0" unicode="&#xa0;" horiz-adv-x="199" 
 />
    <glyph glyph-name="exclamdown" unicode="&#xa1;" horiz-adv-x="307" 
d="M154 522q54 0 85 -30t31 -82t-31 -82.5t-85 -30.5t-85.5 30.5t-31.5 82.5t31 82t86 30zM251 235h-194l-5 -465h204z" />
    <glyph glyph-name="cent" unicode="&#xa2;" horiz-adv-x="554" 
d="M526 49q-80 -55 -196 -59v-62h-43v63q-118 8 -184 78t-66 188t71.5 189.5t178.5 75.5v62h43v-64q60 -8 110 -44t68 -115l-142 -58q-8 45 -36 58v-214h5q71 0 130 39zM240 256q0 -79 47 -102v208q-47 -14 -47 -106z" />
    <glyph glyph-name="sterling" unicode="&#xa3;" horiz-adv-x="564" 
d="M313 225q0 -44 -18 -77h222v-148h-474v139h18q47 0 52 106h-67v135h67v67q0 88 61 136.5t169 48.5q111 0 181 -42l-19 -143q-17 11 -50.5 20t-60.5 9q-81 0 -81 -62v-34h141v-135h-141v-20z" />
    <glyph glyph-name="currency" unicode="&#xa4;" horiz-adv-x="641" 
d="M607 196l-124 -124l-74 75q-37 -10 -87 -10q-45 0 -90 10l-74 -74l-123 123l62 63q-14 36 -14 78q0 41 13 78l-62 63l124 124l74 -75q45 10 90 10q51 0 88 -10l73 74l123 -123l-60 -60q15 -36 15 -81q0 -43 -14 -80zM321 267q39 0 60 18.5t21 51.5t-21 51.5t-60 18.5
q-38 0 -59 -18.5t-21 -51.5t21 -51.5t59 -18.5z" />
    <glyph glyph-name="yen" unicode="&#xa5;" horiz-adv-x="632" 
d="M606 601l-172 -333h79v-134h-97v-134h-200v134h-98v134h79l-172 333q42 31 111 31q105 0 135 -65l62 -135l89 200z" />
    <glyph glyph-name="brokenbar" unicode="&#xa6;" horiz-adv-x="261" 
d="M60 770h141v-400h-141v400zM60 170h141v-400h-141v400z" />
    <glyph glyph-name="section" unicode="&#xa7;" horiz-adv-x="632" 
d="M541 135q51 -46 51 -123q0 -120 -79.5 -186t-221.5 -66q-151 0 -261 81l64 143q83 -62 210 -62q36 0 56 12.5t20 34.5q0 17 -16.5 30.5t-35 20t-54.5 17.5t-61 20.5t-57.5 28.5t-52.5 42.5t-34.5 61t-14.5 84.5q0 89 49 149q-49 51 -49 131q0 109 70.5 167.5t197.5 58.5
q141 0 249 -73l-88 -138q-72 49 -154 49q-63 0 -63 -36q0 -11 7 -20t27 -18t32 -13.5t46 -15.5q37 -12 60 -21.5t55.5 -28.5t51.5 -40.5t33 -56t14 -76.5q0 -94 -51 -157zM244 293q0 -19 20.5 -34.5t43.5 -23.5t71 -22l11 -3q12 14 12 36q0 32 -29 51.5t-107 43.5
q-22 -21 -22 -48z" />
    <glyph glyph-name="dieresis" unicode="&#xa8;" horiz-adv-x="544" 
d="M154 576q-51 0 -79.5 27.5t-28.5 76.5q0 48 28.5 75t79.5 27q50 0 78.5 -27t28.5 -75q0 -49 -28.5 -76.5t-78.5 -27.5zM391 576q-51 0 -79.5 27.5t-28.5 76.5q0 48 28.5 75t79.5 27q50 0 78.5 -27t28.5 -75q0 -49 -28.5 -76.5t-78.5 -27.5z" />
    <glyph glyph-name="copyright" unicode="&#xa9;" horiz-adv-x="925" 
d="M463 -10q-204 0 -317.5 97.5t-113.5 272.5t113.5 272.5t317.5 97.5q202 0 316 -98t114 -272t-114 -272t-316 -98zM462 118q124 0 195 64t71 178t-71 178t-195 64q-125 0 -195 -64t-70 -178t70 -178t195 -64zM634 208q-62 -45 -161 -45q-102 0 -159 53t-57 147
q0 91 58.5 145t141.5 54q21 0 42.5 -4.5t46.5 -17t45 -40t28 -66.5l-115 -47q-8 46 -37 46q-40 0 -40 -70q0 -33 16.5 -51.5t46.5 -18.5q53 0 95 26z" />
    <glyph glyph-name="ordfeminine" unicode="&#xaa;" horiz-adv-x="475" 
d="M241 632q84 0 180 -7v-347q-58 -20 -88 -20q-44 0 -58 48q-37 -48 -110 -48q-59 0 -97 45.5t-38 123.5q0 98 55.5 151.5t155.5 53.5zM263 467v52h-5q-30 0 -48.5 -24.5t-18.5 -67.5q0 -47 36 -47q23 0 29.5 16t6.5 71z" />
    <glyph glyph-name="guillemotleft" unicode="&#xab;" horiz-adv-x="626" 
d="M23 250l166 262l145 -85l-101 -177l101 -177l-145 -85zM285 250l166 262l145 -85l-101 -177l101 -177l-145 -85z" />
    <glyph glyph-name="logicalnot" unicode="&#xac;" horiz-adv-x="548" 
d="M43 408h450v-300h-200v152h-250v148z" />
    <glyph glyph-name="uni00AD" unicode="&#xad;" horiz-adv-x="450" 
d="M49 343h352v-166h-352v166z" />
    <glyph glyph-name="registered" unicode="&#xae;" horiz-adv-x="528" 
d="M264 730q109 0 171 -50.5t62 -139.5t-62 -139.5t-171 -50.5t-171 50.5t-62 139.5t62 139.5t171 50.5zM264 402q79 0 123 36.5t44 101.5t-44 101.5t-123 36.5t-123 -36.5t-44 -101.5t44 -101.5t123 -36.5zM355 487l1 -8q2 -17 7 -28q-24 -11 -40 -11q-33 0 -37 35l-1 10
q-1 18 -20 18h-11v-60h-71v194q23 3 74 3q46 0 72 -17t26 -48q0 -28 -25 -47q22 -14 25 -41zM257 589h-3v-35h8q21 0 21 19q0 16 -26 16z" />
    <glyph glyph-name="macron" unicode="&#xaf;" horiz-adv-x="345" 
d="M14 747h317v-143h-317v143z" />
    <glyph glyph-name="degree" unicode="&#xb0;" horiz-adv-x="359" 
d="M180 492q-72 0 -113 39t-41 105q0 67 41 105.5t113 38.5t112.5 -38.5t40.5 -105.5q0 -66 -40.5 -105t-112.5 -39zM179 583q21 0 33 14t12 39t-12 39t-33 14q-20 0 -32 -14t-12 -39t12 -39t32 -14z" />
    <glyph glyph-name="plusminus" unicode="&#xb1;" horiz-adv-x="548" 
d="M373 433h126v-148h-127v-83h-197l-1 83h-125v148h125l-1 84h200v-84zM49 0v148h450v-148h-450z" />
    <glyph glyph-name="uni00B2" unicode="&#xb2;" horiz-adv-x="377" 
d="M158 444h194v-106h-333v58q0 36 10.5 65t32 51.5t37 34t42.5 28.5q23 15 31 21t18 17.5t10 23.5q0 30 -35 30q-37 0 -87 -34l-48 91q71 52 157 52q76 0 118 -38t42 -105q0 -23 -10 -43t-32 -37.5t-36 -26.5t-43 -25l-27.5 -15t-19.5 -12.5t-16.5 -15t-4.5 -14.5z" />
    <glyph glyph-name="uni00B3" unicode="&#xb3;" horiz-adv-x="371" 
d="M254 606q95 -41 95 -133q0 -64 -52.5 -102.5t-142.5 -38.5q-73 0 -142 33l44 97q36 -21 84 -21q29 0 45.5 10.5t16.5 28.5q0 22 -36 40.5t-110 24.5l95 119h-117v106h291v-86z" />
    <glyph glyph-name="acute" unicode="&#xb4;" horiz-adv-x="294" 
d="M202 820l94 -155l-247 -103l-52 92z" />
    <glyph glyph-name="paragraph" unicode="&#xb6;" horiz-adv-x="734" 
d="M659 770v-1000h-155v852h-122v-852h-155v596q-95 0 -149 54t-54 149t54 148t149 53h432z" />
    <glyph glyph-name="periodcentered" unicode="&#xb7;" horiz-adv-x="301" 
d="M151 155q-55 0 -86 30t-31 83q0 52 31 82t86 30q54 0 85 -30t31 -82q0 -53 -31 -83t-85 -30z" />
    <glyph glyph-name="cedilla" unicode="&#xb8;" horiz-adv-x="255" 
d="M175 -45q71 -27 71 -93q0 -50 -35.5 -76t-100.5 -26q-51 0 -100 23l32 70q24 -16 56 -16q45 0 45 26q0 15 -25 28t-76 18l68 109h111z" />
    <glyph glyph-name="uni00B9" unicode="&#xb9;" horiz-adv-x="298" 
d="M259 770v-432h-139v272l-67 -31l-53 115l151 76h108z" />
    <glyph glyph-name="ordmasculine" unicode="&#xba;" horiz-adv-x="470" 
d="M235 258q-98 0 -152.5 49.5t-54.5 137.5t54.5 137.5t152.5 49.5t152.5 -49.5t54.5 -137.5t-54.5 -137.5t-152.5 -49.5zM235 380q22 0 34.5 17.5t12.5 47.5t-12.5 47.5t-34.5 17.5t-34.5 -17.5t-12.5 -47.5t12.5 -47.5t34.5 -17.5z" />
    <glyph glyph-name="guillemotright" unicode="&#xbb;" horiz-adv-x="626" 
d="M341 250l-166 -262l-145 85l101 177l-101 177l145 85zM603 250l-166 -262l-145 85l101 177l-101 177l145 85z" />
    <glyph glyph-name="onequarter" unicode="&#xbc;" horiz-adv-x="938" 
d="M612 730l109 -64l-458 -676l-109 64zM259 288h-139v272l-67 -31l-53 115l151 76h108v-432zM923 182v-106h-56v-76h-142v76h-176v92l146 270l122 -34l-127 -222h43v34l134 50v-84h56z" />
    <glyph glyph-name="onehalf" unicode="&#xbd;" horiz-adv-x="955" 
d="M612 730l109 -64l-458 -676l-109 64zM259 288h-139v272l-67 -31l-53 115l151 76h108v-432zM736 106h194v-106h-333v58q0 36 10.5 65t32 51.5t37 34t42.5 28.5q23 15 31 21t18 17.5t10 23.5q0 30 -35 30q-37 0 -87 -34l-48 91q71 52 157 52q76 0 118 -38t42 -105
q0 -23 -10 -43t-32 -37.5t-36 -26.5t-43 -25l-27.5 -15t-19.5 -12.5t-16.5 -15t-4.5 -14.5z" />
    <glyph glyph-name="threequarters" unicode="&#xbe;" horiz-adv-x="1011" 
d="M685 730l109 -64l-458 -676l-109 64zM349 423q0 -64 -52.5 -102.5t-142.5 -38.5q-73 0 -142 33l44 97q36 -21 84 -21q29 0 45.5 10.5t16.5 28.5q0 22 -36 40.5t-110 24.5l95 119h-117v106h291v-86l-71 -78q95 -41 95 -133zM996 182v-106h-56v-76h-142v76h-176v92l146 270
l122 -34l-127 -222h43v34l134 50v-84h56z" />
    <glyph glyph-name="questiondown" unicode="&#xbf;" horiz-adv-x="537" 
d="M309 522q54 0 85 -30t31 -82t-31 -82.5t-85 -30.5t-85.5 30.5t-31.5 82.5t31 82t86 30zM516 -155q-52 -42 -115.5 -63.5t-117.5 -21.5q-120 0 -188.5 54.5t-68.5 144.5q0 35 10.5 65t32.5 56t37.5 40.5t43.5 37.5q33 26 48 42.5t15 34.5h194q0 -35 -9 -64t-27.5 -52.5
t-32.5 -37.5t-38 -33q-21 -17 -30.5 -26.5t-18.5 -23.5t-9 -28q0 -48 72 -48q59 0 129 58z" />
    <glyph glyph-name="Agrave" unicode="&#xc0;" horiz-adv-x="713" 
d="M479 862l-52 -92l-247 103l94 155zM508 0l-44 134h-238l-44 -134h-197l262 703q54 27 109 27q99 0 143 -112l229 -618h-220zM279 292h132l-66 220z" />
    <glyph glyph-name="Aacute" unicode="&#xc1;" horiz-adv-x="713" 
d="M533 873l-247 -103l-52 92l205 166zM508 0l-44 134h-238l-44 -134h-197l262 703q54 27 109 27q99 0 143 -112l229 -618h-220zM279 292h132l-66 220z" />
    <glyph glyph-name="Acircumflex" unicode="&#xc2;" horiz-adv-x="713" 
d="M356 848l-153 -78l-52 92l205 156l205 -156l-52 -92zM508 0l-44 134h-238l-44 -134h-197l262 703q54 27 109 27q99 0 143 -112l229 -618h-220zM279 292h132l-66 220z" />
    <glyph glyph-name="Atilde" unicode="&#xc3;" horiz-adv-x="713" 
d="M271 829q-39 0 -71 -36l-46 61q14 49 54 83.5t83 34.5q31 0 81 -19t70 -19q43 0 75 35l46 -60q-57 -119 -153 -119q-30 0 -75 19.5t-64 19.5zM508 0l-44 134h-238l-44 -134h-197l262 703q54 27 109 27q99 0 143 -112l229 -618h-220zM279 292h132l-66 220z" />
    <glyph glyph-name="Adieresis" unicode="&#xc4;" horiz-adv-x="713" 
d="M239 784q-51 0 -79.5 27.5t-28.5 76.5q0 48 28.5 75t79.5 27q50 0 78.5 -27t28.5 -75q0 -49 -28.5 -76.5t-78.5 -27.5zM476 784q-51 0 -79.5 27.5t-28.5 76.5q0 48 28.5 75t79.5 27q50 0 78.5 -27t28.5 -75q0 -49 -28.5 -76.5t-78.5 -27.5zM508 0l-44 134h-238l-44 -134
h-197l262 703q54 27 109 27q99 0 143 -112l229 -618h-220zM279 292h132l-66 220z" />
    <glyph glyph-name="Aring" unicode="&#xc5;" horiz-adv-x="713" 
d="M355 766q-68 0 -107 34t-39 94t39 94.5t107 34.5t107 -34t39 -95t-38.5 -94.5t-107.5 -33.5zM356 940q-19 0 -30 -12.5t-11 -33.5t11 -33t30 -12t30 12t11 33t-11 33.5t-30 12.5zM508 0l-44 134h-238l-44 -134h-197l262 703q54 27 109 27q99 0 143 -112l229 -618h-220z
M279 292h132l-66 220z" />
    <glyph glyph-name="AE" unicode="&#xc6;" horiz-adv-x="1024" 
d="M675 158h312v-158h-503l-21 134h-220l-66 -134h-197l372 720h624v-158h-371l20 -116h316v-158h-288zM320 292h119l-31 202z" />
    <glyph glyph-name="Ccedilla" unicode="&#xc7;" horiz-adv-x="664" 
d="M400 -45q71 -27 71 -93q0 -50 -35.5 -76t-100.5 -26q-51 0 -100 23l32 70q24 -16 56 -16q45 0 45 26q0 15 -25 28t-76 18l53 85q-136 20 -212 119.5t-76 246.5q0 163 87.5 266.5t240.5 103.5q192 0 280 -162l-192 -75q-34 75 -87 75q-47 0 -80 -50t-33 -158
q0 -109 45 -158.5t113 -49.5q87 0 173 71l79 -141q-82 -77 -231 -90z" />
    <glyph glyph-name="Egrave" unicode="&#xc8;" horiz-adv-x="613" 
d="M445 862l-52 -92l-247 103l94 155zM273 158h303v-158h-512v720h501v-158h-292v-116h257v-158h-257v-130z" />
    <glyph glyph-name="Eacute" unicode="&#xc9;" horiz-adv-x="613" 
d="M499 873l-247 -103l-52 92l205 166zM273 158h303v-158h-512v720h501v-158h-292v-116h257v-158h-257v-130z" />
    <glyph glyph-name="Ecircumflex" unicode="&#xca;" horiz-adv-x="613" 
d="M322 848l-153 -78l-52 92l205 156l205 -156l-52 -92zM273 158h303v-158h-512v720h501v-158h-292v-116h257v-158h-257v-130z" />
    <glyph glyph-name="Edieresis" unicode="&#xcb;" horiz-adv-x="613" 
d="M205 784q-51 0 -79.5 27.5t-28.5 76.5q0 48 28.5 75t79.5 27q50 0 78.5 -27t28.5 -75q0 -49 -28.5 -76.5t-78.5 -27.5zM442 784q-51 0 -79.5 27.5t-28.5 76.5q0 48 28.5 75t79.5 27q50 0 78.5 -27t28.5 -75q0 -49 -28.5 -76.5t-78.5 -27.5zM273 158h303v-158h-512v720
h501v-158h-292v-116h257v-158h-257v-130z" />
    <glyph glyph-name="Igrave" unicode="&#xcc;" horiz-adv-x="335" 
d="M86 1028l205 -166l-52 -92l-247 103zM273 0h-209v703q54 27 98 27q51 0 81 -29t30 -73v-628z" />
    <glyph glyph-name="Iacute" unicode="&#xcd;" horiz-adv-x="335" 
d="M251 1028l94 -155l-247 -103l-52 92zM273 0h-209v703q54 27 98 27q51 0 81 -29t30 -73v-628z" />
    <glyph glyph-name="Icircumflex" unicode="&#xce;" horiz-adv-x="335" 
d="M168 1018l205 -156l-52 -92l-153 78l-153 -78l-52 92zM162 730q51 0 81 -29t30 -73v-628h-209v703q54 27 98 27z" />
    <glyph glyph-name="Idieresis" unicode="&#xcf;" horiz-adv-x="335" 
d="M51 784q-51 0 -79.5 27.5t-28.5 76.5q0 48 28.5 75t79.5 27q50 0 78.5 -27t28.5 -75q0 -49 -28.5 -76.5t-78.5 -27.5zM288 784q-51 0 -79.5 27.5t-28.5 76.5q0 48 28.5 75t79.5 27q50 0 78.5 -27t28.5 -75q0 -49 -28.5 -76.5t-78.5 -27.5zM273 0h-209v703q54 27 98 27
q51 0 81 -29t30 -73v-628z" />
    <glyph glyph-name="Eth" unicode="&#xd0;" horiz-adv-x="737" 
d="M298 730q193 0 300.5 -97.5t107.5 -272.5t-107.5 -272.5t-300.5 -97.5q-139 0 -234 10v291h-61v149h61v280q90 10 234 10zM297 148q92 0 142 56t50 156t-50 156t-142 56q-15 0 -24 -1v-131h139v-149h-139v-142q9 -1 24 -1z" />
    <glyph glyph-name="Ntilde" unicode="&#xd1;" horiz-adv-x="785" 
d="M308 829q-39 0 -71 -36l-46 61q14 49 54 83.5t83 34.5q31 0 81 -19t70 -19q43 0 75 35l46 -60q-57 -119 -153 -119q-31 0 -76 19.5t-63 19.5zM523 720h198v-720h-165l-300 381l6 -381h-198v703q37 27 86 27q38 0 66 -16t55 -53l258 -328z" />
    <glyph glyph-name="Ograve" unicode="&#xd2;" horiz-adv-x="808" 
d="M321 1028l205 -166l-52 -92l-247 103zM405 -10q-176 0 -274.5 97.5t-98.5 272.5t98.5 272.5t274.5 97.5q175 0 273 -97.5t98 -272.5t-98 -272.5t-273 -97.5zM404 152q73 0 114 55t41 153t-41 153t-114 55t-114.5 -55.5t-41.5 -152.5t41.5 -152.5t114.5 -55.5z" />
    <glyph glyph-name="Oacute" unicode="&#xd3;" horiz-adv-x="808" 
d="M486 1028l94 -155l-247 -103l-52 92zM405 -10q-176 0 -274.5 97.5t-98.5 272.5t98.5 272.5t274.5 97.5q175 0 273 -97.5t98 -272.5t-98 -272.5t-273 -97.5zM404 152q73 0 114 55t41 153t-41 153t-114 55t-114.5 -55.5t-41.5 -152.5t41.5 -152.5t114.5 -55.5z" />
    <glyph glyph-name="Ocircumflex" unicode="&#xd4;" horiz-adv-x="808" 
d="M403 848l-153 -78l-52 92l205 156l205 -156l-52 -92zM405 730q175 0 273 -97.5t98 -272.5t-98 -272.5t-273 -97.5q-176 0 -274.5 97.5t-98.5 272.5t98.5 272.5t274.5 97.5zM404 152q73 0 114 55t41 153t-41 153t-114 55t-114.5 -55.5t-41.5 -152.5t41.5 -152.5
t114.5 -55.5z" />
    <glyph glyph-name="Otilde" unicode="&#xd5;" horiz-adv-x="808" 
d="M247 793l-46 61q14 49 54 83.5t83 34.5q31 0 81 -19t70 -19q43 0 75 35l46 -60q-57 -119 -153 -119q-31 0 -76 19.5t-63 19.5q-39 0 -71 -36zM405 -10q-176 0 -274.5 97.5t-98.5 272.5t98.5 272.5t274.5 97.5q175 0 273 -97.5t98 -272.5t-98 -272.5t-273 -97.5zM404 152
q73 0 114 55t41 153t-41 153t-114 55t-114.5 -55.5t-41.5 -152.5t41.5 -152.5t114.5 -55.5z" />
    <glyph glyph-name="Odieresis" unicode="&#xd6;" horiz-adv-x="808" 
d="M286 784q-51 0 -79.5 27.5t-28.5 76.5q0 48 28.5 75t79.5 27q50 0 78.5 -27t28.5 -75q0 -49 -28.5 -76.5t-78.5 -27.5zM523 784q-51 0 -79.5 27.5t-28.5 76.5q0 48 28.5 75t79.5 27q50 0 78.5 -27t28.5 -75q0 -49 -28.5 -76.5t-78.5 -27.5zM405 -10q-176 0 -274.5 97.5
t-98.5 272.5t98.5 272.5t274.5 97.5q175 0 273 -97.5t98 -272.5t-98 -272.5t-273 -97.5zM404 152q73 0 114 55t41 153t-41 153t-114 55t-114.5 -55.5t-41.5 -152.5t41.5 -152.5t114.5 -55.5z" />
    <glyph glyph-name="multiply" unicode="&#xd7;" horiz-adv-x="533" 
d="M502 365l-105 -105l105 -106l-130 -130l-105 105l-105 -105l-131 130l106 106l-106 105l131 130l105 -105l105 105z" />
    <glyph glyph-name="Oslash" unicode="&#xd8;" horiz-adv-x="808" 
d="M708 597q68 -93 68 -237q0 -175 -98 -272.5t-273 -97.5q-93 0 -168 29l-41 -51l-141 104l43 53q-66 94 -66 235q0 175 98.5 272.5t274.5 97.5q94 0 163 -28l41 50l140 -104zM248 360q0 -26 3 -48l202 248q-24 8 -49 8q-73 0 -114.5 -55.5t-41.5 -152.5zM404 152
q73 0 114 55t41 153q0 28 -3 50l-204 -250q26 -8 52 -8z" />
    <glyph glyph-name="Ugrave" unicode="&#xd9;" horiz-adv-x="748" 
d="M293 1028l205 -166l-52 -92l-247 103zM494 285v418q54 27 96 27q47 0 74.5 -28.5t27.5 -73.5v-358q0 -133 -84 -206.5t-234 -73.5t-233.5 73.5t-83.5 206.5v433q54 27 98 27q51 0 81 -29t30 -73v-343q0 -63 28.5 -98t79.5 -35q57 0 88.5 35t31.5 98z" />
    <glyph glyph-name="Uacute" unicode="&#xda;" horiz-adv-x="748" 
d="M458 1028l94 -155l-247 -103l-52 92zM494 285v418q54 27 96 27q47 0 74.5 -28.5t27.5 -73.5v-358q0 -133 -84 -206.5t-234 -73.5t-233.5 73.5t-83.5 206.5v433q54 27 98 27q51 0 81 -29t30 -73v-343q0 -63 28.5 -98t79.5 -35q57 0 88.5 35t31.5 98z" />
    <glyph glyph-name="Ucircumflex" unicode="&#xdb;" horiz-adv-x="748" 
d="M375 848l-153 -78l-52 92l205 156l205 -156l-52 -92zM590 730q47 0 74.5 -28.5t27.5 -73.5v-358q0 -133 -84 -206.5t-234 -73.5t-233.5 73.5t-83.5 206.5v433q54 27 98 27q51 0 81 -29t30 -73v-343q0 -63 28.5 -98t79.5 -35q57 0 88.5 35t31.5 98v418q54 27 96 27z" />
    <glyph glyph-name="Udieresis" unicode="&#xdc;" horiz-adv-x="748" 
d="M258 784q-51 0 -79.5 27.5t-28.5 76.5q0 48 28.5 75t79.5 27q50 0 78.5 -27t28.5 -75q0 -49 -28.5 -76.5t-78.5 -27.5zM495 784q-51 0 -79.5 27.5t-28.5 76.5q0 48 28.5 75t79.5 27q50 0 78.5 -27t28.5 -75q0 -49 -28.5 -76.5t-78.5 -27.5zM494 285v418q54 27 96 27
q47 0 74.5 -28.5t27.5 -73.5v-358q0 -133 -84 -206.5t-234 -73.5t-233.5 73.5t-83.5 206.5v433q54 27 98 27q51 0 81 -29t30 -73v-343q0 -63 28.5 -98t79.5 -35q57 0 88.5 35t31.5 98z" />
    <glyph glyph-name="Yacute" unicode="&#xdd;" horiz-adv-x="656" 
d="M509 873l-247 -103l-52 92l205 166zM658 698l-225 -425v-273h-209v270l-228 428q42 32 115 32q60 0 93.5 -15t49.5 -53l60 -138l34 -88l32 92l86 202z" />
    <glyph glyph-name="Thorn" unicode="&#xde;" horiz-adv-x="668" 
d="M328 604q151 0 236.5 -62.5t85.5 -173.5q0 -114 -85 -178t-238 -64q-35 0 -54 1v-127h-209v703q54 27 98 27q51 0 81 -29t30 -73v-25q23 1 55 1zM326 284q53 0 80.5 22t27.5 62q0 36 -28.5 57.5t-78.5 21.5q-33 0 -54 -1v-161q19 -1 53 -1z" />
    <glyph glyph-name="germandbls" unicode="&#xdf;" horiz-adv-x="662" 
d="M427 -10q-85 0 -149 43l55 130q22 -16 54 -16q22 0 34.5 13.5t12.5 37.5q0 35 -33.5 90.5t-119.5 119.5q28 38 50 86t22 80q0 23 -14 36t-35 13q-26 0 -41 -12t-15 -33v-578h-200v607q0 81 68 127t188 46q119 0 185.5 -48.5t66.5 -134.5q0 -44 -26.5 -92.5t-49.5 -70.5
q158 -112 158 -254q0 -91 -55 -140.5t-156 -49.5z" />
    <glyph glyph-name="agrave" unicode="&#xe0;" 
d="M411 654l-52 -92l-247 103l94 155zM277 522q112 0 174 -51t62 -145v-309q-65 -27 -110 -27q-30 0 -50.5 19t-28.5 51q-49 -70 -139 -70q-77 0 -122 42.5t-45 115.5q0 84 69 130t197 46h28q-4 26 -19 38.5t-51 12.5q-60 0 -122 -39l-79 123q110 63 236 63zM242 134
q71 0 71 81h-23q-40 0 -62 -12.5t-22 -34.5q0 -34 36 -34z" />
    <glyph glyph-name="aacute" unicode="&#xe1;" 
d="M465 665l-247 -103l-52 92l205 166zM277 522q112 0 174 -51t62 -145v-309q-65 -27 -110 -27q-30 0 -50.5 19t-28.5 51q-49 -70 -139 -70q-77 0 -122 42.5t-45 115.5q0 84 69 130t197 46h28q-4 26 -19 38.5t-51 12.5q-60 0 -122 -39l-79 123q110 63 236 63zM242 134
q71 0 71 81h-23q-40 0 -62 -12.5t-22 -34.5q0 -34 36 -34z" />
    <glyph glyph-name="acircumflex" unicode="&#xe2;" 
d="M288 640l-153 -78l-52 92l205 156l205 -156l-52 -92zM277 522q112 0 174 -51t62 -145v-309q-65 -27 -110 -27q-30 0 -50.5 19t-28.5 51q-49 -70 -139 -70q-77 0 -122 42.5t-45 115.5q0 84 69 130t197 46h28q-4 26 -19 38.5t-51 12.5q-60 0 -122 -39l-79 123
q110 63 236 63zM242 134q71 0 71 81h-23q-40 0 -62 -12.5t-22 -34.5q0 -34 36 -34z" />
    <glyph glyph-name="atilde" unicode="&#xe3;" 
d="M203 621q-39 0 -71 -36l-46 61q14 49 54 83.5t83 34.5q31 0 81 -19t70 -19q43 0 75 35l46 -60q-57 -119 -153 -119q-30 0 -75 19.5t-64 19.5zM277 522q112 0 174 -51t62 -145v-309q-65 -27 -110 -27q-30 0 -50.5 19t-28.5 51q-49 -70 -139 -70q-77 0 -122 42.5t-45 115.5
q0 84 69 130t197 46h28q-4 26 -19 38.5t-51 12.5q-60 0 -122 -39l-79 123q110 63 236 63zM242 134q71 0 71 81h-23q-40 0 -62 -12.5t-22 -34.5q0 -34 36 -34z" />
    <glyph glyph-name="adieresis" unicode="&#xe4;" 
d="M171 576q-51 0 -79.5 27.5t-28.5 76.5q0 48 28.5 75t79.5 27q50 0 78.5 -27t28.5 -75q0 -49 -28.5 -76.5t-78.5 -27.5zM408 576q-51 0 -79.5 27.5t-28.5 76.5q0 48 28.5 75t79.5 27q50 0 78.5 -27t28.5 -75q0 -49 -28.5 -76.5t-78.5 -27.5zM277 522q112 0 174 -51
t62 -145v-309q-65 -27 -110 -27q-30 0 -50.5 19t-28.5 51q-49 -70 -139 -70q-77 0 -122 42.5t-45 115.5q0 84 69 130t197 46h28q-4 26 -19 38.5t-51 12.5q-60 0 -122 -39l-79 123q110 63 236 63zM242 134q71 0 71 81h-23q-40 0 -62 -12.5t-22 -34.5q0 -34 36 -34z" />
    <glyph glyph-name="aring" unicode="&#xe5;" 
d="M287 558q-68 0 -107 34t-39 94t39 94.5t107 34.5t107 -34t39 -95t-38.5 -94.5t-107.5 -33.5zM288 732q-19 0 -30 -12.5t-11 -33.5t11 -33t30 -12t30 12t11 33t-11 33.5t-30 12.5zM277 522q112 0 174 -51t62 -145v-309q-65 -27 -110 -27q-30 0 -50.5 19t-28.5 51
q-49 -70 -139 -70q-77 0 -122 42.5t-45 115.5q0 84 69 130t197 46h28q-4 26 -19 38.5t-51 12.5q-60 0 -122 -39l-79 123q110 63 236 63zM242 134q71 0 71 81h-23q-40 0 -62 -12.5t-22 -34.5q0 -34 36 -34z" />
    <glyph glyph-name="ae" unicode="&#xe6;" horiz-adv-x="844" 
d="M606 138q70 0 127 38l78 -123q-101 -63 -214 -63q-138 0 -202 95q-45 -53 -94 -74t-117 -21q-77 0 -121 41.5t-46 114.5q-2 82 68.5 127.5t197.5 45.5h29q-2 28 -17 42t-53 14q-60 0 -122 -39l-79 123q110 63 236 63q103 0 157 -57q63 57 166 57q101 0 159.5 -45
t58.5 -124q0 -75 -70 -117.5t-198 -42.5h-31q16 -55 87 -55zM586 368q-50 0 -67 -65h24q73 0 73 39q0 11 -8 18.5t-22 7.5zM243 143q70 0 70 67h-23q-78 0 -78 -40q0 -11 8 -19t23 -8z" />
    <glyph glyph-name="ccedilla" unicode="&#xe7;" horiz-adv-x="525" 
d="M319 -45q71 -27 71 -93q0 -50 -35.5 -76t-100.5 -26q-51 0 -100 23l32 70q24 -16 56 -16q45 0 45 26q0 15 -25 28t-76 18l54 86q-101 17 -157 85.5t-56 176.5q0 121 75 193t186 72q28 0 55.5 -6.5t60 -22t58 -49.5t36.5 -83l-142 -58q-12 63 -57 63q-33 0 -51 -28.5
t-18 -80.5q0 -51 25.5 -80.5t69.5 -29.5q71 0 130 39l61 -137q-71 -49 -170 -57z" />
    <glyph glyph-name="egrave" unicode="&#xe8;" 
d="M422 654l-52 -92l-247 103l94 155zM316 138q73 0 132 38l79 -123q-104 -63 -226 -63q-129 0 -201.5 68t-72.5 189q0 129 75 202t208 73q103 0 160 -46.5t57 -127.5q0 -77 -70.5 -121t-195.5 -44q-21 0 -32 1q18 -46 87 -46zM292 370q-26 0 -44 -20.5t-25 -57.5
q12 -1 35 -1q76 0 76 46q0 33 -42 33z" />
    <glyph glyph-name="eacute" unicode="&#xe9;" 
d="M476 665l-247 -103l-52 92l205 166zM316 138q73 0 132 38l79 -123q-104 -63 -226 -63q-129 0 -201.5 68t-72.5 189q0 129 75 202t208 73q103 0 160 -46.5t57 -127.5q0 -77 -70.5 -121t-195.5 -44q-21 0 -32 1q18 -46 87 -46zM292 370q-26 0 -44 -20.5t-25 -57.5
q12 -1 35 -1q76 0 76 46q0 33 -42 33z" />
    <glyph glyph-name="ecircumflex" unicode="&#xea;" 
d="M299 640l-153 -78l-52 92l205 156l205 -156l-52 -92zM316 138q73 0 132 38l79 -123q-104 -63 -226 -63q-129 0 -201.5 68t-72.5 189q0 129 75 202t208 73q103 0 160 -46.5t57 -127.5q0 -77 -70.5 -121t-195.5 -44q-21 0 -32 1q18 -46 87 -46zM292 370q-26 0 -44 -20.5
t-25 -57.5q12 -1 35 -1q76 0 76 46q0 33 -42 33z" />
    <glyph glyph-name="edieresis" unicode="&#xeb;" 
d="M182 576q-51 0 -79.5 27.5t-28.5 76.5q0 48 28.5 75t79.5 27q50 0 78.5 -27t28.5 -75q0 -49 -28.5 -76.5t-78.5 -27.5zM419 576q-51 0 -79.5 27.5t-28.5 76.5q0 48 28.5 75t79.5 27q50 0 78.5 -27t28.5 -75q0 -49 -28.5 -76.5t-78.5 -27.5zM316 138q73 0 132 38l79 -123
q-104 -63 -226 -63q-129 0 -201.5 68t-72.5 189q0 129 75 202t208 73q103 0 160 -46.5t57 -127.5q0 -77 -70.5 -121t-195.5 -44q-21 0 -32 1q18 -46 87 -46zM292 370q-26 0 -44 -20.5t-25 -57.5q12 -1 35 -1q76 0 76 46q0 33 -42 33z" />
    <glyph glyph-name="igrave" unicode="&#xec;" horiz-adv-x="296" 
d="M66 820l205 -166l-52 -92l-247 103zM48 512h200v-512h-200v512z" />
    <glyph glyph-name="iacute" unicode="&#xed;" horiz-adv-x="296" 
d="M231 820l94 -155l-247 -103l-52 92zM48 512h200v-512h-200v512z" />
    <glyph glyph-name="icircumflex" unicode="&#xee;" horiz-adv-x="296" 
d="M148 810l205 -156l-52 -92l-153 78l-153 -78l-52 92zM48 0v512h200v-512h-200z" />
    <glyph glyph-name="idieresis" unicode="&#xef;" horiz-adv-x="296" 
d="M31 576q-51 0 -79.5 27.5t-28.5 76.5q0 48 28.5 75t79.5 27q50 0 78.5 -27t28.5 -75q0 -49 -28.5 -76.5t-78.5 -27.5zM268 576q-51 0 -79.5 27.5t-28.5 76.5q0 48 28.5 75t79.5 27q50 0 78.5 -27t28.5 -75q0 -49 -28.5 -76.5t-78.5 -27.5zM48 512h200v-512h-200v512z" />
    <glyph glyph-name="eth" unicode="&#xf0;" horiz-adv-x="630" 
d="M434 649q89 -62 127.5 -148t38.5 -212q0 -142 -75.5 -220.5t-211.5 -78.5q-135 0 -210.5 67.5t-75.5 187.5t64.5 187.5t179.5 67.5q75 0 130 -26q-30 65 -107 101l-169 -89l-55 89l90 47q-22 6 -90 23l39 135q129 -34 215 -71l135 71l55 -89zM314 147q39 0 61 26t22 72
t-22 72t-61 26t-61 -26t-22 -72t22 -72t61 -26z" />
    <glyph glyph-name="ntilde" unicode="&#xf1;" horiz-adv-x="620" 
d="M228 621q-39 0 -71 -36l-46 61q14 49 54 83.5t83 34.5q31 0 81 -19t70 -19q43 0 75 35l46 -60q-57 -119 -153 -119q-31 0 -76 19.5t-63 19.5zM391 522q88 0 136.5 -51t48.5 -145v-326h-200v293q0 73 -52 73q-40 0 -58 -27.5t-18 -103.5v-235h-200v495q65 27 110 27
q32 0 53.5 -21.5t27.5 -56.5q55 78 152 78z" />
    <glyph glyph-name="ograve" unicode="&#xf2;" horiz-adv-x="627" 
d="M232 820l205 -166l-52 -92l-247 103zM313 -10q-135 0 -210.5 70.5t-75.5 195.5t75.5 195.5t210.5 70.5q136 0 211.5 -70.5t75.5 -195.5t-75.5 -195.5t-211.5 -70.5zM314 147q38 0 60.5 29t22.5 80t-22.5 80.5t-60.5 29.5t-60.5 -29.5t-22.5 -80.5t22.5 -80t60.5 -29z" />
    <glyph glyph-name="oacute" unicode="&#xf3;" horiz-adv-x="627" 
d="M397 820l94 -155l-247 -103l-52 92zM313 -10q-135 0 -210.5 70.5t-75.5 195.5t75.5 195.5t210.5 70.5q136 0 211.5 -70.5t75.5 -195.5t-75.5 -195.5t-211.5 -70.5zM314 147q38 0 60.5 29t22.5 80t-22.5 80.5t-60.5 29.5t-60.5 -29.5t-22.5 -80.5t22.5 -80t60.5 -29z" />
    <glyph glyph-name="ocircumflex" unicode="&#xf4;" horiz-adv-x="627" 
d="M314 640l-153 -78l-52 92l205 156l205 -156l-52 -92zM313 522q136 0 211.5 -70.5t75.5 -195.5t-75.5 -195.5t-211.5 -70.5q-135 0 -210.5 70.5t-75.5 195.5t75.5 195.5t210.5 70.5zM314 147q38 0 60.5 29t22.5 80t-22.5 80.5t-60.5 29.5t-60.5 -29.5t-22.5 -80.5
t22.5 -80t60.5 -29z" />
    <glyph glyph-name="otilde" unicode="&#xf5;" horiz-adv-x="627" 
d="M158 585l-46 61q14 49 54 83.5t83 34.5q31 0 81 -19t70 -19q43 0 75 35l46 -60q-57 -119 -153 -119q-30 0 -75 19.5t-64 19.5q-39 0 -71 -36zM313 -10q-135 0 -210.5 70.5t-75.5 195.5t75.5 195.5t210.5 70.5q136 0 211.5 -70.5t75.5 -195.5t-75.5 -195.5t-211.5 -70.5z
M314 147q38 0 60.5 29t22.5 80t-22.5 80.5t-60.5 29.5t-60.5 -29.5t-22.5 -80.5t22.5 -80t60.5 -29z" />
    <glyph glyph-name="odieresis" unicode="&#xf6;" horiz-adv-x="627" 
d="M197 576q-51 0 -79.5 27.5t-28.5 76.5q0 48 28.5 75t79.5 27q50 0 78.5 -27t28.5 -75q0 -49 -28.5 -76.5t-78.5 -27.5zM434 576q-51 0 -79.5 27.5t-28.5 76.5q0 48 28.5 75t79.5 27q50 0 78.5 -27t28.5 -75q0 -49 -28.5 -76.5t-78.5 -27.5zM313 -10q-135 0 -210.5 70.5
t-75.5 195.5t75.5 195.5t210.5 70.5q136 0 211.5 -70.5t75.5 -195.5t-75.5 -195.5t-211.5 -70.5zM314 147q38 0 60.5 29t22.5 80t-22.5 80.5t-60.5 29.5t-60.5 -29.5t-22.5 -80.5t22.5 -80t60.5 -29z" />
    <glyph glyph-name="divide" unicode="&#xf7;" horiz-adv-x="504" 
d="M252 351q-51 0 -79.5 27.5t-28.5 76.5q0 48 28.5 75t79.5 27q50 0 78.5 -27t28.5 -75q0 -49 -28.5 -76.5t-78.5 -27.5zM27 326h450v-148h-450v148zM252 -53q-51 0 -79.5 27.5t-28.5 76.5q0 48 28.5 75t79.5 27q50 0 78.5 -27t28.5 -75q0 -49 -28.5 -76.5t-78.5 -27.5z
" />
    <glyph glyph-name="oslash" unicode="&#xf8;" horiz-adv-x="627" 
d="M538 437q62 -68 62 -181q0 -125 -75.5 -195.5t-211.5 -70.5q-86 0 -149 29l-26 -29l-74 58l24 27q-61 69 -61 181q0 125 75.5 195.5t210.5 70.5q86 0 150 -29l26 29l74 -57zM231 256q0 -14 1 -21l112 125q-14 6 -30 6q-38 0 -60.5 -29.5t-22.5 -80.5zM314 147
q38 0 60.5 29t22.5 80q0 15 -1 22l-112 -125q14 -6 30 -6z" />
    <glyph glyph-name="ugrave" unicode="&#xf9;" horiz-adv-x="607" 
d="M427 654l-52 -92l-247 103l94 155zM471 522q42 0 66 -23.5t24 -60.5v-421q-65 -27 -110 -27q-31 0 -52 20.5t-28 55.5q-52 -76 -143 -76q-88 0 -136.5 51.5t-48.5 144.5v309q65 27 110 27q42 0 66 -23.5t24 -60.5v-218q0 -73 52 -73q35 0 50.5 27t15.5 103v218
q65 27 110 27z" />
    <glyph glyph-name="uacute" unicode="&#xfa;" horiz-adv-x="607" 
d="M481 665l-247 -103l-52 92l205 166zM471 522q42 0 66 -23.5t24 -60.5v-421q-65 -27 -110 -27q-31 0 -52 20.5t-28 55.5q-52 -76 -143 -76q-88 0 -136.5 51.5t-48.5 144.5v309q65 27 110 27q42 0 66 -23.5t24 -60.5v-218q0 -73 52 -73q35 0 50.5 27t15.5 103v218
q65 27 110 27z" />
    <glyph glyph-name="ucircumflex" unicode="&#xfb;" horiz-adv-x="607" 
d="M304 640l-153 -78l-52 92l205 156l205 -156l-52 -92zM471 522q42 0 66 -23.5t24 -60.5v-421q-65 -27 -110 -27q-31 0 -52 20.5t-28 55.5q-52 -76 -143 -76q-88 0 -136.5 51.5t-48.5 144.5v309q65 27 110 27q42 0 66 -23.5t24 -60.5v-218q0 -73 52 -73q35 0 50.5 27
t15.5 103v218q65 27 110 27z" />
    <glyph glyph-name="udieresis" unicode="&#xfc;" horiz-adv-x="607" 
d="M187 576q-51 0 -79.5 27.5t-28.5 76.5q0 48 28.5 75t79.5 27q50 0 78.5 -27t28.5 -75q0 -49 -28.5 -76.5t-78.5 -27.5zM424 576q-51 0 -79.5 27.5t-28.5 76.5q0 48 28.5 75t79.5 27q50 0 78.5 -27t28.5 -75q0 -49 -28.5 -76.5t-78.5 -27.5zM471 522q42 0 66 -23.5
t24 -60.5v-421q-65 -27 -110 -27q-31 0 -52 20.5t-28 55.5q-52 -76 -143 -76q-88 0 -136.5 51.5t-48.5 144.5v309q65 27 110 27q42 0 66 -23.5t24 -60.5v-218q0 -73 52 -73q35 0 50.5 27t15.5 103v218q65 27 110 27z" />
    <glyph glyph-name="yacute" unicode="&#xfd;" horiz-adv-x="568" 
d="M464 665l-247 -103l-52 92l205 166zM373 522l188 -28l-184 -533q-30 -87 -88.5 -143t-116.5 -58l-80 127q35 1 76 35t49 82l1 6q-47 18 -65 72l-142 412q56 28 116 28q98 0 117 -89l20 -98l36 -173l34 173z" />
    <glyph glyph-name="thorn" unicode="&#xfe;" horiz-adv-x="618" 
d="M397 522q86 0 139.5 -65t53.5 -178q0 -137 -77.5 -213t-215.5 -76q-30 0 -49 1v-221h-200v983q65 27 110 27q42 0 66 -24t24 -61v-233q53 60 149 60zM276 136q51 0 81 37.5t30 105.5q0 41 -17.5 64t-50.5 23q-40 0 -55.5 -26.5t-15.5 -104.5v-99h28z" />
    <glyph glyph-name="ydieresis" unicode="&#xff;" horiz-adv-x="568" 
d="M170 576q-51 0 -79.5 27.5t-28.5 76.5q0 48 28.5 75t79.5 27q50 0 78.5 -27t28.5 -75q0 -49 -28.5 -76.5t-78.5 -27.5zM407 576q-51 0 -79.5 27.5t-28.5 76.5q0 48 28.5 75t79.5 27q50 0 78.5 -27t28.5 -75q0 -49 -28.5 -76.5t-78.5 -27.5zM373 522l188 -28l-184 -533
q-30 -87 -88.5 -143t-116.5 -58l-80 127q35 1 76 35t49 82l1 6q-47 18 -65 72l-142 412q56 28 116 28q98 0 117 -89l20 -98l36 -173l34 173z" />
    <glyph glyph-name="Amacron" unicode="&#x100;" horiz-adv-x="713" 
d="M515 955v-143h-317v143h317zM508 0l-44 134h-238l-44 -134h-197l262 703q54 27 109 27q99 0 143 -112l229 -618h-220zM279 292h132l-66 220z" />
    <glyph glyph-name="amacron" unicode="&#x101;" 
d="M447 747v-143h-317v143h317zM277 522q112 0 174 -51t62 -145v-309q-65 -27 -110 -27q-30 0 -50.5 19t-28.5 51q-49 -70 -139 -70q-77 0 -122 42.5t-45 115.5q0 84 69 130t197 46h28q-4 26 -19 38.5t-51 12.5q-60 0 -122 -39l-79 123q110 63 236 63zM242 134q71 0 71 81
h-23q-40 0 -62 -12.5t-22 -34.5q0 -34 36 -34z" />
    <glyph glyph-name="Abreve" unicode="&#x102;" horiz-adv-x="713" 
d="M357 785q-88 0 -137 44.5t-49 123.5h138q0 -25 13 -40t35 -15q21 0 34 15t13 40h139q0 -79 -49.5 -123.5t-136.5 -44.5zM508 0l-44 134h-238l-44 -134h-197l262 703q54 27 109 27q99 0 143 -112l229 -618h-220zM279 292h132l-66 220z" />
    <glyph glyph-name="abreve" unicode="&#x103;" 
d="M289 577q-88 0 -137 44.5t-49 123.5h138q0 -25 13 -40t35 -15q21 0 34 15t13 40h139q0 -79 -49.5 -123.5t-136.5 -44.5zM277 522q112 0 174 -51t62 -145v-309q-65 -27 -110 -27q-30 0 -50.5 19t-28.5 51q-49 -70 -139 -70q-77 0 -122 42.5t-45 115.5q0 84 69 130t197 46
h28q-4 26 -19 38.5t-51 12.5q-60 0 -122 -39l-79 123q110 63 236 63zM242 134q71 0 71 81h-23q-40 0 -62 -12.5t-22 -34.5q0 -34 36 -34z" />
    <glyph glyph-name="Aogonek" unicode="&#x104;" horiz-adv-x="713" 
d="M721 -147l18 -67q-54 -26 -114 -26q-50 0 -78.5 25.5t-28.5 70.5q0 40 29.5 73.5t85.5 70.5h-125l-44 134h-238l-44 -134h-197l262 703q54 27 109 27q99 0 143 -112l229 -618q-106 -86 -106 -132q0 -31 38 -31q29 0 61 16zM279 292h132l-66 220z" />
    <glyph glyph-name="aogonek" unicode="&#x105;" 
d="M506 -147l18 -67q-54 -26 -114 -26q-50 0 -78.5 25.5t-28.5 70.5q0 67 85 135q-49 9 -64 69q-49 -70 -139 -70q-77 0 -122 42.5t-45 115.5q0 84 69 130t197 46h28q-4 26 -19 38.5t-51 12.5q-60 0 -122 -39l-79 123q110 63 236 63q112 0 174 -51t62 -145v-309
q-106 -94 -106 -149q0 -31 38 -31q27 0 61 16zM242 134q71 0 71 81h-23q-40 0 -62 -12.5t-22 -34.5q0 -34 36 -34z" />
    <glyph glyph-name="Cacute" unicode="&#x106;" horiz-adv-x="664" 
d="M443 1028l94 -155l-247 -103l-52 92zM658 82q-45 -43 -119 -67.5t-157 -24.5q-164 0 -257 103t-93 267q0 163 87.5 266.5t240.5 103.5q192 0 280 -162l-192 -75q-34 75 -87 75q-47 0 -80 -50t-33 -158q0 -109 45 -158.5t113 -49.5q87 0 173 71z" />
    <glyph glyph-name="cacute" unicode="&#x107;" horiz-adv-x="525" 
d="M371 820l94 -155l-247 -103l-52 92zM516 49q-85 -59 -209 -59q-131 0 -205.5 70.5t-74.5 196.5q0 121 75 193t186 72q28 0 55.5 -6.5t60 -22t58 -49.5t36.5 -83l-142 -58q-12 63 -57 63q-33 0 -51 -28.5t-18 -80.5q0 -51 25.5 -80.5t69.5 -29.5q71 0 130 39z" />
    <glyph glyph-name="Cdotaccent" unicode="&#x10a;" horiz-adv-x="664" 
d="M361 784q-51 0 -79.5 27.5t-28.5 76.5q0 48 28.5 75t79.5 27q50 0 78.5 -27t28.5 -75q0 -49 -28.5 -76.5t-78.5 -27.5zM658 82q-45 -43 -119 -67.5t-157 -24.5q-164 0 -257 103t-93 267q0 163 87.5 266.5t240.5 103.5q192 0 280 -162l-192 -75q-34 75 -87 75
q-47 0 -80 -50t-33 -158q0 -109 45 -158.5t113 -49.5q87 0 173 71z" />
    <glyph glyph-name="cdotaccent" unicode="&#x10b;" horiz-adv-x="525" 
d="M289 576q-51 0 -79.5 27.5t-28.5 76.5q0 48 28.5 75t79.5 27q50 0 78.5 -27t28.5 -75q0 -49 -28.5 -76.5t-78.5 -27.5zM516 49q-85 -59 -209 -59q-131 0 -205.5 70.5t-74.5 196.5q0 121 75 193t186 72q28 0 55.5 -6.5t60 -22t58 -49.5t36.5 -83l-142 -58q-12 63 -57 63
q-33 0 -51 -28.5t-18 -80.5q0 -51 25.5 -80.5t69.5 -29.5q71 0 130 39z" />
    <glyph glyph-name="Ccaron" unicode="&#x10c;" horiz-adv-x="664" 
d="M565 936l-205 -156l-205 156l52 92l153 -78l153 78zM579 223l79 -141q-45 -43 -119 -67.5t-157 -24.5q-164 0 -257 103t-93 267q0 163 87.5 266.5t240.5 103.5q192 0 280 -162l-192 -75q-34 75 -87 75q-47 0 -80 -50t-33 -158q0 -109 45 -158.5t113 -49.5q87 0 173 71z
" />
    <glyph glyph-name="ccaron" unicode="&#x10d;" horiz-adv-x="525" 
d="M493 728l-205 -156l-205 156l52 92l153 -78l153 78zM455 186l61 -137q-85 -59 -209 -59q-131 0 -205.5 70.5t-74.5 196.5q0 121 75 193t186 72q28 0 55.5 -6.5t60 -22t58 -49.5t36.5 -83l-142 -58q-12 63 -57 63q-33 0 -51 -28.5t-18 -80.5q0 -51 25.5 -80.5t69.5 -29.5
q71 0 130 39z" />
    <glyph glyph-name="Dcaron" unicode="&#x10e;" horiz-adv-x="737" 
d="M543 936l-205 -156l-205 156l52 92l153 -78l153 78zM298 730q193 0 300.5 -97.5t107.5 -272.5t-107.5 -272.5t-300.5 -97.5q-139 0 -234 10v720q90 10 234 10zM297 148q92 0 142 56t50 156t-50 156t-142 56q-15 0 -24 -1v-422q9 -1 24 -1z" />
    <glyph glyph-name="dcaron" unicode="&#x10f;" horiz-adv-x="637" 
d="M479 780q42 0 66 -24t24 -61v-678q-65 -27 -110 -27q-31 0 -51.5 20t-27.5 53q-55 -73 -160 -73q-86 0 -139.5 65t-53.5 178q0 137 77.5 213t215.5 76q30 0 49 -1v232q65 27 110 27zM634 780l176 -49l-89 -191l-107 26zM369 277v99h-28q-51 0 -81 -37.5t-30 -105.5
q0 -41 17.5 -64t50.5 -23q40 0 55.5 26.5t15.5 104.5z" />
    <glyph glyph-name="Dcroat" unicode="&#x110;" horiz-adv-x="737" 
d="M298 730q193 0 300.5 -97.5t107.5 -272.5t-107.5 -272.5t-300.5 -97.5q-139 0 -234 10v291h-61v149h61v280q90 10 234 10zM297 148q92 0 142 56t50 156t-50 156t-142 56q-15 0 -24 -1v-131h139v-149h-139v-142q9 -1 24 -1z" />
    <glyph glyph-name="dcroat" unicode="&#x111;" horiz-adv-x="617" 
d="M622 718v-148h-53v-553q-65 -27 -110 -27q-31 0 -51.5 20t-27.5 53q-55 -73 -160 -73q-86 0 -139.5 65t-53.5 178q0 137 77.5 213t215.5 76q30 0 49 -1v49h-156v148h156v35q65 27 110 27q71 0 87 -62h56zM369 277v99h-28q-51 0 -81 -37.5t-30 -105.5q0 -41 17.5 -64
t50.5 -23q40 0 55.5 26.5t15.5 104.5z" />
    <glyph glyph-name="Emacron" unicode="&#x112;" horiz-adv-x="613" 
d="M481 955v-143h-317v143h317zM273 158h303v-158h-512v720h501v-158h-292v-116h257v-158h-257v-130z" />
    <glyph glyph-name="emacron" unicode="&#x113;" 
d="M458 747v-143h-317v143h317zM316 138q73 0 132 38l79 -123q-104 -63 -226 -63q-129 0 -201.5 68t-72.5 189q0 129 75 202t208 73q103 0 160 -46.5t57 -127.5q0 -77 -70.5 -121t-195.5 -44q-21 0 -32 1q18 -46 87 -46zM292 370q-26 0 -44 -20.5t-25 -57.5q12 -1 35 -1
q76 0 76 46q0 33 -42 33z" />
    <glyph glyph-name="Edotaccent" unicode="&#x116;" horiz-adv-x="613" 
d="M323 784q-51 0 -79.5 27.5t-28.5 76.5q0 48 28.5 75t79.5 27q50 0 78.5 -27t28.5 -75q0 -49 -28.5 -76.5t-78.5 -27.5zM273 158h303v-158h-512v720h501v-158h-292v-116h257v-158h-257v-130z" />
    <glyph glyph-name="edotaccent" unicode="&#x117;" 
d="M300 576q-51 0 -79.5 27.5t-28.5 76.5q0 48 28.5 75t79.5 27q50 0 78.5 -27t28.5 -75q0 -49 -28.5 -76.5t-78.5 -27.5zM316 138q73 0 132 38l79 -123q-104 -63 -226 -63q-129 0 -201.5 68t-72.5 189q0 129 75 202t208 73q103 0 160 -46.5t57 -127.5q0 -77 -70.5 -121
t-195.5 -44q-21 0 -32 1q18 -46 87 -46zM292 370q-26 0 -44 -20.5t-25 -57.5q12 -1 35 -1q76 0 76 46q0 33 -42 33z" />
    <glyph glyph-name="Eogonek" unicode="&#x118;" horiz-adv-x="613" 
d="M569 -147l18 -67q-54 -26 -114 -26q-50 0 -78.5 25.5t-28.5 70.5q0 40 29.5 73.5t85.5 70.5h-417v720h501v-158h-292v-116h257v-158h-257v-130h303v-158q-106 -86 -106 -132q0 -31 38 -31q29 0 61 16z" />
    <glyph glyph-name="eogonek" unicode="&#x119;" 
d="M508 42q-195 -114 -195 -174q0 -31 38 -31q27 0 61 16l18 -67q-54 -26 -114 -26q-50 0 -78.5 25.5t-28.5 70.5q0 69 96 134h-4q-129 0 -201.5 68t-72.5 189q0 129 75 202t208 73q103 0 160 -46.5t57 -127.5q0 -77 -70.5 -121t-195.5 -44q-21 0 -32 1q18 -46 87 -46
q73 0 132 38l79 -123zM292 370q-26 0 -44 -20.5t-25 -57.5q12 -1 35 -1q76 0 76 46q0 33 -42 33z" />
    <glyph glyph-name="Ecaron" unicode="&#x11a;" horiz-adv-x="613" 
d="M527 936l-205 -156l-205 156l52 92l153 -78l153 78zM273 158h303v-158h-512v720h501v-158h-292v-116h257v-158h-257v-130z" />
    <glyph glyph-name="ecaron" unicode="&#x11b;" 
d="M504 728l-205 -156l-205 156l52 92l153 -78l153 78zM316 138q73 0 132 38l79 -123q-104 -63 -226 -63q-129 0 -201.5 68t-72.5 189q0 129 75 202t208 73q103 0 160 -46.5t57 -127.5q0 -77 -70.5 -121t-195.5 -44q-21 0 -32 1q18 -46 87 -46zM292 370q-26 0 -44 -20.5
t-25 -57.5q12 -1 35 -1q76 0 76 46q0 33 -42 33z" />
    <glyph glyph-name="Gbreve" unicode="&#x11e;" horiz-adv-x="734" 
d="M372 785q-88 0 -137 44.5t-49 123.5h138q0 -25 13 -40t35 -15q21 0 34 15t13 40h139q0 -79 -49.5 -123.5t-136.5 -44.5zM380 431h312v-414q-54 -27 -98 -27q-38 0 -64.5 19.5t-35.5 51.5q-30 -40 -73 -55.5t-110 -15.5q-131 0 -204.5 103t-73.5 267q0 163 90 266.5
t248 103.5q192 0 280 -162l-192 -75q-37 75 -94 75q-47 0 -81.5 -50t-34.5 -158t36 -158t87 -50q56 0 83 25t28 96h-103v158z" />
    <glyph glyph-name="gbreve" unicode="&#x11f;" horiz-adv-x="617" 
d="M325 577q-88 0 -137 44.5t-49 123.5h138q0 -25 13 -40t35 -15q21 0 34 15t13 40h139q0 -79 -49.5 -123.5t-136.5 -44.5zM320 522q119 0 249 -10v-536q0 -103 -67 -159.5t-189 -56.5q-136 0 -256 63l79 123q74 -38 142 -38q56 0 73.5 24t17.5 78v40q-53 -60 -149 -60
q-86 0 -139.5 65t-53.5 178q0 137 77.5 213t215.5 76zM369 277v99h-28q-51 0 -81 -37.5t-30 -105.5q0 -41 17.5 -64t50.5 -23q40 0 55.5 26.5t15.5 104.5z" />
    <glyph glyph-name="Gdotaccent" unicode="&#x120;" horiz-adv-x="734" 
d="M372 784q-51 0 -79.5 27.5t-28.5 76.5q0 48 28.5 75t79.5 27q50 0 78.5 -27t28.5 -75q0 -49 -28.5 -76.5t-78.5 -27.5zM380 431h312v-414q-54 -27 -98 -27q-38 0 -64.5 19.5t-35.5 51.5q-30 -40 -73 -55.5t-110 -15.5q-131 0 -204.5 103t-73.5 267q0 163 90 266.5
t248 103.5q192 0 280 -162l-192 -75q-37 75 -94 75q-47 0 -81.5 -50t-34.5 -158t36 -158t87 -50q56 0 83 25t28 96h-103v158z" />
    <glyph glyph-name="gdotaccent" unicode="&#x121;" horiz-adv-x="617" 
d="M325 576q-51 0 -79.5 27.5t-28.5 76.5q0 48 28.5 75t79.5 27q50 0 78.5 -27t28.5 -75q0 -49 -28.5 -76.5t-78.5 -27.5zM320 522q119 0 249 -10v-536q0 -103 -67 -159.5t-189 -56.5q-136 0 -256 63l79 123q74 -38 142 -38q56 0 73.5 24t17.5 78v40q-53 -60 -149 -60
q-86 0 -139.5 65t-53.5 178q0 137 77.5 213t215.5 76zM369 277v99h-28q-51 0 -81 -37.5t-30 -105.5q0 -41 17.5 -64t50.5 -23q40 0 55.5 26.5t15.5 104.5z" />
    <glyph glyph-name="Gcommaaccent" unicode="&#x122;" horiz-adv-x="734" 
d="M380 431h312v-414q-54 -27 -98 -27q-38 0 -64.5 19.5t-35.5 51.5q-30 -40 -73 -55.5t-110 -15.5q-131 0 -204.5 103t-73.5 267q0 163 90 266.5t248 103.5q192 0 280 -162l-192 -75q-37 75 -94 75q-47 0 -81.5 -50t-34.5 -158t36 -158t87 -50q56 0 83 25t28 96h-103v158z
M368 -43q43 0 69 -24t26 -60q0 -55 -40 -84t-115 -29l-10 26q87 1 106 40q-28 -12 -61 -12t-51.5 17.5t-18.5 50.5q0 34 25.5 54.5t69.5 20.5z" />
    <glyph glyph-name="gcommaaccent" unicode="&#x123;" horiz-adv-x="617" 
d="M324 576q-43 0 -69 28.5t-26 73.5q0 65 40.5 104.5t114.5 34.5l15 -33q-55 0 -79 -15.5t-32 -48.5q27 12 61 12q33 0 51.5 -19.5t18.5 -55.5q0 -37 -26 -59t-69 -22zM320 522q119 0 249 -10v-536q0 -103 -67 -159.5t-189 -56.5q-136 0 -256 63l79 123q74 -38 142 -38
q56 0 73.5 24t17.5 78v40q-53 -60 -149 -60q-86 0 -139.5 65t-53.5 178q0 137 77.5 213t215.5 76zM369 277v99h-28q-51 0 -81 -37.5t-30 -105.5q0 -41 17.5 -64t50.5 -23q40 0 55.5 26.5t15.5 104.5z" />
    <glyph glyph-name="Hbar" unicode="&#x126;" horiz-adv-x="783" 
d="M775 663v-149h-54v-514h-209v285h-239v-285h-209v514h-54v149h54v40q54 27 98 27q40 0 67.5 -18t37.5 -49h245v40q54 27 98 27q40 0 67.5 -18t37.5 -49h60zM514 440v77h-243v-77h243z" />
    <glyph glyph-name="hbar" unicode="&#x127;" horiz-adv-x="620" 
d="M391 522q88 0 136.5 -51t48.5 -145v-326h-200v293q0 73 -52 73q-40 0 -58 -27.5t-18 -103.5v-235h-200v570h-54v149h54v34q65 27 110 27q35 0 57.5 -17t29.5 -44h158v-149h-155v-114q53 66 143 66z" />
    <glyph glyph-name="Imacron" unicode="&#x12a;" horiz-adv-x="335" 
d="M10 955h317v-143h-317v143zM273 0h-209v703q54 27 98 27q51 0 81 -29t30 -73v-628z" />
    <glyph glyph-name="imacron" unicode="&#x12b;" horiz-adv-x="296" 
d="M-10 747h317v-143h-317v143zM48 512h200v-512h-200v512z" />
    <glyph glyph-name="Iogonek" unicode="&#x12e;" horiz-adv-x="335" 
d="M266 -147l18 -67q-54 -26 -114 -26q-50 0 -78.5 25.5t-28.5 70.5q0 40 29.5 73.5t85.5 70.5h-114v703q54 27 98 27q51 0 81 -29t30 -73v-628q-106 -86 -106 -132q0 -31 38 -31q29 0 61 16z" />
    <glyph glyph-name="iogonek" unicode="&#x12f;" horiz-adv-x="296" 
d="M149 576q-51 0 -79.5 27.5t-28.5 76.5q0 48 28.5 75t79.5 27q50 0 78.5 -27t28.5 -75q0 -49 -28.5 -76.5t-78.5 -27.5zM241 -147l18 -67q-54 -26 -114 -26q-50 0 -78.5 25.5t-28.5 70.5q0 40 29.5 73.5t85.5 70.5h-105v512h200v-512q-106 -86 -106 -132q0 -31 38 -31
q29 0 61 16z" />
    <glyph glyph-name="Idotaccent" unicode="&#x130;" horiz-adv-x="335" 
d="M169 784q-51 0 -79.5 27.5t-28.5 76.5q0 48 28.5 75t79.5 27q50 0 78.5 -27t28.5 -75q0 -49 -28.5 -76.5t-78.5 -27.5zM273 0h-209v703q54 27 98 27q51 0 81 -29t30 -73v-628z" />
    <glyph glyph-name="dotlessi" unicode="&#x131;" horiz-adv-x="296" 
d="M48 512h200v-512h-200v512z" />
    <glyph glyph-name="Kcommaaccent" unicode="&#x136;" horiz-adv-x="709" 
d="M162 730q51 0 81 -29t30 -73v-628h-209v703q54 27 98 27zM489 391l237 -369q-40 -32 -109 -32q-67 0 -100 16t-55 52l-184 306l189 366l191 -32zM375 -43q43 0 69 -24t26 -60q0 -55 -40 -84t-115 -29l-10 26q87 1 106 40q-29 -12 -61 -12q-33 0 -51.5 17.5t-18.5 50.5
q0 34 25.5 54.5t69.5 20.5z" />
    <glyph glyph-name="kcommaaccent" unicode="&#x137;" horiz-adv-x="629" 
d="M248 695v-695h-200v753q65 27 110 27q42 0 66 -24t24 -61zM455 289l192 -271q-55 -28 -125 -28q-98 0 -134 58l-137 221l161 253l182 -28zM328 -43q43 0 69 -24t26 -60q0 -55 -40 -84t-115 -29l-10 26q87 1 106 40q-28 -12 -61 -12t-51.5 17.5t-18.5 50.5q0 34 25.5 54.5
t69.5 20.5z" />
    <glyph glyph-name="Lacute" unicode="&#x139;" horiz-adv-x="569" 
d="M345 873l-247 -103l-52 92l205 166zM273 164h283v-164h-492v703q54 27 98 27q51 0 81 -29t30 -73v-464z" />
    <glyph glyph-name="lacute" unicode="&#x13a;" horiz-adv-x="348" 
d="M227 1078l94 -155l-247 -103l-52 92zM220 -10q-84 0 -130 48t-46 135v580q65 27 110 27q42 0 66 -24t24 -61v-508q0 -40 41 -40q27 0 44 7l25 -126q-60 -38 -134 -38z" />
    <glyph glyph-name="Lcommaaccent" unicode="&#x13b;" horiz-adv-x="569" 
d="M273 164h283v-164h-492v703q54 27 98 27q51 0 81 -29t30 -73v-464zM312 -43q43 0 69 -24t26 -60q0 -55 -40 -84t-115 -29l-10 26q87 1 106 40q-29 -12 -61 -12q-33 0 -51.5 17.5t-18.5 50.5q0 34 25.5 54.5t69.5 20.5z" />
    <glyph glyph-name="lcommaaccent" unicode="&#x13c;" horiz-adv-x="348" 
d="M220 -10q-84 0 -130 48t-46 135v580q65 27 110 27q42 0 66 -24t24 -61v-508q0 -40 41 -40q27 0 44 7l25 -126q-60 -38 -134 -38zM167 -43q43 0 69 -24t26 -60q0 -55 -40 -84t-115 -29l-10 26q87 1 106 40q-28 -12 -61 -12t-51.5 17.5t-18.5 50.5q0 34 25.5 54.5
t69.5 20.5z" />
    <glyph glyph-name="Lcaron" unicode="&#x13d;" horiz-adv-x="595" 
d="M273 628v-464h283v-164h-492v703q54 27 98 27q51 0 81 -29t30 -73zM585 681l-89 -191l-107 26l20 214z" />
    <glyph glyph-name="lcaron" unicode="&#x13e;" horiz-adv-x="368" 
d="M220 -10q-84 0 -130 48t-46 135v580q65 27 110 27q42 0 66 -24t24 -61v-508q0 -40 41 -40q27 0 44 7l25 -126q-60 -38 -134 -38zM309 780l176 -49l-89 -191l-107 26z" />
    <glyph glyph-name="Lslash" unicode="&#x141;" horiz-adv-x="580" 
d="M284 164h283v-164h-492v264l-61 -21v136l61 21v303q54 27 98 27q51 0 81 -29t30 -73v-169l167 63v-135l-167 -63v-160z" />
    <glyph glyph-name="lslash" unicode="&#x142;" horiz-adv-x="403" 
d="M361 154l25 -126q-60 -38 -134 -38q-84 0 -130 48t-46 135v91l-45 -21v136l45 21v353q65 27 110 27q42 0 66 -24t24 -61v-217l94 44v-135l-94 -45v-155q0 -40 41 -40q27 0 44 7z" />
    <glyph glyph-name="Nacute" unicode="&#x143;" horiz-adv-x="785" 
d="M570 873l-247 -103l-52 92l205 166zM523 720h198v-720h-165l-300 381l6 -381h-198v703q37 27 86 27q38 0 66 -16t55 -53l258 -328z" />
    <glyph glyph-name="nacute" unicode="&#x144;" horiz-adv-x="620" 
d="M490 665l-247 -103l-52 92l205 166zM391 522q88 0 136.5 -51t48.5 -145v-326h-200v293q0 73 -52 73q-40 0 -58 -27.5t-18 -103.5v-235h-200v495q65 27 110 27q32 0 53.5 -21.5t27.5 -56.5q55 78 152 78z" />
    <glyph glyph-name="Ncommaaccent" unicode="&#x145;" horiz-adv-x="785" 
d="M523 720h198v-720h-165l-300 381l6 -381h-198v703q37 27 86 27q38 0 66 -16t55 -53l258 -328zM393 -43q43 0 69 -24t26 -60q0 -55 -40 -84t-115 -29l-10 26q87 1 106 40q-28 -12 -61 -12t-51.5 17.5t-18.5 50.5q0 34 25.5 54.5t69.5 20.5z" />
    <glyph glyph-name="ncommaaccent" unicode="&#x146;" horiz-adv-x="620" 
d="M391 522q88 0 136.5 -51t48.5 -145v-326h-200v293q0 73 -52 73q-40 0 -58 -27.5t-18 -103.5v-235h-200v495q65 27 110 27q32 0 53.5 -21.5t27.5 -56.5q55 78 152 78zM313 -43q43 0 69 -24t26 -60q0 -55 -40 -84t-115 -29l-10 26q87 1 106 40q-28 -12 -61 -12t-51.5 17.5
t-18.5 50.5q0 34 25.5 54.5t69.5 20.5z" />
    <glyph glyph-name="Ncaron" unicode="&#x147;" horiz-adv-x="785" 
d="M598 936l-205 -156l-205 156l52 92l153 -78l153 78zM523 720h198v-720h-165l-300 381l6 -381h-198v703q37 27 86 27q38 0 66 -16t55 -53l258 -328z" />
    <glyph glyph-name="ncaron" unicode="&#x148;" horiz-adv-x="620" 
d="M518 728l-205 -156l-205 156l52 92l153 -78l153 78zM391 522q88 0 136.5 -51t48.5 -145v-326h-200v293q0 73 -52 73q-40 0 -58 -27.5t-18 -103.5v-235h-200v495q65 27 110 27q32 0 53.5 -21.5t27.5 -56.5q55 78 152 78z" />
    <glyph glyph-name="Eng" unicode="&#x14a;" horiz-adv-x="785" 
d="M523 720h198v-781q0 -85 -57 -132t-158 -47q-86 0 -157 31l25 151q40 -20 87 -20q28 0 44.5 19t16.5 52v50l-266 338l6 -381h-198v703q37 27 86 27q38 0 66 -16t55 -53l251 -320z" />
    <glyph glyph-name="eng" unicode="&#x14b;" horiz-adv-x="620" 
d="M391 522q88 0 136.5 -51t48.5 -145v-357q0 -85 -43 -133t-121 -76l-88 142q52 15 52 100v291q0 73 -52 73q-40 0 -58 -27.5t-18 -103.5v-235h-200v495q65 27 110 27q32 0 53.5 -21.5t27.5 -56.5q55 78 152 78z" />
    <glyph glyph-name="Omacron" unicode="&#x14c;" horiz-adv-x="808" 
d="M245 955h317v-143h-317v143zM405 -10q-176 0 -274.5 97.5t-98.5 272.5t98.5 272.5t274.5 97.5q175 0 273 -97.5t98 -272.5t-98 -272.5t-273 -97.5zM404 152q73 0 114 55t41 153t-41 153t-114 55t-114.5 -55.5t-41.5 -152.5t41.5 -152.5t114.5 -55.5z" />
    <glyph glyph-name="omacron" unicode="&#x14d;" horiz-adv-x="627" 
d="M156 747h317v-143h-317v143zM313 -10q-135 0 -210.5 70.5t-75.5 195.5t75.5 195.5t210.5 70.5q136 0 211.5 -70.5t75.5 -195.5t-75.5 -195.5t-211.5 -70.5zM314 147q38 0 60.5 29t22.5 80t-22.5 80.5t-60.5 29.5t-60.5 -29.5t-22.5 -80.5t22.5 -80t60.5 -29z" />
    <glyph glyph-name="Ohungarumlaut" unicode="&#x150;" horiz-adv-x="808" 
d="M370 1036l130 -123l-211 -164l-75 76zM618 1036l130 -123l-211 -164l-75 76zM405 -10q-176 0 -274.5 97.5t-98.5 272.5t98.5 272.5t274.5 97.5q175 0 273 -97.5t98 -272.5t-98 -272.5t-273 -97.5zM404 152q73 0 114 55t41 153t-41 153t-114 55t-114.5 -55.5t-41.5 -152.5
t41.5 -152.5t114.5 -55.5z" />
    <glyph glyph-name="ohungarumlaut" unicode="&#x151;" horiz-adv-x="627" 
d="M281 828l130 -123l-211 -164l-75 76zM529 828l130 -123l-211 -164l-75 76zM313 -10q-135 0 -210.5 70.5t-75.5 195.5t75.5 195.5t210.5 70.5q136 0 211.5 -70.5t75.5 -195.5t-75.5 -195.5t-211.5 -70.5zM314 147q38 0 60.5 29t22.5 80t-22.5 80.5t-60.5 29.5t-60.5 -29.5
t-22.5 -80.5t22.5 -80t60.5 -29z" />
    <glyph glyph-name="OE" unicode="&#x152;" horiz-adv-x="1071" 
d="M750 158h284v-158h-493v61q-76 -71 -196 -71q-147 0 -229 97.5t-82 272.5t82 272.5t229 97.5q120 0 196 -71v61h482v-158h-273v-116h238v-158h-238v-130zM396 152q68 0 106.5 55t38.5 153t-38.5 153t-106.5 55t-107 -55.5t-39 -152.5t39 -152.5t107 -55.5z" />
    <glyph glyph-name="oe" unicode="&#x153;" horiz-adv-x="904" 
d="M666 138q73 0 132 38l78 -123q-104 -63 -226 -63q-111 0 -173 64q-62 -64 -174 -64q-131 0 -203.5 70t-72.5 196t72.5 196t203.5 70q113 0 178 -68q65 68 178 68q100 0 158.5 -45.5t58.5 -123.5q0 -75 -69.5 -117.5t-196.5 -42.5h-34q16 -55 90 -55zM641 368
q-25 0 -43 -17.5t-23 -48.5h28q73 0 73 40q0 11 -9.5 18.5t-25.5 7.5zM304 147q34 0 53.5 29t19.5 80q0 52 -19.5 81t-53.5 29t-53.5 -29t-19.5 -81q0 -51 19.5 -80t53.5 -29z" />
    <glyph glyph-name="Racute" unicode="&#x154;" horiz-adv-x="700" 
d="M498 873l-247 -103l-52 92l205 166zM658 108q10 -59 22 -91q-67 -27 -119 -27q-94 0 -111 107l-10 61q-14 100 -92 100h-75v-258h-209v720q110 10 266 10q151 0 235.5 -58t84.5 -162q0 -116 -104 -173q84 -54 103 -171zM329 572q-34 0 -56 -1v-155h55q106 0 106 79
q0 77 -105 77z" />
    <glyph glyph-name="racute" unicode="&#x155;" horiz-adv-x="437" 
d="M411 665l-247 -103l-52 92l205 166zM363 522q41 0 82 -18l-58 -174q-29 19 -62 19q-40 0 -58.5 -32.5t-18.5 -121.5v-195h-200v495q65 27 110 27q33 0 54 -21.5t27 -57.5q46 79 124 79z" />
    <glyph glyph-name="Rcommaaccent" unicode="&#x156;" horiz-adv-x="700" 
d="M658 108q10 -59 22 -91q-67 -27 -119 -27q-94 0 -111 107l-10 61q-14 100 -92 100h-75v-258h-209v720q110 10 266 10q151 0 235.5 -58t84.5 -162q0 -116 -104 -173q84 -54 103 -171zM329 572q-34 0 -56 -1v-155h55q106 0 106 79q0 77 -105 77zM351 -43q43 0 69 -24
t26 -60q0 -55 -40 -84t-115 -29l-10 26q87 1 106 40q-28 -12 -61 -12t-51.5 17.5t-18.5 50.5q0 34 25.5 54.5t69.5 20.5z" />
    <glyph glyph-name="rcommaaccent" unicode="&#x157;" horiz-adv-x="437" 
d="M363 522q41 0 82 -18l-58 -174q-29 19 -62 19q-40 0 -58.5 -32.5t-18.5 -121.5v-195h-200v495q65 27 110 27q33 0 54 -21.5t27 -57.5q46 79 124 79zM144 -43q43 0 69 -24t26 -60q0 -55 -40 -84t-115 -29l-10 26q87 1 106 40q-28 -12 -61 -12t-51.5 17.5t-18.5 50.5
q0 34 25.5 54.5t69.5 20.5z" />
    <glyph glyph-name="Rcaron" unicode="&#x158;" horiz-adv-x="700" 
d="M526 936l-205 -156l-205 156l52 92l153 -78l153 78zM658 108q10 -59 22 -91q-67 -27 -119 -27q-94 0 -111 107l-10 61q-14 100 -92 100h-75v-258h-209v720q110 10 266 10q151 0 235.5 -58t84.5 -162q0 -116 -104 -173q84 -54 103 -171zM329 572q-34 0 -56 -1v-155h55
q106 0 106 79q0 77 -105 77z" />
    <glyph glyph-name="rcaron" unicode="&#x159;" horiz-adv-x="437" 
d="M439 728l-205 -156l-205 156l52 92l153 -78l153 78zM363 522q41 0 82 -18l-58 -174q-29 19 -62 19q-40 0 -58.5 -32.5t-18.5 -121.5v-195h-200v495q65 27 110 27q33 0 54 -21.5t27 -57.5q46 79 124 79z" />
    <glyph glyph-name="Sacute" unicode="&#x15a;" horiz-adv-x="614" 
d="M386 1028l94 -155l-247 -103l-52 92zM315 730q140 0 248 -73l-87 -138q-73 49 -155 49q-30 0 -46.5 -9.5t-16.5 -25.5q0 -26 56 -48q13 -5 57 -20q37 -12 60 -21.5t55.5 -28.5t51 -40.5t32.5 -56t14 -76.5q0 -120 -79.5 -186t-221.5 -66q-151 0 -261 81l64 143
q83 -62 210 -62q36 0 56 12t20 33q0 13 -7 23t-26 19.5t-30 13.5t-43 14q-28 9 -43 14.5t-42 17.5t-42.5 23.5t-35.5 30t-31 39t-18.5 49.5t-7.5 63q0 109 70.5 167.5t198.5 58.5z" />
    <glyph glyph-name="sacute" unicode="&#x15b;" horiz-adv-x="514" 
d="M337 820l94 -155l-247 -103l-52 92zM262 522q128 0 219 -68l-69 -105q-72 37 -139 37q-41 0 -41 -16t66 -34q41 -11 70 -23t58.5 -31.5t45 -49t15.5 -68.5q0 -81 -62 -127.5t-171 -46.5q-146 0 -233 70l51 123q41 -28 89.5 -41t83.5 -13q48 0 48 20q0 11 -17 18t-59 18
q-7 2 -10 3q-169 45 -169 159q0 82 60.5 128.5t163.5 46.5z" />
    <glyph glyph-name="Scedilla" unicode="&#x15e;" horiz-adv-x="614" 
d="M584 242q0 -97 -52.5 -159.5t-149.5 -82.5l-33 -45q71 -27 71 -93q0 -50 -35.5 -76t-100.5 -26q-51 0 -100 23l32 70q24 -16 56 -16q45 0 45 26q0 15 -25 28t-76 18l51 81q-141 5 -245 81l64 143q83 -62 210 -62q36 0 56 12t20 33q0 13 -7 23t-26 19.5t-30 13.5t-43 14
q-28 9 -43 14.5t-42 17.5t-42.5 23.5t-35.5 30t-31 39t-18.5 49.5t-7.5 63q0 109 70.5 167.5t198.5 58.5q140 0 248 -73l-87 -138q-73 49 -155 49q-30 0 -46.5 -9.5t-16.5 -25.5q0 -26 56 -48q13 -5 57 -20q37 -12 60 -21.5t55.5 -28.5t51 -40.5t32.5 -56t14 -76.5z" />
    <glyph glyph-name="scedilla" unicode="&#x15f;" horiz-adv-x="514" 
d="M487 164q0 -67 -42.5 -110.5t-119.5 -57.5l-30 -41q71 -27 71 -93q0 -50 -35.5 -76t-100.5 -26q-51 0 -100 23l32 70q24 -16 56 -16q45 0 45 26q0 15 -25 28t-76 18l51 82q-116 8 -192 69l51 123q41 -28 89.5 -41t83.5 -13q48 0 48 20q0 11 -17 18t-59 18q-7 2 -10 3
q-169 45 -169 159q0 82 60.5 128.5t163.5 46.5q128 0 219 -68l-69 -105q-72 37 -139 37q-41 0 -41 -16t66 -34q41 -11 70 -23t58.5 -31.5t45 -49t15.5 -68.5z" />
    <glyph glyph-name="Scaron" unicode="&#x160;" horiz-adv-x="614" 
d="M508 936l-205 -156l-205 156l52 92l153 -78l153 78zM371 465q37 -12 60 -21.5t55.5 -28.5t51 -40.5t32.5 -56t14 -76.5q0 -120 -79.5 -186t-221.5 -66q-151 0 -261 81l64 143q83 -62 210 -62q36 0 56 12t20 33q0 13 -7 23t-26 19.5t-30 13.5t-43 14q-28 9 -43 14.5
t-42 17.5t-42.5 23.5t-35.5 30t-31 39t-18.5 49.5t-7.5 63q0 109 70.5 167.5t198.5 58.5q140 0 248 -73l-87 -138q-73 49 -155 49q-30 0 -46.5 -9.5t-16.5 -25.5q0 -26 56 -48q13 -5 57 -20z" />
    <glyph glyph-name="scaron" unicode="&#x161;" horiz-adv-x="514" 
d="M459 728l-205 -156l-205 156l52 92l153 -78l153 78zM298 336q41 -11 70 -23t58.5 -31.5t45 -49t15.5 -68.5q0 -81 -62 -127.5t-171 -46.5q-146 0 -233 70l51 123q41 -28 89.5 -41t83.5 -13q48 0 48 20q0 11 -17 18t-59 18q-7 2 -10 3q-169 45 -169 159q0 82 60.5 128.5
t163.5 46.5q128 0 219 -68l-69 -105q-72 37 -139 37q-41 0 -41 -16t66 -34z" />
    <glyph glyph-name="uni0162" unicode="&#x162;" horiz-adv-x="589" 
d="M570 720v-158h-171v-562h-47l-28 -45q73 -25 73 -97q0 -47 -36 -72.5t-100 -25.5q-51 0 -100 23l30 66q27 -12 58 -12q45 0 45 27q0 35 -101 45l48 91h-51v562h-171v158h551z" />
    <glyph glyph-name="uni0163" unicode="&#x163;" horiz-adv-x="459" 
d="M254 -45q71 -27 71 -93q0 -50 -35.5 -76t-100.5 -26q-51 0 -100 23l32 70q24 -16 56 -16q45 0 45 26q0 15 -25 28t-76 18l63 102q-93 42 -93 158v195h-71v148h78v108q65 27 110 27q39 0 61 -24t22 -60v-51h138v-148h-138v-163q0 -25 15 -39.5t40 -14.5q42 0 73 20
l25 -146q-68 -31 -152 -31h-12z" />
    <glyph glyph-name="Tcaron" unicode="&#x164;" horiz-adv-x="589" 
d="M498 936l-205 -156l-205 156l52 92l153 -78l153 78zM570 720v-158h-171v-562h-209v562h-171v158h551z" />
    <glyph glyph-name="tcaron" unicode="&#x165;" horiz-adv-x="459" 
d="M532 731l-89 -191l-107 26l20 214zM346 147q42 0 73 20l25 -146q-68 -31 -152 -31q-96 0 -148.5 47t-52.5 132v195h-71v148h78v108q65 27 110 27q39 0 61 -24t22 -60v-51h138v-148h-138v-163q0 -25 15 -39.5t40 -14.5z" />
    <glyph glyph-name="Tbar" unicode="&#x166;" horiz-adv-x="589" 
d="M570 562h-171v-127h99v-149h-99v-286h-209v286h-101v149h101v127h-171v158h551v-158z" />
    <glyph glyph-name="tbar" unicode="&#x167;" horiz-adv-x="459" 
d="M419 167l25 -146q-68 -31 -152 -31q-96 0 -148.5 47t-52.5 132v17h-71v147h71v33h-71v146h78v108q65 27 110 27q39 0 61 -24t22 -60v-51h138v-146h-138v-33h138v-147h-138q1 -18 16.5 -28.5t38.5 -10.5q42 0 73 20z" />
    <glyph glyph-name="Umacron" unicode="&#x16a;" horiz-adv-x="748" 
d="M217 955h317v-143h-317v143zM494 285v418q54 27 96 27q47 0 74.5 -28.5t27.5 -73.5v-358q0 -133 -84 -206.5t-234 -73.5t-233.5 73.5t-83.5 206.5v433q54 27 98 27q51 0 81 -29t30 -73v-343q0 -63 28.5 -98t79.5 -35q57 0 88.5 35t31.5 98z" />
    <glyph glyph-name="umacron" unicode="&#x16b;" horiz-adv-x="607" 
d="M463 747v-143h-317v143h317zM471 522q42 0 66 -23.5t24 -60.5v-421q-65 -27 -110 -27q-31 0 -52 20.5t-28 55.5q-52 -76 -143 -76q-88 0 -136.5 51.5t-48.5 144.5v309q65 27 110 27q42 0 66 -23.5t24 -60.5v-218q0 -73 52 -73q35 0 50.5 27t15.5 103v218q65 27 110 27z
" />
    <glyph glyph-name="Uring" unicode="&#x16e;" horiz-adv-x="748" 
d="M374 766q-68 0 -107 34t-39 94t39 94.5t107 34.5t107 -34t39 -95t-38.5 -94.5t-107.5 -33.5zM375 849q19 0 30 12t11 33t-11 33.5t-30 12.5t-30 -12.5t-11 -33.5t11 -33t30 -12zM494 285v418q54 27 96 27q47 0 74.5 -28.5t27.5 -73.5v-358q0 -133 -84 -206.5t-234 -73.5
t-233.5 73.5t-83.5 206.5v433q54 27 98 27q51 0 81 -29t30 -73v-343q0 -63 28.5 -98t79.5 -35q57 0 88.5 35t31.5 98z" />
    <glyph glyph-name="uring" unicode="&#x16f;" horiz-adv-x="607" 
d="M303 558q-68 0 -107 34t-39 94t39 94.5t107 34.5t107 -34t39 -95t-38.5 -94.5t-107.5 -33.5zM304 732q-19 0 -30 -12.5t-11 -33.5t11 -33t30 -12t30 12t11 33t-11 33.5t-30 12.5zM471 522q42 0 66 -23.5t24 -60.5v-421q-65 -27 -110 -27q-31 0 -52 20.5t-28 55.5
q-52 -76 -143 -76q-88 0 -136.5 51.5t-48.5 144.5v309q65 27 110 27q42 0 66 -23.5t24 -60.5v-218q0 -73 52 -73q35 0 50.5 27t15.5 103v218q65 27 110 27z" />
    <glyph glyph-name="Uhungarumlaut" unicode="&#x170;" horiz-adv-x="748" 
d="M342 1036l130 -123l-211 -164l-75 76zM590 1036l130 -123l-211 -164l-75 76zM494 285v418q54 27 96 27q47 0 74.5 -28.5t27.5 -73.5v-358q0 -133 -84 -206.5t-234 -73.5t-233.5 73.5t-83.5 206.5v433q54 27 98 27q51 0 81 -29t30 -73v-343q0 -63 28.5 -98t79.5 -35
q57 0 88.5 35t31.5 98z" />
    <glyph glyph-name="uhungarumlaut" unicode="&#x171;" horiz-adv-x="607" 
d="M401 705l-211 -164l-75 76l156 211zM438 541l-75 76l156 211l130 -123zM471 522q42 0 66 -23.5t24 -60.5v-421q-65 -27 -110 -27q-31 0 -52 20.5t-28 55.5q-52 -76 -143 -76q-88 0 -136.5 51.5t-48.5 144.5v309q65 27 110 27q42 0 66 -23.5t24 -60.5v-218q0 -73 52 -73
q35 0 50.5 27t15.5 103v218q65 27 110 27z" />
    <glyph glyph-name="Uogonek" unicode="&#x172;" horiz-adv-x="748" 
d="M590 730q47 0 74.5 -28.5t27.5 -73.5v-358q0 -168 -124 -235l-13 -7q-99 -54 -146 -94.5t-47 -65.5q0 -31 38 -31q25 0 61 16l18 -67q-54 -26 -114 -26q-50 0 -78.5 25.5t-28.5 70.5q0 68 113 134q-148 1 -231 74.5t-83 205.5v433q54 27 98 27q51 0 81 -29t30 -73v-343
q0 -63 28.5 -98t79.5 -35q57 0 88.5 35t31.5 98v418q54 27 96 27z" />
    <glyph glyph-name="uogonek" unicode="&#x173;" horiz-adv-x="607" 
d="M554 -147l18 -67q-54 -26 -114 -26q-50 0 -78.5 25.5t-28.5 70.5q0 67 85 135q-52 10 -65 75q-52 -76 -143 -76q-88 0 -136.5 51.5t-48.5 144.5v309q65 27 110 27q42 0 66 -23.5t24 -60.5v-218q0 -73 52 -73q35 0 50.5 27t15.5 103v218q65 27 110 27q42 0 66 -23.5
t24 -60.5v-421q-106 -94 -106 -149q0 -31 38 -31q30 0 61 16z" />
    <glyph glyph-name="Wcircumflex" unicode="&#x174;" horiz-adv-x="1027" 
d="M511 848l-153 -78l-52 92l205 156l205 -156l-52 -92zM838 730l187 -32l-200 -698h-219l-58 284l-37 213l-34 -213l-56 -284h-213l-211 698q39 32 104 32q59 0 91 -19t48 -81l68 -264l32 -159l25 173l62 318q42 32 113 32q48 0 84 -31t44 -80l45 -279l20 -137l27 151z" />
    <glyph glyph-name="wcircumflex" unicode="&#x175;" horiz-adv-x="855" 
d="M427 640l-153 -78l-52 92l205 156l205 -156l-52 -92zM675 522l173 -28l-163 -494h-198l-52 222l-8 55l-8 -48l-48 -229h-199l-167 494q50 28 116 28q98 0 117 -89l29 -134l23 -149l32 158l38 185q34 29 84 29q81 0 99 -89l28 -140l21 -132l29 137z" />
    <glyph glyph-name="Ycircumflex" unicode="&#x176;" horiz-adv-x="656" 
d="M332 848l-153 -78l-52 92l205 156l205 -156l-52 -92zM658 698l-225 -425v-273h-209v270l-228 428q42 32 115 32q60 0 93.5 -15t49.5 -53l60 -138l34 -88l32 92l86 202z" />
    <glyph glyph-name="ycircumflex" unicode="&#x177;" horiz-adv-x="568" 
d="M287 640l-153 -78l-52 92l205 156l205 -156l-52 -92zM373 522l188 -28l-184 -533q-30 -87 -88.5 -143t-116.5 -58l-80 127q35 1 76 35t49 82l1 6q-47 18 -65 72l-142 412q56 28 116 28q98 0 117 -89l20 -98l36 -173l34 173z" />
    <glyph glyph-name="Ydieresis" unicode="&#x178;" horiz-adv-x="656" 
d="M215 784q-51 0 -79.5 27.5t-28.5 76.5q0 48 28.5 75t79.5 27q50 0 78.5 -27t28.5 -75q0 -49 -28.5 -76.5t-78.5 -27.5zM452 784q-51 0 -79.5 27.5t-28.5 76.5q0 48 28.5 75t79.5 27q50 0 78.5 -27t28.5 -75q0 -49 -28.5 -76.5t-78.5 -27.5zM658 698l-225 -425v-273h-209
v270l-228 428q42 32 115 32q60 0 93.5 -15t49.5 -53l60 -138l34 -88l32 92l86 202z" />
    <glyph glyph-name="Zacute" unicode="&#x179;" horiz-adv-x="630" 
d="M487 873l-247 -103l-52 92l205 166zM331 230l-59 -72h323v-158h-572v133l264 356l56 73h-295v158h531q25 -41 25 -81q0 -24 -12.5 -48t-44.5 -68z" />
    <glyph glyph-name="zacute" unicode="&#x17a;" horiz-adv-x="523" 
d="M439 665l-247 -103l-52 92l205 166zM252 148h244v-148h-469v135l121 125l106 104h-212v148h422q26 -45 26 -78q0 -29 -9.5 -51.5t-39.5 -51.5l-131 -126z" />
    <glyph glyph-name="Zdotaccent" unicode="&#x17b;" horiz-adv-x="630" 
d="M311 784q-51 0 -79.5 27.5t-28.5 76.5q0 48 28.5 75t79.5 27q50 0 78.5 -27t28.5 -75q0 -49 -28.5 -76.5t-78.5 -27.5zM331 230l-59 -72h323v-158h-572v133l264 356l56 73h-295v158h531q25 -41 25 -81q0 -24 -12.5 -48t-44.5 -68z" />
    <glyph glyph-name="zdotaccent" unicode="&#x17c;" horiz-adv-x="523" 
d="M263 576q-51 0 -79.5 27.5t-28.5 76.5q0 48 28.5 75t79.5 27q50 0 78.5 -27t28.5 -75q0 -49 -28.5 -76.5t-78.5 -27.5zM252 148h244v-148h-469v135l121 125l106 104h-212v148h422q26 -45 26 -78q0 -29 -9.5 -51.5t-39.5 -51.5l-131 -126z" />
    <glyph glyph-name="Zcaron" unicode="&#x17d;" horiz-adv-x="630" 
d="M515 936l-205 -156l-205 156l52 92l153 -78l153 78zM331 230l-59 -72h323v-158h-572v133l264 356l56 73h-295v158h531q25 -41 25 -81q0 -24 -12.5 -48t-44.5 -68z" />
    <glyph glyph-name="zcaron" unicode="&#x17e;" horiz-adv-x="523" 
d="M467 728l-205 -156l-205 156l52 92l153 -78l153 78zM252 148h244v-148h-469v135l121 125l106 104h-212v148h422q26 -45 26 -78q0 -29 -9.5 -51.5t-39.5 -51.5l-131 -126z" />
    <glyph glyph-name="uni018F" unicode="&#x18f;" horiz-adv-x="716" 
d="M330 730q167 0 260.5 -93t93.5 -259q0 -183 -99 -285.5t-276 -102.5q-128 0 -202.5 62.5t-74.5 173.5q0 116 90 181t253 65q43 0 86 -6q-30 102 -145 102t-199 -56l-84 134q129 84 297 84zM330 152q58 0 94.5 46t45.5 131q-62 4 -89 4q-63 0 -98 -25t-35 -71
q0 -39 21.5 -62t60.5 -23z" />
    <glyph glyph-name="florin" unicode="&#x192;" horiz-adv-x="612" 
d="M442 780q86 0 164 -35l-40 -139q-34 17 -80 17q-29 0 -54 -18t-29 -43l-27 -150h106v-148h-132l-54 -301q-15 -86 -62.5 -131t-129.5 -73l-75 146q26 8 47.5 34t29.5 70l45 255h-67v148h93l34 196q15 84 74.5 128t156.5 44z" />
    <glyph glyph-name="Scommaaccent" unicode="&#x218;" horiz-adv-x="614" 
d="M371 465q37 -12 60 -21.5t55.5 -28.5t51 -40.5t32.5 -56t14 -76.5q0 -120 -79.5 -186t-221.5 -66q-151 0 -261 81l64 143q83 -62 210 -62q36 0 56 12t20 33q0 13 -7 23t-26 19.5t-30 13.5t-43 14q-28 9 -43 14.5t-42 17.5t-42.5 23.5t-35.5 30t-31 39t-18.5 49.5t-7.5 63
q0 109 70.5 167.5t198.5 58.5q140 0 248 -73l-87 -138q-73 49 -155 49q-30 0 -46.5 -9.5t-16.5 -25.5q0 -26 56 -48q13 -5 57 -20zM303 -43q43 0 69 -24t26 -60q0 -55 -40 -84t-115 -29l-10 26q87 1 106 40q-29 -12 -61 -12q-33 0 -51.5 17.5t-18.5 50.5q0 34 25.5 54.5
t69.5 20.5z" />
    <glyph glyph-name="scommaaccent" unicode="&#x219;" horiz-adv-x="514" 
d="M298 336q41 -11 70 -23t58.5 -31.5t45 -49t15.5 -68.5q0 -81 -62 -127.5t-171 -46.5q-146 0 -233 70l51 123q41 -28 89.5 -41t83.5 -13q48 0 48 20q0 11 -17 18t-59 18q-7 2 -10 3q-169 45 -169 159q0 82 60.5 128.5t163.5 46.5q128 0 219 -68l-69 -105q-72 37 -139 37
q-41 0 -41 -16t66 -34zM249 -43q43 0 69 -24t26 -60q0 -55 -40 -84t-115 -29l-10 26q87 1 106 40q-29 -12 -61 -12q-33 0 -51.5 17.5t-18.5 50.5q0 34 25.5 54.5t69.5 20.5z" />
    <glyph glyph-name="uni021A" unicode="&#x21a;" horiz-adv-x="589" 
d="M570 720v-158h-171v-562h-209v562h-171v158h551zM293 -43q43 0 69 -24t26 -60q0 -55 -40 -84t-115 -29l-10 26q87 1 106 40q-29 -12 -61 -12q-33 0 -51.5 17.5t-18.5 50.5q0 34 25.5 54.5t69.5 20.5z" />
    <glyph glyph-name="uni021B" unicode="&#x21b;" horiz-adv-x="459" 
d="M292 -10q-96 0 -148.5 47t-52.5 132v195h-71v148h78v108q65 27 110 27q39 0 61 -24t22 -60v-51h138v-148h-138v-163q0 -25 15 -39.5t40 -14.5q42 0 73 20l25 -146q-68 -31 -152 -31zM208 -43q43 0 69 -24t26 -60q0 -55 -40 -84t-115 -29l-10 26q87 1 106 40
q-28 -12 -61 -12t-51.5 17.5t-18.5 50.5q0 34 25.5 54.5t69.5 20.5z" />
    <glyph glyph-name="uni0259" unicode="&#x259;" 
d="M255 522q129 0 201.5 -67.5t72.5 -189.5q0 -129 -75 -202t-208 -73q-100 0 -158.5 46.5t-58.5 127.5q0 78 69.5 121.5t196.5 43.5q23 0 34 -1q-20 47 -90 47q-73 0 -131 -39l-79 123q104 63 226 63zM264 141q28 0 47.5 21t23.5 59q-11 1 -33 1q-81 0 -81 -47
q0 -14 11.5 -24t31.5 -10z" />
    <glyph glyph-name="circumflex" unicode="&#x2c6;" horiz-adv-x="404" 
d="M407 654l-52 -92l-153 78l-153 -78l-52 92l205 156z" />
    <glyph glyph-name="caron" unicode="&#x2c7;" horiz-adv-x="404" 
d="M355 820l52 -92l-205 -156l-205 156l52 92l153 -78z" />
    <glyph glyph-name="breve" unicode="&#x2d8;" horiz-adv-x="387" 
d="M380 745q0 -79 -49.5 -123.5t-136.5 -44.5q-88 0 -137 44.5t-49 123.5h138q0 -25 13 -40t35 -15q21 0 34 15t13 40h139z" />
    <glyph glyph-name="dotaccent" unicode="&#x2d9;" horiz-adv-x="293" 
d="M147 576q-51 0 -79.5 27.5t-28.5 76.5q0 48 28.5 75t79.5 27q50 0 78.5 -27t28.5 -75q0 -49 -28.5 -76.5t-78.5 -27.5z" />
    <glyph glyph-name="ring" unicode="&#x2da;" horiz-adv-x="283" 
d="M141 558q-68 0 -107 34t-39 94t39 94.5t107 34.5t107 -34t39 -95t-38.5 -94.5t-107.5 -33.5zM142 641q19 0 30 12t11 33t-11 33.5t-30 12.5t-30 -12.5t-11 -33.5t11 -33t30 -12z" />
    <glyph glyph-name="ogonek" unicode="&#x2db;" horiz-adv-x="216" 
d="M218 -214q-54 -26 -114 -26q-50 0 -78.5 25.5t-28.5 70.5q0 27 12 50t41 47.5t50.5 38.5l67.5 43l39 -35q-106 -86 -106 -132q0 -31 38 -31q29 0 61 16z" />
    <glyph glyph-name="tilde" unicode="&#x2dc;" horiz-adv-x="472" 
d="M79 568l-46 61q14 49 54 83.5t83 34.5q31 0 81 -19t70 -19q43 0 75 35l46 -60q-57 -119 -153 -119q-31 0 -76 19.5t-63 19.5q-39 0 -71 -36z" />
    <glyph glyph-name="hungarumlaut" unicode="&#x2dd;" horiz-adv-x="558" 
d="M168 828l130 -123l-211 -164l-75 76zM416 828l130 -123l-211 -164l-75 76z" />
    <glyph glyph-name="gravecomb" unicode="&#x300;" horiz-adv-x="0" 
d="M-202 820l205 -166l-52 -92l-247 103z" />
    <glyph glyph-name="acutecomb" unicode="&#x301;" horiz-adv-x="0" 
d="M-92 820l94 -155l-247 -103l-52 92z" />
    <glyph glyph-name="uni0302" unicode="&#x302;" horiz-adv-x="0" 
d="M3 654l-52 -92l-153 78l-153 -78l-52 92l205 156z" />
    <glyph glyph-name="tildecomb" unicode="&#x303;" horiz-adv-x="0" 
d="M-394 585l-46 61q14 49 54 83.5t83 34.5q31 0 81 -19t70 -19q43 0 75 35l46 -60q-57 -119 -153 -119q-31 0 -76 19.5t-63 19.5q-39 0 -71 -36z" />
    <glyph glyph-name="uni0304" unicode="&#x304;" horiz-adv-x="0" 
d="M-331 747h317v-143h-317v143z" />
    <glyph glyph-name="uni0306" unicode="&#x306;" horiz-adv-x="0" 
d="M-7 745q0 -79 -49.5 -123.5t-136.5 -44.5q-88 0 -137 44.5t-49 123.5h138q0 -25 13 -40t35 -15q21 0 34 15t13 40h139z" />
    <glyph glyph-name="uni0307" unicode="&#x307;" horiz-adv-x="0" 
d="M-146 576q-51 0 -79.5 27.5t-28.5 76.5q0 48 28.5 75t79.5 27q50 0 78.5 -27t28.5 -75q0 -49 -28.5 -76.5t-78.5 -27.5z" />
    <glyph glyph-name="uni0308" unicode="&#x308;" horiz-adv-x="0" 
d="M-390 576q-51 0 -79.5 27.5t-28.5 76.5q0 48 28.5 75t79.5 27q50 0 78.5 -27t28.5 -75q0 -49 -28.5 -76.5t-78.5 -27.5zM-153 576q-51 0 -79.5 27.5t-28.5 76.5q0 48 28.5 75t79.5 27q50 0 78.5 -27t28.5 -75q0 -49 -28.5 -76.5t-78.5 -27.5z" />
    <glyph glyph-name="uni030A" unicode="&#x30a;" horiz-adv-x="0" 
d="M-142 558q-68 0 -107 34t-39 94t39 94.5t107 34.5t107 -34t39 -95t-38.5 -94.5t-107.5 -33.5zM-141 641q19 0 30 12t11 33t-11 33.5t-30 12.5t-30 -12.5t-11 -33.5t11 -33t30 -12z" />
    <glyph glyph-name="uni030B" unicode="&#x30b;" horiz-adv-x="0" 
d="M-390 828l130 -123l-211 -164l-75 76zM-142 828l130 -123l-211 -164l-75 76z" />
    <glyph glyph-name="uni030C" unicode="&#x30c;" horiz-adv-x="0" 
d="M-49 820l52 -92l-205 -156l-205 156l52 92l153 -78z" />
    <glyph glyph-name="uni0312" unicode="&#x312;" horiz-adv-x="0" 
d="M-80 732q33 0 51.5 -19.5t18.5 -55.5q0 -37 -26 -59t-69 -22t-69 28.5t-26 73.5q0 65 40.5 104.5t114.5 34.5l15 -33q-55 0 -79 -15.5t-32 -48.5q27 12 61 12z" />
    <glyph glyph-name="uni0326" unicode="&#x326;" horiz-adv-x="0" 
d="M-70 -43q43 0 69 -24t26 -60q0 -55 -40 -84t-115 -29l-10 26q87 1 106 40q-29 -12 -61 -12q-33 0 -51.5 17.5t-18.5 50.5q0 34 25.5 54.5t69.5 20.5z" />
    <glyph glyph-name="uni0327" unicode="&#x327;" horiz-adv-x="0" 
d="M-80 -45q71 -27 71 -93q0 -50 -35.5 -76t-100.5 -26q-51 0 -100 23l32 70q24 -16 56 -16q45 0 45 26q0 15 -25 28t-76 18l68 109h111z" />
    <glyph glyph-name="uni0328" unicode="&#x328;" horiz-adv-x="0" 
d="M2 -214q-54 -26 -114 -26q-50 0 -78.5 25.5t-28.5 70.5q0 27 12 50t41 47.5t50.5 38.5l67.5 43l39 -35q-106 -86 -106 -132q0 -31 38 -31q29 0 61 16z" />
    <glyph glyph-name="uni0335" unicode="&#x335;" horiz-adv-x="0" 
d="M-441 436h409v-149h-409v149z" />
    <glyph glyph-name="uni0336" unicode="&#x336;" horiz-adv-x="0" 
d="M-796 436v-149h765v149h-765z" />
    <glyph glyph-name="uni0337" unicode="&#x337;" horiz-adv-x="0" 
d="M-10 522l74 -57l-425 -475l-74 58z" />
    <glyph glyph-name="uni0338" unicode="&#x338;" horiz-adv-x="0" 
d="M-62 752l140 -104l-553 -680l-141 104z" />
    <glyph glyph-name="uni0394" unicode="&#x394;" horiz-adv-x="791" 
d="M538 618l229 -618h-743l262 703q54 27 109 27q99 0 143 -112zM279 158h211l-105 309z" />
    <glyph glyph-name="uni03A9" unicode="&#x3a9;" horiz-adv-x="846" 
d="M810 402q0 -80 -35.5 -145t-99.5 -106l115 4v-155h-321v145q57 19 90.5 76t33.5 140q0 92 -46.5 149.5t-122.5 57.5q-78 0 -125.5 -57.5t-47.5 -149.5q0 -82 33.5 -138.5t90.5 -77.5v-145h-320v155l115 -4q-135 85 -135 251q0 148 107 238t282 90q173 0 279.5 -90.5
t106.5 -237.5z" />
    <glyph glyph-name="uni03BC" unicode="&#x3bc;" horiz-adv-x="633" 
d="M376 512h200v-495q-65 -27 -110 -27q-59 0 -78 65q-40 -65 -100 -65q-10 0 -30 2v-222h-200v742h200v-292q0 -73 53 -73q35 0 50 27t15 103v235z" />
    <glyph glyph-name="pi" unicode="&#x3c0;" horiz-adv-x="728" 
d="M709 512v-148h-90v-364h-200v364h-110v-364h-200v364h-90v148h690z" />
    <glyph glyph-name="uni0400" unicode="&#x400;" horiz-adv-x="613" 
d="M445 862l-52 -92l-247 103l94 155zM273 158h303v-158h-512v720h501v-158h-292v-116h257v-158h-257v-130z" />
    <glyph glyph-name="uni0401" unicode="&#x401;" horiz-adv-x="613" 
d="M205 784q-51 0 -79.5 27.5t-28.5 76.5q0 48 28.5 75t79.5 27q50 0 78.5 -27t28.5 -75q0 -49 -28.5 -76.5t-78.5 -27.5zM442 784q-51 0 -79.5 27.5t-28.5 76.5q0 48 28.5 75t79.5 27q50 0 78.5 -27t28.5 -75q0 -49 -28.5 -76.5t-78.5 -27.5zM273 158h303v-158h-512v720
h501v-158h-292v-116h257v-158h-257v-130z" />
    <glyph glyph-name="uni0402" unicode="&#x402;" horiz-adv-x="802" 
d="M564 525q102 0 159 -70.5t57 -197.5q0 -126 -80 -196.5t-224 -70.5v162q45 0 70 27.5t25 77.5q0 51 -20 78.5t-56 27.5q-115 0 -115 -212v-151h-209v562h-151v158h551v-158h-191v-135q69 98 184 98z" />
    <glyph glyph-name="uni0403" unicode="&#x403;" horiz-adv-x="541" 
d="M447 873l-247 -103l-52 92l205 166zM529 720v-158h-256v-562h-209v720h465z" />
    <glyph glyph-name="uni0404" unicode="&#x404;" horiz-adv-x="667" 
d="M578 223l79 -141q-44 -43 -118.5 -67.5t-156.5 -24.5q-164 0 -257 103t-93 267q0 163 87.5 266.5t239.5 103.5q192 0 281 -162l-193 -75q-33 75 -86 75q-37 0 -65.5 -29.5t-40.5 -94.5h229v-158h-229q27 -134 150 -134q88 0 173 71z" />
    <glyph glyph-name="uni0405" unicode="&#x405;" horiz-adv-x="614" 
d="M315 730q140 0 248 -73l-87 -138q-73 49 -155 49q-30 0 -46.5 -9.5t-16.5 -25.5q0 -26 56 -48q13 -5 57 -20q37 -12 60 -21.5t55.5 -28.5t51 -40.5t32.5 -56t14 -76.5q0 -120 -79.5 -186t-221.5 -66q-151 0 -261 81l64 143q83 -62 210 -62q36 0 56 12t20 33q0 13 -7 23
t-26 19.5t-30 13.5t-43 14q-28 9 -43 14.5t-42 17.5t-42.5 23.5t-35.5 30t-31 39t-18.5 49.5t-7.5 63q0 109 70.5 167.5t198.5 58.5z" />
    <glyph glyph-name="uni0406" unicode="&#x406;" horiz-adv-x="335" 
d="M273 0h-209v703q54 27 98 27q51 0 81 -29t30 -73v-628z" />
    <glyph glyph-name="uni0407" unicode="&#x407;" horiz-adv-x="335" 
d="M51 784q-51 0 -79.5 27.5t-28.5 76.5q0 48 28.5 75t79.5 27q50 0 78.5 -27t28.5 -75q0 -49 -28.5 -76.5t-78.5 -27.5zM288 784q-51 0 -79.5 27.5t-28.5 76.5q0 48 28.5 75t79.5 27q50 0 78.5 -27t28.5 -75q0 -49 -28.5 -76.5t-78.5 -27.5zM273 0h-209v703q54 27 98 27
q51 0 81 -29t30 -73v-628z" />
    <glyph glyph-name="uni0408" unicode="&#x408;" horiz-adv-x="439" 
d="M172 217q0 -30 -14 -47.5t-41 -17.5q-45 0 -83 20l-25 -151q71 -31 157 -31q101 0 158 50t57 139v449q0 44 -30 73t-81 29q-44 0 -98 -27v-486z" />
    <glyph glyph-name="uni0409" unicode="&#x409;" horiz-adv-x="1121" 
d="M796 446q146 0 227 -63.5t81 -178.5q0 -102 -81 -158t-227 -56q-137 0 -277 10v562h-208l-17 -298q-6 -116 -53.5 -177t-142.5 -97l-91 148q53 18 75 52t26 107l26 423h594v-275q23 1 68 1zM797 148q43 0 66.5 18.5t23.5 51.5q0 34 -23.5 52t-66.5 18q-46 0 -69 -1v-138
q27 -1 69 -1z" />
    <glyph glyph-name="uni040A" unicode="&#x40a;" horiz-adv-x="1114" 
d="M789 446q146 0 227 -63.5t81 -178.5q0 -102 -81 -158t-227 -56q-137 0 -277 10v285h-239v-285h-209v703q54 27 98 27q51 0 81 -29t30 -73v-185h239v260q54 27 98 27q51 0 81 -29t30 -73v-183q23 1 68 1zM790 148q43 0 66.5 18.5t23.5 51.5q0 34 -23.5 52t-66.5 18
q-46 0 -69 -1v-138q27 -1 69 -1z" />
    <glyph glyph-name="uni040B" unicode="&#x40b;" horiz-adv-x="827" 
d="M576 525q101 0 157.5 -65t56.5 -179v-281h-209v241q0 56 -20.5 89t-57.5 33q-123 0 -123 -212v-151h-209v562h-151v158h551v-158h-191v-139q73 102 196 102z" />
    <glyph glyph-name="uni040C" unicode="&#x40c;" horiz-adv-x="709" 
d="M552 873l-247 -103l-52 92l205 166zM162 730q51 0 81 -29t30 -73v-628h-209v703q54 27 98 27zM489 391l237 -369q-40 -32 -109 -32q-67 0 -100 16t-55 52l-184 306l189 366l191 -32z" />
    <glyph glyph-name="uni040D" unicode="&#x40d;" horiz-adv-x="783" 
d="M515 862l-52 -92l-247 103l94 155zM610 730q51 0 81 -29t30 -73v-628h-209v335l-239 -235v-100h-209v703q54 27 98 27q51 0 81 -29t30 -73v-267l239 236v106q54 27 98 27z" />
    <glyph glyph-name="uni040E" unicode="&#x40e;" horiz-adv-x="604" 
d="M307 785q-88 0 -137 44.5t-49 123.5h138q0 -25 13 -40t35 -15q21 0 34 15t13 40h139q0 -79 -49.5 -123.5t-136.5 -44.5zM424 730l184 -32l-212 -507q-36 -86 -102.5 -142.5t-132.5 -58.5l-87 136q38 4 75 32t64 76l8 14q-29 19 -49 64l-167 386q40 32 105 32
q62 0 98.5 -19.5t55.5 -80.5l20 -63l37 -121z" />
    <glyph glyph-name="uni040F" unicode="&#x40f;" horiz-adv-x="749" 
d="M576 730q51 0 81 -29t30 -73v-628h-207v-93q-54 -27 -100 -27q-49 0 -79 29t-30 73v18h-207v703q54 27 98 27q51 0 81 -29t30 -73v-470h205v545q54 27 98 27z" />
    <glyph glyph-name="uni0410" unicode="&#x410;" horiz-adv-x="713" 
d="M508 0l-44 134h-238l-44 -134h-197l262 703q54 27 109 27q99 0 143 -112l229 -618h-220zM279 292h132l-66 220z" />
    <glyph glyph-name="uni0411" unicode="&#x411;" horiz-adv-x="666" 
d="M341 446q146 0 227 -63.5t81 -178.5q0 -102 -81 -158t-227 -56q-137 0 -277 10v720h513v-158h-304v-117q23 1 68 1zM342 148q43 0 66.5 18.5t23.5 51.5q0 34 -23.5 52t-66.5 18q-46 0 -69 -1v-138q27 -1 69 -1z" />
    <glyph glyph-name="uni0412" unicode="&#x412;" horiz-adv-x="686" 
d="M547 374q112 -54 112 -170q0 -102 -84 -158t-234 -56q-137 0 -277 10v720q143 10 257 10q145 0 226.5 -54.5t81.5 -150.5q0 -97 -82 -151zM322 572q-30 0 -49 -1v-125h49q90 0 90 64q0 62 -90 62zM342 148q47 0 73.5 18.5t26.5 51.5q0 34 -26.5 52t-73.5 18h-69v-139
q27 -1 69 -1z" />
    <glyph glyph-name="uni0413" unicode="&#x413;" horiz-adv-x="541" 
d="M529 720v-158h-256v-562h-209v720h465z" />
    <glyph glyph-name="uni0414" unicode="&#x414;" horiz-adv-x="852" 
d="M732 153h98v-246q-54 -27 -100 -27q-49 0 -79 29t-30 73v18h-417l-8 -93q-48 -27 -89 -27q-45 0 -72 29t-27 73v162q60 16 86.5 70.5t32.5 171.5l18 334h587v-567zM263 158h260v404h-199l-10 -209q-6 -127 -51 -195z" />
    <glyph glyph-name="uni0415" unicode="&#x415;" horiz-adv-x="613" 
d="M273 158h303v-158h-512v720h501v-158h-292v-116h257v-158h-257v-130z" />
    <glyph glyph-name="uni0416" unicode="&#x416;" horiz-adv-x="998" 
d="M149 730q52 0 81.5 -17.5t46.5 -60.5l116 -290l-155 -362h-231l176 387l-139 311q40 32 105 32zM496 730q51 0 81 -29t30 -73v-628h-209v703q54 27 98 27zM820 397l177 -375q-44 -32 -111 -32q-71 0 -106 19t-55 69l-114 286l136 366l199 -32z" />
    <glyph glyph-name="uni0417" unicode="&#x417;" horiz-adv-x="639" 
d="M42 658q119 72 268 72q122 0 190 -49.5t68 -140.5q0 -61 -33.5 -102.5t-93.5 -53.5q82 -12 126 -56.5t44 -115.5q0 -105 -84.5 -163.5t-237.5 -58.5q-167 0 -288 102l73 125q79 -65 194 -65q60 0 93.5 19.5t33.5 55.5q0 35 -30 55.5t-81 20.5h-98v137h72q44 0 69 16.5
t25 47.5t-22.5 47.5t-62.5 16.5q-97 0 -172 -42z" />
    <glyph glyph-name="uni0418" unicode="&#x418;" horiz-adv-x="783" 
d="M610 730q51 0 81 -29t30 -73v-628h-209v335l-239 -235v-100h-209v703q54 27 98 27q51 0 81 -29t30 -73v-267l239 236v106q54 27 98 27z" />
    <glyph glyph-name="uni0419" unicode="&#x419;" horiz-adv-x="783" 
d="M393 785q-88 0 -137 44.5t-49 123.5h138q0 -25 13 -40t35 -15q21 0 34 15t13 40h139q0 -79 -49.5 -123.5t-136.5 -44.5zM610 730q51 0 81 -29t30 -73v-628h-209v335l-239 -235v-100h-209v703q54 27 98 27q51 0 81 -29t30 -73v-267l239 236v106q54 27 98 27z" />
    <glyph glyph-name="uni041A" unicode="&#x41a;" horiz-adv-x="709" 
d="M162 730q51 0 81 -29t30 -73v-628h-209v703q54 27 98 27zM489 391l237 -369q-40 -32 -109 -32q-67 0 -100 16t-55 52l-184 306l189 366l191 -32z" />
    <glyph glyph-name="uni041B" unicode="&#x41b;" horiz-adv-x="792" 
d="M728 720v-720h-209v562h-208l-17 -298q-6 -116 -53.5 -177t-142.5 -97l-91 148q53 18 75 52t26 107l26 423h594z" />
    <glyph glyph-name="uni041C" unicode="&#x41c;" horiz-adv-x="968" 
d="M940 0h-213l-34 387l-125 -387h-187l-132 393l-29 -393h-189l80 703q50 27 101 27q118 0 144 -80l144 -435l145 485q43 30 98 30t81.5 -24t35.5 -90z" />
    <glyph glyph-name="uni041D" unicode="&#x41d;" horiz-adv-x="783" 
d="M610 730q51 0 81 -29t30 -73v-628h-209v285h-239v-285h-209v703q54 27 98 27q51 0 81 -29t30 -73v-185h239v260q54 27 98 27z" />
    <glyph glyph-name="uni041E" unicode="&#x41e;" horiz-adv-x="808" 
d="M405 -10q-176 0 -274.5 97.5t-98.5 272.5t98.5 272.5t274.5 97.5q175 0 273 -97.5t98 -272.5t-98 -272.5t-273 -97.5zM404 152q73 0 114 55t41 153t-41 153t-114 55t-114.5 -55.5t-41.5 -152.5t41.5 -152.5t114.5 -55.5z" />
    <glyph glyph-name="uni041F" unicode="&#x41f;" horiz-adv-x="771" 
d="M707 720v-720h-209v562h-225v-562h-209v720h643z" />
    <glyph glyph-name="uni0420" unicode="&#x420;" horiz-adv-x="666" 
d="M340 730q146 0 228 -62.5t82 -173.5q0 -114 -82 -178t-229 -64q-42 0 -66 1v-253h-209v720q113 10 276 10zM338 410q47 0 71.5 22t24.5 62q0 36 -25 57t-70 21q-40 0 -66 -1v-160q23 -1 65 -1z" />
    <glyph glyph-name="uni0421" unicode="&#x421;" horiz-adv-x="664" 
d="M658 82q-45 -43 -119 -67.5t-157 -24.5q-164 0 -257 103t-93 267q0 163 87.5 266.5t240.5 103.5q192 0 280 -162l-192 -75q-34 75 -87 75q-47 0 -80 -50t-33 -158q0 -109 45 -158.5t113 -49.5q87 0 173 71z" />
    <glyph glyph-name="uni0422" unicode="&#x422;" horiz-adv-x="589" 
d="M570 720v-158h-171v-562h-209v562h-171v158h551z" />
    <glyph glyph-name="uni0423" unicode="&#x423;" horiz-adv-x="604" 
d="M424 730l184 -32l-212 -507q-36 -86 -102.5 -142.5t-132.5 -58.5l-87 136q38 4 75 32t64 76l8 14q-29 19 -49 64l-167 386q40 32 105 32q62 0 98.5 -19.5t55.5 -80.5l20 -63l37 -121z" />
    <glyph glyph-name="uni0424" unicode="&#x424;" horiz-adv-x="859" 
d="M835 360q0 -130 -78.5 -205.5t-221.5 -82.5v-72h-209v72q-143 6 -222 82t-79 206t79 206t222 82v55q54 27 98 27q45 0 73.5 -22.5t35.5 -59.5q143 -6 222.5 -81.5t79.5 -206.5zM241 360q0 -53 22.5 -86.5t62.5 -41.5v256q-40 -8 -62.5 -41.5t-22.5 -86.5zM535 232
q40 8 62 41.5t22 86.5t-22 86.5t-62 41.5v-256z" />
    <glyph glyph-name="uni0425" unicode="&#x425;" horiz-adv-x="693" 
d="M329 211l-125 -211h-215l235 373l-206 325q40 32 110 32q65 0 102 -15t59 -53l71 -125l111 193l204 -32l-206 -325l230 -351q-39 -32 -104 -32q-77 0 -114 15t-60 53z" />
    <glyph glyph-name="uni0426" unicode="&#x426;" horiz-adv-x="806" 
d="M687 153h98v-246q-54 -27 -100 -27q-49 0 -79 29t-30 73v18h-512v703q54 27 98 27q51 0 81 -29t30 -73v-470h205v545q54 27 98 27q51 0 81 -29t30 -73v-475z" />
    <glyph glyph-name="uni0427" unicode="&#x427;" horiz-adv-x="716" 
d="M443 720h209v-720h-209v295q-71 -100 -190 -100q-99 0 -154 65t-55 179v264q54 27 98 27q51 0 81 -29t30 -73v-149q0 -57 18 -89.5t51 -32.5q121 0 121 212v151z" />
    <glyph glyph-name="uni0428" unicode="&#x428;" horiz-adv-x="1084" 
d="M911 730q51 0 81 -29t30 -73v-628h-958v703q54 27 98 27q51 0 81 -29t30 -73v-470h165v545q54 27 98 27q51 0 81 -29t30 -73v-470h166v545q54 27 98 27z" />
    <glyph glyph-name="uni0429" unicode="&#x429;" horiz-adv-x="1141" 
d="M1022 153h98v-246q-54 -27 -100 -27q-49 0 -79 29t-30 73v18h-847v703q54 27 98 27q51 0 81 -29t30 -73v-470h165v545q54 27 98 27q51 0 81 -29t30 -73v-470h166v545q54 27 98 27q51 0 81 -29t30 -73v-475z" />
    <glyph glyph-name="uni042A" unicode="&#x42a;" horiz-adv-x="774" 
d="M449 446q146 0 227 -63.5t81 -178.5q0 -102 -81 -158t-227 -56q-137 0 -277 10v562h-158v158h367v-275q23 1 68 1zM450 148q43 0 66.5 18.5t23.5 51.5q0 34 -23.5 52t-66.5 18q-46 0 -69 -1v-138q27 -1 69 -1z" />
    <glyph glyph-name="uni042B" unicode="&#x42b;" horiz-adv-x="1001" 
d="M341 446q146 0 227 -63.5t81 -178.5q0 -102 -81 -158t-227 -56q-137 0 -277 10v703q54 27 98 27q51 0 81 -29t30 -73v-183q23 1 68 1zM828 730q51 0 81 -29t30 -73v-628h-209v703q54 27 98 27zM342 148q43 0 66.5 18.5t23.5 51.5q0 34 -23.5 52t-66.5 18q-46 0 -69 -1
v-138q27 -1 69 -1z" />
    <glyph glyph-name="uni042C" unicode="&#x42c;" horiz-adv-x="666" 
d="M341 446q146 0 227 -63.5t81 -178.5q0 -102 -81 -158t-227 -56q-137 0 -277 10v703q54 27 98 27q51 0 81 -29t30 -73v-183q23 1 68 1zM342 148q43 0 66.5 18.5t23.5 51.5q0 34 -23.5 52t-66.5 18q-46 0 -69 -1v-138q27 -1 69 -1z" />
    <glyph glyph-name="uni042D" unicode="&#x42d;" horiz-adv-x="667" 
d="M308 730q152 0 239.5 -103.5t87.5 -266.5q0 -164 -93 -267t-257 -103q-82 0 -156.5 24.5t-118.5 67.5l79 141q85 -71 173 -71q123 0 150 134h-229v158h229q-12 65 -40.5 94.5t-65.5 29.5q-53 0 -86 -75l-193 75q89 162 281 162z" />
    <glyph glyph-name="uni042E" unicode="&#x42e;" horiz-adv-x="1033" 
d="M658 730q161 0 251.5 -97.5t90.5 -272.5t-90.5 -272.5t-251.5 -97.5q-137 0 -222.5 78t-103.5 219h-59v-287h-209v703q54 27 98 27q51 0 81 -29t30 -73v-183h61q20 136 104.5 210.5t219.5 74.5zM658 152q59 0 92 55.5t33 152.5t-33 152.5t-92 55.5q-58 0 -91 -55
t-33 -153t33 -153t91 -55z" />
    <glyph glyph-name="uni042F" unicode="&#x42f;" horiz-adv-x="709" 
d="M381 730q143 0 264 -10v-720h-209v282q-24 -3 -47 -3h-5l-167 -279h-221l194 316q-127 57 -127 189q0 106 84 165.5t234 59.5zM436 420v149h-49q-52 0 -80 -19.5t-28 -55.5t28.5 -56t81.5 -20q15 0 47 2z" />
    <glyph glyph-name="uni0430" unicode="&#x430;" 
d="M277 522q112 0 174 -51t62 -145v-309q-65 -27 -110 -27q-30 0 -50.5 19t-28.5 51q-49 -70 -139 -70q-77 0 -122 42.5t-45 115.5q0 84 69 130t197 46h28q-4 26 -19 38.5t-51 12.5q-60 0 -122 -39l-79 123q110 63 236 63zM242 134q71 0 71 81h-23q-40 0 -62 -12.5
t-22 -34.5q0 -34 36 -34z" />
    <glyph glyph-name="uni0431" unicode="&#x431;" horiz-adv-x="634" 
d="M374 522q110 0 171.5 -70.5t61.5 -195.5t-75.5 -195.5t-211.5 -70.5t-211 81.5t-75 227.5q0 209 79 323t221 133l191 25q43 -49 43 -99q0 -29 -27 -50t-69 -27l-118 -18q-58 -9 -90 -35t-46 -92q54 63 156 63zM321 147q38 0 60.5 29t22.5 80t-22.5 80.5t-60.5 29.5
t-60.5 -29.5t-22.5 -80.5t22.5 -80t60.5 -29z" />
    <glyph glyph-name="uni0432" unicode="&#x432;" horiz-adv-x="561" 
d="M452 262q83 -34 83 -106q0 -78 -65 -122t-182 -44q-134 0 -240 10v512q85 10 229 10q114 0 177 -42.5t63 -118.5q0 -63 -65 -99zM280 381h-33v-76h33q20 0 32 10.5t12 27.5t-12 27.5t-32 10.5zM291 132q21 0 34 12t13 31q0 18 -13 28.5t-34 10.5h-44v-82h44z" />
    <glyph glyph-name="uni0433" unicode="&#x433;" horiz-adv-x="458" 
d="M444 512v-148h-196v-364h-200v512h396z" />
    <glyph glyph-name="uni0434" unicode="&#x434;" horiz-adv-x="689" 
d="M581 146h90v-239q-65 -27 -110 -27q-42 0 -66 30t-24 77v13h-265l-8 -93q-59 -27 -100 -27q-38 0 -59 30t-21 77v150q48 21 72 56.5t29 108.5l15 210h447v-366zM250 145h131v222h-84l-6 -98q-4 -73 -41 -124z" />
    <glyph glyph-name="uni0435" unicode="&#x435;" 
d="M316 138q73 0 132 38l79 -123q-104 -63 -226 -63q-129 0 -201.5 68t-72.5 189q0 129 75 202t208 73q103 0 160 -46.5t57 -127.5q0 -77 -70.5 -121t-195.5 -44q-21 0 -32 1q18 -46 87 -46zM292 370q-26 0 -44 -20.5t-25 -57.5q12 -1 35 -1q76 0 76 46q0 33 -42 33z" />
    <glyph glyph-name="uni0436" unicode="&#x436;" horiz-adv-x="877" 
d="M134 522q85 0 112 -58l91 -196l-129 -268h-205l142 276l-118 218q46 28 107 28zM450 522q42 0 66 -23.5t24 -60.5v-438h-200v495q65 27 110 27zM737 294l140 -276q-46 -28 -106 -28q-106 0 -131 58l-97 221l122 253l174 -28z" />
    <glyph glyph-name="uni0437" unicode="&#x437;" horiz-adv-x="488" 
d="M33 473q98 49 206 49q92 0 143.5 -36t51.5 -103q0 -39 -25.5 -68t-70.5 -42q60 -10 93 -43t33 -82q0 -74 -66 -116t-182 -42q-118 0 -213 75l67 112q52 -39 126 -39q65 0 65 31q0 32 -49 32h-74v121h55q38 0 38 26q0 27 -48 27q-58 0 -99 -23z" />
    <glyph glyph-name="uni0438" unicode="&#x438;" horiz-adv-x="609" 
d="M471 522q42 0 66 -23.5t24 -60.5v-438h-200v206l-113 -101v-105h-200v495q65 27 110 27q42 0 66 -23.5t24 -60.5v-131l113 100v88q65 27 110 27z" />
    <glyph glyph-name="uni0439" unicode="&#x439;" horiz-adv-x="609" 
d="M306 577q-88 0 -137 44.5t-49 123.5h138q0 -25 13 -40t35 -15q21 0 34 15t13 40h139q0 -79 -49.5 -123.5t-136.5 -44.5zM471 522q42 0 66 -23.5t24 -60.5v-438h-200v206l-113 -101v-105h-200v495q65 27 110 27q42 0 66 -23.5t24 -60.5v-131l113 100v88q65 27 110 27z" />
    <glyph glyph-name="uni043A" unicode="&#x43a;" horiz-adv-x="629" 
d="M158 522q42 0 66 -23.5t24 -60.5v-438h-200v495q65 27 110 27zM455 289l192 -271q-55 -28 -128 -28q-95 0 -131 58l-137 221l161 253l182 -28z" />
    <glyph glyph-name="uni043B" unicode="&#x43b;" horiz-adv-x="602" 
d="M554 512v-512h-200v367h-85l-11 -168q-6 -86 -47 -134t-114 -75l-88 132q65 20 72 110l20 280h453z" />
    <glyph glyph-name="uni043C" unicode="&#x43c;" horiz-adv-x="727" 
d="M704 0h-198l-23 270l-72 -270h-140l-68 265l-25 -265h-152l56 497q50 25 94 25q55 0 88 -14t45 -54l67 -226l68 269q48 25 96 25q51 0 75 -20.5t33 -78.5z" />
    <glyph glyph-name="uni043D" unicode="&#x43d;" horiz-adv-x="609" 
d="M471 522q42 0 66 -23.5t24 -60.5v-438h-200v185h-113v-185h-200v495q65 27 110 27q42 0 66 -23.5t24 -60.5v-104h113v161q65 27 110 27z" />
    <glyph glyph-name="uni043E" unicode="&#x43e;" horiz-adv-x="627" 
d="M313 -10q-135 0 -210.5 70.5t-75.5 195.5t75.5 195.5t210.5 70.5q136 0 211.5 -70.5t75.5 -195.5t-75.5 -195.5t-211.5 -70.5zM314 147q38 0 60.5 29t22.5 80t-22.5 80.5t-60.5 29.5t-60.5 -29.5t-22.5 -80.5t22.5 -80t60.5 -29z" />
    <glyph glyph-name="uni043F" unicode="&#x43f;" horiz-adv-x="616" 
d="M568 512v-512h-200v364h-120v-364h-200v512h520z" />
    <glyph glyph-name="uni0440" unicode="&#x440;" horiz-adv-x="618" 
d="M397 522q86 0 139.5 -65t53.5 -178q0 -137 -77.5 -213t-215.5 -76q-30 0 -49 1v-221h-200v725q65 27 110 27q31 0 51.5 -19.5t27.5 -53.5q55 73 160 73zM276 136q51 0 81 37.5t30 105.5q0 41 -17.5 64t-50.5 23q-40 0 -55.5 -26.5t-15.5 -104.5v-99h28z" />
    <glyph glyph-name="uni0441" unicode="&#x441;" horiz-adv-x="525" 
d="M516 49q-85 -59 -209 -59q-131 0 -205.5 70.5t-74.5 196.5q0 121 75 193t186 72q28 0 55.5 -6.5t60 -22t58 -49.5t36.5 -83l-142 -58q-12 63 -57 63q-33 0 -51 -28.5t-18 -80.5q0 -51 25.5 -80.5t69.5 -29.5q71 0 130 39z" />
    <glyph glyph-name="uni0442" unicode="&#x442;" horiz-adv-x="486" 
d="M470 512v-148h-127v-364h-200v364h-127v148h454z" />
    <glyph glyph-name="uni0443" unicode="&#x443;" horiz-adv-x="568" 
d="M373 522l188 -28l-184 -533q-30 -87 -88.5 -143t-116.5 -58l-80 127q35 1 76 35t49 82l1 6q-47 18 -65 72l-142 412q56 28 116 28q98 0 117 -89l20 -98l36 -173l34 173z" />
    <glyph glyph-name="uni0444" unicode="&#x444;" horiz-adv-x="860" 
d="M659 522q78 0 125.5 -65t47.5 -178q0 -137 -72 -213t-201 -76h-29v-220h-200v272q-46 -52 -128 -52q-78 0 -126 65.5t-48 178.5q0 136 72 212t201 76q9 0 29 -2v233q65 27 110 27q42 0 66 -24t24 -61v-226q46 53 129 53zM279 147q31 0 41 25.5t10 104.5v100h-7
q-43 0 -67.5 -37.5t-24.5 -105.5q0 -41 12.5 -64t35.5 -23zM538 136q43 0 67 37.5t24 105.5q0 87 -48 87q-31 0 -41 -26t-10 -105v-99h8z" />
    <glyph glyph-name="uni0445" unicode="&#x445;" horiz-adv-x="567" 
d="M273 138l-81 -138h-203l180 263l-147 231q60 28 121 28q86 0 121 -58l36 -59l68 117l182 -28l-150 -229l170 -247q-46 -28 -106 -28q-109 0 -141 58z" />
    <glyph glyph-name="uni0446" unicode="&#x446;" horiz-adv-x="665" 
d="M558 146h89v-239q-65 -27 -110 -27q-42 0 -66 30t-24 77v13h-399v495q65 27 110 27q42 0 66 -23.5t24 -60.5v-290h110v347q65 27 110 27q42 0 66 -23.5t24 -60.5v-292z" />
    <glyph glyph-name="uni0447" unicode="&#x447;" horiz-adv-x="581" 
d="M333 512h200v-512h-200v183q-49 -60 -128 -60q-81 0 -125.5 46.5t-44.5 129.5v196q65 27 110 27q42 0 66 -23.5t24 -60.5v-106q0 -52 37 -52q33 0 47 27t14 103v102z" />
    <glyph glyph-name="uni0448" unicode="&#x448;" horiz-adv-x="857" 
d="M719 522q42 0 66 -23.5t24 -60.5v-438h-761v495q65 27 110 27q42 0 66 -23.5t24 -60.5v-290h80v347q65 27 110 27q42 0 66 -23.5t24 -60.5v-290h81v347q65 27 110 27z" />
    <glyph glyph-name="uni0449" unicode="&#x449;" horiz-adv-x="916" 
d="M809 146h89v-239q-65 -27 -110 -27q-42 0 -66 30t-24 77v13h-650v495q65 27 110 27q42 0 66 -23.5t24 -60.5v-290h80v347q65 27 110 27q42 0 66 -23.5t24 -60.5v-290h81v347q65 27 110 27q42 0 66 -23.5t24 -60.5v-292z" />
    <glyph glyph-name="uni044A" unicode="&#x44a;" horiz-adv-x="609" 
d="M335 371q122 0 190 -50.5t68 -140.5q0 -89 -67 -139.5t-188 -50.5q-94 0 -220 10h-1v367h-100v145h300v-141h18zM338 124q27 0 42 15t15 41t-16 41.5t-44 15.5h-18v-113h21z" />
    <glyph glyph-name="uni044B" unicode="&#x44b;" horiz-adv-x="821" 
d="M265 371q122 0 190 -50.5t68 -140.5q0 -89 -67 -139.5t-188 -50.5q-94 0 -220 10v495q65 27 110 27q42 0 66 -23.5t24 -60.5v-67h17zM683 522q42 0 66 -23.5t24 -60.5v-438h-200v495q65 27 110 27zM268 124q27 0 42 15t15 41t-16 41.5t-44 15.5h-17v-113h20z" />
    <glyph glyph-name="uni044C" unicode="&#x44c;" horiz-adv-x="540" 
d="M265 371q122 0 190 -50.5t68 -140.5q0 -89 -67 -139.5t-188 -50.5q-94 0 -220 10v495q65 27 110 27q42 0 66 -23.5t24 -60.5v-67h17zM268 124q27 0 42 15t15 41t-16 41.5t-44 15.5h-17v-113h20z" />
    <glyph glyph-name="uni044D" unicode="&#x44d;" horiz-adv-x="526" 
d="M216 522q121 0 202 -72t81 -193q0 -126 -74.5 -196.5t-205.5 -70.5q-126 0 -209 59l58 135q43 -37 115 -37t100 52h-99v117h100q-27 50 -95 50q-48 0 -100 -38l-63 128q91 66 190 66z" />
    <glyph glyph-name="uni044E" unicode="&#x44e;" horiz-adv-x="813" 
d="M525 522q122 0 191.5 -70.5t69.5 -195.5t-69.5 -195.5t-191.5 -70.5q-95 0 -156 48t-81 136h-40v-174h-200v495q65 27 110 27q42 0 66 -23.5t24 -60.5v-107h39q18 91 80 141t158 50zM525 147q28 0 43 29t15 80q0 52 -15 81t-43 29t-43 -29t-15 -81q0 -51 15 -80t43 -29z
" />
    <glyph glyph-name="uni044F" unicode="&#x44f;" horiz-adv-x="581" 
d="M309 522q98 0 224 -10v-512h-197v162h-20q-16 0 -24 1l-79 -163h-205l113 216q-63 49 -63 134q0 81 66 126.5t185 45.5zM336 287v103h-22q-28 0 -43.5 -14t-15.5 -37q0 -24 16 -38t45 -14h20z" />
    <glyph glyph-name="uni0450" unicode="&#x450;" 
d="M422 654l-52 -92l-247 103l94 155zM316 138q73 0 132 38l79 -123q-104 -63 -226 -63q-129 0 -201.5 68t-72.5 189q0 129 75 202t208 73q103 0 160 -46.5t57 -127.5q0 -77 -70.5 -121t-195.5 -44q-21 0 -32 1q18 -46 87 -46zM292 370q-26 0 -44 -20.5t-25 -57.5
q12 -1 35 -1q76 0 76 46q0 33 -42 33z" />
    <glyph glyph-name="uni0451" unicode="&#x451;" 
d="M182 576q-51 0 -79.5 27.5t-28.5 76.5q0 48 28.5 75t79.5 27q50 0 78.5 -27t28.5 -75q0 -49 -28.5 -76.5t-78.5 -27.5zM419 576q-51 0 -79.5 27.5t-28.5 76.5q0 48 28.5 75t79.5 27q50 0 78.5 -27t28.5 -75q0 -49 -28.5 -76.5t-78.5 -27.5zM316 138q73 0 132 38l79 -123
q-104 -63 -226 -63q-129 0 -201.5 68t-72.5 189q0 129 75 202t208 73q103 0 160 -46.5t57 -127.5q0 -77 -70.5 -121t-195.5 -44q-21 0 -32 1q18 -46 87 -46zM292 370q-26 0 -44 -20.5t-25 -57.5q12 -1 35 -1q76 0 76 46q0 33 -42 33z" />
    <glyph glyph-name="uni0452" unicode="&#x452;" horiz-adv-x="620" 
d="M391 522q88 0 136.5 -51t48.5 -145v-357q0 -85 -43 -133t-121 -76l-88 142q52 15 52 100v291q0 73 -52 73q-40 0 -58 -27.5t-18 -103.5v-235h-200v570h-54v149h54v34q65 27 110 27q35 0 57.5 -17t29.5 -44h158v-149h-155v-114q53 66 143 66z" />
    <glyph glyph-name="uni0453" unicode="&#x453;" horiz-adv-x="458" 
d="M406 665l-247 -103l-52 92l205 166zM444 512v-148h-196v-364h-200v512h396z" />
    <glyph glyph-name="uni0454" unicode="&#x454;" horiz-adv-x="526" 
d="M458 184l58 -135q-83 -59 -209 -59q-131 0 -205.5 70.5t-74.5 196.5q0 121 81 193t202 72q99 0 190 -66l-63 -128q-52 38 -100 38q-68 0 -95 -50h100v-117h-99q28 -52 100 -52t115 37z" />
    <glyph glyph-name="uni0455" unicode="&#x455;" horiz-adv-x="514" 
d="M262 522q128 0 219 -68l-69 -105q-72 37 -139 37q-41 0 -41 -16t66 -34q41 -11 70 -23t58.5 -31.5t45 -49t15.5 -68.5q0 -81 -62 -127.5t-171 -46.5q-146 0 -233 70l51 123q41 -28 89.5 -41t83.5 -13q48 0 48 20q0 11 -17 18t-59 18q-7 2 -10 3q-169 45 -169 159
q0 82 60.5 128.5t163.5 46.5z" />
    <glyph glyph-name="uni0456" unicode="&#x456;" horiz-adv-x="296" 
d="M147 576q-51 0 -79.5 27.5t-28.5 76.5q0 48 28.5 75t79.5 27q50 0 78.5 -27t28.5 -75q0 -49 -28.5 -76.5t-78.5 -27.5zM48 512v-512h200v512h-200z" />
    <glyph glyph-name="uni0457" unicode="&#x457;" horiz-adv-x="296" 
d="M31 576q-51 0 -79.5 27.5t-28.5 76.5q0 48 28.5 75t79.5 27q50 0 78.5 -27t28.5 -75q0 -49 -28.5 -76.5t-78.5 -27.5zM268 576q-51 0 -79.5 27.5t-28.5 76.5q0 48 28.5 75t79.5 27q50 0 78.5 -27t28.5 -75q0 -49 -28.5 -76.5t-78.5 -27.5zM48 512h200v-512h-200v512z" />
    <glyph glyph-name="uni0458" unicode="&#x458;" horiz-adv-x="296" 
d="M148 576q-51 0 -79.5 27.5t-28.5 76.5q0 48 28.5 75t79.5 27q50 0 78.5 -27t28.5 -75q0 -49 -28.5 -76.5t-78.5 -27.5zM85 -240q77 28 120 76t43 133v543h-200v-510q0 -85 -51 -100z" />
    <glyph glyph-name="uni0459" unicode="&#x459;" horiz-adv-x="844" 
d="M571 371q122 0 190 -50.5t68 -140.5q0 -89 -67 -139.5t-188 -50.5q-94 0 -220 10v367h-85l-11 -168q-6 -86 -47 -134t-114 -75l-88 132q65 20 72 110l20 280h453v-141h17zM574 124q27 0 42 15t15 41t-16 41.5t-44 15.5h-17v-113h20z" />
    <glyph glyph-name="uni045A" unicode="&#x45a;" horiz-adv-x="851" 
d="M578 371q122 0 190 -50.5t68 -140.5q0 -89 -67 -139.5t-188 -50.5q-94 0 -220 10v185h-113v-185h-200v495q65 27 110 27q42 0 66 -23.5t24 -60.5v-104h113v161q65 27 110 27q42 0 66 -23.5t24 -60.5v-67h17zM581 124q27 0 42 15t15 41t-16 41.5t-44 15.5h-17v-113h20z
" />
    <glyph glyph-name="uni045B" unicode="&#x45b;" horiz-adv-x="620" 
d="M391 522q88 0 136.5 -51t48.5 -145v-326h-200v293q0 73 -52 73q-40 0 -58 -27.5t-18 -103.5v-235h-200v570h-54v149h54v34q65 27 110 27q35 0 57.5 -17t29.5 -44h158v-149h-155v-114q53 66 143 66z" />
    <glyph glyph-name="uni045C" unicode="&#x45c;" horiz-adv-x="629" 
d="M505 665l-247 -103l-52 92l205 166zM158 522q42 0 66 -23.5t24 -60.5v-438h-200v495q65 27 110 27zM455 289l192 -271q-55 -28 -128 -28q-95 0 -131 58l-137 221l161 253l182 -28z" />
    <glyph glyph-name="uni045D" unicode="&#x45d;" horiz-adv-x="609" 
d="M428 654l-52 -92l-247 103l94 155zM471 522q42 0 66 -23.5t24 -60.5v-438h-200v206l-113 -101v-105h-200v495q65 27 110 27q42 0 66 -23.5t24 -60.5v-131l113 100v88q65 27 110 27z" />
    <glyph glyph-name="uni045E" unicode="&#x45e;" horiz-adv-x="568" 
d="M288 577q-88 0 -137 44.5t-49 123.5h138q0 -25 13 -40t35 -15q21 0 34 15t13 40h139q0 -79 -49.5 -123.5t-136.5 -44.5zM373 522l188 -28l-184 -533q-30 -87 -88.5 -143t-116.5 -58l-80 127q35 1 76 35t49 82l1 6q-47 18 -65 72l-142 412q56 28 116 28q98 0 117 -89
l20 -98l36 -173l34 173z" />
    <glyph glyph-name="uni045F" unicode="&#x45f;" horiz-adv-x="606" 
d="M468 522q42 0 66 -23.5t24 -60.5v-438h-156v-93q-65 -27 -110 -27q-42 0 -66 30t-24 77v13h-154v495q65 27 110 27q42 0 66 -23.5t24 -60.5v-290h110v347q65 27 110 27z" />
    <glyph glyph-name="uni0490" unicode="&#x490;" horiz-adv-x="541" 
d="M419 840q49 0 79.5 -30.5t30.5 -76.5v-171h-256v-562h-209v720h254v93q54 27 101 27z" />
    <glyph glyph-name="uni0491" unicode="&#x491;" horiz-adv-x="455" 
d="M354 632q42 0 66 -30t24 -77v-161h-196v-364h-200v512h196v93q65 27 110 27z" />
    <glyph glyph-name="Wgrave" unicode="&#x1e80;" horiz-adv-x="1027" 
d="M634 862l-52 -92l-247 103l94 155zM838 730l187 -32l-200 -698h-219l-58 284l-37 213l-34 -213l-56 -284h-213l-211 698q39 32 104 32q59 0 91 -19t48 -81l68 -264l32 -159l25 173l62 318q42 32 113 32q48 0 84 -31t44 -80l45 -279l20 -137l27 151z" />
    <glyph glyph-name="wgrave" unicode="&#x1e81;" horiz-adv-x="855" 
d="M550 654l-52 -92l-247 103l94 155zM675 522l173 -28l-163 -494h-198l-52 222l-8 55l-8 -48l-48 -229h-199l-167 494q50 28 116 28q98 0 117 -89l29 -134l23 -149l32 158l38 185q34 29 84 29q81 0 99 -89l28 -140l21 -132l29 137z" />
    <glyph glyph-name="Wacute" unicode="&#x1e82;" horiz-adv-x="1027" 
d="M688 873l-247 -103l-52 92l205 166zM838 730l187 -32l-200 -698h-219l-58 284l-37 213l-34 -213l-56 -284h-213l-211 698q39 32 104 32q59 0 91 -19t48 -81l68 -264l32 -159l25 173l62 318q42 32 113 32q48 0 84 -31t44 -80l45 -279l20 -137l27 151z" />
    <glyph glyph-name="wacute" unicode="&#x1e83;" horiz-adv-x="855" 
d="M604 665l-247 -103l-52 92l205 166zM675 522l173 -28l-163 -494h-198l-52 222l-8 55l-8 -48l-48 -229h-199l-167 494q50 28 116 28q98 0 117 -89l29 -134l23 -149l32 158l38 185q34 29 84 29q81 0 99 -89l28 -140l21 -132l29 137z" />
    <glyph glyph-name="Wdieresis" unicode="&#x1e84;" horiz-adv-x="1027" 
d="M394 784q-51 0 -79.5 27.5t-28.5 76.5q0 48 28.5 75t79.5 27q50 0 78.5 -27t28.5 -75q0 -49 -28.5 -76.5t-78.5 -27.5zM631 784q-51 0 -79.5 27.5t-28.5 76.5q0 48 28.5 75t79.5 27q50 0 78.5 -27t28.5 -75q0 -49 -28.5 -76.5t-78.5 -27.5zM838 730l187 -32l-200 -698
h-219l-58 284l-37 213l-34 -213l-56 -284h-213l-211 698q39 32 104 32q59 0 91 -19t48 -81l68 -264l32 -159l25 173l62 318q42 32 113 32q48 0 84 -31t44 -80l45 -279l20 -137l27 151z" />
    <glyph glyph-name="wdieresis" unicode="&#x1e85;" horiz-adv-x="855" 
d="M310 576q-51 0 -79.5 27.5t-28.5 76.5q0 48 28.5 75t79.5 27q50 0 78.5 -27t28.5 -75q0 -49 -28.5 -76.5t-78.5 -27.5zM547 576q-51 0 -79.5 27.5t-28.5 76.5q0 48 28.5 75t79.5 27q50 0 78.5 -27t28.5 -75q0 -49 -28.5 -76.5t-78.5 -27.5zM675 522l173 -28l-163 -494
h-198l-52 222l-8 55l-8 -48l-48 -229h-199l-167 494q50 28 116 28q98 0 117 -89l29 -134l23 -149l32 158l38 185q34 29 84 29q81 0 99 -89l28 -140l21 -132l29 137z" />
    <glyph glyph-name="uni1E9E" unicode="&#x1e9e;" horiz-adv-x="753" 
d="M589 415q136 -87 136 -206q0 -104 -69.5 -161.5t-193.5 -57.5q-93 0 -177 48l63 137q35 -23 93 -23q31 0 49 15.5t18 43.5q0 32 -34 60.5t-129 68.5l114 209q-36 19 -86 19q-55 0 -86 -29.5t-31 -81.5v-457h-198v472q0 123 83.5 190.5t231.5 67.5q98 0 188 -37.5
t131 -101.5z" />
    <glyph glyph-name="Ygrave" unicode="&#x1ef2;" horiz-adv-x="656" 
d="M455 862l-52 -92l-247 103l94 155zM658 698l-225 -425v-273h-209v270l-228 428q42 32 115 32q60 0 93.5 -15t49.5 -53l60 -138l34 -88l32 92l86 202z" />
    <glyph glyph-name="ygrave" unicode="&#x1ef3;" horiz-adv-x="568" 
d="M410 654l-52 -92l-247 103l94 155zM373 522l188 -28l-184 -533q-30 -87 -88.5 -143t-116.5 -58l-80 127q35 1 76 35t49 82l1 6q-47 18 -65 72l-142 412q56 28 116 28q98 0 117 -89l20 -98l36 -173l34 173z" />
    <glyph glyph-name="endash" unicode="&#x2013;" horiz-adv-x="635" 
d="M49 343h537v-166h-537v166z" />
    <glyph glyph-name="emdash" unicode="&#x2014;" horiz-adv-x="921" 
d="M49 343h823v-166h-823v166z" />
    <glyph glyph-name="quoteleft" unicode="&#x2018;" horiz-adv-x="293" 
d="M174 584q43 0 66 -28t23 -79q0 -55 -31 -86.5t-86 -31.5t-86 41.5t-31 113.5q0 85 48.5 145.5t140.5 70.5l24 -44q-60 -13 -90 -40.5t-40 -72.5q30 11 62 11z" />
    <glyph glyph-name="quoteright" unicode="&#x2019;" horiz-adv-x="293" 
d="M149 730q55 0 86 -41.5t31 -113.5q0 -85 -48.5 -145.5t-140.5 -70.5l-24 44q60 13 90 40.5t40 72.5q-30 -11 -62 -11q-43 0 -66 28t-23 79q0 55 31 86.5t86 31.5z" />
    <glyph glyph-name="quotesinglbase" unicode="&#x201a;" horiz-adv-x="300" 
d="M150 215q55 0 86 -41.5t31 -113.5q0 -85 -48.5 -145.5t-140.5 -70.5l-24 44q60 13 90 40.5t40 72.5q-30 -11 -62 -11q-43 0 -66 28t-23 79q0 55 31 86.5t86 31.5z" />
    <glyph glyph-name="quotedblleft" unicode="&#x201c;" horiz-adv-x="559" 
d="M174 584q43 0 66 -28t23 -79q0 -55 -31 -86.5t-86 -31.5t-86 41.5t-31 113.5q0 85 48.5 145.5t140.5 70.5l24 -44q-60 -13 -90 -40.5t-40 -72.5q30 11 62 11zM440 584q43 0 66 -28t23 -79q0 -55 -31 -86.5t-86 -31.5t-86 41.5t-31 113.5q0 85 48.5 145.5t140.5 70.5
l24 -44q-60 -13 -90 -40.5t-40 -72.5q30 11 62 11z" />
    <glyph glyph-name="quotedblright" unicode="&#x201d;" horiz-adv-x="559" 
d="M149 730q55 0 86 -41.5t31 -113.5q0 -85 -48.5 -145.5t-140.5 -70.5l-24 44q60 13 90 40.5t40 72.5q-30 -11 -62 -11q-43 0 -66 28t-23 79q0 55 31 86.5t86 31.5zM415 730q55 0 86 -41.5t31 -113.5q0 -85 -48.5 -145.5t-140.5 -70.5l-24 44q60 13 90 40.5t40 72.5
q-30 -11 -62 -11q-43 0 -66 28t-23 79q0 55 31 86.5t86 31.5z" />
    <glyph glyph-name="quotedblbase" unicode="&#x201e;" horiz-adv-x="566" 
d="M150 215q55 0 86 -41.5t31 -113.5q0 -85 -48.5 -145.5t-140.5 -70.5l-24 44q60 13 90 40.5t40 72.5q-30 -11 -62 -11q-43 0 -66 28t-23 79q0 55 31 86.5t86 31.5zM416 215q55 0 86 -41.5t31 -113.5q0 -85 -48.5 -145.5t-140.5 -70.5l-24 44q60 13 90 40.5t40 72.5
q-30 -11 -62 -11q-43 0 -66 28t-23 79q0 55 31 86.5t86 31.5z" />
    <glyph glyph-name="dagger" unicode="&#x2020;" horiz-adv-x="557" 
d="M515 512v-157h-132v-585h-209v585h-132v157h132v258h209v-258h132z" />
    <glyph glyph-name="daggerdbl" unicode="&#x2021;" horiz-adv-x="557" 
d="M515 355h-132v-143h132v-157h-132v-285h-209v285h-132v157h132v143h-132v157h132v258h209v-258h132v-157z" />
    <glyph glyph-name="bullet" unicode="&#x2022;" horiz-adv-x="419" 
d="M209 152q-73 0 -113 37.5t-40 105.5t40 106t113 38t113.5 -38t40.5 -106t-40.5 -105.5t-113.5 -37.5z" />
    <glyph glyph-name="ellipsis" unicode="&#x2026;" horiz-adv-x="816" 
d="M149 -10q-55 0 -86 30t-31 83q0 52 31 82t86 30q54 0 85 -30t31 -82q0 -53 -31 -83t-85 -30zM409 -10q-55 0 -86 30t-31 83q0 52 31 82t86 30q54 0 85 -30t31 -82q0 -53 -31 -83t-85 -30zM668 -10q-55 0 -86 30t-31 83q0 52 31 82t86 30q54 0 85 -30t31 -82
q0 -53 -31 -83t-85 -30z" />
    <glyph glyph-name="perthousand" unicode="&#x2030;" horiz-adv-x="1090" 
d="M186 311q-74 0 -115.5 42t-41.5 118t41.5 118.5t115.5 42.5t116 -42.5t42 -118.5t-41.5 -118t-116.5 -42zM122 54l411 578l103 -63l-411 -579zM187 413q28 0 28 58t-28 58q-29 0 -29 -58t29 -58zM573 -10q-74 0 -115.5 42t-41.5 117q0 76 41.5 119t115.5 43t116 -43
t42 -119q0 -75 -41.5 -117t-116.5 -42zM906 -10q-74 0 -115.5 42t-41.5 117q0 76 41.5 119t115.5 43t116 -43t42 -119q0 -75 -42 -117t-116 -42zM574 92q28 0 28 57q0 58 -28 58q-29 0 -29 -58q0 -57 29 -57zM907 92q28 0 28 57q0 58 -28 58q-29 0 -29 -58q0 -57 29 -57z
" />
    <glyph glyph-name="guilsinglleft" unicode="&#x2039;" horiz-adv-x="364" 
d="M23 250l166 262l145 -85l-101 -177l101 -177l-145 -85z" />
    <glyph glyph-name="guilsinglright" unicode="&#x203a;" horiz-adv-x="364" 
d="M341 250l-166 -262l-145 85l101 177l-101 177l145 85z" />
    <glyph glyph-name="fraction" unicode="&#x2044;" horiz-adv-x="280" 
d="M-144 54l458 676l109 -64l-458 -676z" />
    <glyph glyph-name="uni2070" unicode="&#x2070;" horiz-adv-x="435" 
d="M217 332q-90 0 -141.5 58.5t-51.5 163.5t51.5 163.5t141.5 58.5q91 0 142.5 -58.5t51.5 -163.5t-51.5 -163.5t-142.5 -58.5zM217 441q46 0 46 113t-46 113t-46 -113t46 -113z" />
    <glyph glyph-name="uni2074" unicode="&#x2074;" horiz-adv-x="403" 
d="M388 520v-106h-56v-76h-142v76h-176v92l146 270l122 -34l-127 -222h43v34l134 50v-84h56z" />
    <glyph glyph-name="uni2075" unicode="&#x2075;" horiz-adv-x="398" 
d="M211 623q80 -7 124 -43t44 -94q0 -73 -51.5 -113.5t-144.5 -40.5q-42 0 -92 14t-83 37l51 92q56 -34 116 -34t60 36q0 16 -16.5 27t-44.5 12l-134 7l29 247h271v-106h-136l-8 -40z" />
    <glyph glyph-name="uni2076" unicode="&#x2076;" horiz-adv-x="408" 
d="M230 625q74 0 114.5 -37.5t40.5 -104.5q0 -71 -47 -111t-133 -40q-85 0 -133 57t-48 159q0 107 58 167.5t159 60.5q68 0 135 -35l-37 -101q-33 27 -78 27q-59 0 -83 -52q27 10 52 10zM211 441q29 0 29 39q0 24 -10.5 39t-29.5 15q-15 0 -33 -6q5 -87 44 -87z" />
    <glyph glyph-name="uni2077" unicode="&#x2077;" horiz-adv-x="350" 
d="M335 770v-90l-163 -359l-134 41l142 302h-163v106h318z" />
    <glyph glyph-name="uni2078" unicode="&#x2078;" horiz-adv-x="412" 
d="M334 565q55 -34 55 -102q0 -62 -48.5 -96.5t-134.5 -34.5q-87 0 -135 34.5t-48 96.5q0 68 54 102q-40 32 -40 89q0 58 44 90t125 32q80 0 124.5 -32t44.5 -90q0 -57 -41 -89zM206 671q-14 0 -23 -9t-9 -24q0 -31 32 -31q13 0 22.5 8.5t9.5 22.5q0 15 -9.5 24t-22.5 9z
M206 439q18 0 30 11t12 29t-12 29.5t-30 11.5q-42 0 -42 -41q0 -40 42 -40z" />
    <glyph glyph-name="uni2079" unicode="&#x2079;" horiz-adv-x="408" 
d="M205 776q86 0 132.5 -60t46.5 -168q0 -102 -57.5 -159t-159.5 -57q-67 0 -134 35l39 101q30 -27 82 -27q65 0 84 62q-30 -14 -60 -14q-73 0 -114 37t-41 102q0 68 48.5 108t133.5 40zM170 631q0 -23 10 -37t28 -14q16 0 34 6q-8 81 -45 81q-12 0 -19.5 -9.5t-7.5 -26.5z
" />
    <glyph glyph-name="uni2080" unicode="&#x2080;" horiz-adv-x="435" 
d="M217 -116q-90 0 -141.5 58.5t-51.5 163.5t51.5 163.5t141.5 58.5q91 0 142.5 -58.5t51.5 -163.5t-51.5 -163.5t-142.5 -58.5zM217 -7q46 0 46 113t-46 113t-46 -113t46 -113z" />
    <glyph glyph-name="uni2081" unicode="&#x2081;" horiz-adv-x="298" 
d="M259 322v-432h-139v272l-67 -31l-53 115l151 76h108z" />
    <glyph glyph-name="uni2082" unicode="&#x2082;" horiz-adv-x="377" 
d="M158 -4h194v-106h-333v58q0 36 10.5 65t32 51.5t37 34t42.5 28.5q23 15 31 21t18 17.5t10 23.5q0 30 -35 30q-37 0 -87 -34l-48 91q71 52 157 52q76 0 118 -38t42 -105q0 -23 -10 -43t-32 -37.5t-36 -26.5t-43 -25l-27.5 -15t-19.5 -12.5t-16.5 -15t-4.5 -14.5z" />
    <glyph glyph-name="uni2083" unicode="&#x2083;" horiz-adv-x="371" 
d="M254 158q95 -41 95 -133q0 -64 -52.5 -102.5t-142.5 -38.5q-73 0 -142 33l44 97q36 -21 84 -21q29 0 45.5 10.5t16.5 28.5q0 22 -36 40.5t-110 24.5l95 119h-117v106h291v-86z" />
    <glyph glyph-name="uni2084" unicode="&#x2084;" horiz-adv-x="403" 
d="M388 72v-106h-56v-76h-142v76h-176v92l146 270l122 -34l-127 -222h43v34l134 50v-84h56z" />
    <glyph glyph-name="uni2085" unicode="&#x2085;" horiz-adv-x="398" 
d="M211 175q80 -7 124 -43t44 -94q0 -73 -51.5 -113.5t-144.5 -40.5q-42 0 -92 14t-83 37l51 92q56 -34 116 -34t60 36q0 16 -16.5 27t-44.5 12l-134 7l29 247h271v-106h-136l-8 -40z" />
    <glyph glyph-name="uni2086" unicode="&#x2086;" horiz-adv-x="408" 
d="M230 177q74 0 114.5 -37.5t40.5 -104.5q0 -71 -47 -111t-133 -40q-85 0 -133 57t-48 159q0 107 58 167.5t159 60.5q68 0 135 -35l-37 -101q-33 27 -78 27q-59 0 -83 -52q27 10 52 10zM211 -7q29 0 29 39q0 24 -10.5 39t-29.5 15q-15 0 -33 -6q5 -87 44 -87z" />
    <glyph glyph-name="uni2087" unicode="&#x2087;" horiz-adv-x="350" 
d="M335 322v-90l-163 -359l-134 41l142 302h-163v106h318z" />
    <glyph glyph-name="uni2088" unicode="&#x2088;" horiz-adv-x="412" 
d="M334 117q55 -34 55 -102q0 -62 -48.5 -96.5t-134.5 -34.5q-87 0 -135 34.5t-48 96.5q0 68 54 102q-40 32 -40 89q0 58 44 90t125 32q80 0 124.5 -32t44.5 -90q0 -57 -41 -89zM206 223q-14 0 -23 -9t-9 -24q0 -31 32 -31q13 0 22.5 8.5t9.5 22.5q0 15 -9.5 24t-22.5 9z
M206 -9q18 0 30 11t12 29t-12 29.5t-30 11.5q-42 0 -42 -41q0 -40 42 -40z" />
    <glyph glyph-name="uni2089" unicode="&#x2089;" horiz-adv-x="408" 
d="M205 328q86 0 132.5 -60t46.5 -168q0 -102 -57.5 -159t-159.5 -57q-67 0 -134 35l39 101q30 -27 82 -27q65 0 84 62q-30 -14 -60 -14q-73 0 -114 37t-41 102q0 68 48.5 108t133.5 40zM170 183q0 -23 10 -37t28 -14q16 0 34 6q-8 81 -45 81q-12 0 -19.5 -9.5t-7.5 -26.5z
" />
    <glyph glyph-name="Euro" unicode="&#x20ac;" horiz-adv-x="629" 
d="M412 147q70 0 118 26l63 -137q-81 -46 -197 -46q-124 0 -201 65t-95 185h-71v145h71q18 119 95 183t201 64q113 0 201 -51l-74 -131q-50 26 -111 26q-79 0 -105 -87h170l-83 -149h-88q25 -93 106 -93z" />
    <glyph glyph-name="uni20B9" unicode="&#x20b9;" horiz-adv-x="565" 
d="M531 508h-79q19 -23 26 -50h53v-110h-64q-25 -48 -77 -76q97 -42 97 -129v-41q0 -62 20 -84q-64 -28 -113 -28q-50 0 -78.5 28.5t-28.5 73.5v43q0 31 -20 48t-52 17h-159v104h144q52 0 66 44h-210v110h209q-18 41 -78 41h-131v123h475v-114z" />
    <glyph glyph-name="uni20BD" unicode="&#x20bd;" horiz-adv-x="651" 
d="M357 256h-47v-31h134v-115h-134v-110h-200v110h-60v115h60v33h-60v126h60v238h1q112 10 249 10q123 0 193.5 -53t70.5 -146q0 -82 -70.5 -129.5t-196.5 -47.5zM310 481v-97h47q33 0 50 13.5t17 35.5q0 49 -68 49q-28 0 -46 -1z" />
    <glyph glyph-name="trademark" unicode="&#x2122;" horiz-adv-x="829" 
d="M787 360h-120l-19 163l-63 -163h-74l-69 151l-15 -151h-109l40 349q22 16 50 16q26 0 41.5 -9.5t27.5 -34.5l85 -188l81 214q21 18 48 18q26 0 38.5 -13t17.5 -51zM30 629v91h285v-91h-82v-269h-121v269h-82z" />
    <glyph glyph-name="oneeighth" unicode="&#x215b;" horiz-adv-x="975" 
d="M612 730l109 -64l-458 -676l-109 64zM259 288h-139v272l-67 -31l-53 115l151 76h108v-432zM897 227q55 -34 55 -102q0 -62 -48.5 -96.5t-134.5 -34.5q-87 0 -135 34.5t-48 96.5q0 68 54 102q-40 32 -40 89q0 58 44 90t125 32q80 0 124.5 -32t44.5 -90q0 -57 -41 -89z
M769 333q-14 0 -23 -9t-9 -24q0 -31 32 -31q13 0 22.5 8.5t9.5 22.5q0 15 -9.5 24t-22.5 9zM769 101q18 0 30 11t12 29t-12 29.5t-30 11.5q-42 0 -42 -41q0 -40 42 -40z" />
    <glyph glyph-name="threeeighths" unicode="&#x215c;" horiz-adv-x="1048" 
d="M685 730l109 -64l-458 -676l-109 64zM349 423q0 -64 -52.5 -102.5t-142.5 -38.5q-73 0 -142 33l44 97q36 -21 84 -21q29 0 45.5 10.5t16.5 28.5q0 22 -36 40.5t-110 24.5l95 119h-117v106h291v-86l-71 -78q95 -41 95 -133zM970 227q55 -34 55 -102q0 -62 -48.5 -96.5
t-134.5 -34.5q-87 0 -135 34.5t-48 96.5q0 68 54 102q-40 32 -40 89q0 58 44 90t125 32q80 0 124.5 -32t44.5 -90q0 -57 -41 -89zM842 333q-14 0 -23 -9t-9 -24q0 -31 32 -31q13 0 22.5 8.5t9.5 22.5q0 15 -9.5 24t-22.5 9zM842 101q18 0 30 11t12 29t-12 29.5t-30 11.5
q-42 0 -42 -41q0 -40 42 -40z" />
    <glyph glyph-name="fiveeighths" unicode="&#x215d;" horiz-adv-x="1075" 
d="M712 730l109 -64l-458 -676l-109 64zM379 436q0 -73 -51.5 -113.5t-144.5 -40.5q-42 0 -92 14t-83 37l51 92q56 -34 116 -34t60 36q0 16 -16.5 27t-44.5 12l-134 7l29 247h271v-106h-136l-8 -40l15 -1q80 -7 124 -43t44 -94zM997 227q55 -34 55 -102q0 -62 -48.5 -96.5
t-134.5 -34.5q-87 0 -135 34.5t-48 96.5q0 68 54 102q-40 32 -40 89q0 58 44 90t125 32q80 0 124.5 -32t44.5 -90q0 -57 -41 -89zM869 333q-14 0 -23 -9t-9 -24q0 -31 32 -31q13 0 22.5 8.5t9.5 22.5q0 15 -9.5 24t-22.5 9zM869 101q18 0 30 11t12 29t-12 29.5t-30 11.5
q-42 0 -42 -41q0 -40 42 -40z" />
    <glyph glyph-name="seveneighths" unicode="&#x215e;" horiz-adv-x="977" 
d="M614 730l109 -64l-458 -676l-109 64zM172 271l-134 41l142 302h-163v106h318v-90zM899 227q55 -34 55 -102q0 -62 -48.5 -96.5t-134.5 -34.5q-87 0 -135 34.5t-48 96.5q0 68 54 102q-40 32 -40 89q0 58 44 90t125 32q80 0 124.5 -32t44.5 -90q0 -57 -41 -89zM771 333
q-14 0 -23 -9t-9 -24q0 -31 32 -31q13 0 22.5 8.5t9.5 22.5q0 15 -9.5 24t-22.5 9zM771 101q18 0 30 11t12 29t-12 29.5t-30 11.5q-42 0 -42 -41q0 -40 42 -40z" />
    <glyph glyph-name="partialdiff" unicode="&#x2202;" horiz-adv-x="708" 
d="M313 750q166 0 266.5 -103.5t100.5 -273.5q0 -172 -101 -277.5t-265 -105.5q-133 0 -213 66t-80 174q0 111 114.5 183.5t307.5 84.5q-42 90 -129 90q-43 0 -77.5 -21t-50.5 -57l-130 101q87 139 257 139zM315 152q62 0 103 50.5t49 135.5q-104 0 -167 -30.5t-63 -80.5
q0 -33 21 -54t57 -21z" />
    <glyph glyph-name="emptyset" unicode="&#x2205;" horiz-adv-x="595" 
d="M512 415q46 -64 46 -164q0 -122 -68.5 -191t-190.5 -69q-105 0 -171 51l-42 -41l-44 43l43 42q-47 64 -47 165q0 122 69 190.5t192 68.5q104 0 170 -51l39 38l44 -43zM115 250q0 -67 24 -112l279 271q-48 39 -120 39q-86 0 -134.5 -52.5t-48.5 -145.5zM298 50
q86 0 134 52.5t48 147.5q0 66 -24 111l-279 -272q47 -39 121 -39z" />
    <glyph glyph-name="product" unicode="&#x220f;" horiz-adv-x="798" 
d="M767 770v-184h-65v-816h-200v816h-206v-816h-200v816h-65v184h736z" />
    <glyph glyph-name="summation" unicode="&#x2211;" horiz-adv-x="754" 
d="M722 -72v-158h-693v123l229 380l-217 374v123h671v-158h-437l208 -339l-223 -345h462z" />
    <glyph glyph-name="minus" unicode="&#x2212;" horiz-adv-x="552" 
d="M51 326h450v-148h-450v148z" />
    <glyph glyph-name="radical" unicode="&#x221a;" horiz-adv-x="781" 
d="M568 770h220l-285 -778q-41 -112 -143 -112q-56 0 -110 27l-85 230h-156v158h316l37 -141z" />
    <glyph glyph-name="infinity" unicode="&#x221e;" horiz-adv-x="823" 
d="M572 454q103 0 159.5 -53.5t56.5 -149.5t-56.5 -149.5t-159.5 -53.5q-106 0 -160 62q-56 -62 -160 -62q-102 0 -159.5 53.5t-57.5 149.5t57.5 149.5t159.5 53.5q104 0 160 -62q54 62 160 62zM275 205q36 0 36 46t-36 46t-36 -46t36 -46zM549 205q36 0 36 46t-36 46
t-36 -46t36 -46z" />
    <glyph glyph-name="integral" unicode="&#x222b;" horiz-adv-x="340" 
d="M234 780l88 -142q-52 -15 -52 -100v-569q0 -85 -43 -133t-120 -76l-88 142q51 15 51 100v569q0 85 43 133t121 76z" />
    <glyph glyph-name="approxequal" unicode="&#x2248;" horiz-adv-x="608" 
d="M87 253l-49 64q16 54 60 89.5t93 35.5q54 0 138 -22.5t115 -22.5q49 0 80 52l46 -65q-27 -61 -71 -92.5t-96 -31.5q-53 0 -129.5 24t-106.5 24q-47 0 -80 -55zM87 43l-49 64q16 54 60 89.5t93 35.5q54 0 138 -22.5t115 -22.5q49 0 80 52l46 -65q-27 -61 -71 -92.5
t-96 -31.5q-53 0 -129.5 24t-106.5 24q-47 0 -80 -55z" />
    <glyph glyph-name="notequal" unicode="&#x2260;" horiz-adv-x="552" 
d="M501 283h-186l-18 -62h204v-148h-247l-21 -73h-64l21 73h-139v148h182l18 62h-200v148h243l24 81h64l-24 -81h143v-148z" />
    <glyph glyph-name="lessequal" unicode="&#x2264;" horiz-adv-x="545" 
d="M494 517v-147l-212 -32l212 -31v-148l-450 111v136zM44 0v148h450v-148h-450z" />
    <glyph glyph-name="greaterequal" unicode="&#x2265;" horiz-adv-x="545" 
d="M51 517l450 -111v-136l-450 -111v148l212 31l-212 32v147zM51 0v148h450v-148h-450z" />
    <glyph glyph-name="lozenge" unicode="&#x25ca;" horiz-adv-x="554" 
d="M22 256l255 266l255 -266l-255 -266zM227 256l50 -51l49 51l-49 51z" />
    <glyph glyph-name="a.ss01" horiz-adv-x="616" 
d="M320 522q119 0 249 -10v-495q-65 -27 -110 -27q-31 0 -51.5 20t-27.5 53q-55 -73 -160 -73q-86 0 -139.5 65t-53.5 178q0 137 77.5 213t215.5 76zM369 277v99h-28q-51 0 -81 -37.5t-30 -105.5q0 -41 17.5 -64t50.5 -23q40 0 55.5 26.5t15.5 104.5z" />
    <glyph glyph-name="aacute.ss01" horiz-adv-x="616" 
d="M497 665l-247 -103l-52 92l205 166zM320 522q119 0 249 -10v-495q-65 -27 -110 -27q-31 0 -51.5 20t-27.5 53q-55 -73 -160 -73q-86 0 -139.5 65t-53.5 178q0 137 77.5 213t215.5 76zM369 277v99h-28q-51 0 -81 -37.5t-30 -105.5q0 -41 17.5 -64t50.5 -23q40 0 55.5 26.5
t15.5 104.5z" />
    <glyph glyph-name="abreve.ss01" horiz-adv-x="616" 
d="M321 577q-88 0 -137 44.5t-49 123.5h138q0 -25 13 -40t35 -15q21 0 34 15t13 40h139q0 -79 -49.5 -123.5t-136.5 -44.5zM320 522q119 0 249 -10v-495q-65 -27 -110 -27q-31 0 -51.5 20t-27.5 53q-55 -73 -160 -73q-86 0 -139.5 65t-53.5 178q0 137 77.5 213t215.5 76z
M369 277v99h-28q-51 0 -81 -37.5t-30 -105.5q0 -41 17.5 -64t50.5 -23q40 0 55.5 26.5t15.5 104.5z" />
    <glyph glyph-name="acircumflex.ss01" horiz-adv-x="616" 
d="M320 640l-153 -78l-52 92l205 156l205 -156l-52 -92zM320 522q119 0 249 -10v-495q-65 -27 -110 -27q-31 0 -51.5 20t-27.5 53q-55 -73 -160 -73q-86 0 -139.5 65t-53.5 178q0 137 77.5 213t215.5 76zM369 277v99h-28q-51 0 -81 -37.5t-30 -105.5q0 -41 17.5 -64
t50.5 -23q40 0 55.5 26.5t15.5 104.5z" />
    <glyph glyph-name="adieresis.ss01" horiz-adv-x="616" 
d="M203 576q-51 0 -79.5 27.5t-28.5 76.5q0 48 28.5 75t79.5 27q50 0 78.5 -27t28.5 -75q0 -49 -28.5 -76.5t-78.5 -27.5zM440 576q-51 0 -79.5 27.5t-28.5 76.5q0 48 28.5 75t79.5 27q50 0 78.5 -27t28.5 -75q0 -49 -28.5 -76.5t-78.5 -27.5zM320 522q119 0 249 -10v-495
q-65 -27 -110 -27q-31 0 -51.5 20t-27.5 53q-55 -73 -160 -73q-86 0 -139.5 65t-53.5 178q0 137 77.5 213t215.5 76zM369 277v99h-28q-51 0 -81 -37.5t-30 -105.5q0 -41 17.5 -64t50.5 -23q40 0 55.5 26.5t15.5 104.5z" />
    <glyph glyph-name="agrave.ss01" horiz-adv-x="616" 
d="M443 654l-52 -92l-247 103l94 155zM320 522q119 0 249 -10v-495q-65 -27 -110 -27q-31 0 -51.5 20t-27.5 53q-55 -73 -160 -73q-86 0 -139.5 65t-53.5 178q0 137 77.5 213t215.5 76zM369 277v99h-28q-51 0 -81 -37.5t-30 -105.5q0 -41 17.5 -64t50.5 -23q40 0 55.5 26.5
t15.5 104.5z" />
    <glyph glyph-name="amacron.ss01" horiz-adv-x="616" 
d="M479 747v-143h-317v143h317zM320 522q119 0 249 -10v-495q-65 -27 -110 -27q-31 0 -51.5 20t-27.5 53q-55 -73 -160 -73q-86 0 -139.5 65t-53.5 178q0 137 77.5 213t215.5 76zM369 277v99h-28q-51 0 -81 -37.5t-30 -105.5q0 -41 17.5 -64t50.5 -23q40 0 55.5 26.5
t15.5 104.5z" />
    <glyph glyph-name="aogonek.ss01" horiz-adv-x="616" 
d="M562 -147l18 -67q-54 -26 -114 -26q-50 0 -78.5 25.5t-28.5 70.5q0 67 85 135q-51 9 -64 72q-55 -73 -160 -73q-86 0 -139.5 65t-53.5 178q0 137 77.5 213t215.5 76q119 0 249 -10v-495q-106 -94 -106 -149q0 -31 38 -31q27 0 61 16zM298 146q40 0 55.5 26.5t15.5 104.5
v99h-28q-51 0 -81 -37.5t-30 -105.5q0 -41 17.5 -64t50.5 -23z" />
    <glyph glyph-name="aring.ss01" horiz-adv-x="616" 
d="M319 558q-68 0 -107 34t-39 94t39 94.5t107 34.5t107 -34t39 -95t-38.5 -94.5t-107.5 -33.5zM320 732q-19 0 -30 -12.5t-11 -33.5t11 -33t30 -12t30 12t11 33t-11 33.5t-30 12.5zM320 522q119 0 249 -10v-495q-65 -27 -110 -27q-31 0 -51.5 20t-27.5 53q-55 -73 -160 -73
q-86 0 -139.5 65t-53.5 178q0 137 77.5 213t215.5 76zM369 277v99h-28q-51 0 -81 -37.5t-30 -105.5q0 -41 17.5 -64t50.5 -23q40 0 55.5 26.5t15.5 104.5z" />
    <glyph glyph-name="atilde.ss01" horiz-adv-x="616" 
d="M235 621q-39 0 -71 -36l-46 61q14 49 54 83.5t83 34.5q31 0 81 -19t70 -19q43 0 75 35l46 -60q-57 -119 -153 -119q-30 0 -75 19.5t-64 19.5zM320 522q119 0 249 -10v-495q-65 -27 -110 -27q-31 0 -51.5 20t-27.5 53q-55 -73 -160 -73q-86 0 -139.5 65t-53.5 178
q0 137 77.5 213t215.5 76zM369 277v99h-28q-51 0 -81 -37.5t-30 -105.5q0 -41 17.5 -64t50.5 -23q40 0 55.5 26.5t15.5 104.5z" />
    <glyph glyph-name="i.loclTRK" horiz-adv-x="296" 
d="M149 576q-51 0 -79.5 27.5t-28.5 76.5q0 48 28.5 75t79.5 27q50 0 78.5 -27t28.5 -75q0 -49 -28.5 -76.5t-78.5 -27.5zM48 512h200v-512h-200v512z" />
    <glyph glyph-name="j.ss01" horiz-adv-x="304" 
d="M155 576q-51 0 -79.5 27.5t-28.5 76.5q0 48 28.5 75t79.5 27q50 0 78.5 -27t28.5 -75q0 -49 -28.5 -76.5t-78.5 -27.5zM60 -240q94 0 145 47t51 132v573h-200v-539q0 -26 -14.5 -41t-39.5 -15q-35 0 -64 17l-25 -143q66 -31 147 -31z" />
    <glyph glyph-name="y.ss01" horiz-adv-x="608" 
d="M472 522q42 0 65.5 -24t23.5 -60v-482q0 -93 -67.5 -144.5t-188.5 -51.5q-136 0 -256 63l63 128q83 -43 158 -43q56 0 73.5 19.5t17.5 62.5v63q-50 -63 -133 -63q-88 0 -136.5 51.5t-48.5 144.5v309q65 27 110 27q42 0 66 -23.5t24 -60.5v-218q0 -73 52 -73q35 0 50.5 27
t15.5 103v218q67 27 111 27z" />
    <glyph glyph-name="yacute.ss01" horiz-adv-x="608" 
d="M481 665l-247 -103l-52 92l205 166zM472 522q42 0 65.5 -24t23.5 -60v-482q0 -93 -67.5 -144.5t-188.5 -51.5q-136 0 -256 63l63 128q83 -43 158 -43q56 0 73.5 19.5t17.5 62.5v63q-50 -63 -133 -63q-88 0 -136.5 51.5t-48.5 144.5v309q65 27 110 27q42 0 66 -23.5
t24 -60.5v-218q0 -73 52 -73q35 0 50.5 27t15.5 103v218q67 27 111 27z" />
    <glyph glyph-name="ycircumflex.ss01" horiz-adv-x="608" 
d="M304 640l-153 -78l-52 92l205 156l205 -156l-52 -92zM472 522q42 0 65.5 -24t23.5 -60v-482q0 -93 -67.5 -144.5t-188.5 -51.5q-136 0 -256 63l63 128q83 -43 158 -43q56 0 73.5 19.5t17.5 62.5v63q-50 -63 -133 -63q-88 0 -136.5 51.5t-48.5 144.5v309q65 27 110 27
q42 0 66 -23.5t24 -60.5v-218q0 -73 52 -73q35 0 50.5 27t15.5 103v218q67 27 111 27z" />
    <glyph glyph-name="ydieresis.ss01" horiz-adv-x="608" 
d="M187 576q-51 0 -79.5 27.5t-28.5 76.5q0 48 28.5 75t79.5 27q50 0 78.5 -27t28.5 -75q0 -49 -28.5 -76.5t-78.5 -27.5zM424 576q-51 0 -79.5 27.5t-28.5 76.5q0 48 28.5 75t79.5 27q50 0 78.5 -27t28.5 -75q0 -49 -28.5 -76.5t-78.5 -27.5zM472 522q42 0 65.5 -24
t23.5 -60v-482q0 -93 -67.5 -144.5t-188.5 -51.5q-136 0 -256 63l63 128q83 -43 158 -43q56 0 73.5 19.5t17.5 62.5v63q-50 -63 -133 -63q-88 0 -136.5 51.5t-48.5 144.5v309q65 27 110 27q42 0 66 -23.5t24 -60.5v-218q0 -73 52 -73q35 0 50.5 27t15.5 103v218
q67 27 111 27z" />
    <glyph glyph-name="ygrave.ss01" horiz-adv-x="608" 
d="M427 654l-52 -92l-247 103l94 155zM472 522q42 0 65.5 -24t23.5 -60v-482q0 -93 -67.5 -144.5t-188.5 -51.5q-136 0 -256 63l63 128q83 -43 158 -43q56 0 73.5 19.5t17.5 62.5v63q-50 -63 -133 -63q-88 0 -136.5 51.5t-48.5 144.5v309q65 27 110 27q42 0 66 -23.5
t24 -60.5v-218q0 -73 52 -73q35 0 50.5 27t15.5 103v218q67 27 111 27z" />
    <glyph glyph-name="f_b" horiz-adv-x="1054" 
d="M833 522q86 0 139.5 -65t53.5 -178q0 -137 -77.5 -213t-215.5 -76q-119 0 -249 10v364h-186v-364h-200v364h-71v148h71v89q0 85 55.5 132t155.5 47q63 0 119 -16l-24 -146q-18 5 -44 5q-28 0 -45 -15t-17 -40v-56h186v241q65 27 110 27q42 0 66 -24t24 -61v-233
q53 60 149 60zM712 136q51 0 81 37.5t30 105.5q0 41 -17.5 64t-50.5 23q-40 0 -55.5 -26.5t-15.5 -104.5v-99h28z" />
    <glyph glyph-name="f_f_j" horiz-adv-x="1116" 
d="M968 576q-51 0 -79.5 27.5t-28.5 76.5q0 48 28.5 75t79.5 27q50 0 78.5 -27t28.5 -75q0 -49 -28.5 -76.5t-78.5 -27.5zM1068 512v-543q0 -85 -43 -133t-120 -76l-88 142q51 15 51 100v362h-199v-364h-200v364h-171v-364h-200v364h-71v148h71v89q0 85 55.5 132t155.5 47
q63 0 119 -16l-24 -146q-18 5 -44 5q-28 0 -45 -15t-17 -40v-56h171v89q0 85 55.5 132t155.5 47q70 0 137 -16l-25 -147q-26 6 -61 6q-28 0 -45 -15t-17 -40v-56h399z" />
    <glyph glyph-name="f_f_j.ss01" horiz-adv-x="1116" 
d="M968 576q-51 0 -79.5 27.5t-28.5 76.5q0 48 28.5 75t79.5 27q50 0 78.5 -27t28.5 -75q0 -49 -28.5 -76.5t-78.5 -27.5zM1069 512v-573q0 -85 -51 -132t-145 -47q-81 0 -147 31l25 143q29 -17 64 -17q25 0 39.5 15t14.5 41v391h-200v-364h-200v364h-171v-364h-200v364h-71
v148h71v89q0 85 55.5 132t155.5 47q63 0 119 -16l-24 -146q-18 5 -44 5q-28 0 -45 -15t-17 -40v-56h171v89q0 85 55.5 132t155.5 47q70 0 137 -16l-25 -147q-26 6 -61 6q-28 0 -45 -15t-17 -40v-56h400z" />
    <glyph glyph-name="f_f_t" horiz-adv-x="1245" 
d="M1205 167l25 -146q-68 -31 -152 -31q-96 0 -148.5 47t-52.5 132v195h-209v-364h-200v364h-170v-364h-200v364h-71v148h71v89q0 85 55.5 132t155.5 47q63 0 119 -16l-24 -146q-18 5 -44 5q-28 0 -45 -15t-17 -40v-56h170v89q0 85 55.5 132t155.5 47q90 0 162 -31l-25 -146
q-37 20 -85 20q-29 0 -46 -15t-17 -40v-56h216v108q65 27 110 27q39 0 61 -24t22 -60v-51h138v-148h-138v-163q0 -25 15 -39.5t40 -14.5q42 0 73 20z" />
    <glyph glyph-name="f_h" horiz-adv-x="1056" 
d="M827 522q88 0 136.5 -51t48.5 -145v-326h-200v293q0 73 -52 73q-40 0 -58 -27.5t-18 -103.5v-235h-200v364h-186v-364h-200v364h-71v148h71v89q0 85 55.5 132t155.5 47q63 0 119 -16l-24 -146q-18 5 -44 5q-28 0 -45 -15t-17 -40v-56h186v241q65 27 110 27q42 0 66 -24
t24 -61v-239q53 66 143 66z" />
    <glyph glyph-name="f_iacute" horiz-adv-x="746" 
d="M775 665l-247 -103l-52 92l205 166zM698 512v-512h-200v364h-200v-364h-200v364h-71v148h71v89q0 85 55.5 132t155.5 47q70 0 137 -16l-25 -147q-25 6 -61 6q-28 0 -45 -15t-17 -40v-56h400z" />
    <glyph glyph-name="f_j" horiz-adv-x="745" 
d="M597 576q-51 0 -79.5 27.5t-28.5 76.5q0 48 28.5 75t79.5 27q50 0 78.5 -27t28.5 -75q0 -49 -28.5 -76.5t-78.5 -27.5zM697 512v-543q0 -85 -43 -133t-120 -76l-88 142q51 15 51 100v362h-199v-364h-200v364h-71v148h71v89q0 85 55.5 132t155.5 47q70 0 137 -16l-25 -147
q-25 6 -61 6q-28 0 -45 -15t-17 -40v-56h399z" />
    <glyph glyph-name="f_j.ss01" horiz-adv-x="744" 
d="M596 576q-51 0 -79.5 27.5t-28.5 76.5q0 48 28.5 75t79.5 27q50 0 78.5 -27t28.5 -75q0 -49 -28.5 -76.5t-78.5 -27.5zM697 512v-573q0 -85 -51 -132t-145 -47q-81 0 -147 31l25 143q29 -17 64 -17q25 0 39.5 15t14.5 41v391h-199v-364h-200v364h-71v148h71v89
q0 85 55.5 132t155.5 47q70 0 137 -16l-25 -147q-25 6 -61 6q-28 0 -45 -15t-17 -40v-56h399z" />
    <glyph glyph-name="f_k" horiz-adv-x="1065" 
d="M594 780q42 0 66 -24t24 -61v-695h-200v364h-186v-364h-200v364h-71v148h71v89q0 85 55.5 132t155.5 47q63 0 119 -16l-24 -146q-18 5 -44 5q-28 0 -45 -15t-17 -40v-56h186v241q65 27 110 27zM891 289l192 -271q-55 -28 -125 -28q-98 0 -134 58l-137 221l161 253
l182 -28z" />
    <glyph glyph-name="f_t" horiz-adv-x="875" 
d="M835 167l25 -146q-68 -31 -152 -31q-96 0 -148.5 47t-52.5 132v195h-209v-364h-200v364h-71v148h71v89q0 85 55.5 132t155.5 47q90 0 162 -31l-25 -146q-37 20 -85 20q-29 0 -46 -15t-17 -40v-56h216v108q65 27 110 27q39 0 61 -24t22 -60v-51h138v-148h-138v-163
q0 -25 15 -39.5t40 -14.5q42 0 73 20z" />
    <glyph glyph-name="t_t" horiz-adv-x="868" 
d="M828 167l25 -146q-68 -31 -152 -31q-96 0 -148.5 47t-52.5 132v195h-209v-163q0 -25 15 -39.5t40 -14.5q42 0 73 20l25 -146q-68 -31 -152 -31q-96 0 -148.5 47t-52.5 132v195h-71v148h78v108q65 27 110 27q39 0 61 -24t22 -60v-51h216v108q65 27 110 27q39 0 61 -24
t22 -60v-51h138v-148h-138v-163q0 -25 15 -39.5t40 -14.5q42 0 73 20z" />
    <glyph glyph-name="ordfeminine.case" horiz-adv-x="475" 
d="M241 730q84 0 180 -7v-347q-58 -20 -88 -20q-44 0 -58 48q-37 -48 -110 -48q-59 0 -97 45.5t-38 123.5q0 98 55.5 151.5t155.5 53.5zM263 565v52h-5q-30 0 -48.5 -24.5t-18.5 -67.5q0 -47 36 -47q23 0 29.5 16t6.5 71z" />
    <glyph glyph-name="ordfeminine.lf" horiz-adv-x="475" 
d="M241 730q84 0 180 -7v-347q-58 -20 -88 -20q-44 0 -58 48q-37 -48 -110 -48q-59 0 -97 45.5t-38 123.5q0 98 55.5 151.5t155.5 53.5zM263 565v52h-5q-30 0 -48.5 -24.5t-18.5 -67.5q0 -47 36 -47q23 0 29.5 16t6.5 71z" />
    <glyph glyph-name="ordmasculine.case" horiz-adv-x="470" 
d="M235 356q-98 0 -152.5 49.5t-54.5 137.5t54.5 137.5t152.5 49.5t152.5 -49.5t54.5 -137.5t-54.5 -137.5t-152.5 -49.5zM235 478q22 0 34.5 17.5t12.5 47.5t-12.5 47.5t-34.5 17.5t-34.5 -17.5t-12.5 -47.5t12.5 -47.5t34.5 -17.5z" />
    <glyph glyph-name="ordmasculine.lf" horiz-adv-x="470" 
d="M235 356q-98 0 -152.5 49.5t-54.5 137.5t54.5 137.5t152.5 49.5t152.5 -49.5t54.5 -137.5t-54.5 -137.5t-152.5 -49.5zM235 478q22 0 34.5 17.5t12.5 47.5t-12.5 47.5t-34.5 17.5t-34.5 -17.5t-12.5 -47.5t12.5 -47.5t34.5 -17.5z" />
    <glyph glyph-name="uni0414.loclBGR" horiz-adv-x="795" 
d="M706 153h80v-246q-54 -27 -100 -27q-49 0 -79 29t-30 73v18h-370l-8 -93q-48 -27 -89 -27q-45 0 -72 29t-27 73v171h66l205 550q54 27 109 27q99 0 143 -112zM272 158h216l-108 322z" />
    <glyph glyph-name="uni041B.loclBGR" horiz-adv-x="713" 
d="M728 0h-220l-163 480l-163 -480h-197l262 703q54 27 109 27q99 0 143 -112z" />
    <glyph glyph-name="uni0424.loclBGR" horiz-adv-x="888" 
d="M856 360q0 -149 -80.5 -243t-227.5 -119v-108h-209v108q-147 26 -227 119.5t-80 242.5t80 242.5t227 119.5v91q54 27 98 27q51 0 81 -29t30 -73v-16q147 -25 227.5 -119t80.5 -243zM248 360q0 -131 91 -183v366q-91 -52 -91 -183zM548 177q91 50 91 183t-91 183v-366z
" />
    <glyph glyph-name="uni0430.ss01" horiz-adv-x="616" 
d="M320 522q119 0 249 -10v-495q-65 -27 -110 -27q-31 0 -51.5 20t-27.5 53q-55 -73 -160 -73q-86 0 -139.5 65t-53.5 178q0 137 77.5 213t215.5 76zM369 277v99h-28q-51 0 -81 -37.5t-30 -105.5q0 -41 17.5 -64t50.5 -23q40 0 55.5 26.5t15.5 104.5z" />
    <glyph glyph-name="uni0431.loclSRB" horiz-adv-x="623" 
d="M266 544q0 -8 5 -14t19.5 -13t24.5 -10.5l34 -12.5q34 -12 53.5 -19.5t53.5 -24t55 -35.5t43.5 -46t33 -63t10.5 -80q0 -111 -76 -173.5t-211 -62.5t-210.5 58t-75.5 160q0 114 128 196q-50 24 -78 59.5t-28 95.5q0 160 278 196l191 25q43 -49 43 -99q0 -29 -27 -50
t-69 -27l-118 -18q-79 -12 -79 -42zM311 147q38 0 60.5 21t22.5 58q0 76 -81 116q-85 -52 -85 -116q0 -37 22.5 -58t60.5 -21z" />
    <glyph glyph-name="uni0432.loclBGR" horiz-adv-x="607" 
d="M451 399q130 -51 130 -185q0 -103 -73 -163.5t-201 -60.5q-124 0 -193.5 49t-69.5 137v421q0 87 66.5 135t185.5 48q125 0 196 -55.5t71 -154.5q0 -119 -112 -171zM296 634q-23 0 -36.5 -13t-13.5 -37v-127h27q41 0 64 27t23 73q0 34 -18 55.5t-46 21.5zM307 136
q31 0 51 25.5t20 65.5q0 51 -25 80t-69 29h-38v-147q0 -53 61 -53z" />
    <glyph glyph-name="uni0433.loclBGR" horiz-adv-x="511" 
d="M250 522q104 0 164 -40t60 -112q0 -29 -12 -54t-27 -40.5t-43.5 -31t-44.5 -22.5t-47 -19q-60 -23 -70 -35q-4 -6 -4 -12q0 -20 44 -20q91 0 166 54l55 -130q-87 -70 -232 -70q-111 0 -172.5 41t-61.5 115q0 32 13 57.5t40 45t48.5 30.5t57.5 27q10 4 14 6q6 2 14.5 6
t13.5 6t12 5.5t10.5 5.5t8.5 4.5t7.5 5l5 5t3.5 5t1 5.5q0 19 -42 19q-61 0 -127 -36l-74 111q91 68 219 68z" />
    <glyph glyph-name="uni0434.loclBGR" horiz-adv-x="617" 
d="M320 522q119 0 249 -10v-536q0 -103 -67 -159.5t-189 -56.5q-136 0 -256 63l79 123q74 -38 142 -38q56 0 73.5 24t17.5 78v40q-53 -60 -149 -60q-86 0 -139.5 65t-53.5 178q0 137 77.5 213t215.5 76zM369 277v99h-28q-51 0 -81 -37.5t-30 -105.5q0 -41 17.5 -64t50.5 -23
q40 0 55.5 26.5t15.5 104.5z" />
    <glyph glyph-name="uni0436.loclBGR" horiz-adv-x="877" 
d="M450 780q42 0 66 -24t24 -61v-695h-200v753q65 27 110 27zM134 522q85 0 112 -58l91 -196l-129 -268h-205l142 276l-118 218q46 28 107 28zM737 294l140 -276q-46 -28 -106 -28q-106 0 -131 58l-97 221l122 253l174 -28z" />
    <glyph glyph-name="uni0437.loclBGR" horiz-adv-x="527" 
d="M21 448q112 74 233 74q105 0 163 -51t58 -144q0 -57 -30 -100.5t-83 -61.5q71 -17 110 -66t39 -119q0 -103 -73.5 -161.5t-204.5 -58.5q-138 0 -246 107l68 116q66 -71 158 -71q45 0 70 23.5t25 64.5q0 42 -26.5 65.5t-72.5 23.5h-66v127h44q39 0 62 21t23 60
q0 75 -74 75q-66 0 -126 -46z" />
    <glyph glyph-name="uni0438.loclBGR" horiz-adv-x="607" 
d="M471 522q42 0 66 -23.5t24 -60.5v-421q-65 -27 -110 -27q-31 0 -52 20.5t-28 55.5q-52 -76 -143 -76q-88 0 -136.5 51.5t-48.5 144.5v309q65 27 110 27q42 0 66 -23.5t24 -60.5v-218q0 -73 52 -73q35 0 50.5 27t15.5 103v218q65 27 110 27z" />
    <glyph glyph-name="uni0439.loclBGR" horiz-adv-x="607" 
d="M305 577q-88 0 -137 44.5t-49 123.5h138q0 -25 13 -40t35 -15q21 0 34 15t13 40h139q0 -79 -49.5 -123.5t-136.5 -44.5zM471 522q42 0 66 -23.5t24 -60.5v-421q-65 -27 -110 -27q-31 0 -52 20.5t-28 55.5q-52 -76 -143 -76q-88 0 -136.5 51.5t-48.5 144.5v309
q65 27 110 27q42 0 66 -23.5t24 -60.5v-218q0 -73 52 -73q35 0 50.5 27t15.5 103v218q65 27 110 27z" />
    <glyph glyph-name="uni045D.loclBGR" horiz-adv-x="607" 
d="M427 654l-52 -92l-247 103l94 155zM471 522q42 0 66 -23.5t24 -60.5v-421q-65 -27 -110 -27q-31 0 -52 20.5t-28 55.5q-52 -76 -143 -76q-88 0 -136.5 51.5t-48.5 144.5v309q65 27 110 27q42 0 66 -23.5t24 -60.5v-218q0 -73 52 -73q35 0 50.5 27t15.5 103v218
q65 27 110 27z" />
    <glyph glyph-name="uni043A.loclBGR" horiz-adv-x="629" 
d="M158 780q42 0 66 -24t24 -61v-695h-200v753q65 27 110 27zM455 289l192 -271q-55 -28 -125 -28q-98 0 -134 58l-137 221l161 253l182 -28z" />
    <glyph glyph-name="uni043B.loclBGR" horiz-adv-x="553" 
d="M558 0h-219l-74 314l-84 -314h-185l167 495q41 27 110 27q107 0 135 -75z" />
    <glyph glyph-name="uni043F.loclBGR" horiz-adv-x="620" 
d="M391 522q88 0 136.5 -51t48.5 -145v-326h-200v293q0 73 -52 73q-40 0 -58 -27.5t-18 -103.5v-235h-200v495q65 27 110 27q32 0 53.5 -21.5t27.5 -56.5q55 78 152 78z" />
    <glyph glyph-name="uni0442.loclBGR" horiz-adv-x="867" 
d="M658 522q78 0 121.5 -51.5t43.5 -144.5v-326h-200v293q0 73 -34 73q-27 0 -40 -28t-13 -103v-235h-200v293q0 73 -35 73q-27 0 -40 -28t-13 -103v-235h-200v495q65 27 110 27q63 0 80 -73q49 73 133 73q90 0 133 -66q56 66 154 66z" />
    <glyph glyph-name="uni0443.ss01" horiz-adv-x="608" 
d="M472 522q42 0 65.5 -24t23.5 -60v-482q0 -93 -67.5 -144.5t-188.5 -51.5q-136 0 -256 63l63 128q83 -43 158 -43q56 0 73.5 19.5t17.5 62.5v63q-50 -63 -133 -63q-88 0 -136.5 51.5t-48.5 144.5v309q65 27 110 27q42 0 66 -23.5t24 -60.5v-218q0 -73 52 -73q35 0 50.5 27
t15.5 103v218q67 27 111 27z" />
    <glyph glyph-name="uni045E.ss01" horiz-adv-x="608" 
d="M305 577q-88 0 -137 44.5t-49 123.5h138q0 -25 13 -40t35 -15q21 0 34 15t13 40h139q0 -79 -49.5 -123.5t-136.5 -44.5zM472 522q42 0 65.5 -24t23.5 -60v-482q0 -93 -67.5 -144.5t-188.5 -51.5q-136 0 -256 63l63 128q83 -43 158 -43q56 0 73.5 19.5t17.5 62.5v63
q-50 -63 -133 -63q-88 0 -136.5 51.5t-48.5 144.5v309q65 27 110 27q42 0 66 -23.5t24 -60.5v-218q0 -73 52 -73q35 0 50.5 27t15.5 103v218q67 27 111 27z" />
    <glyph glyph-name="uni0446.loclBGR" horiz-adv-x="668" 
d="M561 146h89v-239q-65 -27 -110 -27q-42 0 -66 30t-24 77v3q-31 0 -51.5 21t-27.5 55q-52 -76 -143 -76q-88 0 -136.5 51.5t-48.5 144.5v309q65 27 110 27q42 0 66 -23.5t24 -60.5v-218q0 -73 52 -73q35 0 50.5 27t15.5 103v218q65 27 110 27q42 0 66 -23.5t24 -60.5v-292
z" />
    <glyph glyph-name="uni0448.loclBGR" horiz-adv-x="866" 
d="M729 522q42 0 66 -23.5t24 -60.5v-421q-65 -27 -110 -27q-63 0 -80 73q-49 -73 -133 -73q-89 0 -133 67q-56 -67 -155 -67q-78 0 -121.5 51.5t-43.5 144.5v309q65 27 110 27q42 0 66 -23.5t24 -60.5v-218q0 -73 35 -73q27 0 40 28t13 102v218q65 27 110 27q42 0 66 -23.5
t24 -60.5v-218q0 -73 35 -73q27 0 40 28t13 102v218q65 27 110 27z" />
    <glyph glyph-name="uni0449.loclBGR" horiz-adv-x="925" 
d="M819 146h88v-239q-65 -27 -110 -27q-42 0 -66 30t-24 77v3q-30 1 -50 20.5t-28 52.5q-49 -73 -133 -73q-89 0 -133 67q-56 -67 -155 -67q-78 0 -121.5 51.5t-43.5 144.5v309q65 27 110 27q42 0 66 -23.5t24 -60.5v-218q0 -73 35 -73q27 0 40 28t13 102v218q65 27 110 27
q42 0 66 -23.5t24 -60.5v-218q0 -73 35 -73q27 0 40 28t13 102v218q65 27 110 27q42 0 66 -23.5t24 -60.5v-292z" />
    <glyph glyph-name="uni044C.loclBGR" horiz-adv-x="535" 
d="M260 371q122 0 190 -50.5t68 -140.5t-63 -140t-177 -50q-110 0 -172.5 50.5t-62.5 139.5v315q65 27 110 27q42 0 66 -23.5t24 -60.5v-67h17zM281 124q42 0 42 48q0 30 -17 48t-46 18h-17v-58q0 -26 10.5 -41t27.5 -15z" />
    <glyph glyph-name="uni044A.loclBGR" horiz-adv-x="608" 
d="M333 371q122 0 190 -50.5t68 -140.5t-63 -140t-177 -50q-110 0 -172.5 50.5t-62.5 139.5v187h-100v145h300v-141h17zM354 124q42 0 42 48q0 30 -17 48t-46 18h-17v-58q0 -26 10.5 -41t27.5 -15z" />
    <glyph glyph-name="uni0458.ss01" horiz-adv-x="304" 
d="M155 576q-51 0 -79.5 27.5t-28.5 76.5q0 48 28.5 75t79.5 27q50 0 78.5 -27t28.5 -75q0 -49 -28.5 -76.5t-78.5 -27.5zM60 -240q94 0 145 47t51 132v573h-200v-539q0 -26 -14.5 -41t-39.5 -15q-35 0 -64 17l-25 -143q66 -31 147 -31z" />
    <glyph glyph-name="uni044E.loclBGR" horiz-adv-x="813" 
d="M525 522q122 0 191.5 -70.5t69.5 -195.5t-69.5 -195.5t-191.5 -70.5q-95 0 -156 48t-81 136h-40v-174h-200v753q65 27 110 27q42 0 66 -24t24 -61v-364h39q18 91 80 141t158 50zM525 147q28 0 43 29t15 80q0 52 -15 81t-43 29t-43 -29t-15 -81q0 -51 15 -80t43 -29z" />
    <glyph glyph-name="zero.case" horiz-adv-x="693" 
d="M346 -10q-146 0 -228.5 97.5t-82.5 272.5t82.5 272.5t228.5 97.5q147 0 229.5 -97.5t82.5 -272.5t-82.5 -272.5t-229.5 -97.5zM346 152q44 0 69.5 55.5t25.5 152.5t-25.5 152.5t-69.5 55.5t-69.5 -55.5t-25.5 -152.5t25.5 -152.5t69.5 -55.5z" />
    <glyph glyph-name="one.case" horiz-adv-x="459" 
d="M395 720v-720h-209v484l-111 -54l-79 172l236 118h163z" />
    <glyph glyph-name="two.case" horiz-adv-x="598" 
d="M234 158h328v-158h-535v88q0 47 13.5 89t30.5 69.5t49 57.5t51.5 44l56.5 39q38 25 57 39t35.5 36t16.5 45q0 61 -71 61q-69 0 -149 -58l-73 135q122 85 253 85q121 0 189 -60t68 -167q0 -40 -16.5 -74.5t-51 -64.5t-60 -47.5t-71.5 -44.5q-43 -26 -62.5 -39t-39 -34
t-19.5 -41z" />
    <glyph glyph-name="three.case" horiz-adv-x="591" 
d="M386 445q173 -65 173 -225q0 -109 -82.5 -169.5t-229.5 -60.5q-124 0 -232 58l65 143q3 -2 15.5 -7.5t15.5 -7t13.5 -6t15 -5.5t14 -4t16 -4l16 -2.5t19 -2t20.5 -0.5q55 0 86 20.5t31 56.5q0 44 -61 77.5t-189 49.5l169 206h-209v158h467v-129z" />
    <glyph glyph-name="four.case" horiz-adv-x="640" 
d="M622 294v-158h-96v-136h-209v136h-300v136l250 458l186 -50l-219 -386h88v82l204 72v-154h96z" />
    <glyph glyph-name="five.case" horiz-adv-x="629" 
d="M330 466q131 -13 203.5 -71.5t72.5 -155.5q0 -118 -84 -183.5t-233 -65.5q-69 0 -147 22t-132 61l77 137q89 -58 191 -58q52 0 81.5 20t29.5 56q0 34 -30 55.5t-83 24.5l-216 11l48 401h434v-158h-234l-17 -92z" />
    <glyph glyph-name="six.case" horiz-adv-x="651" 
d="M362 475q120 0 187 -62.5t67 -172.5q0 -117 -76.5 -183.5t-213.5 -66.5t-214 94.5t-77 265.5q0 179 92.5 279.5t254.5 100.5q112 0 217 -59l-56 -149q-57 46 -134 46q-110 0 -149 -113q43 20 102 20zM335 152q30 0 47.5 22t17.5 59q0 47 -21.5 74.5t-58.5 27.5
q-34 0 -74 -23q5 -77 28.5 -118.5t60.5 -41.5z" />
    <glyph glyph-name="seven.case" horiz-adv-x="553" 
d="M536 720v-132l-277 -617l-198 60l246 531h-286v158h515z" />
    <glyph glyph-name="eight.case" horiz-adv-x="657" 
d="M528 379q95 -59 95 -173q0 -101 -78 -158.5t-217 -57.5t-216.5 57.5t-77.5 158.5q0 114 95 173q-71 54 -71 150q0 95 71.5 148t198.5 53q128 0 199.5 -53t71.5 -148q0 -96 -71 -150zM328 568q-26 0 -41 -17t-15 -45t15 -44.5t41 -16.5t41 16.5t15 44.5t-15 45t-41 17z
M328 152q36 0 57 21t21 56t-21 56t-57 21t-57 -21t-21 -56t21 -56t57 -21z" />
    <glyph glyph-name="nine.case" horiz-adv-x="650" 
d="M324 730q138 0 214.5 -99.5t76.5 -280.5q0 -169 -92.5 -264.5t-256.5 -95.5q-112 0 -215 59l56 149q58 -46 141 -46q59 0 97.5 33t52.5 93q-46 -23 -110 -23q-120 0 -187 61t-67 169q0 114 76.5 179.5t213.5 65.5zM250 492q0 -45 21.5 -71t59.5 -26q35 0 72 23
q-7 72 -30 111t-58 39q-30 0 -47.5 -20t-17.5 -56z" />
    <glyph glyph-name="zero.lf" horiz-adv-x="693" 
d="M346 -10q-146 0 -228.5 97.5t-82.5 272.5t82.5 272.5t228.5 97.5q147 0 229.5 -97.5t82.5 -272.5t-82.5 -272.5t-229.5 -97.5zM346 152q44 0 69.5 55.5t25.5 152.5t-25.5 152.5t-69.5 55.5t-69.5 -55.5t-25.5 -152.5t25.5 -152.5t69.5 -55.5z" />
    <glyph glyph-name="one.lf" horiz-adv-x="459" 
d="M395 720v-720h-209v484l-111 -54l-79 172l236 118h163z" />
    <glyph glyph-name="two.lf" horiz-adv-x="598" 
d="M234 158h328v-158h-535v88q0 47 13.5 89t30.5 69.5t49 57.5t51.5 44l56.5 39q38 25 57 39t35.5 36t16.5 45q0 61 -71 61q-69 0 -149 -58l-73 135q122 85 253 85q121 0 189 -60t68 -167q0 -40 -16.5 -74.5t-51 -64.5t-60 -47.5t-71.5 -44.5q-43 -26 -62.5 -39t-39 -34
t-19.5 -41z" />
    <glyph glyph-name="three.lf" horiz-adv-x="591" 
d="M386 445q173 -65 173 -225q0 -109 -82.5 -169.5t-229.5 -60.5q-124 0 -232 58l65 143q3 -2 15.5 -7.5t15.5 -7t13.5 -6t15 -5.5t14 -4t16 -4l16 -2.5t19 -2t20.5 -0.5q55 0 86 20.5t31 56.5q0 44 -61 77.5t-189 49.5l169 206h-209v158h467v-129z" />
    <glyph glyph-name="four.lf" horiz-adv-x="640" 
d="M622 294v-158h-96v-136h-209v136h-300v136l250 458l186 -50l-219 -386h88v82l204 72v-154h96z" />
    <glyph glyph-name="five.lf" horiz-adv-x="629" 
d="M330 466q131 -14 203.5 -72t72.5 -155q0 -118 -84 -183.5t-233 -65.5q-69 0 -147 22t-132 61l77 137q89 -58 191 -58q52 0 81.5 20t29.5 56q0 34 -30 55.5t-83 24.5l-216 11l48 401h434v-158h-234l-17 -92z" />
    <glyph glyph-name="six.lf" horiz-adv-x="651" 
d="M362 475q120 0 187 -62.5t67 -172.5q0 -117 -76.5 -183.5t-213.5 -66.5t-214 94.5t-77 265.5q0 179 92.5 279.5t254.5 100.5q112 0 217 -59l-56 -149q-57 46 -134 46q-110 0 -149 -113q43 20 102 20zM335 152q30 0 47.5 22t17.5 59q0 47 -21.5 74.5t-58.5 27.5
q-34 0 -74 -23q5 -77 28.5 -118.5t60.5 -41.5z" />
    <glyph glyph-name="seven.lf" horiz-adv-x="553" 
d="M536 720v-132l-277 -617l-198 60l246 531h-286v158h515z" />
    <glyph glyph-name="eight.lf" horiz-adv-x="657" 
d="M528 379q95 -59 95 -173q0 -101 -78 -158.5t-217 -57.5t-216.5 57.5t-77.5 158.5q0 114 95 173q-71 54 -71 150q0 95 71.5 148t198.5 53q128 0 199.5 -53t71.5 -148q0 -96 -71 -150zM328 568q-26 0 -41 -17t-15 -45t15 -44.5t41 -16.5t41 16.5t15 44.5t-15 45t-41 17z
M328 152q36 0 57 21t21 56t-21 56t-57 21t-57 -21t-21 -56t21 -56t57 -21z" />
    <glyph glyph-name="nine.lf" horiz-adv-x="650" 
d="M324 730q138 0 214.5 -99.5t76.5 -280.5q0 -169 -92.5 -264.5t-256.5 -95.5q-112 0 -215 59l56 149q58 -46 141 -46q59 0 97.5 33t52.5 93q-46 -23 -110 -23q-120 0 -187 61t-67 169q0 114 76.5 179.5t213.5 65.5zM250 492q0 -45 21.5 -71t59.5 -26q35 0 72 23
q-7 72 -30 111t-58 39q-30 0 -47.5 -20t-17.5 -56z" />
    <glyph glyph-name="zero.osf" horiz-adv-x="650" 
d="M325 -10q-139 0 -215.5 84.5t-76.5 236.5t76.5 236.5t215.5 84.5q138 0 215 -84.5t77 -236.5t-77 -236.5t-215 -84.5zM325 147q41 0 64.5 43.5t23.5 120.5q0 78 -23.5 121.5t-64.5 43.5q-42 0 -65.5 -43.5t-23.5 -121.5q0 -77 23.5 -120.5t65.5 -43.5z" />
    <glyph glyph-name="one.osf" horiz-adv-x="443" 
d="M386 622v-622h-200v407l-111 -56l-79 153l227 118h163z" />
    <glyph glyph-name="two.osf" horiz-adv-x="595" 
d="M232 148h331v-148h-536v100q0 29 12.5 56.5t27.5 46.5t46 42t49 34t55 32q43 24 64.5 38t41.5 35.5t20 42.5q0 49 -77 49q-68 0 -149 -59l-73 130q120 85 253 85q117 0 183 -52.5t66 -146.5q0 -40 -19 -74.5t-56.5 -63.5t-67 -47t-75.5 -41q-81 -42 -96 -59z" />
    <glyph glyph-name="three.osf" horiz-adv-x="578" 
d="M372 330q176 -60 176 -220q0 -109 -78.5 -169.5t-219.5 -60.5q-123 0 -241 62l74 134q3 -2 15.5 -7.5t15.5 -7t13.5 -6t15 -5.5t14 -4t16 -4l16 -2.5t19 -2t20.5 -0.5q55 0 86 22.5t31 60.5q0 94 -243 126l170 228h-218v148h461v-120z" />
    <glyph glyph-name="four.osf" horiz-adv-x="637" 
d="M624 148v-148h-96v-110h-200v110h-309v133l256 499l180 -50l-230 -434h108v99l195 72v-171h96z" />
    <glyph glyph-name="five.osf" horiz-adv-x="608" 
d="M326 361q124 -13 192 -73.5t68 -161.5q0 -117 -79 -181.5t-222 -64.5q-69 0 -147 22t-132 61l77 132q89 -58 191 -58q52 0 81.5 23t29.5 65q0 38 -30 61.5t-83 26.5l-216 11l48 398h434v-148h-241l-18 -108z" />
    <glyph glyph-name="six.osf" horiz-adv-x="630" 
d="M351 475q116 0 181 -63.5t65 -174.5q0 -116 -74 -181.5t-207 -65.5q-134 0 -208.5 94.5t-74.5 265.5q0 179 90 279.5t248 100.5q111 0 218 -59l-57 -144q-57 46 -134 46q-56 0 -96 -31t-58 -89q47 22 107 22zM325 147q31 0 50 22t19 61q0 51 -23 80.5t-62 29.5
q-41 0 -78 -25q4 -79 29 -123.5t65 -44.5z" />
    <glyph glyph-name="seven.osf" horiz-adv-x="552" 
d="M534 622v-122l-277 -639l-186 60l246 553h-298v148h515z" />
    <glyph glyph-name="eight.osf" horiz-adv-x="638" 
d="M514 379q93 -59 93 -172q0 -102 -76.5 -159.5t-211.5 -57.5t-211.5 57.5t-76.5 159.5q0 113 93 172q-69 54 -69 147q0 96 70 150t194 54t194 -54t70 -150q0 -93 -69 -147zM319 573q-29 0 -46 -17.5t-17 -48.5t17 -48t46 -17t46 17.5t17 47.5q0 31 -17 48.5t-46 17.5z
M319 147q39 0 61.5 21.5t22.5 57.5q0 38 -22.5 60.5t-61.5 22.5q-40 0 -62.5 -22.5t-22.5 -60.5q0 -36 22.5 -57.5t62.5 -21.5z" />
    <glyph glyph-name="nine.osf" horiz-adv-x="630" 
d="M314 632q134 0 208.5 -97.5t74.5 -274.5q0 -179 -90 -279.5t-248 -100.5q-113 0 -218 59l57 144q57 -46 134 -46q56 0 96 31t58 89q-47 -22 -107 -22q-116 0 -181 65t-65 179q0 113 75 183t206 70zM236 386q0 -53 23 -84.5t62 -31.5q36 0 78 26q-4 85 -29 132.5t-65 47.5
q-32 0 -50.5 -24t-18.5 -66z" />
    <glyph glyph-name="zero.dnom" horiz-adv-x="435" 
d="M217 -6q-90 0 -141.5 58.5t-51.5 163.5t51.5 163.5t141.5 58.5q91 0 142.5 -58.5t51.5 -163.5t-51.5 -163.5t-142.5 -58.5zM217 103q46 0 46 113t-46 113t-46 -113t46 -113z" />
    <glyph glyph-name="one.dnom" horiz-adv-x="298" 
d="M259 432v-432h-139v272l-67 -31l-53 115l151 76h108z" />
    <glyph glyph-name="two.dnom" horiz-adv-x="377" 
d="M158 106h194v-106h-333v58q0 36 10.5 65t32 51.5t37 34t42.5 28.5q23 15 31 21t18 17.5t10 23.5q0 30 -35 30q-37 0 -87 -34l-48 91q71 52 157 52q76 0 118 -38t42 -105q0 -23 -10 -43t-32 -37.5t-36 -26.5t-43 -25l-27.5 -15t-19.5 -12.5t-16.5 -15t-4.5 -14.5z" />
    <glyph glyph-name="three.dnom" horiz-adv-x="371" 
d="M254 268q95 -41 95 -133q0 -64 -52.5 -102.5t-142.5 -38.5q-73 0 -142 33l44 97q36 -21 84 -21q29 0 45.5 10.5t16.5 28.5q0 22 -36 40.5t-110 24.5l95 119h-117v106h291v-86z" />
    <glyph glyph-name="four.dnom" horiz-adv-x="403" 
d="M388 182v-106h-56v-76h-142v76h-176v92l146 270l122 -34l-127 -222h43v34l134 50v-84h56z" />
    <glyph glyph-name="five.dnom" horiz-adv-x="398" 
d="M211 285q80 -7 124 -43t44 -94q0 -73 -51.5 -113.5t-144.5 -40.5q-42 0 -92 14t-83 37l51 92q56 -34 116 -34t60 36q0 16 -16.5 27t-44.5 12l-134 7l29 247h271v-106h-136l-8 -40z" />
    <glyph glyph-name="six.dnom" horiz-adv-x="408" 
d="M230 287q74 0 114.5 -37.5t40.5 -104.5q0 -71 -47 -111t-133 -40q-85 0 -133 57t-48 159q0 107 58 167.5t159 60.5q68 0 135 -35l-37 -101q-33 27 -78 27q-59 0 -83 -52q27 10 52 10zM211 103q29 0 29 39q0 24 -10.5 39t-29.5 15q-15 0 -33 -6q5 -87 44 -87z" />
    <glyph glyph-name="seven.dnom" horiz-adv-x="350" 
d="M335 432v-90l-163 -359l-134 41l142 302h-163v106h318z" />
    <glyph glyph-name="eight.dnom" horiz-adv-x="412" 
d="M334 227q55 -34 55 -102q0 -62 -48.5 -96.5t-134.5 -34.5q-87 0 -135 34.5t-48 96.5q0 68 54 102q-40 32 -40 89q0 58 44 90t125 32q80 0 124.5 -32t44.5 -90q0 -57 -41 -89zM206 333q-14 0 -23 -9t-9 -24q0 -31 32 -31q13 0 22.5 8.5t9.5 22.5q0 15 -9.5 24t-22.5 9z
M206 101q18 0 30 11t12 29t-12 29.5t-30 11.5q-42 0 -42 -41q0 -40 42 -40z" />
    <glyph glyph-name="nine.dnom" horiz-adv-x="408" 
d="M205 438q86 0 132.5 -60t46.5 -168q0 -102 -57.5 -159t-159.5 -57q-67 0 -134 35l39 101q30 -27 82 -27q65 0 84 62q-30 -14 -60 -14q-73 0 -114 37t-41 102q0 68 48.5 108t133.5 40zM170 293q0 -23 10 -37t28 -14q16 0 34 6q-8 81 -45 81q-12 0 -19.5 -9.5t-7.5 -26.5z
" />
    <glyph glyph-name="zero.numr" horiz-adv-x="435" 
d="M217 282q-90 0 -141.5 58.5t-51.5 163.5t51.5 163.5t141.5 58.5q91 0 142.5 -58.5t51.5 -163.5t-51.5 -163.5t-142.5 -58.5zM217 391q46 0 46 113t-46 113t-46 -113t46 -113z" />
    <glyph glyph-name="one.numr" horiz-adv-x="298" 
d="M259 720v-432h-139v272l-67 -31l-53 115l151 76h108z" />
    <glyph glyph-name="two.numr" horiz-adv-x="377" 
d="M158 394h194v-106h-333v58q0 36 10.5 65t32 51.5t37 34t42.5 28.5q23 15 31 21t18 17.5t10 23.5q0 30 -35 30q-37 0 -87 -34l-48 91q71 52 157 52q76 0 118 -38t42 -105q0 -23 -10 -43t-32 -37.5t-36 -26.5t-43 -25l-27.5 -15t-19.5 -12.5t-16.5 -15t-4.5 -14.5z" />
    <glyph glyph-name="three.numr" horiz-adv-x="371" 
d="M254 556q95 -41 95 -133q0 -64 -52.5 -102.5t-142.5 -38.5q-73 0 -142 33l44 97q36 -21 84 -21q29 0 45.5 10.5t16.5 28.5q0 22 -36 40.5t-110 24.5l95 119h-117v106h291v-86z" />
    <glyph glyph-name="four.numr" horiz-adv-x="403" 
d="M388 470v-106h-56v-76h-142v76h-176v92l146 270l122 -34l-127 -222h43v34l134 50v-84h56z" />
    <glyph glyph-name="five.numr" horiz-adv-x="398" 
d="M211 573q80 -7 124 -43t44 -94q0 -73 -51.5 -113.5t-144.5 -40.5q-42 0 -92 14t-83 37l51 92q56 -34 116 -34t60 36q0 16 -16.5 27t-44.5 12l-134 7l29 247h271v-106h-136l-8 -40z" />
    <glyph glyph-name="six.numr" horiz-adv-x="408" 
d="M230 575q74 0 114.5 -37.5t40.5 -104.5q0 -71 -47 -111t-133 -40q-85 0 -133 57t-48 159q0 107 58 167.5t159 60.5q68 0 135 -35l-37 -101q-33 27 -78 27q-59 0 -83 -52q27 10 52 10zM211 391q29 0 29 39q0 24 -10.5 39t-29.5 15q-15 0 -33 -6q5 -87 44 -87z" />
    <glyph glyph-name="seven.numr" horiz-adv-x="350" 
d="M335 720v-90l-163 -359l-134 41l142 302h-163v106h318z" />
    <glyph glyph-name="eight.numr" horiz-adv-x="412" 
d="M334 515q55 -34 55 -102q0 -62 -48.5 -96.5t-134.5 -34.5q-87 0 -135 34.5t-48 96.5q0 68 54 102q-40 32 -40 89q0 58 44 90t125 32q80 0 124.5 -32t44.5 -90q0 -57 -41 -89zM206 621q-14 0 -23 -9t-9 -24q0 -31 32 -31q13 0 22.5 8.5t9.5 22.5q0 15 -9.5 24t-22.5 9z
M206 389q18 0 30 11t12 29t-12 29.5t-30 11.5q-42 0 -42 -41q0 -40 42 -40z" />
    <glyph glyph-name="nine.numr" horiz-adv-x="408" 
d="M205 726q86 0 132.5 -60t46.5 -168q0 -102 -57.5 -159t-159.5 -57q-67 0 -134 35l39 101q30 -27 82 -27q65 0 84 62q-30 -14 -60 -14q-73 0 -114 37t-41 102q0 68 48.5 108t133.5 40zM170 581q0 -23 10 -37t28 -14q16 0 34 6q-8 81 -45 81q-12 0 -19.5 -9.5t-7.5 -26.5z
" />
    <glyph glyph-name="backslash.case" horiz-adv-x="383" 
d="M152 730l206 -701l-128 -39l-205 701z" />
    <glyph glyph-name="exclamdown.case" horiz-adv-x="330" 
d="M281 617q0 -52 -31 -82t-85 -30q-55 0 -86 30t-31 82q0 53 31 83t86 30q54 0 85 -30t31 -83zM262 443h-194l-5 -443h204z" />
    <glyph glyph-name="numbersign.case" horiz-adv-x="853" 
d="M804 430h-93l-15 -131h96l-17 -155h-97l-16 -144h-206l16 144h-143l-16 -144h-206l17 144h-93l17 155h94l16 131h-95l17 154h96l16 136h206l-18 -136h143l15 136h206l-15 -136h92zM342 293h149l16 141h-148z" />
    <glyph glyph-name="questiondown.case" horiz-adv-x="543" 
d="M312 730q55 0 86 -30t31 -83q0 -52 -31 -82t-86 -30q-54 0 -85 30t-31 82q0 53 31 83t85 30zM519 75q-52 -42 -116 -63.5t-118 -21.5q-119 0 -187.5 54.5t-68.5 144.5q0 33 10.5 61.5t33.5 53t38 37.5t44 35q22 16 32 24.5t19.5 20.5t9.5 22h194q0 -33 -9 -60.5
t-28.5 -49.5t-33 -34t-38.5 -31l-29 -23.5t-18 -20t-9 -24.5q0 -48 72 -48q58 0 129 58z" />
    <glyph glyph-name="slash.case" horiz-adv-x="383" 
d="M231 730l127 -39l-205 -701l-128 39z" />
    <glyph glyph-name="numbersign.lf" horiz-adv-x="853" 
d="M804 430h-93l-15 -131h96l-17 -155h-97l-16 -144h-206l16 144h-143l-16 -144h-206l17 144h-93l17 155h94l16 131h-95l17 154h96l16 136h206l-18 -136h143l15 136h206l-15 -136h92zM342 293h149l16 141h-148z" />
    <glyph glyph-name="braceleft.case" horiz-adv-x="381" 
d="M300 182q0 -85 52 -100l-97 -142q-77 28 -120 76t-43 133v82q0 22 -16.5 35.5t-44.5 13.5v162q28 0 44.5 13t16.5 35v81q0 85 43 133t120 76l97 -142q-52 -15 -52 -100v-63q0 -73 -64 -114q64 -43 64 -115v-64z" />
    <glyph glyph-name="braceright.case" horiz-adv-x="381" 
d="M289 490q0 -22 16.5 -35t44.5 -13v-162q-28 0 -44.5 -13.5t-16.5 -35.5v-82q0 -85 -43 -133t-120 -76l-97 142q52 15 52 100v64q0 72 64 115q-64 41 -64 114v63q0 85 -52 100l97 142q77 -28 120 -76t43 -133v-81z" />
    <glyph glyph-name="bracketleft.case" horiz-adv-x="416" 
d="M376 612h-103v-504h103v-158h-312v820h312v-158z" />
    <glyph glyph-name="bracketright.case" horiz-adv-x="416" 
d="M352 770v-820h-312v158h103v504h-103v158h312z" />
    <glyph glyph-name="parenleft.case" horiz-adv-x="373" 
d="M349 10q-50 68 -74.5 164.5t-24.5 189.5q0 92 24 185t75 161l-163 70q-76 -88 -114 -197.5t-38 -222.5t38 -222.5t114 -197.5z" />
    <glyph glyph-name="parenright.case" horiz-adv-x="373" 
d="M24 10l163 -70q76 88 114 197.5t38 222.5t-38 222.5t-114 197.5l-163 -70q51 -68 75 -161t24 -185q0 -93 -24.5 -189.5t-74.5 -164.5z" />
    <glyph glyph-name="emdash.case" horiz-adv-x="927" 
d="M52 443h823v-166h-823v166z" />
    <glyph glyph-name="endash.case" horiz-adv-x="641" 
d="M52 443h537v-166h-537v166z" />
    <glyph glyph-name="hyphen.case" horiz-adv-x="456" 
d="M52 443h352v-166h-352v166z" />
    <glyph glyph-name="uni00AD.case" horiz-adv-x="456" 
d="M52 443h352v-166h-352v166z" />
    <glyph glyph-name="guillemotleft.case" horiz-adv-x="640" 
d="M29 350l166 262l145 -85l-101 -177l101 -177l-145 -85zM291 350l166 262l145 -85l-101 -177l101 -177l-145 -85z" />
    <glyph glyph-name="guillemotright.case" horiz-adv-x="640" 
d="M349 350l-166 -262l-145 85l101 177l-101 177l145 85zM611 350l-166 -262l-145 85l101 177l-101 177l145 85z" />
    <glyph glyph-name="guilsinglleft.case" horiz-adv-x="378" 
d="M29 350l166 262l145 -85l-101 -177l101 -177l-145 -85z" />
    <glyph glyph-name="guilsinglright.case" horiz-adv-x="378" 
d="M349 350l-166 -262l-145 85l101 177l-101 177l145 85z" />
    <glyph glyph-name="dollar.case" horiz-adv-x="628" 
d="M599 235q0 -99 -60 -161t-171 -79v-107h-88v102q-145 3 -250 81l64 143q75 -55 186 -61v112q-124 42 -178 99t-54 149t61 149t171 66v102h88v-102q115 -12 203 -71l-87 -138q-55 36 -116 46v-87q127 -42 179 -95.5t52 -147.5zM231 535q0 -14 10 -22.5t39 -16.5v71
q-49 -6 -49 -32zM368 156q50 9 50 45q0 28 -50 46v-91z" />
    <glyph glyph-name="Euro.case" horiz-adv-x="754" 
d="M641 204l86 -133q-51 -40 -116 -60.5t-117 -20.5q-139 0 -231.5 60.5t-127.5 171.5h-99v112h80v39h-80v112h95q32 118 126 181.5t237 63.5q110 0 217 -56l-79 -133q-71 27 -138 27q-89 0 -133 -75h229l-67 -120h-192v-31h176l-67 -120h-76q44 -70 130 -70q66 0 147 52z
" />
    <glyph glyph-name="uni20BD.case" horiz-adv-x="746" 
d="M409 252h-67v-36h154v-120h-154v-96h-209v96h-85v120h85v36h-85v158h85v310q113 10 277 10q145 0 227 -62.5t82 -173.5q0 -114 -81.5 -178t-228.5 -64zM342 571v-161h65q47 0 71.5 22t24.5 62q0 36 -25 57t-70 21q-40 0 -66 -1z" />
    <glyph glyph-name="uni20B9.case" horiz-adv-x="654" 
d="M623 601h-94q21 -24 29 -49h65v-120h-71q-27 -68 -105 -104q127 -48 127 -162v-58q0 -63 21 -91q-67 -27 -119 -27q-51 0 -81 29.5t-30 77.5v61q0 47 -28 73.5t-73 26.5h-214v120h194q74 0 96 54h-290v120h286q-26 49 -103 49h-183v119h573v-119z" />
    <glyph glyph-name="sterling.case" horiz-adv-x="598" 
d="M322 225q0 -33 -11 -61h246v-164h-514v156h18q25 0 38.5 27.5t13.5 77.5v25h-67v165h67v70q0 99 66 154t184 55q123 0 201 -43l-25 -147q-19 10 -57 19t-68 9q-46 0 -69 -21.5t-23 -58.5v-37h172v-165h-172v-61z" />
    <glyph glyph-name="yen.case" horiz-adv-x="705" 
d="M684 698l-205 -387h97v-165h-117v-146h-209v146h-122v165h100l-206 387q42 32 115 32q60 0 93.5 -15t49.5 -53l60 -138l34 -88l32 92l86 202z" />
    <glyph glyph-name="dollar.lf" horiz-adv-x="628" 
d="M599 235q0 -99 -60 -161t-171 -79v-107h-88v102q-145 3 -250 81l64 143q75 -55 186 -61v112q-124 42 -178 99t-54 149t61 149t171 66v102h88v-102q115 -12 203 -71l-87 -138q-55 36 -116 46v-87q127 -42 179 -95.5t52 -147.5zM231 535q0 -14 10 -22.5t39 -16.5v71
q-49 -6 -49 -32zM368 156q50 9 50 45q0 28 -50 46v-91z" />
    <glyph glyph-name="Euro.lf" horiz-adv-x="754" 
d="M641 204l86 -133q-51 -40 -116 -60.5t-117 -20.5q-139 0 -231.5 60.5t-127.5 171.5h-99v112h80v39h-80v112h95q32 118 126 181.5t237 63.5q110 0 217 -56l-79 -133q-71 27 -138 27q-89 0 -133 -75h229l-67 -120h-192v-31h176l-67 -120h-76q44 -70 130 -70q66 0 147 52z
" />
    <glyph glyph-name="uni20BD.lf" horiz-adv-x="746" 
d="M409 252h-67v-36h154v-120h-154v-96h-209v96h-85v120h85v36h-85v158h85v310q113 10 277 10q145 0 227 -62.5t82 -173.5q0 -114 -81.5 -178t-228.5 -64zM342 571v-161h65q47 0 71.5 22t24.5 62q0 36 -25 57t-70 21q-40 0 -66 -1z" />
    <glyph glyph-name="uni20B9.lf" horiz-adv-x="654" 
d="M623 601h-94q21 -24 29 -49h65v-120h-71q-27 -68 -105 -104q127 -48 127 -162v-58q0 -63 21 -91q-67 -27 -119 -27q-51 0 -81 29.5t-30 77.5v61q0 47 -28 73.5t-73 26.5h-214v120h194q74 0 96 54h-290v120h286q-26 49 -103 49h-183v119h573v-119z" />
    <glyph glyph-name="sterling.lf" horiz-adv-x="598" 
d="M322 225q0 -33 -11 -61h246v-164h-514v156h18q25 0 38.5 27.5t13.5 77.5v25h-67v165h67v70q0 99 66 154t184 55q123 0 201 -43l-25 -147q-19 10 -57 19t-68 9q-46 0 -69 -21.5t-23 -58.5v-37h172v-165h-172v-61z" />
    <glyph glyph-name="yen.lf" horiz-adv-x="705" 
d="M684 698l-205 -387h97v-165h-117v-146h-209v146h-122v165h100l-206 387q42 32 115 32q60 0 93.5 -15t49.5 -53l60 -138l34 -88l32 92l86 202z" />
    <glyph glyph-name="divide.case" horiz-adv-x="510" 
d="M255 451q-51 0 -79.5 27.5t-28.5 76.5q0 48 28.5 75t79.5 27q50 0 78.5 -27t28.5 -75q0 -49 -28.5 -76.5t-78.5 -27.5zM30 426h450v-148h-450v148zM255 47q-51 0 -79.5 27.5t-28.5 76.5q0 48 28.5 75t79.5 27q50 0 78.5 -27t28.5 -75q0 -49 -28.5 -76.5t-78.5 -27.5z" />
    <glyph glyph-name="equal.case" horiz-adv-x="552" 
d="M51 531h450v-148h-450v148zM51 321h450v-148h-450v148z" />
    <glyph glyph-name="greater.case" horiz-adv-x="541" 
d="M61 598l450 -178v-135l-450 -177v157l272 88l-272 88v157z" />
    <glyph glyph-name="greaterequal.case" horiz-adv-x="563" 
d="M61 617l450 -111v-136l-450 -111v148l212 31l-212 32v147zM61 100v148h450v-148h-450z" />
    <glyph glyph-name="less.case" horiz-adv-x="541" 
d="M480 598v-157l-272 -88l272 -88v-157l-450 177v135z" />
    <glyph glyph-name="lessequal.case" horiz-adv-x="563" 
d="M502 617v-147l-212 -32l212 -31v-148l-450 111v136zM52 100v148h450v-148h-450z" />
    <glyph glyph-name="logicalnot.case" horiz-adv-x="539" 
d="M35 508h450v-300h-200v152h-250v148z" />
    <glyph glyph-name="minus.case" horiz-adv-x="552" 
d="M51 426h450v-148h-450v148z" />
    <glyph glyph-name="multiply.case" horiz-adv-x="545" 
d="M508 465l-105 -105l105 -106l-130 -130l-105 105l-105 -105l-131 130l106 106l-106 105l131 130l105 -105l105 105z" />
    <glyph glyph-name="notequal.case" horiz-adv-x="552" 
d="M501 383h-186l-18 -62h204v-148h-247l-21 -73h-64l21 73h-139v148h182l18 62h-200v148h243l24 81h64l-24 -81h143v-148z" />
    <glyph glyph-name="percent.case" horiz-adv-x="836" 
d="M198 360q-80 0 -125 49t-45 136t45 136t125 49t125.5 -49t45.5 -136t-45.5 -136t-125.5 -49zM133 54l458 676l109 -64l-458 -676zM199 469q29 0 29 76t-29 76q-30 0 -30 -76t30 -76zM638 -10q-80 0 -125 49t-45 136t45 136t125 49t125.5 -49t45.5 -136t-45.5 -136
t-125.5 -49zM638 99q29 0 29 76t-29 76q-30 0 -30 -76t30 -76z" />
    <glyph glyph-name="perthousand.case" horiz-adv-x="1195" 
d="M198 360q-80 0 -125 49t-45 136t45 136t125 49t125.5 -49t45.5 -136t-45.5 -136t-125.5 -49zM133 54l458 676l109 -64l-458 -676zM199 469q29 0 29 76t-29 76q-30 0 -30 -76t30 -76zM638 -10q-80 0 -125 49t-45 136t45 136t125 49t125.5 -49t45.5 -136t-45.5 -136
t-125.5 -49zM998 -10q-80 0 -125 49t-45 136t45 136t125 49t125.5 -49t45.5 -136t-45.5 -136t-125.5 -49zM638 99q29 0 29 76t-29 76q-30 0 -30 -76t30 -76zM999 99q29 0 29 76t-29 76q-13 0 -21.5 -20t-8.5 -56t8.5 -56t21.5 -20z" />
    <glyph glyph-name="plus.case" horiz-adv-x="520" 
d="M485 426v-148h-127v-151h-197l-1 151h-125v148h125l-1 151h200v-151h126z" />
    <glyph glyph-name="plusminus.case" horiz-adv-x="564" 
d="M381 533h126v-148h-127v-83h-197l-1 83h-125v148h125l-1 84h200v-84zM57 100v148h450v-148h-450z" />
    <glyph glyph-name="brevecombcy" horiz-adv-x="0" 
d="M-7 745q0 -79 -49.5 -123.5t-136.5 -44.5q-88 0 -137 44.5t-49 123.5h138q0 -25 13 -40t35 -15q21 0 34 15t13 40h139z" />
    <glyph glyph-name="brevecy" horiz-adv-x="387" 
d="M380 745q0 -79 -49.5 -123.5t-136.5 -44.5q-88 0 -137 44.5t-49 123.5h138q0 -25 13 -40t35 -15q21 0 34 15t13 40h139z" />
    </font>
</defs>
</svg>
