<svg class="svg-sprites" id="skin-sprite" width="0" height="0" style="position:absolute">
    <symbol viewBox="0 0 588.09 238.72" id="logo" xmlns="http://www.w3.org/2000/svg"><g data-name="Camada 2"><g data-name="Layer 1" fill="#ca4975"><path d="M358.49 67.22a29.09 29.09 0 0010.11-21.81 26.38 26.38 0 00-26.66-26.67c-13.52 0-25.22 9-39.55 23.78l-1-1.07C278.75 16.48 263.8 0 245.5 0a26.38 26.38 0 00-26.67 26.66 29.11 29.11 0 0010.11 21.82 29.09 29.09 0 00-10.11 21.81A26.37 26.37 0 00245.5 97c13.51 0 25.22-9 39.54-23.77l1 1.07c22.66 25 37.62 41.45 55.92 41.45A26.38 26.38 0 00368.6 89a29.11 29.11 0 00-10.11-21.78zm-91.94 12c-8 6.55-14.52 9.47-21.05 9.47a18.07 18.07 0 01-18.36-18.35 20.68 20.68 0 017.2-15.5l1.37-1.17 6.93-5.14-6.93-5.15-1.37-1.17a20.66 20.66 0 01-7.2-15.5 18.07 18.07 0 0118.36-18.4c6.53 0 13 2.92 21.05 9.48C274.92 24.63 284.34 35 295.23 47l1.31 1.45-1.31 1.44c-10.89 12.11-20.3 22.43-28.68 29.28zM355 102.1a18.3 18.3 0 01-13.06 5.29c-6.54 0-13-2.92-21.06-9.48-8.37-6.84-17.78-17.21-28.68-29.21l-1.31-1.45 1.31-1.44c10.9-12 20.31-22.37 28.68-29.22 8-6.55 14.52-9.47 21.06-9.47a18.05 18.05 0 0118.35 18.35 20.68 20.68 0 01-7.2 15.5l-1.37 1.17-6.93 5.14 6.93 5.15 1.37 1.17a20.66 20.66 0 017.2 15.5 18.3 18.3 0 01-5.29 13z"/><circle cx="302.39" cy="15.29" r="6.21"/><path d="M42.59 153.16l-12.94 44.56A4.5 4.5 0 0125.3 201a4.38 4.38 0 01-4.22-3L.42 141.36a5.55 5.55 0 01-.42-2 4.44 4.44 0 014.5-4.49 4.37 4.37 0 014.21 2.95L25 184.37l13.35-46.52a4.49 4.49 0 018.43 0l13.35 46.52 16.31-46.52a4.37 4.37 0 014.21-2.95 4.44 4.44 0 014.5 4.49 5.55 5.55 0 01-.42 2L64.09 198a4.38 4.38 0 01-4.22 3 4.5 4.5 0 01-4.35-3.23zM149.39 167.78c0 23.05-11.24 33.87-29.52 33.87s-29.51-10.82-29.51-33.87 11.38-33.73 29.51-33.73c18.28 0 29.52 10.68 29.52 33.73zm-9.14 0c0-17.71-7.45-25.58-20.38-25.58s-20.38 7.87-20.38 25.58c0 18 7.45 25.72 20.38 25.72s20.38-7.73 20.38-25.72zM210.65 118a4.62 4.62 0 00-4.49 4.5v74a4.52 4.52 0 004.49 4.5 4.63 4.63 0 004.5-4.5v-74a4.53 4.53 0 00-4.5-4.5zM280.08 143.19v-20.71a4.5 4.5 0 119 0V174c0 18.55-11.52 27.68-27.54 27.68-18.13 0-28.81-10.82-28.81-33.87s10.11-33.73 28.24-33.73c9.03-.03 15.88 4.61 19.11 9.11zm0 11.38s-5.34-12.37-18.55-12.37c-12.79 0-19.82 8.3-19.82 25.58 0 17.57 6.89 25.72 19.82 25.72 10.82 0 18.55-6.18 18.55-19.53zM171 142.13c6.64-5.88 11.66-7.8 21.36-7.8a4.36 4.36 0 010 8.72c-12.94 0-19.54 9-19.54 21.92v31.48a4.5 4.5 0 01-9 0v-39.81c.59-8.35 7.18-14.51 7.18-14.51zM426.59 115.7a4.63 4.63 0 00-4.5 4.5v76.25a4.52 4.52 0 004.49 4.5 4.63 4.63 0 004.5-4.5V120.2a4.52 4.52 0 00-4.49-4.5zM327.81 134.05c12.51 0 19.4 6.61 21.65 9.7a4.19 4.19 0 011 2.67 4 4 0 01-4.08 4.08 4.2 4.2 0 01-3.37-1.69c-2.11-2.39-5.9-6.61-15.18-6.61-12.93 0-19.81 8.3-19.81 25.58 0 17.57 6.88 25.72 19.81 25.72 8.15 0 13.07-3.65 16.31-6a4.19 4.19 0 012.67-1 4.07 4.07 0 014.07 4.07 4.36 4.36 0 01-1.82 3.51 32.08 32.08 0 01-21.23 7.59c-18.13 0-28.95-10.82-28.95-33.87s10.8-33.75 28.93-33.75zM415.31 167.78c0 23.05-11.25 33.87-29.52 33.87s-29.51-10.82-29.51-33.87 11.38-33.73 29.51-33.73 29.52 10.68 29.52 33.73zm-9.14 0c0-17.71-7.45-25.58-20.38-25.58s-20.38 7.87-20.38 25.58c0 18 7.45 25.72 20.38 25.72s20.38-7.73 20.38-25.72zM498.3 167.78c0 23.05-11.25 33.87-29.52 33.87s-29.51-10.82-29.51-33.87 11.38-33.73 29.51-33.73 29.52 10.68 29.52 33.73zm-9.14 0c0-17.71-7.45-25.58-20.38-25.58s-20.38 7.87-20.38 25.58c0 18 7.45 25.72 20.38 25.72s20.38-7.73 20.38-25.72zM512.69 142.13c6.64-5.88 11.66-7.8 21.35-7.8a4.36 4.36 0 110 8.72c-12.93 0-19.53 9-19.53 21.92v31.48a4.5 4.5 0 11-9 0v-39.81c.56-8.35 7.18-14.51 7.18-14.51zM551.13 151.2c0 14.76 37 9.27 37 31.76 0 12.79-10.54 18.55-23.89 18.55-11.53 0-20.38-5.48-24-10.12a4.19 4.19 0 01-1-2.67 4.08 4.08 0 014.08-4.07 4.33 4.33 0 013.09 1.4c4.36 4.36 10 6.89 17.85 6.89s14.89-2.67 14.89-10c0-14.47-37-8.71-37-31.76 0-11.67 9.56-17 21.51-17 9.55 0 17 3.23 21.36 9a4.26 4.26 0 011 2.67 4.07 4.07 0 01-4.07 4.07 4 4 0 01-3-1.26c-3.79-3.66-8-5.9-15.31-5.9-6.33.01-12.51 1.97-12.51 8.44zM161.43 217.25c0-.78.38-1.08 1-1.08s1 .3 1 1.08a1 1 0 01-2.06 0zm1.89 15.39a.86.86 0 11-1.72 0v-11a.86.86 0 011.72 0zM173.42 233l-4.59-10.9a.94.94 0 01-.08-.38.84.84 0 01.86-.86.81.81 0 01.81.56l3.81 9.32 3.8-9.32a.82.82 0 01.81-.56.85.85 0 01.87.86 1.15 1.15 0 01-.08.38L175 233a.88.88 0 01-1.62 0zM201.19 220.65c4.32 0 5.15 3.43 5.15 5.27 0 .78 0 1.73-1.08 1.73h-7.88c0 2.67 1.54 4.4 4.08 4.4a5 5 0 003.24-1.16.74.74 0 01.48-.17.79.79 0 01.78.79.82.82 0 01-.29.62 6.05 6.05 0 01-4.21 1.51c-3.6 0-5.84-2-5.84-6.51 0-4.13 2.06-6.48 5.57-6.48zm0 1.57c-2.35 0-3.65 1.51-3.81 3.91h7.26c0-1.94-.64-3.91-3.45-3.91zM223.22 222.22a5.24 5.24 0 014.09-1.57c3.51 0 5.64 2.06 5.64 6.48s-2.13 6.51-5.64 6.51a4.29 4.29 0 01-3.67-1.89v6.1a.87.87 0 11-1.73 0v-12.24a6 6 0 011.31-3.39zm4.09 9.85c2.48 0 3.89-1.56 3.89-4.94s-1.46-4.91-3.95-4.91c-2 0-3.67 1.4-3.67 4.91s1.62 4.94 3.73 4.94zM240.26 223.65a.88.88 0 01-.7.38.79.79 0 01-.79-.78.84.84 0 01.14-.46 5 5 0 014.48-2.14c3.13 0 4.86 1.84 4.86 4.59v4.4c0 2.86-3.78 4-5.53 4-2.86 0-4.67-1.38-4.67-3.86s1.81-3.81 4.72-3.81h3.81v-.73a2.86 2.86 0 00-3.19-3 3.75 3.75 0 00-3.13 1.41zm6.32 5v-1.14h-3.81c-1.75 0-3 .73-3 2.3 0 1.4 1 2.29 3.08 2.29a3.43 3.43 0 003.73-3.48zM293 224c0 2.83 7.1 1.78 7.1 6.1 0 2.46-2 3.56-4.59 3.56a6.06 6.06 0 01-4.61-1.94.77.77 0 01-.19-.51.78.78 0 01.78-.79.88.88 0 01.6.27 4.54 4.54 0 003.42 1.33c1.54 0 2.87-.52 2.87-1.92 0-2.78-7.1-1.67-7.1-6.1 0-2.24 1.83-3.27 4.13-3.27a4.93 4.93 0 014.1 1.73.83.83 0 01.19.51.78.78 0 01-.78.78.74.74 0 01-.57-.24 3.84 3.84 0 00-2.94-1.13c-1.26-.05-2.41.33-2.41 1.62zM311 220.65c4.32 0 5.16 3.43 5.16 5.27 0 .78 0 1.73-1.08 1.73h-7.88c0 2.67 1.54 4.4 4.07 4.4a5 5 0 003.24-1.16.77.77 0 01.49-.17.79.79 0 01.78.79.82.82 0 01-.29.62 6.06 6.06 0 01-4.22 1.51c-3.59 0-5.83-2-5.83-6.51-.04-4.13 2.01-6.48 5.56-6.48zm0 1.57c-2.34 0-3.64 1.51-3.8 3.91h7.26c-.04-1.94-.71-3.91-3.46-3.91zM361.84 225.43v7.21a.87.87 0 01-1.73 0v-6.86c0-2.13-.75-3.59-3.37-3.59-2.33 0-3.38 1.25-3.38 3.24v7.21a.87.87 0 01-1.73 0v-6.86c0-2.13-.67-3.59-3.32-3.59S345 223.7 345 226v6.67a.86.86 0 01-1.72 0V225c0-3.6 3.48-4.36 5.23-4.36 2.22 0 3.65.81 4.29 1.89a4.34 4.34 0 013.95-1.89c4.14.01 5.09 2.5 5.09 4.79zM373.06 220.65c4.32 0 5.16 3.43 5.16 5.27 0 .78 0 1.73-1.09 1.73h-7.88c0 2.67 1.54 4.4 4.08 4.4a5 5 0 003.24-1.16.74.74 0 01.48-.17.79.79 0 01.79.79.82.82 0 01-.3.62 6.05 6.05 0 01-4.21 1.51c-3.59 0-5.83-2-5.83-6.51 0-4.13 2.05-6.48 5.56-6.48zm0 1.57c-2.35 0-3.65 1.51-3.81 3.91h7.27c0-1.94-.68-3.91-3.46-3.91zM394.41 225.43v7.21a.87.87 0 01-1.73 0v-6.86c0-2.13-.62-3.59-3.24-3.59s-3.59 1.62-3.59 3.78v6.67a.87.87 0 01-1.73 0v-7c0-4.14 3.57-4.95 5.32-4.95 4.16-.04 4.97 2.45 4.97 4.74zM419.66 225.43v7.21a.87.87 0 01-1.73 0v-6.86c0-2.13-.62-3.59-3.24-3.59s-3.59 1.62-3.59 3.78v6.67a.86.86 0 01-1.72 0v-7c0-4.14 3.56-4.95 5.31-4.95 4.16-.04 4.97 2.45 4.97 4.74zM400.69 217.25c0-.78.38-1.08 1-1.08s1 .3 1 1.08a1 1 0 11-2.05 0zm1.89 15.39a.87.87 0 01-1.73 0v-11a.87.87 0 011.73 0zM154.36 232.64a.86.86 0 01-1.72 0V215a.86.86 0 111.72 0zM186.5 222.25a5.27 5.27 0 014.09-1.49.84.84 0 010 1.67c-2.48 0-3.74 1.72-3.74 4.19v6a.86.86 0 01-1.72 0V225a4.73 4.73 0 011.37-2.75zM256.1 222.25a5.26 5.26 0 014.08-1.49.84.84 0 010 1.67c-2.47 0-3.74 1.72-3.74 4.19v6a.86.86 0 11-1.72 0V225a4.71 4.71 0 011.38-2.75zM323.39 222.25a5.27 5.27 0 014.09-1.49.84.84 0 010 1.67c-2.48 0-3.74 1.72-3.74 4.19v6a.86.86 0 01-1.72 0V225a4.73 4.73 0 011.37-2.75zM267.46 223.65a.88.88 0 01-.7.38.79.79 0 01-.79-.78.84.84 0 01.14-.46 5 5 0 014.48-2.14c3.13 0 4.86 1.84 4.86 4.59v4.4c0 2.86-3.78 4-5.53 4-2.86 0-4.67-1.38-4.67-3.86S267.06 226 270 226h3.81v-.73a2.86 2.86 0 00-3.19-3 3.75 3.75 0 00-3.16 1.38zm6.32 5v-1.14H270c-1.75 0-3 .73-3 2.3 0 1.4 1 2.29 3.08 2.29a3.43 3.43 0 003.7-3.48zM427.46 223.65a.88.88 0 01-.7.38.78.78 0 01-.78-.78.83.83 0 01.13-.46 5 5 0 014.48-2.14c3.14 0 4.86 1.84 4.86 4.59v4.4c0 2.86-3.78 4-5.53 4-2.86 0-4.67-1.38-4.67-3.86S427.06 226 430 226h3.81v-.73a2.86 2.86 0 00-3.19-3 3.75 3.75 0 00-3.16 1.38zm6.32 5v-1.14H430c-1.75 0-3 .73-3 2.3 0 1.4 1 2.29 3.08 2.29a3.43 3.43 0 003.7-3.48z"/></g></g></symbol>
    <symbol viewBox="0 0 106.9 168.18" id="z-brasil" xmlns="http://www.w3.org/2000/svg"><g data-name="Camada 2"><g data-name="Capa 1"><path d="M3.33 17.72a.93.93 0 01-1.86 0V.93A.92.92 0 012.4 0h8.79a.85.85 0 010 1.7H3.33v6.82h6a.85.85 0 110 1.69h-6zM18 5.61c4.38 0 5.23 3.48 5.23 5.34 0 .8 0 1.76-1.1 1.76h-8c0 2.71 1.56 4.46 4.13 4.46A5 5 0 0021.52 16a.74.74 0 01.49-.16.79.79 0 01.8.79.8.8 0 01-.31.63 6.09 6.09 0 01-4.27 1.53c-3.64 0-5.91-2-5.91-6.6C12.32 8 14.4 5.61 18 5.61zm0 1.59c-2.38 0-3.7 1.53-3.86 4h7.36c-.04-2-.72-4-3.5-4zM24.88 2.16c0-.79.39-1.09 1-1.09s1 .3 1 1.09a1 1 0 01-2.09 0zm1.92 15.61a.88.88 0 11-1.75 0V6.65a.88.88 0 011.75 0zM30.81 3.12a.91.91 0 01.87-.88.89.89 0 01.88.88V6h1.78a.82.82 0 010 1.64h-1.78v7.56a1.58 1.58 0 001.59 1.8.83.83 0 110 1.65 3.16 3.16 0 01-3.34-3.45V7.64h-1.07a.82.82 0 110-1.64h1.07zM48.66 12.18c0 4.5-2.19 6.6-5.75 6.6s-5.75-2.1-5.75-6.6 2.22-6.57 5.75-6.57 5.75 2.08 5.75 6.57zm-1.78 0c0-3.45-1.45-5-4-5s-4 1.53-4 5 1.45 5 4 5 4-1.49 4-5zM67.9 10.46v7.31a.88.88 0 01-1.76 0v-7c0-2.16-.63-3.64-3.28-3.64S59.21 8.82 59.21 11v6.76a.88.88 0 11-1.75 0V6.65a.88.88 0 011.75 0v.88a4 4 0 013.65-1.92c4.21 0 5.04 2.52 5.04 4.85zM80.33 12.18c0 4.5-2.19 6.6-5.75 6.6s-5.75-2.1-5.75-6.6 2.22-6.57 5.75-6.57 5.75 2.08 5.75 6.57zm-1.77 0c0-3.45-1.46-5-4-5s-4 1.53-4 5 1.46 5 4 5 4-1.49 4-5zM1.85 59.65A1.86 1.86 0 010 57.81v-32.9a1.87 1.87 0 011.85-1.85h9.24c7.67 0 11.09 3.81 11.09 9.68a7.53 7.53 0 01-5.27 7.39c3.91 1 7 3.81 7 9.08 0 6.31-4 10.44-11.15 10.44zm1.85-20.6H11c4.84 0 7.39-2.5 7.39-6.31s-2.3-6.31-7.39-6.31H3.7zm0 17.23h9c5 0 7.45-2.66 7.45-7.07s-2.83-7-7.45-7h-9zM32.48 38.67c1.09-2.5 3.8-4.35 7.56-4.35a1.69 1.69 0 010 3.37c-5 0-7.56 3.48-7.56 8.48v12.18a1.74 1.74 0 01-3.48 0V36.27a1.74 1.74 0 113.48 0zM47.58 40.24a1.78 1.78 0 01-1.42.76 1.57 1.57 0 01-1.57-1.57 1.75 1.75 0 01.27-.93c1.52-2.39 4.46-4.29 9-4.29 6.31 0 9.79 3.7 9.79 9.24V58.4a1.69 1.69 0 11-3.37 0v-1.95c-1.36 2.55-4.51 3.91-7.77 3.91-5.77 0-9.41-2.77-9.41-7.77 0-4.79 3.64-7.67 9.51-7.67h7.69v-1.47c0-3.7-2.45-6-6.42-6a7.51 7.51 0 00-6.3 2.79zm12.72 10V48h-7.67c-3.53 0-6 1.47-6 4.63 0 2.82 2 4.62 6.2 4.62 3.83-.04 7.47-2.38 7.47-7zM90 27.36c0-1.58.76-2.18 2.07-2.18s2.07.6 2.07 2.18a2.07 2.07 0 01-4.14 0zm3.81 31a1.74 1.74 0 11-3.48 0V36.27a1.74 1.74 0 113.48 0zM103.09 22.68v31.05c0 2.17.71 3.1 2.17 3.1a1.63 1.63 0 110 3.26c-3.64 0-5.65-2.18-5.65-6.36v-31a1.79 1.79 0 011.74-1.74 1.75 1.75 0 011.74 1.69zM71.89 41.18c0 5.45 13.65 3.42 13.65 11.73 0 4.72-3.89 6.85-8.82 6.85A11.65 11.65 0 0167.84 56a1.53 1.53 0 01-.36-1A1.51 1.51 0 0169 53.53a1.64 1.64 0 011.15.52 8.76 8.76 0 006.59 2.54c3 0 5.5-1 5.5-3.68 0-5.35-13.65-3.22-13.65-11.73 0-4.31 3.53-6.28 7.94-6.28 3.53 0 6.28 1.19 7.89 3.32a1.56 1.56 0 01.36 1 1.51 1.51 0 01-1.5 1.51 1.45 1.45 0 01-1.09-.47 7.37 7.37 0 00-5.66-2.18c-2.36-.02-4.64.71-4.64 3.1z" fill="#fff"/><path d="M105.37 116.76c-19.35-10.48-29.9-26.19-33-40.39H57.12C43.81 88.49 24.29 101.23.52 116.49V124c23.33 10.58 35.59 28.4 38.61 44.14H53c12.33-11.51 30.34-23.54 52.35-37.71zm-75.25 5.52a25.57 25.57 0 0149.19-9.79c-22.09 1.09-38.86 13.28-46.87 20.44a25.43 25.43 0 01-2.32-10.65zm25.56 25.57a25.52 25.52 0 01-20-9.68c7.17-6.51 23.78-19.11 45.31-19.73a25.63 25.63 0 01-25.29 29.41z" fill="#f0c931"/><path d="M.52 83.69v32.8c23.77-15.26 43.29-28 56.6-40.12H7.83a7.31 7.31 0 00-7.31 7.32zM.52 124v36.82a7.31 7.31 0 007.31 7.32h31.3C36.11 152.44 23.85 134.62.52 124zM105.37 116.76V83.69a7.31 7.31 0 00-7.31-7.32H72.38c3.09 14.2 13.62 29.91 32.99 40.39zM105.37 160.86v-30.39c-22 14.17-40 26.2-52.35 37.71h45a7.31 7.31 0 007.35-7.32z" fill="#64a53f"/><path d="M55.68 96.71a25.58 25.58 0 00-23.24 36.22c8-7.16 24.78-19.35 46.87-20.44a25.56 25.56 0 00-23.63-15.78zM55.68 147.85A25.63 25.63 0 0081 118.44c-21.53.62-38.14 13.22-45.31 19.73a25.52 25.52 0 0019.99 9.68z" fill="#5268d3"/></g></g></symbol>
    <symbol viewBox="0 0 25.01 31" id="z-cart" xmlns="http://www.w3.org/2000/svg"><g stroke-miterlimit="10"><path d="M24.51 26.43L22.79 7.09a.83.83 0 00-.79-.76H3.05a.84.84 0 00-.83.76L.51 26.43v.08a4.27 4.27 0 004.5 4H20a4.27 4.27 0 004.5-4zM20 28.84H5a2.63 2.63 0 01-2.84-2.3L3.8 8h17.41l1.65 18.54a2.66 2.66 0 01-2.86 2.3z" fill="#e6427b" stroke="#e3457b"/><path d="M6.57 10.51a.83.83 0 001.66 0V8h0V6.33a4.27 4.27 0 018.54 0v4.18a.82.82 0 00.82.83.83.83 0 00.83-.83V6.33a5.93 5.93 0 00-11.85 0v4.18z" fill="#9ad7d8" stroke="#9cd7d7"/></g></symbol>
    <symbol viewBox="0 0 27.86 30" id="z-close" xmlns="http://www.w3.org/2000/svg"><g data-name="Camada 2"><path fill="#e3457b" fill-rule="evenodd" d="M27.86 3.04L25.55.57 14.23 12.62 2.42 0 0 2.58 11.64 15 0 27.42 2.42 30l11.81-12.61 10.83 11.56 2.31-2.47L16.62 15 27.86 3.04z" data-name="Capa 1"/></g></symbol>
    <symbol viewBox="0 0 279.7 69.68" id="z-desigual" xmlns="http://www.w3.org/2000/svg"><g data-name="Camada 2"><g data-name="Capa 1" fill="#262424"><path d="M33.15.57v21.3q-5.37-5.52-14-5.53A18.29 18.29 0 005.68 22.1 20 20 0 000 36.74v.56a20 20 0 005.68 14.64 18.29 18.29 0 0013.47 5.76 19 19 0 0014-5.45v4.36h8.18V0h-8.18zm-3.81 45.74A12.41 12.41 0 0120.47 50a12.08 12.08 0 01-8.95-3.62A13 13 0 018 37a13 13 0 013.57-9.29 12 12 0 019-3.66 12.37 12.37 0 018.87 3.7 12.61 12.61 0 013.7 9.25 12.59 12.59 0 01-3.8 9.29M168.84 20.1q-4.59-4.82-13.31-4.82a18.64 18.64 0 00-13.27 5.37 17.55 17.55 0 00-5.64 13.23 17.76 17.76 0 005.68 13.31 18.54 18.54 0 0013.23 5.45q8.73 0 13.31-4.83v2.49q0 5.61-3.31 8.83a12 12 0 01-8.83 3.23 14 14 0 01-7.2-1.63 15.54 15.54 0 01-5-5.21l-6.61 4.9q5 9.26 18.83 9.26 9.18 0 14.59-4.82t5.41-13.39V16.29h-7.86zm-3.54 22.22a11.91 11.91 0 01-8.44 3.31 12.54 12.54 0 01-8.86-3.27 11 11 0 01-3.54-8.48 11 11 0 013.54-8.52 12.6 12.6 0 018.84-3.23 12 12 0 018.44 3.27 11 11 0 013.54 8.48 11 11 0 01-3.54 8.44M212.35 34.11q0 7.08-3 10.74a10.34 10.34 0 01-8.41 3.66 8.46 8.46 0 01-6.73-2.92 11.25 11.25 0 01-2.53-7.66V16.29h-8.09v23.27q0 7.32 4.24 11.87A14.6 14.6 0 00199 56q8.42 0 13.31-5.83v4.74h8.1V16.29h-8.1zM108.21 33.1l-9.18-2c-3.12-.73-4.67-2.18-4.67-4.36a4.49 4.49 0 011.75-3.62 7.83 7.83 0 015.1-1.44 9.88 9.88 0 016 1.71A6.82 6.82 0 01110 28l7.71-1.63a13.07 13.07 0 00-5.41-8.06 18.26 18.26 0 00-10.86-3.07q-6.93 0-11.09 3.39a10.82 10.82 0 00-4.16 8.83q0 8.17 10.5 10.51l8.41 1.71q5.2 1.17 5.21 4.59a4.33 4.33 0 01-2.06 3.73 9.8 9.8 0 01-5.56 1.4A12.35 12.35 0 0196 47.73a6.35 6.35 0 01-3-4.9h-8.1a16.12 16.12 0 001 5.35 11.14 11.14 0 004.45 4.9A21.68 21.68 0 00102 56q7.39 0 11.83-3.27a10.74 10.74 0 004.44-9.18 9.17 9.17 0 00-2.65-6.73 14.19 14.19 0 00-7.39-3.7M64.47 15.2a19.48 19.48 0 00-14.21 5.72q-5.79 5.71-5.8 14.75t5.8 14.63A19.15 19.15 0 0064.15 56a20.92 20.92 0 0011.41-3.07 18.14 18.14 0 007.2-9.07l.31-1h-7.86C73 46.91 69.28 49 64.15 49a11.06 11.06 0 01-7.78-3.12 12.71 12.71 0 01-3.89-8.32h31.29v-2.8a20 20 0 00-5.88-14 18.41 18.41 0 00-13.42-5.56M52.71 31.78A10.74 10.74 0 0157 24.85a12.47 12.47 0 017.48-2.49 10.83 10.83 0 017.08 2.41 11.69 11.69 0 013.89 7zM127.59 3.37a5.07 5.07 0 00-3.73 1.48 4.87 4.87 0 00-1.48 3.58 4.7 4.7 0 001.48 3.57 5.17 5.17 0 003.73 1.4 5.05 5.05 0 003.7-1.4 4.78 4.78 0 001.44-3.58 4.87 4.87 0 00-1.48-3.58 5 5 0 00-3.66-1.48M123.54 16.29h8.09v38.6h-8.09zM271.6 3.37h8.09v51.52h-8.09zM266 54.89v-38.6h-8.09v4.44q-5.29-5.54-14-5.53a18.29 18.29 0 00-13.5 5.8 20 20 0 00-5.68 14.63q0 9 5.64 14.67a18.3 18.3 0 0013.51 5.7q8.72 0 14-5.52v4.43zm-11.91-9.77a12.33 12.33 0 01-8.87 3.7 12.16 12.16 0 01-9-3.62 13.08 13.08 0 01-3.58-9.61 13.1 13.1 0 013.53-9.59 12.19 12.19 0 019-3.62 12.33 12.33 0 018.87 3.7 12.69 12.69 0 013.82 9.53 12.69 12.69 0 01-3.82 9.53"/></g></g></symbol>
    <symbol viewBox="0 0 54.11 30" id="z-down" xmlns="http://www.w3.org/2000/svg"><g data-name="Camada 2"><path fill="#e3457b" fill-rule="evenodd" d="M54.11 4.29L49.6 0 27.05 21.43 4.51 0 0 4.29 27.05 30l4.51-4.29L54.11 4.29z" data-name="Capa 1"/></g></symbol>
    <symbol viewBox="0 0 70.47 50" id="z-ecofriendly" xmlns="http://www.w3.org/2000/svg"><g data-name="Camada 2"><g data-name="Capa 1" fill="#e3457b"><path d="M51.64 19.5A7.38 7.38 0 0054.2 14a6.68 6.68 0 00-6.75-6.77c-3.43 0-6.39 2.29-10 6l-.27-.23C31.44 6.62 27.65 2.44 23 2.44a6.69 6.69 0 00-6.74 6.76 7.42 7.42 0 002.56 5.54 7.4 7.4 0 00-2.56 5.54A6.69 6.69 0 0023 27c3.42 0 6.39-2.28 10-6l.24.27C39 27.62 42.81 31.8 47.45 31.8A6.68 6.68 0 0054.2 25a7.36 7.36 0 00-2.56-5.53m-23.29 3c-2 1.66-3.68 2.4-5.33 2.4a4.58 4.58 0 01-4.65-4.65 5.26 5.26 0 011.82-3.94l.35-.3 1.75-1.3-1.75-1.31-.35-.29a5.26 5.26 0 01-1.82-3.88A4.59 4.59 0 0123 4.54c1.65 0 3.3.75 5.33 2.41a78.5 78.5 0 017.27 7.41l.34.37-.34.37a77.56 77.56 0 01-7.27 7.42m22.41 5.82a4.66 4.66 0 01-3.31 1.34c-1.66 0-3.3-.74-5.34-2.4a77.62 77.62 0 01-7.26-7.42l-.33-.36.33-.37a78.55 78.55 0 017.26-7.41c2-1.67 3.68-2.41 5.34-2.41A4.59 4.59 0 0152.1 14a5.23 5.23 0 01-1.83 3.93l-.34.3-1.76 1.27 1.76 1.3.34.3A5.27 5.27 0 0152.1 25a4.67 4.67 0 01-1.34 3.32"/><path d="M36.53 6.88a2.09 2.09 0 01-1.63.6 4.8 4.8 0 01-2.08-.69 9.61 9.61 0 01-3-3.5 1 1 0 01.81-1.43h1.24a7.64 7.64 0 013.31.74 5.15 5.15 0 011.54 1.24A4.11 4.11 0 0037 6.09a9.34 9.34 0 00-4-2.4.09.09 0 00-.06.16 7.88 7.88 0 013.59 3.03zm7.29.12a6.72 6.72 0 01-3 .7 3 3 0 01-2.37-1.19 13.53 13.53 0 015.76-3.81.08.08 0 000-.15A12.6 12.6 0 0038 5.8c-.79-1.74-.1-3.38 1.88-4.6a7.76 7.76 0 012.28-.93 12.44 12.44 0 013.5-.27c1 0 1.86.15 2.63.26A1 1 0 0149 1.75C47.79 3.52 45.85 6.09 43.82 7zM.54 43.53A.54.54 0 010 43v-9.62a.54.54 0 01.54-.54h5.1a.5.5 0 01.49.5.49.49 0 01-.49.49H1.08v3.83h3.49a.49.49 0 110 1H1.08v3.91h4.73a.49.49 0 110 1zM10.23 36.1a3 3 0 012.45 1.09.51.51 0 01.11.31.45.45 0 01-.46.46.49.49 0 01-.38-.19 2 2 0 00-1.72-.77C8.77 37 8 38 8 39.91s.78 2.91 2.24 2.91a2.91 2.91 0 001.85-.69.53.53 0 01.3-.11.47.47 0 01.46.46.49.49 0 01-.21.4 3.6 3.6 0 01-2.4.86c-2 0-3.27-1.22-3.27-3.83s1.22-3.81 3.26-3.81zM20.17 39.91c0 2.61-1.27 3.83-3.34 3.83s-3.33-1.22-3.33-3.83 1.28-3.81 3.33-3.81 3.34 1.21 3.34 3.81zm-1 0c0-2-.84-2.89-2.3-2.89s-2.3.89-2.3 2.89.84 2.91 2.3 2.91 2.26-.88 2.26-2.91zM28 32.42h-5.08a1 1 0 00-1 1v9.74a1 1 0 001.93 0v-3.97H27a.92.92 0 100-1.83h-3.12v-3.11H28a.92.92 0 100-1.83zM32.69 35.71a3 3 0 00-1.88.6.91.91 0 00-.84-.54.92.92 0 00-.93.93v6.45a.93.93 0 001.86 0v-3.56c0-.76.23-2.05 1.79-2.05a.92.92 0 000-1.83zM35.29 35.77a.92.92 0 00-.93.93v6.45a.93.93 0 001.86 0V36.7a.92.92 0 00-.93-.93zM35.29 33a1 1 0 00-1 1.06 1 1 0 101-1.06zM44.13 39.2a3.28 3.28 0 00-3.46-3.52c-2.31 0-3.69 1.58-3.69 4.23s1.36 4.25 3.85 4.25a4 4 0 002.78-1 .93.93 0 00.3-.67.89.89 0 00-.91-.89.91.91 0 00-.54.18 2.46 2.46 0 01-1.65.6 1.83 1.83 0 01-1.95-1.74h4.19c1.08 0 1.08-1.01 1.08-1.44zm-3.46-1.76a1.42 1.42 0 011.59 1.46h-3.35a1.65 1.65 0 011.76-1.46zM48.34 35.68a3.14 3.14 0 00-1.82.55.91.91 0 00-.8-.46.92.92 0 00-.94.93v6.45a.94.94 0 001.87 0v-3.92c0-1.23.53-1.8 1.69-1.8s1.48.42 1.48 1.69v4a.93.93 0 001.86 0v-4.21c0-2.12-1.15-3.23-3.34-3.23zM58.62 31.8a.92.92 0 00-.93.93v3.44a3.19 3.19 0 00-1.69-.49c-1.65 0-3.61.73-3.61 4.23 0 2.74 1.31 4.25 3.68 4.25a3.28 3.28 0 003.53-3.55v-7.88a.92.92 0 00-.98-.93zm-.93 8.81c0 1.47-.91 1.78-1.67 1.78s-1.82-.28-1.82-2.48 1-2.47 1.82-2.47a1.93 1.93 0 011.67 1.08zM63.19 43.18a.91.91 0 00-.9-.9c-.11 0-.22 0-.22-.48v-9.07a.93.93 0 00-.93-.93 1 1 0 00-.93.93v9.07c0 1.45.76 2.28 2.08 2.28a.9.9 0 00.9-.9z"/><path d="M69.53 35.77a.89.89 0 00-.86.6l-1.85 4.52L65 36.37a.9.9 0 00-.87-.6.92.92 0 00-.93.93.94.94 0 00.07.36l2.6 6.17c-.64 1.57-.94 2.12-1.94 2.12a.9.9 0 000 1.8c2 0 2.82-1.32 3.36-2.61l3.13-7.45a1 1 0 00.07-.35.92.92 0 00-.96-.97zM18.26 47.78h-.61a.17.17 0 00-.17.16v1.87a.17.17 0 10.34 0v-.71h.44a.61.61 0 00.64-.67.6.6 0 00-.64-.65zm0 1h-.41v-.69h.41a.35.35 0 010 .69zM23.08 49.05a.62.62 0 00.49-.63.63.63 0 00-.65-.64h-.6a.16.16 0 00-.17.16v1.87a.16.16 0 00.17.17.16.16 0 00.16-.17v-.74h.21l.6.83a.19.19 0 00.15.08.16.16 0 00.16-.17.17.17 0 000-.1zm-.6-.3v-.66h.44a.33.33 0 010 .66zM27.76 47.73c-.65 0-1 .41-1 1.14s.36 1.13 1 1.13 1-.4 1-1.13-.34-1.14-1-1.14zm0 2c-.44 0-.67-.27-.67-.81s.23-.82.67-.82.68.27.68.82-.23.76-.68.76zM32.67 47.78h-.43a.16.16 0 00-.16.16v1.85a.17.17 0 00.16.17h.43c.68 0 1-.36 1-1.09s-.32-1.09-1-1.09zm0 1.86h-.26v-1.55h.26c.47 0 .67.23.67.78s-.2.77-.67.77zM38.36 47.75a.18.18 0 00-.17.17v1.35c0 .19 0 .41-.44.41s-.44-.22-.44-.41v-1.35a.17.17 0 00-.34 0v1.35c0 .33.14.73.78.73s.78-.25.78-.73v-1.35a.18.18 0 00-.17-.17zM42.83 48.05a.6.6 0 01.48.23.17.17 0 00.13.07.17.17 0 00.16-.17.19.19 0 000-.1.91.91 0 00-.74-.35c-.66 0-1 .41-1 1.14s.35 1.13 1 1.13a.93.93 0 00.74-.35.17.17 0 000-.1.16.16 0 00-.16-.16.17.17 0 00-.13.07.58.58 0 01-.48.22c-.47 0-.68-.25-.68-.81s.23-.82.68-.82zM48.18 47.78h-1.3a.16.16 0 100 .32h.48v1.71a.17.17 0 00.34 0V48.1h.48a.16.16 0 100-.32zM52.28 48.66c-.28-.1-.45-.17-.45-.34s.14-.27.38-.27a.51.51 0 01.44.22.18.18 0 00.13.06.16.16 0 00.16-.16.2.2 0 000-.09.84.84 0 00-.71-.35c-.53 0-.71.32-.71.59 0 .43.35.54.67.65s.48.17.48.37-.16.34-.46.34a.54.54 0 01-.49-.26.16.16 0 00-.14-.08.17.17 0 00-.16.17.24.24 0 000 .08.85.85 0 00.77.41c.5 0 .79-.24.79-.66s-.38-.58-.7-.68z"/></g></g></symbol>
    <symbol viewBox="0 0 30.18 30" id="z-facebook" xmlns="http://www.w3.org/2000/svg"><g data-name="Camada 2"><path d="M30.18 15.09A15.09 15.09 0 1012.73 30V19.45H8.9v-4.36h3.83v-3.32C12.73 8 15 5.9 18.43 5.9a23.45 23.45 0 013.38.29V9.9h-1.9a2.18 2.18 0 00-2.46 2.36v2.83h4.19L21 19.45h-3.55V30a15.1 15.1 0 0012.73-14.91" fill="#e3457b" data-name="Capa 1"/></g></symbol>
    <symbol viewBox="0 0 30.04 30" id="z-help" xmlns="http://www.w3.org/2000/svg"><g data-name="Camada 2"><g data-name="Capa 1"><path d="M30 16.18a5.17 5.17 0 00-2.23-3.94 6.05 6.05 0 00-1.66-.64l-.53-.12a8.82 8.82 0 00-1.58-.16h-1.4a1.84 1.84 0 00-1.84 1.84v11.65a.38.38 0 01-.39.39h-3A3 3 0 0012 27a3 3 0 005.27 1.84h3a4.06 4.06 0 004-3.4h.45A5.19 5.19 0 0030 20.3V17zm-3.68 4.12a1.51 1.51 0 01-1.51 1.5h-.39V15h.38a1.52 1.52 0 011.51 1.51zM7.42 11.32H6.7a10.62 10.62 0 00-1.59.11 8.24 8.24 0 00-2.87.81A5.2 5.2 0 000 16.51v3.79a5.18 5.18 0 005.19 5.18h2.23a1.84 1.84 0 001.84-1.84V13.16a1.84 1.84 0 00-1.84-1.84zM5.58 21.8h-.39a1.51 1.51 0 01-1.51-1.5v-3.79A1.52 1.52 0 015.19 15h.39z" fill="#c64478"/><path d="M25.82 6a12.77 12.77 0 00-23.58 6.24A9.65 9.65 0 016 11.32a9.08 9.08 0 0116.38-3.85 10.12 10.12 0 011.15 2.16 10.78 10.78 0 01.47 1.69 8.55 8.55 0 013.78.92A12.68 12.68 0 0026 6.32z" fill="#b6dadd"/></g></g></symbol>
    <symbol viewBox="0 0 30 30" id="z-helper-m" xmlns="http://www.w3.org/2000/svg"><g data-name="Camada 2"><g data-name="Capa 1" fill="#e3457b"><path d="M15 0A15 15 0 004.61 25.81a.79.79 0 00.21.28l.36.31a15 15 0 007.46 3.41l.59.08c.21 0 .43.05.64.06s.63 0 1 .05H15a15 15 0 000-30zm0 27.41v.78l-.05-.78H14l-.52-.06h-.24l-.53-.08h-.19c-.22 0-.43-.1-.65-.15l-.32-.09-.34-.1-.36-.13-.27-.1-.39-.15h-.06c-.3-.13-.6-.27-.89-.43l-.19-.09-.39-.23a1.18 1.18 0 00-.19-.11l-.27-.17a12.64 12.64 0 01-2.15-1.78 12.41 12.41 0 019-21A12.4 12.4 0 0127.41 15v.62A12.41 12.41 0 0115 27.41z"/><path d="M25.21 14.73a3.18 3.18 0 00-1.59-2.55 8.42 8.42 0 00-1.17-4.24A8.63 8.63 0 0020 5.26a8.58 8.58 0 00-13.54 6.92 3.18 3.18 0 00-1.59 2.75v2.7a3.18 3.18 0 003.18 3.18h1.59a.79.79 0 00.79-.79v-7.47a.79.79 0 00-.79-.8H8.07a7 7 0 0112.65-3.57l.06.09.05.07V8.8a.56.56 0 00.05.08c.12.24.23.49.33.74a7.08 7.08 0 01.41 1.9h-1.17a.8.8 0 00-.8.8v8.3a.79.79 0 01-.79.8h-2.42a1.61 1.61 0 00-1.4-.82A1.59 1.59 0 1015 24a1.61 1.61 0 001.4-.82h2.42a2.39 2.39 0 002.38-2.39h.8a3.18 3.18 0 003.18-3.18v-2.7a1.34 1.34 0 00.03-.18zM8.84 13.34v5.88h-.79a1.59 1.59 0 01-1.59-1.59v-2.7a1.59 1.59 0 011.59-1.59zm14.79 4.29A1.59 1.59 0 0122 19.22h-.8v-5.88h.8a1.59 1.59 0 011.59 1.59z"/><path d="M15 24.55a2.11 2.11 0 111.65-3.42h2.17a.29.29 0 00.28-.28v-8.3a1.32 1.32 0 011.31-1.32h1a6.22 6.22 0 00-.31-1.2 5.37 5.37 0 00-.31-.69v-.08l.43-.3-.45.25v-.05l-.05-.09.42-.31-.49.24.41-.33-.44.33-.1-.15.41-.32-.44.27-.18-.27a6.48 6.48 0 00-11.66 2.7h1A1.32 1.32 0 0111 12.55V20a1.31 1.31 0 01-1.31 1.31H8.05a3.7 3.7 0 01-3.7-3.7v-2.7a3.73 3.73 0 011.6-3 9.11 9.11 0 0116.8-4.47l.16.25a9.07 9.07 0 011.23 4.22 3.68 3.68 0 011.59 2.81V17.65a3.7 3.7 0 01-3.7 3.7h-.32a2.9 2.9 0 01-2.86 2.42h-2.16a2.1 2.1 0 01-1.69.78zm0-3.18A1.07 1.07 0 1016 23l.29-.52-.29-.56a1.08 1.08 0 00-1-.55zm2 1.35h1.91a1.87 1.87 0 001.87-1.87v-.52H22a2.66 2.66 0 002.66-2.66V14.6a2.64 2.64 0 00-1.31-2l-.25-.15v-.3a8 8 0 00-1-3.84L22 8.2a8.06 8.06 0 00-15 4v.3l-.25.15a2.67 2.67 0 00-1.33 2.3v2.7a2.66 2.66 0 002.66 2.66h1.56a.28.28 0 00.28-.31v-7.45a.28.28 0 00-.28-.28H7.51v-.56a7.52 7.52 0 0113.63-3.83l.48.75-.42.31.45-.25.08.15a7.08 7.08 0 01.36.82 7.39 7.39 0 01.45 2.05v.56h-2.09a.28.28 0 00-.28.28v8.3a1.31 1.31 0 01-1.31 1.31H17zm5.09-3h-1.36v-6.9H22a2.12 2.12 0 012.11 2.11v2.7A2.12 2.12 0 0122 19.74zm-.28-1H22a1.08 1.08 0 001.07-1.08v-2.7A1.07 1.07 0 0022 13.86h-.28zm-12.4 1H8.05a2.12 2.12 0 01-2.11-2.11v-2.7a2.12 2.12 0 012.11-2.11h1.31zm-1.36-5.86A1.07 1.07 0 007 14.93v2.7a1.08 1.08 0 001.07 1.08h.28v-4.85z"/></g></g></symbol>
    <symbol viewBox="0 0 30 30" id="z-instagram" xmlns="http://www.w3.org/2000/svg"><g data-name="Camada 2"><g data-name="Capa 1" fill="#e3457b"><path d="M15 2.7c4 0 4.48 0 6.06.09a8.3 8.3 0 012.79.52 4.5 4.5 0 011.72 1.12 4.5 4.5 0 011.12 1.72 8.3 8.3 0 01.52 2.79c.07 1.58.09 2.05.09 6.06s0 4.48-.09 6.06a8.3 8.3 0 01-.52 2.79 5 5 0 01-2.84 2.84 8.3 8.3 0 01-2.79.52c-1.58.07-2 .09-6.06.09s-4.48 0-6.06-.09a8.3 8.3 0 01-2.79-.52 4.5 4.5 0 01-1.72-1.12 4.5 4.5 0 01-1.12-1.72 8.3 8.3 0 01-.52-2.79C2.72 19.48 2.7 19 2.7 15s0-4.48.09-6.06a8.3 8.3 0 01.52-2.79 4.5 4.5 0 011.12-1.72 4.5 4.5 0 011.72-1.12 8.3 8.3 0 012.79-.52C10.52 2.72 11 2.7 15 2.7M15 0c-4.07 0-4.58 0-6.18.09a11 11 0 00-3.65.7 7.23 7.23 0 00-2.65 1.73A7.23 7.23 0 00.79 5.17a11 11 0 00-.7 3.65C0 10.42 0 10.93 0 15s0 4.58.09 6.18a11 11 0 00.7 3.65 7.23 7.23 0 001.73 2.65 7.23 7.23 0 002.65 1.73 11 11 0 003.65.7c1.6.07 2.11.09 6.18.09s4.58 0 6.18-.09a11 11 0 003.65-.7 7.7 7.7 0 004.38-4.38 11 11 0 00.7-3.65c.09-1.6.09-2.11.09-6.18s0-4.58-.09-6.18a11 11 0 00-.7-3.65 7.23 7.23 0 00-1.73-2.65A7.23 7.23 0 0024.83.79a11 11 0 00-3.65-.7C19.58 0 19.07 0 15 0"/><path d="M15 7.3a7.7 7.7 0 107.7 7.7A7.7 7.7 0 0015 7.3M15 20a5 5 0 115-5 5 5 0 01-5 5M24.81 7A1.8 1.8 0 1123 5.19 1.8 1.8 0 0124.81 7"/></g></g></symbol>
    <symbol viewBox="0 0 60.2 40.65" id="z-livre" xmlns="http://www.w3.org/2000/svg"><g data-name="Camada 2"><g data-name="Capa 1" fill="#e3457b"><path d="M37.22 29.92L36 31.79a.42.42 0 01-.52.14 6.54 6.54 0 00-3-.73c-.45 0-1 .05-1 .38s.55.53 1.58.82c2.22.62 4.51 1.52 4.51 4.1s-2.06 4.15-5.57 4.15a8.89 8.89 0 01-5.31-1.48.4.4 0 01-.13-.48l.92-2.22a.4.4 0 01.57-.18 8.17 8.17 0 003.74 1c.71 0 1.14-.07 1.14-.48s-.91-.62-2.05-.93c-1.79-.47-4-1.38-4-3.79 0-2.58 2.12-4.09 5.34-4.09a8.93 8.93 0 014.9 1.39.42.42 0 01.1.57M48.1 36.56l1.42 2.21a.42.42 0 01-.15.6 10 10 0 01-5 1.28c-4.1 0-6.53-2.27-6.53-6.13 0-4.1 2.5-6.56 6.74-6.56 3.3 0 5.18 1.57 5.18 4.15S47.37 36 43.42 36h-.77c.29.72.91 1.1 2.08 1.1a5.57 5.57 0 002.79-.7.43.43 0 01.58.14m-5.57-3.22a.09.09 0 00.08.11c.54 0 2.55.16 2.55-1.08 0-.45-.34-.78-1-.78s-1.39.64-1.62 1.75M59.58 28.75l-1.11 3.33a.4.4 0 01-.55.24 2.67 2.67 0 00-1.08-.23c-1.19 0-1.84.69-1.84 3.67v4.65h-4.77v-11.1a1 1 0 01.68-1 6.18 6.18 0 012-.38 2 2 0 011.9 1.75.05.05 0 00.1 0A3.23 3.23 0 0157.74 28a5 5 0 011.6.29.39.39 0 01.24.5M12.92 22.65c0 4.36-2.6 6.89-7 6.89H4.75v5.27H0V18a.72.72 0 01.47-.67 6.47 6.47 0 012.15-.45 1.9 1.9 0 011.87 1.66h.06a4.39 4.39 0 013.77-1.68c2.7 0 4.6 2.14 4.6 5.79m-4.84 0c0-1.31-.57-2.07-1.62-2.07-1.24 0-1.69.59-1.69 3.12v2.36h.67c1.62 0 2.64-1.24 2.64-3.41M24.85 21.58v6.85a.76.76 0 01-.51.71 6.15 6.15 0 01-2.12.45 1.91 1.91 0 01-1.84-1.53.07.07 0 00-.13 0A3.69 3.69 0 0117 29.59c-2.45 0-4-1.46-4-3.77 0-2.65 2.27-4.2 6.34-4.2h.67c-.12-.76-.45-1.21-1.67-1.21a5.63 5.63 0 00-2.62.76.36.36 0 01-.47-.11l-1.5-2.34a.35.35 0 01.13-.5 10.78 10.78 0 015.3-1.32c3.55 0 5.63 1.69 5.63 4.68m-4.77 2.64h-.55c-1.29 0-2 .43-2 1.12a.76.76 0 00.86.81c1 0 1.7-.47 1.7-1.93M30.31 27.18V24.7c0-3 .65-3.67 1.84-3.67a2.67 2.67 0 011.08.23.4.4 0 00.55-.24l1.11-3.33a.39.39 0 00-.24-.5 4.9 4.9 0 00-1.59-.29 3.23 3.23 0 00-2.89 1.76.05.05 0 01-.1 0 2 2 0 00-1.9-1.75 6.18 6.18 0 00-2 .38 1 1 0 00-.68 1v11.1h1.21a5.59 5.59 0 013.56-2.17"/><path d="M34.31 25.82a4.39 4.39 0 00.24 1.44 9.29 9.29 0 013.1 1.29 1.35 1.35 0 01.59 1h.22A7.56 7.56 0 0144.58 27a9.31 9.31 0 011.53.12v-5.54c0-3-2.07-4.68-5.62-4.68a10.76 10.76 0 00-5.3 1.32.35.35 0 00-.13.5l1.5 2.34a.36.36 0 00.47.11 5.63 5.63 0 012.62-.76c1.22 0 1.55.45 1.67 1.21h-.67c-4.08 0-6.34 1.55-6.34 4.2m7-1.6c0 1.46-.73 1.93-1.69 1.93a.76.76 0 01-.86-.81c0-.69.72-1.12 2-1.12zM24.5 4.91a2.54 2.54 0 002.56-2.57A2.29 2.29 0 0024.51 0a2.29 2.29 0 00-2.57 2.43 2.31 2.31 0 002.56 2.48M58.53 14.8L60 17a.43.43 0 01-.14.6 10 10 0 01-5 1.28c-4.11 0-6.54-2.27-6.54-6.13 0-4.1 2.51-6.56 6.75-6.56 3.29 0 5.18 1.58 5.18 4.15s-2.39 3.94-6.35 3.94a6.44 6.44 0 01-.76 0c.28.72.9 1.1 2.07 1.1a5.54 5.54 0 002.8-.7.42.42 0 01.57.14M53 11.58a.08.08 0 00.08.11c.54.05 2.54.16 2.54-1.08 0-.45-.33-.78-1-.78s-1.39.64-1.62 1.75M49.18 6.49a5 5 0 00-1.6-.29A3.23 3.23 0 0044.7 8a.05.05 0 01-.1 0 2 2 0 00-1.9-1.8 6.18 6.18 0 00-2 .38 1 1 0 00-.68 1V16h.42a7.79 7.79 0 014.35 1.12V14c0-3 .65-3.67 1.84-3.67a2.67 2.67 0 011.08.23.4.4 0 00.55-.24L49.42 7a.4.4 0 00-.24-.5M30.33 17a4 4 0 012.73-1 6 6 0 011.91.34 1.27 1.27 0 01.73.63c.34-.15.68-.27 1-.39l3.1-9.16a.44.44 0 00-.35-.57l-3.57-.53a.44.44 0 00-.49.33l-1.7 8h-.09l-1.14-6.33a2.45 2.45 0 00-2.63-2.12 7.41 7.41 0 00-2.34.41.67.67 0 00-.39.85z"/><path d="M19.22 15.94a6.79 6.79 0 015.38 2 2 2 0 011.31-1.61 9.12 9.12 0 011-.28V6.93a.49.49 0 00-.5-.49h-3.76a.49.49 0 00-.5.49v7.82a3.21 3.21 0 01-1.57.39.87.87 0 01-1-1V2.07a2 2 0 00-2.15-2 6.11 6.11 0 00-2 .41.91.91 0 00-.6.85v13.19a5.48 5.48 0 00.38 2.08 11.76 11.76 0 014-.66"/></g></g></symbol>
    <symbol viewBox="0 0 123.18 50" id="z-logo" xmlns="http://www.w3.org/2000/svg"><g data-name="Camada 2"><g data-name="Capa 1" fill="#c94875"><path d="M75.09 14.08a6.1 6.1 0 002.11-4.57 5.52 5.52 0 00-5.58-5.58c-2.83 0-5.28 1.88-8.28 5l-.21-.23C58.39 3.45 55.25 0 51.42 0a5.52 5.52 0 00-5.58 5.58A6.09 6.09 0 0048 10.15a6.12 6.12 0 00-2.11 4.57 5.52 5.52 0 005.58 5.59c2.83 0 5.28-1.89 8.28-5l.21.22c4.74 5.23 7.88 8.68 11.71 8.68a5.52 5.52 0 005.58-5.58 6.1 6.1 0 00-2.16-4.55zm-19.26 2.5c-1.68 1.37-3 2-4.41 2a3.77 3.77 0 01-3.84-3.85 4.32 4.32 0 011.5-3.24l.29-.25 1.45-1.08-1.45-1.08-.29-.25a4.34 4.34 0 01-1.5-3.25 3.77 3.77 0 013.84-3.84 7 7 0 014.41 2 63.94 63.94 0 016 6.11l.28.3-.28.31a63 63 0 01-6 6.12zm18.53 4.81a3.86 3.86 0 01-2.74 1.1 7 7 0 01-4.41-2 66.7 66.7 0 01-6-6.12l-.28-.3.28-.3a65.43 65.43 0 016-6.12 7 7 0 014.41-2 3.76 3.76 0 013.84 3.84A4.34 4.34 0 0174 12.76l-.29.24-1.45 1.08 1.45 1.08.29.24a4.34 4.34 0 011.5 3.25 3.86 3.86 0 01-1.14 2.74z"/><circle cx="63.34" cy="3.2" r="1.3"/><path d="M8.92 32.08l-2.71 9.33a.94.94 0 01-.91.68.92.92 0 01-.88-.62L.09 29.61A1.17 1.17 0 010 29.2a.93.93 0 01.94-.95.94.94 0 01.89.62l3.41 9.75L8 28.87a.89.89 0 01.88-.62.9.9 0 01.88.62l2.8 9.75L16 28.87a.94.94 0 011.83.33 1.17 1.17 0 01-.09.41l-4.32 11.86a.92.92 0 01-.88.62.94.94 0 01-.91-.68zM31.29 35.14c0 4.83-2.35 7.1-6.18 7.1s-6.18-2.27-6.18-7.1 2.38-7.06 6.18-7.06 6.18 2.23 6.18 7.06zm-1.91 0c0-3.71-1.56-5.35-4.27-5.35s-4.27 1.64-4.27 5.35 1.56 5.39 4.27 5.39 4.27-1.62 4.27-5.39zM44.12 24.71a1 1 0 00-.94.94v15.5a1 1 0 00.94.94 1 1 0 00.94-.94v-15.5a1 1 0 00-.94-.94zM58.66 30v-4.35a.95.95 0 011.89 0v10.79c0 3.88-2.42 5.8-5.77 5.8-3.8 0-6-2.27-6-7.1s2.12-7.06 5.92-7.06A5 5 0 0158.66 30zm0 2.39a4.44 4.44 0 00-3.88-2.59c-2.68 0-4.15 1.73-4.15 5.35s1.44 5.39 4.15 5.39c2.26 0 3.88-1.3 3.88-4.09zM35.82 29.77a5.74 5.74 0 014.47-1.63.91.91 0 110 1.82c-2.7 0-4.09 1.89-4.09 4.59v6.6a.94.94 0 11-1.88 0v-8.34a5.17 5.17 0 011.5-3.04zM89.35 24.23a1 1 0 00-.94.95v16a1 1 0 00.94.94 1 1 0 00.94-.94v-16a1 1 0 00-.94-.95zM68.66 28.08a5.57 5.57 0 014.54 2 .9.9 0 01.2.56.83.83 0 01-.85.85.89.89 0 01-.71-.35 3.77 3.77 0 00-3.18-1.38c-2.71 0-4.15 1.73-4.15 5.35s1.44 5.39 4.15 5.39a5.38 5.38 0 003.42-1.27.9.9 0 01.56-.2.85.85 0 01.85.85.93.93 0 01-.38.74 6.72 6.72 0 01-4.45 1.59c-3.8 0-6.06-2.27-6.06-7.1s2.26-7.03 6.06-7.03zM87 35.14c0 4.83-2.36 7.1-6.18 7.1s-6.19-2.27-6.19-7.1 2.39-7.06 6.19-7.06S87 30.31 87 35.14zm-1.92 0c0-3.71-1.56-5.35-4.26-5.35s-4.27 1.64-4.27 5.35 1.56 5.39 4.27 5.39 4.25-1.62 4.25-5.39zM104.37 35.14c0 4.83-2.35 7.1-6.18 7.1S92 40 92 35.14s2.38-7.06 6.18-7.06 6.19 2.23 6.19 7.06zm-1.91 0c0-3.71-1.56-5.35-4.27-5.35s-4.27 1.64-4.27 5.35 1.56 5.39 4.27 5.39 4.27-1.62 4.27-5.39zM107.38 29.77a5.78 5.78 0 014.48-1.63.91.91 0 010 1.82c-2.71 0-4.09 1.89-4.09 4.59v6.6a.95.95 0 01-1.89 0v-8.34a5.17 5.17 0 011.5-3.04zM115.44 31.67c0 3.09 7.74 1.94 7.74 6.65 0 2.68-2.21 3.89-5 3.89a6.61 6.61 0 01-5-2.12.89.89 0 01-.21-.56.86.86 0 01.86-.85.9.9 0 01.65.29 5 5 0 003.73 1.44c1.68 0 3.12-.56 3.12-2.09 0-3-7.74-1.82-7.74-6.65 0-2.44 2-3.56 4.51-3.56a5.35 5.35 0 014.43 1.89.91.91 0 01.21.56.86.86 0 01-.86.85.87.87 0 01-.62-.26 4.14 4.14 0 00-3.2-1.24c-1.33-.01-2.62.4-2.62 1.76zM33.81 45.5a.19.19 0 01.22-.22c.13 0 .21.06.21.22a.2.2 0 01-.21.22.2.2 0 01-.22-.22zm.4 3.23a.18.18 0 01-.36 0v-2.3a.18.18 0 01.36 0zM36.32 48.8l-1-2.29v-.08a.18.18 0 01.19-.18.18.18 0 01.17.12l.79 2 .8-2a.17.17 0 01.17-.12.18.18 0 01.18.18.15.15 0 010 .08l-1 2.29a.18.18 0 01-.17.11.2.2 0 01-.13-.11zM42.14 46.22a1 1 0 011.08 1.1c0 .16 0 .36-.23.36h-1.65a.83.83 0 00.86.92 1 1 0 00.67-.24.2.2 0 01.11 0 .16.16 0 01.16.16.18.18 0 01-.06.13 1.25 1.25 0 01-.88.32c-.76 0-1.23-.42-1.23-1.37s.43-1.38 1.17-1.38zm0 .32a.78.78 0 00-.8.82h1.52c0-.36-.14-.82-.72-.82zM46.75 46.55a1.08 1.08 0 01.86-.33c.74 0 1.18.43 1.18 1.35s-.44 1.37-1.18 1.37a.91.91 0 01-.77-.4v1.28a.18.18 0 01-.36 0v-2.56a1.24 1.24 0 01.27-.71zm.86 2.06c.52 0 .82-.33.82-1s-.31-1-.83-1-.77.3-.77 1 .34 1 .78 1zM50.32 46.84a.15.15 0 01-.14.08.17.17 0 01-.17-.16.17.17 0 010-.1 1 1 0 01.94-.44.91.91 0 011 1v.92c0 .6-.79.84-1.16.84-.6 0-1-.29-1-.81s.38-.8 1-.8h.8v-.15a.6.6 0 00-.67-.62.81.81 0 00-.6.24zm1.33 1v-.24h-.8c-.37 0-.62.15-.62.48s.2.48.64.48a.72.72 0 00.78-.67zM61.36 46.91c0 .59 1.49.37 1.49 1.27 0 .52-.42.75-1 .75a1.26 1.26 0 01-1-.41.14.14 0 010-.1.18.18 0 01.17-.17.15.15 0 01.12.06 1 1 0 00.72.28c.32 0 .6-.11.6-.41 0-.58-1.49-.35-1.49-1.27 0-.47.39-.69.87-.69a1.05 1.05 0 01.86.36.29.29 0 010 .11.17.17 0 01-.16.17.19.19 0 01-.12 0 .78.78 0 00-.61-.24c-.2-.05-.45.03-.45.29zM65.13 46.22a1 1 0 011.08 1.1c0 .16 0 .36-.22.36h-1.65a.82.82 0 00.85.92 1 1 0 00.68-.24.15.15 0 01.1 0 .16.16 0 01.16.16.15.15 0 01-.06.13 1.22 1.22 0 01-.88.32c-.75 0-1.22-.42-1.22-1.37s.43-1.38 1.16-1.38zm0 .32a.76.76 0 00-.79.82h1.52c0-.36-.14-.82-.73-.82zM75.79 47.22v1.51a.18.18 0 11-.36 0v-1.44c0-.45-.16-.75-.71-.75a.62.62 0 00-.71.68v1.51a.18.18 0 11-.36 0v-1.44c0-.45-.14-.75-.69-.75s-.7.32-.7.79v1.4a.18.18 0 11-.36 0v-1.6c0-.75.73-.91 1.1-.91a1 1 0 01.89.39.92.92 0 01.83-.39c.87 0 1.07.52 1.07 1zM78.14 46.22a1 1 0 011.08 1.1c0 .16 0 .36-.23.36h-1.65a.83.83 0 00.86.92 1 1 0 00.67-.24.2.2 0 01.11 0 .16.16 0 01.16.16.18.18 0 01-.06.13 1.25 1.25 0 01-.88.32c-.76 0-1.23-.42-1.23-1.37s.43-1.38 1.17-1.38zm0 .32a.78.78 0 00-.8.82h1.52c0-.36-.14-.82-.72-.82zM82.61 47.22v1.51a.18.18 0 11-.36 0v-1.44c0-.45-.13-.75-.68-.75s-.75.34-.75.79v1.4a.18.18 0 01-.18.18.17.17 0 01-.18-.18v-1.48a1 1 0 011.11-1c.87-.03 1.04.49 1.04.97zM87.9 47.22v1.51a.18.18 0 01-.36 0v-1.44c0-.45-.13-.75-.68-.75s-.75.34-.75.79v1.4a.18.18 0 01-.18.18.17.17 0 01-.18-.18v-1.48a1 1 0 011.11-1c.87-.03 1.04.49 1.04.97zM83.93 45.5c0-.16.08-.22.21-.22a.19.19 0 01.22.22.2.2 0 01-.22.22.2.2 0 01-.21-.22zm.39 3.23a.18.18 0 11-.36 0v-2.3a.18.18 0 11.36 0zM32.33 48.73a.18.18 0 01-.36 0V45a.18.18 0 11.36 0zM39.06 46.55a1.13 1.13 0 01.86-.31.18.18 0 01.17.17.18.18 0 01-.17.18c-.52 0-.78.36-.78.88v1.26a.18.18 0 01-.18.18.17.17 0 01-.18-.18v-1.6a1 1 0 01.28-.58zM53.64 46.55a1.13 1.13 0 01.86-.31.18.18 0 01.17.17.18.18 0 01-.17.18.77.77 0 00-.79.88v1.26a.18.18 0 01-.36 0v-1.6a1 1 0 01.29-.58zM67.74 46.55a1.09 1.09 0 01.85-.31.18.18 0 01.18.17.18.18 0 01-.18.18c-.52 0-.78.36-.78.88v1.26a.18.18 0 11-.36 0v-1.6a1 1 0 01.29-.58zM56 46.84a.17.17 0 01-.15.08.16.16 0 01-.16-.16.17.17 0 010-.1 1 1 0 01.94-.44.91.91 0 011 1v.92c0 .6-.79.84-1.15.84-.6 0-1-.29-1-.81s.38-.8 1-.8h.79v-.15a.59.59 0 00-.66-.62.81.81 0 00-.61.24zm1.32 1v-.24h-.79c-.37 0-.63.15-.63.48s.21.48.65.48a.72.72 0 00.79-.67zM89.53 46.84a.15.15 0 01-.14.08.17.17 0 01-.17-.16.17.17 0 010-.1 1 1 0 01.94-.44.91.91 0 011 1v.92c0 .6-.79.84-1.16.84-.6 0-1-.29-1-.81s.38-.8 1-.8h.8v-.15a.6.6 0 00-.67-.62.81.81 0 00-.6.24zm1.33 1v-.24h-.8c-.37 0-.62.15-.62.48s.2.48.64.48a.72.72 0 00.78-.67z"/></g></g></symbol>
    <symbol viewBox="0 0 145.82 50" id="z-logo-mobile" xmlns="http://www.w3.org/2000/svg"><g data-name="Camada 2"><g data-name="Capa 1" fill="#e3457b"><path d="M88.89 16.67a7.22 7.22 0 002.5-5.41 6.54 6.54 0 00-6.61-6.61c-3.35 0-6.25 2.23-9.8 5.89l-.24-.26C69.12 4.09 65.41 0 60.87 0a6.54 6.54 0 00-6.61 6.61A7.2 7.2 0 0056.77 12a7.2 7.2 0 00-2.51 5.41A6.54 6.54 0 0060.87 24c3.35 0 6.25-2.23 9.81-5.9l.24.27c5.62 6.19 9.33 10.28 13.86 10.28a6.54 6.54 0 006.61-6.61 7.22 7.22 0 00-2.5-5.37zm-22.8 3c-2 1.62-3.6 2.35-5.22 2.35a4.47 4.47 0 01-4.55-4.55 5.13 5.13 0 011.78-3.84l.35-.29L60.16 12l-1.71-1.28-.35-.29a5.13 5.13 0 01-1.78-3.84 4.47 4.47 0 014.55-4.55c1.62 0 3.23.73 5.22 2.35a76 76 0 017.11 7.24l.33.36-.33.36a76 76 0 01-7.11 7.28zM88 25.32a4.54 4.54 0 01-3.24 1.31c-1.62 0-3.23-.73-5.22-2.35A76.31 76.31 0 0172.45 17l-.32-.36.32-.36a77.25 77.25 0 017.11-7.24c2-1.63 3.6-2.35 5.22-2.35a4.47 4.47 0 014.55 4.55 5.1 5.1 0 01-1.78 3.84l-.34.29-1.72 1.28 1.72 1.27.34.29a5.14 5.14 0 011.78 3.85A4.53 4.53 0 0188 25.32z"/><circle cx="74.98" cy="3.79" r="1.54"/><path d="M10.56 38L7.35 49a1.12 1.12 0 01-1.08.81 1.07 1.07 0 01-1-.74L.1 35.05a1.34 1.34 0 01-.1-.49 1.1 1.1 0 011.11-1.11 1.09 1.09 0 011.05.73l4 11.53 3.35-11.53a1.07 1.07 0 011.05-.73 1 1 0 011 .73l3.31 11.53L19 34.18a1.08 1.08 0 011-.73 1.1 1.1 0 011.12 1.11 1.37 1.37 0 01-.11.49l-5.12 14a1.08 1.08 0 01-1 .74 1.11 1.11 0 01-1.12-.79zM37 41.6c0 5.72-2.79 8.4-7.32 8.4s-7.32-2.68-7.32-8.4 2.83-8.36 7.32-8.36S37 35.89 37 41.6zm-2.26 0c0-4.39-1.85-6.34-5.06-6.34s-5 2-5 6.34 1.85 6.38 5 6.38 5.1-1.92 5.1-6.38zM52.23 29.25a1.15 1.15 0 00-1.11 1.12v18.34a1.12 1.12 0 001.11 1.12 1.16 1.16 0 001.12-1.12V30.37a1.13 1.13 0 00-1.12-1.12zM69.45 35.5v-5.13a1.12 1.12 0 112.23 0v12.77c0 4.59-2.86 6.86-6.83 6.86-4.5 0-7.15-2.68-7.15-8.4s2.51-8.36 7-8.36a5.93 5.93 0 014.75 2.26zm0 2.83a5.29 5.29 0 00-4.6-3.07c-3.18 0-4.92 2.06-4.92 6.34s1.71 6.4 4.92 6.4c2.68 0 4.6-1.53 4.6-4.84zM42.4 35.24a6.81 6.81 0 015.3-1.93 1.08 1.08 0 010 2.16c-3.21 0-4.84 2.23-4.84 5.43v7.81a1.12 1.12 0 11-2.23 0v-9.87a6.06 6.06 0 011.77-3.6zM105.77 28.69a1.14 1.14 0 00-1.11 1.11v18.91a1.12 1.12 0 001.11 1.12 1.16 1.16 0 001.12-1.12V29.8a1.12 1.12 0 00-1.12-1.11zM81.28 33.24a6.6 6.6 0 015.37 2.4 1.08 1.08 0 01.24.66 1 1 0 01-1 1 1 1 0 01-.83-.42 4.46 4.46 0 00-3.77-1.64c-3.2 0-4.91 2.06-4.91 6.34s1.7 6.42 4.9 6.42a6.36 6.36 0 004-1.5 1.08 1.08 0 01.67-.24 1 1 0 011 1 1.1 1.1 0 01-.46.87A7.92 7.92 0 0181.28 50c-4.49 0-7.18-2.68-7.18-8.4s2.69-8.36 7.18-8.36zM103 41.6c0 5.72-2.79 8.4-7.32 8.4s-7.32-2.68-7.32-8.4 2.82-8.36 7.32-8.36S103 35.89 103 41.6zm-2.27 0c0-4.39-1.85-6.34-5-6.34s-5.06 2-5.06 6.34 1.78 6.4 4.99 6.4 5.05-1.94 5.05-6.4zM123.55 41.6c0 5.72-2.78 8.4-7.32 8.4s-7.31-2.68-7.31-8.4 2.82-8.36 7.31-8.36 7.32 2.65 7.32 8.36zm-2.26 0c0-4.39-1.85-6.34-5.06-6.34s-5 2-5 6.34 1.77 6.4 5 6.4 5.06-1.94 5.06-6.4zM127.12 35.24a6.8 6.8 0 015.3-1.93 1.08 1.08 0 110 2.16c-3.21 0-4.85 2.23-4.85 5.43v7.81a1.12 1.12 0 11-2.23 0v-9.87a6.11 6.11 0 011.78-3.6zM136.65 37.49c0 3.66 9.17 2.3 9.17 7.88 0 3.17-2.62 4.6-5.93 4.6a7.86 7.86 0 01-6-2.51 1.08 1.08 0 01-.24-.67 1 1 0 011-1 1.07 1.07 0 01.77.35 5.89 5.89 0 004.42 1.71c2 0 3.7-.66 3.7-2.47 0-3.59-9.17-2.17-9.17-7.88 0-2.89 2.37-4.22 5.33-4.22a6.36 6.36 0 015.3 2.23 1 1 0 01.24.67 1 1 0 01-1 1 1 1 0 01-.73-.32 5 5 0 00-3.8-1.46c-1.52 0-3.06.49-3.06 2.09z"/></g></g></symbol>
    <symbol viewBox="0 0 16.63 30" id="z-next" xmlns="http://www.w3.org/2000/svg"><g data-name="Camada 2"><path fill="#e3457b" fill-rule="evenodd" d="M14.26 12.5L2.38 0 0 2.5 11.88 15 0 27.5 2.38 30l14.25-15-2.37-2.5z" data-name="Capa 1"/></g></symbol>
    <symbol viewBox="0 0 23 58" id="z-next_1" xmlns="http://www.w3.org/2000/svg"><g data-name="Camada 2"><path fill="#e3457b" d="M0 1.98L5.05 0 23 29.11 5.05 58 0 56.15l16.68-27.04L0 1.98z" data-name="Capa 1"/></g></symbol>
    <symbol viewBox="0 0 30 30" id="z-order-m" xmlns="http://www.w3.org/2000/svg"><g data-name="Camada 2"><g data-name="Capa 1" fill="#e3457b"><path d="M15 0A15 15 0 004.61 25.81a.79.79 0 00.21.28l.36.31a15 15 0 007.46 3.41l.59.08c.21 0 .43.05.64.06s.63 0 1 .05H15a15 15 0 000-30zm12.41 15v.62A12.41 12.41 0 0115 27.41v.78l-.05-.78H14l-.53-.06a2 2 0 01-.24 0l-.52-.08h-.2c-.22 0-.43-.09-.65-.15l-.32-.09-.34-.1-.36-.13-.27-.1-.39-.15h-.06c-.3-.13-.6-.27-.89-.43l-.19-.09-.39-.23a1.18 1.18 0 00-.19-.11l-.27-.17a12.64 12.64 0 01-2.15-1.78 12.41 12.41 0 019-21A12.4 12.4 0 0127.41 15z"/><path d="M22.14 9h-11a1.3 1.3 0 000 2.59h11a1.3 1.3 0 100-2.59zM22.14 13.7h-11a1.3 1.3 0 000 2.6h11a1.3 1.3 0 000-2.6zM22.14 18.41h-11a1.3 1.3 0 000 2.59h11a1.3 1.3 0 100-2.59zM7.83 9a1.27 1.27 0 00-1.27 1.27v.06a1.27 1.27 0 002.54 0v-.06A1.27 1.27 0 007.83 9zM7.83 13.7A1.27 1.27 0 006.56 15a1.27 1.27 0 002.54 0 1.27 1.27 0 00-1.27-1.3zM7.83 18.41a1.26 1.26 0 00-1.27 1.26v.06a1.27 1.27 0 102.54 0v-.06a1.26 1.26 0 00-1.27-1.26z"/></g></g></symbol>
    <symbol viewBox="0 0 16.63 30" id="z-prev" xmlns="http://www.w3.org/2000/svg"><g data-name="Camada 2"><path fill="#e3457b" fill-rule="evenodd" d="M16.63 2.5L14.26 0 0 15l2.38 2.5L14.26 30l2.37-2.5L4.75 15 16.63 2.5z" data-name="Capa 1"/></g></symbol>
    <symbol viewBox="0 0 23 58" id="z-prev_1" xmlns="http://www.w3.org/2000/svg"><g data-name="Camada 2"><path fill="#e3457b" d="M23 1.98L17.95 0 0 29.11 17.95 58 23 56.15 6.32 29.11 23 1.98z" data-name="Capa 1"/></g></symbol>
    <symbol viewBox="0 0 31 31" id="z-search" xmlns="http://www.w3.org/2000/svg"><g stroke-miterlimit="10"><path d="M18.91 21.79a2.44 2.44 0 00.69 1.3l6.67 6.66a2.46 2.46 0 003.48-3.48l-6.66-6.67a2.44 2.44 0 00-1.3-.69z" fill="#9cd7d7" stroke="#9cd7d7"/><path d="M21.84 19A11.75 11.75 0 1019 21.84 13.78 13.78 0 0021.84 19zm-3.38-.5A8.9 8.9 0 016 18.46 8.9 8.9 0 016 6a8.9 8.9 0 0112.46 0 8.9 8.9 0 010 12.46z" fill="#e3457b" stroke="#e3457b"/></g></symbol>
    <symbol viewBox="0 0 23.86 31" id="z-user" xmlns="http://www.w3.org/2000/svg"><g data-name="Camada 2"><g stroke-miterlimit="10" data-name="Capa 1"><path d="M23 25a5 5 0 00-1.44-1.19l-4.86-2.95-.15-.1h-2.63a.36.36 0 01-.35-.31 2.38 2.38 0 00.83 1.95 5 5 0 00.77.56l.11.08 4.52 2.74a14.42 14.42 0 01-7.61 2.12h-.52a14.48 14.48 0 01-7.62-2.12L8.57 23h.12a4.89 4.89 0 00.74-.54 2.4 2.4 0 00.85-2 .34.34 0 01-.35.33H7.31l-.15.1-4.84 2.9A4.88 4.88 0 00.87 25a1.31 1.31 0 00-.3 1 1.27 1.27 0 00.49.88 16.87 16.87 0 0010.61 3.62h.52a16.91 16.91 0 0010.61-3.66A1.31 1.31 0 0023 25z" fill="#acd5d9" stroke="#9cd7d7"/><path d="M1.33 20.31a3.82 3.82 0 002.3.45h6.3a.34.34 0 00.35-.33s0 0 0 0a2.24 2.24 0 00-2.24-2.24H3.56a22.83 22.83 0 003-9.34 8.55 8.55 0 01.6-2.71 4.78 4.78 0 014.73-3 4.79 4.79 0 014.73 3 8.75 8.75 0 01.6 2.66 22.86 22.86 0 003 9.39H15.8a2.24 2.24 0 00-2.24 2.24v.05a.36.36 0 00.35.31h6.31a3.82 3.82 0 002.3-.45 1.18 1.18 0 00.25-.19 1.78 1.78 0 00.58-1.24 2 2 0 00-.21-1 .41.41 0 000-.09 21.93 21.93 0 01-3.26-9.26A10.92 10.92 0 0019 5 7.36 7.36 0 0011.93.5 7.36 7.36 0 004.84 5 11.23 11.23 0 004 8.59a21.81 21.81 0 01-3.24 9.22l-.06.1a2.07 2.07 0 00-.2 1 1.74 1.74 0 00.58 1.24 1 1 0 00.25.16z" fill="#c64478" stroke="#e3457b"/></g></g></symbol>
    <symbol viewBox="0 0 30 30" id="z-user-m" xmlns="http://www.w3.org/2000/svg"><g data-name="Camada 2"><g data-name="Capa 1" fill="#e3457b"><path d="M15 .78A14.21 14.21 0 00.78 15a14 14 0 004.6 10.45v.05l.36.31a14.57 14.57 0 007.09 3.26 2.12 2.12 0 00.56.05c.21 0 .42.05.63.05H15.15A14.22 14.22 0 0015 .78zm0 27.41h-.16a3.26 3.26 0 01-.72-.05 13.3 13.3 0 01-7.29-2.85 1.91 1.91 0 01.67-.46l4.71-2a2.23 2.23 0 00.79-1.11.86.86 0 00-.05-.88.91.91 0 00-.77-.41H8.9a7.55 7.55 0 01-2-.46 1.48 1.48 0 00-.26-.11.22.22 0 000-.15c1.19-1.66 3.16-5 3.21-8.49 0-.2.16-4.81 4.81-4.86a4.87 4.87 0 014.71 3 8.17 8.17 0 01.63 2.48 18 18 0 002.74 7.82.65.65 0 010 .31.43.43 0 01-.15.25 2.22 2.22 0 01-1.25.21H18a1 1 0 00-.83.57 1 1 0 00.26 1c.36.31.52.36.57.42l3.93 2.38a2.93 2.93 0 01.88.72A12.46 12.46 0 0115 28.19zm8.69-3.26a3.94 3.94 0 00-1.19-1l-3.93-2.38a.19.19 0 01-.11-.05h2.85a3 3 0 001.91-.37 1.3 1.3 0 00.62-.88 1.47 1.47 0 00-.15-1.13 16.49 16.49 0 01-2.59-7.35 7.91 7.91 0 00-.62-2.84 5.86 5.86 0 00-5.64-3.62C9.16 5.38 9 11.12 9 11.17c0 3.36-2.12 6.67-3 7.92a1 1 0 00-.21 1 1.31 1.31 0 00.83.83 9.25 9.25 0 002.32.57H12c-.1.15-.21.36-.26.41L7 23.9a4.19 4.19 0 00-1 .72A13 13 0 011.81 15a13.19 13.19 0 1121.83 9.93z"/><path d="M15.1 30h-.2a4.58 4.58 0 01-.53 0h-.81a7.18 7.18 0 01-.94-.09 15.22 15.22 0 01-7.43-3.51l-.37-.31a.78.78 0 01-.21-.3A15 15 0 1115.1 30zm-6.91-4.64a12.52 12.52 0 005.94 2h.13a4 4 0 00.53 0H15a11.65 11.65 0 006.55-2l-3.94-2.39h-.08a5.1 5.1 0 01-.6-.44 1.71 1.71 0 01-.5-1.78l.06-.14a1.75 1.75 0 011.52-1h3.57a1.27 1.27 0 00.34 0 18.42 18.42 0 01-2.62-7.76 6.82 6.82 0 00-.5-2.21 4.1 4.1 0 00-4-2.55c-4 0-4 3.92-4 4.09a16.16 16.16 0 01-2.87 8.23c.49.12 1 .18 1.1.2h3.22a1.69 1.69 0 011.44.79 1.65 1.65 0 01.08 1.62 3 3 0 01-1.14 1.41h-.08zm13-3.11l1.63 1a4.87 4.87 0 01.83.6A12.19 12.19 0 0027.41 15a12.41 12.41 0 00-24.82 0A12.16 12.16 0 006 23.58c.19-.14.38-.25.56-.36a1.06 1.06 0 01.25-.09l2.08-.89h-.05a9.43 9.43 0 01-2.62-.63 2.07 2.07 0 01-1.28-1.33 1.78 1.78 0 01.33-1.64c.3-.41 2.85-3.91 2.9-7.48 0-1.69 1.22-6.56 6.61-6.66a6.65 6.65 0 016.36 4.09 8.61 8.61 0 01.69 3.11 15.86 15.86 0 002.47 7 2.26 2.26 0 01.25 1.71 2.1 2.1 0 01-.95 1.36 3.89 3.89 0 01-2.38.48zM17.4 23z"/></g></g></symbol>
    <symbol viewBox="0 0 42.58 30" id="z-youtube" xmlns="http://www.w3.org/2000/svg"><g data-name="Camada 2"><path d="M41.69 4.68A5.34 5.34 0 0037.93.9C34.61 0 21.29 0 21.29 0S8 0 4.65.9A5.34 5.34 0 00.89 4.68C0 8 0 15 0 15s0 7 .89 10.32a5.34 5.34 0 003.76 3.78c3.35.9 16.64.9 16.64.9s13.32 0 16.64-.9a5.34 5.34 0 003.76-3.78c.89-3.32.89-10.32.89-10.32s0-7-.89-10.32M16.94 21.33V8.67L28.06 15z" fill="#e3457b" data-name="Capa 1"/></g></symbol>
</svg>