<svg id="svg-sprite" class="svg-sprites">
    <defs>
        <linearGradient id="color1_h" x1="0%" x2="100%" y1="0%" y2="0%"><stop offset="0%" style="stop-color:{{color1_bg}};stop-opacity:1" /><stop offset="100%" style="stop-color:{{color1_bg_hover}};stop-opacity:1" /></linearGradient>
        <linearGradient id="color1_v" x1="0%" x2="0%" y1="0%" y2="100%"><stop offset="0%" style="stop-color:{{color1_bg}};stop-opacity:1" /><stop offset="100%" style="stop-color:{{color1_bg_hover}};stop-opacity:1" /></linearGradient>
        <linearGradient id="color2_h" x1="0%" x2="100%" y1="0%" y2="0%"><stop offset="0%" style="stop-color:{{color2_bg}};stop-opacity:1" /><stop offset="100%" style="stop-color:{{color2_bg_hover}};stop-opacity:1" /></linearGradient>
        <linearGradient id="color2_v" x1="0%" x2="0%" y1="0%" y2="100%"><stop offset="0%" style="stop-color:{{color2_bg}};stop-opacity:1" /><stop offset="100%" style="stop-color:{{color2_bg_hover}};stop-opacity:1" /></linearGradient>
        <linearGradient id="color3_h" x1="0%" x2="100%" y1="0%" y2="0%"><stop offset="0%" style="stop-color:{{color3_bg}};stop-opacity:1" /><stop offset="100%" style="stop-color:{{color3_bg_hover}};stop-opacity:1" /></linearGradient>
        <linearGradient id="color3_v" x1="0%" x2="0%" y1="0%" y2="100%"><stop offset="0%" style="stop-color:{{color3_bg}};stop-opacity:1" /><stop offset="100%" style="stop-color:{{color3_bg_hover}};stop-opacity:1" /></linearGradient>
        <linearGradient id="button_h" x1="0%" x2="100%" y1="0%" y2="0%"><stop offset="0%" style="stop-color:{{button_bg}};stop-opacity:1" /><stop offset="100%" style="stop-color:{{button_bg_hover}}; ?>;stop-opacity:1" /></linearGradient>
        <linearGradient id="button_v" x1="0%" x2="0%" y1="0%" y2="100%"><stop offset="0%" style="stop-color:{{button_bg}};stop-opacity:1" /><stop offset="100%" style="stop-color:{{button_bg_hover}};stop-opacity:1" /></linearGradient>
    </defs>
    <symbol id="img-busca" viewBox="0 0 100 100"><path d="M99.309,91.326l-7.507,7.507c-0.921,0.921-2.415,0.921-3.337,0 L67.951,78.319c-7.044,5.057-15.68,8.035-25.012,8.035C19.225,86.354,0,67.13,0,43.416C0,19.701,19.225,0.477,42.939,0.477 s42.939,19.224,42.939,42.939c0,8.841-2.674,17.058-7.255,23.888l20.686,20.686C100.23,88.911,100.23,90.404,99.309,91.326z M42.939,11.683c-17.525,0-31.732,14.207-31.732,31.732c0,17.525,14.207,31.732,31.732,31.732c17.525,0,31.732-14.207,31.732-31.732 C74.671,25.89,60.464,11.683,42.939,11.683z"/></symbol>
    <symbol id="img-cart" viewBox="0 0 100 100"><path d="M99.883,15.038c-2.06,13.129-4.11,26.257-6.172,39.382 c-0.695,4.873-4.982,8.914-9.735,9.162c-20.96,0.008-41.923-0.005-62.883,0.005c-3.934,0.037-8.275-3.469-7.281-9.094 c1.936-12.412,3.883-24.819,5.827-37.23c0.162-1.148-0.774-2.368-1.926-2.338c-5.035-0.11-10.069-0.11-15.104-0.162 c-1.188,0.021-2.345-0.878-2.53-2.115c-0.198-1.435,0.057-2.881-0.013-4.321c-0.164-3.13,3.597-2.74,2.729-2.711 C32.7,5.613,62.606,5.618,92.513,5.613C99.019,5.575,100.465,11.573,99.883,15.038z M24.14,74.564c5.481,0,9.925,4.443,9.925,9.925 s-4.443,9.925-9.925,9.925s-9.925-4.443-9.925-9.925S18.659,74.564,24.14,74.564z M73.765,74.564c5.481,0,9.925,4.443,9.925,9.925 s-4.443,9.925-9.925,9.925s-9.925-4.443-9.925-9.925S68.283,74.564,73.765,74.564z"/></symbol>
    <symbol id="img-menu" viewBox="0 0 100 100"><path fill="#fff" d="M92.5,57.5h-85C3.357,57.5,0,54.143,0,50 c0-4.143,3.357-7.5,7.5-7.5h85c4.141,0,7.5,3.357,7.5,7.5C100,54.143,96.641,57.5,92.5,57.5z M92.5,27.5h-85 C3.357,27.5,0,24.143,0,20s3.357-7.5,7.5-7.5h85c4.141,0,7.5,3.357,7.5,7.5S96.641,27.5,92.5,27.5z M7.5,72.5h85 c4.141,0,7.5,3.359,7.5,7.5s-3.359,7.5-7.5,7.5h-85C3.357,87.5,0,84.141,0,80S3.357,72.5,7.5,72.5z"/></symbol>
    <symbol id="img-list" viewBox="0 0 100 100"><path d="M89.474,60.526H10.526C4.713,60.526,0,55.818,0,50 c0-5.813,4.713-10.526,10.526-10.526h78.947C95.287,39.474,100,44.187,100,50C100,55.818,95.287,60.526,89.474,60.526z M89.474,23.689H10.526C4.713,23.689,0,18.971,0,13.158C0,7.345,4.713,2.631,10.526,2.631h78.947C95.287,2.631,100,7.345,100,13.158 C100,18.971,95.287,23.689,89.474,23.689z M10.526,76.321h78.947c5.813,0,10.526,4.713,10.526,10.526 c0,5.812-4.713,10.521-10.526,10.521H10.526C4.713,97.368,0,92.66,0,86.848C0,81.034,4.713,76.321,10.526,76.321z"/></symbol>
    <symbol id="img-grid" viewBox="0 0 100 100"><path d="M88.889,61.111c-6.136,0-11.111-4.97-11.111-11.111 c0-6.136,4.976-11.111,11.111-11.111C95.025,38.889,100,43.864,100,50C100,56.142,95.025,61.111,88.889,61.111z M88.889,22.228 c-6.136,0-11.111-4.98-11.111-11.116C77.777,4.975,82.753,0,88.889,0C95.025,0,100,4.975,100,11.111 C100,17.247,95.025,22.228,88.889,22.228z M50,100c-6.136,0-11.111-4.97-11.111-11.105c0-6.137,4.975-11.111,11.111-11.111 c6.136,0,11.111,4.975,11.111,11.111C61.111,95.03,56.136,100,50,100z M50,61.111c-6.136,0-11.111-4.97-11.111-11.111 c0-6.136,4.975-11.111,11.111-11.111c6.136,0,11.111,4.975,11.111,11.111C61.111,56.142,56.136,61.111,50,61.111z M50,22.228 c-6.136,0-11.111-4.98-11.111-11.116C38.889,4.975,43.864,0,50,0c6.136,0,11.111,4.975,11.111,11.111 C61.111,17.247,56.136,22.228,50,22.228z M11.111,100C4.975,100,0,95.03,0,88.895c0-6.137,4.975-11.111,11.111-11.111 c6.136,0,11.111,4.975,11.111,11.111C22.222,95.03,17.247,100,11.111,100z M11.111,61.111C4.975,61.111,0,56.142,0,50 c0-6.136,4.975-11.111,11.111-11.111c6.136,0,11.111,4.975,11.111,11.111C22.222,56.142,17.247,61.111,11.111,61.111z M11.111,22.228C4.975,22.228,0,17.247,0,11.111C0,4.975,4.975,0,11.111,0c6.136,0,11.111,4.975,11.111,11.111 C22.222,17.247,17.247,22.228,11.111,22.228z M88.889,77.783c6.137,0,11.111,4.975,11.111,11.111C100,95.03,95.025,100,88.889,100 c-6.136,0-11.111-4.97-11.111-11.105C77.777,82.758,82.753,77.783,88.889,77.783z"/></symbol>
    <symbol id="img-truck" width="100px" height="50.65px" viewBox="0 0 100 50.65"><path d="M96.518,44.744h-0.079c-0.016,0.006-0.051,0.035-0.062,0.035l-3.525,0.01 c-0.812,3.381-3.925,5.861-7.473,5.861c-3.55,0-6.663-2.48-7.474-5.861h-6.414h-2.061H37.64c-0.812,3.381-3.925,5.861-7.474,5.861 c-3.549,0-6.661-2.48-7.474-5.861l-0.023-0.02h-5.492c-1.936,0-3.511-1.572-3.511-3.504v-0.036l-0.001-0.001l0.001-0.157v-4.096 h0.019l0.022-4.8c0-0.384,0.312-0.694,0.696-0.694h2.061c0.385,0,0.696,0.311,0.696,0.694v4.8h0.018v3.083 c0.011,0.003,0.029,0.006,0.029,0.01c0,0.657,0.527,1.186,1.181,1.197h0.041c0.02-0.005,0.039-0.012,0.06-0.014v0.014h4.225 c0.826-3.419,3.833-5.855,7.407-5.881c3.593,0.025,6.625,2.497,7.421,5.958h29.931v-0.011c0.018,0.002,0.035,0.006,0.053,0.011 h0.053c0.623-0.014,1.116-0.5,1.16-1.117l0.065-33.363v-2.25c-0.005-0.004-0.023-0.006-0.023-0.009c0-0.594-0.438-1.065-1.007-1.161 h-5.489c-0.029,0-0.051-0.016-0.079-0.02H13.573c-0.943,0-1.709-0.764-1.709-1.706c0-0.942,0.766-1.706,1.709-1.706h48.652 C62.244,0.006,62.263,0,62.283,0l0.038,0.011h6.164c0.02,0,0.033,0.01,0.051,0.01h0.595c1.727,0,3.129,1.401,3.129,3.124v3.025 h7.874c0.002,0,0.01,0.004,0.012,0.004h1.851c1.726,0,3.669,0.627,5.378,3.124l2.08,3.284L99.84,28.353 c0.093,0.121,0.143,0.269,0.143,0.421L100,41.268C100,43.186,98.438,44.744,96.518,44.744z M34.416,42.933 c-0.018-2.363-1.878-4.21-4.25-4.21c-2.37,0-4.229,1.844-4.25,4.205c0.002,0.028,0.005,0.059,0.005,0.096 c0,0.02-0.002,0.051-0.005,0.077c0.018,2.364,1.878,4.211,4.25,4.211c2.371,0,4.231-1.846,4.25-4.207 c-0.003-0.027-0.005-0.058-0.005-0.093C34.411,42.991,34.414,42.961,34.416,42.933z M81.128,43.101 c0.019,2.364,1.88,4.211,4.251,4.211c2.369,0,4.23-1.846,4.249-4.207c-0.004-0.027-0.004-0.058-0.004-0.096 c0-0.019,0.002-0.048,0.004-0.076c-0.017-2.363-1.877-4.21-4.249-4.21c-2.371,0-4.23,1.844-4.251,4.205 c0.003,0.028,0.005,0.059,0.005,0.096C81.133,43.043,81.131,43.074,81.128,43.101z M96.53,29.725L83.519,9.614h-9.955v0.101 c-0.029-0.002-0.053-0.017-0.081-0.017c-0.663,0-1.202,0.538-1.202,1.2c0,0.004-0.019,0.006-0.027,0.01l-0.063,29.159 c0.002,0.002,0.01,0.002,0.01,0.005c0,0.661,0.539,1.199,1.201,1.199c0.029,0,0.054-0.015,0.082-0.017v0.09H77.9 c0.797-3.46,3.83-5.933,7.433-5.959c3.563,0.027,6.572,2.464,7.396,5.886h2.953c0.463-0.167,0.802-0.599,0.802-1.12 c0-0.005,0.02-0.008,0.033-0.012v-3.124h0.013V29.725z M40.498,9.601c0,0.943-0.766,1.708-1.711,1.707H1.709 C0.766,11.308,0,10.544,0,9.601c0-0.942,0.766-1.706,1.709-1.706h37.079C39.734,7.895,40.498,8.659,40.498,9.601z M8.312,16.099 h37.079c0.945,0,1.71,0.764,1.71,1.707c0,0.942-0.765,1.706-1.71,1.706H8.312c-0.944,0-1.71-0.764-1.71-1.706 C6.603,16.863,7.368,16.099,8.312,16.099z M12.226,24.303h20.426c0.946,0,1.71,0.764,1.71,1.706c0,0.942-0.764,1.708-1.708,1.706 H12.226c-0.944,0-1.71-0.764-1.71-1.706C10.516,25.067,11.282,24.303,12.226,24.303z"/></symbol>
    <symbol id="img-play" viewBox="0 0 100 100"><path d="M50.002,3.162c-25.826,0-46.835,21.009-46.835,46.841c0,25.826,21.009,46.835,46.835,46.835 c25.826,0,46.83-21.009,46.83-46.835C96.832,24.171,75.828,3.162,50.002,3.162z M50.002,86.871 c-20.36,0-36.875-16.508-36.875-36.868c0-20.369,16.515-36.874,36.875-36.874c20.361,0,36.873,16.505,36.873,36.874 C86.875,70.363,70.363,86.871,50.002,86.871z"/><path d="M40.563,34.64c-0.829-0.833-2.949-0.833-2.949,0v33.845c0,0.834,2.125,0.834,2.957,0l27.781-15.417 c0.832-0.829,0.846-2.178,0.016-3.01L40.563,34.64z"/></symbol>
    <symbol id="img-cupon" viewBox="0 0 100 100"><path d="M91.587,76.389c-14.463,17.485-27.424-1.811-28.438-3.482 c1.571-1.567,3.143-3.135,4.728-4.69c4.472,8.536,9.679,9.151,12.462,8.463c3.479-0.818,9.478-5.07,12.231-17.947 c3.006-14.601-1.187-26.26-4.991-31.962c-0.049-3.043-0.005-6.086-0.022-9.128c7.704,5.702,12.216,17.328,12.438,30.442 C100.129,57.49,97.922,68.657,91.587,76.389z M31.279,89.924C29.105,88.104,5.395,64.951,1.911,61.469 c-1.861-1.807-2.454-4.758-1.374-7.117c0.502-1.228,1.494-2.146,2.42-3.06C17.627,36.719,44.774,9.833,44.774,9.833 S64.869,9.835,74.916,9.84c3.227,0.04,6.091,2.85,6.193,6.046c0.011,10.042,0.004,30.122,0.004,30.122L38.261,88.564 C38.261,88.564,33.776,91.991,31.279,89.924z M62.077,34.978c2.354,0.084,4.679-1.244,5.794-3.3c1.064-1.87,1.071-4.274,0.018-6.15 c-1.36-2.548-4.584-3.927-7.376-3.086c-3.031,0.774-5.141,3.974-4.64,7.045C56.248,32.494,59.024,34.958,62.077,34.978z"/></symbol>
    <symbol id="img-os-new" width="68.396px" height="100px" viewBox="0 0 68.396 100"><path d="M68.292,99.155c-0.139,0.333-0.406,0.6-0.74,0.738 c-0.335,0.138-0.711,0.138-1.049,0c-0.163-0.071-0.315-0.17-0.445-0.295l-4.502-4.502l-4.504,4.502c-0.535,0.535-1.4,0.535-1.935,0 l-4.504-4.502l-4.506,4.502c-0.533,0.535-1.398,0.535-1.932,0l-4.507-4.502l-4.504,4.502c-0.534,0.535-1.4,0.535-1.933,0 l-4.506-4.502l-4.505,4.502c-0.533,0.535-1.398,0.535-1.933,0l-4.505-4.502l-4.504,4.502c-0.535,0.535-1.4,0.535-1.933,0 l-4.505-4.502l-4.503,4.502c-0.128,0.125-0.28,0.224-0.445,0.295c-0.337,0.138-0.712,0.138-1.049,0 c-0.334-0.139-0.601-0.404-0.739-0.738C0.038,98.988,0,98.809,0,98.633V13.866c0,0,0,0,0-0.003c0-0.002,0-0.002,0-0.002 c-0.009-2.262,1.835-4.102,4.096-4.102c0.01,0,0.016,0.006,0.025,0.006h14.067v2.734H4.096c-0.004,0-0.007-0.003-0.013-0.003 c-0.749,0.009-1.354,0.616-1.354,1.365c0,0,0,0,0,0.002c0,0.003,0,0.003,0,0.003v81.466l3.137-3.135 c0.267-0.268,0.618-0.399,0.968-0.399s0.701,0.135,0.968,0.399l4.504,4.502l4.504-4.502c0.267-0.268,0.618-0.399,0.968-0.399 c0.351,0,0.701,0.135,0.968,0.399l4.504,4.502l4.505-4.502c0.267-0.268,0.618-0.399,0.968-0.399c0.35,0,0.701,0.135,0.968,0.399 l4.504,4.502l4.504-4.502c0.269-0.268,0.62-0.399,0.968-0.399c0.352,0,0.699,0.135,0.969,0.399l4.504,4.502l4.505-4.502 c0.268-0.268,0.618-0.399,0.969-0.399c0.35,0,0.699,0.135,0.968,0.399l4.504,4.502l4.504-4.502c0.269-0.268,0.62-0.399,0.968-0.399 c0.352,0,0.699,0.135,0.968,0.399l3.139,3.135V13.866c-0.003-0.754-0.618-1.367-1.372-1.367H50.208V9.765h14.083 c2.263,0,4.105,1.84,4.105,4.1v84.768C68.396,98.809,68.357,98.988,68.292,99.155z M47.838,63.063c-1.507,0-2.729-1.834-2.729-4.094 s1.223-4.092,2.729-4.092c1.506,0,2.729,1.832,2.729,4.092S49.344,63.063,47.838,63.063z M27.37,68.522 c0,3.764,3.059,6.823,6.822,6.823c3.764,0,6.824-3.06,6.824-6.823c0-0.755,0.61-1.366,1.364-1.366c0.753,0,1.364,0.611,1.358,1.366 c0,5.266-4.283,9.55-9.549,9.55s-9.551-4.284-9.551-9.55c0-0.755,0.611-1.366,1.366-1.366C26.759,67.156,27.37,67.768,27.37,68.522z M23.708,9.335l2.058-2.058l6.976,6.976L46.995,0l2.059,2.058L32.742,19.222L23.708,9.335z M20.549,63.063 c-1.506,0-2.729-1.834-2.729-4.094s1.222-4.092,2.729-4.092c1.507,0,2.729,1.832,2.729,4.092S22.056,63.063,20.549,63.063z"/></symbol>
    <symbol id="img-os-ok" width="100px" height="94.336px" viewBox="0 0 100 94.336"><path d="M98.148,94.336H1.852C0.828,94.336,0,93.507,0,92.484V29.903 c0-0.008,0-0.013,0-0.016v-0.021c0-0.103,0.039-0.186,0.058-0.284c0.019-0.138,0.023-0.276,0.077-0.412L11.462,1.157 c0.002-0.004,0.005-0.007,0.005-0.01c0.249-0.603,0.807-1.011,1.472-1.101c0.073-0.007,0.141-0.043,0.218-0.043 C13.166,0.003,13.171,0,13.179,0h73.638c0.008,0,0.012,0.003,0.019,0.003c0.104,0,0.203,0.043,0.31,0.06 c0.619,0.115,1.146,0.508,1.385,1.082c0,0.003,0.004,0.005,0.004,0.01l11.329,28.013c0.06,0.136,0.06,0.28,0.081,0.422 c0.014,0.09,0.052,0.175,0.052,0.27v0.022c0,0.003,0,0.007,0.004,0.015v62.587C100,93.507,99.171,94.336,98.148,94.336z M14.429,3.702L4.599,28.011h35.261l2.43-24.309H14.429z M48.146,3.7h-2.137l-2.431,24.309h4.568V3.7z M53.985,3.702h-2.138v24.309 h4.568L53.985,3.702z M56.644,31.713H43.354v4.383l6.057-2.021c0.079-0.027,0.158-0.015,0.239-0.028 c0.118-0.026,0.226-0.04,0.343-0.04c0.127,0,0.247,0.012,0.371,0.041c0.071,0.017,0.148,0,0.218,0.027l6.061,2.021V31.713z M85.567,3.7H57.706l2.429,24.309h35.263L85.567,3.7z M96.296,31.713H60.348v6.952c0,0.102-0.039,0.189-0.059,0.283 c-0.016,0.101-0.004,0.203-0.036,0.305c-0.01,0.017-0.025,0.025-0.033,0.042c-0.119,0.327-0.332,0.593-0.598,0.802 c-0.054,0.042-0.104,0.073-0.166,0.113c-0.285,0.177-0.6,0.308-0.961,0.308c-0.196,0-0.394-0.029-0.586-0.095l-7.911-2.636 l-7.909,2.636c-0.195,0.066-0.39,0.095-0.586,0.095c-0.361,0-0.675-0.132-0.963-0.308c-0.06-0.04-0.112-0.07-0.166-0.113 c-0.266-0.209-0.476-0.476-0.596-0.802c-0.008-0.018-0.027-0.025-0.033-0.042c-0.035-0.103-0.023-0.205-0.039-0.305 c-0.016-0.094-0.056-0.181-0.056-0.283v-6.952H3.702v58.912h92.59h0.004V31.713z M68.515,61.1c-2.045,0-3.704-2.488-3.704-5.556 s1.659-5.554,3.704-5.554s3.704,2.486,3.704,5.554S70.56,61.1,68.515,61.1z M49.992,81.47c-7.145,0-12.961-5.814-12.961-12.959 c0-1.026,0.828-1.855,1.852-1.855c1.026,0,1.854,0.829,1.854,1.855c0,5.105,4.151,9.259,9.259,9.259c5.108,0,9.26-4.155,9.26-9.259 c0-1.026,0.821-1.855,1.846-1.855s1.854,0.829,1.854,1.855C62.955,75.655,57.14,81.47,49.992,81.47z M31.478,61.1 c-2.044,0-3.704-2.488-3.704-5.556s1.659-5.554,3.704-5.554c2.047,0,3.704,2.486,3.704,5.554S33.524,61.1,31.478,61.1z"/></symbol>
    <symbol id="img-os-sent" width="69.697px" height="100px" viewBox="0 0 69.697 100"><path d="M34.849,100C23.879,100,0,52.014,0,34.849C0,15.634,15.635,0,34.849,0 s34.849,15.634,34.849,34.849C69.697,52.014,45.819,100,34.849,100z M34.849,3.029c-17.546,0-31.818,14.274-31.818,31.82 c0,18.415,24.042,62.121,31.818,62.121c7.774,0,31.818-43.706,31.818-62.121C66.667,17.303,52.393,3.029,34.849,3.029z M50,37.875 c-1.673,0-3.03-2.033-3.03-4.544c0-2.509,1.357-4.545,3.03-4.545s3.03,2.036,3.03,4.545C53.03,35.843,51.673,37.875,50,37.875z M34.844,54.546c-5.847,0-10.606-4.759-10.606-10.606c0-0.84,0.677-1.517,1.517-1.517c0.838,0,1.515,0.679,1.515,1.517 c0,4.178,3.398,7.576,7.578,7.576s7.578-3.398,7.578-7.576c0-0.84,0.675-1.517,1.515-1.517s1.516,0.679,1.516,1.517 C45.455,49.787,40.691,54.546,34.844,54.546z M19.697,37.875c-1.673,0-3.03-2.033-3.03-4.544c0-2.509,1.357-4.545,3.03-4.545 c1.673,0,3.03,2.036,3.03,4.545C22.728,35.843,21.37,37.875,19.697,37.875z"/></symbol>
    <symbol id="img-os-hold" width="63.504px" height="100px" viewBox="0 0 63.504 100"><path d="M63.407,99.217c-0.129,0.309-0.377,0.557-0.688,0.685s-0.659,0.128-0.974,0 c-0.151-0.066-0.293-0.157-0.413-0.273l-4.181-4.181l-4.182,4.181c-0.496,0.496-1.3,0.496-1.796,0l-4.183-4.181l-4.183,4.181 c-0.495,0.496-1.299,0.496-1.794,0l-4.185-4.181l-4.182,4.181c-0.496,0.496-1.3,0.496-1.795,0l-4.183-4.181l-4.184,4.181 c-0.495,0.496-1.298,0.496-1.794,0l-4.183-4.181l-4.182,4.181c-0.496,0.496-1.3,0.496-1.795,0L6.35,95.447l-4.181,4.181 c-0.119,0.116-0.26,0.207-0.413,0.273c-0.313,0.128-0.661,0.128-0.974,0c-0.31-0.128-0.558-0.375-0.686-0.685 C0.036,99.061,0,98.895,0,98.73V20.027c0,0,0,0,0-0.002c0-0.003,0-0.003,0-0.003c-0.008-2.1,1.704-3.809,3.803-3.809 c0.009,0,0.015,0.005,0.023,0.005h13.061v2.539H3.803c-0.004,0-0.007-0.002-0.012-0.002c-0.695,0.008-1.259,0.571-1.259,1.267 c0,0,0,0,0,0.003c0,0.002,0,0.002,0,0.002v75.639l2.914-2.911c0.248-0.248,0.574-0.37,0.898-0.37s0.65,0.125,0.899,0.37l4.182,4.181 l4.182-4.181c0.248-0.248,0.574-0.37,0.898-0.37c0.326,0,0.651,0.125,0.899,0.37l4.183,4.181l4.182-4.181 c0.248-0.248,0.574-0.37,0.898-0.37c0.325,0,0.649,0.125,0.897,0.37l4.184,4.181l4.182-4.181c0.249-0.248,0.575-0.37,0.898-0.37 c0.326,0,0.649,0.125,0.898,0.37l4.182,4.181l4.184-4.181c0.248-0.248,0.574-0.37,0.898-0.37c0.325,0,0.649,0.125,0.899,0.37 l4.182,4.181l4.182-4.181c0.25-0.248,0.575-0.37,0.899-0.37c0.325,0,0.65,0.125,0.898,0.37l2.914,2.911V20.027 c-0.003-0.701-0.574-1.27-1.273-1.27H46.616v-2.539h13.077c2.101,0,3.811,1.708,3.811,3.807V98.73 C63.504,98.895,63.469,99.061,63.407,99.217z M43.232,7.988l5.41-6.29h-5.205V0h7.825v1.482l-5.391,6.289h5.483v1.699h-8.123V7.988z M49.996,61.06c0.702,0,1.267,0.568,1.267,1.269c0,0.701-0.564,1.269-1.267,1.269h-6.757c-0.702,0-1.268-0.567-1.268-1.269 c0-0.7,0.565-1.269,1.268-1.269H49.996z M43.155,75.842c0,0.7-0.565,1.268-1.268,1.268h-20.27c-0.702,0-1.268-0.567-1.268-1.268 c0-0.701,0.566-1.269,1.268-1.269h20.27C42.59,74.573,43.155,75.141,43.155,75.842z M25.324,21.471l9.437-11.286H25.68V7.137h13.655 v2.659l-9.407,11.287h9.568v3.048H25.324V21.471z M20.267,63.597H13.51c-0.702,0-1.268-0.567-1.268-1.269 c0-0.7,0.566-1.269,1.268-1.269h6.757c0.702,0,1.267,0.568,1.267,1.269C21.534,63.029,20.969,63.597,20.267,63.597z"/></symbol>
    <symbol id="img-os-cancel" width="75.792px" height="100px" viewBox="0 0 75.792 100"><path d="M75.677,99.064c-0.154,0.368-0.45,0.665-0.82,0.817 c-0.372,0.152-0.788,0.152-1.163,0c-0.181-0.079-0.35-0.188-0.492-0.326l-4.99-4.989l-4.991,4.989c-0.592,0.593-1.551,0.593-2.144,0 l-4.991-4.989l-4.992,4.989c-0.591,0.593-1.55,0.593-2.141,0l-4.994-4.989l-4.991,4.989c-0.592,0.593-1.552,0.593-2.142,0 l-4.993-4.989l-4.993,4.989c-0.59,0.593-1.55,0.593-2.142,0l-4.993-4.989l-4.991,4.989c-0.592,0.593-1.551,0.593-2.142,0 l-4.993-4.989l-4.989,4.989c-0.142,0.139-0.311,0.247-0.493,0.326c-0.373,0.152-0.789,0.152-1.162,0 c-0.37-0.152-0.667-0.447-0.819-0.817C0.042,98.879,0,98.68,0,98.484V4.552c0,0,0,0,0-0.003c0-0.003,0-0.003,0-0.003 C-0.01,2.039,2.033,0,4.539,0C4.55,0,4.556,0.006,4.567,0.006h66.676c2.507,0,4.549,2.039,4.549,4.544v93.934 C75.792,98.68,75.75,98.879,75.677,99.064z M72.763,4.552c-0.003-0.836-0.685-1.515-1.52-1.515H4.539 c-0.005,0-0.008-0.003-0.014-0.003c-0.83,0.009-1.502,0.682-1.502,1.512c0,0,0,0,0,0.003c0,0.003,0,0.003,0,0.003v90.276L6.5,91.354 c0.296-0.296,0.685-0.442,1.072-0.442c0.388,0,0.777,0.149,1.073,0.442l4.991,4.989l4.991-4.989 c0.296-0.296,0.685-0.442,1.073-0.442c0.389,0,0.776,0.149,1.072,0.442l4.993,4.989l4.991-4.989 c0.296-0.296,0.686-0.442,1.073-0.442s0.775,0.149,1.071,0.442l4.993,4.989l4.991-4.989c0.298-0.296,0.687-0.442,1.072-0.442 c0.389,0,0.775,0.149,1.072,0.442l4.991,4.989l4.993-4.989c0.296-0.296,0.686-0.442,1.072-0.442c0.388,0,0.775,0.149,1.073,0.442 l4.991,4.989l4.991-4.989c0.297-0.296,0.687-0.442,1.072-0.442c0.389,0,0.776,0.149,1.072,0.442l3.478,3.475V4.552z M35.294,58.056 h5.187v5.846h-5.187V58.056z M35.294,36.148h5.187v17.417h-5.187V36.148z"/></symbol>
    <symbol id="img-bill" width="85.086px" height="100px" viewBox="0 0 85.086 100"><path d="M73.042,33.563h-22.99V3.295C50.052,1.474,48.58,0,46.77,0H3.285C1.473,0,0.003,1.474,0.003,3.295V87.89 C0.003,87.897,0,87.905,0,87.91C0,94.576,5.403,100,12.043,100h43.485c6.637,0,12.039-5.424,12.039-12.09V70.077h14.237 c1.812,0,3.282-1.477,3.282-3.296V45.65C85.086,38.984,79.684,33.563,73.042,33.563z M12.043,93.41 c-3.016,0-5.471-2.459-5.476-5.488c0-0.005,0-0.007,0-0.012V6.59h36.919v81.32c0,1.98,0.488,3.848,1.331,5.5H12.043z M61.006,45.606 c0,0.017-0.004,0.031-0.004,0.044v42.26c0,3.032-2.458,5.5-5.475,5.5c-3.022,0-5.476-2.468-5.476-5.5V40.154h12.281 C61.496,41.793,61.011,43.642,61.006,45.606z M78.522,63.486H67.567V45.672c0-0.006,0-0.013,0-0.021 c0-3.029,2.458-5.497,5.476-5.497c3.021,0,5.479,2.467,5.479,5.497V63.486z M32.936,15.978H17.115c-1.812,0-3.282,1.474-3.282,3.295 c0,1.82,1.47,3.295,3.282,3.295h15.821c1.812,0,3.283-1.475,3.283-3.295C36.219,17.452,34.748,15.978,32.936,15.978z M32.936,28.26 H17.115c-1.812,0-3.282,1.476-3.282,3.295s1.47,3.295,3.282,3.295h15.821c1.812,0,3.283-1.476,3.283-3.295 S34.748,28.26,32.936,28.26z M32.936,40.538H17.115c-1.812,0-3.282,1.477-3.282,3.295c0,1.821,1.47,3.295,3.282,3.295h15.821 c1.812,0,3.283-1.474,3.283-3.295C36.219,42.015,34.748,40.538,32.936,40.538z M32.936,52.819H17.115 c-1.812,0-3.282,1.476-3.282,3.295s1.47,3.296,3.282,3.296h15.821c1.812,0,3.283-1.477,3.283-3.296S34.748,52.819,32.936,52.819z M32.936,65.104H17.115c-1.812,0-3.282,1.476-3.282,3.295s1.47,3.296,3.282,3.296h15.821c1.812,0,3.283-1.477,3.283-3.296 S34.748,65.104,32.936,65.104z M32.936,77.383H17.115c-1.812,0-3.282,1.477-3.282,3.296s1.47,3.295,3.282,3.295h15.821 c1.812,0,3.283-1.476,3.283-3.295S34.748,77.383,32.936,77.383z"/></symbol>
    <symbol id="img-track" width="100px" height="100px" viewBox="0 0 100 100"><path d="M40.995,33.707c1.445-0.761,2.074-2.708,1.328-4.165 c-0.661-1.479-2.548-2.232-4.044-1.599c-10.967,5.597-15.183,18.023-12.546,28.24c2.991,11.801,13.603,18.597,23.692,18.765 c4.933,0.115,9.889-1.286,14.028-3.974c8.485-5.462,13.874-16.552,10.436-28.033c-0.502-1.609-2.418-2.554-4.003-1.992 c-1.628,0.482-2.61,2.385-2.066,3.993c0.949,3.394,0.929,7.055-0.104,10.43c-2.668,8.916-11.469,14.157-20.099,13.043 c-7.122-0.809-13.446-6.151-15.46-13.026C29.118,45.567,34.739,37.15,40.995,33.707z M86.083,15.863 c-0.343-1.057-1.302-1.711-2.05-2.466C74.849,4.747,62.266-0.181,49.649,0.005c-0.164,0.031-0.489,0.089-0.653,0.117 c-1.368,0.394-2.333,1.778-2.264,3.195c-0.002,15.498,0,30.998,0,46.497c-0.066,1.29,0.692,2.58,1.883,3.091 c1.221,0.574,2.767,0.248,3.672-0.744l32.958-32.934C86.145,18.389,86.497,17.028,86.083,15.863z M92.357,23.474 c-0.925-1.446-3.075-1.834-4.457-0.826c-1.395,0.915-1.801,2.965-0.872,4.35c4.743,7.602,7.031,16.695,6.466,25.639 c-0.993,17.428-12.88,33.622-30.808,39.067c-19.043,5.866-42.523-2.037-52.376-23.436c-3.858-8.254-4.958-17.734-3.225-26.666 c3.451-18.126,17.413-30.466,32.733-34.043c0.761-0.158,1.514-0.478,2.021-1.088c1.015-1.105,1.06-2.931,0.11-4.09 c-0.896-1.206-2.582-1.466-3.937-0.968C26.493,4.216,11.568,12.497,4.024,29.944C-1.961,43.693-4.54,72.191,20.403,90.342 c7.453,5.482,16.458,8.828,25.686,9.51c17.462,1.362,35.748-6.66,46.195-23.25C99.996,64.431,104.833,43.187,92.357,23.474z"/></symbol>
    <symbol id="img-facebook" viewBox="0 0 51.871 100"><path d="M33.738,100V54.312h15.227l2.287-17.724H33.738V25.227c0-5.149,1.377-8.658,8.74-8.658l9.393,0.003V0.658 C50.246,0.441,44.67,0,38.186,0C24.644,0,15.38,8.246,15.38,23.466v13.123H0v17.724h15.376v45.687L33.738,100L33.738,100z"/></symbol>
    <symbol id="img-twitter" viewBox="0 0 100 82.004"><path d="M49.293,25.395c0,0-25.014-0.084-42.49-21.657c0,0-9.72,14.68,6.291,27.715c0,0-5.311-0.194-9.243-2.579 c0,0-0.916,15.527,16.304,20.497c0,0-5.045,1.484-8.986,0.258c0,0,2.397,12.853,19.126,14.565c0,0-13.126,10.646-30.294,8.509 c0,0,13.952,9.78,30.038,9.281c60.8-1.884,59.948-61.618,59.948-61.618S98.033,13.806,100,9.797c0,0-7.924,2.953-11.425,3.093 c0,0,6.588-4.672,8.857-11.343c0,0-8.734,4.614-13.095,4.898c0,0-5.122-6.446-15.019-6.446C59.422,0,46.364,8.144,49.293,25.395z"/></symbol>
    <symbol id="img-googleplus" viewBox="0 0 971.846 1000"><path d="M971.846,483.937H842.772v130.465h-65.296V483.937H646.885v-65.233 h130.592V289.755h65.296v128.948h129.073V483.937z M485.923,54.613c0,0,92.629,60.682,92.629,174.46 c0,158.531-145.777,169.15-145.777,248.795c0,82.679,189.813,102.4,189.813,277.619C622.588,1064.962,0,1075.583,0,816.167 C0,592.405,349.257,594.68,349.257,594.68s-39.481-35.65-39.481-87.988c0-34.134,12.148-51.58,12.148-51.58 C159.444,472.558,65.296,364.09,65.296,256.38C65.296,148.67,145.524,0,406.96,0c93.642,0,242.961,0,242.961,0l-86.556,54.613 H485.923z M115.407,785.828c0,195.698,419.109,222.247,419.109,18.204c0-94.814-145.777-171.426-145.777-171.426 S115.407,615.919,115.407,785.828z M296.109,50.062c-187.347,11.32-127.555,368.641,44.037,368.641 C561.849,418.703,444.908,41.071,296.109,50.062z"/></symbol>
    <symbol id="img-linkedin" viewBox="0 0 100 100"><path d="M93.056,100H6.945C3.109,100,0,96.891,0,93.056V6.945 C0,3.109,3.109,0,6.945,0h86.111C96.891,0,100,3.109,100,6.945v86.111C100,96.891,96.891,100,93.056,100z M14.583,85.416h15.278 V37.5H14.583V85.416z M22.222,13.889c-4.602,0-8.333,3.731-8.333,8.333c0,4.603,3.731,8.333,8.333,8.333 c4.603,0,8.333-3.731,8.333-8.333C30.556,17.62,26.825,13.889,22.222,13.889z M85.416,63.889c0-23.003-6.076-27.083-17.36-27.083 c-8.673,0-13.027,4.092-14.583,5.991V37.5H38.889v47.916h14.584v-23.61c0-8.768,3.905-12.5,9.027-12.5 c5.121,0,7.639,4.253,7.639,14.583v21.527h15.277V63.889z"/></symbol>
    <symbol id="fb-ico" viewBox="0 0 22.438 48.312"><path d="M22.443,15.644 L14.798,15.644 L14.798,10.630 C14.798,8.747 16.046,8.308 16.925,8.308 C17.802,8.308 22.320,8.308 22.320,8.308 L22.320,0.030 L14.889,0.001 C6.641,0.001 4.764,6.175 4.764,10.126 L4.764,15.644 L-0.005,15.644 L-0.005,24.174 L4.764,24.174 C4.764,35.121 4.764,48.311 4.764,48.311 L14.798,48.311 C14.798,48.311 14.798,34.991 14.798,24.174 L21.568,24.174 L22.443,15.644 Z" class="cls-1"/></symbol>
    <symbol id="tt-ico" viewBox="0 0 58 47"><path d="M52.063,11.710 C52.091,12.218 52.100,12.730 52.100,13.244 C52.100,28.923 40.133,47.001 18.246,47.001 C11.528,47.001 5.272,45.037 0.003,41.670 C0.930,41.773 1.881,41.838 2.842,41.838 C8.417,41.838 13.547,39.940 17.621,36.755 C12.409,36.664 8.018,33.229 6.502,28.516 C7.229,28.655 7.976,28.731 8.736,28.731 C9.824,28.731 10.876,28.584 11.872,28.313 C6.428,27.218 2.324,22.429 2.324,16.676 C2.324,16.624 2.324,16.578 2.324,16.528 C3.929,17.414 5.766,17.947 7.716,18.008 C4.523,15.880 2.426,12.245 2.426,8.130 C2.426,5.957 3.012,3.921 4.037,2.169 C9.901,9.347 18.672,14.069 28.563,14.562 C28.357,13.698 28.257,12.788 28.257,11.857 C28.257,5.311 33.583,-0.001 40.152,-0.001 C43.576,-0.001 46.671,1.439 48.841,3.741 C51.548,3.212 54.099,2.224 56.397,0.864 C55.507,3.632 53.617,5.957 51.166,7.425 C53.570,7.142 55.861,6.505 57.997,5.556 C56.405,7.949 54.391,10.037 52.063,11.710 Z" class="cls-1"/></symbol>
    <symbol id="gp-ico" viewBox="0 0 51 46"><path d="M49.940,23.013 L42.249,23.013 L42.249,30.738 C42.249,31.328 41.773,31.806 41.187,31.806 L38.997,31.806 C38.407,31.806 37.932,31.328 37.932,30.738 L37.932,23.014 L30.241,23.014 C29.655,23.014 29.177,22.536 29.177,21.946 L29.177,19.748 C29.177,19.157 29.655,18.677 30.241,18.677 L37.932,18.677 L37.932,10.957 C37.932,10.369 38.407,9.889 38.997,9.889 L41.187,9.889 C41.773,9.889 42.249,10.369 42.249,10.957 L42.249,18.677 L49.940,18.677 C50.526,18.677 51.004,19.156 51.004,19.747 L51.004,21.945 C51.004,22.535 50.526,23.013 49.940,23.013 ZM26.888,4.133 C26.709,4.264 26.489,4.335 26.265,4.335 L25.181,4.335 C26.578,6.018 27.399,8.415 27.399,11.114 C27.399,14.090 25.898,16.906 23.173,19.048 C21.065,20.697 20.981,21.148 20.981,22.091 C21.006,22.610 22.477,24.297 24.095,25.447 C27.867,28.127 29.273,30.756 29.274,35.145 C29.274,39.721 25.806,43.685 20.443,45.248 C18.724,45.748 16.863,46.001 14.911,46.001 C12.739,46.001 10.648,45.749 8.702,45.255 C4.931,44.299 2.141,42.490 0.842,40.156 C0.281,39.147 -0.004,38.072 -0.004,36.955 C-0.004,35.808 0.270,34.645 0.809,33.495 C2.876,29.072 8.321,26.101 14.353,26.101 C14.415,26.101 14.470,26.101 14.527,26.101 C14.036,25.236 13.797,24.340 13.797,23.394 C13.797,22.925 13.860,22.446 13.984,21.959 C7.655,21.813 2.921,17.163 2.921,11.027 C2.921,6.697 6.369,2.477 11.301,0.771 C12.776,0.261 14.281,-0.001 15.761,-0.001 L29.292,-0.001 C29.754,-0.001 30.160,0.299 30.304,0.739 C30.448,1.180 30.290,1.661 29.914,1.932 L26.888,4.133 ZM7.005,35.497 C7.005,38.973 10.466,41.693 14.884,41.693 C20.712,41.693 23.667,39.677 23.667,35.700 C23.667,35.322 23.621,34.933 23.528,34.543 C23.136,32.997 21.726,32.035 19.592,30.574 C19.299,30.374 18.995,30.165 18.679,29.947 C17.757,29.663 16.779,29.515 15.777,29.502 L15.653,29.502 C11.047,29.502 7.005,32.304 7.005,35.497 ZM20.416,11.520 C19.890,7.496 17.029,4.149 14.038,4.060 L13.918,4.059 C12.859,4.059 11.917,4.495 11.197,5.320 C10.083,6.596 9.612,8.616 9.906,10.863 C10.429,14.882 13.352,18.355 16.281,18.446 L16.330,18.446 C16.332,18.446 16.332,18.446 16.332,18.446 C17.433,18.446 18.363,18.010 19.085,17.183 C20.213,15.892 20.712,13.773 20.416,11.520 Z" class="cls-1"/></symbol>
    <symbol id="pt-ico" viewBox="0 0 38.562 49.781"><path d="M20.449,0.015 C6.863,0.015 0.012,9.755 0.012,17.879 C0.012,22.797 1.874,27.172 5.867,28.801 C6.522,29.070 7.109,28.811 7.299,28.086 C7.431,27.586 7.744,26.319 7.883,25.791 C8.074,25.074 8.000,24.824 7.471,24.197 C6.320,22.840 5.583,21.082 5.583,18.590 C5.583,11.364 10.990,4.895 19.662,4.895 C27.341,4.895 31.560,9.587 31.560,15.852 C31.560,24.098 27.911,31.057 22.495,31.057 C19.503,31.057 17.265,28.584 17.981,25.549 C18.840,21.926 20.505,18.018 20.505,15.400 C20.505,13.061 19.248,11.108 16.649,11.108 C13.591,11.108 11.134,14.272 11.134,18.510 C11.134,21.209 12.046,23.035 12.046,23.035 C12.046,23.035 8.917,36.295 8.368,38.617 C7.276,43.242 8.204,48.910 8.283,49.481 C8.329,49.822 8.765,49.903 8.963,49.647 C9.244,49.278 12.888,44.783 14.125,40.289 C14.476,39.018 16.136,32.430 16.136,32.430 C17.130,34.326 20.034,35.992 23.122,35.992 C32.313,35.992 38.550,27.612 38.550,16.396 C38.551,7.914 31.367,0.015 20.449,0.015 Z" class="cls-1"/></symbol>
</svg>
<!-- WSColors  -->
<svg class="svg-sprites" id="skin-sprite" xmlns="http://www.w3.org/2000/svg" xmlns:xlink="http://www.w3.org/1999/xlink">    
    <symbol viewBox="0 0 25.01 31" id="z-cart" xmlns="http://www.w3.org/2000/svg">        
        <path fill="var(--color-1)" stroke="var(--color-1)" stroke-miterlimit="10" d="M24.51,26.43,22.79,7.09A.83.83,0,0,0,22,6.33H3.05a.84.84,0,0,0-.83.76L.51,26.43s0,.05,0,.08a4.27,4.27,0,0,0,4.5,4H20a4.27,4.27,0,0,0,4.5-4ZM20,28.84H5a2.63,2.63,0,0,1-2.84-2.3L3.8,8H21.21l1.65,18.54A2.66,2.66,0,0,1,20,28.84Z"/>
        <path fill="var(--color-2)" stroke="var(--color-2)" stroke-miterlimit="10" d="M6.57,10.51a.83.83,0,0,0,1.66,0V8h0V6.33a4.27,4.27,0,0,1,8.54,0v4.18a.82.82,0,0,0,.82.83.83.83,0,0,0,.83-.83V6.33a5.93,5.93,0,0,0-11.85,0v4.18Z"/>
    </symbol>
    <symbol viewBox="0 0 54.11 30" id="z-down" xmlns="http://www.w3.org/2000/svg"><g data-name="Camada 2"><path  fill-rule="evenodd" d="M54.11 4.29L49.6 0 27.05 21.43 4.51 0 0 4.29 27.05 30l4.51-4.29L54.11 4.29z" data-name="Capa 1"/></g></symbol>
    <symbol viewBox="0 0 70.47 50" id="z-ecofriendly" xmlns="http://www.w3.org/2000/svg"><g data-name="Camada 2"><g data-name="Capa 1" ><path d="M51.64 19.5A7.38 7.38 0 0054.2 14a6.68 6.68 0 00-6.75-6.77c-3.43 0-6.39 2.29-10 6l-.27-.23C31.44 6.62 27.65 2.44 23 2.44a6.69 6.69 0 00-6.74 6.76 7.42 7.42 0 002.56 5.54 7.4 7.4 0 00-2.56 5.54A6.69 6.69 0 0023 27c3.42 0 6.39-2.28 10-6l.24.27C39 27.62 42.81 31.8 47.45 31.8A6.68 6.68 0 0054.2 25a7.36 7.36 0 00-2.56-5.53m-23.29 3c-2 1.66-3.68 2.4-5.33 2.4a4.58 4.58 0 01-4.65-4.65 5.26 5.26 0 011.82-3.94l.35-.3 1.75-1.3-1.75-1.31-.35-.29a5.26 5.26 0 01-1.82-3.88A4.59 4.59 0 0123 4.54c1.65 0 3.3.75 5.33 2.41a78.5 78.5 0 017.27 7.41l.34.37-.34.37a77.56 77.56 0 01-7.27 7.42m22.41 5.82a4.66 4.66 0 01-3.31 1.34c-1.66 0-3.3-.74-5.34-2.4a77.62 77.62 0 01-7.26-7.42l-.33-.36.33-.37a78.55 78.55 0 017.26-7.41c2-1.67 3.68-2.41 5.34-2.41A4.59 4.59 0 0152.1 14a5.23 5.23 0 01-1.83 3.93l-.34.3-1.76 1.27 1.76 1.3.34.3A5.27 5.27 0 0152.1 25a4.67 4.67 0 01-1.34 3.32"/><path d="M36.53 6.88a2.09 2.09 0 01-1.63.6 4.8 4.8 0 01-2.08-.69 9.61 9.61 0 01-3-3.5 1 1 0 01.81-1.43h1.24a7.64 7.64 0 013.31.74 5.15 5.15 0 011.54 1.24A4.11 4.11 0 0037 6.09a9.34 9.34 0 00-4-2.4.09.09 0 00-.06.16 7.88 7.88 0 013.59 3.03zm7.29.12a6.72 6.72 0 01-3 .7 3 3 0 01-2.37-1.19 13.53 13.53 0 015.76-3.81.08.08 0 000-.15A12.6 12.6 0 0038 5.8c-.79-1.74-.1-3.38 1.88-4.6a7.76 7.76 0 012.28-.93 12.44 12.44 0 013.5-.27c1 0 1.86.15 2.63.26A1 1 0 0149 1.75C47.79 3.52 45.85 6.09 43.82 7zM.54 43.53A.54.54 0 010 43v-9.62a.54.54 0 01.54-.54h5.1a.5.5 0 01.49.5.49.49 0 01-.49.49H1.08v3.83h3.49a.49.49 0 110 1H1.08v3.91h4.73a.49.49 0 110 1zM10.23 36.1a3 3 0 012.45 1.09.51.51 0 01.11.31.45.45 0 01-.46.46.49.49 0 01-.38-.19 2 2 0 00-1.72-.77C8.77 37 8 38 8 39.91s.78 2.91 2.24 2.91a2.91 2.91 0 001.85-.69.53.53 0 01.3-.11.47.47 0 01.46.46.49.49 0 01-.21.4 3.6 3.6 0 01-2.4.86c-2 0-3.27-1.22-3.27-3.83s1.22-3.81 3.26-3.81zM20.17 39.91c0 2.61-1.27 3.83-3.34 3.83s-3.33-1.22-3.33-3.83 1.28-3.81 3.33-3.81 3.34 1.21 3.34 3.81zm-1 0c0-2-.84-2.89-2.3-2.89s-2.3.89-2.3 2.89.84 2.91 2.3 2.91 2.26-.88 2.26-2.91zM28 32.42h-5.08a1 1 0 00-1 1v9.74a1 1 0 001.93 0v-3.97H27a.92.92 0 100-1.83h-3.12v-3.11H28a.92.92 0 100-1.83zM32.69 35.71a3 3 0 00-1.88.6.91.91 0 00-.84-.54.92.92 0 00-.93.93v6.45a.93.93 0 001.86 0v-3.56c0-.76.23-2.05 1.79-2.05a.92.92 0 000-1.83zM35.29 35.77a.92.92 0 00-.93.93v6.45a.93.93 0 001.86 0V36.7a.92.92 0 00-.93-.93zM35.29 33a1 1 0 00-1 1.06 1 1 0 101-1.06zM44.13 39.2a3.28 3.28 0 00-3.46-3.52c-2.31 0-3.69 1.58-3.69 4.23s1.36 4.25 3.85 4.25a4 4 0 002.78-1 .93.93 0 00.3-.67.89.89 0 00-.91-.89.91.91 0 00-.54.18 2.46 2.46 0 01-1.65.6 1.83 1.83 0 01-1.95-1.74h4.19c1.08 0 1.08-1.01 1.08-1.44zm-3.46-1.76a1.42 1.42 0 011.59 1.46h-3.35a1.65 1.65 0 011.76-1.46zM48.34 35.68a3.14 3.14 0 00-1.82.55.91.91 0 00-.8-.46.92.92 0 00-.94.93v6.45a.94.94 0 001.87 0v-3.92c0-1.23.53-1.8 1.69-1.8s1.48.42 1.48 1.69v4a.93.93 0 001.86 0v-4.21c0-2.12-1.15-3.23-3.34-3.23zM58.62 31.8a.92.92 0 00-.93.93v3.44a3.19 3.19 0 00-1.69-.49c-1.65 0-3.61.73-3.61 4.23 0 2.74 1.31 4.25 3.68 4.25a3.28 3.28 0 003.53-3.55v-7.88a.92.92 0 00-.98-.93zm-.93 8.81c0 1.47-.91 1.78-1.67 1.78s-1.82-.28-1.82-2.48 1-2.47 1.82-2.47a1.93 1.93 0 011.67 1.08zM63.19 43.18a.91.91 0 00-.9-.9c-.11 0-.22 0-.22-.48v-9.07a.93.93 0 00-.93-.93 1 1 0 00-.93.93v9.07c0 1.45.76 2.28 2.08 2.28a.9.9 0 00.9-.9z"/><path d="M69.53 35.77a.89.89 0 00-.86.6l-1.85 4.52L65 36.37a.9.9 0 00-.87-.6.92.92 0 00-.93.93.94.94 0 00.07.36l2.6 6.17c-.64 1.57-.94 2.12-1.94 2.12a.9.9 0 000 1.8c2 0 2.82-1.32 3.36-2.61l3.13-7.45a1 1 0 00.07-.35.92.92 0 00-.96-.97zM18.26 47.78h-.61a.17.17 0 00-.17.16v1.87a.17.17 0 10.34 0v-.71h.44a.61.61 0 00.64-.67.6.6 0 00-.64-.65zm0 1h-.41v-.69h.41a.35.35 0 010 .69zM23.08 49.05a.62.62 0 00.49-.63.63.63 0 00-.65-.64h-.6a.16.16 0 00-.17.16v1.87a.16.16 0 00.17.17.16.16 0 00.16-.17v-.74h.21l.6.83a.19.19 0 00.15.08.16.16 0 00.16-.17.17.17 0 000-.1zm-.6-.3v-.66h.44a.33.33 0 010 .66zM27.76 47.73c-.65 0-1 .41-1 1.14s.36 1.13 1 1.13 1-.4 1-1.13-.34-1.14-1-1.14zm0 2c-.44 0-.67-.27-.67-.81s.23-.82.67-.82.68.27.68.82-.23.76-.68.76zM32.67 47.78h-.43a.16.16 0 00-.16.16v1.85a.17.17 0 00.16.17h.43c.68 0 1-.36 1-1.09s-.32-1.09-1-1.09zm0 1.86h-.26v-1.55h.26c.47 0 .67.23.67.78s-.2.77-.67.77zM38.36 47.75a.18.18 0 00-.17.17v1.35c0 .19 0 .41-.44.41s-.44-.22-.44-.41v-1.35a.17.17 0 00-.34 0v1.35c0 .33.14.73.78.73s.78-.25.78-.73v-1.35a.18.18 0 00-.17-.17zM42.83 48.05a.6.6 0 01.48.23.17.17 0 00.13.07.17.17 0 00.16-.17.19.19 0 000-.1.91.91 0 00-.74-.35c-.66 0-1 .41-1 1.14s.35 1.13 1 1.13a.93.93 0 00.74-.35.17.17 0 000-.1.16.16 0 00-.16-.16.17.17 0 00-.13.07.58.58 0 01-.48.22c-.47 0-.68-.25-.68-.81s.23-.82.68-.82zM48.18 47.78h-1.3a.16.16 0 100 .32h.48v1.71a.17.17 0 00.34 0V48.1h.48a.16.16 0 100-.32zM52.28 48.66c-.28-.1-.45-.17-.45-.34s.14-.27.38-.27a.51.51 0 01.44.22.18.18 0 00.13.06.16.16 0 00.16-.16.2.2 0 000-.09.84.84 0 00-.71-.35c-.53 0-.71.32-.71.59 0 .43.35.54.67.65s.48.17.48.37-.16.34-.46.34a.54.54 0 01-.49-.26.16.16 0 00-.14-.08.17.17 0 00-.16.17.24.24 0 000 .08.85.85 0 00.77.41c.5 0 .79-.24.79-.66s-.38-.58-.7-.68z"/></g></g></symbol>
    <symbol viewBox="0 0 30.18 30" id="z-facebook" xmlns="http://www.w3.org/2000/svg"><g data-name="Camada 2"><path d="M30.18 15.09A15.09 15.09 0 1012.73 30V19.45H8.9v-4.36h3.83v-3.32C12.73 8 15 5.9 18.43 5.9a23.45 23.45 0 013.38.29V9.9h-1.9a2.18 2.18 0 00-2.46 2.36v2.83h4.19L21 19.45h-3.55V30a15.1 15.1 0 0012.73-14.91"  data-name="Capa 1"/></g></symbol>
    <symbol viewBox="0 0 30.04 30" id="z-help" xmlns="http://www.w3.org/2000/svg">
        <path fill="var(--color-1)" d="M30 16.18a5.17 5.17 0 00-2.23-3.94 6.05 6.05 0 00-1.66-.64l-.53-.12a8.82 8.82 0 00-1.58-.16h-1.4a1.84 1.84 0 00-1.84 1.84v11.65a.38.38 0 01-.39.39h-3A3 3 0 0012 27a3 3 0 005.27 1.84h3a4.06 4.06 0 004-3.4h.45A5.19 5.19 0 0030 20.3V17zm-3.68 4.12a1.51 1.51 0 01-1.51 1.5h-.39V15h.38a1.52 1.52 0 011.51 1.51zM7.42 11.32H6.7a10.62 10.62 0 00-1.59.11 8.24 8.24 0 00-2.87.81A5.2 5.2 0 000 16.51v3.79a5.18 5.18 0 005.19 5.18h2.23a1.84 1.84 0 001.84-1.84V13.16a1.84 1.84 0 00-1.84-1.84zM5.58 21.8h-.39a1.51 1.51 0 01-1.51-1.5v-3.79A1.52 1.52 0 015.19 15h.39z" />
        <path fill="var(--color-2)" d="M25.82 6a12.77 12.77 0 00-23.58 6.24A9.65 9.65 0 016 11.32a9.08 9.08 0 0116.38-3.85 10.12 10.12 0 011.15 2.16 10.78 10.78 0 01.47 1.69 8.55 8.55 0 013.78.92A12.68 12.68 0 0026 6.32z" />
    </symbol>
    <symbol viewBox="0 0 30 30" id="z-instagram" xmlns="http://www.w3.org/2000/svg"><g data-name="Camada 2"><g data-name="Capa 1" ><path d="M15 2.7c4 0 4.48 0 6.06.09a8.3 8.3 0 012.79.52 4.5 4.5 0 011.72 1.12 4.5 4.5 0 011.12 1.72 8.3 8.3 0 01.52 2.79c.07 1.58.09 2.05.09 6.06s0 4.48-.09 6.06a8.3 8.3 0 01-.52 2.79 5 5 0 01-2.84 2.84 8.3 8.3 0 01-2.79.52c-1.58.07-2 .09-6.06.09s-4.48 0-6.06-.09a8.3 8.3 0 01-2.79-.52 4.5 4.5 0 01-1.72-1.12 4.5 4.5 0 01-1.12-1.72 8.3 8.3 0 01-.52-2.79C2.72 19.48 2.7 19 2.7 15s0-4.48.09-6.06a8.3 8.3 0 01.52-2.79 4.5 4.5 0 011.12-1.72 4.5 4.5 0 011.72-1.12 8.3 8.3 0 012.79-.52C10.52 2.72 11 2.7 15 2.7M15 0c-4.07 0-4.58 0-6.18.09a11 11 0 00-3.65.7 7.23 7.23 0 00-2.65 1.73A7.23 7.23 0 00.79 5.17a11 11 0 00-.7 3.65C0 10.42 0 10.93 0 15s0 4.58.09 6.18a11 11 0 00.7 3.65 7.23 7.23 0 001.73 2.65 7.23 7.23 0 002.65 1.73 11 11 0 003.65.7c1.6.07 2.11.09 6.18.09s4.58 0 6.18-.09a11 11 0 003.65-.7 7.7 7.7 0 004.38-4.38 11 11 0 00.7-3.65c.09-1.6.09-2.11.09-6.18s0-4.58-.09-6.18a11 11 0 00-.7-3.65 7.23 7.23 0 00-1.73-2.65A7.23 7.23 0 0024.83.79a11 11 0 00-3.65-.7C19.58 0 19.07 0 15 0"/><path d="M15 7.3a7.7 7.7 0 107.7 7.7A7.7 7.7 0 0015 7.3M15 20a5 5 0 115-5 5 5 0 01-5 5M24.81 7A1.8 1.8 0 1123 5.19 1.8 1.8 0 0124.81 7"/></g></g></symbol>
    <symbol viewBox="0 0 60.2 40.65" id="z-livre" xmlns="http://www.w3.org/2000/svg"><g data-name="Camada 2"><g data-name="Capa 1" ><path d="M37.22 29.92L36 31.79a.42.42 0 01-.52.14 6.54 6.54 0 00-3-.73c-.45 0-1 .05-1 .38s.55.53 1.58.82c2.22.62 4.51 1.52 4.51 4.1s-2.06 4.15-5.57 4.15a8.89 8.89 0 01-5.31-1.48.4.4 0 01-.13-.48l.92-2.22a.4.4 0 01.57-.18 8.17 8.17 0 003.74 1c.71 0 1.14-.07 1.14-.48s-.91-.62-2.05-.93c-1.79-.47-4-1.38-4-3.79 0-2.58 2.12-4.09 5.34-4.09a8.93 8.93 0 014.9 1.39.42.42 0 01.1.57M48.1 36.56l1.42 2.21a.42.42 0 01-.15.6 10 10 0 01-5 1.28c-4.1 0-6.53-2.27-6.53-6.13 0-4.1 2.5-6.56 6.74-6.56 3.3 0 5.18 1.57 5.18 4.15S47.37 36 43.42 36h-.77c.29.72.91 1.1 2.08 1.1a5.57 5.57 0 002.79-.7.43.43 0 01.58.14m-5.57-3.22a.09.09 0 00.08.11c.54 0 2.55.16 2.55-1.08 0-.45-.34-.78-1-.78s-1.39.64-1.62 1.75M59.58 28.75l-1.11 3.33a.4.4 0 01-.55.24 2.67 2.67 0 00-1.08-.23c-1.19 0-1.84.69-1.84 3.67v4.65h-4.77v-11.1a1 1 0 01.68-1 6.18 6.18 0 012-.38 2 2 0 011.9 1.75.05.05 0 00.1 0A3.23 3.23 0 0157.74 28a5 5 0 011.6.29.39.39 0 01.24.5M12.92 22.65c0 4.36-2.6 6.89-7 6.89H4.75v5.27H0V18a.72.72 0 01.47-.67 6.47 6.47 0 012.15-.45 1.9 1.9 0 011.87 1.66h.06a4.39 4.39 0 013.77-1.68c2.7 0 4.6 2.14 4.6 5.79m-4.84 0c0-1.31-.57-2.07-1.62-2.07-1.24 0-1.69.59-1.69 3.12v2.36h.67c1.62 0 2.64-1.24 2.64-3.41M24.85 21.58v6.85a.76.76 0 01-.51.71 6.15 6.15 0 01-2.12.45 1.91 1.91 0 01-1.84-1.53.07.07 0 00-.13 0A3.69 3.69 0 0117 29.59c-2.45 0-4-1.46-4-3.77 0-2.65 2.27-4.2 6.34-4.2h.67c-.12-.76-.45-1.21-1.67-1.21a5.63 5.63 0 00-2.62.76.36.36 0 01-.47-.11l-1.5-2.34a.35.35 0 01.13-.5 10.78 10.78 0 015.3-1.32c3.55 0 5.63 1.69 5.63 4.68m-4.77 2.64h-.55c-1.29 0-2 .43-2 1.12a.76.76 0 00.86.81c1 0 1.7-.47 1.7-1.93M30.31 27.18V24.7c0-3 .65-3.67 1.84-3.67a2.67 2.67 0 011.08.23.4.4 0 00.55-.24l1.11-3.33a.39.39 0 00-.24-.5 4.9 4.9 0 00-1.59-.29 3.23 3.23 0 00-2.89 1.76.05.05 0 01-.1 0 2 2 0 00-1.9-1.75 6.18 6.18 0 00-2 .38 1 1 0 00-.68 1v11.1h1.21a5.59 5.59 0 013.56-2.17"/><path d="M34.31 25.82a4.39 4.39 0 00.24 1.44 9.29 9.29 0 013.1 1.29 1.35 1.35 0 01.59 1h.22A7.56 7.56 0 0144.58 27a9.31 9.31 0 011.53.12v-5.54c0-3-2.07-4.68-5.62-4.68a10.76 10.76 0 00-5.3 1.32.35.35 0 00-.13.5l1.5 2.34a.36.36 0 00.47.11 5.63 5.63 0 012.62-.76c1.22 0 1.55.45 1.67 1.21h-.67c-4.08 0-6.34 1.55-6.34 4.2m7-1.6c0 1.46-.73 1.93-1.69 1.93a.76.76 0 01-.86-.81c0-.69.72-1.12 2-1.12zM24.5 4.91a2.54 2.54 0 002.56-2.57A2.29 2.29 0 0024.51 0a2.29 2.29 0 00-2.57 2.43 2.31 2.31 0 002.56 2.48M58.53 14.8L60 17a.43.43 0 01-.14.6 10 10 0 01-5 1.28c-4.11 0-6.54-2.27-6.54-6.13 0-4.1 2.51-6.56 6.75-6.56 3.29 0 5.18 1.58 5.18 4.15s-2.39 3.94-6.35 3.94a6.44 6.44 0 01-.76 0c.28.72.9 1.1 2.07 1.1a5.54 5.54 0 002.8-.7.42.42 0 01.57.14M53 11.58a.08.08 0 00.08.11c.54.05 2.54.16 2.54-1.08 0-.45-.33-.78-1-.78s-1.39.64-1.62 1.75M49.18 6.49a5 5 0 00-1.6-.29A3.23 3.23 0 0044.7 8a.05.05 0 01-.1 0 2 2 0 00-1.9-1.8 6.18 6.18 0 00-2 .38 1 1 0 00-.68 1V16h.42a7.79 7.79 0 014.35 1.12V14c0-3 .65-3.67 1.84-3.67a2.67 2.67 0 011.08.23.4.4 0 00.55-.24L49.42 7a.4.4 0 00-.24-.5M30.33 17a4 4 0 012.73-1 6 6 0 011.91.34 1.27 1.27 0 01.73.63c.34-.15.68-.27 1-.39l3.1-9.16a.44.44 0 00-.35-.57l-3.57-.53a.44.44 0 00-.49.33l-1.7 8h-.09l-1.14-6.33a2.45 2.45 0 00-2.63-2.12 7.41 7.41 0 00-2.34.41.67.67 0 00-.39.85z"/><path d="M19.22 15.94a6.79 6.79 0 015.38 2 2 2 0 011.31-1.61 9.12 9.12 0 011-.28V6.93a.49.49 0 00-.5-.49h-3.76a.49.49 0 00-.5.49v7.82a3.21 3.21 0 01-1.57.39.87.87 0 01-1-1V2.07a2 2 0 00-2.15-2 6.11 6.11 0 00-2 .41.91.91 0 00-.6.85v13.19a5.48 5.48 0 00.38 2.08 11.76 11.76 0 014-.66"/></g></g></symbol>
    <symbol viewBox="0 0 123.18 50" id="z-logo" xmlns="http://www.w3.org/2000/svg"><g data-name="Camada 2"><g data-name="Capa 1" ><path d="M75.09 14.08a6.1 6.1 0 002.11-4.57 5.52 5.52 0 00-5.58-5.58c-2.83 0-5.28 1.88-8.28 5l-.21-.23C58.39 3.45 55.25 0 51.42 0a5.52 5.52 0 00-5.58 5.58A6.09 6.09 0 0048 10.15a6.12 6.12 0 00-2.11 4.57 5.52 5.52 0 005.58 5.59c2.83 0 5.28-1.89 8.28-5l.21.22c4.74 5.23 7.88 8.68 11.71 8.68a5.52 5.52 0 005.58-5.58 6.1 6.1 0 00-2.16-4.55zm-19.26 2.5c-1.68 1.37-3 2-4.41 2a3.77 3.77 0 01-3.84-3.85 4.32 4.32 0 011.5-3.24l.29-.25 1.45-1.08-1.45-1.08-.29-.25a4.34 4.34 0 01-1.5-3.25 3.77 3.77 0 013.84-3.84 7 7 0 014.41 2 63.94 63.94 0 016 6.11l.28.3-.28.31a63 63 0 01-6 6.12zm18.53 4.81a3.86 3.86 0 01-2.74 1.1 7 7 0 01-4.41-2 66.7 66.7 0 01-6-6.12l-.28-.3.28-.3a65.43 65.43 0 016-6.12 7 7 0 014.41-2 3.76 3.76 0 013.84 3.84A4.34 4.34 0 0174 12.76l-.29.24-1.45 1.08 1.45 1.08.29.24a4.34 4.34 0 011.5 3.25 3.86 3.86 0 01-1.14 2.74z"/><circle cx="63.34" cy="3.2" r="1.3"/><path d="M8.92 32.08l-2.71 9.33a.94.94 0 01-.91.68.92.92 0 01-.88-.62L.09 29.61A1.17 1.17 0 010 29.2a.93.93 0 01.94-.95.94.94 0 01.89.62l3.41 9.75L8 28.87a.89.89 0 01.88-.62.9.9 0 01.88.62l2.8 9.75L16 28.87a.94.94 0 011.83.33 1.17 1.17 0 01-.09.41l-4.32 11.86a.92.92 0 01-.88.62.94.94 0 01-.91-.68zM31.29 35.14c0 4.83-2.35 7.1-6.18 7.1s-6.18-2.27-6.18-7.1 2.38-7.06 6.18-7.06 6.18 2.23 6.18 7.06zm-1.91 0c0-3.71-1.56-5.35-4.27-5.35s-4.27 1.64-4.27 5.35 1.56 5.39 4.27 5.39 4.27-1.62 4.27-5.39zM44.12 24.71a1 1 0 00-.94.94v15.5a1 1 0 00.94.94 1 1 0 00.94-.94v-15.5a1 1 0 00-.94-.94zM58.66 30v-4.35a.95.95 0 011.89 0v10.79c0 3.88-2.42 5.8-5.77 5.8-3.8 0-6-2.27-6-7.1s2.12-7.06 5.92-7.06A5 5 0 0158.66 30zm0 2.39a4.44 4.44 0 00-3.88-2.59c-2.68 0-4.15 1.73-4.15 5.35s1.44 5.39 4.15 5.39c2.26 0 3.88-1.3 3.88-4.09zM35.82 29.77a5.74 5.74 0 014.47-1.63.91.91 0 110 1.82c-2.7 0-4.09 1.89-4.09 4.59v6.6a.94.94 0 11-1.88 0v-8.34a5.17 5.17 0 011.5-3.04zM89.35 24.23a1 1 0 00-.94.95v16a1 1 0 00.94.94 1 1 0 00.94-.94v-16a1 1 0 00-.94-.95zM68.66 28.08a5.57 5.57 0 014.54 2 .9.9 0 01.2.56.83.83 0 01-.85.85.89.89 0 01-.71-.35 3.77 3.77 0 00-3.18-1.38c-2.71 0-4.15 1.73-4.15 5.35s1.44 5.39 4.15 5.39a5.38 5.38 0 003.42-1.27.9.9 0 01.56-.2.85.85 0 01.85.85.93.93 0 01-.38.74 6.72 6.72 0 01-4.45 1.59c-3.8 0-6.06-2.27-6.06-7.1s2.26-7.03 6.06-7.03zM87 35.14c0 4.83-2.36 7.1-6.18 7.1s-6.19-2.27-6.19-7.1 2.39-7.06 6.19-7.06S87 30.31 87 35.14zm-1.92 0c0-3.71-1.56-5.35-4.26-5.35s-4.27 1.64-4.27 5.35 1.56 5.39 4.27 5.39 4.25-1.62 4.25-5.39zM104.37 35.14c0 4.83-2.35 7.1-6.18 7.1S92 40 92 35.14s2.38-7.06 6.18-7.06 6.19 2.23 6.19 7.06zm-1.91 0c0-3.71-1.56-5.35-4.27-5.35s-4.27 1.64-4.27 5.35 1.56 5.39 4.27 5.39 4.27-1.62 4.27-5.39zM107.38 29.77a5.78 5.78 0 014.48-1.63.91.91 0 010 1.82c-2.71 0-4.09 1.89-4.09 4.59v6.6a.95.95 0 01-1.89 0v-8.34a5.17 5.17 0 011.5-3.04zM115.44 31.67c0 3.09 7.74 1.94 7.74 6.65 0 2.68-2.21 3.89-5 3.89a6.61 6.61 0 01-5-2.12.89.89 0 01-.21-.56.86.86 0 01.86-.85.9.9 0 01.65.29 5 5 0 003.73 1.44c1.68 0 3.12-.56 3.12-2.09 0-3-7.74-1.82-7.74-6.65 0-2.44 2-3.56 4.51-3.56a5.35 5.35 0 014.43 1.89.91.91 0 01.21.56.86.86 0 01-.86.85.87.87 0 01-.62-.26 4.14 4.14 0 00-3.2-1.24c-1.33-.01-2.62.4-2.62 1.76zM33.81 45.5a.19.19 0 01.22-.22c.13 0 .21.06.21.22a.2.2 0 01-.21.22.2.2 0 01-.22-.22zm.4 3.23a.18.18 0 01-.36 0v-2.3a.18.18 0 01.36 0zM36.32 48.8l-1-2.29v-.08a.18.18 0 01.19-.18.18.18 0 01.17.12l.79 2 .8-2a.17.17 0 01.17-.12.18.18 0 01.18.18.15.15 0 010 .08l-1 2.29a.18.18 0 01-.17.11.2.2 0 01-.13-.11zM42.14 46.22a1 1 0 011.08 1.1c0 .16 0 .36-.23.36h-1.65a.83.83 0 00.86.92 1 1 0 00.67-.24.2.2 0 01.11 0 .16.16 0 01.16.16.18.18 0 01-.06.13 1.25 1.25 0 01-.88.32c-.76 0-1.23-.42-1.23-1.37s.43-1.38 1.17-1.38zm0 .32a.78.78 0 00-.8.82h1.52c0-.36-.14-.82-.72-.82zM46.75 46.55a1.08 1.08 0 01.86-.33c.74 0 1.18.43 1.18 1.35s-.44 1.37-1.18 1.37a.91.91 0 01-.77-.4v1.28a.18.18 0 01-.36 0v-2.56a1.24 1.24 0 01.27-.71zm.86 2.06c.52 0 .82-.33.82-1s-.31-1-.83-1-.77.3-.77 1 .34 1 .78 1zM50.32 46.84a.15.15 0 01-.14.08.17.17 0 01-.17-.16.17.17 0 010-.1 1 1 0 01.94-.44.91.91 0 011 1v.92c0 .6-.79.84-1.16.84-.6 0-1-.29-1-.81s.38-.8 1-.8h.8v-.15a.6.6 0 00-.67-.62.81.81 0 00-.6.24zm1.33 1v-.24h-.8c-.37 0-.62.15-.62.48s.2.48.64.48a.72.72 0 00.78-.67zM61.36 46.91c0 .59 1.49.37 1.49 1.27 0 .52-.42.75-1 .75a1.26 1.26 0 01-1-.41.14.14 0 010-.1.18.18 0 01.17-.17.15.15 0 01.12.06 1 1 0 00.72.28c.32 0 .6-.11.6-.41 0-.58-1.49-.35-1.49-1.27 0-.47.39-.69.87-.69a1.05 1.05 0 01.86.36.29.29 0 010 .11.17.17 0 01-.16.17.19.19 0 01-.12 0 .78.78 0 00-.61-.24c-.2-.05-.45.03-.45.29zM65.13 46.22a1 1 0 011.08 1.1c0 .16 0 .36-.22.36h-1.65a.82.82 0 00.85.92 1 1 0 00.68-.24.15.15 0 01.1 0 .16.16 0 01.16.16.15.15 0 01-.06.13 1.22 1.22 0 01-.88.32c-.75 0-1.22-.42-1.22-1.37s.43-1.38 1.16-1.38zm0 .32a.76.76 0 00-.79.82h1.52c0-.36-.14-.82-.73-.82zM75.79 47.22v1.51a.18.18 0 11-.36 0v-1.44c0-.45-.16-.75-.71-.75a.62.62 0 00-.71.68v1.51a.18.18 0 11-.36 0v-1.44c0-.45-.14-.75-.69-.75s-.7.32-.7.79v1.4a.18.18 0 11-.36 0v-1.6c0-.75.73-.91 1.1-.91a1 1 0 01.89.39.92.92 0 01.83-.39c.87 0 1.07.52 1.07 1zM78.14 46.22a1 1 0 011.08 1.1c0 .16 0 .36-.23.36h-1.65a.83.83 0 00.86.92 1 1 0 00.67-.24.2.2 0 01.11 0 .16.16 0 01.16.16.18.18 0 01-.06.13 1.25 1.25 0 01-.88.32c-.76 0-1.23-.42-1.23-1.37s.43-1.38 1.17-1.38zm0 .32a.78.78 0 00-.8.82h1.52c0-.36-.14-.82-.72-.82zM82.61 47.22v1.51a.18.18 0 11-.36 0v-1.44c0-.45-.13-.75-.68-.75s-.75.34-.75.79v1.4a.18.18 0 01-.18.18.17.17 0 01-.18-.18v-1.48a1 1 0 011.11-1c.87-.03 1.04.49 1.04.97zM87.9 47.22v1.51a.18.18 0 01-.36 0v-1.44c0-.45-.13-.75-.68-.75s-.75.34-.75.79v1.4a.18.18 0 01-.18.18.17.17 0 01-.18-.18v-1.48a1 1 0 011.11-1c.87-.03 1.04.49 1.04.97zM83.93 45.5c0-.16.08-.22.21-.22a.19.19 0 01.22.22.2.2 0 01-.22.22.2.2 0 01-.21-.22zm.39 3.23a.18.18 0 11-.36 0v-2.3a.18.18 0 11.36 0zM32.33 48.73a.18.18 0 01-.36 0V45a.18.18 0 11.36 0zM39.06 46.55a1.13 1.13 0 01.86-.31.18.18 0 01.17.17.18.18 0 01-.17.18c-.52 0-.78.36-.78.88v1.26a.18.18 0 01-.18.18.17.17 0 01-.18-.18v-1.6a1 1 0 01.28-.58zM53.64 46.55a1.13 1.13 0 01.86-.31.18.18 0 01.17.17.18.18 0 01-.17.18.77.77 0 00-.79.88v1.26a.18.18 0 01-.36 0v-1.6a1 1 0 01.29-.58zM67.74 46.55a1.09 1.09 0 01.85-.31.18.18 0 01.18.17.18.18 0 01-.18.18c-.52 0-.78.36-.78.88v1.26a.18.18 0 11-.36 0v-1.6a1 1 0 01.29-.58zM56 46.84a.17.17 0 01-.15.08.16.16 0 01-.16-.16.17.17 0 010-.1 1 1 0 01.94-.44.91.91 0 011 1v.92c0 .6-.79.84-1.15.84-.6 0-1-.29-1-.81s.38-.8 1-.8h.79v-.15a.59.59 0 00-.66-.62.81.81 0 00-.61.24zm1.32 1v-.24h-.79c-.37 0-.63.15-.63.48s.21.48.65.48a.72.72 0 00.79-.67zM89.53 46.84a.15.15 0 01-.14.08.17.17 0 01-.17-.16.17.17 0 010-.1 1 1 0 01.94-.44.91.91 0 011 1v.92c0 .6-.79.84-1.16.84-.6 0-1-.29-1-.81s.38-.8 1-.8h.8v-.15a.6.6 0 00-.67-.62.81.81 0 00-.6.24zm1.33 1v-.24h-.8c-.37 0-.62.15-.62.48s.2.48.64.48a.72.72 0 00.78-.67z"/></g></g></symbol>
    <symbol viewBox="0 0 145.82 50" id="z-logo-mobile" xmlns="http://www.w3.org/2000/svg"><g data-name="Camada 2"><g data-name="Capa 1" ><path d="M88.89 16.67a7.22 7.22 0 002.5-5.41 6.54 6.54 0 00-6.61-6.61c-3.35 0-6.25 2.23-9.8 5.89l-.24-.26C69.12 4.09 65.41 0 60.87 0a6.54 6.54 0 00-6.61 6.61A7.2 7.2 0 0056.77 12a7.2 7.2 0 00-2.51 5.41A6.54 6.54 0 0060.87 24c3.35 0 6.25-2.23 9.81-5.9l.24.27c5.62 6.19 9.33 10.28 13.86 10.28a6.54 6.54 0 006.61-6.61 7.22 7.22 0 00-2.5-5.37zm-22.8 3c-2 1.62-3.6 2.35-5.22 2.35a4.47 4.47 0 01-4.55-4.55 5.13 5.13 0 011.78-3.84l.35-.29L60.16 12l-1.71-1.28-.35-.29a5.13 5.13 0 01-1.78-3.84 4.47 4.47 0 014.55-4.55c1.62 0 3.23.73 5.22 2.35a76 76 0 017.11 7.24l.33.36-.33.36a76 76 0 01-7.11 7.28zM88 25.32a4.54 4.54 0 01-3.24 1.31c-1.62 0-3.23-.73-5.22-2.35A76.31 76.31 0 0172.45 17l-.32-.36.32-.36a77.25 77.25 0 017.11-7.24c2-1.63 3.6-2.35 5.22-2.35a4.47 4.47 0 014.55 4.55 5.1 5.1 0 01-1.78 3.84l-.34.29-1.72 1.28 1.72 1.27.34.29a5.14 5.14 0 011.78 3.85A4.53 4.53 0 0188 25.32z"/><circle cx="74.98" cy="3.79" r="1.54"/><path d="M10.56 38L7.35 49a1.12 1.12 0 01-1.08.81 1.07 1.07 0 01-1-.74L.1 35.05a1.34 1.34 0 01-.1-.49 1.1 1.1 0 011.11-1.11 1.09 1.09 0 011.05.73l4 11.53 3.35-11.53a1.07 1.07 0 011.05-.73 1 1 0 011 .73l3.31 11.53L19 34.18a1.08 1.08 0 011-.73 1.1 1.1 0 011.12 1.11 1.37 1.37 0 01-.11.49l-5.12 14a1.08 1.08 0 01-1 .74 1.11 1.11 0 01-1.12-.79zM37 41.6c0 5.72-2.79 8.4-7.32 8.4s-7.32-2.68-7.32-8.4 2.83-8.36 7.32-8.36S37 35.89 37 41.6zm-2.26 0c0-4.39-1.85-6.34-5.06-6.34s-5 2-5 6.34 1.85 6.38 5 6.38 5.1-1.92 5.1-6.38zM52.23 29.25a1.15 1.15 0 00-1.11 1.12v18.34a1.12 1.12 0 001.11 1.12 1.16 1.16 0 001.12-1.12V30.37a1.13 1.13 0 00-1.12-1.12zM69.45 35.5v-5.13a1.12 1.12 0 112.23 0v12.77c0 4.59-2.86 6.86-6.83 6.86-4.5 0-7.15-2.68-7.15-8.4s2.51-8.36 7-8.36a5.93 5.93 0 014.75 2.26zm0 2.83a5.29 5.29 0 00-4.6-3.07c-3.18 0-4.92 2.06-4.92 6.34s1.71 6.4 4.92 6.4c2.68 0 4.6-1.53 4.6-4.84zM42.4 35.24a6.81 6.81 0 015.3-1.93 1.08 1.08 0 010 2.16c-3.21 0-4.84 2.23-4.84 5.43v7.81a1.12 1.12 0 11-2.23 0v-9.87a6.06 6.06 0 011.77-3.6zM105.77 28.69a1.14 1.14 0 00-1.11 1.11v18.91a1.12 1.12 0 001.11 1.12 1.16 1.16 0 001.12-1.12V29.8a1.12 1.12 0 00-1.12-1.11zM81.28 33.24a6.6 6.6 0 015.37 2.4 1.08 1.08 0 01.24.66 1 1 0 01-1 1 1 1 0 01-.83-.42 4.46 4.46 0 00-3.77-1.64c-3.2 0-4.91 2.06-4.91 6.34s1.7 6.42 4.9 6.42a6.36 6.36 0 004-1.5 1.08 1.08 0 01.67-.24 1 1 0 011 1 1.1 1.1 0 01-.46.87A7.92 7.92 0 0181.28 50c-4.49 0-7.18-2.68-7.18-8.4s2.69-8.36 7.18-8.36zM103 41.6c0 5.72-2.79 8.4-7.32 8.4s-7.32-2.68-7.32-8.4 2.82-8.36 7.32-8.36S103 35.89 103 41.6zm-2.27 0c0-4.39-1.85-6.34-5-6.34s-5.06 2-5.06 6.34 1.78 6.4 4.99 6.4 5.05-1.94 5.05-6.4zM123.55 41.6c0 5.72-2.78 8.4-7.32 8.4s-7.31-2.68-7.31-8.4 2.82-8.36 7.31-8.36 7.32 2.65 7.32 8.36zm-2.26 0c0-4.39-1.85-6.34-5.06-6.34s-5 2-5 6.34 1.77 6.4 5 6.4 5.06-1.94 5.06-6.4zM127.12 35.24a6.8 6.8 0 015.3-1.93 1.08 1.08 0 110 2.16c-3.21 0-4.85 2.23-4.85 5.43v7.81a1.12 1.12 0 11-2.23 0v-9.87a6.11 6.11 0 011.78-3.6zM136.65 37.49c0 3.66 9.17 2.3 9.17 7.88 0 3.17-2.62 4.6-5.93 4.6a7.86 7.86 0 01-6-2.51 1.08 1.08 0 01-.24-.67 1 1 0 011-1 1.07 1.07 0 01.77.35 5.89 5.89 0 004.42 1.71c2 0 3.7-.66 3.7-2.47 0-3.59-9.17-2.17-9.17-7.88 0-2.89 2.37-4.22 5.33-4.22a6.36 6.36 0 015.3 2.23 1 1 0 01.24.67 1 1 0 01-1 1 1 1 0 01-.73-.32 5 5 0 00-3.8-1.46c-1.52 0-3.06.49-3.06 2.09z"/></g></g></symbol>
    <symbol viewBox="0 0 23 58" id="z-next" xmlns="http://www.w3.org/2000/svg"><g data-name="Camada 2"><path d="M0 1.98L5.05 0 23 29.11 5.05 58 0 56.15l16.68-27.04L0 1.98z" data-name="Capa 1"/></g></symbol>
    <symbol viewBox="0 0 23 58" id="z-prev" xmlns="http://www.w3.org/2000/svg"><g data-name="Camada 2"><path d="M23 1.98L17.95 0 0 29.11 17.95 58 23 56.15 6.32 29.11 23 1.98z" data-name="Capa 1"/></g></symbol>
    <symbol viewBox="0 0 31 31" id="z-search" xmlns="http://www.w3.org/2000/svg">
        <path d="M18.91,21.79a2.44,2.44,0,0,0,.69,1.3l6.67,6.66a2.46,2.46,0,0,0,3.48-3.48L23.09,19.6a2.44,2.44,0,0,0-1.3-.69Z" fill="var(--color-2)" stroke="var(--color-2)" stroke-miterlimit="10"/>
        <path d="M21.84,19A11.75,11.75,0,1,0,19,21.84,13.78,13.78,0,0,0,21.84,19Zm-3.38-.5A8.9,8.9,0,0,1,6,18.46,8.9,8.9,0,0,1,6,6,8.9,8.9,0,0,1,18.46,6,8.9,8.9,0,0,1,18.46,18.46Z" fill="var(--color-1)" stroke="var(--color-1)" stroke-miterlimit="10"/>
    </symbol>
    <symbol viewBox="0 0 22.86 30" id="z-user" xmlns="http://www.w3.org/2000/svg">
        <path fill="var(--color-1)" d="M22.49 24.49a5 5 0 00-1.44-1.19l-4.85-2.94-.15-.1h-2.63a.36.36 0 01-.35-.31 2.38 2.38 0 00.83 1.95 5 5 0 00.77.56l.11.08 4.52 2.74a14.42 14.42 0 01-7.61 2.12h-.52a14.48 14.48 0 01-7.62-2.12l4.52-2.74.12-.08a4.89 4.89 0 00.74-.54 2.4 2.4 0 00.85-2 .34.34 0 01-.35.33H6.81l-.15.1-4.84 2.94a4.88 4.88 0 00-1.45 1.2 1.31 1.31 0 00-.3 1 1.27 1.27 0 00.49.88A16.87 16.87 0 0011.17 30h.52a16.91 16.91 0 0010.61-3.66 1.31 1.31 0 00.19-1.85z" />
        <path fill="var(--color-2)" d="M.83 19.81a3.82 3.82 0 002.3.45h6.3a.34.34 0 00.35-.33 2.24 2.24 0 00-2.24-2.24H3.06a22.83 22.83 0 003-9.34 8.55 8.55 0 01.6-2.71 4.78 4.78 0 014.73-3 4.79 4.79 0 014.73 3 8.75 8.75 0 01.6 2.66 22.86 22.86 0 003 9.39H15.3a2.24 2.24 0 00-2.24 2.24v.05a.36.36 0 00.35.31h6.31a3.82 3.82 0 002.3-.45 1.18 1.18 0 00.25-.19 1.78 1.78 0 00.58-1.24 2 2 0 00-.21-1 .41.41 0 000-.09 21.93 21.93 0 01-3.26-9.26 10.92 10.92 0 00-.82-3.53A7.36 7.36 0 0011.43 0a7.36 7.36 0 00-7.09 4.52 11.23 11.23 0 00-.83 3.57 21.81 21.81 0 01-3.25 9.22l-.06.1a2.07 2.07 0 00-.2 1 1.74 1.74 0 00.58 1.24 1 1 0 00.25.16z" />
    </symbol>
    <symbol viewBox="0 0 42.58 30" id="z-youtube" xmlns="http://www.w3.org/2000/svg"><g data-name="Camada 2"><path d="M41.69 4.68A5.34 5.34 0 0037.93.9C34.61 0 21.29 0 21.29 0S8 0 4.65.9A5.34 5.34 0 00.89 4.68C0 8 0 15 0 15s0 7 .89 10.32a5.34 5.34 0 003.76 3.78c3.35.9 16.64.9 16.64.9s13.32 0 16.64-.9a5.34 5.34 0 003.76-3.78c.89-3.32.89-10.32.89-10.32s0-7-.89-10.32M16.94 21.33V8.67L28.06 15z"  data-name="Capa 1"/></g></symbol>
    <symbol viewBox="0 0 27.86 30" id="z-close" xmlns="http://www.w3.org/2000/svg"><path fill-rule="evenodd" d="M27.86 3.04L25.55.57 14.23 12.62 2.42 0 0 2.58 11.64 15 0 27.42 2.42 30l11.81-12.61 10.83 11.56 2.31-2.47L16.62 15 27.86 3.04z"/></symbol>
    <symbol viewBox="0 0 30 30" id="z-user-m" xmlns="http://www.w3.org/2000/svg"><g data-name="Camada 2"><g data-name="Capa 1"><path d="M15 .78A14.21 14.21 0 00.78 15a14 14 0 004.6 10.45v.05l.36.31a14.57 14.57 0 007.09 3.26 2.12 2.12 0 00.56.05c.21 0 .42.05.63.05H15.15A14.22 14.22 0 0015 .78zm0 27.41h-.16a3.26 3.26 0 01-.72-.05 13.3 13.3 0 01-7.29-2.85 1.91 1.91 0 01.67-.46l4.71-2a2.23 2.23 0 00.79-1.11.86.86 0 00-.05-.88.91.91 0 00-.77-.41H8.9a7.55 7.55 0 01-2-.46 1.48 1.48 0 00-.26-.11.22.22 0 000-.15c1.19-1.66 3.16-5 3.21-8.49 0-.2.16-4.81 4.81-4.86a4.87 4.87 0 014.71 3 8.17 8.17 0 01.63 2.48 18 18 0 002.74 7.82.65.65 0 010 .31.43.43 0 01-.15.25 2.22 2.22 0 01-1.25.21H18a1 1 0 00-.83.57 1 1 0 00.26 1c.36.31.52.36.57.42l3.93 2.38a2.93 2.93 0 01.88.72A12.46 12.46 0 0115 28.19zm8.69-3.26a3.94 3.94 0 00-1.19-1l-3.93-2.38a.19.19 0 01-.11-.05h2.85a3 3 0 001.91-.37 1.3 1.3 0 00.62-.88 1.47 1.47 0 00-.15-1.13 16.49 16.49 0 01-2.59-7.35 7.91 7.91 0 00-.62-2.84 5.86 5.86 0 00-5.64-3.62C9.16 5.38 9 11.12 9 11.17c0 3.36-2.12 6.67-3 7.92a1 1 0 00-.21 1 1.31 1.31 0 00.83.83 9.25 9.25 0 002.32.57H12c-.1.15-.21.36-.26.41L7 23.9a4.19 4.19 0 00-1 .72A13 13 0 011.81 15a13.19 13.19 0 1121.83 9.93z"/><path d="M15.1 30h-.2a4.58 4.58 0 01-.53 0h-.81a7.18 7.18 0 01-.94-.09 15.22 15.22 0 01-7.43-3.51l-.37-.31a.78.78 0 01-.21-.3A15 15 0 1115.1 30zm-6.91-4.64a12.52 12.52 0 005.94 2h.13a4 4 0 00.53 0H15a11.65 11.65 0 006.55-2l-3.94-2.39h-.08a5.1 5.1 0 01-.6-.44 1.71 1.71 0 01-.5-1.78l.06-.14a1.75 1.75 0 011.52-1h3.57a1.27 1.27 0 00.34 0 18.42 18.42 0 01-2.62-7.76 6.82 6.82 0 00-.5-2.21 4.1 4.1 0 00-4-2.55c-4 0-4 3.92-4 4.09a16.16 16.16 0 01-2.87 8.23c.49.12 1 .18 1.1.2h3.22a1.69 1.69 0 011.44.79 1.65 1.65 0 01.08 1.62 3 3 0 01-1.14 1.41h-.08zm13-3.11l1.63 1a4.87 4.87 0 01.83.6A12.19 12.19 0 0027.41 15a12.41 12.41 0 00-24.82 0A12.16 12.16 0 006 23.58c.19-.14.38-.25.56-.36a1.06 1.06 0 01.25-.09l2.08-.89h-.05a9.43 9.43 0 01-2.62-.63 2.07 2.07 0 01-1.28-1.33 1.78 1.78 0 01.33-1.64c.3-.41 2.85-3.91 2.9-7.48 0-1.69 1.22-6.56 6.61-6.66a6.65 6.65 0 016.36 4.09 8.61 8.61 0 01.69 3.11 15.86 15.86 0 002.47 7 2.26 2.26 0 01.25 1.71 2.1 2.1 0 01-.95 1.36 3.89 3.89 0 01-2.38.48zM17.4 23z"/></g></g></symbol>
    <symbol viewBox="0 0 30 30" id="z-helper-m" xmlns="http://www.w3.org/2000/svg"><g data-name="Camada 2"><g data-name="Capa 1"><path d="M15 0A15 15 0 004.61 25.81a.79.79 0 00.21.28l.36.31a15 15 0 007.46 3.41l.59.08c.21 0 .43.05.64.06s.63 0 1 .05H15a15 15 0 000-30zm0 27.41v.78l-.05-.78H14l-.52-.06h-.24l-.53-.08h-.19c-.22 0-.43-.1-.65-.15l-.32-.09-.34-.1-.36-.13-.27-.1-.39-.15h-.06c-.3-.13-.6-.27-.89-.43l-.19-.09-.39-.23a1.18 1.18 0 00-.19-.11l-.27-.17a12.64 12.64 0 01-2.15-1.78 12.41 12.41 0 019-21A12.4 12.4 0 0127.41 15v.62A12.41 12.41 0 0115 27.41z"/><path d="M25.21 14.73a3.18 3.18 0 00-1.59-2.55 8.42 8.42 0 00-1.17-4.24A8.63 8.63 0 0020 5.26a8.58 8.58 0 00-13.54 6.92 3.18 3.18 0 00-1.59 2.75v2.7a3.18 3.18 0 003.18 3.18h1.59a.79.79 0 00.79-.79v-7.47a.79.79 0 00-.79-.8H8.07a7 7 0 0112.65-3.57l.06.09.05.07V8.8a.56.56 0 00.05.08c.12.24.23.49.33.74a7.08 7.08 0 01.41 1.9h-1.17a.8.8 0 00-.8.8v8.3a.79.79 0 01-.79.8h-2.42a1.61 1.61 0 00-1.4-.82A1.59 1.59 0 1015 24a1.61 1.61 0 001.4-.82h2.42a2.39 2.39 0 002.38-2.39h.8a3.18 3.18 0 003.18-3.18v-2.7a1.34 1.34 0 00.03-.18zM8.84 13.34v5.88h-.79a1.59 1.59 0 01-1.59-1.59v-2.7a1.59 1.59 0 011.59-1.59zm14.79 4.29A1.59 1.59 0 0122 19.22h-.8v-5.88h.8a1.59 1.59 0 011.59 1.59z"/><path d="M15 24.55a2.11 2.11 0 111.65-3.42h2.17a.29.29 0 00.28-.28v-8.3a1.32 1.32 0 011.31-1.32h1a6.22 6.22 0 00-.31-1.2 5.37 5.37 0 00-.31-.69v-.08l.43-.3-.45.25v-.05l-.05-.09.42-.31-.49.24.41-.33-.44.33-.1-.15.41-.32-.44.27-.18-.27a6.48 6.48 0 00-11.66 2.7h1A1.32 1.32 0 0111 12.55V20a1.31 1.31 0 01-1.31 1.31H8.05a3.7 3.7 0 01-3.7-3.7v-2.7a3.73 3.73 0 011.6-3 9.11 9.11 0 0116.8-4.47l.16.25a9.07 9.07 0 011.23 4.22 3.68 3.68 0 011.59 2.81V17.65a3.7 3.7 0 01-3.7 3.7h-.32a2.9 2.9 0 01-2.86 2.42h-2.16a2.1 2.1 0 01-1.69.78zm0-3.18A1.07 1.07 0 1016 23l.29-.52-.29-.56a1.08 1.08 0 00-1-.55zm2 1.35h1.91a1.87 1.87 0 001.87-1.87v-.52H22a2.66 2.66 0 002.66-2.66V14.6a2.64 2.64 0 00-1.31-2l-.25-.15v-.3a8 8 0 00-1-3.84L22 8.2a8.06 8.06 0 00-15 4v.3l-.25.15a2.67 2.67 0 00-1.33 2.3v2.7a2.66 2.66 0 002.66 2.66h1.56a.28.28 0 00.28-.31v-7.45a.28.28 0 00-.28-.28H7.51v-.56a7.52 7.52 0 0113.63-3.83l.48.75-.42.31.45-.25.08.15a7.08 7.08 0 01.36.82 7.39 7.39 0 01.45 2.05v.56h-2.09a.28.28 0 00-.28.28v8.3a1.31 1.31 0 01-1.31 1.31H17zm5.09-3h-1.36v-6.9H22a2.12 2.12 0 012.11 2.11v2.7A2.12 2.12 0 0122 19.74zm-.28-1H22a1.08 1.08 0 001.07-1.08v-2.7A1.07 1.07 0 0022 13.86h-.28zm-12.4 1H8.05a2.12 2.12 0 01-2.11-2.11v-2.7a2.12 2.12 0 012.11-2.11h1.31zm-1.36-5.86A1.07 1.07 0 007 14.93v2.7a1.08 1.08 0 001.07 1.08h.28v-4.85z"/></g></g></symbol>
    <symbol viewBox="0 0 30 30" id="z-order-m" xmlns="http://www.w3.org/2000/svg"><g data-name="Camada 2"><g data-name="Capa 1"><path d="M15 0A15 15 0 004.61 25.81a.79.79 0 00.21.28l.36.31a15 15 0 007.46 3.41l.59.08c.21 0 .43.05.64.06s.63 0 1 .05H15a15 15 0 000-30zm12.41 15v.62A12.41 12.41 0 0115 27.41v.78l-.05-.78H14l-.53-.06a2 2 0 01-.24 0l-.52-.08h-.2c-.22 0-.43-.09-.65-.15l-.32-.09-.34-.1-.36-.13-.27-.1-.39-.15h-.06c-.3-.13-.6-.27-.89-.43l-.19-.09-.39-.23a1.18 1.18 0 00-.19-.11l-.27-.17a12.64 12.64 0 01-2.15-1.78 12.41 12.41 0 019-21A12.4 12.4 0 0127.41 15z"/><path d="M22.14 9h-11a1.3 1.3 0 000 2.59h11a1.3 1.3 0 100-2.59zM22.14 13.7h-11a1.3 1.3 0 000 2.6h11a1.3 1.3 0 000-2.6zM22.14 18.41h-11a1.3 1.3 0 000 2.59h11a1.3 1.3 0 100-2.59zM7.83 9a1.27 1.27 0 00-1.27 1.27v.06a1.27 1.27 0 002.54 0v-.06A1.27 1.27 0 007.83 9zM7.83 13.7A1.27 1.27 0 006.56 15a1.27 1.27 0 002.54 0 1.27 1.27 0 00-1.27-1.3zM7.83 18.41a1.26 1.26 0 00-1.27 1.26v.06a1.27 1.27 0 102.54 0v-.06a1.26 1.26 0 00-1.27-1.26z"/></g></g></symbol>
    <symbol viewBox="0 0 106.9 168.18" id="z-brasil" xmlns="http://www.w3.org/2000/svg"><g data-name="Camada 2"><g data-name="Capa 1"><path d="M3.33 17.72a.93.93 0 01-1.86 0V.93A.92.92 0 012.4 0h8.79a.85.85 0 010 1.7H3.33v6.82h6a.85.85 0 110 1.69h-6zM18 5.61c4.38 0 5.23 3.48 5.23 5.34 0 .8 0 1.76-1.1 1.76h-8c0 2.71 1.56 4.46 4.13 4.46A5 5 0 0021.52 16a.74.74 0 01.49-.16.79.79 0 01.8.79.8.8 0 01-.31.63 6.09 6.09 0 01-4.27 1.53c-3.64 0-5.91-2-5.91-6.6C12.32 8 14.4 5.61 18 5.61zm0 1.59c-2.38 0-3.7 1.53-3.86 4h7.36c-.04-2-.72-4-3.5-4zM24.88 2.16c0-.79.39-1.09 1-1.09s1 .3 1 1.09a1 1 0 01-2.09 0zm1.92 15.61a.88.88 0 11-1.75 0V6.65a.88.88 0 011.75 0zM30.81 3.12a.91.91 0 01.87-.88.89.89 0 01.88.88V6h1.78a.82.82 0 010 1.64h-1.78v7.56a1.58 1.58 0 001.59 1.8.83.83 0 110 1.65 3.16 3.16 0 01-3.34-3.45V7.64h-1.07a.82.82 0 110-1.64h1.07zM48.66 12.18c0 4.5-2.19 6.6-5.75 6.6s-5.75-2.1-5.75-6.6 2.22-6.57 5.75-6.57 5.75 2.08 5.75 6.57zm-1.78 0c0-3.45-1.45-5-4-5s-4 1.53-4 5 1.45 5 4 5 4-1.49 4-5zM67.9 10.46v7.31a.88.88 0 01-1.76 0v-7c0-2.16-.63-3.64-3.28-3.64S59.21 8.82 59.21 11v6.76a.88.88 0 11-1.75 0V6.65a.88.88 0 011.75 0v.88a4 4 0 013.65-1.92c4.21 0 5.04 2.52 5.04 4.85zM80.33 12.18c0 4.5-2.19 6.6-5.75 6.6s-5.75-2.1-5.75-6.6 2.22-6.57 5.75-6.57 5.75 2.08 5.75 6.57zm-1.77 0c0-3.45-1.46-5-4-5s-4 1.53-4 5 1.46 5 4 5 4-1.49 4-5zM1.85 59.65A1.86 1.86 0 010 57.81v-32.9a1.87 1.87 0 011.85-1.85h9.24c7.67 0 11.09 3.81 11.09 9.68a7.53 7.53 0 01-5.27 7.39c3.91 1 7 3.81 7 9.08 0 6.31-4 10.44-11.15 10.44zm1.85-20.6H11c4.84 0 7.39-2.5 7.39-6.31s-2.3-6.31-7.39-6.31H3.7zm0 17.23h9c5 0 7.45-2.66 7.45-7.07s-2.83-7-7.45-7h-9zM32.48 38.67c1.09-2.5 3.8-4.35 7.56-4.35a1.69 1.69 0 010 3.37c-5 0-7.56 3.48-7.56 8.48v12.18a1.74 1.74 0 01-3.48 0V36.27a1.74 1.74 0 113.48 0zM47.58 40.24a1.78 1.78 0 01-1.42.76 1.57 1.57 0 01-1.57-1.57 1.75 1.75 0 01.27-.93c1.52-2.39 4.46-4.29 9-4.29 6.31 0 9.79 3.7 9.79 9.24V58.4a1.69 1.69 0 11-3.37 0v-1.95c-1.36 2.55-4.51 3.91-7.77 3.91-5.77 0-9.41-2.77-9.41-7.77 0-4.79 3.64-7.67 9.51-7.67h7.69v-1.47c0-3.7-2.45-6-6.42-6a7.51 7.51 0 00-6.3 2.79zm12.72 10V48h-7.67c-3.53 0-6 1.47-6 4.63 0 2.82 2 4.62 6.2 4.62 3.83-.04 7.47-2.38 7.47-7zM90 27.36c0-1.58.76-2.18 2.07-2.18s2.07.6 2.07 2.18a2.07 2.07 0 01-4.14 0zm3.81 31a1.74 1.74 0 11-3.48 0V36.27a1.74 1.74 0 113.48 0zM103.09 22.68v31.05c0 2.17.71 3.1 2.17 3.1a1.63 1.63 0 110 3.26c-3.64 0-5.65-2.18-5.65-6.36v-31a1.79 1.79 0 011.74-1.74 1.75 1.75 0 011.74 1.69zM71.89 41.18c0 5.45 13.65 3.42 13.65 11.73 0 4.72-3.89 6.85-8.82 6.85A11.65 11.65 0 0167.84 56a1.53 1.53 0 01-.36-1A1.51 1.51 0 0169 53.53a1.64 1.64 0 011.15.52 8.76 8.76 0 006.59 2.54c3 0 5.5-1 5.5-3.68 0-5.35-13.65-3.22-13.65-11.73 0-4.31 3.53-6.28 7.94-6.28 3.53 0 6.28 1.19 7.89 3.32a1.56 1.56 0 01.36 1 1.51 1.51 0 01-1.5 1.51 1.45 1.45 0 01-1.09-.47 7.37 7.37 0 00-5.66-2.18c-2.36-.02-4.64.71-4.64 3.1z" fill="#fff"/><path d="M105.37 116.76c-19.35-10.48-29.9-26.19-33-40.39H57.12C43.81 88.49 24.29 101.23.52 116.49V124c23.33 10.58 35.59 28.4 38.61 44.14H53c12.33-11.51 30.34-23.54 52.35-37.71zm-75.25 5.52a25.57 25.57 0 0149.19-9.79c-22.09 1.09-38.86 13.28-46.87 20.44a25.43 25.43 0 01-2.32-10.65zm25.56 25.57a25.52 25.52 0 01-20-9.68c7.17-6.51 23.78-19.11 45.31-19.73a25.63 25.63 0 01-25.29 29.41z" fill="#f0c931"/><path d="M.52 83.69v32.8c23.77-15.26 43.29-28 56.6-40.12H7.83a7.31 7.31 0 00-7.31 7.32zM.52 124v36.82a7.31 7.31 0 007.31 7.32h31.3C36.11 152.44 23.85 134.62.52 124zM105.37 116.76V83.69a7.31 7.31 0 00-7.31-7.32H72.38c3.09 14.2 13.62 29.91 32.99 40.39zM105.37 160.86v-30.39c-22 14.17-40 26.2-52.35 37.71h45a7.31 7.31 0 007.35-7.32z" fill="#64a53f"/><path d="M55.68 96.71a25.58 25.58 0 00-23.24 36.22c8-7.16 24.78-19.35 46.87-20.44a25.56 25.56 0 00-23.63-15.78zM55.68 147.85A25.63 25.63 0 0081 118.44c-21.53.62-38.14 13.22-45.31 19.73a25.52 25.52 0 0019.99 9.68z" fill="#5268d3"/></g></g></symbol>
    <symbol viewBox="0 0 279.7 69.68" id="z-desigual" xmlns="http://www.w3.org/2000/svg"><g data-name="Camada 2"><g data-name="Capa 1" fill="#262424"><path d="M33.15.57v21.3q-5.37-5.52-14-5.53A18.29 18.29 0 005.68 22.1 20 20 0 000 36.74v.56a20 20 0 005.68 14.64 18.29 18.29 0 0013.47 5.76 19 19 0 0014-5.45v4.36h8.18V0h-8.18zm-3.81 45.74A12.41 12.41 0 0120.47 50a12.08 12.08 0 01-8.95-3.62A13 13 0 018 37a13 13 0 013.57-9.29 12 12 0 019-3.66 12.37 12.37 0 018.87 3.7 12.61 12.61 0 013.7 9.25 12.59 12.59 0 01-3.8 9.29M168.84 20.1q-4.59-4.82-13.31-4.82a18.64 18.64 0 00-13.27 5.37 17.55 17.55 0 00-5.64 13.23 17.76 17.76 0 005.68 13.31 18.54 18.54 0 0013.23 5.45q8.73 0 13.31-4.83v2.49q0 5.61-3.31 8.83a12 12 0 01-8.83 3.23 14 14 0 01-7.2-1.63 15.54 15.54 0 01-5-5.21l-6.61 4.9q5 9.26 18.83 9.26 9.18 0 14.59-4.82t5.41-13.39V16.29h-7.86zm-3.54 22.22a11.91 11.91 0 01-8.44 3.31 12.54 12.54 0 01-8.86-3.27 11 11 0 01-3.54-8.48 11 11 0 013.54-8.52 12.6 12.6 0 018.84-3.23 12 12 0 018.44 3.27 11 11 0 013.54 8.48 11 11 0 01-3.54 8.44M212.35 34.11q0 7.08-3 10.74a10.34 10.34 0 01-8.41 3.66 8.46 8.46 0 01-6.73-2.92 11.25 11.25 0 01-2.53-7.66V16.29h-8.09v23.27q0 7.32 4.24 11.87A14.6 14.6 0 00199 56q8.42 0 13.31-5.83v4.74h8.1V16.29h-8.1zM108.21 33.1l-9.18-2c-3.12-.73-4.67-2.18-4.67-4.36a4.49 4.49 0 011.75-3.62 7.83 7.83 0 015.1-1.44 9.88 9.88 0 016 1.71A6.82 6.82 0 01110 28l7.71-1.63a13.07 13.07 0 00-5.41-8.06 18.26 18.26 0 00-10.86-3.07q-6.93 0-11.09 3.39a10.82 10.82 0 00-4.16 8.83q0 8.17 10.5 10.51l8.41 1.71q5.2 1.17 5.21 4.59a4.33 4.33 0 01-2.06 3.73 9.8 9.8 0 01-5.56 1.4A12.35 12.35 0 0196 47.73a6.35 6.35 0 01-3-4.9h-8.1a16.12 16.12 0 001 5.35 11.14 11.14 0 004.45 4.9A21.68 21.68 0 00102 56q7.39 0 11.83-3.27a10.74 10.74 0 004.44-9.18 9.17 9.17 0 00-2.65-6.73 14.19 14.19 0 00-7.39-3.7M64.47 15.2a19.48 19.48 0 00-14.21 5.72q-5.79 5.71-5.8 14.75t5.8 14.63A19.15 19.15 0 0064.15 56a20.92 20.92 0 0011.41-3.07 18.14 18.14 0 007.2-9.07l.31-1h-7.86C73 46.91 69.28 49 64.15 49a11.06 11.06 0 01-7.78-3.12 12.71 12.71 0 01-3.89-8.32h31.29v-2.8a20 20 0 00-5.88-14 18.41 18.41 0 00-13.42-5.56M52.71 31.78A10.74 10.74 0 0157 24.85a12.47 12.47 0 017.48-2.49 10.83 10.83 0 017.08 2.41 11.69 11.69 0 013.89 7zM127.59 3.37a5.07 5.07 0 00-3.73 1.48 4.87 4.87 0 00-1.48 3.58 4.7 4.7 0 001.48 3.57 5.17 5.17 0 003.73 1.4 5.05 5.05 0 003.7-1.4 4.78 4.78 0 001.44-3.58 4.87 4.87 0 00-1.48-3.58 5 5 0 00-3.66-1.48M123.54 16.29h8.09v38.6h-8.09zM271.6 3.37h8.09v51.52h-8.09zM266 54.89v-38.6h-8.09v4.44q-5.29-5.54-14-5.53a18.29 18.29 0 00-13.5 5.8 20 20 0 00-5.68 14.63q0 9 5.64 14.67a18.3 18.3 0 0013.51 5.7q8.72 0 14-5.52v4.43zm-11.91-9.77a12.33 12.33 0 01-8.87 3.7 12.16 12.16 0 01-9-3.62 13.08 13.08 0 01-3.58-9.61 13.1 13.1 0 013.53-9.59 12.19 12.19 0 019-3.62 12.33 12.33 0 018.87 3.7 12.69 12.69 0 013.82 9.53 12.69 12.69 0 01-3.82 9.53"/></g></g></symbol>
</svg>